G75*
%MOIN*%
%OFA0B0*%
%FSLAX25Y25*%
%IPPOS*%
%LPD*%
%AMOC8*
5,1,8,0,0,1.08239X$1,22.5*
%
%ADD10C,0.00394*%
%ADD11C,0.01000*%
%ADD12C,0.00200*%
%ADD13C,0.00000*%
%ADD14C,0.00500*%
%ADD15C,0.00400*%
D10*
X0001394Y0001197D02*
X0001197Y0129031D01*
X0083559Y0129031D01*
X0083756Y0072063D01*
X0083755Y0072063D02*
X0083757Y0071976D01*
X0083763Y0071889D01*
X0083772Y0071802D01*
X0083786Y0071716D01*
X0083803Y0071631D01*
X0083824Y0071546D01*
X0083849Y0071463D01*
X0083877Y0071380D01*
X0083909Y0071299D01*
X0083945Y0071220D01*
X0083984Y0071142D01*
X0084026Y0071066D01*
X0084072Y0070992D01*
X0084121Y0070920D01*
X0084173Y0070850D01*
X0084228Y0070783D01*
X0084286Y0070718D01*
X0084347Y0070655D01*
X0084411Y0070596D01*
X0084477Y0070539D01*
X0084546Y0070486D01*
X0084617Y0070435D01*
X0084690Y0070388D01*
X0084765Y0070343D01*
X0084842Y0070303D01*
X0084920Y0070265D01*
X0085001Y0070232D01*
X0085082Y0070201D01*
X0085165Y0070175D01*
X0085250Y0070152D01*
X0085335Y0070133D01*
X0085420Y0070118D01*
X0085507Y0070106D01*
X0085593Y0070098D01*
X0085680Y0070094D01*
X0085768Y0070094D01*
X0085855Y0070098D01*
X0085941Y0070106D01*
X0086028Y0070118D01*
X0086113Y0070133D01*
X0086198Y0070152D01*
X0086283Y0070175D01*
X0086366Y0070201D01*
X0086447Y0070232D01*
X0086528Y0070265D01*
X0086606Y0070303D01*
X0086683Y0070343D01*
X0086758Y0070388D01*
X0086831Y0070435D01*
X0086902Y0070486D01*
X0086971Y0070539D01*
X0087037Y0070596D01*
X0087101Y0070655D01*
X0087162Y0070718D01*
X0087220Y0070783D01*
X0087275Y0070850D01*
X0087327Y0070920D01*
X0087376Y0070992D01*
X0087422Y0071066D01*
X0087464Y0071142D01*
X0087503Y0071220D01*
X0087539Y0071299D01*
X0087571Y0071380D01*
X0087599Y0071463D01*
X0087624Y0071546D01*
X0087645Y0071631D01*
X0087662Y0071716D01*
X0087676Y0071802D01*
X0087685Y0071889D01*
X0087691Y0071976D01*
X0087693Y0072063D01*
X0087693Y0128874D01*
X0170370Y0128874D01*
X0170370Y0001197D01*
X0087693Y0001197D01*
X0087693Y0056315D01*
X0087691Y0056402D01*
X0087685Y0056489D01*
X0087676Y0056576D01*
X0087662Y0056662D01*
X0087645Y0056747D01*
X0087624Y0056832D01*
X0087599Y0056915D01*
X0087571Y0056998D01*
X0087539Y0057079D01*
X0087503Y0057158D01*
X0087464Y0057236D01*
X0087422Y0057312D01*
X0087376Y0057386D01*
X0087327Y0057458D01*
X0087275Y0057528D01*
X0087220Y0057595D01*
X0087162Y0057660D01*
X0087101Y0057723D01*
X0087037Y0057782D01*
X0086971Y0057839D01*
X0086902Y0057892D01*
X0086831Y0057943D01*
X0086758Y0057990D01*
X0086683Y0058035D01*
X0086606Y0058075D01*
X0086528Y0058113D01*
X0086447Y0058146D01*
X0086366Y0058177D01*
X0086283Y0058203D01*
X0086198Y0058226D01*
X0086113Y0058245D01*
X0086028Y0058260D01*
X0085941Y0058272D01*
X0085855Y0058280D01*
X0085768Y0058284D01*
X0085680Y0058284D01*
X0085593Y0058280D01*
X0085507Y0058272D01*
X0085420Y0058260D01*
X0085335Y0058245D01*
X0085250Y0058226D01*
X0085165Y0058203D01*
X0085082Y0058177D01*
X0085001Y0058146D01*
X0084920Y0058113D01*
X0084842Y0058075D01*
X0084765Y0058035D01*
X0084690Y0057990D01*
X0084617Y0057943D01*
X0084546Y0057892D01*
X0084477Y0057839D01*
X0084411Y0057782D01*
X0084347Y0057723D01*
X0084286Y0057660D01*
X0084228Y0057595D01*
X0084173Y0057528D01*
X0084121Y0057458D01*
X0084072Y0057386D01*
X0084026Y0057312D01*
X0083984Y0057236D01*
X0083945Y0057158D01*
X0083909Y0057079D01*
X0083877Y0056998D01*
X0083849Y0056915D01*
X0083824Y0056832D01*
X0083803Y0056747D01*
X0083786Y0056662D01*
X0083772Y0056576D01*
X0083763Y0056489D01*
X0083757Y0056402D01*
X0083755Y0056315D01*
X0083756Y0056315D02*
X0083756Y0001197D01*
X0001394Y0001197D01*
X0083755Y0064189D02*
X0083757Y0064277D01*
X0083763Y0064365D01*
X0083773Y0064453D01*
X0083787Y0064541D01*
X0083804Y0064627D01*
X0083826Y0064713D01*
X0083851Y0064797D01*
X0083881Y0064881D01*
X0083913Y0064963D01*
X0083950Y0065043D01*
X0083990Y0065122D01*
X0084034Y0065199D01*
X0084081Y0065274D01*
X0084131Y0065346D01*
X0084185Y0065417D01*
X0084241Y0065484D01*
X0084301Y0065550D01*
X0084363Y0065612D01*
X0084429Y0065672D01*
X0084496Y0065728D01*
X0084567Y0065782D01*
X0084639Y0065832D01*
X0084714Y0065879D01*
X0084791Y0065923D01*
X0084870Y0065963D01*
X0084950Y0066000D01*
X0085032Y0066032D01*
X0085116Y0066062D01*
X0085200Y0066087D01*
X0085286Y0066109D01*
X0085372Y0066126D01*
X0085460Y0066140D01*
X0085548Y0066150D01*
X0085636Y0066156D01*
X0085724Y0066158D01*
X0085812Y0066156D01*
X0085900Y0066150D01*
X0085988Y0066140D01*
X0086076Y0066126D01*
X0086162Y0066109D01*
X0086248Y0066087D01*
X0086332Y0066062D01*
X0086416Y0066032D01*
X0086498Y0066000D01*
X0086578Y0065963D01*
X0086657Y0065923D01*
X0086734Y0065879D01*
X0086809Y0065832D01*
X0086881Y0065782D01*
X0086952Y0065728D01*
X0087019Y0065672D01*
X0087085Y0065612D01*
X0087147Y0065550D01*
X0087207Y0065484D01*
X0087263Y0065417D01*
X0087317Y0065346D01*
X0087367Y0065274D01*
X0087414Y0065199D01*
X0087458Y0065122D01*
X0087498Y0065043D01*
X0087535Y0064963D01*
X0087567Y0064881D01*
X0087597Y0064797D01*
X0087622Y0064713D01*
X0087644Y0064627D01*
X0087661Y0064541D01*
X0087675Y0064453D01*
X0087685Y0064365D01*
X0087691Y0064277D01*
X0087693Y0064189D01*
X0087691Y0064101D01*
X0087685Y0064013D01*
X0087675Y0063925D01*
X0087661Y0063837D01*
X0087644Y0063751D01*
X0087622Y0063665D01*
X0087597Y0063581D01*
X0087567Y0063497D01*
X0087535Y0063415D01*
X0087498Y0063335D01*
X0087458Y0063256D01*
X0087414Y0063179D01*
X0087367Y0063104D01*
X0087317Y0063032D01*
X0087263Y0062961D01*
X0087207Y0062894D01*
X0087147Y0062828D01*
X0087085Y0062766D01*
X0087019Y0062706D01*
X0086952Y0062650D01*
X0086881Y0062596D01*
X0086809Y0062546D01*
X0086734Y0062499D01*
X0086657Y0062455D01*
X0086578Y0062415D01*
X0086498Y0062378D01*
X0086416Y0062346D01*
X0086332Y0062316D01*
X0086248Y0062291D01*
X0086162Y0062269D01*
X0086076Y0062252D01*
X0085988Y0062238D01*
X0085900Y0062228D01*
X0085812Y0062222D01*
X0085724Y0062220D01*
X0085636Y0062222D01*
X0085548Y0062228D01*
X0085460Y0062238D01*
X0085372Y0062252D01*
X0085286Y0062269D01*
X0085200Y0062291D01*
X0085116Y0062316D01*
X0085032Y0062346D01*
X0084950Y0062378D01*
X0084870Y0062415D01*
X0084791Y0062455D01*
X0084714Y0062499D01*
X0084639Y0062546D01*
X0084567Y0062596D01*
X0084496Y0062650D01*
X0084429Y0062706D01*
X0084363Y0062766D01*
X0084301Y0062828D01*
X0084241Y0062894D01*
X0084185Y0062961D01*
X0084131Y0063032D01*
X0084081Y0063104D01*
X0084034Y0063179D01*
X0083990Y0063256D01*
X0083950Y0063335D01*
X0083913Y0063415D01*
X0083881Y0063497D01*
X0083851Y0063581D01*
X0083826Y0063665D01*
X0083804Y0063751D01*
X0083787Y0063837D01*
X0083773Y0063925D01*
X0083763Y0064013D01*
X0083757Y0064101D01*
X0083755Y0064189D01*
D11*
X0059071Y0116984D02*
X0059071Y0118165D01*
X0053953Y0118165D01*
X0058283Y0124465D02*
X0058283Y0126827D01*
X0044898Y0126827D01*
X0044898Y0124858D01*
X0038598Y0124858D02*
X0038598Y0126827D01*
X0025213Y0126827D01*
X0025213Y0124465D01*
X0027575Y0118559D02*
X0029543Y0118559D01*
X0111827Y0124465D02*
X0111827Y0126827D01*
X0125213Y0126827D01*
X0125213Y0124858D01*
X0131512Y0124858D02*
X0131512Y0126827D01*
X0144898Y0126827D01*
X0144898Y0124465D01*
X0145685Y0118165D02*
X0140567Y0118165D01*
X0145685Y0118165D02*
X0145685Y0116984D01*
X0116157Y0118559D02*
X0114189Y0118559D01*
D12*
X0113105Y0119640D02*
X0111637Y0119640D01*
X0112371Y0119640D02*
X0112371Y0117439D01*
X0110895Y0117439D02*
X0109427Y0119640D01*
X0110895Y0119640D02*
X0109427Y0117439D01*
X0109427Y0121376D02*
X0110895Y0123577D01*
X0111637Y0123210D02*
X0111637Y0122477D01*
X0112004Y0122110D01*
X0113105Y0122110D01*
X0112371Y0122110D02*
X0111637Y0121376D01*
X0110895Y0121376D02*
X0109427Y0123577D01*
X0111637Y0123210D02*
X0112004Y0123577D01*
X0113105Y0123577D01*
X0113105Y0121376D01*
X0140656Y0120982D02*
X0140656Y0123184D01*
X0142124Y0123184D02*
X0140656Y0120982D01*
X0142124Y0120982D02*
X0142124Y0123184D01*
X0142866Y0123184D02*
X0144334Y0123184D01*
X0144334Y0120982D01*
X0142866Y0120982D01*
X0143600Y0122083D02*
X0144334Y0122083D01*
X0145076Y0120615D02*
X0146544Y0120615D01*
X0147285Y0120982D02*
X0147285Y0123184D01*
X0147285Y0122083D02*
X0148753Y0122083D01*
X0149495Y0121716D02*
X0149495Y0121349D01*
X0149862Y0120982D01*
X0150596Y0120982D01*
X0150963Y0121349D01*
X0150596Y0122083D02*
X0149862Y0122083D01*
X0149495Y0121716D01*
X0148753Y0120982D02*
X0148753Y0123184D01*
X0149495Y0122817D02*
X0149862Y0123184D01*
X0150596Y0123184D01*
X0150963Y0122817D01*
X0150963Y0122450D01*
X0150596Y0122083D01*
X0151705Y0122083D02*
X0153173Y0122083D01*
X0153173Y0122450D02*
X0152439Y0123184D01*
X0151705Y0122450D01*
X0151705Y0120982D01*
X0153173Y0120982D02*
X0153173Y0122450D01*
X0153915Y0120982D02*
X0155383Y0120982D01*
X0155383Y0123184D01*
X0156125Y0123184D02*
X0157593Y0123184D01*
X0157593Y0120982D01*
X0157593Y0122083D02*
X0156859Y0122083D01*
X0147750Y0115336D02*
X0147750Y0113869D01*
X0147383Y0113502D01*
X0146649Y0113502D01*
X0146282Y0113869D01*
X0146282Y0114603D01*
X0147016Y0114603D01*
X0146282Y0115336D02*
X0146649Y0115703D01*
X0147383Y0115703D01*
X0147750Y0115336D01*
X0145541Y0115703D02*
X0145541Y0113502D01*
X0144073Y0113502D02*
X0144073Y0115703D01*
X0143331Y0115703D02*
X0142230Y0115703D01*
X0141863Y0115336D01*
X0141863Y0113869D01*
X0142230Y0113502D01*
X0143331Y0113502D01*
X0143331Y0115703D01*
X0145541Y0115703D02*
X0144073Y0113502D01*
X0070979Y0120982D02*
X0070979Y0123184D01*
X0069511Y0123184D01*
X0068769Y0123184D02*
X0068769Y0120982D01*
X0067301Y0120982D01*
X0066559Y0120982D02*
X0066559Y0122450D01*
X0065825Y0123184D01*
X0065091Y0122450D01*
X0065091Y0120982D01*
X0064349Y0121349D02*
X0063982Y0120982D01*
X0063248Y0120982D01*
X0062881Y0121349D01*
X0062881Y0121716D01*
X0063248Y0122083D01*
X0063982Y0122083D01*
X0064349Y0122450D01*
X0064349Y0122817D01*
X0063982Y0123184D01*
X0063248Y0123184D01*
X0062881Y0122817D01*
X0062139Y0123184D02*
X0062139Y0120982D01*
X0062139Y0122083D02*
X0060671Y0122083D01*
X0060671Y0123184D02*
X0060671Y0120982D01*
X0059929Y0120615D02*
X0058461Y0120615D01*
X0057719Y0120982D02*
X0056252Y0120982D01*
X0055510Y0120982D02*
X0055510Y0123184D01*
X0054042Y0120982D01*
X0054042Y0123184D01*
X0056252Y0123184D02*
X0057719Y0123184D01*
X0057719Y0120982D01*
X0057719Y0122083D02*
X0056986Y0122083D01*
X0056716Y0115703D02*
X0055616Y0115703D01*
X0055249Y0115336D01*
X0055249Y0113869D01*
X0055616Y0113502D01*
X0056716Y0113502D01*
X0056716Y0115703D01*
X0057458Y0115703D02*
X0057458Y0113502D01*
X0058926Y0115703D01*
X0058926Y0113502D01*
X0059668Y0113869D02*
X0059668Y0114603D01*
X0060402Y0114603D01*
X0059668Y0115336D02*
X0060035Y0115703D01*
X0060769Y0115703D01*
X0061136Y0115336D01*
X0061136Y0113869D01*
X0060769Y0113502D01*
X0060035Y0113502D01*
X0059668Y0113869D01*
X0065091Y0122083D02*
X0066559Y0122083D01*
X0070245Y0122083D02*
X0070979Y0122083D01*
X0026491Y0122110D02*
X0025390Y0122110D01*
X0025023Y0122477D01*
X0025023Y0123210D01*
X0025390Y0123577D01*
X0026491Y0123577D01*
X0026491Y0121376D01*
X0025757Y0122110D02*
X0025023Y0121376D01*
X0024281Y0121376D02*
X0022813Y0123577D01*
X0024281Y0123577D02*
X0022813Y0121376D01*
X0022813Y0119640D02*
X0024281Y0117439D01*
X0022813Y0117439D02*
X0024281Y0119640D01*
X0025023Y0119640D02*
X0026491Y0119640D01*
X0025757Y0119640D02*
X0025757Y0117439D01*
X0027852Y0013398D02*
X0027485Y0013031D01*
X0028953Y0011563D01*
X0028586Y0011196D01*
X0027852Y0011196D01*
X0027485Y0011563D01*
X0027485Y0013031D01*
X0027852Y0013398D02*
X0028586Y0013398D01*
X0028953Y0013031D01*
X0028953Y0011563D01*
X0029691Y0011563D02*
X0029691Y0011196D01*
X0030058Y0011196D01*
X0030058Y0011563D01*
X0029691Y0011563D01*
X0030800Y0011196D02*
X0032268Y0011196D01*
X0031534Y0011196D02*
X0031534Y0013398D01*
X0032268Y0012664D01*
X0033010Y0012664D02*
X0033743Y0011196D01*
X0034477Y0012664D01*
X0035219Y0010829D02*
X0036687Y0010829D01*
X0036319Y0009798D02*
X0035952Y0009798D01*
X0035952Y0007596D01*
X0036319Y0007596D02*
X0035585Y0007596D01*
X0034846Y0007963D02*
X0034479Y0007596D01*
X0033745Y0007596D01*
X0033378Y0008330D02*
X0034846Y0008330D01*
X0034846Y0007963D02*
X0034846Y0008697D01*
X0034479Y0009064D01*
X0033745Y0009064D01*
X0033378Y0008697D01*
X0033378Y0008330D01*
X0032636Y0007596D02*
X0032636Y0009064D01*
X0032269Y0009064D01*
X0031902Y0008697D01*
X0031535Y0009064D01*
X0031168Y0008697D01*
X0031168Y0007596D01*
X0031902Y0007596D02*
X0031902Y0008697D01*
X0030426Y0008697D02*
X0030059Y0009064D01*
X0029325Y0009064D01*
X0028958Y0008697D01*
X0028958Y0008330D01*
X0030426Y0008330D01*
X0030426Y0007963D02*
X0030426Y0008697D01*
X0030426Y0007963D02*
X0030059Y0007596D01*
X0029325Y0007596D01*
X0028216Y0007596D02*
X0028216Y0009064D01*
X0027115Y0009064D01*
X0026748Y0008697D01*
X0026748Y0007596D01*
X0025639Y0007963D02*
X0025272Y0007596D01*
X0025639Y0007963D02*
X0025639Y0009431D01*
X0026006Y0009064D02*
X0025272Y0009064D01*
X0024533Y0007596D02*
X0023065Y0009798D01*
X0023800Y0011196D02*
X0024534Y0011196D01*
X0024901Y0011563D01*
X0024901Y0012297D01*
X0024534Y0012664D01*
X0023800Y0012664D01*
X0023433Y0012297D01*
X0023433Y0011930D01*
X0024901Y0011930D01*
X0025642Y0012664D02*
X0026009Y0012664D01*
X0026743Y0011930D01*
X0026743Y0011196D02*
X0026743Y0012664D01*
X0022691Y0012664D02*
X0021957Y0011196D01*
X0021224Y0012664D01*
X0020482Y0012664D02*
X0019748Y0013398D01*
X0019748Y0011196D01*
X0020482Y0011196D02*
X0019014Y0011196D01*
X0037061Y0009064D02*
X0038162Y0009064D01*
X0038529Y0008697D01*
X0038529Y0007963D01*
X0038162Y0007596D01*
X0037061Y0007596D01*
X0039268Y0007229D02*
X0039268Y0009064D01*
X0039268Y0009798D02*
X0039268Y0010165D01*
X0039638Y0011196D02*
X0040372Y0011196D01*
X0040739Y0011563D01*
X0040739Y0012297D01*
X0040372Y0012664D01*
X0039638Y0012664D01*
X0039271Y0012297D01*
X0039271Y0011930D01*
X0040739Y0011930D01*
X0041481Y0012297D02*
X0041481Y0011196D01*
X0042215Y0011196D02*
X0042215Y0012297D01*
X0041848Y0012664D01*
X0041481Y0012297D01*
X0042215Y0012297D02*
X0042582Y0012664D01*
X0042949Y0012664D01*
X0042949Y0011196D01*
X0043691Y0011196D02*
X0043691Y0012297D01*
X0044058Y0012664D01*
X0044425Y0012297D01*
X0044425Y0011196D01*
X0045159Y0011196D02*
X0045159Y0012664D01*
X0044792Y0012664D01*
X0044425Y0012297D01*
X0045898Y0011196D02*
X0046632Y0011196D01*
X0046265Y0011196D02*
X0046265Y0012664D01*
X0046632Y0012664D01*
X0046265Y0013398D02*
X0046265Y0013765D01*
X0047374Y0013031D02*
X0047374Y0011563D01*
X0047741Y0011196D01*
X0048842Y0011196D01*
X0048842Y0013398D01*
X0047741Y0013398D01*
X0047374Y0013031D01*
X0049584Y0010829D02*
X0051052Y0010829D01*
X0051794Y0011563D02*
X0051794Y0013031D01*
X0052160Y0013398D01*
X0053261Y0013398D01*
X0053261Y0011196D01*
X0052160Y0011196D01*
X0051794Y0011563D01*
X0054003Y0011196D02*
X0055471Y0011196D01*
X0055471Y0013398D01*
X0054003Y0013398D01*
X0054737Y0012297D02*
X0055471Y0012297D01*
X0056213Y0011196D02*
X0057681Y0011196D01*
X0057681Y0013398D01*
X0058423Y0010829D02*
X0059891Y0010829D01*
X0060630Y0011196D02*
X0061364Y0011196D01*
X0060997Y0011196D02*
X0060997Y0012664D01*
X0061364Y0012664D01*
X0060997Y0013398D02*
X0060997Y0013765D01*
X0062106Y0013398D02*
X0063574Y0013398D01*
X0063574Y0011196D01*
X0064313Y0011196D02*
X0065047Y0011196D01*
X0064680Y0011196D02*
X0064680Y0012664D01*
X0065047Y0012664D01*
X0064680Y0013398D02*
X0064680Y0013765D01*
X0065789Y0013398D02*
X0065789Y0011196D01*
X0066523Y0011930D01*
X0067257Y0011196D01*
X0067257Y0013398D01*
X0067999Y0010829D02*
X0069467Y0010829D01*
X0070576Y0011930D02*
X0070209Y0012297D01*
X0070209Y0013031D01*
X0070576Y0013398D01*
X0071677Y0013398D01*
X0071677Y0011196D01*
X0071677Y0011930D02*
X0070576Y0011930D01*
X0072419Y0011930D02*
X0072786Y0012297D01*
X0073520Y0012297D01*
X0073887Y0012664D01*
X0073887Y0013031D01*
X0073520Y0013398D01*
X0072786Y0013398D01*
X0072419Y0013031D01*
X0072419Y0011930D02*
X0072419Y0011563D01*
X0072786Y0011196D01*
X0073520Y0011196D01*
X0073887Y0011563D01*
X0074629Y0011196D02*
X0076097Y0011196D01*
X0076097Y0013398D01*
X0074629Y0013398D01*
X0075363Y0012297D02*
X0076097Y0012297D01*
X0076097Y0009798D02*
X0076097Y0007596D01*
X0076097Y0008697D02*
X0075730Y0009064D01*
X0074996Y0009064D01*
X0074629Y0008697D01*
X0074629Y0007596D01*
X0073520Y0007963D02*
X0073153Y0007596D01*
X0073520Y0007963D02*
X0073520Y0009431D01*
X0073887Y0009064D02*
X0073153Y0009064D01*
X0072414Y0009064D02*
X0071680Y0009064D01*
X0072047Y0009431D02*
X0072047Y0007963D01*
X0071680Y0007596D01*
X0070940Y0007596D02*
X0069840Y0007596D01*
X0069473Y0007963D01*
X0069473Y0008697D01*
X0069840Y0009064D01*
X0070940Y0009064D01*
X0070940Y0006862D01*
X0068731Y0007596D02*
X0068731Y0007963D01*
X0068364Y0007963D01*
X0068364Y0007596D01*
X0068731Y0007596D01*
X0068731Y0008697D02*
X0068364Y0008697D01*
X0068364Y0009064D01*
X0068731Y0009064D01*
X0068731Y0008697D01*
X0067626Y0007596D02*
X0066158Y0009798D01*
X0063948Y0009798D02*
X0065416Y0007596D01*
X0063206Y0007963D02*
X0062839Y0007596D01*
X0061738Y0007596D01*
X0061738Y0007229D02*
X0061738Y0009064D01*
X0062839Y0009064D01*
X0063206Y0008697D01*
X0063206Y0007963D01*
X0062472Y0006862D02*
X0062105Y0006862D01*
X0061738Y0007229D01*
X0060996Y0007596D02*
X0060262Y0007596D01*
X0060629Y0007596D02*
X0060629Y0009064D01*
X0060996Y0009064D01*
X0060629Y0009798D02*
X0060629Y0010165D01*
X0059523Y0009064D02*
X0058789Y0009064D01*
X0059156Y0009431D02*
X0059156Y0007963D01*
X0058789Y0007596D01*
X0058050Y0007596D02*
X0058050Y0009798D01*
X0057683Y0009064D02*
X0056949Y0009064D01*
X0056582Y0008697D01*
X0056582Y0007596D01*
X0055840Y0007963D02*
X0055473Y0007596D01*
X0054372Y0007596D01*
X0054372Y0009064D01*
X0053630Y0009064D02*
X0052529Y0009064D01*
X0052162Y0008697D01*
X0052162Y0007963D01*
X0052529Y0007596D01*
X0053630Y0007596D01*
X0053630Y0009798D01*
X0055840Y0009064D02*
X0055840Y0007963D01*
X0057683Y0009064D02*
X0058050Y0008697D01*
X0062840Y0012297D02*
X0063574Y0012297D01*
X0051420Y0007963D02*
X0051420Y0007596D01*
X0051053Y0007596D01*
X0051053Y0007963D01*
X0051420Y0007963D01*
X0050315Y0007963D02*
X0049948Y0007596D01*
X0048847Y0007596D01*
X0048105Y0007963D02*
X0047738Y0007596D01*
X0047004Y0007596D01*
X0046637Y0007963D01*
X0046637Y0008697D01*
X0047004Y0009064D01*
X0047738Y0009064D01*
X0048105Y0008697D01*
X0048105Y0007963D01*
X0048847Y0009064D02*
X0049948Y0009064D01*
X0050315Y0008697D01*
X0050315Y0007963D01*
X0045895Y0007596D02*
X0045895Y0009064D01*
X0045528Y0009064D01*
X0045161Y0008697D01*
X0044794Y0009064D01*
X0044427Y0008697D01*
X0044427Y0007596D01*
X0045161Y0007596D02*
X0045161Y0008697D01*
X0043685Y0007596D02*
X0042217Y0009798D01*
X0041475Y0009064D02*
X0040741Y0009064D01*
X0041108Y0009431D02*
X0041108Y0007963D01*
X0040741Y0007596D01*
X0040002Y0006862D02*
X0039635Y0006862D01*
X0039268Y0007229D01*
X0038529Y0011196D02*
X0038529Y0012664D01*
X0038529Y0011930D02*
X0037795Y0012664D01*
X0037428Y0012664D01*
X0105628Y0011196D02*
X0107096Y0011196D01*
X0106362Y0011196D02*
X0106362Y0013398D01*
X0107096Y0012664D01*
X0107838Y0012664D02*
X0108572Y0011196D01*
X0109306Y0012664D01*
X0110048Y0012297D02*
X0110048Y0011930D01*
X0111515Y0011930D01*
X0111515Y0011563D02*
X0111515Y0012297D01*
X0111148Y0012664D01*
X0110415Y0012664D01*
X0110048Y0012297D01*
X0110415Y0011196D02*
X0111148Y0011196D01*
X0111515Y0011563D01*
X0112256Y0012664D02*
X0112623Y0012664D01*
X0113357Y0011930D01*
X0113357Y0011196D02*
X0113357Y0012664D01*
X0114099Y0013031D02*
X0115567Y0011563D01*
X0115200Y0011196D01*
X0114466Y0011196D01*
X0114099Y0011563D01*
X0114099Y0013031D01*
X0114466Y0013398D01*
X0115200Y0013398D01*
X0115567Y0013031D01*
X0115567Y0011563D01*
X0116305Y0011563D02*
X0116305Y0011196D01*
X0116672Y0011196D01*
X0116672Y0011563D01*
X0116305Y0011563D01*
X0117414Y0011196D02*
X0118882Y0011196D01*
X0118148Y0011196D02*
X0118148Y0013398D01*
X0118882Y0012664D01*
X0119624Y0012664D02*
X0120358Y0011196D01*
X0121092Y0012664D01*
X0121834Y0010829D02*
X0123302Y0010829D01*
X0122933Y0009798D02*
X0122566Y0009798D01*
X0122566Y0007596D01*
X0122933Y0007596D02*
X0122199Y0007596D01*
X0121460Y0007963D02*
X0121460Y0008697D01*
X0121093Y0009064D01*
X0120359Y0009064D01*
X0119992Y0008697D01*
X0119992Y0008330D01*
X0121460Y0008330D01*
X0121460Y0007963D02*
X0121093Y0007596D01*
X0120359Y0007596D01*
X0119250Y0007596D02*
X0119250Y0009064D01*
X0118883Y0009064D01*
X0118516Y0008697D01*
X0118149Y0009064D01*
X0117782Y0008697D01*
X0117782Y0007596D01*
X0118516Y0007596D02*
X0118516Y0008697D01*
X0117040Y0008697D02*
X0116673Y0009064D01*
X0115939Y0009064D01*
X0115572Y0008697D01*
X0115572Y0008330D01*
X0117040Y0008330D01*
X0117040Y0007963D02*
X0117040Y0008697D01*
X0117040Y0007963D02*
X0116673Y0007596D01*
X0115939Y0007596D01*
X0114830Y0007596D02*
X0114830Y0009064D01*
X0113729Y0009064D01*
X0113362Y0008697D01*
X0113362Y0007596D01*
X0112253Y0007963D02*
X0111886Y0007596D01*
X0112253Y0007963D02*
X0112253Y0009431D01*
X0112620Y0009064D02*
X0111886Y0009064D01*
X0111147Y0007596D02*
X0109679Y0009798D01*
X0123675Y0009064D02*
X0124776Y0009064D01*
X0125143Y0008697D01*
X0125143Y0007963D01*
X0124776Y0007596D01*
X0123675Y0007596D01*
X0125882Y0007229D02*
X0125882Y0009064D01*
X0125882Y0009798D02*
X0125882Y0010165D01*
X0126252Y0011196D02*
X0126986Y0011196D01*
X0127353Y0011563D01*
X0127353Y0012297D01*
X0126986Y0012664D01*
X0126252Y0012664D01*
X0125885Y0012297D01*
X0125885Y0011930D01*
X0127353Y0011930D01*
X0128095Y0012297D02*
X0128095Y0011196D01*
X0128829Y0011196D02*
X0128829Y0012297D01*
X0128462Y0012664D01*
X0128095Y0012297D01*
X0128829Y0012297D02*
X0129196Y0012664D01*
X0129563Y0012664D01*
X0129563Y0011196D01*
X0130305Y0011196D02*
X0130305Y0012297D01*
X0130672Y0012664D01*
X0131039Y0012297D01*
X0131039Y0011196D01*
X0131773Y0011196D02*
X0131773Y0012664D01*
X0131406Y0012664D01*
X0131039Y0012297D01*
X0132512Y0011196D02*
X0133246Y0011196D01*
X0132879Y0011196D02*
X0132879Y0012664D01*
X0133246Y0012664D01*
X0132879Y0013398D02*
X0132879Y0013765D01*
X0133988Y0013031D02*
X0133988Y0011563D01*
X0134355Y0011196D01*
X0135456Y0011196D01*
X0135456Y0013398D01*
X0134355Y0013398D01*
X0133988Y0013031D01*
X0136198Y0010829D02*
X0137666Y0010829D01*
X0138408Y0011563D02*
X0138408Y0013031D01*
X0138775Y0013398D01*
X0139876Y0013398D01*
X0139876Y0011196D01*
X0138775Y0011196D01*
X0138408Y0011563D01*
X0140618Y0011196D02*
X0142085Y0011196D01*
X0142085Y0013398D01*
X0140618Y0013398D01*
X0141352Y0012297D02*
X0142085Y0012297D01*
X0142827Y0011196D02*
X0144295Y0011196D01*
X0144295Y0013398D01*
X0145037Y0010829D02*
X0146505Y0010829D01*
X0147245Y0011196D02*
X0147978Y0011196D01*
X0147612Y0011196D02*
X0147612Y0012664D01*
X0147978Y0012664D01*
X0147612Y0013398D02*
X0147612Y0013765D01*
X0148720Y0013398D02*
X0150188Y0013398D01*
X0150188Y0011196D01*
X0150928Y0011196D02*
X0151662Y0011196D01*
X0151295Y0011196D02*
X0151295Y0012664D01*
X0151662Y0012664D01*
X0151295Y0013398D02*
X0151295Y0013765D01*
X0152404Y0013398D02*
X0152404Y0011196D01*
X0153138Y0011930D01*
X0153872Y0011196D01*
X0153872Y0013398D01*
X0154613Y0010829D02*
X0156081Y0010829D01*
X0157190Y0011930D02*
X0156823Y0012297D01*
X0156823Y0013031D01*
X0157190Y0013398D01*
X0158291Y0013398D01*
X0158291Y0011196D01*
X0158291Y0011930D02*
X0157190Y0011930D01*
X0159033Y0011930D02*
X0159400Y0012297D01*
X0160134Y0012297D01*
X0160501Y0012664D01*
X0160501Y0013031D01*
X0160134Y0013398D01*
X0159400Y0013398D01*
X0159033Y0013031D01*
X0159033Y0011930D02*
X0159033Y0011563D01*
X0159400Y0011196D01*
X0160134Y0011196D01*
X0160501Y0011563D01*
X0161243Y0011196D02*
X0162711Y0011196D01*
X0162711Y0013398D01*
X0161243Y0013398D01*
X0161977Y0012297D02*
X0162711Y0012297D01*
X0162711Y0009798D02*
X0162711Y0007596D01*
X0162711Y0008697D02*
X0162344Y0009064D01*
X0161610Y0009064D01*
X0161243Y0008697D01*
X0161243Y0007596D01*
X0160134Y0007963D02*
X0159767Y0007596D01*
X0160134Y0007963D02*
X0160134Y0009431D01*
X0160501Y0009064D02*
X0159767Y0009064D01*
X0159028Y0009064D02*
X0158294Y0009064D01*
X0158661Y0009431D02*
X0158661Y0007963D01*
X0158294Y0007596D01*
X0157555Y0007596D02*
X0156454Y0007596D01*
X0156087Y0007963D01*
X0156087Y0008697D01*
X0156454Y0009064D01*
X0157555Y0009064D01*
X0157555Y0006862D01*
X0155345Y0007596D02*
X0155345Y0007963D01*
X0154978Y0007963D01*
X0154978Y0007596D01*
X0155345Y0007596D01*
X0155345Y0008697D02*
X0155345Y0009064D01*
X0154978Y0009064D01*
X0154978Y0008697D01*
X0155345Y0008697D01*
X0154240Y0007596D02*
X0152772Y0009798D01*
X0150562Y0009798D02*
X0152030Y0007596D01*
X0149820Y0007963D02*
X0149453Y0007596D01*
X0148352Y0007596D01*
X0148352Y0007229D02*
X0148352Y0009064D01*
X0149453Y0009064D01*
X0149820Y0008697D01*
X0149820Y0007963D01*
X0149086Y0006862D02*
X0148719Y0006862D01*
X0148352Y0007229D01*
X0147610Y0007596D02*
X0146876Y0007596D01*
X0147243Y0007596D02*
X0147243Y0009064D01*
X0147610Y0009064D01*
X0147243Y0009798D02*
X0147243Y0010165D01*
X0146137Y0009064D02*
X0145403Y0009064D01*
X0145770Y0009431D02*
X0145770Y0007963D01*
X0145403Y0007596D01*
X0144664Y0007596D02*
X0144664Y0009798D01*
X0144297Y0009064D02*
X0143563Y0009064D01*
X0143196Y0008697D01*
X0143196Y0007596D01*
X0142454Y0007963D02*
X0142087Y0007596D01*
X0140986Y0007596D01*
X0140986Y0009064D01*
X0140244Y0009064D02*
X0139143Y0009064D01*
X0138776Y0008697D01*
X0138776Y0007963D01*
X0139143Y0007596D01*
X0140244Y0007596D01*
X0140244Y0009798D01*
X0138034Y0007963D02*
X0137667Y0007963D01*
X0137667Y0007596D01*
X0138034Y0007596D01*
X0138034Y0007963D01*
X0136929Y0007963D02*
X0136562Y0007596D01*
X0135461Y0007596D01*
X0134719Y0007963D02*
X0134352Y0007596D01*
X0133618Y0007596D01*
X0133251Y0007963D01*
X0133251Y0008697D01*
X0133618Y0009064D01*
X0134352Y0009064D01*
X0134719Y0008697D01*
X0134719Y0007963D01*
X0135461Y0009064D02*
X0136562Y0009064D01*
X0136929Y0008697D01*
X0136929Y0007963D01*
X0132509Y0007596D02*
X0132509Y0009064D01*
X0132142Y0009064D01*
X0131775Y0008697D01*
X0131408Y0009064D01*
X0131041Y0008697D01*
X0131041Y0007596D01*
X0131775Y0007596D02*
X0131775Y0008697D01*
X0130299Y0007596D02*
X0128832Y0009798D01*
X0128090Y0009064D02*
X0127356Y0009064D01*
X0127723Y0009431D02*
X0127723Y0007963D01*
X0127356Y0007596D01*
X0126616Y0006862D02*
X0126249Y0006862D01*
X0125882Y0007229D01*
X0125143Y0011196D02*
X0125143Y0012664D01*
X0124409Y0012664D02*
X0124042Y0012664D01*
X0124409Y0012664D02*
X0125143Y0011930D01*
X0142454Y0009064D02*
X0142454Y0007963D01*
X0144297Y0009064D02*
X0144664Y0008697D01*
X0149454Y0012297D02*
X0150188Y0012297D01*
D13*
X0152771Y0019268D02*
X0152773Y0019347D01*
X0152779Y0019426D01*
X0152789Y0019505D01*
X0152803Y0019583D01*
X0152820Y0019660D01*
X0152842Y0019736D01*
X0152867Y0019811D01*
X0152897Y0019884D01*
X0152929Y0019956D01*
X0152966Y0020027D01*
X0153006Y0020095D01*
X0153049Y0020161D01*
X0153095Y0020225D01*
X0153145Y0020287D01*
X0153198Y0020346D01*
X0153253Y0020402D01*
X0153312Y0020456D01*
X0153373Y0020506D01*
X0153436Y0020554D01*
X0153502Y0020598D01*
X0153570Y0020639D01*
X0153640Y0020676D01*
X0153711Y0020710D01*
X0153785Y0020740D01*
X0153859Y0020766D01*
X0153935Y0020788D01*
X0154012Y0020807D01*
X0154090Y0020822D01*
X0154168Y0020833D01*
X0154247Y0020840D01*
X0154326Y0020843D01*
X0154405Y0020842D01*
X0154484Y0020837D01*
X0154563Y0020828D01*
X0154641Y0020815D01*
X0154718Y0020798D01*
X0154795Y0020778D01*
X0154870Y0020753D01*
X0154944Y0020725D01*
X0155017Y0020693D01*
X0155087Y0020658D01*
X0155156Y0020619D01*
X0155223Y0020576D01*
X0155288Y0020530D01*
X0155350Y0020482D01*
X0155410Y0020430D01*
X0155467Y0020375D01*
X0155521Y0020317D01*
X0155572Y0020257D01*
X0155620Y0020194D01*
X0155665Y0020129D01*
X0155707Y0020061D01*
X0155745Y0019992D01*
X0155779Y0019921D01*
X0155810Y0019848D01*
X0155838Y0019773D01*
X0155861Y0019698D01*
X0155881Y0019621D01*
X0155897Y0019544D01*
X0155909Y0019465D01*
X0155917Y0019387D01*
X0155921Y0019308D01*
X0155921Y0019228D01*
X0155917Y0019149D01*
X0155909Y0019071D01*
X0155897Y0018992D01*
X0155881Y0018915D01*
X0155861Y0018838D01*
X0155838Y0018763D01*
X0155810Y0018688D01*
X0155779Y0018615D01*
X0155745Y0018544D01*
X0155707Y0018475D01*
X0155665Y0018407D01*
X0155620Y0018342D01*
X0155572Y0018279D01*
X0155521Y0018219D01*
X0155467Y0018161D01*
X0155410Y0018106D01*
X0155350Y0018054D01*
X0155288Y0018006D01*
X0155223Y0017960D01*
X0155156Y0017917D01*
X0155087Y0017878D01*
X0155017Y0017843D01*
X0154944Y0017811D01*
X0154870Y0017783D01*
X0154795Y0017758D01*
X0154718Y0017738D01*
X0154641Y0017721D01*
X0154563Y0017708D01*
X0154484Y0017699D01*
X0154405Y0017694D01*
X0154326Y0017693D01*
X0154247Y0017696D01*
X0154168Y0017703D01*
X0154090Y0017714D01*
X0154012Y0017729D01*
X0153935Y0017748D01*
X0153859Y0017770D01*
X0153785Y0017796D01*
X0153711Y0017826D01*
X0153640Y0017860D01*
X0153570Y0017897D01*
X0153502Y0017938D01*
X0153436Y0017982D01*
X0153373Y0018030D01*
X0153312Y0018080D01*
X0153253Y0018134D01*
X0153198Y0018190D01*
X0153145Y0018249D01*
X0153095Y0018311D01*
X0153049Y0018375D01*
X0153006Y0018441D01*
X0152966Y0018509D01*
X0152929Y0018580D01*
X0152897Y0018652D01*
X0152867Y0018725D01*
X0152842Y0018800D01*
X0152820Y0018876D01*
X0152803Y0018953D01*
X0152789Y0019031D01*
X0152779Y0019110D01*
X0152773Y0019189D01*
X0152771Y0019268D01*
X0138992Y0019268D02*
X0138994Y0019347D01*
X0139000Y0019426D01*
X0139010Y0019505D01*
X0139024Y0019583D01*
X0139041Y0019660D01*
X0139063Y0019736D01*
X0139088Y0019811D01*
X0139118Y0019884D01*
X0139150Y0019956D01*
X0139187Y0020027D01*
X0139227Y0020095D01*
X0139270Y0020161D01*
X0139316Y0020225D01*
X0139366Y0020287D01*
X0139419Y0020346D01*
X0139474Y0020402D01*
X0139533Y0020456D01*
X0139594Y0020506D01*
X0139657Y0020554D01*
X0139723Y0020598D01*
X0139791Y0020639D01*
X0139861Y0020676D01*
X0139932Y0020710D01*
X0140006Y0020740D01*
X0140080Y0020766D01*
X0140156Y0020788D01*
X0140233Y0020807D01*
X0140311Y0020822D01*
X0140389Y0020833D01*
X0140468Y0020840D01*
X0140547Y0020843D01*
X0140626Y0020842D01*
X0140705Y0020837D01*
X0140784Y0020828D01*
X0140862Y0020815D01*
X0140939Y0020798D01*
X0141016Y0020778D01*
X0141091Y0020753D01*
X0141165Y0020725D01*
X0141238Y0020693D01*
X0141308Y0020658D01*
X0141377Y0020619D01*
X0141444Y0020576D01*
X0141509Y0020530D01*
X0141571Y0020482D01*
X0141631Y0020430D01*
X0141688Y0020375D01*
X0141742Y0020317D01*
X0141793Y0020257D01*
X0141841Y0020194D01*
X0141886Y0020129D01*
X0141928Y0020061D01*
X0141966Y0019992D01*
X0142000Y0019921D01*
X0142031Y0019848D01*
X0142059Y0019773D01*
X0142082Y0019698D01*
X0142102Y0019621D01*
X0142118Y0019544D01*
X0142130Y0019465D01*
X0142138Y0019387D01*
X0142142Y0019308D01*
X0142142Y0019228D01*
X0142138Y0019149D01*
X0142130Y0019071D01*
X0142118Y0018992D01*
X0142102Y0018915D01*
X0142082Y0018838D01*
X0142059Y0018763D01*
X0142031Y0018688D01*
X0142000Y0018615D01*
X0141966Y0018544D01*
X0141928Y0018475D01*
X0141886Y0018407D01*
X0141841Y0018342D01*
X0141793Y0018279D01*
X0141742Y0018219D01*
X0141688Y0018161D01*
X0141631Y0018106D01*
X0141571Y0018054D01*
X0141509Y0018006D01*
X0141444Y0017960D01*
X0141377Y0017917D01*
X0141308Y0017878D01*
X0141238Y0017843D01*
X0141165Y0017811D01*
X0141091Y0017783D01*
X0141016Y0017758D01*
X0140939Y0017738D01*
X0140862Y0017721D01*
X0140784Y0017708D01*
X0140705Y0017699D01*
X0140626Y0017694D01*
X0140547Y0017693D01*
X0140468Y0017696D01*
X0140389Y0017703D01*
X0140311Y0017714D01*
X0140233Y0017729D01*
X0140156Y0017748D01*
X0140080Y0017770D01*
X0140006Y0017796D01*
X0139932Y0017826D01*
X0139861Y0017860D01*
X0139791Y0017897D01*
X0139723Y0017938D01*
X0139657Y0017982D01*
X0139594Y0018030D01*
X0139533Y0018080D01*
X0139474Y0018134D01*
X0139419Y0018190D01*
X0139366Y0018249D01*
X0139316Y0018311D01*
X0139270Y0018375D01*
X0139227Y0018441D01*
X0139187Y0018509D01*
X0139150Y0018580D01*
X0139118Y0018652D01*
X0139088Y0018725D01*
X0139063Y0018800D01*
X0139041Y0018876D01*
X0139024Y0018953D01*
X0139010Y0019031D01*
X0139000Y0019110D01*
X0138994Y0019189D01*
X0138992Y0019268D01*
X0116197Y0019268D02*
X0116199Y0019347D01*
X0116205Y0019426D01*
X0116215Y0019505D01*
X0116229Y0019583D01*
X0116246Y0019660D01*
X0116268Y0019736D01*
X0116293Y0019811D01*
X0116323Y0019884D01*
X0116355Y0019956D01*
X0116392Y0020027D01*
X0116432Y0020095D01*
X0116475Y0020161D01*
X0116521Y0020225D01*
X0116571Y0020287D01*
X0116624Y0020346D01*
X0116679Y0020402D01*
X0116738Y0020456D01*
X0116799Y0020506D01*
X0116862Y0020554D01*
X0116928Y0020598D01*
X0116996Y0020639D01*
X0117066Y0020676D01*
X0117137Y0020710D01*
X0117211Y0020740D01*
X0117285Y0020766D01*
X0117361Y0020788D01*
X0117438Y0020807D01*
X0117516Y0020822D01*
X0117594Y0020833D01*
X0117673Y0020840D01*
X0117752Y0020843D01*
X0117831Y0020842D01*
X0117910Y0020837D01*
X0117989Y0020828D01*
X0118067Y0020815D01*
X0118144Y0020798D01*
X0118221Y0020778D01*
X0118296Y0020753D01*
X0118370Y0020725D01*
X0118443Y0020693D01*
X0118513Y0020658D01*
X0118582Y0020619D01*
X0118649Y0020576D01*
X0118714Y0020530D01*
X0118776Y0020482D01*
X0118836Y0020430D01*
X0118893Y0020375D01*
X0118947Y0020317D01*
X0118998Y0020257D01*
X0119046Y0020194D01*
X0119091Y0020129D01*
X0119133Y0020061D01*
X0119171Y0019992D01*
X0119205Y0019921D01*
X0119236Y0019848D01*
X0119264Y0019773D01*
X0119287Y0019698D01*
X0119307Y0019621D01*
X0119323Y0019544D01*
X0119335Y0019465D01*
X0119343Y0019387D01*
X0119347Y0019308D01*
X0119347Y0019228D01*
X0119343Y0019149D01*
X0119335Y0019071D01*
X0119323Y0018992D01*
X0119307Y0018915D01*
X0119287Y0018838D01*
X0119264Y0018763D01*
X0119236Y0018688D01*
X0119205Y0018615D01*
X0119171Y0018544D01*
X0119133Y0018475D01*
X0119091Y0018407D01*
X0119046Y0018342D01*
X0118998Y0018279D01*
X0118947Y0018219D01*
X0118893Y0018161D01*
X0118836Y0018106D01*
X0118776Y0018054D01*
X0118714Y0018006D01*
X0118649Y0017960D01*
X0118582Y0017917D01*
X0118513Y0017878D01*
X0118443Y0017843D01*
X0118370Y0017811D01*
X0118296Y0017783D01*
X0118221Y0017758D01*
X0118144Y0017738D01*
X0118067Y0017721D01*
X0117989Y0017708D01*
X0117910Y0017699D01*
X0117831Y0017694D01*
X0117752Y0017693D01*
X0117673Y0017696D01*
X0117594Y0017703D01*
X0117516Y0017714D01*
X0117438Y0017729D01*
X0117361Y0017748D01*
X0117285Y0017770D01*
X0117211Y0017796D01*
X0117137Y0017826D01*
X0117066Y0017860D01*
X0116996Y0017897D01*
X0116928Y0017938D01*
X0116862Y0017982D01*
X0116799Y0018030D01*
X0116738Y0018080D01*
X0116679Y0018134D01*
X0116624Y0018190D01*
X0116571Y0018249D01*
X0116521Y0018311D01*
X0116475Y0018375D01*
X0116432Y0018441D01*
X0116392Y0018509D01*
X0116355Y0018580D01*
X0116323Y0018652D01*
X0116293Y0018725D01*
X0116268Y0018800D01*
X0116246Y0018876D01*
X0116229Y0018953D01*
X0116215Y0019031D01*
X0116205Y0019110D01*
X0116199Y0019189D01*
X0116197Y0019268D01*
X0102417Y0019268D02*
X0102419Y0019347D01*
X0102425Y0019426D01*
X0102435Y0019505D01*
X0102449Y0019583D01*
X0102466Y0019660D01*
X0102488Y0019736D01*
X0102513Y0019811D01*
X0102543Y0019884D01*
X0102575Y0019956D01*
X0102612Y0020027D01*
X0102652Y0020095D01*
X0102695Y0020161D01*
X0102741Y0020225D01*
X0102791Y0020287D01*
X0102844Y0020346D01*
X0102899Y0020402D01*
X0102958Y0020456D01*
X0103019Y0020506D01*
X0103082Y0020554D01*
X0103148Y0020598D01*
X0103216Y0020639D01*
X0103286Y0020676D01*
X0103357Y0020710D01*
X0103431Y0020740D01*
X0103505Y0020766D01*
X0103581Y0020788D01*
X0103658Y0020807D01*
X0103736Y0020822D01*
X0103814Y0020833D01*
X0103893Y0020840D01*
X0103972Y0020843D01*
X0104051Y0020842D01*
X0104130Y0020837D01*
X0104209Y0020828D01*
X0104287Y0020815D01*
X0104364Y0020798D01*
X0104441Y0020778D01*
X0104516Y0020753D01*
X0104590Y0020725D01*
X0104663Y0020693D01*
X0104733Y0020658D01*
X0104802Y0020619D01*
X0104869Y0020576D01*
X0104934Y0020530D01*
X0104996Y0020482D01*
X0105056Y0020430D01*
X0105113Y0020375D01*
X0105167Y0020317D01*
X0105218Y0020257D01*
X0105266Y0020194D01*
X0105311Y0020129D01*
X0105353Y0020061D01*
X0105391Y0019992D01*
X0105425Y0019921D01*
X0105456Y0019848D01*
X0105484Y0019773D01*
X0105507Y0019698D01*
X0105527Y0019621D01*
X0105543Y0019544D01*
X0105555Y0019465D01*
X0105563Y0019387D01*
X0105567Y0019308D01*
X0105567Y0019228D01*
X0105563Y0019149D01*
X0105555Y0019071D01*
X0105543Y0018992D01*
X0105527Y0018915D01*
X0105507Y0018838D01*
X0105484Y0018763D01*
X0105456Y0018688D01*
X0105425Y0018615D01*
X0105391Y0018544D01*
X0105353Y0018475D01*
X0105311Y0018407D01*
X0105266Y0018342D01*
X0105218Y0018279D01*
X0105167Y0018219D01*
X0105113Y0018161D01*
X0105056Y0018106D01*
X0104996Y0018054D01*
X0104934Y0018006D01*
X0104869Y0017960D01*
X0104802Y0017917D01*
X0104733Y0017878D01*
X0104663Y0017843D01*
X0104590Y0017811D01*
X0104516Y0017783D01*
X0104441Y0017758D01*
X0104364Y0017738D01*
X0104287Y0017721D01*
X0104209Y0017708D01*
X0104130Y0017699D01*
X0104051Y0017694D01*
X0103972Y0017693D01*
X0103893Y0017696D01*
X0103814Y0017703D01*
X0103736Y0017714D01*
X0103658Y0017729D01*
X0103581Y0017748D01*
X0103505Y0017770D01*
X0103431Y0017796D01*
X0103357Y0017826D01*
X0103286Y0017860D01*
X0103216Y0017897D01*
X0103148Y0017938D01*
X0103082Y0017982D01*
X0103019Y0018030D01*
X0102958Y0018080D01*
X0102899Y0018134D01*
X0102844Y0018190D01*
X0102791Y0018249D01*
X0102741Y0018311D01*
X0102695Y0018375D01*
X0102652Y0018441D01*
X0102612Y0018509D01*
X0102575Y0018580D01*
X0102543Y0018652D01*
X0102513Y0018725D01*
X0102488Y0018800D01*
X0102466Y0018876D01*
X0102449Y0018953D01*
X0102435Y0019031D01*
X0102425Y0019110D01*
X0102419Y0019189D01*
X0102417Y0019268D01*
X0066157Y0019268D02*
X0066159Y0019347D01*
X0066165Y0019426D01*
X0066175Y0019505D01*
X0066189Y0019583D01*
X0066206Y0019660D01*
X0066228Y0019736D01*
X0066253Y0019811D01*
X0066283Y0019884D01*
X0066315Y0019956D01*
X0066352Y0020027D01*
X0066392Y0020095D01*
X0066435Y0020161D01*
X0066481Y0020225D01*
X0066531Y0020287D01*
X0066584Y0020346D01*
X0066639Y0020402D01*
X0066698Y0020456D01*
X0066759Y0020506D01*
X0066822Y0020554D01*
X0066888Y0020598D01*
X0066956Y0020639D01*
X0067026Y0020676D01*
X0067097Y0020710D01*
X0067171Y0020740D01*
X0067245Y0020766D01*
X0067321Y0020788D01*
X0067398Y0020807D01*
X0067476Y0020822D01*
X0067554Y0020833D01*
X0067633Y0020840D01*
X0067712Y0020843D01*
X0067791Y0020842D01*
X0067870Y0020837D01*
X0067949Y0020828D01*
X0068027Y0020815D01*
X0068104Y0020798D01*
X0068181Y0020778D01*
X0068256Y0020753D01*
X0068330Y0020725D01*
X0068403Y0020693D01*
X0068473Y0020658D01*
X0068542Y0020619D01*
X0068609Y0020576D01*
X0068674Y0020530D01*
X0068736Y0020482D01*
X0068796Y0020430D01*
X0068853Y0020375D01*
X0068907Y0020317D01*
X0068958Y0020257D01*
X0069006Y0020194D01*
X0069051Y0020129D01*
X0069093Y0020061D01*
X0069131Y0019992D01*
X0069165Y0019921D01*
X0069196Y0019848D01*
X0069224Y0019773D01*
X0069247Y0019698D01*
X0069267Y0019621D01*
X0069283Y0019544D01*
X0069295Y0019465D01*
X0069303Y0019387D01*
X0069307Y0019308D01*
X0069307Y0019228D01*
X0069303Y0019149D01*
X0069295Y0019071D01*
X0069283Y0018992D01*
X0069267Y0018915D01*
X0069247Y0018838D01*
X0069224Y0018763D01*
X0069196Y0018688D01*
X0069165Y0018615D01*
X0069131Y0018544D01*
X0069093Y0018475D01*
X0069051Y0018407D01*
X0069006Y0018342D01*
X0068958Y0018279D01*
X0068907Y0018219D01*
X0068853Y0018161D01*
X0068796Y0018106D01*
X0068736Y0018054D01*
X0068674Y0018006D01*
X0068609Y0017960D01*
X0068542Y0017917D01*
X0068473Y0017878D01*
X0068403Y0017843D01*
X0068330Y0017811D01*
X0068256Y0017783D01*
X0068181Y0017758D01*
X0068104Y0017738D01*
X0068027Y0017721D01*
X0067949Y0017708D01*
X0067870Y0017699D01*
X0067791Y0017694D01*
X0067712Y0017693D01*
X0067633Y0017696D01*
X0067554Y0017703D01*
X0067476Y0017714D01*
X0067398Y0017729D01*
X0067321Y0017748D01*
X0067245Y0017770D01*
X0067171Y0017796D01*
X0067097Y0017826D01*
X0067026Y0017860D01*
X0066956Y0017897D01*
X0066888Y0017938D01*
X0066822Y0017982D01*
X0066759Y0018030D01*
X0066698Y0018080D01*
X0066639Y0018134D01*
X0066584Y0018190D01*
X0066531Y0018249D01*
X0066481Y0018311D01*
X0066435Y0018375D01*
X0066392Y0018441D01*
X0066352Y0018509D01*
X0066315Y0018580D01*
X0066283Y0018652D01*
X0066253Y0018725D01*
X0066228Y0018800D01*
X0066206Y0018876D01*
X0066189Y0018953D01*
X0066175Y0019031D01*
X0066165Y0019110D01*
X0066159Y0019189D01*
X0066157Y0019268D01*
X0052378Y0019268D02*
X0052380Y0019347D01*
X0052386Y0019426D01*
X0052396Y0019505D01*
X0052410Y0019583D01*
X0052427Y0019660D01*
X0052449Y0019736D01*
X0052474Y0019811D01*
X0052504Y0019884D01*
X0052536Y0019956D01*
X0052573Y0020027D01*
X0052613Y0020095D01*
X0052656Y0020161D01*
X0052702Y0020225D01*
X0052752Y0020287D01*
X0052805Y0020346D01*
X0052860Y0020402D01*
X0052919Y0020456D01*
X0052980Y0020506D01*
X0053043Y0020554D01*
X0053109Y0020598D01*
X0053177Y0020639D01*
X0053247Y0020676D01*
X0053318Y0020710D01*
X0053392Y0020740D01*
X0053466Y0020766D01*
X0053542Y0020788D01*
X0053619Y0020807D01*
X0053697Y0020822D01*
X0053775Y0020833D01*
X0053854Y0020840D01*
X0053933Y0020843D01*
X0054012Y0020842D01*
X0054091Y0020837D01*
X0054170Y0020828D01*
X0054248Y0020815D01*
X0054325Y0020798D01*
X0054402Y0020778D01*
X0054477Y0020753D01*
X0054551Y0020725D01*
X0054624Y0020693D01*
X0054694Y0020658D01*
X0054763Y0020619D01*
X0054830Y0020576D01*
X0054895Y0020530D01*
X0054957Y0020482D01*
X0055017Y0020430D01*
X0055074Y0020375D01*
X0055128Y0020317D01*
X0055179Y0020257D01*
X0055227Y0020194D01*
X0055272Y0020129D01*
X0055314Y0020061D01*
X0055352Y0019992D01*
X0055386Y0019921D01*
X0055417Y0019848D01*
X0055445Y0019773D01*
X0055468Y0019698D01*
X0055488Y0019621D01*
X0055504Y0019544D01*
X0055516Y0019465D01*
X0055524Y0019387D01*
X0055528Y0019308D01*
X0055528Y0019228D01*
X0055524Y0019149D01*
X0055516Y0019071D01*
X0055504Y0018992D01*
X0055488Y0018915D01*
X0055468Y0018838D01*
X0055445Y0018763D01*
X0055417Y0018688D01*
X0055386Y0018615D01*
X0055352Y0018544D01*
X0055314Y0018475D01*
X0055272Y0018407D01*
X0055227Y0018342D01*
X0055179Y0018279D01*
X0055128Y0018219D01*
X0055074Y0018161D01*
X0055017Y0018106D01*
X0054957Y0018054D01*
X0054895Y0018006D01*
X0054830Y0017960D01*
X0054763Y0017917D01*
X0054694Y0017878D01*
X0054624Y0017843D01*
X0054551Y0017811D01*
X0054477Y0017783D01*
X0054402Y0017758D01*
X0054325Y0017738D01*
X0054248Y0017721D01*
X0054170Y0017708D01*
X0054091Y0017699D01*
X0054012Y0017694D01*
X0053933Y0017693D01*
X0053854Y0017696D01*
X0053775Y0017703D01*
X0053697Y0017714D01*
X0053619Y0017729D01*
X0053542Y0017748D01*
X0053466Y0017770D01*
X0053392Y0017796D01*
X0053318Y0017826D01*
X0053247Y0017860D01*
X0053177Y0017897D01*
X0053109Y0017938D01*
X0053043Y0017982D01*
X0052980Y0018030D01*
X0052919Y0018080D01*
X0052860Y0018134D01*
X0052805Y0018190D01*
X0052752Y0018249D01*
X0052702Y0018311D01*
X0052656Y0018375D01*
X0052613Y0018441D01*
X0052573Y0018509D01*
X0052536Y0018580D01*
X0052504Y0018652D01*
X0052474Y0018725D01*
X0052449Y0018800D01*
X0052427Y0018876D01*
X0052410Y0018953D01*
X0052396Y0019031D01*
X0052386Y0019110D01*
X0052380Y0019189D01*
X0052378Y0019268D01*
X0029582Y0019268D02*
X0029584Y0019347D01*
X0029590Y0019426D01*
X0029600Y0019505D01*
X0029614Y0019583D01*
X0029631Y0019660D01*
X0029653Y0019736D01*
X0029678Y0019811D01*
X0029708Y0019884D01*
X0029740Y0019956D01*
X0029777Y0020027D01*
X0029817Y0020095D01*
X0029860Y0020161D01*
X0029906Y0020225D01*
X0029956Y0020287D01*
X0030009Y0020346D01*
X0030064Y0020402D01*
X0030123Y0020456D01*
X0030184Y0020506D01*
X0030247Y0020554D01*
X0030313Y0020598D01*
X0030381Y0020639D01*
X0030451Y0020676D01*
X0030522Y0020710D01*
X0030596Y0020740D01*
X0030670Y0020766D01*
X0030746Y0020788D01*
X0030823Y0020807D01*
X0030901Y0020822D01*
X0030979Y0020833D01*
X0031058Y0020840D01*
X0031137Y0020843D01*
X0031216Y0020842D01*
X0031295Y0020837D01*
X0031374Y0020828D01*
X0031452Y0020815D01*
X0031529Y0020798D01*
X0031606Y0020778D01*
X0031681Y0020753D01*
X0031755Y0020725D01*
X0031828Y0020693D01*
X0031898Y0020658D01*
X0031967Y0020619D01*
X0032034Y0020576D01*
X0032099Y0020530D01*
X0032161Y0020482D01*
X0032221Y0020430D01*
X0032278Y0020375D01*
X0032332Y0020317D01*
X0032383Y0020257D01*
X0032431Y0020194D01*
X0032476Y0020129D01*
X0032518Y0020061D01*
X0032556Y0019992D01*
X0032590Y0019921D01*
X0032621Y0019848D01*
X0032649Y0019773D01*
X0032672Y0019698D01*
X0032692Y0019621D01*
X0032708Y0019544D01*
X0032720Y0019465D01*
X0032728Y0019387D01*
X0032732Y0019308D01*
X0032732Y0019228D01*
X0032728Y0019149D01*
X0032720Y0019071D01*
X0032708Y0018992D01*
X0032692Y0018915D01*
X0032672Y0018838D01*
X0032649Y0018763D01*
X0032621Y0018688D01*
X0032590Y0018615D01*
X0032556Y0018544D01*
X0032518Y0018475D01*
X0032476Y0018407D01*
X0032431Y0018342D01*
X0032383Y0018279D01*
X0032332Y0018219D01*
X0032278Y0018161D01*
X0032221Y0018106D01*
X0032161Y0018054D01*
X0032099Y0018006D01*
X0032034Y0017960D01*
X0031967Y0017917D01*
X0031898Y0017878D01*
X0031828Y0017843D01*
X0031755Y0017811D01*
X0031681Y0017783D01*
X0031606Y0017758D01*
X0031529Y0017738D01*
X0031452Y0017721D01*
X0031374Y0017708D01*
X0031295Y0017699D01*
X0031216Y0017694D01*
X0031137Y0017693D01*
X0031058Y0017696D01*
X0030979Y0017703D01*
X0030901Y0017714D01*
X0030823Y0017729D01*
X0030746Y0017748D01*
X0030670Y0017770D01*
X0030596Y0017796D01*
X0030522Y0017826D01*
X0030451Y0017860D01*
X0030381Y0017897D01*
X0030313Y0017938D01*
X0030247Y0017982D01*
X0030184Y0018030D01*
X0030123Y0018080D01*
X0030064Y0018134D01*
X0030009Y0018190D01*
X0029956Y0018249D01*
X0029906Y0018311D01*
X0029860Y0018375D01*
X0029817Y0018441D01*
X0029777Y0018509D01*
X0029740Y0018580D01*
X0029708Y0018652D01*
X0029678Y0018725D01*
X0029653Y0018800D01*
X0029631Y0018876D01*
X0029614Y0018953D01*
X0029600Y0019031D01*
X0029590Y0019110D01*
X0029584Y0019189D01*
X0029582Y0019268D01*
X0015803Y0019268D02*
X0015805Y0019347D01*
X0015811Y0019426D01*
X0015821Y0019505D01*
X0015835Y0019583D01*
X0015852Y0019660D01*
X0015874Y0019736D01*
X0015899Y0019811D01*
X0015929Y0019884D01*
X0015961Y0019956D01*
X0015998Y0020027D01*
X0016038Y0020095D01*
X0016081Y0020161D01*
X0016127Y0020225D01*
X0016177Y0020287D01*
X0016230Y0020346D01*
X0016285Y0020402D01*
X0016344Y0020456D01*
X0016405Y0020506D01*
X0016468Y0020554D01*
X0016534Y0020598D01*
X0016602Y0020639D01*
X0016672Y0020676D01*
X0016743Y0020710D01*
X0016817Y0020740D01*
X0016891Y0020766D01*
X0016967Y0020788D01*
X0017044Y0020807D01*
X0017122Y0020822D01*
X0017200Y0020833D01*
X0017279Y0020840D01*
X0017358Y0020843D01*
X0017437Y0020842D01*
X0017516Y0020837D01*
X0017595Y0020828D01*
X0017673Y0020815D01*
X0017750Y0020798D01*
X0017827Y0020778D01*
X0017902Y0020753D01*
X0017976Y0020725D01*
X0018049Y0020693D01*
X0018119Y0020658D01*
X0018188Y0020619D01*
X0018255Y0020576D01*
X0018320Y0020530D01*
X0018382Y0020482D01*
X0018442Y0020430D01*
X0018499Y0020375D01*
X0018553Y0020317D01*
X0018604Y0020257D01*
X0018652Y0020194D01*
X0018697Y0020129D01*
X0018739Y0020061D01*
X0018777Y0019992D01*
X0018811Y0019921D01*
X0018842Y0019848D01*
X0018870Y0019773D01*
X0018893Y0019698D01*
X0018913Y0019621D01*
X0018929Y0019544D01*
X0018941Y0019465D01*
X0018949Y0019387D01*
X0018953Y0019308D01*
X0018953Y0019228D01*
X0018949Y0019149D01*
X0018941Y0019071D01*
X0018929Y0018992D01*
X0018913Y0018915D01*
X0018893Y0018838D01*
X0018870Y0018763D01*
X0018842Y0018688D01*
X0018811Y0018615D01*
X0018777Y0018544D01*
X0018739Y0018475D01*
X0018697Y0018407D01*
X0018652Y0018342D01*
X0018604Y0018279D01*
X0018553Y0018219D01*
X0018499Y0018161D01*
X0018442Y0018106D01*
X0018382Y0018054D01*
X0018320Y0018006D01*
X0018255Y0017960D01*
X0018188Y0017917D01*
X0018119Y0017878D01*
X0018049Y0017843D01*
X0017976Y0017811D01*
X0017902Y0017783D01*
X0017827Y0017758D01*
X0017750Y0017738D01*
X0017673Y0017721D01*
X0017595Y0017708D01*
X0017516Y0017699D01*
X0017437Y0017694D01*
X0017358Y0017693D01*
X0017279Y0017696D01*
X0017200Y0017703D01*
X0017122Y0017714D01*
X0017044Y0017729D01*
X0016967Y0017748D01*
X0016891Y0017770D01*
X0016817Y0017796D01*
X0016743Y0017826D01*
X0016672Y0017860D01*
X0016602Y0017897D01*
X0016534Y0017938D01*
X0016468Y0017982D01*
X0016405Y0018030D01*
X0016344Y0018080D01*
X0016285Y0018134D01*
X0016230Y0018190D01*
X0016177Y0018249D01*
X0016127Y0018311D01*
X0016081Y0018375D01*
X0016038Y0018441D01*
X0015998Y0018509D01*
X0015961Y0018580D01*
X0015929Y0018652D01*
X0015899Y0018725D01*
X0015874Y0018800D01*
X0015852Y0018876D01*
X0015835Y0018953D01*
X0015821Y0019031D01*
X0015811Y0019110D01*
X0015805Y0019189D01*
X0015803Y0019268D01*
D14*
X0009091Y0024130D02*
X0076020Y0024130D01*
X0076020Y0110744D01*
X0009091Y0110744D01*
X0009091Y0024130D01*
X0095705Y0024130D02*
X0162634Y0024130D01*
X0162634Y0110744D01*
X0095705Y0110744D01*
X0095705Y0024130D01*
D15*
X0102637Y0031721D02*
X0101869Y0032489D01*
X0101869Y0034023D01*
X0102637Y0034791D01*
X0105706Y0034791D01*
X0106473Y0034023D01*
X0106473Y0032489D01*
X0105706Y0031721D01*
X0102637Y0031721D01*
X0102637Y0036325D02*
X0101869Y0037093D01*
X0101869Y0038627D01*
X0102637Y0039394D01*
X0106473Y0039394D01*
X0106473Y0040929D02*
X0106473Y0043998D01*
X0106473Y0042464D02*
X0101869Y0042464D01*
X0104171Y0045533D02*
X0104171Y0048602D01*
X0102637Y0036325D02*
X0106473Y0036325D01*
X0127125Y0054187D02*
X0131729Y0057256D01*
X0131729Y0058791D02*
X0130194Y0060325D01*
X0131729Y0061860D01*
X0127125Y0061860D01*
X0127125Y0063394D02*
X0127125Y0066464D01*
X0127125Y0064929D02*
X0131729Y0064929D01*
X0130194Y0063394D01*
X0129427Y0067998D02*
X0130194Y0069533D01*
X0130194Y0070300D01*
X0129427Y0071068D01*
X0127893Y0071068D01*
X0127125Y0070300D01*
X0127125Y0068766D01*
X0127893Y0067998D01*
X0129427Y0067998D02*
X0131729Y0067998D01*
X0131729Y0071068D01*
X0130962Y0072602D02*
X0130194Y0072602D01*
X0129427Y0073370D01*
X0129427Y0074904D01*
X0128660Y0075672D01*
X0127893Y0075672D01*
X0127125Y0074904D01*
X0127125Y0073370D01*
X0127893Y0072602D01*
X0128660Y0072602D01*
X0129427Y0073370D01*
X0129427Y0074904D02*
X0130194Y0075672D01*
X0130962Y0075672D01*
X0131729Y0074904D01*
X0131729Y0073370D01*
X0130962Y0072602D01*
X0129427Y0077206D02*
X0129427Y0080276D01*
X0127125Y0079508D02*
X0131729Y0079508D01*
X0129427Y0077206D01*
X0127125Y0058791D02*
X0131729Y0058791D01*
X0131729Y0054187D02*
X0127125Y0057256D01*
X0150137Y0049568D02*
X0153206Y0049568D01*
X0151671Y0048033D02*
X0151671Y0051102D01*
X0153973Y0046498D02*
X0153973Y0043429D01*
X0153973Y0041894D02*
X0150137Y0041894D01*
X0149369Y0041127D01*
X0149369Y0039593D01*
X0150137Y0038825D01*
X0153973Y0038825D01*
X0153206Y0037291D02*
X0153973Y0036523D01*
X0153973Y0034989D01*
X0153206Y0034221D01*
X0150137Y0034221D01*
X0149369Y0034989D01*
X0149369Y0036523D01*
X0150137Y0037291D01*
X0153206Y0037291D01*
X0153973Y0044964D02*
X0149369Y0044964D01*
X0149369Y0087860D02*
X0149369Y0089394D01*
X0149369Y0088627D02*
X0153973Y0088627D01*
X0153973Y0087860D02*
X0153973Y0089394D01*
X0153973Y0090929D02*
X0149369Y0093998D01*
X0153973Y0093998D01*
X0151671Y0095533D02*
X0151671Y0098602D01*
X0150137Y0097068D02*
X0153206Y0097068D01*
X0153973Y0090929D02*
X0149369Y0090929D01*
X0106473Y0090929D02*
X0101869Y0093998D01*
X0106473Y0093998D01*
X0104171Y0095533D02*
X0104171Y0098602D01*
X0101869Y0090929D02*
X0106473Y0090929D01*
X0106473Y0089394D02*
X0106473Y0087860D01*
X0106473Y0088627D02*
X0101869Y0088627D01*
X0101869Y0087860D02*
X0101869Y0089394D01*
X0067359Y0089394D02*
X0067359Y0087860D01*
X0067359Y0088627D02*
X0062755Y0088627D01*
X0062755Y0087860D02*
X0062755Y0089394D01*
X0062755Y0090929D02*
X0067359Y0090929D01*
X0062755Y0093998D01*
X0067359Y0093998D01*
X0065057Y0095533D02*
X0065057Y0098602D01*
X0066592Y0097068D02*
X0063522Y0097068D01*
X0045115Y0079508D02*
X0042813Y0077206D01*
X0042813Y0080276D01*
X0040511Y0079508D02*
X0045115Y0079508D01*
X0044348Y0075672D02*
X0043580Y0075672D01*
X0042813Y0074904D01*
X0042813Y0073370D01*
X0043580Y0072602D01*
X0044348Y0072602D01*
X0045115Y0073370D01*
X0045115Y0074904D01*
X0044348Y0075672D01*
X0042813Y0074904D02*
X0042046Y0075672D01*
X0041278Y0075672D01*
X0040511Y0074904D01*
X0040511Y0073370D01*
X0041278Y0072602D01*
X0042046Y0072602D01*
X0042813Y0073370D01*
X0042813Y0071068D02*
X0041278Y0071068D01*
X0040511Y0070300D01*
X0040511Y0068766D01*
X0041278Y0067998D01*
X0042813Y0067998D02*
X0043580Y0069533D01*
X0043580Y0070300D01*
X0042813Y0071068D01*
X0045115Y0071068D02*
X0045115Y0067998D01*
X0042813Y0067998D01*
X0040511Y0066464D02*
X0040511Y0063394D01*
X0040511Y0061860D02*
X0045115Y0061860D01*
X0043580Y0060325D01*
X0045115Y0058791D01*
X0040511Y0058791D01*
X0040511Y0057256D02*
X0045115Y0054187D01*
X0045115Y0057256D02*
X0040511Y0054187D01*
X0043580Y0063394D02*
X0045115Y0064929D01*
X0040511Y0064929D01*
X0017557Y0048602D02*
X0017557Y0045533D01*
X0019859Y0043998D02*
X0019859Y0040929D01*
X0019859Y0039394D02*
X0016022Y0039394D01*
X0015255Y0038627D01*
X0015255Y0037093D01*
X0016022Y0036325D01*
X0019859Y0036325D01*
X0019092Y0034791D02*
X0019859Y0034023D01*
X0019859Y0032489D01*
X0019092Y0031721D01*
X0016022Y0031721D01*
X0015255Y0032489D01*
X0015255Y0034023D01*
X0016022Y0034791D01*
X0019092Y0034791D01*
X0019859Y0042464D02*
X0015255Y0042464D01*
X0062755Y0041127D02*
X0062755Y0039593D01*
X0063522Y0038825D01*
X0067359Y0038825D01*
X0066592Y0037291D02*
X0067359Y0036523D01*
X0067359Y0034989D01*
X0066592Y0034221D01*
X0063522Y0034221D01*
X0062755Y0034989D01*
X0062755Y0036523D01*
X0063522Y0037291D01*
X0066592Y0037291D01*
X0062755Y0041127D02*
X0063522Y0041894D01*
X0067359Y0041894D01*
X0067359Y0043429D02*
X0067359Y0046498D01*
X0067359Y0044964D02*
X0062755Y0044964D01*
X0065057Y0048033D02*
X0065057Y0051102D01*
X0066592Y0049568D02*
X0063522Y0049568D01*
X0019859Y0087860D02*
X0019859Y0089394D01*
X0019859Y0088627D02*
X0015255Y0088627D01*
X0015255Y0087860D02*
X0015255Y0089394D01*
X0015255Y0090929D02*
X0019859Y0090929D01*
X0015255Y0093998D01*
X0019859Y0093998D01*
X0017557Y0095533D02*
X0017557Y0098602D01*
M02*
