%
M48
M72
T01C0.02400
T02C0.03150
%
T01
X10475Y6374
X12214Y8911
X13085Y9254
X11465Y11414
X15425Y6554
X14075Y5654
X14165Y3044
X16134Y2290
X5504Y3044
X7473Y2290
X5414Y5654
X6764Y6554
X4424Y9254
X3552Y8911
X2804Y11414
X1814Y6374
T02
X10399Y1926
X10399Y1926
X11777Y1926
X11777Y1926
X14056Y1926
X14056Y1926
X15434Y1926
X15434Y1926
X1737Y1926
X1737Y1926
X3115Y1926
X3115Y1926
X5395Y1926
X5395Y1926
X6773Y1926
X6773Y1926
M30
