G75*
%MOIN*%
%OFA0B0*%
%FSLAX25Y25*%
%IPPOS*%
%LPD*%
%AMOC8*
5,1,8,0,0,1.08239X$1,22.5*
%
%ADD10C,0.00394*%
%ADD11C,0.00000*%
%ADD12R,0.03937X0.04331*%
%ADD13R,0.06000X0.02400*%
%ADD14R,0.07874X0.04724*%
D10*
X0001394Y0001197D02*
X0001197Y0129031D01*
X0083559Y0129031D01*
X0083756Y0072063D01*
X0083755Y0072063D02*
X0083757Y0071976D01*
X0083763Y0071889D01*
X0083772Y0071802D01*
X0083786Y0071716D01*
X0083803Y0071631D01*
X0083824Y0071546D01*
X0083849Y0071463D01*
X0083877Y0071380D01*
X0083909Y0071299D01*
X0083945Y0071220D01*
X0083984Y0071142D01*
X0084026Y0071066D01*
X0084072Y0070992D01*
X0084121Y0070920D01*
X0084173Y0070850D01*
X0084228Y0070783D01*
X0084286Y0070718D01*
X0084347Y0070655D01*
X0084411Y0070596D01*
X0084477Y0070539D01*
X0084546Y0070486D01*
X0084617Y0070435D01*
X0084690Y0070388D01*
X0084765Y0070343D01*
X0084842Y0070303D01*
X0084920Y0070265D01*
X0085001Y0070232D01*
X0085082Y0070201D01*
X0085165Y0070175D01*
X0085250Y0070152D01*
X0085335Y0070133D01*
X0085420Y0070118D01*
X0085507Y0070106D01*
X0085593Y0070098D01*
X0085680Y0070094D01*
X0085768Y0070094D01*
X0085855Y0070098D01*
X0085941Y0070106D01*
X0086028Y0070118D01*
X0086113Y0070133D01*
X0086198Y0070152D01*
X0086283Y0070175D01*
X0086366Y0070201D01*
X0086447Y0070232D01*
X0086528Y0070265D01*
X0086606Y0070303D01*
X0086683Y0070343D01*
X0086758Y0070388D01*
X0086831Y0070435D01*
X0086902Y0070486D01*
X0086971Y0070539D01*
X0087037Y0070596D01*
X0087101Y0070655D01*
X0087162Y0070718D01*
X0087220Y0070783D01*
X0087275Y0070850D01*
X0087327Y0070920D01*
X0087376Y0070992D01*
X0087422Y0071066D01*
X0087464Y0071142D01*
X0087503Y0071220D01*
X0087539Y0071299D01*
X0087571Y0071380D01*
X0087599Y0071463D01*
X0087624Y0071546D01*
X0087645Y0071631D01*
X0087662Y0071716D01*
X0087676Y0071802D01*
X0087685Y0071889D01*
X0087691Y0071976D01*
X0087693Y0072063D01*
X0087693Y0128874D01*
X0170370Y0128874D01*
X0170370Y0001197D01*
X0087693Y0001197D01*
X0087693Y0056315D01*
X0087691Y0056402D01*
X0087685Y0056489D01*
X0087676Y0056576D01*
X0087662Y0056662D01*
X0087645Y0056747D01*
X0087624Y0056832D01*
X0087599Y0056915D01*
X0087571Y0056998D01*
X0087539Y0057079D01*
X0087503Y0057158D01*
X0087464Y0057236D01*
X0087422Y0057312D01*
X0087376Y0057386D01*
X0087327Y0057458D01*
X0087275Y0057528D01*
X0087220Y0057595D01*
X0087162Y0057660D01*
X0087101Y0057723D01*
X0087037Y0057782D01*
X0086971Y0057839D01*
X0086902Y0057892D01*
X0086831Y0057943D01*
X0086758Y0057990D01*
X0086683Y0058035D01*
X0086606Y0058075D01*
X0086528Y0058113D01*
X0086447Y0058146D01*
X0086366Y0058177D01*
X0086283Y0058203D01*
X0086198Y0058226D01*
X0086113Y0058245D01*
X0086028Y0058260D01*
X0085941Y0058272D01*
X0085855Y0058280D01*
X0085768Y0058284D01*
X0085680Y0058284D01*
X0085593Y0058280D01*
X0085507Y0058272D01*
X0085420Y0058260D01*
X0085335Y0058245D01*
X0085250Y0058226D01*
X0085165Y0058203D01*
X0085082Y0058177D01*
X0085001Y0058146D01*
X0084920Y0058113D01*
X0084842Y0058075D01*
X0084765Y0058035D01*
X0084690Y0057990D01*
X0084617Y0057943D01*
X0084546Y0057892D01*
X0084477Y0057839D01*
X0084411Y0057782D01*
X0084347Y0057723D01*
X0084286Y0057660D01*
X0084228Y0057595D01*
X0084173Y0057528D01*
X0084121Y0057458D01*
X0084072Y0057386D01*
X0084026Y0057312D01*
X0083984Y0057236D01*
X0083945Y0057158D01*
X0083909Y0057079D01*
X0083877Y0056998D01*
X0083849Y0056915D01*
X0083824Y0056832D01*
X0083803Y0056747D01*
X0083786Y0056662D01*
X0083772Y0056576D01*
X0083763Y0056489D01*
X0083757Y0056402D01*
X0083755Y0056315D01*
X0083756Y0056315D02*
X0083756Y0001197D01*
X0001394Y0001197D01*
X0083755Y0064189D02*
X0083757Y0064277D01*
X0083763Y0064365D01*
X0083773Y0064453D01*
X0083787Y0064541D01*
X0083804Y0064627D01*
X0083826Y0064713D01*
X0083851Y0064797D01*
X0083881Y0064881D01*
X0083913Y0064963D01*
X0083950Y0065043D01*
X0083990Y0065122D01*
X0084034Y0065199D01*
X0084081Y0065274D01*
X0084131Y0065346D01*
X0084185Y0065417D01*
X0084241Y0065484D01*
X0084301Y0065550D01*
X0084363Y0065612D01*
X0084429Y0065672D01*
X0084496Y0065728D01*
X0084567Y0065782D01*
X0084639Y0065832D01*
X0084714Y0065879D01*
X0084791Y0065923D01*
X0084870Y0065963D01*
X0084950Y0066000D01*
X0085032Y0066032D01*
X0085116Y0066062D01*
X0085200Y0066087D01*
X0085286Y0066109D01*
X0085372Y0066126D01*
X0085460Y0066140D01*
X0085548Y0066150D01*
X0085636Y0066156D01*
X0085724Y0066158D01*
X0085812Y0066156D01*
X0085900Y0066150D01*
X0085988Y0066140D01*
X0086076Y0066126D01*
X0086162Y0066109D01*
X0086248Y0066087D01*
X0086332Y0066062D01*
X0086416Y0066032D01*
X0086498Y0066000D01*
X0086578Y0065963D01*
X0086657Y0065923D01*
X0086734Y0065879D01*
X0086809Y0065832D01*
X0086881Y0065782D01*
X0086952Y0065728D01*
X0087019Y0065672D01*
X0087085Y0065612D01*
X0087147Y0065550D01*
X0087207Y0065484D01*
X0087263Y0065417D01*
X0087317Y0065346D01*
X0087367Y0065274D01*
X0087414Y0065199D01*
X0087458Y0065122D01*
X0087498Y0065043D01*
X0087535Y0064963D01*
X0087567Y0064881D01*
X0087597Y0064797D01*
X0087622Y0064713D01*
X0087644Y0064627D01*
X0087661Y0064541D01*
X0087675Y0064453D01*
X0087685Y0064365D01*
X0087691Y0064277D01*
X0087693Y0064189D01*
X0087691Y0064101D01*
X0087685Y0064013D01*
X0087675Y0063925D01*
X0087661Y0063837D01*
X0087644Y0063751D01*
X0087622Y0063665D01*
X0087597Y0063581D01*
X0087567Y0063497D01*
X0087535Y0063415D01*
X0087498Y0063335D01*
X0087458Y0063256D01*
X0087414Y0063179D01*
X0087367Y0063104D01*
X0087317Y0063032D01*
X0087263Y0062961D01*
X0087207Y0062894D01*
X0087147Y0062828D01*
X0087085Y0062766D01*
X0087019Y0062706D01*
X0086952Y0062650D01*
X0086881Y0062596D01*
X0086809Y0062546D01*
X0086734Y0062499D01*
X0086657Y0062455D01*
X0086578Y0062415D01*
X0086498Y0062378D01*
X0086416Y0062346D01*
X0086332Y0062316D01*
X0086248Y0062291D01*
X0086162Y0062269D01*
X0086076Y0062252D01*
X0085988Y0062238D01*
X0085900Y0062228D01*
X0085812Y0062222D01*
X0085724Y0062220D01*
X0085636Y0062222D01*
X0085548Y0062228D01*
X0085460Y0062238D01*
X0085372Y0062252D01*
X0085286Y0062269D01*
X0085200Y0062291D01*
X0085116Y0062316D01*
X0085032Y0062346D01*
X0084950Y0062378D01*
X0084870Y0062415D01*
X0084791Y0062455D01*
X0084714Y0062499D01*
X0084639Y0062546D01*
X0084567Y0062596D01*
X0084496Y0062650D01*
X0084429Y0062706D01*
X0084363Y0062766D01*
X0084301Y0062828D01*
X0084241Y0062894D01*
X0084185Y0062961D01*
X0084131Y0063032D01*
X0084081Y0063104D01*
X0084034Y0063179D01*
X0083990Y0063256D01*
X0083950Y0063335D01*
X0083913Y0063415D01*
X0083881Y0063497D01*
X0083851Y0063581D01*
X0083826Y0063665D01*
X0083804Y0063751D01*
X0083787Y0063837D01*
X0083773Y0063925D01*
X0083763Y0064013D01*
X0083757Y0064101D01*
X0083755Y0064189D01*
D11*
X0066157Y0019268D02*
X0066159Y0019347D01*
X0066165Y0019426D01*
X0066175Y0019505D01*
X0066189Y0019583D01*
X0066206Y0019660D01*
X0066228Y0019736D01*
X0066253Y0019811D01*
X0066283Y0019884D01*
X0066315Y0019956D01*
X0066352Y0020027D01*
X0066392Y0020095D01*
X0066435Y0020161D01*
X0066481Y0020225D01*
X0066531Y0020287D01*
X0066584Y0020346D01*
X0066639Y0020402D01*
X0066698Y0020456D01*
X0066759Y0020506D01*
X0066822Y0020554D01*
X0066888Y0020598D01*
X0066956Y0020639D01*
X0067026Y0020676D01*
X0067097Y0020710D01*
X0067171Y0020740D01*
X0067245Y0020766D01*
X0067321Y0020788D01*
X0067398Y0020807D01*
X0067476Y0020822D01*
X0067554Y0020833D01*
X0067633Y0020840D01*
X0067712Y0020843D01*
X0067791Y0020842D01*
X0067870Y0020837D01*
X0067949Y0020828D01*
X0068027Y0020815D01*
X0068104Y0020798D01*
X0068181Y0020778D01*
X0068256Y0020753D01*
X0068330Y0020725D01*
X0068403Y0020693D01*
X0068473Y0020658D01*
X0068542Y0020619D01*
X0068609Y0020576D01*
X0068674Y0020530D01*
X0068736Y0020482D01*
X0068796Y0020430D01*
X0068853Y0020375D01*
X0068907Y0020317D01*
X0068958Y0020257D01*
X0069006Y0020194D01*
X0069051Y0020129D01*
X0069093Y0020061D01*
X0069131Y0019992D01*
X0069165Y0019921D01*
X0069196Y0019848D01*
X0069224Y0019773D01*
X0069247Y0019698D01*
X0069267Y0019621D01*
X0069283Y0019544D01*
X0069295Y0019465D01*
X0069303Y0019387D01*
X0069307Y0019308D01*
X0069307Y0019228D01*
X0069303Y0019149D01*
X0069295Y0019071D01*
X0069283Y0018992D01*
X0069267Y0018915D01*
X0069247Y0018838D01*
X0069224Y0018763D01*
X0069196Y0018688D01*
X0069165Y0018615D01*
X0069131Y0018544D01*
X0069093Y0018475D01*
X0069051Y0018407D01*
X0069006Y0018342D01*
X0068958Y0018279D01*
X0068907Y0018219D01*
X0068853Y0018161D01*
X0068796Y0018106D01*
X0068736Y0018054D01*
X0068674Y0018006D01*
X0068609Y0017960D01*
X0068542Y0017917D01*
X0068473Y0017878D01*
X0068403Y0017843D01*
X0068330Y0017811D01*
X0068256Y0017783D01*
X0068181Y0017758D01*
X0068104Y0017738D01*
X0068027Y0017721D01*
X0067949Y0017708D01*
X0067870Y0017699D01*
X0067791Y0017694D01*
X0067712Y0017693D01*
X0067633Y0017696D01*
X0067554Y0017703D01*
X0067476Y0017714D01*
X0067398Y0017729D01*
X0067321Y0017748D01*
X0067245Y0017770D01*
X0067171Y0017796D01*
X0067097Y0017826D01*
X0067026Y0017860D01*
X0066956Y0017897D01*
X0066888Y0017938D01*
X0066822Y0017982D01*
X0066759Y0018030D01*
X0066698Y0018080D01*
X0066639Y0018134D01*
X0066584Y0018190D01*
X0066531Y0018249D01*
X0066481Y0018311D01*
X0066435Y0018375D01*
X0066392Y0018441D01*
X0066352Y0018509D01*
X0066315Y0018580D01*
X0066283Y0018652D01*
X0066253Y0018725D01*
X0066228Y0018800D01*
X0066206Y0018876D01*
X0066189Y0018953D01*
X0066175Y0019031D01*
X0066165Y0019110D01*
X0066159Y0019189D01*
X0066157Y0019268D01*
X0052378Y0019268D02*
X0052380Y0019347D01*
X0052386Y0019426D01*
X0052396Y0019505D01*
X0052410Y0019583D01*
X0052427Y0019660D01*
X0052449Y0019736D01*
X0052474Y0019811D01*
X0052504Y0019884D01*
X0052536Y0019956D01*
X0052573Y0020027D01*
X0052613Y0020095D01*
X0052656Y0020161D01*
X0052702Y0020225D01*
X0052752Y0020287D01*
X0052805Y0020346D01*
X0052860Y0020402D01*
X0052919Y0020456D01*
X0052980Y0020506D01*
X0053043Y0020554D01*
X0053109Y0020598D01*
X0053177Y0020639D01*
X0053247Y0020676D01*
X0053318Y0020710D01*
X0053392Y0020740D01*
X0053466Y0020766D01*
X0053542Y0020788D01*
X0053619Y0020807D01*
X0053697Y0020822D01*
X0053775Y0020833D01*
X0053854Y0020840D01*
X0053933Y0020843D01*
X0054012Y0020842D01*
X0054091Y0020837D01*
X0054170Y0020828D01*
X0054248Y0020815D01*
X0054325Y0020798D01*
X0054402Y0020778D01*
X0054477Y0020753D01*
X0054551Y0020725D01*
X0054624Y0020693D01*
X0054694Y0020658D01*
X0054763Y0020619D01*
X0054830Y0020576D01*
X0054895Y0020530D01*
X0054957Y0020482D01*
X0055017Y0020430D01*
X0055074Y0020375D01*
X0055128Y0020317D01*
X0055179Y0020257D01*
X0055227Y0020194D01*
X0055272Y0020129D01*
X0055314Y0020061D01*
X0055352Y0019992D01*
X0055386Y0019921D01*
X0055417Y0019848D01*
X0055445Y0019773D01*
X0055468Y0019698D01*
X0055488Y0019621D01*
X0055504Y0019544D01*
X0055516Y0019465D01*
X0055524Y0019387D01*
X0055528Y0019308D01*
X0055528Y0019228D01*
X0055524Y0019149D01*
X0055516Y0019071D01*
X0055504Y0018992D01*
X0055488Y0018915D01*
X0055468Y0018838D01*
X0055445Y0018763D01*
X0055417Y0018688D01*
X0055386Y0018615D01*
X0055352Y0018544D01*
X0055314Y0018475D01*
X0055272Y0018407D01*
X0055227Y0018342D01*
X0055179Y0018279D01*
X0055128Y0018219D01*
X0055074Y0018161D01*
X0055017Y0018106D01*
X0054957Y0018054D01*
X0054895Y0018006D01*
X0054830Y0017960D01*
X0054763Y0017917D01*
X0054694Y0017878D01*
X0054624Y0017843D01*
X0054551Y0017811D01*
X0054477Y0017783D01*
X0054402Y0017758D01*
X0054325Y0017738D01*
X0054248Y0017721D01*
X0054170Y0017708D01*
X0054091Y0017699D01*
X0054012Y0017694D01*
X0053933Y0017693D01*
X0053854Y0017696D01*
X0053775Y0017703D01*
X0053697Y0017714D01*
X0053619Y0017729D01*
X0053542Y0017748D01*
X0053466Y0017770D01*
X0053392Y0017796D01*
X0053318Y0017826D01*
X0053247Y0017860D01*
X0053177Y0017897D01*
X0053109Y0017938D01*
X0053043Y0017982D01*
X0052980Y0018030D01*
X0052919Y0018080D01*
X0052860Y0018134D01*
X0052805Y0018190D01*
X0052752Y0018249D01*
X0052702Y0018311D01*
X0052656Y0018375D01*
X0052613Y0018441D01*
X0052573Y0018509D01*
X0052536Y0018580D01*
X0052504Y0018652D01*
X0052474Y0018725D01*
X0052449Y0018800D01*
X0052427Y0018876D01*
X0052410Y0018953D01*
X0052396Y0019031D01*
X0052386Y0019110D01*
X0052380Y0019189D01*
X0052378Y0019268D01*
X0029582Y0019268D02*
X0029584Y0019347D01*
X0029590Y0019426D01*
X0029600Y0019505D01*
X0029614Y0019583D01*
X0029631Y0019660D01*
X0029653Y0019736D01*
X0029678Y0019811D01*
X0029708Y0019884D01*
X0029740Y0019956D01*
X0029777Y0020027D01*
X0029817Y0020095D01*
X0029860Y0020161D01*
X0029906Y0020225D01*
X0029956Y0020287D01*
X0030009Y0020346D01*
X0030064Y0020402D01*
X0030123Y0020456D01*
X0030184Y0020506D01*
X0030247Y0020554D01*
X0030313Y0020598D01*
X0030381Y0020639D01*
X0030451Y0020676D01*
X0030522Y0020710D01*
X0030596Y0020740D01*
X0030670Y0020766D01*
X0030746Y0020788D01*
X0030823Y0020807D01*
X0030901Y0020822D01*
X0030979Y0020833D01*
X0031058Y0020840D01*
X0031137Y0020843D01*
X0031216Y0020842D01*
X0031295Y0020837D01*
X0031374Y0020828D01*
X0031452Y0020815D01*
X0031529Y0020798D01*
X0031606Y0020778D01*
X0031681Y0020753D01*
X0031755Y0020725D01*
X0031828Y0020693D01*
X0031898Y0020658D01*
X0031967Y0020619D01*
X0032034Y0020576D01*
X0032099Y0020530D01*
X0032161Y0020482D01*
X0032221Y0020430D01*
X0032278Y0020375D01*
X0032332Y0020317D01*
X0032383Y0020257D01*
X0032431Y0020194D01*
X0032476Y0020129D01*
X0032518Y0020061D01*
X0032556Y0019992D01*
X0032590Y0019921D01*
X0032621Y0019848D01*
X0032649Y0019773D01*
X0032672Y0019698D01*
X0032692Y0019621D01*
X0032708Y0019544D01*
X0032720Y0019465D01*
X0032728Y0019387D01*
X0032732Y0019308D01*
X0032732Y0019228D01*
X0032728Y0019149D01*
X0032720Y0019071D01*
X0032708Y0018992D01*
X0032692Y0018915D01*
X0032672Y0018838D01*
X0032649Y0018763D01*
X0032621Y0018688D01*
X0032590Y0018615D01*
X0032556Y0018544D01*
X0032518Y0018475D01*
X0032476Y0018407D01*
X0032431Y0018342D01*
X0032383Y0018279D01*
X0032332Y0018219D01*
X0032278Y0018161D01*
X0032221Y0018106D01*
X0032161Y0018054D01*
X0032099Y0018006D01*
X0032034Y0017960D01*
X0031967Y0017917D01*
X0031898Y0017878D01*
X0031828Y0017843D01*
X0031755Y0017811D01*
X0031681Y0017783D01*
X0031606Y0017758D01*
X0031529Y0017738D01*
X0031452Y0017721D01*
X0031374Y0017708D01*
X0031295Y0017699D01*
X0031216Y0017694D01*
X0031137Y0017693D01*
X0031058Y0017696D01*
X0030979Y0017703D01*
X0030901Y0017714D01*
X0030823Y0017729D01*
X0030746Y0017748D01*
X0030670Y0017770D01*
X0030596Y0017796D01*
X0030522Y0017826D01*
X0030451Y0017860D01*
X0030381Y0017897D01*
X0030313Y0017938D01*
X0030247Y0017982D01*
X0030184Y0018030D01*
X0030123Y0018080D01*
X0030064Y0018134D01*
X0030009Y0018190D01*
X0029956Y0018249D01*
X0029906Y0018311D01*
X0029860Y0018375D01*
X0029817Y0018441D01*
X0029777Y0018509D01*
X0029740Y0018580D01*
X0029708Y0018652D01*
X0029678Y0018725D01*
X0029653Y0018800D01*
X0029631Y0018876D01*
X0029614Y0018953D01*
X0029600Y0019031D01*
X0029590Y0019110D01*
X0029584Y0019189D01*
X0029582Y0019268D01*
X0015803Y0019268D02*
X0015805Y0019347D01*
X0015811Y0019426D01*
X0015821Y0019505D01*
X0015835Y0019583D01*
X0015852Y0019660D01*
X0015874Y0019736D01*
X0015899Y0019811D01*
X0015929Y0019884D01*
X0015961Y0019956D01*
X0015998Y0020027D01*
X0016038Y0020095D01*
X0016081Y0020161D01*
X0016127Y0020225D01*
X0016177Y0020287D01*
X0016230Y0020346D01*
X0016285Y0020402D01*
X0016344Y0020456D01*
X0016405Y0020506D01*
X0016468Y0020554D01*
X0016534Y0020598D01*
X0016602Y0020639D01*
X0016672Y0020676D01*
X0016743Y0020710D01*
X0016817Y0020740D01*
X0016891Y0020766D01*
X0016967Y0020788D01*
X0017044Y0020807D01*
X0017122Y0020822D01*
X0017200Y0020833D01*
X0017279Y0020840D01*
X0017358Y0020843D01*
X0017437Y0020842D01*
X0017516Y0020837D01*
X0017595Y0020828D01*
X0017673Y0020815D01*
X0017750Y0020798D01*
X0017827Y0020778D01*
X0017902Y0020753D01*
X0017976Y0020725D01*
X0018049Y0020693D01*
X0018119Y0020658D01*
X0018188Y0020619D01*
X0018255Y0020576D01*
X0018320Y0020530D01*
X0018382Y0020482D01*
X0018442Y0020430D01*
X0018499Y0020375D01*
X0018553Y0020317D01*
X0018604Y0020257D01*
X0018652Y0020194D01*
X0018697Y0020129D01*
X0018739Y0020061D01*
X0018777Y0019992D01*
X0018811Y0019921D01*
X0018842Y0019848D01*
X0018870Y0019773D01*
X0018893Y0019698D01*
X0018913Y0019621D01*
X0018929Y0019544D01*
X0018941Y0019465D01*
X0018949Y0019387D01*
X0018953Y0019308D01*
X0018953Y0019228D01*
X0018949Y0019149D01*
X0018941Y0019071D01*
X0018929Y0018992D01*
X0018913Y0018915D01*
X0018893Y0018838D01*
X0018870Y0018763D01*
X0018842Y0018688D01*
X0018811Y0018615D01*
X0018777Y0018544D01*
X0018739Y0018475D01*
X0018697Y0018407D01*
X0018652Y0018342D01*
X0018604Y0018279D01*
X0018553Y0018219D01*
X0018499Y0018161D01*
X0018442Y0018106D01*
X0018382Y0018054D01*
X0018320Y0018006D01*
X0018255Y0017960D01*
X0018188Y0017917D01*
X0018119Y0017878D01*
X0018049Y0017843D01*
X0017976Y0017811D01*
X0017902Y0017783D01*
X0017827Y0017758D01*
X0017750Y0017738D01*
X0017673Y0017721D01*
X0017595Y0017708D01*
X0017516Y0017699D01*
X0017437Y0017694D01*
X0017358Y0017693D01*
X0017279Y0017696D01*
X0017200Y0017703D01*
X0017122Y0017714D01*
X0017044Y0017729D01*
X0016967Y0017748D01*
X0016891Y0017770D01*
X0016817Y0017796D01*
X0016743Y0017826D01*
X0016672Y0017860D01*
X0016602Y0017897D01*
X0016534Y0017938D01*
X0016468Y0017982D01*
X0016405Y0018030D01*
X0016344Y0018080D01*
X0016285Y0018134D01*
X0016230Y0018190D01*
X0016177Y0018249D01*
X0016127Y0018311D01*
X0016081Y0018375D01*
X0016038Y0018441D01*
X0015998Y0018509D01*
X0015961Y0018580D01*
X0015929Y0018652D01*
X0015899Y0018725D01*
X0015874Y0018800D01*
X0015852Y0018876D01*
X0015835Y0018953D01*
X0015821Y0019031D01*
X0015811Y0019110D01*
X0015805Y0019189D01*
X0015803Y0019268D01*
X0102417Y0019268D02*
X0102419Y0019347D01*
X0102425Y0019426D01*
X0102435Y0019505D01*
X0102449Y0019583D01*
X0102466Y0019660D01*
X0102488Y0019736D01*
X0102513Y0019811D01*
X0102543Y0019884D01*
X0102575Y0019956D01*
X0102612Y0020027D01*
X0102652Y0020095D01*
X0102695Y0020161D01*
X0102741Y0020225D01*
X0102791Y0020287D01*
X0102844Y0020346D01*
X0102899Y0020402D01*
X0102958Y0020456D01*
X0103019Y0020506D01*
X0103082Y0020554D01*
X0103148Y0020598D01*
X0103216Y0020639D01*
X0103286Y0020676D01*
X0103357Y0020710D01*
X0103431Y0020740D01*
X0103505Y0020766D01*
X0103581Y0020788D01*
X0103658Y0020807D01*
X0103736Y0020822D01*
X0103814Y0020833D01*
X0103893Y0020840D01*
X0103972Y0020843D01*
X0104051Y0020842D01*
X0104130Y0020837D01*
X0104209Y0020828D01*
X0104287Y0020815D01*
X0104364Y0020798D01*
X0104441Y0020778D01*
X0104516Y0020753D01*
X0104590Y0020725D01*
X0104663Y0020693D01*
X0104733Y0020658D01*
X0104802Y0020619D01*
X0104869Y0020576D01*
X0104934Y0020530D01*
X0104996Y0020482D01*
X0105056Y0020430D01*
X0105113Y0020375D01*
X0105167Y0020317D01*
X0105218Y0020257D01*
X0105266Y0020194D01*
X0105311Y0020129D01*
X0105353Y0020061D01*
X0105391Y0019992D01*
X0105425Y0019921D01*
X0105456Y0019848D01*
X0105484Y0019773D01*
X0105507Y0019698D01*
X0105527Y0019621D01*
X0105543Y0019544D01*
X0105555Y0019465D01*
X0105563Y0019387D01*
X0105567Y0019308D01*
X0105567Y0019228D01*
X0105563Y0019149D01*
X0105555Y0019071D01*
X0105543Y0018992D01*
X0105527Y0018915D01*
X0105507Y0018838D01*
X0105484Y0018763D01*
X0105456Y0018688D01*
X0105425Y0018615D01*
X0105391Y0018544D01*
X0105353Y0018475D01*
X0105311Y0018407D01*
X0105266Y0018342D01*
X0105218Y0018279D01*
X0105167Y0018219D01*
X0105113Y0018161D01*
X0105056Y0018106D01*
X0104996Y0018054D01*
X0104934Y0018006D01*
X0104869Y0017960D01*
X0104802Y0017917D01*
X0104733Y0017878D01*
X0104663Y0017843D01*
X0104590Y0017811D01*
X0104516Y0017783D01*
X0104441Y0017758D01*
X0104364Y0017738D01*
X0104287Y0017721D01*
X0104209Y0017708D01*
X0104130Y0017699D01*
X0104051Y0017694D01*
X0103972Y0017693D01*
X0103893Y0017696D01*
X0103814Y0017703D01*
X0103736Y0017714D01*
X0103658Y0017729D01*
X0103581Y0017748D01*
X0103505Y0017770D01*
X0103431Y0017796D01*
X0103357Y0017826D01*
X0103286Y0017860D01*
X0103216Y0017897D01*
X0103148Y0017938D01*
X0103082Y0017982D01*
X0103019Y0018030D01*
X0102958Y0018080D01*
X0102899Y0018134D01*
X0102844Y0018190D01*
X0102791Y0018249D01*
X0102741Y0018311D01*
X0102695Y0018375D01*
X0102652Y0018441D01*
X0102612Y0018509D01*
X0102575Y0018580D01*
X0102543Y0018652D01*
X0102513Y0018725D01*
X0102488Y0018800D01*
X0102466Y0018876D01*
X0102449Y0018953D01*
X0102435Y0019031D01*
X0102425Y0019110D01*
X0102419Y0019189D01*
X0102417Y0019268D01*
X0116197Y0019268D02*
X0116199Y0019347D01*
X0116205Y0019426D01*
X0116215Y0019505D01*
X0116229Y0019583D01*
X0116246Y0019660D01*
X0116268Y0019736D01*
X0116293Y0019811D01*
X0116323Y0019884D01*
X0116355Y0019956D01*
X0116392Y0020027D01*
X0116432Y0020095D01*
X0116475Y0020161D01*
X0116521Y0020225D01*
X0116571Y0020287D01*
X0116624Y0020346D01*
X0116679Y0020402D01*
X0116738Y0020456D01*
X0116799Y0020506D01*
X0116862Y0020554D01*
X0116928Y0020598D01*
X0116996Y0020639D01*
X0117066Y0020676D01*
X0117137Y0020710D01*
X0117211Y0020740D01*
X0117285Y0020766D01*
X0117361Y0020788D01*
X0117438Y0020807D01*
X0117516Y0020822D01*
X0117594Y0020833D01*
X0117673Y0020840D01*
X0117752Y0020843D01*
X0117831Y0020842D01*
X0117910Y0020837D01*
X0117989Y0020828D01*
X0118067Y0020815D01*
X0118144Y0020798D01*
X0118221Y0020778D01*
X0118296Y0020753D01*
X0118370Y0020725D01*
X0118443Y0020693D01*
X0118513Y0020658D01*
X0118582Y0020619D01*
X0118649Y0020576D01*
X0118714Y0020530D01*
X0118776Y0020482D01*
X0118836Y0020430D01*
X0118893Y0020375D01*
X0118947Y0020317D01*
X0118998Y0020257D01*
X0119046Y0020194D01*
X0119091Y0020129D01*
X0119133Y0020061D01*
X0119171Y0019992D01*
X0119205Y0019921D01*
X0119236Y0019848D01*
X0119264Y0019773D01*
X0119287Y0019698D01*
X0119307Y0019621D01*
X0119323Y0019544D01*
X0119335Y0019465D01*
X0119343Y0019387D01*
X0119347Y0019308D01*
X0119347Y0019228D01*
X0119343Y0019149D01*
X0119335Y0019071D01*
X0119323Y0018992D01*
X0119307Y0018915D01*
X0119287Y0018838D01*
X0119264Y0018763D01*
X0119236Y0018688D01*
X0119205Y0018615D01*
X0119171Y0018544D01*
X0119133Y0018475D01*
X0119091Y0018407D01*
X0119046Y0018342D01*
X0118998Y0018279D01*
X0118947Y0018219D01*
X0118893Y0018161D01*
X0118836Y0018106D01*
X0118776Y0018054D01*
X0118714Y0018006D01*
X0118649Y0017960D01*
X0118582Y0017917D01*
X0118513Y0017878D01*
X0118443Y0017843D01*
X0118370Y0017811D01*
X0118296Y0017783D01*
X0118221Y0017758D01*
X0118144Y0017738D01*
X0118067Y0017721D01*
X0117989Y0017708D01*
X0117910Y0017699D01*
X0117831Y0017694D01*
X0117752Y0017693D01*
X0117673Y0017696D01*
X0117594Y0017703D01*
X0117516Y0017714D01*
X0117438Y0017729D01*
X0117361Y0017748D01*
X0117285Y0017770D01*
X0117211Y0017796D01*
X0117137Y0017826D01*
X0117066Y0017860D01*
X0116996Y0017897D01*
X0116928Y0017938D01*
X0116862Y0017982D01*
X0116799Y0018030D01*
X0116738Y0018080D01*
X0116679Y0018134D01*
X0116624Y0018190D01*
X0116571Y0018249D01*
X0116521Y0018311D01*
X0116475Y0018375D01*
X0116432Y0018441D01*
X0116392Y0018509D01*
X0116355Y0018580D01*
X0116323Y0018652D01*
X0116293Y0018725D01*
X0116268Y0018800D01*
X0116246Y0018876D01*
X0116229Y0018953D01*
X0116215Y0019031D01*
X0116205Y0019110D01*
X0116199Y0019189D01*
X0116197Y0019268D01*
X0138992Y0019268D02*
X0138994Y0019347D01*
X0139000Y0019426D01*
X0139010Y0019505D01*
X0139024Y0019583D01*
X0139041Y0019660D01*
X0139063Y0019736D01*
X0139088Y0019811D01*
X0139118Y0019884D01*
X0139150Y0019956D01*
X0139187Y0020027D01*
X0139227Y0020095D01*
X0139270Y0020161D01*
X0139316Y0020225D01*
X0139366Y0020287D01*
X0139419Y0020346D01*
X0139474Y0020402D01*
X0139533Y0020456D01*
X0139594Y0020506D01*
X0139657Y0020554D01*
X0139723Y0020598D01*
X0139791Y0020639D01*
X0139861Y0020676D01*
X0139932Y0020710D01*
X0140006Y0020740D01*
X0140080Y0020766D01*
X0140156Y0020788D01*
X0140233Y0020807D01*
X0140311Y0020822D01*
X0140389Y0020833D01*
X0140468Y0020840D01*
X0140547Y0020843D01*
X0140626Y0020842D01*
X0140705Y0020837D01*
X0140784Y0020828D01*
X0140862Y0020815D01*
X0140939Y0020798D01*
X0141016Y0020778D01*
X0141091Y0020753D01*
X0141165Y0020725D01*
X0141238Y0020693D01*
X0141308Y0020658D01*
X0141377Y0020619D01*
X0141444Y0020576D01*
X0141509Y0020530D01*
X0141571Y0020482D01*
X0141631Y0020430D01*
X0141688Y0020375D01*
X0141742Y0020317D01*
X0141793Y0020257D01*
X0141841Y0020194D01*
X0141886Y0020129D01*
X0141928Y0020061D01*
X0141966Y0019992D01*
X0142000Y0019921D01*
X0142031Y0019848D01*
X0142059Y0019773D01*
X0142082Y0019698D01*
X0142102Y0019621D01*
X0142118Y0019544D01*
X0142130Y0019465D01*
X0142138Y0019387D01*
X0142142Y0019308D01*
X0142142Y0019228D01*
X0142138Y0019149D01*
X0142130Y0019071D01*
X0142118Y0018992D01*
X0142102Y0018915D01*
X0142082Y0018838D01*
X0142059Y0018763D01*
X0142031Y0018688D01*
X0142000Y0018615D01*
X0141966Y0018544D01*
X0141928Y0018475D01*
X0141886Y0018407D01*
X0141841Y0018342D01*
X0141793Y0018279D01*
X0141742Y0018219D01*
X0141688Y0018161D01*
X0141631Y0018106D01*
X0141571Y0018054D01*
X0141509Y0018006D01*
X0141444Y0017960D01*
X0141377Y0017917D01*
X0141308Y0017878D01*
X0141238Y0017843D01*
X0141165Y0017811D01*
X0141091Y0017783D01*
X0141016Y0017758D01*
X0140939Y0017738D01*
X0140862Y0017721D01*
X0140784Y0017708D01*
X0140705Y0017699D01*
X0140626Y0017694D01*
X0140547Y0017693D01*
X0140468Y0017696D01*
X0140389Y0017703D01*
X0140311Y0017714D01*
X0140233Y0017729D01*
X0140156Y0017748D01*
X0140080Y0017770D01*
X0140006Y0017796D01*
X0139932Y0017826D01*
X0139861Y0017860D01*
X0139791Y0017897D01*
X0139723Y0017938D01*
X0139657Y0017982D01*
X0139594Y0018030D01*
X0139533Y0018080D01*
X0139474Y0018134D01*
X0139419Y0018190D01*
X0139366Y0018249D01*
X0139316Y0018311D01*
X0139270Y0018375D01*
X0139227Y0018441D01*
X0139187Y0018509D01*
X0139150Y0018580D01*
X0139118Y0018652D01*
X0139088Y0018725D01*
X0139063Y0018800D01*
X0139041Y0018876D01*
X0139024Y0018953D01*
X0139010Y0019031D01*
X0139000Y0019110D01*
X0138994Y0019189D01*
X0138992Y0019268D01*
X0152771Y0019268D02*
X0152773Y0019347D01*
X0152779Y0019426D01*
X0152789Y0019505D01*
X0152803Y0019583D01*
X0152820Y0019660D01*
X0152842Y0019736D01*
X0152867Y0019811D01*
X0152897Y0019884D01*
X0152929Y0019956D01*
X0152966Y0020027D01*
X0153006Y0020095D01*
X0153049Y0020161D01*
X0153095Y0020225D01*
X0153145Y0020287D01*
X0153198Y0020346D01*
X0153253Y0020402D01*
X0153312Y0020456D01*
X0153373Y0020506D01*
X0153436Y0020554D01*
X0153502Y0020598D01*
X0153570Y0020639D01*
X0153640Y0020676D01*
X0153711Y0020710D01*
X0153785Y0020740D01*
X0153859Y0020766D01*
X0153935Y0020788D01*
X0154012Y0020807D01*
X0154090Y0020822D01*
X0154168Y0020833D01*
X0154247Y0020840D01*
X0154326Y0020843D01*
X0154405Y0020842D01*
X0154484Y0020837D01*
X0154563Y0020828D01*
X0154641Y0020815D01*
X0154718Y0020798D01*
X0154795Y0020778D01*
X0154870Y0020753D01*
X0154944Y0020725D01*
X0155017Y0020693D01*
X0155087Y0020658D01*
X0155156Y0020619D01*
X0155223Y0020576D01*
X0155288Y0020530D01*
X0155350Y0020482D01*
X0155410Y0020430D01*
X0155467Y0020375D01*
X0155521Y0020317D01*
X0155572Y0020257D01*
X0155620Y0020194D01*
X0155665Y0020129D01*
X0155707Y0020061D01*
X0155745Y0019992D01*
X0155779Y0019921D01*
X0155810Y0019848D01*
X0155838Y0019773D01*
X0155861Y0019698D01*
X0155881Y0019621D01*
X0155897Y0019544D01*
X0155909Y0019465D01*
X0155917Y0019387D01*
X0155921Y0019308D01*
X0155921Y0019228D01*
X0155917Y0019149D01*
X0155909Y0019071D01*
X0155897Y0018992D01*
X0155881Y0018915D01*
X0155861Y0018838D01*
X0155838Y0018763D01*
X0155810Y0018688D01*
X0155779Y0018615D01*
X0155745Y0018544D01*
X0155707Y0018475D01*
X0155665Y0018407D01*
X0155620Y0018342D01*
X0155572Y0018279D01*
X0155521Y0018219D01*
X0155467Y0018161D01*
X0155410Y0018106D01*
X0155350Y0018054D01*
X0155288Y0018006D01*
X0155223Y0017960D01*
X0155156Y0017917D01*
X0155087Y0017878D01*
X0155017Y0017843D01*
X0154944Y0017811D01*
X0154870Y0017783D01*
X0154795Y0017758D01*
X0154718Y0017738D01*
X0154641Y0017721D01*
X0154563Y0017708D01*
X0154484Y0017699D01*
X0154405Y0017694D01*
X0154326Y0017693D01*
X0154247Y0017696D01*
X0154168Y0017703D01*
X0154090Y0017714D01*
X0154012Y0017729D01*
X0153935Y0017748D01*
X0153859Y0017770D01*
X0153785Y0017796D01*
X0153711Y0017826D01*
X0153640Y0017860D01*
X0153570Y0017897D01*
X0153502Y0017938D01*
X0153436Y0017982D01*
X0153373Y0018030D01*
X0153312Y0018080D01*
X0153253Y0018134D01*
X0153198Y0018190D01*
X0153145Y0018249D01*
X0153095Y0018311D01*
X0153049Y0018375D01*
X0153006Y0018441D01*
X0152966Y0018509D01*
X0152929Y0018580D01*
X0152897Y0018652D01*
X0152867Y0018725D01*
X0152842Y0018800D01*
X0152820Y0018876D01*
X0152803Y0018953D01*
X0152789Y0019031D01*
X0152779Y0019110D01*
X0152773Y0019189D01*
X0152771Y0019268D01*
D12*
X0151157Y0038972D03*
X0157850Y0038972D03*
X0157850Y0051079D03*
X0151157Y0051079D03*
X0141945Y0050843D03*
X0135252Y0050843D03*
X0135409Y0039071D03*
X0142102Y0039071D03*
X0071236Y0038972D03*
X0064543Y0038972D03*
X0055488Y0039071D03*
X0048795Y0039071D03*
X0048638Y0050843D03*
X0055331Y0050843D03*
X0064543Y0051079D03*
X0071236Y0051079D03*
D13*
X0101657Y0052398D03*
X0101657Y0047398D03*
X0101657Y0042398D03*
X0101657Y0037398D03*
X0123257Y0037398D03*
X0123257Y0042398D03*
X0123257Y0047398D03*
X0123257Y0052398D03*
X0036643Y0052398D03*
X0036643Y0047398D03*
X0036643Y0042398D03*
X0036643Y0037398D03*
X0015043Y0037398D03*
X0015043Y0042398D03*
X0015043Y0047398D03*
X0015043Y0052398D03*
D14*
X0010843Y0065016D03*
X0010843Y0072890D03*
X0010843Y0080764D03*
X0010843Y0088638D03*
X0010843Y0096512D03*
X0010843Y0104386D03*
X0010843Y0112260D03*
X0010843Y0120134D03*
X0074622Y0120134D03*
X0074622Y0112260D03*
X0074622Y0104386D03*
X0074622Y0096512D03*
X0074622Y0088638D03*
X0074622Y0080764D03*
X0074622Y0072890D03*
X0074622Y0065016D03*
X0097457Y0065016D03*
X0097457Y0072890D03*
X0097457Y0080764D03*
X0097457Y0088638D03*
X0097457Y0096512D03*
X0097457Y0104386D03*
X0097457Y0112260D03*
X0097457Y0120134D03*
X0161236Y0120134D03*
X0161236Y0112260D03*
X0161236Y0104386D03*
X0161236Y0096512D03*
X0161236Y0088638D03*
X0161236Y0080764D03*
X0161236Y0072890D03*
X0161236Y0065016D03*
M02*
