G75*
%MOIN*%
%OFA0B0*%
%FSLAX25Y25*%
%IPPOS*%
%LPD*%
%AMOC8*
5,1,8,0,0,1.08239X$1,22.5*
%
%ADD10C,0.00394*%
%ADD11C,0.05150*%
%ADD12C,0.00000*%
%ADD13R,0.03937X0.04331*%
%ADD14R,0.06000X0.02400*%
%ADD15R,0.07874X0.04724*%
%ADD16C,0.01000*%
%ADD17C,0.03600*%
%ADD18C,0.02400*%
%ADD19C,0.01600*%
D10*
X0001394Y0001197D02*
X0001197Y0129031D01*
X0083559Y0129031D01*
X0083756Y0072063D01*
X0083755Y0072063D02*
X0083757Y0071976D01*
X0083763Y0071889D01*
X0083772Y0071802D01*
X0083786Y0071716D01*
X0083803Y0071631D01*
X0083824Y0071546D01*
X0083849Y0071463D01*
X0083877Y0071380D01*
X0083909Y0071299D01*
X0083945Y0071220D01*
X0083984Y0071142D01*
X0084026Y0071066D01*
X0084072Y0070992D01*
X0084121Y0070920D01*
X0084173Y0070850D01*
X0084228Y0070783D01*
X0084286Y0070718D01*
X0084347Y0070655D01*
X0084411Y0070596D01*
X0084477Y0070539D01*
X0084546Y0070486D01*
X0084617Y0070435D01*
X0084690Y0070388D01*
X0084765Y0070343D01*
X0084842Y0070303D01*
X0084920Y0070265D01*
X0085001Y0070232D01*
X0085082Y0070201D01*
X0085165Y0070175D01*
X0085250Y0070152D01*
X0085335Y0070133D01*
X0085420Y0070118D01*
X0085507Y0070106D01*
X0085593Y0070098D01*
X0085680Y0070094D01*
X0085768Y0070094D01*
X0085855Y0070098D01*
X0085941Y0070106D01*
X0086028Y0070118D01*
X0086113Y0070133D01*
X0086198Y0070152D01*
X0086283Y0070175D01*
X0086366Y0070201D01*
X0086447Y0070232D01*
X0086528Y0070265D01*
X0086606Y0070303D01*
X0086683Y0070343D01*
X0086758Y0070388D01*
X0086831Y0070435D01*
X0086902Y0070486D01*
X0086971Y0070539D01*
X0087037Y0070596D01*
X0087101Y0070655D01*
X0087162Y0070718D01*
X0087220Y0070783D01*
X0087275Y0070850D01*
X0087327Y0070920D01*
X0087376Y0070992D01*
X0087422Y0071066D01*
X0087464Y0071142D01*
X0087503Y0071220D01*
X0087539Y0071299D01*
X0087571Y0071380D01*
X0087599Y0071463D01*
X0087624Y0071546D01*
X0087645Y0071631D01*
X0087662Y0071716D01*
X0087676Y0071802D01*
X0087685Y0071889D01*
X0087691Y0071976D01*
X0087693Y0072063D01*
X0087693Y0128874D01*
X0170370Y0128874D01*
X0170370Y0001197D01*
X0087693Y0001197D01*
X0087693Y0056315D01*
X0087691Y0056402D01*
X0087685Y0056489D01*
X0087676Y0056576D01*
X0087662Y0056662D01*
X0087645Y0056747D01*
X0087624Y0056832D01*
X0087599Y0056915D01*
X0087571Y0056998D01*
X0087539Y0057079D01*
X0087503Y0057158D01*
X0087464Y0057236D01*
X0087422Y0057312D01*
X0087376Y0057386D01*
X0087327Y0057458D01*
X0087275Y0057528D01*
X0087220Y0057595D01*
X0087162Y0057660D01*
X0087101Y0057723D01*
X0087037Y0057782D01*
X0086971Y0057839D01*
X0086902Y0057892D01*
X0086831Y0057943D01*
X0086758Y0057990D01*
X0086683Y0058035D01*
X0086606Y0058075D01*
X0086528Y0058113D01*
X0086447Y0058146D01*
X0086366Y0058177D01*
X0086283Y0058203D01*
X0086198Y0058226D01*
X0086113Y0058245D01*
X0086028Y0058260D01*
X0085941Y0058272D01*
X0085855Y0058280D01*
X0085768Y0058284D01*
X0085680Y0058284D01*
X0085593Y0058280D01*
X0085507Y0058272D01*
X0085420Y0058260D01*
X0085335Y0058245D01*
X0085250Y0058226D01*
X0085165Y0058203D01*
X0085082Y0058177D01*
X0085001Y0058146D01*
X0084920Y0058113D01*
X0084842Y0058075D01*
X0084765Y0058035D01*
X0084690Y0057990D01*
X0084617Y0057943D01*
X0084546Y0057892D01*
X0084477Y0057839D01*
X0084411Y0057782D01*
X0084347Y0057723D01*
X0084286Y0057660D01*
X0084228Y0057595D01*
X0084173Y0057528D01*
X0084121Y0057458D01*
X0084072Y0057386D01*
X0084026Y0057312D01*
X0083984Y0057236D01*
X0083945Y0057158D01*
X0083909Y0057079D01*
X0083877Y0056998D01*
X0083849Y0056915D01*
X0083824Y0056832D01*
X0083803Y0056747D01*
X0083786Y0056662D01*
X0083772Y0056576D01*
X0083763Y0056489D01*
X0083757Y0056402D01*
X0083755Y0056315D01*
X0083756Y0056315D02*
X0083756Y0001197D01*
X0001394Y0001197D01*
X0005331Y0005134D02*
X0005331Y0124937D01*
X0080134Y0124937D01*
X0080134Y0005134D01*
X0005331Y0005134D01*
X0006194Y0005134D02*
X0006194Y0061673D01*
X0006410Y0061457D02*
X0009928Y0061457D01*
X0016590Y0054794D01*
X0011547Y0054794D01*
X0010846Y0054093D01*
X0010846Y0050702D01*
X0011547Y0050001D01*
X0013046Y0050001D01*
X0013046Y0049794D01*
X0011547Y0049794D01*
X0010846Y0049093D01*
X0010846Y0045702D01*
X0011547Y0045001D01*
X0013046Y0045001D01*
X0013046Y0044794D01*
X0011547Y0044794D01*
X0010846Y0044093D01*
X0010846Y0040702D01*
X0011547Y0040001D01*
X0013046Y0040001D01*
X0013046Y0039794D01*
X0011547Y0039794D01*
X0010846Y0039093D01*
X0010846Y0035702D01*
X0011547Y0035001D01*
X0013367Y0035001D01*
X0013367Y0028712D01*
X0013732Y0027831D01*
X0014406Y0027157D01*
X0018803Y0022760D01*
X0018128Y0023039D01*
X0016628Y0023039D01*
X0015241Y0022465D01*
X0014180Y0021404D01*
X0013606Y0020018D01*
X0013606Y0018517D01*
X0014180Y0017131D01*
X0015241Y0016070D01*
X0016628Y0015496D01*
X0018128Y0015496D01*
X0018174Y0015515D01*
X0025543Y0008146D01*
X0026217Y0007472D01*
X0027098Y0007107D01*
X0058445Y0007107D01*
X0059326Y0007472D01*
X0067350Y0015496D01*
X0068483Y0015496D01*
X0069869Y0016070D01*
X0070930Y0017131D01*
X0071504Y0018517D01*
X0071504Y0019650D01*
X0072362Y0020508D01*
X0072889Y0020508D01*
X0073032Y0020364D01*
X0074134Y0019908D01*
X0075326Y0019908D01*
X0076427Y0020364D01*
X0077271Y0021207D01*
X0077727Y0022309D01*
X0077727Y0023501D01*
X0077271Y0024602D01*
X0076427Y0025445D01*
X0075326Y0025902D01*
X0074134Y0025902D01*
X0073032Y0025445D01*
X0072889Y0025302D01*
X0070893Y0025302D01*
X0070012Y0024937D01*
X0069337Y0024262D01*
X0068114Y0023039D01*
X0066982Y0023039D01*
X0065596Y0022465D01*
X0064535Y0021404D01*
X0063961Y0020018D01*
X0063961Y0018886D01*
X0063039Y0017964D01*
X0063039Y0033245D01*
X0067445Y0033245D01*
X0069811Y0035610D01*
X0073700Y0035610D01*
X0074402Y0036311D01*
X0074402Y0041634D01*
X0073700Y0042335D01*
X0068772Y0042335D01*
X0068071Y0041634D01*
X0068071Y0038670D01*
X0067709Y0038308D01*
X0067709Y0041634D01*
X0067008Y0042335D01*
X0065739Y0042335D01*
X0065739Y0045545D01*
X0063567Y0047717D01*
X0067008Y0047717D01*
X0067709Y0048418D01*
X0067709Y0053740D01*
X0067008Y0054441D01*
X0065739Y0054441D01*
X0065739Y0063207D01*
X0065945Y0063001D01*
X0067046Y0062545D01*
X0068239Y0062545D01*
X0069340Y0063001D01*
X0069488Y0063149D01*
X0069488Y0062158D01*
X0069546Y0062100D01*
X0069546Y0054441D01*
X0068772Y0054441D01*
X0068071Y0053740D01*
X0068071Y0048418D01*
X0068772Y0047717D01*
X0073700Y0047717D01*
X0074402Y0048418D01*
X0074402Y0053740D01*
X0073700Y0054441D01*
X0072939Y0054441D01*
X0072939Y0061457D01*
X0079055Y0061457D01*
X0079756Y0062158D01*
X0079756Y0067874D01*
X0079055Y0068575D01*
X0070189Y0068575D01*
X0069518Y0067904D01*
X0069340Y0068082D01*
X0068239Y0068539D01*
X0067639Y0068539D01*
X0069488Y0070388D01*
X0069488Y0070032D01*
X0070189Y0069331D01*
X0079055Y0069331D01*
X0079756Y0070032D01*
X0079756Y0075748D01*
X0079055Y0076449D01*
X0071949Y0076449D01*
X0072705Y0077205D01*
X0079055Y0077205D01*
X0079756Y0077906D01*
X0079756Y0083622D01*
X0079055Y0084323D01*
X0070189Y0084323D01*
X0069488Y0083622D01*
X0069488Y0078787D01*
X0058746Y0068045D01*
X0058746Y0059738D01*
X0015976Y0102508D01*
X0015976Y0107244D01*
X0015275Y0107945D01*
X0006410Y0107945D01*
X0005709Y0107244D01*
X0005709Y0101528D01*
X0006410Y0100827D01*
X0012858Y0100827D01*
X0013614Y0100071D01*
X0006410Y0100071D01*
X0005709Y0099370D01*
X0005709Y0093654D01*
X0006410Y0092953D01*
X0015275Y0092953D01*
X0015976Y0093654D01*
X0015976Y0097708D01*
X0054146Y0059539D01*
X0053546Y0059539D01*
X0052445Y0059082D01*
X0051602Y0058239D01*
X0051146Y0057138D01*
X0051146Y0055946D01*
X0051602Y0054844D01*
X0052445Y0054001D01*
X0052599Y0053937D01*
X0052165Y0053504D01*
X0052165Y0048181D01*
X0052866Y0047480D01*
X0055281Y0047480D01*
X0055146Y0047345D01*
X0050234Y0042433D01*
X0046331Y0042433D01*
X0045630Y0041732D01*
X0045630Y0036410D01*
X0046331Y0035709D01*
X0051260Y0035709D01*
X0051961Y0036410D01*
X0051961Y0039360D01*
X0052323Y0039722D01*
X0052323Y0036410D01*
X0053024Y0035709D01*
X0057952Y0035709D01*
X0058514Y0036270D01*
X0059646Y0035139D01*
X0059646Y0032139D01*
X0057583Y0032139D01*
X0056740Y0032982D01*
X0055639Y0033439D01*
X0054446Y0033439D01*
X0053345Y0032982D01*
X0052502Y0032139D01*
X0052046Y0031038D01*
X0052046Y0029846D01*
X0052502Y0028744D01*
X0053345Y0027901D01*
X0054446Y0027445D01*
X0055639Y0027445D01*
X0056740Y0027901D01*
X0057583Y0028744D01*
X0057583Y0028745D01*
X0059646Y0028745D01*
X0059646Y0018545D01*
X0055240Y0014139D01*
X0052145Y0014139D01*
X0049268Y0017016D01*
X0049618Y0016871D01*
X0051016Y0016871D01*
X0051816Y0016070D01*
X0053203Y0015496D01*
X0054703Y0015496D01*
X0056089Y0016070D01*
X0057150Y0017131D01*
X0057724Y0018517D01*
X0057724Y0020018D01*
X0057150Y0021404D01*
X0056089Y0022465D01*
X0054703Y0023039D01*
X0053203Y0023039D01*
X0051816Y0022465D01*
X0051051Y0021700D01*
X0039027Y0033725D01*
X0039027Y0035001D01*
X0040138Y0035001D01*
X0040839Y0035702D01*
X0040839Y0039093D01*
X0040138Y0039794D01*
X0039439Y0039794D01*
X0039439Y0040001D01*
X0040138Y0040001D01*
X0040839Y0040702D01*
X0040839Y0044093D01*
X0040138Y0044794D01*
X0039439Y0044794D01*
X0039439Y0045001D01*
X0040138Y0045001D01*
X0040839Y0045702D01*
X0040839Y0049093D01*
X0040488Y0049445D01*
X0045472Y0049445D01*
X0045472Y0048181D01*
X0046174Y0047480D01*
X0051102Y0047480D01*
X0051803Y0048181D01*
X0051803Y0053504D01*
X0051102Y0054205D01*
X0046174Y0054205D01*
X0045472Y0053504D01*
X0045472Y0052839D01*
X0040839Y0052839D01*
X0040839Y0054093D01*
X0040138Y0054794D01*
X0036689Y0054794D01*
X0017045Y0074439D01*
X0015976Y0074439D01*
X0015976Y0075748D01*
X0015275Y0076449D01*
X0006410Y0076449D01*
X0005709Y0075748D01*
X0005709Y0070032D01*
X0006410Y0069331D01*
X0015275Y0069331D01*
X0015976Y0070032D01*
X0015976Y0070708D01*
X0032518Y0054166D01*
X0032446Y0054093D01*
X0032446Y0052828D01*
X0021139Y0064135D01*
X0021139Y0064338D01*
X0020683Y0065439D01*
X0019840Y0066282D01*
X0018739Y0066739D01*
X0017546Y0066739D01*
X0016445Y0066282D01*
X0015976Y0065814D01*
X0015976Y0067874D01*
X0015275Y0068575D01*
X0006410Y0068575D01*
X0005709Y0067874D01*
X0005709Y0062158D01*
X0006410Y0061457D01*
X0007394Y0061457D02*
X0007394Y0005134D01*
X0008594Y0005134D02*
X0008594Y0061457D01*
X0009794Y0061457D02*
X0009794Y0005134D01*
X0010994Y0005134D02*
X0010994Y0035554D01*
X0010846Y0035997D02*
X0005331Y0035997D01*
X0005331Y0037197D02*
X0010846Y0037197D01*
X0010846Y0038397D02*
X0005331Y0038397D01*
X0005331Y0039597D02*
X0011349Y0039597D01*
X0010994Y0039241D02*
X0010994Y0040554D01*
X0010846Y0040797D02*
X0005331Y0040797D01*
X0005331Y0041997D02*
X0010846Y0041997D01*
X0010846Y0043197D02*
X0005331Y0043197D01*
X0005331Y0044397D02*
X0011149Y0044397D01*
X0010994Y0044241D02*
X0010994Y0045554D01*
X0010951Y0045597D02*
X0005331Y0045597D01*
X0005331Y0046797D02*
X0010846Y0046797D01*
X0010846Y0047997D02*
X0005331Y0047997D01*
X0005331Y0049197D02*
X0010949Y0049197D01*
X0010994Y0049241D02*
X0010994Y0050554D01*
X0011151Y0050397D02*
X0005331Y0050397D01*
X0005331Y0051597D02*
X0010846Y0051597D01*
X0010846Y0052797D02*
X0005331Y0052797D01*
X0005331Y0053997D02*
X0010846Y0053997D01*
X0010994Y0054241D02*
X0010994Y0060391D01*
X0011388Y0059997D02*
X0005331Y0059997D01*
X0005331Y0061197D02*
X0010188Y0061197D01*
X0012194Y0059191D02*
X0012194Y0054794D01*
X0013394Y0054794D02*
X0013394Y0057991D01*
X0013788Y0057597D02*
X0005331Y0057597D01*
X0005331Y0058797D02*
X0012588Y0058797D01*
X0014594Y0056791D02*
X0014594Y0054794D01*
X0015794Y0054794D02*
X0015794Y0055591D01*
X0016188Y0055197D02*
X0005331Y0055197D01*
X0005331Y0056397D02*
X0014988Y0056397D01*
X0017387Y0058797D02*
X0019698Y0058797D01*
X0019394Y0059101D02*
X0019394Y0056790D01*
X0019787Y0056397D02*
X0022098Y0056397D01*
X0021794Y0056701D02*
X0021794Y0054390D01*
X0022187Y0053997D02*
X0024498Y0053997D01*
X0024194Y0054301D02*
X0024194Y0051990D01*
X0024587Y0051597D02*
X0026898Y0051597D01*
X0026594Y0051901D02*
X0026594Y0049590D01*
X0026987Y0049197D02*
X0029298Y0049197D01*
X0028994Y0049501D02*
X0028994Y0047190D01*
X0029387Y0046797D02*
X0031698Y0046797D01*
X0031394Y0047101D02*
X0031394Y0044790D01*
X0031787Y0044397D02*
X0032749Y0044397D01*
X0032594Y0044241D02*
X0032594Y0045554D01*
X0032551Y0045597D02*
X0030587Y0045597D01*
X0030194Y0045990D02*
X0030194Y0048301D01*
X0030498Y0047997D02*
X0028187Y0047997D01*
X0027794Y0048390D02*
X0027794Y0050701D01*
X0028098Y0050397D02*
X0025787Y0050397D01*
X0025394Y0050790D02*
X0025394Y0053101D01*
X0025698Y0052797D02*
X0023387Y0052797D01*
X0022994Y0053190D02*
X0022994Y0055501D01*
X0023298Y0055197D02*
X0020987Y0055197D01*
X0020594Y0055590D02*
X0020594Y0057901D01*
X0020898Y0057597D02*
X0018587Y0057597D01*
X0018194Y0057990D02*
X0018194Y0060301D01*
X0018498Y0059997D02*
X0016187Y0059997D01*
X0015794Y0060390D02*
X0015794Y0061852D01*
X0015732Y0061914D02*
X0016445Y0061201D01*
X0017546Y0060745D01*
X0017750Y0060745D01*
X0032446Y0046049D01*
X0032446Y0045702D01*
X0033147Y0045001D01*
X0034646Y0045001D01*
X0034646Y0044794D01*
X0033147Y0044794D01*
X0032446Y0044093D01*
X0032446Y0043738D01*
X0032345Y0043839D01*
X0014727Y0061457D01*
X0015275Y0061457D01*
X0015732Y0061914D01*
X0016455Y0061197D02*
X0014987Y0061197D01*
X0016994Y0060974D02*
X0016994Y0059190D01*
X0021677Y0063597D02*
X0023088Y0063597D01*
X0022994Y0063691D02*
X0022994Y0062280D01*
X0022877Y0062397D02*
X0024288Y0062397D01*
X0024194Y0062491D02*
X0024194Y0061080D01*
X0024077Y0061197D02*
X0025488Y0061197D01*
X0025394Y0061291D02*
X0025394Y0059880D01*
X0025277Y0059997D02*
X0026688Y0059997D01*
X0026594Y0060091D02*
X0026594Y0058680D01*
X0026477Y0058797D02*
X0027888Y0058797D01*
X0027794Y0058891D02*
X0027794Y0057480D01*
X0027677Y0057597D02*
X0029088Y0057597D01*
X0028994Y0057691D02*
X0028994Y0056280D01*
X0028877Y0056397D02*
X0030288Y0056397D01*
X0030194Y0056491D02*
X0030194Y0055080D01*
X0030077Y0055197D02*
X0031488Y0055197D01*
X0031394Y0055291D02*
X0031394Y0053880D01*
X0031277Y0053997D02*
X0032446Y0053997D01*
X0034994Y0056490D02*
X0034994Y0078691D01*
X0034488Y0079197D02*
X0015976Y0079197D01*
X0015976Y0080397D02*
X0033288Y0080397D01*
X0033794Y0079891D02*
X0033794Y0057690D01*
X0033887Y0057597D02*
X0051336Y0057597D01*
X0051794Y0058431D02*
X0051794Y0061891D01*
X0051288Y0062397D02*
X0029087Y0062397D01*
X0028994Y0062490D02*
X0028994Y0084691D01*
X0028488Y0085197D02*
X0015393Y0085197D01*
X0015275Y0085079D02*
X0015976Y0085780D01*
X0015976Y0091496D01*
X0015275Y0092197D01*
X0006410Y0092197D01*
X0005709Y0091496D01*
X0005709Y0085780D01*
X0006410Y0085079D01*
X0015275Y0085079D01*
X0014594Y0085079D02*
X0014594Y0084323D01*
X0015275Y0084323D02*
X0006410Y0084323D01*
X0005709Y0083622D01*
X0005709Y0077906D01*
X0006410Y0077205D01*
X0015275Y0077205D01*
X0015976Y0077906D01*
X0015976Y0083622D01*
X0015275Y0084323D01*
X0015601Y0083997D02*
X0029688Y0083997D01*
X0030194Y0083491D02*
X0030194Y0061290D01*
X0030287Y0061197D02*
X0052488Y0061197D01*
X0052994Y0060691D02*
X0052994Y0059310D01*
X0053688Y0059997D02*
X0031487Y0059997D01*
X0031394Y0060090D02*
X0031394Y0082291D01*
X0030888Y0082797D02*
X0015976Y0082797D01*
X0015794Y0083804D02*
X0015794Y0085597D01*
X0015976Y0086397D02*
X0027288Y0086397D01*
X0027794Y0085891D02*
X0027794Y0063690D01*
X0027887Y0063597D02*
X0050088Y0063597D01*
X0050594Y0063091D02*
X0050594Y0054205D01*
X0051310Y0053997D02*
X0052455Y0053997D01*
X0051794Y0053513D02*
X0051794Y0054652D01*
X0051456Y0055197D02*
X0036287Y0055197D01*
X0036194Y0055290D02*
X0036194Y0077491D01*
X0035688Y0077997D02*
X0015976Y0077997D01*
X0015794Y0077723D02*
X0015794Y0075930D01*
X0015976Y0075597D02*
X0038088Y0075597D01*
X0038594Y0075091D02*
X0038594Y0054794D01*
X0039794Y0054794D02*
X0039794Y0073891D01*
X0039288Y0074397D02*
X0017087Y0074397D01*
X0016994Y0074439D02*
X0016994Y0096691D01*
X0016488Y0097197D02*
X0015976Y0097197D01*
X0015976Y0095997D02*
X0017688Y0095997D01*
X0018194Y0095491D02*
X0018194Y0073290D01*
X0018287Y0073197D02*
X0040488Y0073197D01*
X0040994Y0072691D02*
X0040994Y0052839D01*
X0040839Y0053997D02*
X0045966Y0053997D01*
X0045794Y0053825D02*
X0045794Y0067891D01*
X0045288Y0068397D02*
X0023087Y0068397D01*
X0022994Y0068490D02*
X0022994Y0090691D01*
X0022488Y0091197D02*
X0015976Y0091197D01*
X0015794Y0091678D02*
X0015794Y0093471D01*
X0015919Y0093597D02*
X0020088Y0093597D01*
X0020594Y0093091D02*
X0020594Y0070890D01*
X0020687Y0070797D02*
X0042888Y0070797D01*
X0043394Y0070291D02*
X0043394Y0052839D01*
X0044594Y0052839D02*
X0044594Y0069091D01*
X0044088Y0069597D02*
X0021887Y0069597D01*
X0021794Y0069690D02*
X0021794Y0091891D01*
X0021288Y0092397D02*
X0005331Y0092397D01*
X0006194Y0091981D02*
X0006194Y0093169D01*
X0005766Y0093597D02*
X0005331Y0093597D01*
X0005331Y0094797D02*
X0005709Y0094797D01*
X0005709Y0095997D02*
X0005331Y0095997D01*
X0005331Y0097197D02*
X0005709Y0097197D01*
X0005709Y0098397D02*
X0005331Y0098397D01*
X0005331Y0099597D02*
X0005936Y0099597D01*
X0006194Y0099855D02*
X0006194Y0101043D01*
X0005331Y0100797D02*
X0012888Y0100797D01*
X0012194Y0100827D02*
X0012194Y0100071D01*
X0013394Y0100071D02*
X0013394Y0100291D01*
X0010994Y0100071D02*
X0010994Y0100827D01*
X0009794Y0100827D02*
X0009794Y0100071D01*
X0008594Y0100071D02*
X0008594Y0100827D01*
X0007394Y0100827D02*
X0007394Y0100071D01*
X0005709Y0101997D02*
X0005331Y0101997D01*
X0005331Y0103197D02*
X0005709Y0103197D01*
X0005709Y0104397D02*
X0005331Y0104397D01*
X0005331Y0105597D02*
X0005709Y0105597D01*
X0005709Y0106797D02*
X0005331Y0106797D01*
X0005331Y0107997D02*
X0040567Y0107997D01*
X0040994Y0108424D02*
X0040994Y0117845D01*
X0042194Y0117845D02*
X0042194Y0109624D01*
X0041767Y0109197D02*
X0015771Y0109197D01*
X0015794Y0109219D02*
X0015794Y0107426D01*
X0015976Y0106797D02*
X0039367Y0106797D01*
X0039794Y0107224D02*
X0039794Y0117845D01*
X0038594Y0117845D02*
X0038594Y0106024D01*
X0038167Y0105597D02*
X0015976Y0105597D01*
X0015976Y0104397D02*
X0036967Y0104397D01*
X0037394Y0104824D02*
X0037394Y0117845D01*
X0036194Y0117845D02*
X0036194Y0103624D01*
X0035767Y0103197D02*
X0015976Y0103197D01*
X0016487Y0101997D02*
X0034567Y0101997D01*
X0034622Y0102052D02*
X0033452Y0100882D01*
X0033452Y0091276D01*
X0032987Y0090811D01*
X0032531Y0089709D01*
X0032531Y0088517D01*
X0032987Y0087416D01*
X0033830Y0086573D01*
X0034931Y0086117D01*
X0036124Y0086117D01*
X0037225Y0086573D01*
X0038068Y0087416D01*
X0038524Y0088517D01*
X0038524Y0089709D01*
X0038068Y0090811D01*
X0037446Y0091433D01*
X0037446Y0099228D01*
X0048563Y0110345D01*
X0069488Y0110345D01*
X0069488Y0109402D01*
X0070189Y0108701D01*
X0079055Y0108701D01*
X0079756Y0109402D01*
X0079756Y0115118D01*
X0079055Y0115819D01*
X0070189Y0115819D01*
X0069488Y0115118D01*
X0069488Y0114339D01*
X0046908Y0114339D01*
X0034622Y0102052D01*
X0034994Y0102424D02*
X0034994Y0117845D01*
X0034145Y0117845D02*
X0069488Y0117845D01*
X0069488Y0117276D01*
X0070189Y0116575D01*
X0079055Y0116575D01*
X0079756Y0117276D01*
X0079756Y0122992D01*
X0079055Y0123693D01*
X0070189Y0123693D01*
X0069488Y0122992D01*
X0069488Y0121239D01*
X0032740Y0121239D01*
X0028639Y0117138D01*
X0028639Y0117139D01*
X0027446Y0117139D01*
X0026345Y0116682D01*
X0025502Y0115839D01*
X0025046Y0114738D01*
X0025046Y0113546D01*
X0025502Y0112444D01*
X0026345Y0111601D01*
X0027446Y0111145D01*
X0028639Y0111145D01*
X0029740Y0111601D01*
X0030583Y0112444D01*
X0031039Y0113546D01*
X0031039Y0114738D01*
X0031039Y0114739D01*
X0034145Y0117845D01*
X0033897Y0117597D02*
X0069488Y0117597D01*
X0069794Y0116970D02*
X0069794Y0115423D01*
X0069567Y0115197D02*
X0031497Y0115197D01*
X0031394Y0115093D02*
X0031394Y0087090D01*
X0030887Y0087597D02*
X0032912Y0087597D01*
X0032594Y0088365D02*
X0032594Y0085890D01*
X0032087Y0086397D02*
X0034255Y0086397D01*
X0033794Y0086609D02*
X0033794Y0084690D01*
X0033287Y0085197D02*
X0070071Y0085197D01*
X0070189Y0085079D02*
X0079055Y0085079D01*
X0079756Y0085780D01*
X0079756Y0091496D01*
X0079055Y0092197D01*
X0070189Y0092197D01*
X0069488Y0091496D01*
X0069488Y0090639D01*
X0048545Y0090639D01*
X0047239Y0091945D01*
X0047239Y0091946D01*
X0047239Y0093138D01*
X0046783Y0094239D01*
X0045940Y0095082D01*
X0044839Y0095539D01*
X0043646Y0095539D01*
X0042545Y0095082D01*
X0041702Y0094239D01*
X0041246Y0093138D01*
X0041246Y0091946D01*
X0041702Y0090844D01*
X0042545Y0090001D01*
X0043646Y0089545D01*
X0044839Y0089545D01*
X0044839Y0089545D01*
X0047140Y0087245D01*
X0069488Y0087245D01*
X0069488Y0085780D01*
X0070189Y0085079D01*
X0069794Y0085474D02*
X0069794Y0083927D01*
X0069863Y0083997D02*
X0034487Y0083997D01*
X0034994Y0083490D02*
X0034994Y0086117D01*
X0036194Y0086146D02*
X0036194Y0082290D01*
X0035687Y0082797D02*
X0069488Y0082797D01*
X0069488Y0081597D02*
X0036887Y0081597D01*
X0037394Y0081090D02*
X0037394Y0086741D01*
X0036800Y0086397D02*
X0069488Y0086397D01*
X0068594Y0087245D02*
X0068594Y0077893D01*
X0068698Y0077997D02*
X0040487Y0077997D01*
X0040994Y0077490D02*
X0040994Y0102776D01*
X0041415Y0103197D02*
X0069488Y0103197D01*
X0069488Y0104397D02*
X0042615Y0104397D01*
X0042194Y0103976D02*
X0042194Y0094731D01*
X0042259Y0094797D02*
X0037446Y0094797D01*
X0037446Y0095997D02*
X0069488Y0095997D01*
X0069488Y0097197D02*
X0037446Y0097197D01*
X0037446Y0098397D02*
X0069488Y0098397D01*
X0069488Y0099370D02*
X0069488Y0093654D01*
X0070189Y0092953D01*
X0079055Y0092953D01*
X0079756Y0093654D01*
X0079756Y0099370D01*
X0079055Y0100071D01*
X0070189Y0100071D01*
X0069488Y0099370D01*
X0069715Y0099597D02*
X0037815Y0099597D01*
X0038594Y0100376D02*
X0038594Y0079890D01*
X0038087Y0080397D02*
X0069488Y0080397D01*
X0069488Y0079197D02*
X0039287Y0079197D01*
X0039794Y0078690D02*
X0039794Y0101576D01*
X0040215Y0101997D02*
X0069488Y0101997D01*
X0069488Y0101528D02*
X0070189Y0100827D01*
X0079055Y0100827D01*
X0079756Y0101528D01*
X0079756Y0107244D01*
X0079055Y0107945D01*
X0070189Y0107945D01*
X0069488Y0107244D01*
X0069488Y0101528D01*
X0069794Y0101222D02*
X0069794Y0099675D01*
X0070994Y0100071D02*
X0070994Y0100827D01*
X0072194Y0100827D02*
X0072194Y0100071D01*
X0073394Y0100071D02*
X0073394Y0100827D01*
X0074594Y0100827D02*
X0074594Y0100071D01*
X0075794Y0100071D02*
X0075794Y0100827D01*
X0076994Y0100827D02*
X0076994Y0100071D01*
X0078194Y0100071D02*
X0078194Y0100827D01*
X0079394Y0101166D02*
X0079394Y0099732D01*
X0079529Y0099597D02*
X0080134Y0099597D01*
X0080134Y0100797D02*
X0039015Y0100797D01*
X0033794Y0101224D02*
X0033794Y0117493D01*
X0032697Y0116397D02*
X0080134Y0116397D01*
X0079394Y0116914D02*
X0079394Y0115480D01*
X0079677Y0115197D02*
X0080134Y0115197D01*
X0080134Y0113997D02*
X0079756Y0113997D01*
X0079756Y0112797D02*
X0080134Y0112797D01*
X0080134Y0111597D02*
X0079756Y0111597D01*
X0079756Y0110397D02*
X0080134Y0110397D01*
X0080134Y0109197D02*
X0079551Y0109197D01*
X0079394Y0109040D02*
X0079394Y0107606D01*
X0080134Y0107997D02*
X0046215Y0107997D01*
X0045794Y0107576D02*
X0045794Y0095143D01*
X0046226Y0094797D02*
X0069488Y0094797D01*
X0069545Y0093597D02*
X0047049Y0093597D01*
X0046994Y0093731D02*
X0046994Y0108776D01*
X0047415Y0109197D02*
X0069693Y0109197D01*
X0069794Y0109096D02*
X0069794Y0107549D01*
X0069488Y0106797D02*
X0045015Y0106797D01*
X0044594Y0106376D02*
X0044594Y0095539D01*
X0043394Y0095434D02*
X0043394Y0105176D01*
X0043815Y0105597D02*
X0069488Y0105597D01*
X0070994Y0107945D02*
X0070994Y0108701D01*
X0072194Y0108701D02*
X0072194Y0107945D01*
X0073394Y0107945D02*
X0073394Y0108701D01*
X0074594Y0108701D02*
X0074594Y0107945D01*
X0075794Y0107945D02*
X0075794Y0108701D01*
X0076994Y0108701D02*
X0076994Y0107945D01*
X0078194Y0107945D02*
X0078194Y0108701D01*
X0079756Y0106797D02*
X0080134Y0106797D01*
X0080134Y0105597D02*
X0079756Y0105597D01*
X0079756Y0104397D02*
X0080134Y0104397D01*
X0080134Y0103197D02*
X0079756Y0103197D01*
X0079756Y0101997D02*
X0080134Y0101997D01*
X0080134Y0098397D02*
X0079756Y0098397D01*
X0079756Y0097197D02*
X0080134Y0097197D01*
X0080134Y0095997D02*
X0079756Y0095997D01*
X0079756Y0094797D02*
X0080134Y0094797D01*
X0080134Y0093597D02*
X0079699Y0093597D01*
X0079394Y0093292D02*
X0079394Y0091858D01*
X0079756Y0091197D02*
X0080134Y0091197D01*
X0080134Y0092397D02*
X0047239Y0092397D01*
X0047987Y0091197D02*
X0069488Y0091197D01*
X0069794Y0091801D02*
X0069794Y0093348D01*
X0070994Y0092953D02*
X0070994Y0092197D01*
X0072194Y0092197D02*
X0072194Y0092953D01*
X0073394Y0092953D02*
X0073394Y0092197D01*
X0074594Y0092197D02*
X0074594Y0092953D01*
X0075794Y0092953D02*
X0075794Y0092197D01*
X0076994Y0092197D02*
X0076994Y0092953D01*
X0078194Y0092953D02*
X0078194Y0092197D01*
X0079756Y0089997D02*
X0080134Y0089997D01*
X0080134Y0088797D02*
X0079756Y0088797D01*
X0079756Y0087597D02*
X0080134Y0087597D01*
X0080134Y0086397D02*
X0079756Y0086397D01*
X0079394Y0085418D02*
X0079394Y0083984D01*
X0079381Y0083997D02*
X0080134Y0083997D01*
X0080134Y0085197D02*
X0079173Y0085197D01*
X0078194Y0085079D02*
X0078194Y0084323D01*
X0076994Y0084323D02*
X0076994Y0085079D01*
X0075794Y0085079D02*
X0075794Y0084323D01*
X0074594Y0084323D02*
X0074594Y0085079D01*
X0073394Y0085079D02*
X0073394Y0084323D01*
X0072194Y0084323D02*
X0072194Y0085079D01*
X0070994Y0085079D02*
X0070994Y0084323D01*
X0067394Y0087245D02*
X0067394Y0076693D01*
X0067498Y0076797D02*
X0041687Y0076797D01*
X0042194Y0076290D02*
X0042194Y0090352D01*
X0042555Y0089997D02*
X0038405Y0089997D01*
X0038524Y0088797D02*
X0045588Y0088797D01*
X0045794Y0088591D02*
X0045794Y0072690D01*
X0045287Y0073197D02*
X0063898Y0073197D01*
X0063794Y0073093D02*
X0063794Y0087245D01*
X0064994Y0087245D02*
X0064994Y0074293D01*
X0065098Y0074397D02*
X0044087Y0074397D01*
X0044594Y0073890D02*
X0044594Y0089545D01*
X0043394Y0089650D02*
X0043394Y0075090D01*
X0042887Y0075597D02*
X0066298Y0075597D01*
X0066194Y0075493D02*
X0066194Y0087245D01*
X0062594Y0087245D02*
X0062594Y0071893D01*
X0062698Y0071997D02*
X0046487Y0071997D01*
X0046994Y0071490D02*
X0046994Y0087391D01*
X0046788Y0087597D02*
X0038143Y0087597D01*
X0037682Y0091197D02*
X0041556Y0091197D01*
X0041246Y0092397D02*
X0037446Y0092397D01*
X0037446Y0093597D02*
X0041436Y0093597D01*
X0048194Y0090990D02*
X0048194Y0109976D01*
X0049394Y0110345D02*
X0049394Y0090639D01*
X0050594Y0090639D02*
X0050594Y0110345D01*
X0051794Y0110345D02*
X0051794Y0090639D01*
X0052994Y0090639D02*
X0052994Y0110345D01*
X0054194Y0110345D02*
X0054194Y0090639D01*
X0055394Y0090639D02*
X0055394Y0110345D01*
X0056594Y0110345D02*
X0056594Y0090639D01*
X0057794Y0090639D02*
X0057794Y0110345D01*
X0058994Y0110345D02*
X0058994Y0090639D01*
X0060194Y0090639D02*
X0060194Y0110345D01*
X0061394Y0110345D02*
X0061394Y0090639D01*
X0062594Y0090639D02*
X0062594Y0110345D01*
X0063794Y0110345D02*
X0063794Y0090639D01*
X0064994Y0090639D02*
X0064994Y0110345D01*
X0066194Y0110345D02*
X0066194Y0090639D01*
X0067394Y0090639D02*
X0067394Y0110345D01*
X0068594Y0110345D02*
X0068594Y0090639D01*
X0061394Y0087245D02*
X0061394Y0070693D01*
X0061498Y0070797D02*
X0047687Y0070797D01*
X0048194Y0070290D02*
X0048194Y0087245D01*
X0049394Y0087245D02*
X0049394Y0069090D01*
X0048887Y0069597D02*
X0060298Y0069597D01*
X0060194Y0069493D02*
X0060194Y0087245D01*
X0058994Y0087245D02*
X0058994Y0068293D01*
X0059098Y0068397D02*
X0050087Y0068397D01*
X0050594Y0067890D02*
X0050594Y0087245D01*
X0051794Y0087245D02*
X0051794Y0066690D01*
X0051287Y0067197D02*
X0058746Y0067197D01*
X0058746Y0065997D02*
X0052487Y0065997D01*
X0052994Y0065490D02*
X0052994Y0087245D01*
X0054194Y0087245D02*
X0054194Y0064290D01*
X0053687Y0064797D02*
X0058746Y0064797D01*
X0058746Y0063597D02*
X0054887Y0063597D01*
X0055394Y0063090D02*
X0055394Y0087245D01*
X0056594Y0087245D02*
X0056594Y0061890D01*
X0056087Y0062397D02*
X0058746Y0062397D01*
X0058746Y0061197D02*
X0057287Y0061197D01*
X0057794Y0060690D02*
X0057794Y0087245D01*
X0072194Y0076693D02*
X0072194Y0076449D01*
X0072297Y0076797D02*
X0080134Y0076797D01*
X0079394Y0076110D02*
X0079394Y0077544D01*
X0079756Y0077997D02*
X0080134Y0077997D01*
X0080134Y0079197D02*
X0079756Y0079197D01*
X0079756Y0080397D02*
X0080134Y0080397D01*
X0080134Y0081597D02*
X0079756Y0081597D01*
X0079756Y0082797D02*
X0080134Y0082797D01*
X0078194Y0077205D02*
X0078194Y0076449D01*
X0076994Y0076449D02*
X0076994Y0077205D01*
X0075794Y0077205D02*
X0075794Y0076449D01*
X0074594Y0076449D02*
X0074594Y0077205D01*
X0073394Y0077205D02*
X0073394Y0076449D01*
X0079756Y0075597D02*
X0080134Y0075597D01*
X0080134Y0074397D02*
X0079756Y0074397D01*
X0079756Y0073197D02*
X0080134Y0073197D01*
X0080134Y0071997D02*
X0079756Y0071997D01*
X0079756Y0070797D02*
X0080134Y0070797D01*
X0080134Y0069597D02*
X0079321Y0069597D01*
X0079394Y0069670D02*
X0079394Y0068236D01*
X0079233Y0068397D02*
X0080134Y0068397D01*
X0080134Y0067197D02*
X0079756Y0067197D01*
X0079756Y0065997D02*
X0080134Y0065997D01*
X0080134Y0064797D02*
X0079756Y0064797D01*
X0079756Y0063597D02*
X0080134Y0063597D01*
X0080134Y0062397D02*
X0079756Y0062397D01*
X0079394Y0061796D02*
X0079394Y0005134D01*
X0080134Y0005997D02*
X0005331Y0005997D01*
X0005331Y0007197D02*
X0026881Y0007197D01*
X0026594Y0007316D02*
X0026594Y0005134D01*
X0027794Y0005134D02*
X0027794Y0007107D01*
X0028994Y0007107D02*
X0028994Y0005134D01*
X0030194Y0005134D02*
X0030194Y0007107D01*
X0031394Y0007107D02*
X0031394Y0005134D01*
X0032594Y0005134D02*
X0032594Y0007107D01*
X0033794Y0007107D02*
X0033794Y0005134D01*
X0034994Y0005134D02*
X0034994Y0007107D01*
X0036194Y0007107D02*
X0036194Y0005134D01*
X0037394Y0005134D02*
X0037394Y0007107D01*
X0038594Y0007107D02*
X0038594Y0005134D01*
X0039794Y0005134D02*
X0039794Y0007107D01*
X0040994Y0007107D02*
X0040994Y0005134D01*
X0042194Y0005134D02*
X0042194Y0007107D01*
X0043394Y0007107D02*
X0043394Y0005134D01*
X0044594Y0005134D02*
X0044594Y0007107D01*
X0045794Y0007107D02*
X0045794Y0005134D01*
X0046994Y0005134D02*
X0046994Y0007107D01*
X0048194Y0007107D02*
X0048194Y0005134D01*
X0049394Y0005134D02*
X0049394Y0007107D01*
X0050594Y0007107D02*
X0050594Y0005134D01*
X0051794Y0005134D02*
X0051794Y0007107D01*
X0052994Y0007107D02*
X0052994Y0005134D01*
X0054194Y0005134D02*
X0054194Y0007107D01*
X0055394Y0007107D02*
X0055394Y0005134D01*
X0056594Y0005134D02*
X0056594Y0007107D01*
X0057794Y0007107D02*
X0057794Y0005134D01*
X0058994Y0005134D02*
X0058994Y0007334D01*
X0058662Y0007197D02*
X0080134Y0007197D01*
X0080134Y0008397D02*
X0060251Y0008397D01*
X0060194Y0008339D02*
X0060194Y0005134D01*
X0061394Y0005134D02*
X0061394Y0009539D01*
X0061451Y0009597D02*
X0080134Y0009597D01*
X0080134Y0010797D02*
X0062651Y0010797D01*
X0062594Y0010739D02*
X0062594Y0005134D01*
X0063794Y0005134D02*
X0063794Y0011939D01*
X0063851Y0011997D02*
X0080134Y0011997D01*
X0080134Y0013197D02*
X0065051Y0013197D01*
X0064994Y0013139D02*
X0064994Y0005134D01*
X0066194Y0005134D02*
X0066194Y0014339D01*
X0066251Y0014397D02*
X0080134Y0014397D01*
X0080134Y0015597D02*
X0068726Y0015597D01*
X0068594Y0015542D02*
X0068594Y0005134D01*
X0069794Y0005134D02*
X0069794Y0016039D01*
X0070595Y0016797D02*
X0080134Y0016797D01*
X0080134Y0017997D02*
X0071288Y0017997D01*
X0070994Y0017286D02*
X0070994Y0005134D01*
X0072194Y0005134D02*
X0072194Y0020339D01*
X0072251Y0020397D02*
X0073000Y0020397D01*
X0073394Y0020214D02*
X0073394Y0005134D01*
X0074594Y0005134D02*
X0074594Y0019908D01*
X0075794Y0020102D02*
X0075794Y0005134D01*
X0076994Y0005134D02*
X0076994Y0020930D01*
X0076460Y0020397D02*
X0080134Y0020397D01*
X0080134Y0021597D02*
X0077432Y0021597D01*
X0077727Y0022797D02*
X0080134Y0022797D01*
X0080134Y0023997D02*
X0077521Y0023997D01*
X0076994Y0024879D02*
X0076994Y0061457D01*
X0078194Y0061457D02*
X0078194Y0005134D01*
X0067394Y0005134D02*
X0067394Y0015496D01*
X0063794Y0018719D02*
X0063794Y0033245D01*
X0063039Y0032397D02*
X0080134Y0032397D01*
X0080134Y0033597D02*
X0067797Y0033597D01*
X0067394Y0033245D02*
X0067394Y0023039D01*
X0066397Y0022797D02*
X0063039Y0022797D01*
X0063039Y0023997D02*
X0069072Y0023997D01*
X0068594Y0023519D02*
X0068594Y0034393D01*
X0068997Y0034797D02*
X0080134Y0034797D01*
X0080134Y0035997D02*
X0074087Y0035997D01*
X0073394Y0035610D02*
X0073394Y0025595D01*
X0072194Y0025302D02*
X0072194Y0035610D01*
X0070994Y0035610D02*
X0070994Y0025302D01*
X0070640Y0025197D02*
X0063039Y0025197D01*
X0063039Y0026397D02*
X0080134Y0026397D01*
X0080134Y0027597D02*
X0063039Y0027597D01*
X0063039Y0028797D02*
X0080134Y0028797D01*
X0080134Y0029997D02*
X0063039Y0029997D01*
X0063039Y0031197D02*
X0080134Y0031197D01*
X0080134Y0037197D02*
X0074402Y0037197D01*
X0074402Y0038397D02*
X0080134Y0038397D01*
X0080134Y0039597D02*
X0074402Y0039597D01*
X0074402Y0040797D02*
X0080134Y0040797D01*
X0080134Y0041997D02*
X0074038Y0041997D01*
X0073394Y0042335D02*
X0073394Y0047717D01*
X0073981Y0047997D02*
X0080134Y0047997D01*
X0080134Y0049197D02*
X0074402Y0049197D01*
X0074402Y0050397D02*
X0080134Y0050397D01*
X0080134Y0051597D02*
X0074402Y0051597D01*
X0074402Y0052797D02*
X0080134Y0052797D01*
X0080134Y0053997D02*
X0074145Y0053997D01*
X0073394Y0054441D02*
X0073394Y0061457D01*
X0072939Y0061197D02*
X0080134Y0061197D01*
X0080134Y0059997D02*
X0072939Y0059997D01*
X0072939Y0058797D02*
X0080134Y0058797D01*
X0080134Y0057597D02*
X0072939Y0057597D01*
X0072939Y0056397D02*
X0080134Y0056397D01*
X0080134Y0055197D02*
X0072939Y0055197D01*
X0069546Y0055197D02*
X0065739Y0055197D01*
X0066194Y0054441D02*
X0066194Y0062898D01*
X0065739Y0062397D02*
X0069488Y0062397D01*
X0068594Y0062692D02*
X0068594Y0054263D01*
X0068328Y0053997D02*
X0067452Y0053997D01*
X0067394Y0054055D02*
X0067394Y0062545D01*
X0065739Y0061197D02*
X0069546Y0061197D01*
X0069546Y0059997D02*
X0065739Y0059997D01*
X0065739Y0058797D02*
X0069546Y0058797D01*
X0069546Y0057597D02*
X0065739Y0057597D01*
X0065739Y0056397D02*
X0069546Y0056397D01*
X0068071Y0052797D02*
X0067709Y0052797D01*
X0067709Y0051597D02*
X0068071Y0051597D01*
X0068071Y0050397D02*
X0067709Y0050397D01*
X0067709Y0049197D02*
X0068071Y0049197D01*
X0068492Y0047997D02*
X0067288Y0047997D01*
X0067394Y0048103D02*
X0067394Y0041948D01*
X0067345Y0041997D02*
X0068434Y0041997D01*
X0068594Y0042156D02*
X0068594Y0047895D01*
X0069794Y0047717D02*
X0069794Y0042335D01*
X0070994Y0042335D02*
X0070994Y0047717D01*
X0072194Y0047717D02*
X0072194Y0042335D01*
X0068071Y0040797D02*
X0067709Y0040797D01*
X0067709Y0039597D02*
X0068071Y0039597D01*
X0067798Y0038397D02*
X0067709Y0038397D01*
X0069794Y0035593D02*
X0069794Y0024719D01*
X0066194Y0022713D02*
X0066194Y0033245D01*
X0064994Y0033245D02*
X0064994Y0021863D01*
X0064727Y0021597D02*
X0063039Y0021597D01*
X0063039Y0020397D02*
X0064118Y0020397D01*
X0063961Y0019197D02*
X0063039Y0019197D01*
X0063039Y0017997D02*
X0063072Y0017997D01*
X0059646Y0019197D02*
X0057724Y0019197D01*
X0057567Y0020397D02*
X0059646Y0020397D01*
X0059646Y0021597D02*
X0056958Y0021597D01*
X0056594Y0021961D02*
X0056594Y0027840D01*
X0056006Y0027597D02*
X0059646Y0027597D01*
X0059646Y0026397D02*
X0046355Y0026397D01*
X0045794Y0026958D02*
X0045794Y0036246D01*
X0046043Y0035997D02*
X0040839Y0035997D01*
X0040839Y0037197D02*
X0045630Y0037197D01*
X0045630Y0038397D02*
X0040839Y0038397D01*
X0040336Y0039597D02*
X0045630Y0039597D01*
X0045630Y0040797D02*
X0040839Y0040797D01*
X0040839Y0041997D02*
X0045895Y0041997D01*
X0045794Y0041896D02*
X0045794Y0047860D01*
X0045657Y0047997D02*
X0040839Y0047997D01*
X0040839Y0046797D02*
X0054598Y0046797D01*
X0054194Y0046393D02*
X0054194Y0047480D01*
X0052994Y0047480D02*
X0052994Y0045193D01*
X0053398Y0045597D02*
X0040734Y0045597D01*
X0039794Y0045001D02*
X0039794Y0044794D01*
X0040536Y0044397D02*
X0052198Y0044397D01*
X0051794Y0043993D02*
X0051794Y0048172D01*
X0051619Y0047997D02*
X0052350Y0047997D01*
X0052165Y0049197D02*
X0051803Y0049197D01*
X0051803Y0050397D02*
X0052165Y0050397D01*
X0052165Y0051597D02*
X0051803Y0051597D01*
X0051803Y0052797D02*
X0052165Y0052797D01*
X0049394Y0054205D02*
X0049394Y0064291D01*
X0048888Y0064797D02*
X0026687Y0064797D01*
X0026594Y0064890D02*
X0026594Y0087091D01*
X0026088Y0087597D02*
X0015976Y0087597D01*
X0015976Y0088797D02*
X0024888Y0088797D01*
X0025394Y0088291D02*
X0025394Y0066090D01*
X0025487Y0065997D02*
X0047688Y0065997D01*
X0048194Y0065491D02*
X0048194Y0054205D01*
X0046994Y0054205D02*
X0046994Y0066691D01*
X0046488Y0067197D02*
X0024287Y0067197D01*
X0024194Y0067290D02*
X0024194Y0089491D01*
X0023688Y0089997D02*
X0015976Y0089997D01*
X0014594Y0092197D02*
X0014594Y0092953D01*
X0013394Y0092953D02*
X0013394Y0092197D01*
X0012194Y0092197D02*
X0012194Y0092953D01*
X0010994Y0092953D02*
X0010994Y0092197D01*
X0009794Y0092197D02*
X0009794Y0092953D01*
X0008594Y0092953D02*
X0008594Y0092197D01*
X0007394Y0092197D02*
X0007394Y0092953D01*
X0005709Y0091197D02*
X0005331Y0091197D01*
X0005331Y0089997D02*
X0005709Y0089997D01*
X0005709Y0088797D02*
X0005331Y0088797D01*
X0005331Y0087597D02*
X0005709Y0087597D01*
X0005709Y0086397D02*
X0005331Y0086397D01*
X0005331Y0085197D02*
X0006292Y0085197D01*
X0006194Y0085295D02*
X0006194Y0084107D01*
X0006084Y0083997D02*
X0005331Y0083997D01*
X0005331Y0082797D02*
X0005709Y0082797D01*
X0005709Y0081597D02*
X0005331Y0081597D01*
X0005331Y0080397D02*
X0005709Y0080397D01*
X0005709Y0079197D02*
X0005331Y0079197D01*
X0005331Y0077997D02*
X0005709Y0077997D01*
X0006194Y0077421D02*
X0006194Y0076233D01*
X0005709Y0075597D02*
X0005331Y0075597D01*
X0005331Y0076797D02*
X0036888Y0076797D01*
X0037394Y0076291D02*
X0037394Y0054794D01*
X0035087Y0056397D02*
X0051146Y0056397D01*
X0052159Y0058797D02*
X0032687Y0058797D01*
X0032594Y0058890D02*
X0032594Y0081091D01*
X0032088Y0081597D02*
X0015976Y0081597D01*
X0013394Y0084323D02*
X0013394Y0085079D01*
X0012194Y0085079D02*
X0012194Y0084323D01*
X0010994Y0084323D02*
X0010994Y0085079D01*
X0009794Y0085079D02*
X0009794Y0084323D01*
X0008594Y0084323D02*
X0008594Y0085079D01*
X0007394Y0085079D02*
X0007394Y0084323D01*
X0007394Y0077205D02*
X0007394Y0076449D01*
X0008594Y0076449D02*
X0008594Y0077205D01*
X0009794Y0077205D02*
X0009794Y0076449D01*
X0010994Y0076449D02*
X0010994Y0077205D01*
X0012194Y0077205D02*
X0012194Y0076449D01*
X0013394Y0076449D02*
X0013394Y0077205D01*
X0014594Y0077205D02*
X0014594Y0076449D01*
X0019394Y0072090D02*
X0019394Y0094291D01*
X0018888Y0094797D02*
X0015976Y0094797D01*
X0020087Y0098397D02*
X0033452Y0098397D01*
X0033452Y0099597D02*
X0018887Y0099597D01*
X0019394Y0099090D02*
X0019394Y0124937D01*
X0020594Y0124937D02*
X0020594Y0097890D01*
X0021287Y0097197D02*
X0033452Y0097197D01*
X0033452Y0095997D02*
X0022487Y0095997D01*
X0022994Y0095490D02*
X0022994Y0124937D01*
X0024194Y0124937D02*
X0024194Y0094290D01*
X0023687Y0094797D02*
X0033452Y0094797D01*
X0033452Y0093597D02*
X0024887Y0093597D01*
X0025394Y0093090D02*
X0025394Y0112705D01*
X0025356Y0112797D02*
X0015976Y0112797D01*
X0015976Y0113997D02*
X0025046Y0113997D01*
X0025236Y0115197D02*
X0015897Y0115197D01*
X0015976Y0115118D02*
X0015275Y0115819D01*
X0006410Y0115819D01*
X0005709Y0115118D01*
X0005709Y0109402D01*
X0006410Y0108701D01*
X0015275Y0108701D01*
X0015976Y0109402D01*
X0015976Y0115118D01*
X0015794Y0115300D02*
X0015794Y0117093D01*
X0015976Y0117276D02*
X0015275Y0116575D01*
X0006410Y0116575D01*
X0005709Y0117276D01*
X0005709Y0122992D01*
X0006410Y0123693D01*
X0015275Y0123693D01*
X0015976Y0122992D01*
X0015976Y0117276D01*
X0015976Y0117597D02*
X0029098Y0117597D01*
X0028994Y0117493D02*
X0028994Y0124937D01*
X0030194Y0124937D02*
X0030194Y0118693D01*
X0030298Y0118797D02*
X0015976Y0118797D01*
X0015976Y0119997D02*
X0031498Y0119997D01*
X0031394Y0119893D02*
X0031394Y0124937D01*
X0032594Y0124937D02*
X0032594Y0121093D01*
X0032698Y0121197D02*
X0015976Y0121197D01*
X0015976Y0122397D02*
X0069488Y0122397D01*
X0069794Y0123297D02*
X0069794Y0124937D01*
X0070994Y0124937D02*
X0070994Y0123693D01*
X0070093Y0123597D02*
X0015371Y0123597D01*
X0015794Y0123174D02*
X0015794Y0124937D01*
X0016994Y0124937D02*
X0016994Y0101490D01*
X0017687Y0100797D02*
X0033452Y0100797D01*
X0033452Y0092397D02*
X0026087Y0092397D01*
X0026594Y0091890D02*
X0026594Y0111498D01*
X0026355Y0111597D02*
X0015976Y0111597D01*
X0015976Y0110397D02*
X0042967Y0110397D01*
X0043394Y0110824D02*
X0043394Y0117845D01*
X0044594Y0117845D02*
X0044594Y0112024D01*
X0044167Y0111597D02*
X0029730Y0111597D01*
X0030194Y0112055D02*
X0030194Y0088290D01*
X0029687Y0088797D02*
X0032531Y0088797D01*
X0032594Y0089862D02*
X0032594Y0116293D01*
X0031039Y0113997D02*
X0046567Y0113997D01*
X0046994Y0114339D02*
X0046994Y0117845D01*
X0048194Y0117845D02*
X0048194Y0114339D01*
X0049394Y0114339D02*
X0049394Y0117845D01*
X0050594Y0117845D02*
X0050594Y0114339D01*
X0051794Y0114339D02*
X0051794Y0117845D01*
X0052994Y0117845D02*
X0052994Y0114339D01*
X0054194Y0114339D02*
X0054194Y0117845D01*
X0055394Y0117845D02*
X0055394Y0114339D01*
X0056594Y0114339D02*
X0056594Y0117845D01*
X0057794Y0117845D02*
X0057794Y0114339D01*
X0058994Y0114339D02*
X0058994Y0117845D01*
X0060194Y0117845D02*
X0060194Y0114339D01*
X0061394Y0114339D02*
X0061394Y0117845D01*
X0062594Y0117845D02*
X0062594Y0114339D01*
X0063794Y0114339D02*
X0063794Y0117845D01*
X0064994Y0117845D02*
X0064994Y0114339D01*
X0066194Y0114339D02*
X0066194Y0117845D01*
X0067394Y0117845D02*
X0067394Y0114339D01*
X0068594Y0114339D02*
X0068594Y0117845D01*
X0070994Y0116575D02*
X0070994Y0115819D01*
X0072194Y0115819D02*
X0072194Y0116575D01*
X0073394Y0116575D02*
X0073394Y0115819D01*
X0074594Y0115819D02*
X0074594Y0116575D01*
X0075794Y0116575D02*
X0075794Y0115819D01*
X0076994Y0115819D02*
X0076994Y0116575D01*
X0078194Y0116575D02*
X0078194Y0115819D01*
X0079756Y0117597D02*
X0080134Y0117597D01*
X0080134Y0118797D02*
X0079756Y0118797D01*
X0079756Y0119997D02*
X0080134Y0119997D01*
X0080134Y0121197D02*
X0079756Y0121197D01*
X0079756Y0122397D02*
X0080134Y0122397D01*
X0080134Y0123597D02*
X0079151Y0123597D01*
X0079394Y0123354D02*
X0079394Y0124937D01*
X0080134Y0124797D02*
X0005331Y0124797D01*
X0006194Y0124937D02*
X0006194Y0123477D01*
X0006314Y0123597D02*
X0005331Y0123597D01*
X0005331Y0122397D02*
X0005709Y0122397D01*
X0005709Y0121197D02*
X0005331Y0121197D01*
X0005331Y0119997D02*
X0005709Y0119997D01*
X0005709Y0118797D02*
X0005331Y0118797D01*
X0005331Y0117597D02*
X0005709Y0117597D01*
X0006194Y0116791D02*
X0006194Y0115603D01*
X0005788Y0115197D02*
X0005331Y0115197D01*
X0005331Y0116397D02*
X0026059Y0116397D01*
X0026594Y0116785D02*
X0026594Y0124937D01*
X0027794Y0124937D02*
X0027794Y0117139D01*
X0025394Y0115578D02*
X0025394Y0124937D01*
X0021794Y0124937D02*
X0021794Y0096690D01*
X0018194Y0100290D02*
X0018194Y0124937D01*
X0014594Y0124937D02*
X0014594Y0123693D01*
X0013394Y0123693D02*
X0013394Y0124937D01*
X0012194Y0124937D02*
X0012194Y0123693D01*
X0010994Y0123693D02*
X0010994Y0124937D01*
X0009794Y0124937D02*
X0009794Y0123693D01*
X0008594Y0123693D02*
X0008594Y0124937D01*
X0007394Y0124937D02*
X0007394Y0123693D01*
X0007394Y0116575D02*
X0007394Y0115819D01*
X0008594Y0115819D02*
X0008594Y0116575D01*
X0009794Y0116575D02*
X0009794Y0115819D01*
X0010994Y0115819D02*
X0010994Y0116575D01*
X0012194Y0116575D02*
X0012194Y0115819D01*
X0013394Y0115819D02*
X0013394Y0116575D01*
X0014594Y0116575D02*
X0014594Y0115819D01*
X0014594Y0108701D02*
X0014594Y0107945D01*
X0013394Y0107945D02*
X0013394Y0108701D01*
X0012194Y0108701D02*
X0012194Y0107945D01*
X0010994Y0107945D02*
X0010994Y0108701D01*
X0009794Y0108701D02*
X0009794Y0107945D01*
X0008594Y0107945D02*
X0008594Y0108701D01*
X0007394Y0108701D02*
X0007394Y0107945D01*
X0006194Y0107729D02*
X0006194Y0108917D01*
X0005914Y0109197D02*
X0005331Y0109197D01*
X0005331Y0110397D02*
X0005709Y0110397D01*
X0005709Y0111597D02*
X0005331Y0111597D01*
X0005331Y0112797D02*
X0005709Y0112797D01*
X0005709Y0113997D02*
X0005331Y0113997D01*
X0027794Y0111145D02*
X0027794Y0090690D01*
X0027287Y0091197D02*
X0033373Y0091197D01*
X0032650Y0089997D02*
X0028487Y0089997D01*
X0028994Y0089490D02*
X0028994Y0111292D01*
X0030729Y0112797D02*
X0045367Y0112797D01*
X0045794Y0113224D02*
X0045794Y0117845D01*
X0045794Y0121239D02*
X0045794Y0124937D01*
X0046994Y0124937D02*
X0046994Y0121239D01*
X0048194Y0121239D02*
X0048194Y0124937D01*
X0049394Y0124937D02*
X0049394Y0121239D01*
X0050594Y0121239D02*
X0050594Y0124937D01*
X0051794Y0124937D02*
X0051794Y0121239D01*
X0052994Y0121239D02*
X0052994Y0124937D01*
X0054194Y0124937D02*
X0054194Y0121239D01*
X0055394Y0121239D02*
X0055394Y0124937D01*
X0056594Y0124937D02*
X0056594Y0121239D01*
X0057794Y0121239D02*
X0057794Y0124937D01*
X0058994Y0124937D02*
X0058994Y0121239D01*
X0060194Y0121239D02*
X0060194Y0124937D01*
X0061394Y0124937D02*
X0061394Y0121239D01*
X0062594Y0121239D02*
X0062594Y0124937D01*
X0063794Y0124937D02*
X0063794Y0121239D01*
X0064994Y0121239D02*
X0064994Y0124937D01*
X0066194Y0124937D02*
X0066194Y0121239D01*
X0067394Y0121239D02*
X0067394Y0124937D01*
X0068594Y0124937D02*
X0068594Y0121239D01*
X0072194Y0123693D02*
X0072194Y0124937D01*
X0073394Y0124937D02*
X0073394Y0123693D01*
X0074594Y0123693D02*
X0074594Y0124937D01*
X0075794Y0124937D02*
X0075794Y0123693D01*
X0076994Y0123693D02*
X0076994Y0124937D01*
X0078194Y0124937D02*
X0078194Y0123693D01*
X0091945Y0123597D02*
X0092928Y0123597D01*
X0093024Y0123693D02*
X0092323Y0122992D01*
X0092323Y0117276D01*
X0093024Y0116575D01*
X0101889Y0116575D01*
X0102591Y0117276D01*
X0102591Y0122992D01*
X0101889Y0123693D01*
X0093024Y0123693D01*
X0092594Y0123263D02*
X0092594Y0124937D01*
X0091945Y0124937D02*
X0166748Y0124937D01*
X0166748Y0005134D01*
X0091945Y0005134D01*
X0091945Y0124937D01*
X0091945Y0124797D02*
X0166748Y0124797D01*
X0165794Y0124937D02*
X0165794Y0123568D01*
X0165765Y0123597D02*
X0166748Y0123597D01*
X0166370Y0122992D02*
X0165669Y0123693D01*
X0156803Y0123693D01*
X0156102Y0122992D01*
X0156102Y0121239D01*
X0119354Y0121239D01*
X0115254Y0117138D01*
X0115253Y0117139D01*
X0114061Y0117139D01*
X0112959Y0116682D01*
X0112116Y0115839D01*
X0111660Y0114738D01*
X0111660Y0113546D01*
X0112116Y0112444D01*
X0112959Y0111601D01*
X0114061Y0111145D01*
X0115253Y0111145D01*
X0116354Y0111601D01*
X0117197Y0112444D01*
X0117654Y0113546D01*
X0117654Y0114738D01*
X0117653Y0114739D01*
X0120760Y0117845D01*
X0156102Y0117845D01*
X0156102Y0117276D01*
X0156803Y0116575D01*
X0165669Y0116575D01*
X0166370Y0117276D01*
X0166370Y0122992D01*
X0166370Y0122397D02*
X0166748Y0122397D01*
X0166748Y0121197D02*
X0166370Y0121197D01*
X0166370Y0119997D02*
X0166748Y0119997D01*
X0166748Y0118797D02*
X0166370Y0118797D01*
X0166370Y0117597D02*
X0166748Y0117597D01*
X0166748Y0116397D02*
X0119312Y0116397D01*
X0118994Y0116079D02*
X0118994Y0086104D01*
X0118701Y0086397D02*
X0120869Y0086397D01*
X0120444Y0086573D02*
X0121546Y0086117D01*
X0122738Y0086117D01*
X0123839Y0086573D01*
X0124682Y0087416D01*
X0125139Y0088517D01*
X0125139Y0089709D01*
X0124682Y0090811D01*
X0124060Y0091433D01*
X0124060Y0099228D01*
X0135177Y0110345D01*
X0156102Y0110345D01*
X0156102Y0109402D01*
X0156803Y0108701D01*
X0165669Y0108701D01*
X0166370Y0109402D01*
X0166370Y0115118D01*
X0165669Y0115819D01*
X0156803Y0115819D01*
X0156102Y0115118D01*
X0156102Y0114339D01*
X0133522Y0114339D01*
X0121236Y0102052D01*
X0120066Y0100882D01*
X0120066Y0091276D01*
X0119601Y0090811D01*
X0119145Y0089709D01*
X0119145Y0088517D01*
X0119601Y0087416D01*
X0120444Y0086573D01*
X0120194Y0086823D02*
X0120194Y0084904D01*
X0119901Y0085197D02*
X0156685Y0085197D01*
X0156803Y0085079D02*
X0165669Y0085079D01*
X0166370Y0085780D01*
X0166370Y0091496D01*
X0165669Y0092197D01*
X0156803Y0092197D01*
X0156102Y0091496D01*
X0156102Y0090639D01*
X0135160Y0090639D01*
X0133853Y0091945D01*
X0133854Y0091946D01*
X0133854Y0093138D01*
X0133397Y0094239D01*
X0132554Y0095082D01*
X0131453Y0095539D01*
X0130261Y0095539D01*
X0129159Y0095082D01*
X0128316Y0094239D01*
X0127860Y0093138D01*
X0127860Y0091946D01*
X0128316Y0090844D01*
X0129159Y0090001D01*
X0130261Y0089545D01*
X0131453Y0089545D01*
X0131454Y0089545D01*
X0133754Y0087245D01*
X0156102Y0087245D01*
X0156102Y0085780D01*
X0156803Y0085079D01*
X0157394Y0085079D02*
X0157394Y0084323D01*
X0156803Y0084323D02*
X0156102Y0083622D01*
X0156102Y0078787D01*
X0145360Y0068045D01*
X0145360Y0059738D01*
X0102591Y0102508D01*
X0102591Y0107244D01*
X0101889Y0107945D01*
X0093024Y0107945D01*
X0092323Y0107244D01*
X0092323Y0101528D01*
X0093024Y0100827D01*
X0099472Y0100827D01*
X0100228Y0100071D01*
X0093024Y0100071D01*
X0092323Y0099370D01*
X0092323Y0093654D01*
X0093024Y0092953D01*
X0101889Y0092953D01*
X0102591Y0093654D01*
X0102591Y0097708D01*
X0140760Y0059539D01*
X0140161Y0059539D01*
X0139059Y0059082D01*
X0138216Y0058239D01*
X0137760Y0057138D01*
X0137760Y0055946D01*
X0138216Y0054844D01*
X0139059Y0054001D01*
X0139213Y0053937D01*
X0138780Y0053504D01*
X0138780Y0048181D01*
X0139481Y0047480D01*
X0141896Y0047480D01*
X0141760Y0047345D01*
X0136848Y0042433D01*
X0132945Y0042433D01*
X0132244Y0041732D01*
X0132244Y0036410D01*
X0132945Y0035709D01*
X0137874Y0035709D01*
X0138575Y0036410D01*
X0138575Y0039360D01*
X0138937Y0039722D01*
X0138937Y0036410D01*
X0139638Y0035709D01*
X0144567Y0035709D01*
X0145128Y0036270D01*
X0146260Y0035139D01*
X0146260Y0032139D01*
X0144198Y0032139D01*
X0144197Y0032139D01*
X0143354Y0032982D01*
X0142253Y0033439D01*
X0141061Y0033439D01*
X0139959Y0032982D01*
X0139116Y0032139D01*
X0138660Y0031038D01*
X0138660Y0029846D01*
X0139116Y0028744D01*
X0139959Y0027901D01*
X0141061Y0027445D01*
X0142253Y0027445D01*
X0143354Y0027901D01*
X0144197Y0028744D01*
X0144198Y0028745D01*
X0146260Y0028745D01*
X0146260Y0018545D01*
X0141854Y0014139D01*
X0138760Y0014139D01*
X0135883Y0017016D01*
X0136232Y0016871D01*
X0137630Y0016871D01*
X0138430Y0016070D01*
X0139817Y0015496D01*
X0141317Y0015496D01*
X0142703Y0016070D01*
X0143764Y0017131D01*
X0144339Y0018517D01*
X0144339Y0020018D01*
X0143764Y0021404D01*
X0142703Y0022465D01*
X0141317Y0023039D01*
X0139817Y0023039D01*
X0138430Y0022465D01*
X0137666Y0021700D01*
X0125641Y0033725D01*
X0125641Y0035001D01*
X0126752Y0035001D01*
X0127454Y0035702D01*
X0127454Y0039093D01*
X0126752Y0039794D01*
X0126054Y0039794D01*
X0126054Y0040001D01*
X0126752Y0040001D01*
X0127454Y0040702D01*
X0127454Y0044093D01*
X0126752Y0044794D01*
X0126054Y0044794D01*
X0126054Y0045001D01*
X0126752Y0045001D01*
X0127454Y0045702D01*
X0127454Y0049093D01*
X0127102Y0049445D01*
X0132087Y0049445D01*
X0132087Y0048181D01*
X0132788Y0047480D01*
X0137716Y0047480D01*
X0138417Y0048181D01*
X0138417Y0053504D01*
X0137716Y0054205D01*
X0132788Y0054205D01*
X0132087Y0053504D01*
X0132087Y0052839D01*
X0127454Y0052839D01*
X0127454Y0054093D01*
X0126752Y0054794D01*
X0123304Y0054794D01*
X0103660Y0074439D01*
X0102591Y0074439D01*
X0102591Y0075748D01*
X0101889Y0076449D01*
X0093024Y0076449D01*
X0092323Y0075748D01*
X0092323Y0070032D01*
X0093024Y0069331D01*
X0101889Y0069331D01*
X0102591Y0070032D01*
X0102591Y0070708D01*
X0119133Y0054166D01*
X0119060Y0054093D01*
X0119060Y0052828D01*
X0107754Y0064135D01*
X0107754Y0064338D01*
X0107297Y0065439D01*
X0106454Y0066282D01*
X0105353Y0066739D01*
X0104161Y0066739D01*
X0103059Y0066282D01*
X0102591Y0065814D01*
X0102591Y0067874D01*
X0101889Y0068575D01*
X0093024Y0068575D01*
X0092323Y0067874D01*
X0092323Y0062158D01*
X0093024Y0061457D01*
X0096542Y0061457D01*
X0103204Y0054794D01*
X0098161Y0054794D01*
X0097460Y0054093D01*
X0097460Y0050702D01*
X0098161Y0050001D01*
X0099660Y0050001D01*
X0099660Y0049794D01*
X0098161Y0049794D01*
X0097460Y0049093D01*
X0097460Y0045702D01*
X0098161Y0045001D01*
X0099660Y0045001D01*
X0099660Y0044794D01*
X0098161Y0044794D01*
X0097460Y0044093D01*
X0097460Y0040702D01*
X0098161Y0040001D01*
X0099660Y0040001D01*
X0099660Y0039794D01*
X0098161Y0039794D01*
X0097460Y0039093D01*
X0097460Y0035702D01*
X0098161Y0035001D01*
X0099981Y0035001D01*
X0099981Y0028712D01*
X0100346Y0027831D01*
X0101020Y0027157D01*
X0105418Y0022760D01*
X0104742Y0023039D01*
X0103242Y0023039D01*
X0101856Y0022465D01*
X0100795Y0021404D01*
X0100220Y0020018D01*
X0100220Y0018517D01*
X0100795Y0017131D01*
X0101856Y0016070D01*
X0103242Y0015496D01*
X0104742Y0015496D01*
X0104788Y0015515D01*
X0112157Y0008146D01*
X0112831Y0007472D01*
X0113712Y0007107D01*
X0145059Y0007107D01*
X0145940Y0007472D01*
X0153964Y0015496D01*
X0155097Y0015496D01*
X0156483Y0016070D01*
X0157544Y0017131D01*
X0158118Y0018517D01*
X0158118Y0019650D01*
X0158976Y0020508D01*
X0159503Y0020508D01*
X0159647Y0020364D01*
X0160748Y0019908D01*
X0161940Y0019908D01*
X0163042Y0020364D01*
X0163885Y0021207D01*
X0164341Y0022309D01*
X0164341Y0023501D01*
X0163885Y0024602D01*
X0163042Y0025445D01*
X0161940Y0025902D01*
X0160748Y0025902D01*
X0159647Y0025445D01*
X0159503Y0025302D01*
X0157507Y0025302D01*
X0156626Y0024937D01*
X0155952Y0024262D01*
X0154728Y0023039D01*
X0153596Y0023039D01*
X0152210Y0022465D01*
X0151149Y0021404D01*
X0150575Y0020018D01*
X0150575Y0018886D01*
X0149654Y0017964D01*
X0149654Y0033245D01*
X0154060Y0033245D01*
X0156425Y0035610D01*
X0160315Y0035610D01*
X0161016Y0036311D01*
X0161016Y0041634D01*
X0160315Y0042335D01*
X0155386Y0042335D01*
X0154685Y0041634D01*
X0154685Y0038670D01*
X0154323Y0038308D01*
X0154323Y0041634D01*
X0153622Y0042335D01*
X0152354Y0042335D01*
X0152354Y0045545D01*
X0150182Y0047717D01*
X0153622Y0047717D01*
X0154323Y0048418D01*
X0154323Y0053740D01*
X0153622Y0054441D01*
X0152354Y0054441D01*
X0152354Y0063207D01*
X0152559Y0063001D01*
X0153661Y0062545D01*
X0154853Y0062545D01*
X0155954Y0063001D01*
X0156102Y0063149D01*
X0156102Y0062158D01*
X0156160Y0062100D01*
X0156160Y0054441D01*
X0155386Y0054441D01*
X0154685Y0053740D01*
X0154685Y0048418D01*
X0155386Y0047717D01*
X0160315Y0047717D01*
X0161016Y0048418D01*
X0161016Y0053740D01*
X0160315Y0054441D01*
X0159554Y0054441D01*
X0159554Y0061457D01*
X0165669Y0061457D01*
X0166370Y0062158D01*
X0166370Y0067874D01*
X0165669Y0068575D01*
X0156803Y0068575D01*
X0156133Y0067904D01*
X0155954Y0068082D01*
X0154853Y0068539D01*
X0154253Y0068539D01*
X0156102Y0070388D01*
X0156102Y0070032D01*
X0156803Y0069331D01*
X0165669Y0069331D01*
X0166370Y0070032D01*
X0166370Y0075748D01*
X0165669Y0076449D01*
X0158563Y0076449D01*
X0159319Y0077205D01*
X0165669Y0077205D01*
X0166370Y0077906D01*
X0166370Y0083622D01*
X0165669Y0084323D01*
X0156803Y0084323D01*
X0156477Y0083997D02*
X0121101Y0083997D01*
X0121394Y0083704D02*
X0121394Y0086179D01*
X0122594Y0086117D02*
X0122594Y0082504D01*
X0122301Y0082797D02*
X0156102Y0082797D01*
X0156194Y0083713D02*
X0156194Y0085688D01*
X0156102Y0086397D02*
X0123415Y0086397D01*
X0123794Y0086554D02*
X0123794Y0081304D01*
X0123501Y0081597D02*
X0156102Y0081597D01*
X0156102Y0080397D02*
X0124701Y0080397D01*
X0124994Y0080104D02*
X0124994Y0088168D01*
X0124757Y0087597D02*
X0133402Y0087597D01*
X0133394Y0087605D02*
X0133394Y0071704D01*
X0133101Y0071997D02*
X0149312Y0071997D01*
X0148994Y0071678D02*
X0148994Y0087245D01*
X0150194Y0087245D02*
X0150194Y0072878D01*
X0150512Y0073197D02*
X0131901Y0073197D01*
X0132194Y0072904D02*
X0132194Y0088805D01*
X0132202Y0088797D02*
X0125139Y0088797D01*
X0125020Y0089997D02*
X0129169Y0089997D01*
X0129794Y0089738D02*
X0129794Y0075304D01*
X0129501Y0075597D02*
X0152912Y0075597D01*
X0152594Y0075278D02*
X0152594Y0087245D01*
X0153794Y0087245D02*
X0153794Y0076478D01*
X0154112Y0076797D02*
X0128301Y0076797D01*
X0128594Y0076504D02*
X0128594Y0090567D01*
X0128170Y0091197D02*
X0124296Y0091197D01*
X0124060Y0092397D02*
X0127860Y0092397D01*
X0128050Y0093597D02*
X0124060Y0093597D01*
X0124060Y0094797D02*
X0128874Y0094797D01*
X0128594Y0094517D02*
X0128594Y0103762D01*
X0128029Y0103197D02*
X0156102Y0103197D01*
X0156102Y0104397D02*
X0129229Y0104397D01*
X0129794Y0104962D02*
X0129794Y0095345D01*
X0130994Y0095539D02*
X0130994Y0106162D01*
X0130429Y0105597D02*
X0156102Y0105597D01*
X0156102Y0106797D02*
X0131629Y0106797D01*
X0132194Y0107362D02*
X0132194Y0095232D01*
X0132840Y0094797D02*
X0156102Y0094797D01*
X0156102Y0093654D02*
X0156803Y0092953D01*
X0165669Y0092953D01*
X0166370Y0093654D01*
X0166370Y0099370D01*
X0165669Y0100071D01*
X0156803Y0100071D01*
X0156102Y0099370D01*
X0156102Y0093654D01*
X0156159Y0093597D02*
X0133663Y0093597D01*
X0133394Y0094243D02*
X0133394Y0108562D01*
X0132829Y0107997D02*
X0166748Y0107997D01*
X0166370Y0107244D02*
X0165669Y0107945D01*
X0156803Y0107945D01*
X0156102Y0107244D01*
X0156102Y0101528D01*
X0156803Y0100827D01*
X0165669Y0100827D01*
X0166370Y0101528D01*
X0166370Y0107244D01*
X0166370Y0106797D02*
X0166748Y0106797D01*
X0166748Y0105597D02*
X0166370Y0105597D01*
X0166370Y0104397D02*
X0166748Y0104397D01*
X0166748Y0103197D02*
X0166370Y0103197D01*
X0166370Y0101997D02*
X0166748Y0101997D01*
X0166748Y0100797D02*
X0125629Y0100797D01*
X0126194Y0101362D02*
X0126194Y0078904D01*
X0125901Y0079197D02*
X0156102Y0079197D01*
X0155312Y0077997D02*
X0127101Y0077997D01*
X0127394Y0077704D02*
X0127394Y0102562D01*
X0126829Y0101997D02*
X0156102Y0101997D01*
X0156194Y0101437D02*
X0156194Y0099461D01*
X0156329Y0099597D02*
X0124429Y0099597D01*
X0124994Y0100162D02*
X0124994Y0090059D01*
X0119987Y0091197D02*
X0113901Y0091197D01*
X0114194Y0090904D02*
X0114194Y0111145D01*
X0115394Y0111203D02*
X0115394Y0089704D01*
X0115101Y0089997D02*
X0119264Y0089997D01*
X0119145Y0088797D02*
X0116301Y0088797D01*
X0116594Y0088504D02*
X0116594Y0111841D01*
X0116344Y0111597D02*
X0130781Y0111597D01*
X0130994Y0111810D02*
X0130994Y0117845D01*
X0132194Y0117845D02*
X0132194Y0113010D01*
X0131981Y0112797D02*
X0117343Y0112797D01*
X0117654Y0113997D02*
X0133181Y0113997D01*
X0133394Y0114210D02*
X0133394Y0117845D01*
X0134594Y0117845D02*
X0134594Y0114339D01*
X0135794Y0114339D02*
X0135794Y0117845D01*
X0136994Y0117845D02*
X0136994Y0114339D01*
X0138194Y0114339D02*
X0138194Y0117845D01*
X0139394Y0117845D02*
X0139394Y0114339D01*
X0140594Y0114339D02*
X0140594Y0117845D01*
X0141794Y0117845D02*
X0141794Y0114339D01*
X0142994Y0114339D02*
X0142994Y0117845D01*
X0144194Y0117845D02*
X0144194Y0114339D01*
X0145394Y0114339D02*
X0145394Y0117845D01*
X0146594Y0117845D02*
X0146594Y0114339D01*
X0147794Y0114339D02*
X0147794Y0117845D01*
X0148994Y0117845D02*
X0148994Y0114339D01*
X0150194Y0114339D02*
X0150194Y0117845D01*
X0151394Y0117845D02*
X0151394Y0114339D01*
X0152594Y0114339D02*
X0152594Y0117845D01*
X0153794Y0117845D02*
X0153794Y0114339D01*
X0154994Y0114339D02*
X0154994Y0117845D01*
X0156102Y0117597D02*
X0120512Y0117597D01*
X0120194Y0117279D02*
X0120194Y0101010D01*
X0120066Y0100797D02*
X0104301Y0100797D01*
X0104594Y0100504D02*
X0104594Y0124937D01*
X0105794Y0124937D02*
X0105794Y0099304D01*
X0105501Y0099597D02*
X0120066Y0099597D01*
X0120066Y0098397D02*
X0106701Y0098397D01*
X0106994Y0098104D02*
X0106994Y0124937D01*
X0108194Y0124937D02*
X0108194Y0096904D01*
X0107901Y0097197D02*
X0120066Y0097197D01*
X0120066Y0095997D02*
X0109101Y0095997D01*
X0109394Y0095704D02*
X0109394Y0124937D01*
X0110594Y0124937D02*
X0110594Y0094504D01*
X0110301Y0094797D02*
X0120066Y0094797D01*
X0120066Y0093597D02*
X0111501Y0093597D01*
X0111794Y0093304D02*
X0111794Y0113222D01*
X0111970Y0112797D02*
X0102591Y0112797D01*
X0102591Y0113997D02*
X0111660Y0113997D01*
X0111794Y0115061D02*
X0111794Y0124937D01*
X0112994Y0124937D02*
X0112994Y0116697D01*
X0112674Y0116397D02*
X0091945Y0116397D01*
X0092594Y0117005D02*
X0092594Y0115389D01*
X0092402Y0115197D02*
X0091945Y0115197D01*
X0092323Y0115118D02*
X0092323Y0109402D01*
X0093024Y0108701D01*
X0101889Y0108701D01*
X0102591Y0109402D01*
X0102591Y0115118D01*
X0101889Y0115819D01*
X0093024Y0115819D01*
X0092323Y0115118D01*
X0092323Y0113997D02*
X0091945Y0113997D01*
X0091945Y0112797D02*
X0092323Y0112797D01*
X0092323Y0111597D02*
X0091945Y0111597D01*
X0091945Y0110397D02*
X0092323Y0110397D01*
X0092528Y0109197D02*
X0091945Y0109197D01*
X0092594Y0109131D02*
X0092594Y0107515D01*
X0092323Y0106797D02*
X0091945Y0106797D01*
X0091945Y0107997D02*
X0127181Y0107997D01*
X0127394Y0108210D02*
X0127394Y0117845D01*
X0128594Y0117845D02*
X0128594Y0109410D01*
X0128381Y0109197D02*
X0102386Y0109197D01*
X0102194Y0109005D02*
X0102194Y0107641D01*
X0102591Y0106797D02*
X0125981Y0106797D01*
X0126194Y0107010D02*
X0126194Y0117845D01*
X0124994Y0117845D02*
X0124994Y0105810D01*
X0124781Y0105597D02*
X0102591Y0105597D01*
X0102591Y0104397D02*
X0123581Y0104397D01*
X0123794Y0104610D02*
X0123794Y0117845D01*
X0122594Y0117845D02*
X0122594Y0103410D01*
X0122381Y0103197D02*
X0102591Y0103197D01*
X0103101Y0101997D02*
X0121181Y0101997D01*
X0121394Y0102210D02*
X0121394Y0117845D01*
X0118994Y0120878D02*
X0118994Y0124937D01*
X0120194Y0124937D02*
X0120194Y0121239D01*
X0119312Y0121197D02*
X0102591Y0121197D01*
X0102591Y0122397D02*
X0156102Y0122397D01*
X0156194Y0123083D02*
X0156194Y0124937D01*
X0157394Y0124937D02*
X0157394Y0123693D01*
X0156707Y0123597D02*
X0101985Y0123597D01*
X0102194Y0123389D02*
X0102194Y0124937D01*
X0103394Y0124937D02*
X0103394Y0101704D01*
X0099794Y0100505D02*
X0099794Y0100071D01*
X0099502Y0100797D02*
X0091945Y0100797D01*
X0092594Y0101257D02*
X0092594Y0099641D01*
X0092550Y0099597D02*
X0091945Y0099597D01*
X0091945Y0098397D02*
X0092323Y0098397D01*
X0092323Y0097197D02*
X0091945Y0097197D01*
X0091945Y0095997D02*
X0092323Y0095997D01*
X0092323Y0094797D02*
X0091945Y0094797D01*
X0091945Y0093597D02*
X0092380Y0093597D01*
X0092594Y0093383D02*
X0092594Y0091767D01*
X0092323Y0091496D02*
X0092323Y0085780D01*
X0093024Y0085079D01*
X0101889Y0085079D01*
X0102591Y0085780D01*
X0102591Y0091496D01*
X0101889Y0092197D01*
X0093024Y0092197D01*
X0092323Y0091496D01*
X0092323Y0091197D02*
X0091945Y0091197D01*
X0091945Y0092397D02*
X0107902Y0092397D01*
X0108194Y0092105D02*
X0108194Y0069904D01*
X0108501Y0069597D02*
X0130702Y0069597D01*
X0130994Y0069305D02*
X0130994Y0052839D01*
X0129794Y0052839D02*
X0129794Y0070505D01*
X0129502Y0070797D02*
X0107301Y0070797D01*
X0106994Y0071104D02*
X0106994Y0093305D01*
X0106702Y0093597D02*
X0102534Y0093597D01*
X0102194Y0093257D02*
X0102194Y0091893D01*
X0102591Y0091197D02*
X0109102Y0091197D01*
X0109394Y0090905D02*
X0109394Y0068704D01*
X0109701Y0068397D02*
X0131902Y0068397D01*
X0132194Y0068105D02*
X0132194Y0053611D01*
X0132580Y0053997D02*
X0127454Y0053997D01*
X0127394Y0054153D02*
X0127394Y0072905D01*
X0127102Y0073197D02*
X0104901Y0073197D01*
X0104594Y0073504D02*
X0104594Y0095705D01*
X0104302Y0095997D02*
X0102591Y0095997D01*
X0102591Y0097197D02*
X0103102Y0097197D01*
X0103394Y0096905D02*
X0103394Y0074439D01*
X0103701Y0074397D02*
X0125902Y0074397D01*
X0126194Y0074105D02*
X0126194Y0054794D01*
X0124994Y0054794D02*
X0124994Y0075305D01*
X0124702Y0075597D02*
X0102591Y0075597D01*
X0102194Y0076145D02*
X0102194Y0077509D01*
X0101889Y0077205D02*
X0102591Y0077906D01*
X0102591Y0083622D01*
X0101889Y0084323D01*
X0093024Y0084323D01*
X0092323Y0083622D01*
X0092323Y0077906D01*
X0093024Y0077205D01*
X0101889Y0077205D01*
X0100994Y0077205D02*
X0100994Y0076449D01*
X0099794Y0076449D02*
X0099794Y0077205D01*
X0098594Y0077205D02*
X0098594Y0076449D01*
X0097394Y0076449D02*
X0097394Y0077205D01*
X0096194Y0077205D02*
X0096194Y0076449D01*
X0094994Y0076449D02*
X0094994Y0077205D01*
X0093794Y0077205D02*
X0093794Y0076449D01*
X0092594Y0076019D02*
X0092594Y0077635D01*
X0092323Y0077997D02*
X0091945Y0077997D01*
X0091945Y0079197D02*
X0092323Y0079197D01*
X0092323Y0080397D02*
X0091945Y0080397D01*
X0091945Y0081597D02*
X0092323Y0081597D01*
X0092323Y0082797D02*
X0091945Y0082797D01*
X0091945Y0083997D02*
X0092698Y0083997D01*
X0092594Y0083893D02*
X0092594Y0085509D01*
X0092906Y0085197D02*
X0091945Y0085197D01*
X0091945Y0086397D02*
X0092323Y0086397D01*
X0092323Y0087597D02*
X0091945Y0087597D01*
X0091945Y0088797D02*
X0092323Y0088797D01*
X0092323Y0089997D02*
X0091945Y0089997D01*
X0093794Y0092197D02*
X0093794Y0092953D01*
X0094994Y0092953D02*
X0094994Y0092197D01*
X0096194Y0092197D02*
X0096194Y0092953D01*
X0097394Y0092953D02*
X0097394Y0092197D01*
X0098594Y0092197D02*
X0098594Y0092953D01*
X0099794Y0092953D02*
X0099794Y0092197D01*
X0100994Y0092197D02*
X0100994Y0092953D01*
X0102591Y0094797D02*
X0105502Y0094797D01*
X0105794Y0094505D02*
X0105794Y0072304D01*
X0106101Y0071997D02*
X0128302Y0071997D01*
X0128594Y0071705D02*
X0128594Y0052839D01*
X0128594Y0049445D02*
X0128594Y0030772D01*
X0128169Y0031197D02*
X0138726Y0031197D01*
X0138660Y0029997D02*
X0129369Y0029997D01*
X0129794Y0029572D02*
X0129794Y0049445D01*
X0130994Y0049445D02*
X0130994Y0028372D01*
X0130569Y0028797D02*
X0139094Y0028797D01*
X0139394Y0028467D02*
X0139394Y0022864D01*
X0139231Y0022797D02*
X0136569Y0022797D01*
X0136994Y0022372D02*
X0136994Y0035709D01*
X0135794Y0035709D02*
X0135794Y0023572D01*
X0135369Y0023997D02*
X0146260Y0023997D01*
X0146260Y0025197D02*
X0134169Y0025197D01*
X0134594Y0024772D02*
X0134594Y0035709D01*
X0133394Y0035709D02*
X0133394Y0025972D01*
X0132969Y0026397D02*
X0146260Y0026397D01*
X0146260Y0027597D02*
X0142620Y0027597D01*
X0142994Y0027752D02*
X0142994Y0022175D01*
X0143572Y0021597D02*
X0146260Y0021597D01*
X0146260Y0022797D02*
X0141903Y0022797D01*
X0141794Y0022842D02*
X0141794Y0027445D01*
X0140694Y0027597D02*
X0131769Y0027597D01*
X0132194Y0027172D02*
X0132194Y0048074D01*
X0132271Y0047997D02*
X0127454Y0047997D01*
X0127394Y0049153D02*
X0127394Y0049445D01*
X0127350Y0049197D02*
X0132087Y0049197D01*
X0133394Y0047480D02*
X0133394Y0042433D01*
X0132509Y0041997D02*
X0127454Y0041997D01*
X0127454Y0043197D02*
X0137612Y0043197D01*
X0138194Y0043778D02*
X0138194Y0047958D01*
X0138233Y0047997D02*
X0138964Y0047997D01*
X0139394Y0047567D02*
X0139394Y0044978D01*
X0138812Y0044397D02*
X0127150Y0044397D01*
X0127394Y0044153D02*
X0127394Y0045642D01*
X0127348Y0045597D02*
X0140012Y0045597D01*
X0140594Y0046178D02*
X0140594Y0047480D01*
X0141212Y0046797D02*
X0127454Y0046797D01*
X0126194Y0045001D02*
X0126194Y0044794D01*
X0127454Y0040797D02*
X0132244Y0040797D01*
X0132244Y0039597D02*
X0126950Y0039597D01*
X0127394Y0039153D02*
X0127394Y0040642D01*
X0126194Y0040001D02*
X0126194Y0039794D01*
X0127454Y0038397D02*
X0132244Y0038397D01*
X0132244Y0037197D02*
X0127454Y0037197D01*
X0127454Y0035997D02*
X0132657Y0035997D01*
X0127394Y0035642D02*
X0127394Y0031972D01*
X0126969Y0032397D02*
X0139374Y0032397D01*
X0139394Y0032417D02*
X0139394Y0035953D01*
X0139350Y0035997D02*
X0138162Y0035997D01*
X0138194Y0036029D02*
X0138194Y0022228D01*
X0140594Y0023039D02*
X0140594Y0027638D01*
X0144194Y0028741D02*
X0144194Y0020368D01*
X0144182Y0020397D02*
X0146260Y0020397D01*
X0146260Y0019197D02*
X0144339Y0019197D01*
X0144194Y0018168D02*
X0144194Y0016478D01*
X0144512Y0016797D02*
X0143430Y0016797D01*
X0142994Y0016361D02*
X0142994Y0015278D01*
X0143312Y0015597D02*
X0141560Y0015597D01*
X0141794Y0015693D02*
X0141794Y0014139D01*
X0142112Y0014397D02*
X0138501Y0014397D01*
X0138194Y0014704D02*
X0138194Y0016307D01*
X0137704Y0016797D02*
X0136101Y0016797D01*
X0136994Y0016871D02*
X0136994Y0015904D01*
X0137301Y0015597D02*
X0139573Y0015597D01*
X0139394Y0015671D02*
X0139394Y0014139D01*
X0140594Y0014139D02*
X0140594Y0015496D01*
X0135794Y0012305D02*
X0135794Y0011901D01*
X0136102Y0011997D02*
X0115086Y0011997D01*
X0115182Y0011901D02*
X0107764Y0019319D01*
X0107764Y0020018D01*
X0107484Y0020693D01*
X0110941Y0017236D01*
X0111822Y0016871D01*
X0114835Y0016871D01*
X0115635Y0016070D01*
X0117021Y0015496D01*
X0118522Y0015496D01*
X0119908Y0016070D01*
X0120969Y0017131D01*
X0121543Y0018517D01*
X0121543Y0020018D01*
X0120969Y0021404D01*
X0119908Y0022465D01*
X0118522Y0023039D01*
X0117021Y0023039D01*
X0115635Y0022465D01*
X0114835Y0021665D01*
X0113292Y0021665D01*
X0104775Y0030182D01*
X0104775Y0035001D01*
X0105152Y0035001D01*
X0105854Y0035702D01*
X0105854Y0039093D01*
X0105152Y0039794D01*
X0104454Y0039794D01*
X0104454Y0040001D01*
X0105152Y0040001D01*
X0105854Y0040702D01*
X0105854Y0044093D01*
X0105152Y0044794D01*
X0104454Y0044794D01*
X0104454Y0045001D01*
X0105152Y0045001D01*
X0105854Y0045702D01*
X0105854Y0049093D01*
X0105152Y0049794D01*
X0104454Y0049794D01*
X0104454Y0050001D01*
X0105152Y0050001D01*
X0105854Y0050702D01*
X0105854Y0052145D01*
X0116560Y0041439D01*
X0116560Y0031539D01*
X0136198Y0011901D01*
X0115182Y0011901D01*
X0115394Y0011901D02*
X0115394Y0016312D01*
X0114909Y0016797D02*
X0110286Y0016797D01*
X0110594Y0016489D02*
X0110594Y0017584D01*
X0110180Y0017997D02*
X0109086Y0017997D01*
X0109394Y0017689D02*
X0109394Y0018784D01*
X0108980Y0019197D02*
X0107886Y0019197D01*
X0108194Y0018889D02*
X0108194Y0019984D01*
X0107780Y0020397D02*
X0107607Y0020397D01*
X0105380Y0022797D02*
X0105328Y0022797D01*
X0104594Y0023039D02*
X0104594Y0023584D01*
X0104180Y0023997D02*
X0091945Y0023997D01*
X0091945Y0025197D02*
X0102980Y0025197D01*
X0103394Y0024784D02*
X0103394Y0023039D01*
X0102656Y0022797D02*
X0091945Y0022797D01*
X0091945Y0021597D02*
X0100987Y0021597D01*
X0100994Y0021603D02*
X0100994Y0027184D01*
X0100580Y0027597D02*
X0091945Y0027597D01*
X0091945Y0028797D02*
X0099981Y0028797D01*
X0099981Y0029997D02*
X0091945Y0029997D01*
X0091945Y0031197D02*
X0099981Y0031197D01*
X0099981Y0032397D02*
X0091945Y0032397D01*
X0091945Y0033597D02*
X0099981Y0033597D01*
X0099981Y0034797D02*
X0091945Y0034797D01*
X0091945Y0035997D02*
X0097460Y0035997D01*
X0097460Y0037197D02*
X0091945Y0037197D01*
X0091945Y0038397D02*
X0097460Y0038397D01*
X0097963Y0039597D02*
X0091945Y0039597D01*
X0091945Y0040797D02*
X0097460Y0040797D01*
X0097460Y0041997D02*
X0091945Y0041997D01*
X0091945Y0043197D02*
X0097460Y0043197D01*
X0097763Y0044397D02*
X0091945Y0044397D01*
X0091945Y0045597D02*
X0097565Y0045597D01*
X0098594Y0045001D02*
X0098594Y0044794D01*
X0097460Y0046797D02*
X0091945Y0046797D01*
X0091945Y0047997D02*
X0097460Y0047997D01*
X0097563Y0049197D02*
X0091945Y0049197D01*
X0091945Y0050397D02*
X0097765Y0050397D01*
X0098594Y0050001D02*
X0098594Y0049794D01*
X0097460Y0051597D02*
X0091945Y0051597D01*
X0091945Y0052797D02*
X0097460Y0052797D01*
X0097460Y0053997D02*
X0091945Y0053997D01*
X0091945Y0055197D02*
X0102802Y0055197D01*
X0102194Y0054794D02*
X0102194Y0055805D01*
X0101602Y0056397D02*
X0091945Y0056397D01*
X0091945Y0057597D02*
X0100402Y0057597D01*
X0100994Y0057005D02*
X0100994Y0054794D01*
X0099794Y0054794D02*
X0099794Y0058205D01*
X0099202Y0058797D02*
X0091945Y0058797D01*
X0091945Y0059997D02*
X0098002Y0059997D01*
X0098594Y0059405D02*
X0098594Y0054794D01*
X0103394Y0059404D02*
X0103394Y0061063D01*
X0103069Y0061197D02*
X0101601Y0061197D01*
X0101341Y0061457D02*
X0101889Y0061457D01*
X0102346Y0061914D01*
X0103059Y0061201D01*
X0104161Y0060745D01*
X0104364Y0060745D01*
X0119060Y0046049D01*
X0119060Y0045702D01*
X0119761Y0045001D01*
X0121260Y0045001D01*
X0121260Y0044794D01*
X0119761Y0044794D01*
X0119060Y0044093D01*
X0119060Y0043738D01*
X0118960Y0043839D01*
X0101341Y0061457D01*
X0102194Y0061761D02*
X0102194Y0060604D01*
X0102801Y0059997D02*
X0105112Y0059997D01*
X0104594Y0060515D02*
X0104594Y0058204D01*
X0104001Y0058797D02*
X0106312Y0058797D01*
X0105794Y0059315D02*
X0105794Y0057004D01*
X0105201Y0057597D02*
X0107512Y0057597D01*
X0106994Y0058115D02*
X0106994Y0055804D01*
X0106401Y0056397D02*
X0108712Y0056397D01*
X0108194Y0056915D02*
X0108194Y0054604D01*
X0107601Y0055197D02*
X0109912Y0055197D01*
X0109394Y0055715D02*
X0109394Y0053404D01*
X0108801Y0053997D02*
X0111112Y0053997D01*
X0110594Y0054515D02*
X0110594Y0052204D01*
X0110001Y0052797D02*
X0112312Y0052797D01*
X0111794Y0053315D02*
X0111794Y0051004D01*
X0111201Y0051597D02*
X0113512Y0051597D01*
X0112994Y0052115D02*
X0112994Y0049804D01*
X0112401Y0050397D02*
X0114712Y0050397D01*
X0114194Y0050915D02*
X0114194Y0048604D01*
X0113601Y0049197D02*
X0115912Y0049197D01*
X0115394Y0049715D02*
X0115394Y0047404D01*
X0114801Y0047997D02*
X0117112Y0047997D01*
X0116594Y0048515D02*
X0116594Y0046204D01*
X0116001Y0046797D02*
X0118312Y0046797D01*
X0117794Y0047315D02*
X0117794Y0045004D01*
X0117201Y0045597D02*
X0119165Y0045597D01*
X0118994Y0046115D02*
X0118994Y0043804D01*
X0119363Y0044397D02*
X0118401Y0044397D01*
X0120194Y0044794D02*
X0120194Y0045001D01*
X0120194Y0040001D02*
X0120194Y0039794D01*
X0119954Y0039794D02*
X0121260Y0039794D01*
X0121260Y0040001D01*
X0119954Y0040001D01*
X0119954Y0039794D01*
X0116560Y0039597D02*
X0105350Y0039597D01*
X0105794Y0039153D02*
X0105794Y0040642D01*
X0105854Y0040797D02*
X0116560Y0040797D01*
X0116002Y0041997D02*
X0105854Y0041997D01*
X0105854Y0043197D02*
X0114802Y0043197D01*
X0115394Y0042605D02*
X0115394Y0022224D01*
X0116436Y0022797D02*
X0112160Y0022797D01*
X0111794Y0023163D02*
X0111794Y0046205D01*
X0111202Y0046797D02*
X0105854Y0046797D01*
X0105794Y0045642D02*
X0105794Y0044153D01*
X0105550Y0044397D02*
X0113602Y0044397D01*
X0114194Y0043805D02*
X0114194Y0021665D01*
X0112994Y0021963D02*
X0112994Y0045005D01*
X0112402Y0045597D02*
X0105748Y0045597D01*
X0104594Y0045001D02*
X0104594Y0044794D01*
X0105854Y0047997D02*
X0110002Y0047997D01*
X0110594Y0047405D02*
X0110594Y0024363D01*
X0110960Y0023997D02*
X0124102Y0023997D01*
X0123794Y0024305D02*
X0123794Y0011901D01*
X0124994Y0011901D02*
X0124994Y0023105D01*
X0125302Y0022797D02*
X0119107Y0022797D01*
X0118994Y0022844D02*
X0118994Y0029105D01*
X0119302Y0028797D02*
X0106160Y0028797D01*
X0105794Y0029163D02*
X0105794Y0035642D01*
X0105854Y0035997D02*
X0116560Y0035997D01*
X0116560Y0037197D02*
X0105854Y0037197D01*
X0105854Y0038397D02*
X0116560Y0038397D01*
X0116560Y0034797D02*
X0104775Y0034797D01*
X0104775Y0033597D02*
X0116560Y0033597D01*
X0116560Y0032397D02*
X0104775Y0032397D01*
X0104775Y0031197D02*
X0116902Y0031197D01*
X0116594Y0031505D02*
X0116594Y0022862D01*
X0117794Y0023039D02*
X0117794Y0030305D01*
X0118102Y0029997D02*
X0104960Y0029997D01*
X0106994Y0027963D02*
X0106994Y0051005D01*
X0106402Y0051597D02*
X0105854Y0051597D01*
X0105794Y0050642D02*
X0105794Y0049153D01*
X0105750Y0049197D02*
X0108802Y0049197D01*
X0109394Y0048605D02*
X0109394Y0025563D01*
X0109760Y0025197D02*
X0122902Y0025197D01*
X0122594Y0025505D02*
X0122594Y0011901D01*
X0121394Y0011901D02*
X0121394Y0018156D01*
X0121328Y0017997D02*
X0130102Y0017997D01*
X0129794Y0018305D02*
X0129794Y0011901D01*
X0130994Y0011901D02*
X0130994Y0017105D01*
X0131302Y0016797D02*
X0120635Y0016797D01*
X0120194Y0016356D02*
X0120194Y0011901D01*
X0118994Y0011901D02*
X0118994Y0015691D01*
X0118765Y0015597D02*
X0132502Y0015597D01*
X0132194Y0015905D02*
X0132194Y0011901D01*
X0133394Y0011901D02*
X0133394Y0014705D01*
X0133702Y0014397D02*
X0112686Y0014397D01*
X0112994Y0014089D02*
X0112994Y0016871D01*
X0114194Y0016871D02*
X0114194Y0012889D01*
X0113886Y0013197D02*
X0134902Y0013197D01*
X0134594Y0013505D02*
X0134594Y0011901D01*
X0134594Y0007107D02*
X0134594Y0005134D01*
X0135794Y0005134D02*
X0135794Y0007107D01*
X0136994Y0007107D02*
X0136994Y0005134D01*
X0138194Y0005134D02*
X0138194Y0007107D01*
X0139394Y0007107D02*
X0139394Y0005134D01*
X0140594Y0005134D02*
X0140594Y0007107D01*
X0141794Y0007107D02*
X0141794Y0005134D01*
X0142994Y0005134D02*
X0142994Y0007107D01*
X0144194Y0007107D02*
X0144194Y0005134D01*
X0145394Y0005134D02*
X0145394Y0007246D01*
X0145276Y0007197D02*
X0166748Y0007197D01*
X0166748Y0008397D02*
X0146865Y0008397D01*
X0146594Y0008125D02*
X0146594Y0005134D01*
X0147794Y0005134D02*
X0147794Y0009325D01*
X0148065Y0009597D02*
X0166748Y0009597D01*
X0166748Y0010797D02*
X0149265Y0010797D01*
X0148994Y0010525D02*
X0148994Y0005134D01*
X0150194Y0005134D02*
X0150194Y0011725D01*
X0150465Y0011997D02*
X0166748Y0011997D01*
X0166748Y0013197D02*
X0151665Y0013197D01*
X0151394Y0012925D02*
X0151394Y0005134D01*
X0152594Y0005134D02*
X0152594Y0014125D01*
X0152865Y0014397D02*
X0166748Y0014397D01*
X0166748Y0015597D02*
X0155340Y0015597D01*
X0154994Y0015496D02*
X0154994Y0005134D01*
X0156194Y0005134D02*
X0156194Y0015950D01*
X0157210Y0016797D02*
X0166748Y0016797D01*
X0166748Y0017997D02*
X0157902Y0017997D01*
X0157394Y0016981D02*
X0157394Y0005134D01*
X0158594Y0005134D02*
X0158594Y0020125D01*
X0158865Y0020397D02*
X0159614Y0020397D01*
X0159794Y0020303D02*
X0159794Y0005134D01*
X0160994Y0005134D02*
X0160994Y0019908D01*
X0162194Y0020013D02*
X0162194Y0005134D01*
X0163394Y0005134D02*
X0163394Y0020716D01*
X0163074Y0020397D02*
X0166748Y0020397D01*
X0166748Y0021597D02*
X0164046Y0021597D01*
X0164341Y0022797D02*
X0166748Y0022797D01*
X0166748Y0023997D02*
X0164135Y0023997D01*
X0163394Y0025093D02*
X0163394Y0061457D01*
X0164594Y0061457D02*
X0164594Y0005134D01*
X0165794Y0005134D02*
X0165794Y0061581D01*
X0166370Y0062397D02*
X0166748Y0062397D01*
X0166748Y0063597D02*
X0166370Y0063597D01*
X0166370Y0064797D02*
X0166748Y0064797D01*
X0166748Y0065997D02*
X0166370Y0065997D01*
X0166370Y0067197D02*
X0166748Y0067197D01*
X0166748Y0068397D02*
X0165847Y0068397D01*
X0165794Y0068450D02*
X0165794Y0069455D01*
X0165935Y0069597D02*
X0166748Y0069597D01*
X0166748Y0070797D02*
X0166370Y0070797D01*
X0166370Y0071997D02*
X0166748Y0071997D01*
X0166748Y0073197D02*
X0166370Y0073197D01*
X0166370Y0074397D02*
X0166748Y0074397D01*
X0166748Y0075597D02*
X0166370Y0075597D01*
X0165794Y0076324D02*
X0165794Y0077329D01*
X0166370Y0077997D02*
X0166748Y0077997D01*
X0166748Y0079197D02*
X0166370Y0079197D01*
X0166370Y0080397D02*
X0166748Y0080397D01*
X0166748Y0081597D02*
X0166370Y0081597D01*
X0166370Y0082797D02*
X0166748Y0082797D01*
X0166748Y0083997D02*
X0165995Y0083997D01*
X0165794Y0084198D02*
X0165794Y0085203D01*
X0165787Y0085197D02*
X0166748Y0085197D01*
X0166748Y0086397D02*
X0166370Y0086397D01*
X0166370Y0087597D02*
X0166748Y0087597D01*
X0166748Y0088797D02*
X0166370Y0088797D01*
X0166370Y0089997D02*
X0166748Y0089997D01*
X0166748Y0091197D02*
X0166370Y0091197D01*
X0165794Y0092072D02*
X0165794Y0093077D01*
X0166313Y0093597D02*
X0166748Y0093597D01*
X0166748Y0094797D02*
X0166370Y0094797D01*
X0166370Y0095997D02*
X0166748Y0095997D01*
X0166748Y0097197D02*
X0166370Y0097197D01*
X0166370Y0098397D02*
X0166748Y0098397D01*
X0166748Y0099597D02*
X0166143Y0099597D01*
X0165794Y0099946D02*
X0165794Y0100952D01*
X0164594Y0100827D02*
X0164594Y0100071D01*
X0163394Y0100071D02*
X0163394Y0100827D01*
X0162194Y0100827D02*
X0162194Y0100071D01*
X0160994Y0100071D02*
X0160994Y0100827D01*
X0159794Y0100827D02*
X0159794Y0100071D01*
X0158594Y0100071D02*
X0158594Y0100827D01*
X0157394Y0100827D02*
X0157394Y0100071D01*
X0156102Y0098397D02*
X0124060Y0098397D01*
X0124060Y0097197D02*
X0156102Y0097197D01*
X0156102Y0095997D02*
X0124060Y0095997D01*
X0120066Y0092397D02*
X0112701Y0092397D01*
X0112994Y0092104D02*
X0112994Y0111587D01*
X0112969Y0111597D02*
X0102591Y0111597D01*
X0102591Y0110397D02*
X0129581Y0110397D01*
X0129794Y0110610D02*
X0129794Y0117845D01*
X0129794Y0121239D02*
X0129794Y0124937D01*
X0130994Y0124937D02*
X0130994Y0121239D01*
X0132194Y0121239D02*
X0132194Y0124937D01*
X0133394Y0124937D02*
X0133394Y0121239D01*
X0134594Y0121239D02*
X0134594Y0124937D01*
X0135794Y0124937D02*
X0135794Y0121239D01*
X0136994Y0121239D02*
X0136994Y0124937D01*
X0138194Y0124937D02*
X0138194Y0121239D01*
X0139394Y0121239D02*
X0139394Y0124937D01*
X0140594Y0124937D02*
X0140594Y0121239D01*
X0141794Y0121239D02*
X0141794Y0124937D01*
X0142994Y0124937D02*
X0142994Y0121239D01*
X0144194Y0121239D02*
X0144194Y0124937D01*
X0145394Y0124937D02*
X0145394Y0121239D01*
X0146594Y0121239D02*
X0146594Y0124937D01*
X0147794Y0124937D02*
X0147794Y0121239D01*
X0148994Y0121239D02*
X0148994Y0124937D01*
X0150194Y0124937D02*
X0150194Y0121239D01*
X0151394Y0121239D02*
X0151394Y0124937D01*
X0152594Y0124937D02*
X0152594Y0121239D01*
X0153794Y0121239D02*
X0153794Y0124937D01*
X0154994Y0124937D02*
X0154994Y0121239D01*
X0158594Y0123693D02*
X0158594Y0124937D01*
X0159794Y0124937D02*
X0159794Y0123693D01*
X0160994Y0123693D02*
X0160994Y0124937D01*
X0162194Y0124937D02*
X0162194Y0123693D01*
X0163394Y0123693D02*
X0163394Y0124937D01*
X0164594Y0124937D02*
X0164594Y0123693D01*
X0165794Y0116700D02*
X0165794Y0115694D01*
X0166291Y0115197D02*
X0166748Y0115197D01*
X0166748Y0113997D02*
X0166370Y0113997D01*
X0166370Y0112797D02*
X0166748Y0112797D01*
X0166748Y0111597D02*
X0166370Y0111597D01*
X0166370Y0110397D02*
X0166748Y0110397D01*
X0166748Y0109197D02*
X0166165Y0109197D01*
X0165794Y0108826D02*
X0165794Y0107820D01*
X0164594Y0107945D02*
X0164594Y0108701D01*
X0163394Y0108701D02*
X0163394Y0107945D01*
X0162194Y0107945D02*
X0162194Y0108701D01*
X0160994Y0108701D02*
X0160994Y0107945D01*
X0159794Y0107945D02*
X0159794Y0108701D01*
X0158594Y0108701D02*
X0158594Y0107945D01*
X0157394Y0107945D02*
X0157394Y0108701D01*
X0156307Y0109197D02*
X0134029Y0109197D01*
X0134594Y0109762D02*
X0134594Y0091204D01*
X0134601Y0091197D02*
X0156102Y0091197D01*
X0156194Y0091587D02*
X0156194Y0093563D01*
X0157394Y0092953D02*
X0157394Y0092197D01*
X0158594Y0092197D02*
X0158594Y0092953D01*
X0159794Y0092953D02*
X0159794Y0092197D01*
X0160994Y0092197D02*
X0160994Y0092953D01*
X0162194Y0092953D02*
X0162194Y0092197D01*
X0163394Y0092197D02*
X0163394Y0092953D01*
X0164594Y0092953D02*
X0164594Y0092197D01*
X0166748Y0092397D02*
X0133854Y0092397D01*
X0135794Y0090639D02*
X0135794Y0110345D01*
X0136994Y0110345D02*
X0136994Y0090639D01*
X0138194Y0090639D02*
X0138194Y0110345D01*
X0139394Y0110345D02*
X0139394Y0090639D01*
X0140594Y0090639D02*
X0140594Y0110345D01*
X0141794Y0110345D02*
X0141794Y0090639D01*
X0142994Y0090639D02*
X0142994Y0110345D01*
X0144194Y0110345D02*
X0144194Y0090639D01*
X0145394Y0090639D02*
X0145394Y0110345D01*
X0146594Y0110345D02*
X0146594Y0090639D01*
X0147794Y0090639D02*
X0147794Y0110345D01*
X0148994Y0110345D02*
X0148994Y0090639D01*
X0150194Y0090639D02*
X0150194Y0110345D01*
X0151394Y0110345D02*
X0151394Y0090639D01*
X0152594Y0090639D02*
X0152594Y0110345D01*
X0153794Y0110345D02*
X0153794Y0090639D01*
X0154994Y0090639D02*
X0154994Y0110345D01*
X0156194Y0109311D02*
X0156194Y0107335D01*
X0156181Y0115197D02*
X0118112Y0115197D01*
X0117794Y0114879D02*
X0117794Y0087304D01*
X0117501Y0087597D02*
X0119526Y0087597D01*
X0115394Y0084905D02*
X0115394Y0062704D01*
X0115701Y0062397D02*
X0137902Y0062397D01*
X0138194Y0062105D02*
X0138194Y0058185D01*
X0137950Y0057597D02*
X0120501Y0057597D01*
X0120194Y0057904D02*
X0120194Y0080105D01*
X0119902Y0080397D02*
X0102591Y0080397D01*
X0102591Y0081597D02*
X0118702Y0081597D01*
X0118994Y0081305D02*
X0118994Y0059104D01*
X0119301Y0058797D02*
X0138774Y0058797D01*
X0139394Y0059221D02*
X0139394Y0060905D01*
X0139102Y0061197D02*
X0116901Y0061197D01*
X0116594Y0061504D02*
X0116594Y0083705D01*
X0116302Y0083997D02*
X0102215Y0083997D01*
X0102194Y0084019D02*
X0102194Y0085383D01*
X0102008Y0085197D02*
X0115102Y0085197D01*
X0114194Y0086105D02*
X0114194Y0063904D01*
X0114501Y0063597D02*
X0136702Y0063597D01*
X0136994Y0063305D02*
X0136994Y0054205D01*
X0137924Y0053997D02*
X0139069Y0053997D01*
X0138194Y0053727D02*
X0138194Y0054898D01*
X0138070Y0055197D02*
X0122901Y0055197D01*
X0122594Y0055504D02*
X0122594Y0077705D01*
X0122302Y0077997D02*
X0102591Y0077997D01*
X0102591Y0079197D02*
X0121102Y0079197D01*
X0121394Y0078905D02*
X0121394Y0056704D01*
X0121701Y0056397D02*
X0137760Y0056397D01*
X0135794Y0054205D02*
X0135794Y0064505D01*
X0135502Y0064797D02*
X0113301Y0064797D01*
X0112994Y0065104D02*
X0112994Y0087305D01*
X0112702Y0087597D02*
X0102591Y0087597D01*
X0102591Y0088797D02*
X0111502Y0088797D01*
X0111794Y0088505D02*
X0111794Y0066304D01*
X0112101Y0065997D02*
X0134302Y0065997D01*
X0134594Y0065705D02*
X0134594Y0054205D01*
X0133394Y0054205D02*
X0133394Y0066905D01*
X0133102Y0067197D02*
X0110901Y0067197D01*
X0110594Y0067504D02*
X0110594Y0089705D01*
X0110302Y0089997D02*
X0102591Y0089997D01*
X0102591Y0086397D02*
X0113902Y0086397D01*
X0117502Y0082797D02*
X0102591Y0082797D01*
X0100994Y0084323D02*
X0100994Y0085079D01*
X0099794Y0085079D02*
X0099794Y0084323D01*
X0098594Y0084323D02*
X0098594Y0085079D01*
X0097394Y0085079D02*
X0097394Y0084323D01*
X0096194Y0084323D02*
X0096194Y0085079D01*
X0094994Y0085079D02*
X0094994Y0084323D01*
X0093794Y0084323D02*
X0093794Y0085079D01*
X0091945Y0076797D02*
X0123502Y0076797D01*
X0123794Y0076505D02*
X0123794Y0054794D01*
X0119060Y0053997D02*
X0117891Y0053997D01*
X0117794Y0054094D02*
X0117794Y0055505D01*
X0118102Y0055197D02*
X0116691Y0055197D01*
X0116594Y0055294D02*
X0116594Y0056705D01*
X0116902Y0056397D02*
X0115491Y0056397D01*
X0115394Y0056494D02*
X0115394Y0057905D01*
X0115702Y0057597D02*
X0114291Y0057597D01*
X0114194Y0057694D02*
X0114194Y0059105D01*
X0114502Y0058797D02*
X0113091Y0058797D01*
X0112994Y0058894D02*
X0112994Y0060305D01*
X0113302Y0059997D02*
X0111891Y0059997D01*
X0111794Y0060094D02*
X0111794Y0061505D01*
X0112102Y0061197D02*
X0110691Y0061197D01*
X0110594Y0061294D02*
X0110594Y0062705D01*
X0110902Y0062397D02*
X0109491Y0062397D01*
X0109394Y0062494D02*
X0109394Y0063905D01*
X0109702Y0063597D02*
X0108291Y0063597D01*
X0108194Y0063694D02*
X0108194Y0065105D01*
X0108502Y0064797D02*
X0107563Y0064797D01*
X0106994Y0065743D02*
X0106994Y0066305D01*
X0106740Y0065997D02*
X0107302Y0065997D01*
X0105794Y0066556D02*
X0105794Y0067505D01*
X0106102Y0067197D02*
X0102591Y0067197D01*
X0103394Y0066421D02*
X0103394Y0069905D01*
X0103702Y0069597D02*
X0102156Y0069597D01*
X0102194Y0069635D02*
X0102194Y0068271D01*
X0102067Y0068397D02*
X0104902Y0068397D01*
X0104594Y0068705D02*
X0104594Y0066739D01*
X0102774Y0065997D02*
X0102591Y0065997D01*
X0100994Y0068575D02*
X0100994Y0069331D01*
X0099794Y0069331D02*
X0099794Y0068575D01*
X0098594Y0068575D02*
X0098594Y0069331D01*
X0097394Y0069331D02*
X0097394Y0068575D01*
X0096194Y0068575D02*
X0096194Y0069331D01*
X0094994Y0069331D02*
X0094994Y0068575D01*
X0093794Y0068575D02*
X0093794Y0069331D01*
X0092758Y0069597D02*
X0091945Y0069597D01*
X0092594Y0069761D02*
X0092594Y0068145D01*
X0092846Y0068397D02*
X0091945Y0068397D01*
X0091945Y0067197D02*
X0092323Y0067197D01*
X0092323Y0065997D02*
X0091945Y0065997D01*
X0091945Y0064797D02*
X0092323Y0064797D01*
X0092323Y0063597D02*
X0091945Y0063597D01*
X0091945Y0062397D02*
X0092323Y0062397D01*
X0092594Y0061887D02*
X0092594Y0005134D01*
X0091945Y0005997D02*
X0166748Y0005997D01*
X0153794Y0005134D02*
X0153794Y0015325D01*
X0149686Y0017997D02*
X0149654Y0017997D01*
X0150194Y0018505D02*
X0150194Y0033245D01*
X0149654Y0032397D02*
X0166748Y0032397D01*
X0166748Y0033597D02*
X0154412Y0033597D01*
X0153794Y0033245D02*
X0153794Y0023039D01*
X0153011Y0022797D02*
X0149654Y0022797D01*
X0149654Y0023997D02*
X0155686Y0023997D01*
X0156194Y0024505D02*
X0156194Y0035379D01*
X0155612Y0034797D02*
X0166748Y0034797D01*
X0166748Y0035997D02*
X0160701Y0035997D01*
X0160994Y0036289D02*
X0160994Y0025902D01*
X0162194Y0025797D02*
X0162194Y0061457D01*
X0160994Y0061457D02*
X0160994Y0053762D01*
X0160759Y0053997D02*
X0166748Y0053997D01*
X0166748Y0055197D02*
X0159554Y0055197D01*
X0159794Y0054441D02*
X0159794Y0061457D01*
X0159554Y0061197D02*
X0166748Y0061197D01*
X0166748Y0059997D02*
X0159554Y0059997D01*
X0159554Y0058797D02*
X0166748Y0058797D01*
X0166748Y0057597D02*
X0159554Y0057597D01*
X0159554Y0056397D02*
X0166748Y0056397D01*
X0166748Y0052797D02*
X0161016Y0052797D01*
X0161016Y0051597D02*
X0166748Y0051597D01*
X0166748Y0050397D02*
X0161016Y0050397D01*
X0161016Y0049197D02*
X0166748Y0049197D01*
X0166748Y0047997D02*
X0160595Y0047997D01*
X0160994Y0048396D02*
X0160994Y0041656D01*
X0160652Y0041997D02*
X0166748Y0041997D01*
X0166748Y0043197D02*
X0152354Y0043197D01*
X0152594Y0042335D02*
X0152594Y0047717D01*
X0151394Y0047717D02*
X0151394Y0046504D01*
X0151101Y0046797D02*
X0166748Y0046797D01*
X0166748Y0045597D02*
X0152301Y0045597D01*
X0152354Y0044397D02*
X0166748Y0044397D01*
X0166748Y0040797D02*
X0161016Y0040797D01*
X0161016Y0039597D02*
X0166748Y0039597D01*
X0166748Y0038397D02*
X0161016Y0038397D01*
X0161016Y0037197D02*
X0166748Y0037197D01*
X0166748Y0031197D02*
X0149654Y0031197D01*
X0149654Y0029997D02*
X0166748Y0029997D01*
X0166748Y0028797D02*
X0149654Y0028797D01*
X0149654Y0027597D02*
X0166748Y0027597D01*
X0166748Y0026397D02*
X0149654Y0026397D01*
X0149654Y0025197D02*
X0157254Y0025197D01*
X0157394Y0025255D02*
X0157394Y0035610D01*
X0158594Y0035610D02*
X0158594Y0025302D01*
X0159794Y0025506D02*
X0159794Y0035610D01*
X0154994Y0034179D02*
X0154994Y0023305D01*
X0152594Y0022624D02*
X0152594Y0033245D01*
X0151394Y0033245D02*
X0151394Y0021649D01*
X0151342Y0021597D02*
X0149654Y0021597D01*
X0149654Y0020397D02*
X0150732Y0020397D01*
X0150575Y0019197D02*
X0149654Y0019197D01*
X0145712Y0017997D02*
X0144123Y0017997D01*
X0145394Y0017678D02*
X0145394Y0028745D01*
X0145394Y0032139D02*
X0145394Y0036005D01*
X0145402Y0035997D02*
X0144855Y0035997D01*
X0144194Y0035709D02*
X0144194Y0032143D01*
X0143940Y0032397D02*
X0146260Y0032397D01*
X0146260Y0033597D02*
X0125769Y0033597D01*
X0126194Y0033172D02*
X0126194Y0035001D01*
X0125641Y0034797D02*
X0146260Y0034797D01*
X0142994Y0035709D02*
X0142994Y0033132D01*
X0141794Y0033439D02*
X0141794Y0035709D01*
X0140594Y0035709D02*
X0140594Y0033245D01*
X0138937Y0037197D02*
X0138575Y0037197D01*
X0138575Y0038397D02*
X0138937Y0038397D01*
X0138937Y0039597D02*
X0138812Y0039597D01*
X0136994Y0042578D02*
X0136994Y0047480D01*
X0135794Y0047480D02*
X0135794Y0042433D01*
X0134594Y0042433D02*
X0134594Y0047480D01*
X0138417Y0049197D02*
X0138780Y0049197D01*
X0138780Y0050397D02*
X0138417Y0050397D01*
X0138417Y0051597D02*
X0138780Y0051597D01*
X0138780Y0052797D02*
X0138417Y0052797D01*
X0143354Y0054205D02*
X0143354Y0054980D01*
X0143560Y0055478D01*
X0143560Y0054205D01*
X0143354Y0054205D01*
X0143443Y0055197D02*
X0143560Y0055197D01*
X0140594Y0059539D02*
X0140594Y0059705D01*
X0140302Y0059997D02*
X0118101Y0059997D01*
X0117794Y0060304D02*
X0117794Y0082505D01*
X0130994Y0089545D02*
X0130994Y0074104D01*
X0130701Y0074397D02*
X0151712Y0074397D01*
X0151394Y0074078D02*
X0151394Y0087245D01*
X0154994Y0087245D02*
X0154994Y0077678D01*
X0158594Y0076479D02*
X0158594Y0076449D01*
X0158912Y0076797D02*
X0166748Y0076797D01*
X0164594Y0076449D02*
X0164594Y0077205D01*
X0163394Y0077205D02*
X0163394Y0076449D01*
X0162194Y0076449D02*
X0162194Y0077205D01*
X0160994Y0077205D02*
X0160994Y0076449D01*
X0159794Y0076449D02*
X0159794Y0077205D01*
X0159794Y0084323D02*
X0159794Y0085079D01*
X0160994Y0085079D02*
X0160994Y0084323D01*
X0162194Y0084323D02*
X0162194Y0085079D01*
X0163394Y0085079D02*
X0163394Y0084323D01*
X0164594Y0084323D02*
X0164594Y0085079D01*
X0158594Y0085079D02*
X0158594Y0084323D01*
X0147794Y0087245D02*
X0147794Y0070478D01*
X0148112Y0070797D02*
X0134301Y0070797D01*
X0134594Y0070504D02*
X0134594Y0087245D01*
X0135794Y0087245D02*
X0135794Y0069304D01*
X0135501Y0069597D02*
X0146912Y0069597D01*
X0146594Y0069278D02*
X0146594Y0087245D01*
X0145394Y0087245D02*
X0145394Y0068078D01*
X0145712Y0068397D02*
X0136701Y0068397D01*
X0136994Y0068104D02*
X0136994Y0087245D01*
X0138194Y0087245D02*
X0138194Y0066904D01*
X0137901Y0067197D02*
X0145360Y0067197D01*
X0145360Y0065997D02*
X0139101Y0065997D01*
X0139394Y0065704D02*
X0139394Y0087245D01*
X0140594Y0087245D02*
X0140594Y0064504D01*
X0140301Y0064797D02*
X0145360Y0064797D01*
X0145360Y0063597D02*
X0141501Y0063597D01*
X0141794Y0063304D02*
X0141794Y0087245D01*
X0142994Y0087245D02*
X0142994Y0062104D01*
X0142701Y0062397D02*
X0145360Y0062397D01*
X0145360Y0061197D02*
X0143901Y0061197D01*
X0144194Y0060904D02*
X0144194Y0087245D01*
X0155312Y0069597D02*
X0156537Y0069597D01*
X0156194Y0069940D02*
X0156194Y0067965D01*
X0156626Y0068397D02*
X0155195Y0068397D01*
X0154994Y0068480D02*
X0154994Y0069279D01*
X0157394Y0069331D02*
X0157394Y0068575D01*
X0158594Y0068575D02*
X0158594Y0069331D01*
X0159794Y0069331D02*
X0159794Y0068575D01*
X0160994Y0068575D02*
X0160994Y0069331D01*
X0162194Y0069331D02*
X0162194Y0068575D01*
X0163394Y0068575D02*
X0163394Y0069331D01*
X0164594Y0069331D02*
X0164594Y0068575D01*
X0156102Y0062397D02*
X0152354Y0062397D01*
X0152594Y0062987D02*
X0152594Y0054441D01*
X0152354Y0055197D02*
X0156160Y0055197D01*
X0156160Y0056397D02*
X0152354Y0056397D01*
X0152354Y0057597D02*
X0156160Y0057597D01*
X0156160Y0058797D02*
X0152354Y0058797D01*
X0152354Y0059997D02*
X0156160Y0059997D01*
X0156160Y0061197D02*
X0152354Y0061197D01*
X0153794Y0062545D02*
X0153794Y0054269D01*
X0154066Y0053997D02*
X0154942Y0053997D01*
X0154994Y0054048D02*
X0154994Y0062603D01*
X0148960Y0062397D02*
X0148754Y0062397D01*
X0148754Y0063597D02*
X0148960Y0063597D01*
X0148960Y0064797D02*
X0148754Y0064797D01*
X0148754Y0065997D02*
X0148960Y0065997D01*
X0148754Y0066639D02*
X0148960Y0066845D01*
X0148960Y0054441D01*
X0148754Y0054441D01*
X0148754Y0066639D01*
X0148754Y0061197D02*
X0148960Y0061197D01*
X0148960Y0059997D02*
X0148754Y0059997D01*
X0148754Y0058797D02*
X0148960Y0058797D01*
X0148960Y0057597D02*
X0148754Y0057597D01*
X0148754Y0056397D02*
X0148960Y0056397D01*
X0148960Y0055197D02*
X0148754Y0055197D01*
X0145360Y0059997D02*
X0145101Y0059997D01*
X0154323Y0052797D02*
X0154685Y0052797D01*
X0154685Y0051597D02*
X0154323Y0051597D01*
X0154323Y0050397D02*
X0154685Y0050397D01*
X0154685Y0049197D02*
X0154323Y0049197D01*
X0153902Y0047997D02*
X0155106Y0047997D01*
X0154994Y0048109D02*
X0154994Y0041942D01*
X0155048Y0041997D02*
X0153960Y0041997D01*
X0153794Y0042163D02*
X0153794Y0047889D01*
X0156194Y0047717D02*
X0156194Y0042335D01*
X0157394Y0042335D02*
X0157394Y0047717D01*
X0158594Y0047717D02*
X0158594Y0042335D01*
X0159794Y0042335D02*
X0159794Y0047717D01*
X0154685Y0040797D02*
X0154323Y0040797D01*
X0154323Y0039597D02*
X0154685Y0039597D01*
X0154412Y0038397D02*
X0154323Y0038397D01*
X0147992Y0038397D02*
X0147801Y0038397D01*
X0147794Y0038404D02*
X0147794Y0045305D01*
X0147502Y0045597D02*
X0145712Y0045597D01*
X0145960Y0045845D02*
X0145060Y0044945D01*
X0144160Y0044945D01*
X0141648Y0042433D01*
X0144567Y0042433D01*
X0145268Y0041732D01*
X0145268Y0040239D01*
X0145960Y0040239D01*
X0147992Y0038206D01*
X0147992Y0041634D01*
X0148693Y0042335D01*
X0148960Y0042335D01*
X0148960Y0044139D01*
X0146607Y0046492D01*
X0145960Y0045845D01*
X0145394Y0045279D02*
X0145394Y0040239D01*
X0145268Y0040797D02*
X0147992Y0040797D01*
X0147992Y0039597D02*
X0146601Y0039597D01*
X0146594Y0039604D02*
X0146594Y0046479D01*
X0144194Y0044945D02*
X0144194Y0042433D01*
X0145003Y0041997D02*
X0148355Y0041997D01*
X0148960Y0043197D02*
X0142412Y0043197D01*
X0142994Y0043779D02*
X0142994Y0042433D01*
X0141794Y0042433D02*
X0141794Y0042579D01*
X0143612Y0044397D02*
X0148702Y0044397D01*
X0150194Y0047704D02*
X0150194Y0047717D01*
X0141794Y0047480D02*
X0141794Y0047378D01*
X0123504Y0049794D02*
X0122094Y0049794D01*
X0121887Y0050001D01*
X0123298Y0050001D01*
X0123504Y0049794D01*
X0122594Y0049794D02*
X0122594Y0050001D01*
X0118994Y0052894D02*
X0118994Y0054305D01*
X0108194Y0049805D02*
X0108194Y0026763D01*
X0108560Y0026397D02*
X0121702Y0026397D01*
X0121394Y0026705D02*
X0121394Y0020379D01*
X0121386Y0020397D02*
X0127702Y0020397D01*
X0127394Y0020705D02*
X0127394Y0011901D01*
X0128594Y0011901D02*
X0128594Y0019505D01*
X0128902Y0019197D02*
X0121543Y0019197D01*
X0120776Y0021597D02*
X0126502Y0021597D01*
X0126194Y0021905D02*
X0126194Y0011901D01*
X0126194Y0007107D02*
X0126194Y0005134D01*
X0127394Y0005134D02*
X0127394Y0007107D01*
X0128594Y0007107D02*
X0128594Y0005134D01*
X0129794Y0005134D02*
X0129794Y0007107D01*
X0130994Y0007107D02*
X0130994Y0005134D01*
X0132194Y0005134D02*
X0132194Y0007107D01*
X0133394Y0007107D02*
X0133394Y0005134D01*
X0124994Y0005134D02*
X0124994Y0007107D01*
X0123794Y0007107D02*
X0123794Y0005134D01*
X0122594Y0005134D02*
X0122594Y0007107D01*
X0121394Y0007107D02*
X0121394Y0005134D01*
X0120194Y0005134D02*
X0120194Y0007107D01*
X0118994Y0007107D02*
X0118994Y0005134D01*
X0117794Y0005134D02*
X0117794Y0007107D01*
X0116594Y0007107D02*
X0116594Y0005134D01*
X0115394Y0005134D02*
X0115394Y0007107D01*
X0114194Y0007107D02*
X0114194Y0005134D01*
X0112994Y0005134D02*
X0112994Y0007405D01*
X0113495Y0007197D02*
X0091945Y0007197D01*
X0091945Y0008397D02*
X0111906Y0008397D01*
X0111794Y0008510D02*
X0111794Y0005134D01*
X0110594Y0005134D02*
X0110594Y0009710D01*
X0110706Y0009597D02*
X0091945Y0009597D01*
X0091945Y0010797D02*
X0109506Y0010797D01*
X0109394Y0010910D02*
X0109394Y0005134D01*
X0108194Y0005134D02*
X0108194Y0012110D01*
X0108306Y0011997D02*
X0091945Y0011997D01*
X0091945Y0013197D02*
X0107106Y0013197D01*
X0106994Y0013310D02*
X0106994Y0005134D01*
X0105794Y0005134D02*
X0105794Y0014510D01*
X0105906Y0014397D02*
X0091945Y0014397D01*
X0091945Y0015597D02*
X0102999Y0015597D01*
X0103394Y0015496D02*
X0103394Y0005134D01*
X0104594Y0005134D02*
X0104594Y0015496D01*
X0102194Y0015930D02*
X0102194Y0005134D01*
X0100994Y0005134D02*
X0100994Y0016932D01*
X0101129Y0016797D02*
X0091945Y0016797D01*
X0091945Y0017997D02*
X0100436Y0017997D01*
X0100220Y0019197D02*
X0091945Y0019197D01*
X0091945Y0020397D02*
X0100377Y0020397D01*
X0102194Y0022605D02*
X0102194Y0025984D01*
X0101780Y0026397D02*
X0091945Y0026397D01*
X0098594Y0035001D02*
X0098594Y0005134D01*
X0099794Y0005134D02*
X0099794Y0035001D01*
X0098594Y0039794D02*
X0098594Y0040001D01*
X0104594Y0040001D02*
X0104594Y0039794D01*
X0104594Y0049794D02*
X0104594Y0050001D01*
X0105548Y0050397D02*
X0107602Y0050397D01*
X0097394Y0060605D02*
X0097394Y0005134D01*
X0096194Y0005134D02*
X0096194Y0061457D01*
X0096802Y0061197D02*
X0091945Y0061197D01*
X0093794Y0061457D02*
X0093794Y0005134D01*
X0094994Y0005134D02*
X0094994Y0061457D01*
X0083755Y0064189D02*
X0083757Y0064277D01*
X0083763Y0064365D01*
X0083773Y0064453D01*
X0083787Y0064541D01*
X0083804Y0064627D01*
X0083826Y0064713D01*
X0083851Y0064797D01*
X0083881Y0064881D01*
X0083913Y0064963D01*
X0083950Y0065043D01*
X0083990Y0065122D01*
X0084034Y0065199D01*
X0084081Y0065274D01*
X0084131Y0065346D01*
X0084185Y0065417D01*
X0084241Y0065484D01*
X0084301Y0065550D01*
X0084363Y0065612D01*
X0084429Y0065672D01*
X0084496Y0065728D01*
X0084567Y0065782D01*
X0084639Y0065832D01*
X0084714Y0065879D01*
X0084791Y0065923D01*
X0084870Y0065963D01*
X0084950Y0066000D01*
X0085032Y0066032D01*
X0085116Y0066062D01*
X0085200Y0066087D01*
X0085286Y0066109D01*
X0085372Y0066126D01*
X0085460Y0066140D01*
X0085548Y0066150D01*
X0085636Y0066156D01*
X0085724Y0066158D01*
X0085812Y0066156D01*
X0085900Y0066150D01*
X0085988Y0066140D01*
X0086076Y0066126D01*
X0086162Y0066109D01*
X0086248Y0066087D01*
X0086332Y0066062D01*
X0086416Y0066032D01*
X0086498Y0066000D01*
X0086578Y0065963D01*
X0086657Y0065923D01*
X0086734Y0065879D01*
X0086809Y0065832D01*
X0086881Y0065782D01*
X0086952Y0065728D01*
X0087019Y0065672D01*
X0087085Y0065612D01*
X0087147Y0065550D01*
X0087207Y0065484D01*
X0087263Y0065417D01*
X0087317Y0065346D01*
X0087367Y0065274D01*
X0087414Y0065199D01*
X0087458Y0065122D01*
X0087498Y0065043D01*
X0087535Y0064963D01*
X0087567Y0064881D01*
X0087597Y0064797D01*
X0087622Y0064713D01*
X0087644Y0064627D01*
X0087661Y0064541D01*
X0087675Y0064453D01*
X0087685Y0064365D01*
X0087691Y0064277D01*
X0087693Y0064189D01*
X0087691Y0064101D01*
X0087685Y0064013D01*
X0087675Y0063925D01*
X0087661Y0063837D01*
X0087644Y0063751D01*
X0087622Y0063665D01*
X0087597Y0063581D01*
X0087567Y0063497D01*
X0087535Y0063415D01*
X0087498Y0063335D01*
X0087458Y0063256D01*
X0087414Y0063179D01*
X0087367Y0063104D01*
X0087317Y0063032D01*
X0087263Y0062961D01*
X0087207Y0062894D01*
X0087147Y0062828D01*
X0087085Y0062766D01*
X0087019Y0062706D01*
X0086952Y0062650D01*
X0086881Y0062596D01*
X0086809Y0062546D01*
X0086734Y0062499D01*
X0086657Y0062455D01*
X0086578Y0062415D01*
X0086498Y0062378D01*
X0086416Y0062346D01*
X0086332Y0062316D01*
X0086248Y0062291D01*
X0086162Y0062269D01*
X0086076Y0062252D01*
X0085988Y0062238D01*
X0085900Y0062228D01*
X0085812Y0062222D01*
X0085724Y0062220D01*
X0085636Y0062222D01*
X0085548Y0062228D01*
X0085460Y0062238D01*
X0085372Y0062252D01*
X0085286Y0062269D01*
X0085200Y0062291D01*
X0085116Y0062316D01*
X0085032Y0062346D01*
X0084950Y0062378D01*
X0084870Y0062415D01*
X0084791Y0062455D01*
X0084714Y0062499D01*
X0084639Y0062546D01*
X0084567Y0062596D01*
X0084496Y0062650D01*
X0084429Y0062706D01*
X0084363Y0062766D01*
X0084301Y0062828D01*
X0084241Y0062894D01*
X0084185Y0062961D01*
X0084131Y0063032D01*
X0084081Y0063104D01*
X0084034Y0063179D01*
X0083990Y0063256D01*
X0083950Y0063335D01*
X0083913Y0063415D01*
X0083881Y0063497D01*
X0083851Y0063581D01*
X0083826Y0063665D01*
X0083804Y0063751D01*
X0083787Y0063837D01*
X0083773Y0063925D01*
X0083763Y0064013D01*
X0083757Y0064101D01*
X0083755Y0064189D01*
X0078194Y0068575D02*
X0078194Y0069331D01*
X0076994Y0069331D02*
X0076994Y0068575D01*
X0075794Y0068575D02*
X0075794Y0069331D01*
X0074594Y0069331D02*
X0074594Y0068575D01*
X0073394Y0068575D02*
X0073394Y0069331D01*
X0072194Y0069331D02*
X0072194Y0068575D01*
X0070994Y0068575D02*
X0070994Y0069331D01*
X0069923Y0069597D02*
X0068697Y0069597D01*
X0068594Y0069493D02*
X0068594Y0068391D01*
X0068581Y0068397D02*
X0070011Y0068397D01*
X0069794Y0068179D02*
X0069794Y0069726D01*
X0062346Y0066845D02*
X0062346Y0054441D01*
X0062139Y0054441D01*
X0062139Y0066639D01*
X0062346Y0066845D01*
X0062346Y0065997D02*
X0062139Y0065997D01*
X0062139Y0064797D02*
X0062346Y0064797D01*
X0062346Y0063597D02*
X0062139Y0063597D01*
X0062139Y0062397D02*
X0062346Y0062397D01*
X0062346Y0061197D02*
X0062139Y0061197D01*
X0062139Y0059997D02*
X0062346Y0059997D01*
X0062346Y0058797D02*
X0062139Y0058797D01*
X0062139Y0057597D02*
X0062346Y0057597D01*
X0062346Y0056397D02*
X0062139Y0056397D01*
X0062139Y0055197D02*
X0062346Y0055197D01*
X0056946Y0055197D02*
X0056829Y0055197D01*
X0056739Y0054980D02*
X0056946Y0055478D01*
X0056946Y0054205D01*
X0056739Y0054205D01*
X0056739Y0054980D01*
X0058487Y0059997D02*
X0058746Y0059997D01*
X0063794Y0047717D02*
X0063794Y0047490D01*
X0064487Y0046797D02*
X0080134Y0046797D01*
X0080134Y0045597D02*
X0065687Y0045597D01*
X0064994Y0046290D02*
X0064994Y0047717D01*
X0066194Y0047717D02*
X0066194Y0042335D01*
X0065739Y0043197D02*
X0080134Y0043197D01*
X0080134Y0044397D02*
X0065739Y0044397D01*
X0062346Y0044139D02*
X0062346Y0042335D01*
X0062079Y0042335D01*
X0061378Y0041634D01*
X0061378Y0038206D01*
X0059345Y0040239D01*
X0058654Y0040239D01*
X0058654Y0041732D01*
X0057952Y0042433D01*
X0055034Y0042433D01*
X0057545Y0044945D01*
X0058445Y0044945D01*
X0059345Y0045845D01*
X0059993Y0046492D01*
X0062346Y0044139D01*
X0062088Y0044397D02*
X0056997Y0044397D01*
X0056594Y0043993D02*
X0056594Y0042433D01*
X0055797Y0043197D02*
X0062346Y0043197D01*
X0061741Y0041997D02*
X0058389Y0041997D01*
X0057794Y0042433D02*
X0057794Y0044945D01*
X0058994Y0045493D02*
X0058994Y0040239D01*
X0058654Y0040797D02*
X0061378Y0040797D01*
X0061394Y0041649D02*
X0061394Y0045091D01*
X0060888Y0045597D02*
X0059097Y0045597D01*
X0060194Y0046291D02*
X0060194Y0039390D01*
X0059987Y0039597D02*
X0061378Y0039597D01*
X0061378Y0038397D02*
X0061187Y0038397D01*
X0058788Y0035997D02*
X0058241Y0035997D01*
X0057794Y0035709D02*
X0057794Y0032139D01*
X0057583Y0032139D02*
X0057583Y0032139D01*
X0057326Y0032397D02*
X0059646Y0032397D01*
X0058994Y0032139D02*
X0058994Y0035791D01*
X0059646Y0034797D02*
X0039027Y0034797D01*
X0039794Y0035001D02*
X0039794Y0032958D01*
X0040355Y0032397D02*
X0052759Y0032397D01*
X0052994Y0032631D02*
X0052994Y0035739D01*
X0052736Y0035997D02*
X0051548Y0035997D01*
X0051794Y0036243D02*
X0051794Y0022443D01*
X0052617Y0022797D02*
X0049955Y0022797D01*
X0049394Y0023358D02*
X0049394Y0035709D01*
X0050594Y0035709D02*
X0050594Y0022158D01*
X0052994Y0022953D02*
X0052994Y0028252D01*
X0052480Y0028797D02*
X0043955Y0028797D01*
X0043394Y0029358D02*
X0043394Y0049445D01*
X0044594Y0049445D02*
X0044594Y0028158D01*
X0045155Y0027597D02*
X0054080Y0027597D01*
X0054194Y0027550D02*
X0054194Y0023039D01*
X0055288Y0022797D02*
X0059646Y0022797D01*
X0059646Y0023997D02*
X0048755Y0023997D01*
X0048194Y0024558D02*
X0048194Y0035709D01*
X0046994Y0035709D02*
X0046994Y0025758D01*
X0047555Y0025197D02*
X0059646Y0025197D01*
X0058994Y0028745D02*
X0058994Y0017893D01*
X0059098Y0017997D02*
X0057509Y0017997D01*
X0057898Y0016797D02*
X0056816Y0016797D01*
X0056594Y0016575D02*
X0056594Y0015493D01*
X0056698Y0015597D02*
X0054946Y0015597D01*
X0055394Y0015782D02*
X0055394Y0014293D01*
X0055498Y0014397D02*
X0051887Y0014397D01*
X0051794Y0014490D02*
X0051794Y0016093D01*
X0051090Y0016797D02*
X0049487Y0016797D01*
X0049394Y0016890D02*
X0049394Y0016964D01*
X0050594Y0016871D02*
X0050594Y0015690D01*
X0050687Y0015597D02*
X0052959Y0015597D01*
X0052994Y0015583D02*
X0052994Y0014139D01*
X0054194Y0014139D02*
X0054194Y0015496D01*
X0057794Y0016693D02*
X0057794Y0028745D01*
X0055394Y0027445D02*
X0055394Y0022753D01*
X0052046Y0029997D02*
X0042755Y0029997D01*
X0042194Y0030558D02*
X0042194Y0049445D01*
X0040994Y0049445D02*
X0040994Y0031758D01*
X0041555Y0031197D02*
X0052112Y0031197D01*
X0054194Y0033334D02*
X0054194Y0035709D01*
X0055394Y0035709D02*
X0055394Y0033439D01*
X0056594Y0033043D02*
X0056594Y0035709D01*
X0059646Y0033597D02*
X0039155Y0033597D01*
X0034378Y0031906D02*
X0033339Y0032945D01*
X0033339Y0035001D01*
X0034233Y0035001D01*
X0034233Y0032256D01*
X0034378Y0031906D01*
X0034233Y0032397D02*
X0033887Y0032397D01*
X0033794Y0032490D02*
X0033794Y0035001D01*
X0034233Y0034797D02*
X0033339Y0034797D01*
X0033339Y0033597D02*
X0034233Y0033597D01*
X0029946Y0033597D02*
X0018161Y0033597D01*
X0018161Y0034797D02*
X0029946Y0034797D01*
X0029946Y0035997D02*
X0019239Y0035997D01*
X0019239Y0035702D02*
X0019239Y0039093D01*
X0018538Y0039794D01*
X0017839Y0039794D01*
X0017839Y0040001D01*
X0018538Y0040001D01*
X0019239Y0040702D01*
X0019239Y0044093D01*
X0018538Y0044794D01*
X0017839Y0044794D01*
X0017839Y0045001D01*
X0018538Y0045001D01*
X0019239Y0045702D01*
X0019239Y0049093D01*
X0018538Y0049794D01*
X0017839Y0049794D01*
X0017839Y0050001D01*
X0018538Y0050001D01*
X0019239Y0050702D01*
X0019239Y0052145D01*
X0029946Y0041439D01*
X0029946Y0031539D01*
X0049584Y0011901D01*
X0028568Y0011901D01*
X0021150Y0019319D01*
X0021150Y0020018D01*
X0020870Y0020693D01*
X0024327Y0017236D01*
X0025208Y0016871D01*
X0028220Y0016871D01*
X0029021Y0016070D01*
X0030407Y0015496D01*
X0031908Y0015496D01*
X0033294Y0016070D01*
X0034355Y0017131D01*
X0034929Y0018517D01*
X0034929Y0020018D01*
X0034355Y0021404D01*
X0033294Y0022465D01*
X0031908Y0023039D01*
X0030407Y0023039D01*
X0029021Y0022465D01*
X0028220Y0021665D01*
X0026678Y0021665D01*
X0018161Y0030182D01*
X0018161Y0035001D01*
X0018538Y0035001D01*
X0019239Y0035702D01*
X0018194Y0035001D02*
X0018194Y0030149D01*
X0018346Y0029997D02*
X0031488Y0029997D01*
X0031394Y0030091D02*
X0031394Y0023039D01*
X0032493Y0022797D02*
X0038688Y0022797D01*
X0038594Y0022891D02*
X0038594Y0011901D01*
X0039794Y0011901D02*
X0039794Y0021691D01*
X0039888Y0021597D02*
X0034162Y0021597D01*
X0033794Y0021965D02*
X0033794Y0027691D01*
X0033888Y0027597D02*
X0020746Y0027597D01*
X0020594Y0027749D02*
X0020594Y0050791D01*
X0020988Y0050397D02*
X0018934Y0050397D01*
X0018194Y0050001D02*
X0018194Y0049794D01*
X0019136Y0049197D02*
X0022188Y0049197D01*
X0021794Y0049591D02*
X0021794Y0026549D01*
X0021946Y0026397D02*
X0035088Y0026397D01*
X0034994Y0026491D02*
X0034994Y0011901D01*
X0036194Y0011901D02*
X0036194Y0025291D01*
X0036288Y0025197D02*
X0023146Y0025197D01*
X0022994Y0025349D02*
X0022994Y0048391D01*
X0023388Y0047997D02*
X0019239Y0047997D01*
X0019239Y0046797D02*
X0024588Y0046797D01*
X0024194Y0047191D02*
X0024194Y0024149D01*
X0024346Y0023997D02*
X0037488Y0023997D01*
X0037394Y0024091D02*
X0037394Y0011901D01*
X0040994Y0011901D02*
X0040994Y0020491D01*
X0041088Y0020397D02*
X0034772Y0020397D01*
X0034929Y0019197D02*
X0042288Y0019197D01*
X0042194Y0019291D02*
X0042194Y0011901D01*
X0043394Y0011901D02*
X0043394Y0018091D01*
X0043488Y0017997D02*
X0034713Y0017997D01*
X0034021Y0016797D02*
X0044688Y0016797D01*
X0044594Y0016891D02*
X0044594Y0011901D01*
X0045794Y0011901D02*
X0045794Y0015691D01*
X0045888Y0015597D02*
X0032151Y0015597D01*
X0032594Y0015780D02*
X0032594Y0011901D01*
X0033794Y0011901D02*
X0033794Y0016570D01*
X0031394Y0015496D02*
X0031394Y0011901D01*
X0030194Y0011901D02*
X0030194Y0015585D01*
X0030164Y0015597D02*
X0024872Y0015597D01*
X0025394Y0015075D02*
X0025394Y0016871D01*
X0026594Y0016871D02*
X0026594Y0013875D01*
X0026072Y0014397D02*
X0047088Y0014397D01*
X0046994Y0014491D02*
X0046994Y0011901D01*
X0048194Y0011901D02*
X0048194Y0013291D01*
X0048288Y0013197D02*
X0027272Y0013197D01*
X0027794Y0012675D02*
X0027794Y0016871D01*
X0028294Y0016797D02*
X0023672Y0016797D01*
X0024194Y0016275D02*
X0024194Y0017369D01*
X0023566Y0017997D02*
X0022472Y0017997D01*
X0022994Y0017475D02*
X0022994Y0018569D01*
X0022366Y0019197D02*
X0021272Y0019197D01*
X0021794Y0018675D02*
X0021794Y0019769D01*
X0021166Y0020397D02*
X0020993Y0020397D01*
X0018766Y0022797D02*
X0018714Y0022797D01*
X0018194Y0023012D02*
X0018194Y0023369D01*
X0017566Y0023997D02*
X0005331Y0023997D01*
X0005331Y0025197D02*
X0016366Y0025197D01*
X0015794Y0025769D02*
X0015794Y0022694D01*
X0016042Y0022797D02*
X0005331Y0022797D01*
X0005331Y0021597D02*
X0014373Y0021597D01*
X0014594Y0021817D02*
X0014594Y0026969D01*
X0015166Y0026397D02*
X0005331Y0026397D01*
X0005331Y0027597D02*
X0013966Y0027597D01*
X0013394Y0028648D02*
X0013394Y0005134D01*
X0014594Y0005134D02*
X0014594Y0016718D01*
X0014515Y0016797D02*
X0005331Y0016797D01*
X0005331Y0017997D02*
X0013822Y0017997D01*
X0013606Y0019197D02*
X0005331Y0019197D01*
X0005331Y0020397D02*
X0013763Y0020397D01*
X0016994Y0023039D02*
X0016994Y0024569D01*
X0019546Y0028797D02*
X0032688Y0028797D01*
X0032594Y0028891D02*
X0032594Y0022755D01*
X0030194Y0022951D02*
X0030194Y0031291D01*
X0030288Y0031197D02*
X0018161Y0031197D01*
X0018161Y0032397D02*
X0029946Y0032397D01*
X0029946Y0037197D02*
X0019239Y0037197D01*
X0019239Y0038397D02*
X0029946Y0038397D01*
X0029946Y0039597D02*
X0018736Y0039597D01*
X0018194Y0039794D02*
X0018194Y0040001D01*
X0019239Y0040797D02*
X0029946Y0040797D01*
X0029388Y0041997D02*
X0019239Y0041997D01*
X0019239Y0043197D02*
X0028188Y0043197D01*
X0027794Y0043591D02*
X0027794Y0021665D01*
X0026594Y0021749D02*
X0026594Y0044791D01*
X0026988Y0044397D02*
X0018936Y0044397D01*
X0018194Y0044794D02*
X0018194Y0045001D01*
X0019134Y0045597D02*
X0025788Y0045597D01*
X0025394Y0045991D02*
X0025394Y0022949D01*
X0025546Y0022797D02*
X0029822Y0022797D01*
X0028994Y0022438D02*
X0028994Y0042391D01*
X0033339Y0040001D02*
X0033339Y0039794D01*
X0034646Y0039794D01*
X0034646Y0040001D01*
X0033339Y0040001D01*
X0033794Y0040001D02*
X0033794Y0039794D01*
X0033794Y0044794D02*
X0033794Y0045001D01*
X0035479Y0049794D02*
X0036890Y0049794D01*
X0036684Y0050001D01*
X0035273Y0050001D01*
X0035479Y0049794D01*
X0036194Y0049794D02*
X0036194Y0050001D01*
X0040736Y0049197D02*
X0045472Y0049197D01*
X0046994Y0047480D02*
X0046994Y0042433D01*
X0048194Y0042433D02*
X0048194Y0047480D01*
X0049394Y0047480D02*
X0049394Y0042433D01*
X0050594Y0042793D02*
X0050594Y0047480D01*
X0050998Y0043197D02*
X0040839Y0043197D01*
X0039794Y0040001D02*
X0039794Y0039794D01*
X0051961Y0038397D02*
X0052323Y0038397D01*
X0052323Y0039597D02*
X0052197Y0039597D01*
X0052323Y0037197D02*
X0051961Y0037197D01*
X0055394Y0042433D02*
X0055394Y0042793D01*
X0042194Y0052839D02*
X0042194Y0071491D01*
X0041688Y0071997D02*
X0019487Y0071997D01*
X0017088Y0069597D02*
X0015541Y0069597D01*
X0015794Y0069849D02*
X0015794Y0068056D01*
X0015453Y0068397D02*
X0018288Y0068397D01*
X0018194Y0068491D02*
X0018194Y0066739D01*
X0016994Y0066510D02*
X0016994Y0069691D01*
X0014594Y0069331D02*
X0014594Y0068575D01*
X0013394Y0068575D02*
X0013394Y0069331D01*
X0012194Y0069331D02*
X0012194Y0068575D01*
X0010994Y0068575D02*
X0010994Y0069331D01*
X0009794Y0069331D02*
X0009794Y0068575D01*
X0008594Y0068575D02*
X0008594Y0069331D01*
X0007394Y0069331D02*
X0007394Y0068575D01*
X0006232Y0068397D02*
X0005331Y0068397D01*
X0006194Y0068359D02*
X0006194Y0069547D01*
X0006144Y0069597D02*
X0005331Y0069597D01*
X0005331Y0070797D02*
X0005709Y0070797D01*
X0005709Y0071997D02*
X0005331Y0071997D01*
X0005331Y0073197D02*
X0005709Y0073197D01*
X0005709Y0074397D02*
X0005331Y0074397D01*
X0005331Y0067197D02*
X0005709Y0067197D01*
X0005709Y0065997D02*
X0005331Y0065997D01*
X0005331Y0064797D02*
X0005709Y0064797D01*
X0005709Y0063597D02*
X0005331Y0063597D01*
X0005331Y0062397D02*
X0005709Y0062397D01*
X0015976Y0065997D02*
X0016159Y0065997D01*
X0015976Y0067197D02*
X0019488Y0067197D01*
X0019394Y0067291D02*
X0019394Y0066467D01*
X0020126Y0065997D02*
X0020688Y0065997D01*
X0020594Y0066091D02*
X0020594Y0065529D01*
X0020949Y0064797D02*
X0021888Y0064797D01*
X0021794Y0064891D02*
X0021794Y0063480D01*
X0019394Y0051991D02*
X0019394Y0028949D01*
X0013367Y0028797D02*
X0005331Y0028797D01*
X0005331Y0029997D02*
X0013367Y0029997D01*
X0013367Y0031197D02*
X0005331Y0031197D01*
X0005331Y0032397D02*
X0013367Y0032397D01*
X0013367Y0033597D02*
X0005331Y0033597D01*
X0005331Y0034797D02*
X0013367Y0034797D01*
X0012194Y0035001D02*
X0012194Y0005134D01*
X0015794Y0005134D02*
X0015794Y0015842D01*
X0016384Y0015597D02*
X0005331Y0015597D01*
X0005331Y0014397D02*
X0019292Y0014397D01*
X0019394Y0014295D02*
X0019394Y0005134D01*
X0020594Y0005134D02*
X0020594Y0013095D01*
X0020492Y0013197D02*
X0005331Y0013197D01*
X0005331Y0011997D02*
X0021692Y0011997D01*
X0021794Y0011895D02*
X0021794Y0005134D01*
X0022994Y0005134D02*
X0022994Y0010695D01*
X0022892Y0010797D02*
X0005331Y0010797D01*
X0005331Y0009597D02*
X0024092Y0009597D01*
X0024194Y0009495D02*
X0024194Y0005134D01*
X0025394Y0005134D02*
X0025394Y0008295D01*
X0025292Y0008397D02*
X0005331Y0008397D01*
X0016994Y0005134D02*
X0016994Y0015496D01*
X0018194Y0015495D02*
X0018194Y0005134D01*
X0028472Y0011997D02*
X0049488Y0011997D01*
X0049394Y0012091D02*
X0049394Y0011901D01*
X0028994Y0011901D02*
X0028994Y0016098D01*
X0012194Y0039794D02*
X0012194Y0040001D01*
X0012194Y0044794D02*
X0012194Y0045001D01*
X0012194Y0049794D02*
X0012194Y0050001D01*
X0019239Y0051597D02*
X0019788Y0051597D01*
X0071504Y0019197D02*
X0080134Y0019197D01*
X0080134Y0025197D02*
X0076676Y0025197D01*
X0075794Y0025708D02*
X0075794Y0061457D01*
X0074594Y0061457D02*
X0074594Y0025902D01*
X0107360Y0027597D02*
X0120502Y0027597D01*
X0120194Y0027905D02*
X0120194Y0022180D01*
X0117794Y0015496D02*
X0117794Y0011901D01*
X0116594Y0011901D02*
X0116594Y0015673D01*
X0116778Y0015597D02*
X0111486Y0015597D01*
X0111794Y0015289D02*
X0111794Y0016883D01*
X0120992Y0031906D02*
X0119954Y0032945D01*
X0119954Y0035001D01*
X0120847Y0035001D01*
X0120847Y0032256D01*
X0120992Y0031906D01*
X0120847Y0032397D02*
X0120501Y0032397D01*
X0120194Y0032704D02*
X0120194Y0035001D01*
X0119954Y0034797D02*
X0120847Y0034797D01*
X0120847Y0033597D02*
X0119954Y0033597D01*
X0158118Y0019197D02*
X0166748Y0019197D01*
X0166748Y0025197D02*
X0163290Y0025197D01*
X0092323Y0070797D02*
X0091945Y0070797D01*
X0091945Y0071997D02*
X0092323Y0071997D01*
X0092323Y0073197D02*
X0091945Y0073197D01*
X0091945Y0074397D02*
X0092323Y0074397D01*
X0092323Y0075597D02*
X0091945Y0075597D01*
X0093794Y0100071D02*
X0093794Y0100827D01*
X0094994Y0100827D02*
X0094994Y0100071D01*
X0096194Y0100071D02*
X0096194Y0100827D01*
X0097394Y0100827D02*
X0097394Y0100071D01*
X0098594Y0100071D02*
X0098594Y0100827D01*
X0092323Y0101997D02*
X0091945Y0101997D01*
X0091945Y0103197D02*
X0092323Y0103197D01*
X0092323Y0104397D02*
X0091945Y0104397D01*
X0091945Y0105597D02*
X0092323Y0105597D01*
X0093794Y0107945D02*
X0093794Y0108701D01*
X0094994Y0108701D02*
X0094994Y0107945D01*
X0096194Y0107945D02*
X0096194Y0108701D01*
X0097394Y0108701D02*
X0097394Y0107945D01*
X0098594Y0107945D02*
X0098594Y0108701D01*
X0099794Y0108701D02*
X0099794Y0107945D01*
X0100994Y0107945D02*
X0100994Y0108701D01*
X0102511Y0115197D02*
X0111850Y0115197D01*
X0114194Y0117139D02*
X0114194Y0124937D01*
X0115394Y0124937D02*
X0115394Y0117278D01*
X0115712Y0117597D02*
X0102591Y0117597D01*
X0102194Y0116879D02*
X0102194Y0115515D01*
X0100994Y0115819D02*
X0100994Y0116575D01*
X0099794Y0116575D02*
X0099794Y0115819D01*
X0098594Y0115819D02*
X0098594Y0116575D01*
X0097394Y0116575D02*
X0097394Y0115819D01*
X0096194Y0115819D02*
X0096194Y0116575D01*
X0094994Y0116575D02*
X0094994Y0115819D01*
X0093794Y0115819D02*
X0093794Y0116575D01*
X0092323Y0117597D02*
X0091945Y0117597D01*
X0091945Y0118797D02*
X0092323Y0118797D01*
X0092323Y0119997D02*
X0091945Y0119997D01*
X0091945Y0121197D02*
X0092323Y0121197D01*
X0092323Y0122397D02*
X0091945Y0122397D01*
X0093794Y0123693D02*
X0093794Y0124937D01*
X0094994Y0124937D02*
X0094994Y0123693D01*
X0096194Y0123693D02*
X0096194Y0124937D01*
X0097394Y0124937D02*
X0097394Y0123693D01*
X0098594Y0123693D02*
X0098594Y0124937D01*
X0099794Y0124937D02*
X0099794Y0123693D01*
X0100994Y0123693D02*
X0100994Y0124937D01*
X0102591Y0119997D02*
X0118112Y0119997D01*
X0117794Y0119678D02*
X0117794Y0124937D01*
X0116594Y0124937D02*
X0116594Y0118478D01*
X0116912Y0118797D02*
X0102591Y0118797D01*
X0121394Y0121239D02*
X0121394Y0124937D01*
X0122594Y0124937D02*
X0122594Y0121239D01*
X0123794Y0121239D02*
X0123794Y0124937D01*
X0124994Y0124937D02*
X0124994Y0121239D01*
X0126194Y0121239D02*
X0126194Y0124937D01*
X0127394Y0124937D02*
X0127394Y0121239D01*
X0128594Y0121239D02*
X0128594Y0124937D01*
X0156194Y0117185D02*
X0156194Y0115209D01*
X0157394Y0115819D02*
X0157394Y0116575D01*
X0158594Y0116575D02*
X0158594Y0115819D01*
X0159794Y0115819D02*
X0159794Y0116575D01*
X0160994Y0116575D02*
X0160994Y0115819D01*
X0162194Y0115819D02*
X0162194Y0116575D01*
X0163394Y0116575D02*
X0163394Y0115819D01*
X0164594Y0115819D02*
X0164594Y0116575D01*
X0044594Y0121239D02*
X0044594Y0124937D01*
X0043394Y0124937D02*
X0043394Y0121239D01*
X0042194Y0121239D02*
X0042194Y0124937D01*
X0040994Y0124937D02*
X0040994Y0121239D01*
X0039794Y0121239D02*
X0039794Y0124937D01*
X0038594Y0124937D02*
X0038594Y0121239D01*
X0037394Y0121239D02*
X0037394Y0124937D01*
X0036194Y0124937D02*
X0036194Y0121239D01*
X0034994Y0121239D02*
X0034994Y0124937D01*
X0033794Y0124937D02*
X0033794Y0121239D01*
D11*
X0031157Y0019268D03*
X0017378Y0019268D03*
X0053953Y0019268D03*
X0067732Y0019268D03*
X0103992Y0019268D03*
X0117772Y0019268D03*
X0140567Y0019268D03*
X0154346Y0019268D03*
D12*
X0152771Y0019268D02*
X0152773Y0019347D01*
X0152779Y0019426D01*
X0152789Y0019505D01*
X0152803Y0019583D01*
X0152820Y0019660D01*
X0152842Y0019736D01*
X0152867Y0019811D01*
X0152897Y0019884D01*
X0152929Y0019956D01*
X0152966Y0020027D01*
X0153006Y0020095D01*
X0153049Y0020161D01*
X0153095Y0020225D01*
X0153145Y0020287D01*
X0153198Y0020346D01*
X0153253Y0020402D01*
X0153312Y0020456D01*
X0153373Y0020506D01*
X0153436Y0020554D01*
X0153502Y0020598D01*
X0153570Y0020639D01*
X0153640Y0020676D01*
X0153711Y0020710D01*
X0153785Y0020740D01*
X0153859Y0020766D01*
X0153935Y0020788D01*
X0154012Y0020807D01*
X0154090Y0020822D01*
X0154168Y0020833D01*
X0154247Y0020840D01*
X0154326Y0020843D01*
X0154405Y0020842D01*
X0154484Y0020837D01*
X0154563Y0020828D01*
X0154641Y0020815D01*
X0154718Y0020798D01*
X0154795Y0020778D01*
X0154870Y0020753D01*
X0154944Y0020725D01*
X0155017Y0020693D01*
X0155087Y0020658D01*
X0155156Y0020619D01*
X0155223Y0020576D01*
X0155288Y0020530D01*
X0155350Y0020482D01*
X0155410Y0020430D01*
X0155467Y0020375D01*
X0155521Y0020317D01*
X0155572Y0020257D01*
X0155620Y0020194D01*
X0155665Y0020129D01*
X0155707Y0020061D01*
X0155745Y0019992D01*
X0155779Y0019921D01*
X0155810Y0019848D01*
X0155838Y0019773D01*
X0155861Y0019698D01*
X0155881Y0019621D01*
X0155897Y0019544D01*
X0155909Y0019465D01*
X0155917Y0019387D01*
X0155921Y0019308D01*
X0155921Y0019228D01*
X0155917Y0019149D01*
X0155909Y0019071D01*
X0155897Y0018992D01*
X0155881Y0018915D01*
X0155861Y0018838D01*
X0155838Y0018763D01*
X0155810Y0018688D01*
X0155779Y0018615D01*
X0155745Y0018544D01*
X0155707Y0018475D01*
X0155665Y0018407D01*
X0155620Y0018342D01*
X0155572Y0018279D01*
X0155521Y0018219D01*
X0155467Y0018161D01*
X0155410Y0018106D01*
X0155350Y0018054D01*
X0155288Y0018006D01*
X0155223Y0017960D01*
X0155156Y0017917D01*
X0155087Y0017878D01*
X0155017Y0017843D01*
X0154944Y0017811D01*
X0154870Y0017783D01*
X0154795Y0017758D01*
X0154718Y0017738D01*
X0154641Y0017721D01*
X0154563Y0017708D01*
X0154484Y0017699D01*
X0154405Y0017694D01*
X0154326Y0017693D01*
X0154247Y0017696D01*
X0154168Y0017703D01*
X0154090Y0017714D01*
X0154012Y0017729D01*
X0153935Y0017748D01*
X0153859Y0017770D01*
X0153785Y0017796D01*
X0153711Y0017826D01*
X0153640Y0017860D01*
X0153570Y0017897D01*
X0153502Y0017938D01*
X0153436Y0017982D01*
X0153373Y0018030D01*
X0153312Y0018080D01*
X0153253Y0018134D01*
X0153198Y0018190D01*
X0153145Y0018249D01*
X0153095Y0018311D01*
X0153049Y0018375D01*
X0153006Y0018441D01*
X0152966Y0018509D01*
X0152929Y0018580D01*
X0152897Y0018652D01*
X0152867Y0018725D01*
X0152842Y0018800D01*
X0152820Y0018876D01*
X0152803Y0018953D01*
X0152789Y0019031D01*
X0152779Y0019110D01*
X0152773Y0019189D01*
X0152771Y0019268D01*
X0138992Y0019268D02*
X0138994Y0019347D01*
X0139000Y0019426D01*
X0139010Y0019505D01*
X0139024Y0019583D01*
X0139041Y0019660D01*
X0139063Y0019736D01*
X0139088Y0019811D01*
X0139118Y0019884D01*
X0139150Y0019956D01*
X0139187Y0020027D01*
X0139227Y0020095D01*
X0139270Y0020161D01*
X0139316Y0020225D01*
X0139366Y0020287D01*
X0139419Y0020346D01*
X0139474Y0020402D01*
X0139533Y0020456D01*
X0139594Y0020506D01*
X0139657Y0020554D01*
X0139723Y0020598D01*
X0139791Y0020639D01*
X0139861Y0020676D01*
X0139932Y0020710D01*
X0140006Y0020740D01*
X0140080Y0020766D01*
X0140156Y0020788D01*
X0140233Y0020807D01*
X0140311Y0020822D01*
X0140389Y0020833D01*
X0140468Y0020840D01*
X0140547Y0020843D01*
X0140626Y0020842D01*
X0140705Y0020837D01*
X0140784Y0020828D01*
X0140862Y0020815D01*
X0140939Y0020798D01*
X0141016Y0020778D01*
X0141091Y0020753D01*
X0141165Y0020725D01*
X0141238Y0020693D01*
X0141308Y0020658D01*
X0141377Y0020619D01*
X0141444Y0020576D01*
X0141509Y0020530D01*
X0141571Y0020482D01*
X0141631Y0020430D01*
X0141688Y0020375D01*
X0141742Y0020317D01*
X0141793Y0020257D01*
X0141841Y0020194D01*
X0141886Y0020129D01*
X0141928Y0020061D01*
X0141966Y0019992D01*
X0142000Y0019921D01*
X0142031Y0019848D01*
X0142059Y0019773D01*
X0142082Y0019698D01*
X0142102Y0019621D01*
X0142118Y0019544D01*
X0142130Y0019465D01*
X0142138Y0019387D01*
X0142142Y0019308D01*
X0142142Y0019228D01*
X0142138Y0019149D01*
X0142130Y0019071D01*
X0142118Y0018992D01*
X0142102Y0018915D01*
X0142082Y0018838D01*
X0142059Y0018763D01*
X0142031Y0018688D01*
X0142000Y0018615D01*
X0141966Y0018544D01*
X0141928Y0018475D01*
X0141886Y0018407D01*
X0141841Y0018342D01*
X0141793Y0018279D01*
X0141742Y0018219D01*
X0141688Y0018161D01*
X0141631Y0018106D01*
X0141571Y0018054D01*
X0141509Y0018006D01*
X0141444Y0017960D01*
X0141377Y0017917D01*
X0141308Y0017878D01*
X0141238Y0017843D01*
X0141165Y0017811D01*
X0141091Y0017783D01*
X0141016Y0017758D01*
X0140939Y0017738D01*
X0140862Y0017721D01*
X0140784Y0017708D01*
X0140705Y0017699D01*
X0140626Y0017694D01*
X0140547Y0017693D01*
X0140468Y0017696D01*
X0140389Y0017703D01*
X0140311Y0017714D01*
X0140233Y0017729D01*
X0140156Y0017748D01*
X0140080Y0017770D01*
X0140006Y0017796D01*
X0139932Y0017826D01*
X0139861Y0017860D01*
X0139791Y0017897D01*
X0139723Y0017938D01*
X0139657Y0017982D01*
X0139594Y0018030D01*
X0139533Y0018080D01*
X0139474Y0018134D01*
X0139419Y0018190D01*
X0139366Y0018249D01*
X0139316Y0018311D01*
X0139270Y0018375D01*
X0139227Y0018441D01*
X0139187Y0018509D01*
X0139150Y0018580D01*
X0139118Y0018652D01*
X0139088Y0018725D01*
X0139063Y0018800D01*
X0139041Y0018876D01*
X0139024Y0018953D01*
X0139010Y0019031D01*
X0139000Y0019110D01*
X0138994Y0019189D01*
X0138992Y0019268D01*
X0116197Y0019268D02*
X0116199Y0019347D01*
X0116205Y0019426D01*
X0116215Y0019505D01*
X0116229Y0019583D01*
X0116246Y0019660D01*
X0116268Y0019736D01*
X0116293Y0019811D01*
X0116323Y0019884D01*
X0116355Y0019956D01*
X0116392Y0020027D01*
X0116432Y0020095D01*
X0116475Y0020161D01*
X0116521Y0020225D01*
X0116571Y0020287D01*
X0116624Y0020346D01*
X0116679Y0020402D01*
X0116738Y0020456D01*
X0116799Y0020506D01*
X0116862Y0020554D01*
X0116928Y0020598D01*
X0116996Y0020639D01*
X0117066Y0020676D01*
X0117137Y0020710D01*
X0117211Y0020740D01*
X0117285Y0020766D01*
X0117361Y0020788D01*
X0117438Y0020807D01*
X0117516Y0020822D01*
X0117594Y0020833D01*
X0117673Y0020840D01*
X0117752Y0020843D01*
X0117831Y0020842D01*
X0117910Y0020837D01*
X0117989Y0020828D01*
X0118067Y0020815D01*
X0118144Y0020798D01*
X0118221Y0020778D01*
X0118296Y0020753D01*
X0118370Y0020725D01*
X0118443Y0020693D01*
X0118513Y0020658D01*
X0118582Y0020619D01*
X0118649Y0020576D01*
X0118714Y0020530D01*
X0118776Y0020482D01*
X0118836Y0020430D01*
X0118893Y0020375D01*
X0118947Y0020317D01*
X0118998Y0020257D01*
X0119046Y0020194D01*
X0119091Y0020129D01*
X0119133Y0020061D01*
X0119171Y0019992D01*
X0119205Y0019921D01*
X0119236Y0019848D01*
X0119264Y0019773D01*
X0119287Y0019698D01*
X0119307Y0019621D01*
X0119323Y0019544D01*
X0119335Y0019465D01*
X0119343Y0019387D01*
X0119347Y0019308D01*
X0119347Y0019228D01*
X0119343Y0019149D01*
X0119335Y0019071D01*
X0119323Y0018992D01*
X0119307Y0018915D01*
X0119287Y0018838D01*
X0119264Y0018763D01*
X0119236Y0018688D01*
X0119205Y0018615D01*
X0119171Y0018544D01*
X0119133Y0018475D01*
X0119091Y0018407D01*
X0119046Y0018342D01*
X0118998Y0018279D01*
X0118947Y0018219D01*
X0118893Y0018161D01*
X0118836Y0018106D01*
X0118776Y0018054D01*
X0118714Y0018006D01*
X0118649Y0017960D01*
X0118582Y0017917D01*
X0118513Y0017878D01*
X0118443Y0017843D01*
X0118370Y0017811D01*
X0118296Y0017783D01*
X0118221Y0017758D01*
X0118144Y0017738D01*
X0118067Y0017721D01*
X0117989Y0017708D01*
X0117910Y0017699D01*
X0117831Y0017694D01*
X0117752Y0017693D01*
X0117673Y0017696D01*
X0117594Y0017703D01*
X0117516Y0017714D01*
X0117438Y0017729D01*
X0117361Y0017748D01*
X0117285Y0017770D01*
X0117211Y0017796D01*
X0117137Y0017826D01*
X0117066Y0017860D01*
X0116996Y0017897D01*
X0116928Y0017938D01*
X0116862Y0017982D01*
X0116799Y0018030D01*
X0116738Y0018080D01*
X0116679Y0018134D01*
X0116624Y0018190D01*
X0116571Y0018249D01*
X0116521Y0018311D01*
X0116475Y0018375D01*
X0116432Y0018441D01*
X0116392Y0018509D01*
X0116355Y0018580D01*
X0116323Y0018652D01*
X0116293Y0018725D01*
X0116268Y0018800D01*
X0116246Y0018876D01*
X0116229Y0018953D01*
X0116215Y0019031D01*
X0116205Y0019110D01*
X0116199Y0019189D01*
X0116197Y0019268D01*
X0102417Y0019268D02*
X0102419Y0019347D01*
X0102425Y0019426D01*
X0102435Y0019505D01*
X0102449Y0019583D01*
X0102466Y0019660D01*
X0102488Y0019736D01*
X0102513Y0019811D01*
X0102543Y0019884D01*
X0102575Y0019956D01*
X0102612Y0020027D01*
X0102652Y0020095D01*
X0102695Y0020161D01*
X0102741Y0020225D01*
X0102791Y0020287D01*
X0102844Y0020346D01*
X0102899Y0020402D01*
X0102958Y0020456D01*
X0103019Y0020506D01*
X0103082Y0020554D01*
X0103148Y0020598D01*
X0103216Y0020639D01*
X0103286Y0020676D01*
X0103357Y0020710D01*
X0103431Y0020740D01*
X0103505Y0020766D01*
X0103581Y0020788D01*
X0103658Y0020807D01*
X0103736Y0020822D01*
X0103814Y0020833D01*
X0103893Y0020840D01*
X0103972Y0020843D01*
X0104051Y0020842D01*
X0104130Y0020837D01*
X0104209Y0020828D01*
X0104287Y0020815D01*
X0104364Y0020798D01*
X0104441Y0020778D01*
X0104516Y0020753D01*
X0104590Y0020725D01*
X0104663Y0020693D01*
X0104733Y0020658D01*
X0104802Y0020619D01*
X0104869Y0020576D01*
X0104934Y0020530D01*
X0104996Y0020482D01*
X0105056Y0020430D01*
X0105113Y0020375D01*
X0105167Y0020317D01*
X0105218Y0020257D01*
X0105266Y0020194D01*
X0105311Y0020129D01*
X0105353Y0020061D01*
X0105391Y0019992D01*
X0105425Y0019921D01*
X0105456Y0019848D01*
X0105484Y0019773D01*
X0105507Y0019698D01*
X0105527Y0019621D01*
X0105543Y0019544D01*
X0105555Y0019465D01*
X0105563Y0019387D01*
X0105567Y0019308D01*
X0105567Y0019228D01*
X0105563Y0019149D01*
X0105555Y0019071D01*
X0105543Y0018992D01*
X0105527Y0018915D01*
X0105507Y0018838D01*
X0105484Y0018763D01*
X0105456Y0018688D01*
X0105425Y0018615D01*
X0105391Y0018544D01*
X0105353Y0018475D01*
X0105311Y0018407D01*
X0105266Y0018342D01*
X0105218Y0018279D01*
X0105167Y0018219D01*
X0105113Y0018161D01*
X0105056Y0018106D01*
X0104996Y0018054D01*
X0104934Y0018006D01*
X0104869Y0017960D01*
X0104802Y0017917D01*
X0104733Y0017878D01*
X0104663Y0017843D01*
X0104590Y0017811D01*
X0104516Y0017783D01*
X0104441Y0017758D01*
X0104364Y0017738D01*
X0104287Y0017721D01*
X0104209Y0017708D01*
X0104130Y0017699D01*
X0104051Y0017694D01*
X0103972Y0017693D01*
X0103893Y0017696D01*
X0103814Y0017703D01*
X0103736Y0017714D01*
X0103658Y0017729D01*
X0103581Y0017748D01*
X0103505Y0017770D01*
X0103431Y0017796D01*
X0103357Y0017826D01*
X0103286Y0017860D01*
X0103216Y0017897D01*
X0103148Y0017938D01*
X0103082Y0017982D01*
X0103019Y0018030D01*
X0102958Y0018080D01*
X0102899Y0018134D01*
X0102844Y0018190D01*
X0102791Y0018249D01*
X0102741Y0018311D01*
X0102695Y0018375D01*
X0102652Y0018441D01*
X0102612Y0018509D01*
X0102575Y0018580D01*
X0102543Y0018652D01*
X0102513Y0018725D01*
X0102488Y0018800D01*
X0102466Y0018876D01*
X0102449Y0018953D01*
X0102435Y0019031D01*
X0102425Y0019110D01*
X0102419Y0019189D01*
X0102417Y0019268D01*
X0066157Y0019268D02*
X0066159Y0019347D01*
X0066165Y0019426D01*
X0066175Y0019505D01*
X0066189Y0019583D01*
X0066206Y0019660D01*
X0066228Y0019736D01*
X0066253Y0019811D01*
X0066283Y0019884D01*
X0066315Y0019956D01*
X0066352Y0020027D01*
X0066392Y0020095D01*
X0066435Y0020161D01*
X0066481Y0020225D01*
X0066531Y0020287D01*
X0066584Y0020346D01*
X0066639Y0020402D01*
X0066698Y0020456D01*
X0066759Y0020506D01*
X0066822Y0020554D01*
X0066888Y0020598D01*
X0066956Y0020639D01*
X0067026Y0020676D01*
X0067097Y0020710D01*
X0067171Y0020740D01*
X0067245Y0020766D01*
X0067321Y0020788D01*
X0067398Y0020807D01*
X0067476Y0020822D01*
X0067554Y0020833D01*
X0067633Y0020840D01*
X0067712Y0020843D01*
X0067791Y0020842D01*
X0067870Y0020837D01*
X0067949Y0020828D01*
X0068027Y0020815D01*
X0068104Y0020798D01*
X0068181Y0020778D01*
X0068256Y0020753D01*
X0068330Y0020725D01*
X0068403Y0020693D01*
X0068473Y0020658D01*
X0068542Y0020619D01*
X0068609Y0020576D01*
X0068674Y0020530D01*
X0068736Y0020482D01*
X0068796Y0020430D01*
X0068853Y0020375D01*
X0068907Y0020317D01*
X0068958Y0020257D01*
X0069006Y0020194D01*
X0069051Y0020129D01*
X0069093Y0020061D01*
X0069131Y0019992D01*
X0069165Y0019921D01*
X0069196Y0019848D01*
X0069224Y0019773D01*
X0069247Y0019698D01*
X0069267Y0019621D01*
X0069283Y0019544D01*
X0069295Y0019465D01*
X0069303Y0019387D01*
X0069307Y0019308D01*
X0069307Y0019228D01*
X0069303Y0019149D01*
X0069295Y0019071D01*
X0069283Y0018992D01*
X0069267Y0018915D01*
X0069247Y0018838D01*
X0069224Y0018763D01*
X0069196Y0018688D01*
X0069165Y0018615D01*
X0069131Y0018544D01*
X0069093Y0018475D01*
X0069051Y0018407D01*
X0069006Y0018342D01*
X0068958Y0018279D01*
X0068907Y0018219D01*
X0068853Y0018161D01*
X0068796Y0018106D01*
X0068736Y0018054D01*
X0068674Y0018006D01*
X0068609Y0017960D01*
X0068542Y0017917D01*
X0068473Y0017878D01*
X0068403Y0017843D01*
X0068330Y0017811D01*
X0068256Y0017783D01*
X0068181Y0017758D01*
X0068104Y0017738D01*
X0068027Y0017721D01*
X0067949Y0017708D01*
X0067870Y0017699D01*
X0067791Y0017694D01*
X0067712Y0017693D01*
X0067633Y0017696D01*
X0067554Y0017703D01*
X0067476Y0017714D01*
X0067398Y0017729D01*
X0067321Y0017748D01*
X0067245Y0017770D01*
X0067171Y0017796D01*
X0067097Y0017826D01*
X0067026Y0017860D01*
X0066956Y0017897D01*
X0066888Y0017938D01*
X0066822Y0017982D01*
X0066759Y0018030D01*
X0066698Y0018080D01*
X0066639Y0018134D01*
X0066584Y0018190D01*
X0066531Y0018249D01*
X0066481Y0018311D01*
X0066435Y0018375D01*
X0066392Y0018441D01*
X0066352Y0018509D01*
X0066315Y0018580D01*
X0066283Y0018652D01*
X0066253Y0018725D01*
X0066228Y0018800D01*
X0066206Y0018876D01*
X0066189Y0018953D01*
X0066175Y0019031D01*
X0066165Y0019110D01*
X0066159Y0019189D01*
X0066157Y0019268D01*
X0052378Y0019268D02*
X0052380Y0019347D01*
X0052386Y0019426D01*
X0052396Y0019505D01*
X0052410Y0019583D01*
X0052427Y0019660D01*
X0052449Y0019736D01*
X0052474Y0019811D01*
X0052504Y0019884D01*
X0052536Y0019956D01*
X0052573Y0020027D01*
X0052613Y0020095D01*
X0052656Y0020161D01*
X0052702Y0020225D01*
X0052752Y0020287D01*
X0052805Y0020346D01*
X0052860Y0020402D01*
X0052919Y0020456D01*
X0052980Y0020506D01*
X0053043Y0020554D01*
X0053109Y0020598D01*
X0053177Y0020639D01*
X0053247Y0020676D01*
X0053318Y0020710D01*
X0053392Y0020740D01*
X0053466Y0020766D01*
X0053542Y0020788D01*
X0053619Y0020807D01*
X0053697Y0020822D01*
X0053775Y0020833D01*
X0053854Y0020840D01*
X0053933Y0020843D01*
X0054012Y0020842D01*
X0054091Y0020837D01*
X0054170Y0020828D01*
X0054248Y0020815D01*
X0054325Y0020798D01*
X0054402Y0020778D01*
X0054477Y0020753D01*
X0054551Y0020725D01*
X0054624Y0020693D01*
X0054694Y0020658D01*
X0054763Y0020619D01*
X0054830Y0020576D01*
X0054895Y0020530D01*
X0054957Y0020482D01*
X0055017Y0020430D01*
X0055074Y0020375D01*
X0055128Y0020317D01*
X0055179Y0020257D01*
X0055227Y0020194D01*
X0055272Y0020129D01*
X0055314Y0020061D01*
X0055352Y0019992D01*
X0055386Y0019921D01*
X0055417Y0019848D01*
X0055445Y0019773D01*
X0055468Y0019698D01*
X0055488Y0019621D01*
X0055504Y0019544D01*
X0055516Y0019465D01*
X0055524Y0019387D01*
X0055528Y0019308D01*
X0055528Y0019228D01*
X0055524Y0019149D01*
X0055516Y0019071D01*
X0055504Y0018992D01*
X0055488Y0018915D01*
X0055468Y0018838D01*
X0055445Y0018763D01*
X0055417Y0018688D01*
X0055386Y0018615D01*
X0055352Y0018544D01*
X0055314Y0018475D01*
X0055272Y0018407D01*
X0055227Y0018342D01*
X0055179Y0018279D01*
X0055128Y0018219D01*
X0055074Y0018161D01*
X0055017Y0018106D01*
X0054957Y0018054D01*
X0054895Y0018006D01*
X0054830Y0017960D01*
X0054763Y0017917D01*
X0054694Y0017878D01*
X0054624Y0017843D01*
X0054551Y0017811D01*
X0054477Y0017783D01*
X0054402Y0017758D01*
X0054325Y0017738D01*
X0054248Y0017721D01*
X0054170Y0017708D01*
X0054091Y0017699D01*
X0054012Y0017694D01*
X0053933Y0017693D01*
X0053854Y0017696D01*
X0053775Y0017703D01*
X0053697Y0017714D01*
X0053619Y0017729D01*
X0053542Y0017748D01*
X0053466Y0017770D01*
X0053392Y0017796D01*
X0053318Y0017826D01*
X0053247Y0017860D01*
X0053177Y0017897D01*
X0053109Y0017938D01*
X0053043Y0017982D01*
X0052980Y0018030D01*
X0052919Y0018080D01*
X0052860Y0018134D01*
X0052805Y0018190D01*
X0052752Y0018249D01*
X0052702Y0018311D01*
X0052656Y0018375D01*
X0052613Y0018441D01*
X0052573Y0018509D01*
X0052536Y0018580D01*
X0052504Y0018652D01*
X0052474Y0018725D01*
X0052449Y0018800D01*
X0052427Y0018876D01*
X0052410Y0018953D01*
X0052396Y0019031D01*
X0052386Y0019110D01*
X0052380Y0019189D01*
X0052378Y0019268D01*
X0029582Y0019268D02*
X0029584Y0019347D01*
X0029590Y0019426D01*
X0029600Y0019505D01*
X0029614Y0019583D01*
X0029631Y0019660D01*
X0029653Y0019736D01*
X0029678Y0019811D01*
X0029708Y0019884D01*
X0029740Y0019956D01*
X0029777Y0020027D01*
X0029817Y0020095D01*
X0029860Y0020161D01*
X0029906Y0020225D01*
X0029956Y0020287D01*
X0030009Y0020346D01*
X0030064Y0020402D01*
X0030123Y0020456D01*
X0030184Y0020506D01*
X0030247Y0020554D01*
X0030313Y0020598D01*
X0030381Y0020639D01*
X0030451Y0020676D01*
X0030522Y0020710D01*
X0030596Y0020740D01*
X0030670Y0020766D01*
X0030746Y0020788D01*
X0030823Y0020807D01*
X0030901Y0020822D01*
X0030979Y0020833D01*
X0031058Y0020840D01*
X0031137Y0020843D01*
X0031216Y0020842D01*
X0031295Y0020837D01*
X0031374Y0020828D01*
X0031452Y0020815D01*
X0031529Y0020798D01*
X0031606Y0020778D01*
X0031681Y0020753D01*
X0031755Y0020725D01*
X0031828Y0020693D01*
X0031898Y0020658D01*
X0031967Y0020619D01*
X0032034Y0020576D01*
X0032099Y0020530D01*
X0032161Y0020482D01*
X0032221Y0020430D01*
X0032278Y0020375D01*
X0032332Y0020317D01*
X0032383Y0020257D01*
X0032431Y0020194D01*
X0032476Y0020129D01*
X0032518Y0020061D01*
X0032556Y0019992D01*
X0032590Y0019921D01*
X0032621Y0019848D01*
X0032649Y0019773D01*
X0032672Y0019698D01*
X0032692Y0019621D01*
X0032708Y0019544D01*
X0032720Y0019465D01*
X0032728Y0019387D01*
X0032732Y0019308D01*
X0032732Y0019228D01*
X0032728Y0019149D01*
X0032720Y0019071D01*
X0032708Y0018992D01*
X0032692Y0018915D01*
X0032672Y0018838D01*
X0032649Y0018763D01*
X0032621Y0018688D01*
X0032590Y0018615D01*
X0032556Y0018544D01*
X0032518Y0018475D01*
X0032476Y0018407D01*
X0032431Y0018342D01*
X0032383Y0018279D01*
X0032332Y0018219D01*
X0032278Y0018161D01*
X0032221Y0018106D01*
X0032161Y0018054D01*
X0032099Y0018006D01*
X0032034Y0017960D01*
X0031967Y0017917D01*
X0031898Y0017878D01*
X0031828Y0017843D01*
X0031755Y0017811D01*
X0031681Y0017783D01*
X0031606Y0017758D01*
X0031529Y0017738D01*
X0031452Y0017721D01*
X0031374Y0017708D01*
X0031295Y0017699D01*
X0031216Y0017694D01*
X0031137Y0017693D01*
X0031058Y0017696D01*
X0030979Y0017703D01*
X0030901Y0017714D01*
X0030823Y0017729D01*
X0030746Y0017748D01*
X0030670Y0017770D01*
X0030596Y0017796D01*
X0030522Y0017826D01*
X0030451Y0017860D01*
X0030381Y0017897D01*
X0030313Y0017938D01*
X0030247Y0017982D01*
X0030184Y0018030D01*
X0030123Y0018080D01*
X0030064Y0018134D01*
X0030009Y0018190D01*
X0029956Y0018249D01*
X0029906Y0018311D01*
X0029860Y0018375D01*
X0029817Y0018441D01*
X0029777Y0018509D01*
X0029740Y0018580D01*
X0029708Y0018652D01*
X0029678Y0018725D01*
X0029653Y0018800D01*
X0029631Y0018876D01*
X0029614Y0018953D01*
X0029600Y0019031D01*
X0029590Y0019110D01*
X0029584Y0019189D01*
X0029582Y0019268D01*
X0015803Y0019268D02*
X0015805Y0019347D01*
X0015811Y0019426D01*
X0015821Y0019505D01*
X0015835Y0019583D01*
X0015852Y0019660D01*
X0015874Y0019736D01*
X0015899Y0019811D01*
X0015929Y0019884D01*
X0015961Y0019956D01*
X0015998Y0020027D01*
X0016038Y0020095D01*
X0016081Y0020161D01*
X0016127Y0020225D01*
X0016177Y0020287D01*
X0016230Y0020346D01*
X0016285Y0020402D01*
X0016344Y0020456D01*
X0016405Y0020506D01*
X0016468Y0020554D01*
X0016534Y0020598D01*
X0016602Y0020639D01*
X0016672Y0020676D01*
X0016743Y0020710D01*
X0016817Y0020740D01*
X0016891Y0020766D01*
X0016967Y0020788D01*
X0017044Y0020807D01*
X0017122Y0020822D01*
X0017200Y0020833D01*
X0017279Y0020840D01*
X0017358Y0020843D01*
X0017437Y0020842D01*
X0017516Y0020837D01*
X0017595Y0020828D01*
X0017673Y0020815D01*
X0017750Y0020798D01*
X0017827Y0020778D01*
X0017902Y0020753D01*
X0017976Y0020725D01*
X0018049Y0020693D01*
X0018119Y0020658D01*
X0018188Y0020619D01*
X0018255Y0020576D01*
X0018320Y0020530D01*
X0018382Y0020482D01*
X0018442Y0020430D01*
X0018499Y0020375D01*
X0018553Y0020317D01*
X0018604Y0020257D01*
X0018652Y0020194D01*
X0018697Y0020129D01*
X0018739Y0020061D01*
X0018777Y0019992D01*
X0018811Y0019921D01*
X0018842Y0019848D01*
X0018870Y0019773D01*
X0018893Y0019698D01*
X0018913Y0019621D01*
X0018929Y0019544D01*
X0018941Y0019465D01*
X0018949Y0019387D01*
X0018953Y0019308D01*
X0018953Y0019228D01*
X0018949Y0019149D01*
X0018941Y0019071D01*
X0018929Y0018992D01*
X0018913Y0018915D01*
X0018893Y0018838D01*
X0018870Y0018763D01*
X0018842Y0018688D01*
X0018811Y0018615D01*
X0018777Y0018544D01*
X0018739Y0018475D01*
X0018697Y0018407D01*
X0018652Y0018342D01*
X0018604Y0018279D01*
X0018553Y0018219D01*
X0018499Y0018161D01*
X0018442Y0018106D01*
X0018382Y0018054D01*
X0018320Y0018006D01*
X0018255Y0017960D01*
X0018188Y0017917D01*
X0018119Y0017878D01*
X0018049Y0017843D01*
X0017976Y0017811D01*
X0017902Y0017783D01*
X0017827Y0017758D01*
X0017750Y0017738D01*
X0017673Y0017721D01*
X0017595Y0017708D01*
X0017516Y0017699D01*
X0017437Y0017694D01*
X0017358Y0017693D01*
X0017279Y0017696D01*
X0017200Y0017703D01*
X0017122Y0017714D01*
X0017044Y0017729D01*
X0016967Y0017748D01*
X0016891Y0017770D01*
X0016817Y0017796D01*
X0016743Y0017826D01*
X0016672Y0017860D01*
X0016602Y0017897D01*
X0016534Y0017938D01*
X0016468Y0017982D01*
X0016405Y0018030D01*
X0016344Y0018080D01*
X0016285Y0018134D01*
X0016230Y0018190D01*
X0016177Y0018249D01*
X0016127Y0018311D01*
X0016081Y0018375D01*
X0016038Y0018441D01*
X0015998Y0018509D01*
X0015961Y0018580D01*
X0015929Y0018652D01*
X0015899Y0018725D01*
X0015874Y0018800D01*
X0015852Y0018876D01*
X0015835Y0018953D01*
X0015821Y0019031D01*
X0015811Y0019110D01*
X0015805Y0019189D01*
X0015803Y0019268D01*
D13*
X0048795Y0039071D03*
X0055488Y0039071D03*
X0064543Y0038972D03*
X0071236Y0038972D03*
X0071236Y0051079D03*
X0064543Y0051079D03*
X0055331Y0050843D03*
X0048638Y0050843D03*
X0135252Y0050843D03*
X0141945Y0050843D03*
X0151157Y0051079D03*
X0157850Y0051079D03*
X0157850Y0038972D03*
X0151157Y0038972D03*
X0142102Y0039071D03*
X0135409Y0039071D03*
D14*
X0123257Y0037398D03*
X0123257Y0042398D03*
X0123257Y0047398D03*
X0123257Y0052398D03*
X0101657Y0052398D03*
X0101657Y0047398D03*
X0101657Y0042398D03*
X0101657Y0037398D03*
X0036643Y0037398D03*
X0036643Y0042398D03*
X0036643Y0047398D03*
X0036643Y0052398D03*
X0015043Y0052398D03*
X0015043Y0047398D03*
X0015043Y0042398D03*
X0015043Y0037398D03*
D15*
X0010843Y0065016D03*
X0010843Y0072890D03*
X0010843Y0080764D03*
X0010843Y0088638D03*
X0010843Y0096512D03*
X0010843Y0104386D03*
X0010843Y0112260D03*
X0010843Y0120134D03*
X0074622Y0120134D03*
X0074622Y0112260D03*
X0074622Y0104386D03*
X0074622Y0096512D03*
X0074622Y0088638D03*
X0074622Y0080764D03*
X0074622Y0072890D03*
X0074622Y0065016D03*
X0097457Y0065016D03*
X0097457Y0072890D03*
X0097457Y0080764D03*
X0097457Y0088638D03*
X0097457Y0096512D03*
X0097457Y0104386D03*
X0097457Y0112260D03*
X0097457Y0120134D03*
X0161236Y0120134D03*
X0161236Y0112260D03*
X0161236Y0104386D03*
X0161236Y0096512D03*
X0161236Y0088638D03*
X0161236Y0080764D03*
X0161236Y0072890D03*
X0161236Y0065016D03*
D16*
X0157857Y0065542D01*
X0157857Y0051142D01*
X0157850Y0051079D01*
X0151157Y0051079D02*
X0150657Y0051142D01*
X0150657Y0067342D01*
X0156057Y0072742D01*
X0160557Y0072742D01*
X0161236Y0072890D01*
X0160557Y0065542D02*
X0157857Y0065542D01*
X0154257Y0065542D01*
X0160557Y0065542D02*
X0161236Y0065016D01*
X0147057Y0067342D02*
X0160557Y0080842D01*
X0161236Y0080764D01*
X0161236Y0088638D02*
X0160557Y0088942D01*
X0134457Y0088942D01*
X0130857Y0092542D01*
X0114657Y0114142D02*
X0120057Y0119542D01*
X0160557Y0119542D01*
X0161236Y0120134D01*
X0160557Y0112342D02*
X0161236Y0112260D01*
X0147057Y0067342D02*
X0147057Y0048442D01*
X0150657Y0044842D01*
X0150657Y0039442D01*
X0151157Y0038972D01*
X0147957Y0035842D02*
X0147957Y0030442D01*
X0141657Y0030442D01*
X0147957Y0030442D02*
X0147957Y0017842D01*
X0142557Y0012442D01*
X0138057Y0012442D01*
X0118257Y0032242D01*
X0118257Y0042142D01*
X0097557Y0062842D01*
X0097557Y0064642D01*
X0097457Y0065016D01*
X0102044Y0061183D02*
X0102347Y0061485D01*
X0102887Y0060944D01*
X0104100Y0060442D01*
X0104238Y0060442D01*
X0118757Y0045923D01*
X0118757Y0045576D01*
X0119435Y0044898D01*
X0119042Y0044504D01*
X0118723Y0044504D01*
X0102044Y0061183D01*
X0102119Y0061108D02*
X0102724Y0061108D01*
X0103118Y0060109D02*
X0104571Y0060109D01*
X0104116Y0059111D02*
X0105570Y0059111D01*
X0105115Y0058112D02*
X0106568Y0058112D01*
X0106113Y0057113D02*
X0107567Y0057113D01*
X0107112Y0056115D02*
X0108565Y0056115D01*
X0108110Y0055116D02*
X0109564Y0055116D01*
X0109109Y0054118D02*
X0110562Y0054118D01*
X0110107Y0053119D02*
X0111561Y0053119D01*
X0111106Y0052121D02*
X0112559Y0052121D01*
X0112104Y0051122D02*
X0113558Y0051122D01*
X0113103Y0050124D02*
X0114556Y0050124D01*
X0114101Y0049125D02*
X0115555Y0049125D01*
X0115100Y0048127D02*
X0116553Y0048127D01*
X0116098Y0047128D02*
X0117552Y0047128D01*
X0117097Y0046130D02*
X0118550Y0046130D01*
X0118095Y0045131D02*
X0119202Y0045131D01*
X0120957Y0047542D02*
X0122757Y0047542D01*
X0123257Y0047398D01*
X0123657Y0046642D01*
X0123657Y0043042D02*
X0123257Y0042398D01*
X0123657Y0042142D01*
X0123657Y0037642D02*
X0123257Y0037398D01*
X0116257Y0037143D02*
X0106157Y0037143D01*
X0106157Y0036145D02*
X0116257Y0036145D01*
X0116257Y0035146D02*
X0105727Y0035146D01*
X0106157Y0035576D02*
X0105278Y0034698D01*
X0105078Y0034698D01*
X0105078Y0030307D01*
X0113418Y0021968D01*
X0114709Y0021968D01*
X0115463Y0022722D01*
X0116961Y0023343D01*
X0118582Y0023343D01*
X0120080Y0022722D01*
X0121226Y0021576D01*
X0121846Y0020078D01*
X0121846Y0018457D01*
X0121226Y0016960D01*
X0120080Y0015813D01*
X0118582Y0015193D01*
X0116961Y0015193D01*
X0115463Y0015813D01*
X0114709Y0016568D01*
X0111762Y0016568D01*
X0110770Y0016979D01*
X0108067Y0019682D01*
X0108067Y0019444D01*
X0115307Y0012204D01*
X0135466Y0012204D01*
X0116257Y0031413D01*
X0116257Y0041313D01*
X0106157Y0051413D01*
X0106157Y0050576D01*
X0105478Y0049898D01*
X0106157Y0049219D01*
X0106157Y0045576D01*
X0105478Y0044898D01*
X0106157Y0044219D01*
X0106157Y0040576D01*
X0105478Y0039898D01*
X0106157Y0039219D01*
X0106157Y0035576D01*
X0105078Y0034148D02*
X0116257Y0034148D01*
X0116257Y0033149D02*
X0105078Y0033149D01*
X0105078Y0032151D02*
X0116257Y0032151D01*
X0116518Y0031152D02*
X0105078Y0031152D01*
X0105232Y0030154D02*
X0117516Y0030154D01*
X0118515Y0029155D02*
X0106230Y0029155D01*
X0107229Y0028157D02*
X0119513Y0028157D01*
X0120512Y0027158D02*
X0108227Y0027158D01*
X0109226Y0026160D02*
X0121510Y0026160D01*
X0122509Y0025161D02*
X0110224Y0025161D01*
X0111223Y0024163D02*
X0123507Y0024163D01*
X0124506Y0023164D02*
X0119013Y0023164D01*
X0120636Y0022166D02*
X0125504Y0022166D01*
X0126503Y0021167D02*
X0121395Y0021167D01*
X0121809Y0020169D02*
X0127501Y0020169D01*
X0128500Y0019170D02*
X0121846Y0019170D01*
X0121728Y0018172D02*
X0129498Y0018172D01*
X0130497Y0017173D02*
X0121315Y0017173D01*
X0120441Y0016175D02*
X0131495Y0016175D01*
X0132494Y0015176D02*
X0112335Y0015176D01*
X0111337Y0016175D02*
X0115102Y0016175D01*
X0113334Y0014177D02*
X0133492Y0014177D01*
X0134491Y0013179D02*
X0114332Y0013179D01*
X0110576Y0017173D02*
X0110338Y0017173D01*
X0109577Y0018172D02*
X0109340Y0018172D01*
X0108578Y0019170D02*
X0108341Y0019170D01*
X0113220Y0022166D02*
X0114907Y0022166D01*
X0116530Y0023164D02*
X0112221Y0023164D01*
X0116257Y0038142D02*
X0106157Y0038142D01*
X0106157Y0039140D02*
X0116257Y0039140D01*
X0116257Y0040139D02*
X0105719Y0040139D01*
X0106157Y0041137D02*
X0116257Y0041137D01*
X0115434Y0042136D02*
X0106157Y0042136D01*
X0106157Y0043134D02*
X0114436Y0043134D01*
X0113437Y0044133D02*
X0106157Y0044133D01*
X0105712Y0045131D02*
X0112439Y0045131D01*
X0111440Y0046130D02*
X0106157Y0046130D01*
X0106157Y0047128D02*
X0110442Y0047128D01*
X0109443Y0048127D02*
X0106157Y0048127D01*
X0106157Y0049125D02*
X0108445Y0049125D01*
X0107446Y0050124D02*
X0105704Y0050124D01*
X0106157Y0051122D02*
X0106448Y0051122D01*
X0102057Y0052042D02*
X0101657Y0052398D01*
X0102057Y0047542D02*
X0101657Y0047398D01*
X0102057Y0046642D01*
X0102057Y0043042D02*
X0101657Y0042398D01*
X0102057Y0042142D01*
X0102057Y0037642D02*
X0101657Y0037398D01*
X0122757Y0052942D02*
X0123257Y0052398D01*
X0123657Y0052042D01*
X0124557Y0051142D01*
X0134457Y0051142D01*
X0135252Y0050843D01*
X0141657Y0051142D02*
X0141945Y0050843D01*
X0141657Y0051142D02*
X0141657Y0055642D01*
X0140757Y0056542D01*
X0145257Y0057442D02*
X0097557Y0105142D01*
X0097457Y0104386D01*
X0074622Y0112260D02*
X0073943Y0112342D01*
X0073943Y0119542D02*
X0074622Y0120134D01*
X0073943Y0119542D02*
X0033443Y0119542D01*
X0028043Y0114142D01*
X0010943Y0105142D02*
X0010843Y0104386D01*
X0010943Y0105142D02*
X0058643Y0057442D01*
X0058643Y0047542D01*
X0057743Y0046642D01*
X0056843Y0046642D01*
X0049643Y0039442D01*
X0048795Y0039071D01*
X0055488Y0039071D02*
X0055943Y0038542D01*
X0058643Y0038542D01*
X0061343Y0035842D01*
X0061343Y0030442D01*
X0055043Y0030442D01*
X0061343Y0030442D02*
X0061343Y0017842D01*
X0055943Y0012442D01*
X0051443Y0012442D01*
X0031643Y0032242D01*
X0031643Y0042142D01*
X0010943Y0062842D01*
X0010943Y0064642D01*
X0010843Y0065016D01*
X0015430Y0061183D02*
X0015732Y0061485D01*
X0016273Y0060944D01*
X0017486Y0060442D01*
X0017624Y0060442D01*
X0032143Y0045923D01*
X0032143Y0045576D01*
X0032821Y0044898D01*
X0032427Y0044504D01*
X0032109Y0044504D01*
X0015430Y0061183D01*
X0015505Y0061108D02*
X0016110Y0061108D01*
X0016504Y0060109D02*
X0017957Y0060109D01*
X0017502Y0059111D02*
X0018955Y0059111D01*
X0018501Y0058112D02*
X0019954Y0058112D01*
X0019499Y0057113D02*
X0020952Y0057113D01*
X0020498Y0056115D02*
X0021951Y0056115D01*
X0021496Y0055116D02*
X0022949Y0055116D01*
X0022495Y0054118D02*
X0023948Y0054118D01*
X0023493Y0053119D02*
X0024946Y0053119D01*
X0024492Y0052121D02*
X0025945Y0052121D01*
X0025490Y0051122D02*
X0026943Y0051122D01*
X0026489Y0050124D02*
X0027942Y0050124D01*
X0027487Y0049125D02*
X0028940Y0049125D01*
X0028486Y0048127D02*
X0029939Y0048127D01*
X0029484Y0047128D02*
X0030937Y0047128D01*
X0030483Y0046130D02*
X0031936Y0046130D01*
X0031481Y0045131D02*
X0032587Y0045131D01*
X0034343Y0047542D02*
X0036143Y0047542D01*
X0036643Y0047398D01*
X0037043Y0046642D01*
X0037043Y0043042D02*
X0036643Y0042398D01*
X0037043Y0042142D01*
X0037043Y0037642D02*
X0036643Y0037398D01*
X0029643Y0037143D02*
X0019543Y0037143D01*
X0019543Y0036145D02*
X0029643Y0036145D01*
X0029643Y0035146D02*
X0019112Y0035146D01*
X0019543Y0035576D02*
X0019543Y0039219D01*
X0018864Y0039898D01*
X0019543Y0040576D01*
X0019543Y0044219D01*
X0018864Y0044898D01*
X0019543Y0045576D01*
X0019543Y0049219D01*
X0018864Y0049898D01*
X0019543Y0050576D01*
X0019543Y0051413D01*
X0029643Y0041313D01*
X0029643Y0031413D01*
X0048852Y0012204D01*
X0028693Y0012204D01*
X0021453Y0019444D01*
X0021453Y0019682D01*
X0024156Y0016979D01*
X0025148Y0016568D01*
X0028095Y0016568D01*
X0028849Y0015813D01*
X0030347Y0015193D01*
X0031968Y0015193D01*
X0033466Y0015813D01*
X0034612Y0016960D01*
X0035232Y0018457D01*
X0035232Y0020078D01*
X0034612Y0021576D01*
X0033466Y0022722D01*
X0031968Y0023343D01*
X0030347Y0023343D01*
X0028849Y0022722D01*
X0028095Y0021968D01*
X0026803Y0021968D01*
X0018464Y0030307D01*
X0018464Y0034698D01*
X0018664Y0034698D01*
X0019543Y0035576D01*
X0018464Y0034148D02*
X0029643Y0034148D01*
X0029643Y0033149D02*
X0018464Y0033149D01*
X0018464Y0032151D02*
X0029643Y0032151D01*
X0029904Y0031152D02*
X0018464Y0031152D01*
X0018617Y0030154D02*
X0030902Y0030154D01*
X0031901Y0029155D02*
X0019616Y0029155D01*
X0020614Y0028157D02*
X0032899Y0028157D01*
X0033898Y0027158D02*
X0021613Y0027158D01*
X0022611Y0026160D02*
X0034896Y0026160D01*
X0035895Y0025161D02*
X0023610Y0025161D01*
X0024609Y0024163D02*
X0036893Y0024163D01*
X0037892Y0023164D02*
X0032399Y0023164D01*
X0034022Y0022166D02*
X0038890Y0022166D01*
X0039889Y0021167D02*
X0034781Y0021167D01*
X0035195Y0020169D02*
X0040887Y0020169D01*
X0041886Y0019170D02*
X0035232Y0019170D01*
X0035114Y0018172D02*
X0042884Y0018172D01*
X0043883Y0017173D02*
X0034700Y0017173D01*
X0033827Y0016175D02*
X0044881Y0016175D01*
X0045880Y0015176D02*
X0025721Y0015176D01*
X0024723Y0016175D02*
X0028488Y0016175D01*
X0026720Y0014177D02*
X0046878Y0014177D01*
X0047877Y0013179D02*
X0027718Y0013179D01*
X0023961Y0017173D02*
X0023724Y0017173D01*
X0022963Y0018172D02*
X0022726Y0018172D01*
X0021964Y0019170D02*
X0021727Y0019170D01*
X0025607Y0023164D02*
X0029916Y0023164D01*
X0028293Y0022166D02*
X0026606Y0022166D01*
X0029643Y0038142D02*
X0019543Y0038142D01*
X0019543Y0039140D02*
X0029643Y0039140D01*
X0029643Y0040139D02*
X0019105Y0040139D01*
X0019543Y0041137D02*
X0029643Y0041137D01*
X0028820Y0042136D02*
X0019543Y0042136D01*
X0019543Y0043134D02*
X0027821Y0043134D01*
X0026823Y0044133D02*
X0019543Y0044133D01*
X0019098Y0045131D02*
X0025824Y0045131D01*
X0024826Y0046130D02*
X0019543Y0046130D01*
X0019543Y0047128D02*
X0023827Y0047128D01*
X0022829Y0048127D02*
X0019543Y0048127D01*
X0019543Y0049125D02*
X0021830Y0049125D01*
X0020832Y0050124D02*
X0019090Y0050124D01*
X0019543Y0051122D02*
X0019833Y0051122D01*
X0015443Y0052042D02*
X0015043Y0052398D01*
X0015443Y0047542D02*
X0015043Y0047398D01*
X0015443Y0046642D01*
X0015443Y0043042D02*
X0015043Y0042398D01*
X0015443Y0042142D01*
X0015443Y0037642D02*
X0015043Y0037398D01*
X0036143Y0052942D02*
X0036643Y0052398D01*
X0037043Y0052042D01*
X0037943Y0051142D01*
X0047843Y0051142D01*
X0048638Y0050843D01*
X0054143Y0056542D02*
X0055043Y0055642D01*
X0055043Y0051142D01*
X0055331Y0050843D01*
X0060443Y0048442D02*
X0060443Y0067342D01*
X0073943Y0080842D01*
X0074622Y0080764D01*
X0074622Y0088638D02*
X0073943Y0088942D01*
X0047843Y0088942D01*
X0044243Y0092542D01*
X0069443Y0072742D02*
X0073943Y0072742D01*
X0074622Y0072890D01*
X0069443Y0072742D02*
X0064043Y0067342D01*
X0064043Y0051142D01*
X0064543Y0051079D01*
X0060443Y0048442D02*
X0064043Y0044842D01*
X0064043Y0039442D01*
X0064543Y0038972D01*
X0061343Y0035842D02*
X0062243Y0034942D01*
X0066743Y0034942D01*
X0070343Y0038542D01*
X0071236Y0038972D01*
X0071236Y0051079D02*
X0071243Y0051142D01*
X0071243Y0065542D01*
X0074622Y0065016D01*
X0073943Y0065542D01*
X0071243Y0065542D01*
X0067643Y0065542D01*
X0097457Y0072890D02*
X0097557Y0072742D01*
X0102957Y0072742D01*
X0122757Y0052942D01*
X0135409Y0039071D02*
X0136257Y0039442D01*
X0143457Y0046642D01*
X0144357Y0046642D01*
X0145257Y0047542D01*
X0145257Y0057442D01*
X0142102Y0039071D02*
X0142557Y0038542D01*
X0145257Y0038542D01*
X0147957Y0035842D01*
X0148857Y0034942D01*
X0153357Y0034942D01*
X0156957Y0038542D01*
X0157850Y0038972D01*
X0036143Y0052942D02*
X0016343Y0072742D01*
X0010943Y0072742D01*
X0010843Y0072890D01*
D17*
X0018143Y0063742D03*
X0035528Y0089113D03*
X0044243Y0092542D03*
X0028043Y0114142D03*
X0067643Y0065542D03*
X0054143Y0056542D03*
X0055043Y0030442D03*
X0074730Y0022905D03*
X0104757Y0063742D03*
X0122142Y0089113D03*
X0130857Y0092542D03*
X0114657Y0114142D03*
X0154257Y0065542D03*
X0140757Y0056542D03*
X0141657Y0030442D03*
X0161344Y0022905D03*
D18*
X0157983Y0022905D01*
X0154346Y0019268D01*
X0144583Y0009504D01*
X0114189Y0009504D01*
X0104425Y0019268D01*
X0103992Y0019268D01*
X0112299Y0019268D02*
X0102378Y0029189D01*
X0102378Y0036676D01*
X0101657Y0037398D01*
X0102057Y0037642D02*
X0102057Y0042142D01*
X0102057Y0043042D02*
X0102057Y0046642D01*
X0102057Y0047542D02*
X0102057Y0052042D01*
X0104757Y0063742D02*
X0120957Y0047542D01*
X0123657Y0046642D02*
X0123657Y0043042D01*
X0123657Y0042142D02*
X0123657Y0037642D01*
X0123257Y0037398D02*
X0123244Y0037385D01*
X0123244Y0032732D01*
X0136709Y0019268D01*
X0140567Y0019268D01*
X0117772Y0019268D02*
X0112299Y0019268D01*
X0074730Y0022905D02*
X0071369Y0022905D01*
X0067732Y0019268D01*
X0057969Y0009504D01*
X0027575Y0009504D01*
X0017811Y0019268D01*
X0017378Y0019268D01*
X0025685Y0019268D02*
X0015764Y0029189D01*
X0015764Y0036676D01*
X0015043Y0037398D01*
X0015443Y0037642D02*
X0015443Y0042142D01*
X0015443Y0043042D02*
X0015443Y0046642D01*
X0015443Y0047542D02*
X0015443Y0052042D01*
X0018143Y0063742D02*
X0034343Y0047542D01*
X0037043Y0046642D02*
X0037043Y0043042D01*
X0037043Y0042142D02*
X0037043Y0037642D01*
X0036643Y0037398D02*
X0036630Y0037385D01*
X0036630Y0032732D01*
X0050094Y0019268D01*
X0053953Y0019268D01*
X0031157Y0019268D02*
X0025685Y0019268D01*
D19*
X0035528Y0089113D02*
X0035449Y0089192D01*
X0035449Y0100055D01*
X0047735Y0112342D01*
X0073943Y0112342D01*
X0122063Y0100055D02*
X0122063Y0089192D01*
X0122142Y0089113D01*
X0122063Y0100055D02*
X0134350Y0112342D01*
X0160557Y0112342D01*
M02*
