G75*
%MOIN*%
%OFA0B0*%
%FSLAX25Y25*%
%IPPOS*%
%LPD*%
%AMOC8*
5,1,8,0,0,1.08239X$1,22.5*
%
%ADD10C,0.00394*%
%ADD11C,0.00500*%
%ADD12C,0.00000*%
%ADD13C,0.00200*%
%ADD14C,0.00400*%
D10*
X0001394Y0001197D02*
X0001197Y0129031D01*
X0083559Y0129031D01*
X0083756Y0072063D01*
X0083755Y0072063D02*
X0083757Y0071976D01*
X0083763Y0071889D01*
X0083772Y0071802D01*
X0083786Y0071716D01*
X0083803Y0071631D01*
X0083824Y0071546D01*
X0083849Y0071463D01*
X0083877Y0071380D01*
X0083909Y0071299D01*
X0083945Y0071220D01*
X0083984Y0071142D01*
X0084026Y0071066D01*
X0084072Y0070992D01*
X0084121Y0070920D01*
X0084173Y0070850D01*
X0084228Y0070783D01*
X0084286Y0070718D01*
X0084347Y0070655D01*
X0084411Y0070596D01*
X0084477Y0070539D01*
X0084546Y0070486D01*
X0084617Y0070435D01*
X0084690Y0070388D01*
X0084765Y0070343D01*
X0084842Y0070303D01*
X0084920Y0070265D01*
X0085001Y0070232D01*
X0085082Y0070201D01*
X0085165Y0070175D01*
X0085250Y0070152D01*
X0085335Y0070133D01*
X0085420Y0070118D01*
X0085507Y0070106D01*
X0085593Y0070098D01*
X0085680Y0070094D01*
X0085768Y0070094D01*
X0085855Y0070098D01*
X0085941Y0070106D01*
X0086028Y0070118D01*
X0086113Y0070133D01*
X0086198Y0070152D01*
X0086283Y0070175D01*
X0086366Y0070201D01*
X0086447Y0070232D01*
X0086528Y0070265D01*
X0086606Y0070303D01*
X0086683Y0070343D01*
X0086758Y0070388D01*
X0086831Y0070435D01*
X0086902Y0070486D01*
X0086971Y0070539D01*
X0087037Y0070596D01*
X0087101Y0070655D01*
X0087162Y0070718D01*
X0087220Y0070783D01*
X0087275Y0070850D01*
X0087327Y0070920D01*
X0087376Y0070992D01*
X0087422Y0071066D01*
X0087464Y0071142D01*
X0087503Y0071220D01*
X0087539Y0071299D01*
X0087571Y0071380D01*
X0087599Y0071463D01*
X0087624Y0071546D01*
X0087645Y0071631D01*
X0087662Y0071716D01*
X0087676Y0071802D01*
X0087685Y0071889D01*
X0087691Y0071976D01*
X0087693Y0072063D01*
X0087693Y0128874D01*
X0170370Y0128874D01*
X0170370Y0001197D01*
X0087693Y0001197D01*
X0087693Y0056315D01*
X0087691Y0056402D01*
X0087685Y0056489D01*
X0087676Y0056576D01*
X0087662Y0056662D01*
X0087645Y0056747D01*
X0087624Y0056832D01*
X0087599Y0056915D01*
X0087571Y0056998D01*
X0087539Y0057079D01*
X0087503Y0057158D01*
X0087464Y0057236D01*
X0087422Y0057312D01*
X0087376Y0057386D01*
X0087327Y0057458D01*
X0087275Y0057528D01*
X0087220Y0057595D01*
X0087162Y0057660D01*
X0087101Y0057723D01*
X0087037Y0057782D01*
X0086971Y0057839D01*
X0086902Y0057892D01*
X0086831Y0057943D01*
X0086758Y0057990D01*
X0086683Y0058035D01*
X0086606Y0058075D01*
X0086528Y0058113D01*
X0086447Y0058146D01*
X0086366Y0058177D01*
X0086283Y0058203D01*
X0086198Y0058226D01*
X0086113Y0058245D01*
X0086028Y0058260D01*
X0085941Y0058272D01*
X0085855Y0058280D01*
X0085768Y0058284D01*
X0085680Y0058284D01*
X0085593Y0058280D01*
X0085507Y0058272D01*
X0085420Y0058260D01*
X0085335Y0058245D01*
X0085250Y0058226D01*
X0085165Y0058203D01*
X0085082Y0058177D01*
X0085001Y0058146D01*
X0084920Y0058113D01*
X0084842Y0058075D01*
X0084765Y0058035D01*
X0084690Y0057990D01*
X0084617Y0057943D01*
X0084546Y0057892D01*
X0084477Y0057839D01*
X0084411Y0057782D01*
X0084347Y0057723D01*
X0084286Y0057660D01*
X0084228Y0057595D01*
X0084173Y0057528D01*
X0084121Y0057458D01*
X0084072Y0057386D01*
X0084026Y0057312D01*
X0083984Y0057236D01*
X0083945Y0057158D01*
X0083909Y0057079D01*
X0083877Y0056998D01*
X0083849Y0056915D01*
X0083824Y0056832D01*
X0083803Y0056747D01*
X0083786Y0056662D01*
X0083772Y0056576D01*
X0083763Y0056489D01*
X0083757Y0056402D01*
X0083755Y0056315D01*
X0083756Y0056315D02*
X0083756Y0001197D01*
X0001394Y0001197D01*
X0083755Y0064189D02*
X0083757Y0064277D01*
X0083763Y0064365D01*
X0083773Y0064453D01*
X0083787Y0064541D01*
X0083804Y0064627D01*
X0083826Y0064713D01*
X0083851Y0064797D01*
X0083881Y0064881D01*
X0083913Y0064963D01*
X0083950Y0065043D01*
X0083990Y0065122D01*
X0084034Y0065199D01*
X0084081Y0065274D01*
X0084131Y0065346D01*
X0084185Y0065417D01*
X0084241Y0065484D01*
X0084301Y0065550D01*
X0084363Y0065612D01*
X0084429Y0065672D01*
X0084496Y0065728D01*
X0084567Y0065782D01*
X0084639Y0065832D01*
X0084714Y0065879D01*
X0084791Y0065923D01*
X0084870Y0065963D01*
X0084950Y0066000D01*
X0085032Y0066032D01*
X0085116Y0066062D01*
X0085200Y0066087D01*
X0085286Y0066109D01*
X0085372Y0066126D01*
X0085460Y0066140D01*
X0085548Y0066150D01*
X0085636Y0066156D01*
X0085724Y0066158D01*
X0085812Y0066156D01*
X0085900Y0066150D01*
X0085988Y0066140D01*
X0086076Y0066126D01*
X0086162Y0066109D01*
X0086248Y0066087D01*
X0086332Y0066062D01*
X0086416Y0066032D01*
X0086498Y0066000D01*
X0086578Y0065963D01*
X0086657Y0065923D01*
X0086734Y0065879D01*
X0086809Y0065832D01*
X0086881Y0065782D01*
X0086952Y0065728D01*
X0087019Y0065672D01*
X0087085Y0065612D01*
X0087147Y0065550D01*
X0087207Y0065484D01*
X0087263Y0065417D01*
X0087317Y0065346D01*
X0087367Y0065274D01*
X0087414Y0065199D01*
X0087458Y0065122D01*
X0087498Y0065043D01*
X0087535Y0064963D01*
X0087567Y0064881D01*
X0087597Y0064797D01*
X0087622Y0064713D01*
X0087644Y0064627D01*
X0087661Y0064541D01*
X0087675Y0064453D01*
X0087685Y0064365D01*
X0087691Y0064277D01*
X0087693Y0064189D01*
X0087691Y0064101D01*
X0087685Y0064013D01*
X0087675Y0063925D01*
X0087661Y0063837D01*
X0087644Y0063751D01*
X0087622Y0063665D01*
X0087597Y0063581D01*
X0087567Y0063497D01*
X0087535Y0063415D01*
X0087498Y0063335D01*
X0087458Y0063256D01*
X0087414Y0063179D01*
X0087367Y0063104D01*
X0087317Y0063032D01*
X0087263Y0062961D01*
X0087207Y0062894D01*
X0087147Y0062828D01*
X0087085Y0062766D01*
X0087019Y0062706D01*
X0086952Y0062650D01*
X0086881Y0062596D01*
X0086809Y0062546D01*
X0086734Y0062499D01*
X0086657Y0062455D01*
X0086578Y0062415D01*
X0086498Y0062378D01*
X0086416Y0062346D01*
X0086332Y0062316D01*
X0086248Y0062291D01*
X0086162Y0062269D01*
X0086076Y0062252D01*
X0085988Y0062238D01*
X0085900Y0062228D01*
X0085812Y0062222D01*
X0085724Y0062220D01*
X0085636Y0062222D01*
X0085548Y0062228D01*
X0085460Y0062238D01*
X0085372Y0062252D01*
X0085286Y0062269D01*
X0085200Y0062291D01*
X0085116Y0062316D01*
X0085032Y0062346D01*
X0084950Y0062378D01*
X0084870Y0062415D01*
X0084791Y0062455D01*
X0084714Y0062499D01*
X0084639Y0062546D01*
X0084567Y0062596D01*
X0084496Y0062650D01*
X0084429Y0062706D01*
X0084363Y0062766D01*
X0084301Y0062828D01*
X0084241Y0062894D01*
X0084185Y0062961D01*
X0084131Y0063032D01*
X0084081Y0063104D01*
X0084034Y0063179D01*
X0083990Y0063256D01*
X0083950Y0063335D01*
X0083913Y0063415D01*
X0083881Y0063497D01*
X0083851Y0063581D01*
X0083826Y0063665D01*
X0083804Y0063751D01*
X0083787Y0063837D01*
X0083773Y0063925D01*
X0083763Y0064013D01*
X0083757Y0064101D01*
X0083755Y0064189D01*
D11*
X0074622Y0057142D02*
X0074622Y0152024D01*
X0010843Y0152024D01*
X0010843Y0057142D01*
X0074622Y0057142D01*
X0097457Y0057142D02*
X0097457Y0152024D01*
X0161236Y0152024D01*
X0161236Y0057142D01*
X0097457Y0057142D01*
X0105357Y0054198D02*
X0105357Y0035598D01*
X0119557Y0035598D01*
X0119557Y0054198D01*
X0105357Y0054198D01*
X0097102Y0032654D02*
X0124661Y0032654D01*
X0124661Y0005882D01*
X0097102Y0005882D01*
X0097102Y0032654D01*
X0074622Y0032654D02*
X0047063Y0032654D01*
X0047063Y0005882D01*
X0074622Y0005882D01*
X0074622Y0032654D01*
X0038047Y0032654D02*
X0038047Y0005882D01*
X0010488Y0005882D01*
X0010488Y0032654D01*
X0038047Y0032654D01*
X0032943Y0035598D02*
X0018743Y0035598D01*
X0018743Y0054198D01*
X0032943Y0054198D01*
X0032943Y0035598D01*
X0133677Y0032654D02*
X0133677Y0005882D01*
X0161236Y0005882D01*
X0161236Y0032654D01*
X0133677Y0032654D01*
D12*
X0138992Y0019268D02*
X0138994Y0019347D01*
X0139000Y0019426D01*
X0139010Y0019505D01*
X0139024Y0019583D01*
X0139041Y0019660D01*
X0139063Y0019736D01*
X0139088Y0019811D01*
X0139118Y0019884D01*
X0139150Y0019956D01*
X0139187Y0020027D01*
X0139227Y0020095D01*
X0139270Y0020161D01*
X0139316Y0020225D01*
X0139366Y0020287D01*
X0139419Y0020346D01*
X0139474Y0020402D01*
X0139533Y0020456D01*
X0139594Y0020506D01*
X0139657Y0020554D01*
X0139723Y0020598D01*
X0139791Y0020639D01*
X0139861Y0020676D01*
X0139932Y0020710D01*
X0140006Y0020740D01*
X0140080Y0020766D01*
X0140156Y0020788D01*
X0140233Y0020807D01*
X0140311Y0020822D01*
X0140389Y0020833D01*
X0140468Y0020840D01*
X0140547Y0020843D01*
X0140626Y0020842D01*
X0140705Y0020837D01*
X0140784Y0020828D01*
X0140862Y0020815D01*
X0140939Y0020798D01*
X0141016Y0020778D01*
X0141091Y0020753D01*
X0141165Y0020725D01*
X0141238Y0020693D01*
X0141308Y0020658D01*
X0141377Y0020619D01*
X0141444Y0020576D01*
X0141509Y0020530D01*
X0141571Y0020482D01*
X0141631Y0020430D01*
X0141688Y0020375D01*
X0141742Y0020317D01*
X0141793Y0020257D01*
X0141841Y0020194D01*
X0141886Y0020129D01*
X0141928Y0020061D01*
X0141966Y0019992D01*
X0142000Y0019921D01*
X0142031Y0019848D01*
X0142059Y0019773D01*
X0142082Y0019698D01*
X0142102Y0019621D01*
X0142118Y0019544D01*
X0142130Y0019465D01*
X0142138Y0019387D01*
X0142142Y0019308D01*
X0142142Y0019228D01*
X0142138Y0019149D01*
X0142130Y0019071D01*
X0142118Y0018992D01*
X0142102Y0018915D01*
X0142082Y0018838D01*
X0142059Y0018763D01*
X0142031Y0018688D01*
X0142000Y0018615D01*
X0141966Y0018544D01*
X0141928Y0018475D01*
X0141886Y0018407D01*
X0141841Y0018342D01*
X0141793Y0018279D01*
X0141742Y0018219D01*
X0141688Y0018161D01*
X0141631Y0018106D01*
X0141571Y0018054D01*
X0141509Y0018006D01*
X0141444Y0017960D01*
X0141377Y0017917D01*
X0141308Y0017878D01*
X0141238Y0017843D01*
X0141165Y0017811D01*
X0141091Y0017783D01*
X0141016Y0017758D01*
X0140939Y0017738D01*
X0140862Y0017721D01*
X0140784Y0017708D01*
X0140705Y0017699D01*
X0140626Y0017694D01*
X0140547Y0017693D01*
X0140468Y0017696D01*
X0140389Y0017703D01*
X0140311Y0017714D01*
X0140233Y0017729D01*
X0140156Y0017748D01*
X0140080Y0017770D01*
X0140006Y0017796D01*
X0139932Y0017826D01*
X0139861Y0017860D01*
X0139791Y0017897D01*
X0139723Y0017938D01*
X0139657Y0017982D01*
X0139594Y0018030D01*
X0139533Y0018080D01*
X0139474Y0018134D01*
X0139419Y0018190D01*
X0139366Y0018249D01*
X0139316Y0018311D01*
X0139270Y0018375D01*
X0139227Y0018441D01*
X0139187Y0018509D01*
X0139150Y0018580D01*
X0139118Y0018652D01*
X0139088Y0018725D01*
X0139063Y0018800D01*
X0139041Y0018876D01*
X0139024Y0018953D01*
X0139010Y0019031D01*
X0139000Y0019110D01*
X0138994Y0019189D01*
X0138992Y0019268D01*
X0152771Y0019268D02*
X0152773Y0019347D01*
X0152779Y0019426D01*
X0152789Y0019505D01*
X0152803Y0019583D01*
X0152820Y0019660D01*
X0152842Y0019736D01*
X0152867Y0019811D01*
X0152897Y0019884D01*
X0152929Y0019956D01*
X0152966Y0020027D01*
X0153006Y0020095D01*
X0153049Y0020161D01*
X0153095Y0020225D01*
X0153145Y0020287D01*
X0153198Y0020346D01*
X0153253Y0020402D01*
X0153312Y0020456D01*
X0153373Y0020506D01*
X0153436Y0020554D01*
X0153502Y0020598D01*
X0153570Y0020639D01*
X0153640Y0020676D01*
X0153711Y0020710D01*
X0153785Y0020740D01*
X0153859Y0020766D01*
X0153935Y0020788D01*
X0154012Y0020807D01*
X0154090Y0020822D01*
X0154168Y0020833D01*
X0154247Y0020840D01*
X0154326Y0020843D01*
X0154405Y0020842D01*
X0154484Y0020837D01*
X0154563Y0020828D01*
X0154641Y0020815D01*
X0154718Y0020798D01*
X0154795Y0020778D01*
X0154870Y0020753D01*
X0154944Y0020725D01*
X0155017Y0020693D01*
X0155087Y0020658D01*
X0155156Y0020619D01*
X0155223Y0020576D01*
X0155288Y0020530D01*
X0155350Y0020482D01*
X0155410Y0020430D01*
X0155467Y0020375D01*
X0155521Y0020317D01*
X0155572Y0020257D01*
X0155620Y0020194D01*
X0155665Y0020129D01*
X0155707Y0020061D01*
X0155745Y0019992D01*
X0155779Y0019921D01*
X0155810Y0019848D01*
X0155838Y0019773D01*
X0155861Y0019698D01*
X0155881Y0019621D01*
X0155897Y0019544D01*
X0155909Y0019465D01*
X0155917Y0019387D01*
X0155921Y0019308D01*
X0155921Y0019228D01*
X0155917Y0019149D01*
X0155909Y0019071D01*
X0155897Y0018992D01*
X0155881Y0018915D01*
X0155861Y0018838D01*
X0155838Y0018763D01*
X0155810Y0018688D01*
X0155779Y0018615D01*
X0155745Y0018544D01*
X0155707Y0018475D01*
X0155665Y0018407D01*
X0155620Y0018342D01*
X0155572Y0018279D01*
X0155521Y0018219D01*
X0155467Y0018161D01*
X0155410Y0018106D01*
X0155350Y0018054D01*
X0155288Y0018006D01*
X0155223Y0017960D01*
X0155156Y0017917D01*
X0155087Y0017878D01*
X0155017Y0017843D01*
X0154944Y0017811D01*
X0154870Y0017783D01*
X0154795Y0017758D01*
X0154718Y0017738D01*
X0154641Y0017721D01*
X0154563Y0017708D01*
X0154484Y0017699D01*
X0154405Y0017694D01*
X0154326Y0017693D01*
X0154247Y0017696D01*
X0154168Y0017703D01*
X0154090Y0017714D01*
X0154012Y0017729D01*
X0153935Y0017748D01*
X0153859Y0017770D01*
X0153785Y0017796D01*
X0153711Y0017826D01*
X0153640Y0017860D01*
X0153570Y0017897D01*
X0153502Y0017938D01*
X0153436Y0017982D01*
X0153373Y0018030D01*
X0153312Y0018080D01*
X0153253Y0018134D01*
X0153198Y0018190D01*
X0153145Y0018249D01*
X0153095Y0018311D01*
X0153049Y0018375D01*
X0153006Y0018441D01*
X0152966Y0018509D01*
X0152929Y0018580D01*
X0152897Y0018652D01*
X0152867Y0018725D01*
X0152842Y0018800D01*
X0152820Y0018876D01*
X0152803Y0018953D01*
X0152789Y0019031D01*
X0152779Y0019110D01*
X0152773Y0019189D01*
X0152771Y0019268D01*
X0116197Y0019268D02*
X0116199Y0019347D01*
X0116205Y0019426D01*
X0116215Y0019505D01*
X0116229Y0019583D01*
X0116246Y0019660D01*
X0116268Y0019736D01*
X0116293Y0019811D01*
X0116323Y0019884D01*
X0116355Y0019956D01*
X0116392Y0020027D01*
X0116432Y0020095D01*
X0116475Y0020161D01*
X0116521Y0020225D01*
X0116571Y0020287D01*
X0116624Y0020346D01*
X0116679Y0020402D01*
X0116738Y0020456D01*
X0116799Y0020506D01*
X0116862Y0020554D01*
X0116928Y0020598D01*
X0116996Y0020639D01*
X0117066Y0020676D01*
X0117137Y0020710D01*
X0117211Y0020740D01*
X0117285Y0020766D01*
X0117361Y0020788D01*
X0117438Y0020807D01*
X0117516Y0020822D01*
X0117594Y0020833D01*
X0117673Y0020840D01*
X0117752Y0020843D01*
X0117831Y0020842D01*
X0117910Y0020837D01*
X0117989Y0020828D01*
X0118067Y0020815D01*
X0118144Y0020798D01*
X0118221Y0020778D01*
X0118296Y0020753D01*
X0118370Y0020725D01*
X0118443Y0020693D01*
X0118513Y0020658D01*
X0118582Y0020619D01*
X0118649Y0020576D01*
X0118714Y0020530D01*
X0118776Y0020482D01*
X0118836Y0020430D01*
X0118893Y0020375D01*
X0118947Y0020317D01*
X0118998Y0020257D01*
X0119046Y0020194D01*
X0119091Y0020129D01*
X0119133Y0020061D01*
X0119171Y0019992D01*
X0119205Y0019921D01*
X0119236Y0019848D01*
X0119264Y0019773D01*
X0119287Y0019698D01*
X0119307Y0019621D01*
X0119323Y0019544D01*
X0119335Y0019465D01*
X0119343Y0019387D01*
X0119347Y0019308D01*
X0119347Y0019228D01*
X0119343Y0019149D01*
X0119335Y0019071D01*
X0119323Y0018992D01*
X0119307Y0018915D01*
X0119287Y0018838D01*
X0119264Y0018763D01*
X0119236Y0018688D01*
X0119205Y0018615D01*
X0119171Y0018544D01*
X0119133Y0018475D01*
X0119091Y0018407D01*
X0119046Y0018342D01*
X0118998Y0018279D01*
X0118947Y0018219D01*
X0118893Y0018161D01*
X0118836Y0018106D01*
X0118776Y0018054D01*
X0118714Y0018006D01*
X0118649Y0017960D01*
X0118582Y0017917D01*
X0118513Y0017878D01*
X0118443Y0017843D01*
X0118370Y0017811D01*
X0118296Y0017783D01*
X0118221Y0017758D01*
X0118144Y0017738D01*
X0118067Y0017721D01*
X0117989Y0017708D01*
X0117910Y0017699D01*
X0117831Y0017694D01*
X0117752Y0017693D01*
X0117673Y0017696D01*
X0117594Y0017703D01*
X0117516Y0017714D01*
X0117438Y0017729D01*
X0117361Y0017748D01*
X0117285Y0017770D01*
X0117211Y0017796D01*
X0117137Y0017826D01*
X0117066Y0017860D01*
X0116996Y0017897D01*
X0116928Y0017938D01*
X0116862Y0017982D01*
X0116799Y0018030D01*
X0116738Y0018080D01*
X0116679Y0018134D01*
X0116624Y0018190D01*
X0116571Y0018249D01*
X0116521Y0018311D01*
X0116475Y0018375D01*
X0116432Y0018441D01*
X0116392Y0018509D01*
X0116355Y0018580D01*
X0116323Y0018652D01*
X0116293Y0018725D01*
X0116268Y0018800D01*
X0116246Y0018876D01*
X0116229Y0018953D01*
X0116215Y0019031D01*
X0116205Y0019110D01*
X0116199Y0019189D01*
X0116197Y0019268D01*
X0102417Y0019268D02*
X0102419Y0019347D01*
X0102425Y0019426D01*
X0102435Y0019505D01*
X0102449Y0019583D01*
X0102466Y0019660D01*
X0102488Y0019736D01*
X0102513Y0019811D01*
X0102543Y0019884D01*
X0102575Y0019956D01*
X0102612Y0020027D01*
X0102652Y0020095D01*
X0102695Y0020161D01*
X0102741Y0020225D01*
X0102791Y0020287D01*
X0102844Y0020346D01*
X0102899Y0020402D01*
X0102958Y0020456D01*
X0103019Y0020506D01*
X0103082Y0020554D01*
X0103148Y0020598D01*
X0103216Y0020639D01*
X0103286Y0020676D01*
X0103357Y0020710D01*
X0103431Y0020740D01*
X0103505Y0020766D01*
X0103581Y0020788D01*
X0103658Y0020807D01*
X0103736Y0020822D01*
X0103814Y0020833D01*
X0103893Y0020840D01*
X0103972Y0020843D01*
X0104051Y0020842D01*
X0104130Y0020837D01*
X0104209Y0020828D01*
X0104287Y0020815D01*
X0104364Y0020798D01*
X0104441Y0020778D01*
X0104516Y0020753D01*
X0104590Y0020725D01*
X0104663Y0020693D01*
X0104733Y0020658D01*
X0104802Y0020619D01*
X0104869Y0020576D01*
X0104934Y0020530D01*
X0104996Y0020482D01*
X0105056Y0020430D01*
X0105113Y0020375D01*
X0105167Y0020317D01*
X0105218Y0020257D01*
X0105266Y0020194D01*
X0105311Y0020129D01*
X0105353Y0020061D01*
X0105391Y0019992D01*
X0105425Y0019921D01*
X0105456Y0019848D01*
X0105484Y0019773D01*
X0105507Y0019698D01*
X0105527Y0019621D01*
X0105543Y0019544D01*
X0105555Y0019465D01*
X0105563Y0019387D01*
X0105567Y0019308D01*
X0105567Y0019228D01*
X0105563Y0019149D01*
X0105555Y0019071D01*
X0105543Y0018992D01*
X0105527Y0018915D01*
X0105507Y0018838D01*
X0105484Y0018763D01*
X0105456Y0018688D01*
X0105425Y0018615D01*
X0105391Y0018544D01*
X0105353Y0018475D01*
X0105311Y0018407D01*
X0105266Y0018342D01*
X0105218Y0018279D01*
X0105167Y0018219D01*
X0105113Y0018161D01*
X0105056Y0018106D01*
X0104996Y0018054D01*
X0104934Y0018006D01*
X0104869Y0017960D01*
X0104802Y0017917D01*
X0104733Y0017878D01*
X0104663Y0017843D01*
X0104590Y0017811D01*
X0104516Y0017783D01*
X0104441Y0017758D01*
X0104364Y0017738D01*
X0104287Y0017721D01*
X0104209Y0017708D01*
X0104130Y0017699D01*
X0104051Y0017694D01*
X0103972Y0017693D01*
X0103893Y0017696D01*
X0103814Y0017703D01*
X0103736Y0017714D01*
X0103658Y0017729D01*
X0103581Y0017748D01*
X0103505Y0017770D01*
X0103431Y0017796D01*
X0103357Y0017826D01*
X0103286Y0017860D01*
X0103216Y0017897D01*
X0103148Y0017938D01*
X0103082Y0017982D01*
X0103019Y0018030D01*
X0102958Y0018080D01*
X0102899Y0018134D01*
X0102844Y0018190D01*
X0102791Y0018249D01*
X0102741Y0018311D01*
X0102695Y0018375D01*
X0102652Y0018441D01*
X0102612Y0018509D01*
X0102575Y0018580D01*
X0102543Y0018652D01*
X0102513Y0018725D01*
X0102488Y0018800D01*
X0102466Y0018876D01*
X0102449Y0018953D01*
X0102435Y0019031D01*
X0102425Y0019110D01*
X0102419Y0019189D01*
X0102417Y0019268D01*
X0066157Y0019268D02*
X0066159Y0019347D01*
X0066165Y0019426D01*
X0066175Y0019505D01*
X0066189Y0019583D01*
X0066206Y0019660D01*
X0066228Y0019736D01*
X0066253Y0019811D01*
X0066283Y0019884D01*
X0066315Y0019956D01*
X0066352Y0020027D01*
X0066392Y0020095D01*
X0066435Y0020161D01*
X0066481Y0020225D01*
X0066531Y0020287D01*
X0066584Y0020346D01*
X0066639Y0020402D01*
X0066698Y0020456D01*
X0066759Y0020506D01*
X0066822Y0020554D01*
X0066888Y0020598D01*
X0066956Y0020639D01*
X0067026Y0020676D01*
X0067097Y0020710D01*
X0067171Y0020740D01*
X0067245Y0020766D01*
X0067321Y0020788D01*
X0067398Y0020807D01*
X0067476Y0020822D01*
X0067554Y0020833D01*
X0067633Y0020840D01*
X0067712Y0020843D01*
X0067791Y0020842D01*
X0067870Y0020837D01*
X0067949Y0020828D01*
X0068027Y0020815D01*
X0068104Y0020798D01*
X0068181Y0020778D01*
X0068256Y0020753D01*
X0068330Y0020725D01*
X0068403Y0020693D01*
X0068473Y0020658D01*
X0068542Y0020619D01*
X0068609Y0020576D01*
X0068674Y0020530D01*
X0068736Y0020482D01*
X0068796Y0020430D01*
X0068853Y0020375D01*
X0068907Y0020317D01*
X0068958Y0020257D01*
X0069006Y0020194D01*
X0069051Y0020129D01*
X0069093Y0020061D01*
X0069131Y0019992D01*
X0069165Y0019921D01*
X0069196Y0019848D01*
X0069224Y0019773D01*
X0069247Y0019698D01*
X0069267Y0019621D01*
X0069283Y0019544D01*
X0069295Y0019465D01*
X0069303Y0019387D01*
X0069307Y0019308D01*
X0069307Y0019228D01*
X0069303Y0019149D01*
X0069295Y0019071D01*
X0069283Y0018992D01*
X0069267Y0018915D01*
X0069247Y0018838D01*
X0069224Y0018763D01*
X0069196Y0018688D01*
X0069165Y0018615D01*
X0069131Y0018544D01*
X0069093Y0018475D01*
X0069051Y0018407D01*
X0069006Y0018342D01*
X0068958Y0018279D01*
X0068907Y0018219D01*
X0068853Y0018161D01*
X0068796Y0018106D01*
X0068736Y0018054D01*
X0068674Y0018006D01*
X0068609Y0017960D01*
X0068542Y0017917D01*
X0068473Y0017878D01*
X0068403Y0017843D01*
X0068330Y0017811D01*
X0068256Y0017783D01*
X0068181Y0017758D01*
X0068104Y0017738D01*
X0068027Y0017721D01*
X0067949Y0017708D01*
X0067870Y0017699D01*
X0067791Y0017694D01*
X0067712Y0017693D01*
X0067633Y0017696D01*
X0067554Y0017703D01*
X0067476Y0017714D01*
X0067398Y0017729D01*
X0067321Y0017748D01*
X0067245Y0017770D01*
X0067171Y0017796D01*
X0067097Y0017826D01*
X0067026Y0017860D01*
X0066956Y0017897D01*
X0066888Y0017938D01*
X0066822Y0017982D01*
X0066759Y0018030D01*
X0066698Y0018080D01*
X0066639Y0018134D01*
X0066584Y0018190D01*
X0066531Y0018249D01*
X0066481Y0018311D01*
X0066435Y0018375D01*
X0066392Y0018441D01*
X0066352Y0018509D01*
X0066315Y0018580D01*
X0066283Y0018652D01*
X0066253Y0018725D01*
X0066228Y0018800D01*
X0066206Y0018876D01*
X0066189Y0018953D01*
X0066175Y0019031D01*
X0066165Y0019110D01*
X0066159Y0019189D01*
X0066157Y0019268D01*
X0052378Y0019268D02*
X0052380Y0019347D01*
X0052386Y0019426D01*
X0052396Y0019505D01*
X0052410Y0019583D01*
X0052427Y0019660D01*
X0052449Y0019736D01*
X0052474Y0019811D01*
X0052504Y0019884D01*
X0052536Y0019956D01*
X0052573Y0020027D01*
X0052613Y0020095D01*
X0052656Y0020161D01*
X0052702Y0020225D01*
X0052752Y0020287D01*
X0052805Y0020346D01*
X0052860Y0020402D01*
X0052919Y0020456D01*
X0052980Y0020506D01*
X0053043Y0020554D01*
X0053109Y0020598D01*
X0053177Y0020639D01*
X0053247Y0020676D01*
X0053318Y0020710D01*
X0053392Y0020740D01*
X0053466Y0020766D01*
X0053542Y0020788D01*
X0053619Y0020807D01*
X0053697Y0020822D01*
X0053775Y0020833D01*
X0053854Y0020840D01*
X0053933Y0020843D01*
X0054012Y0020842D01*
X0054091Y0020837D01*
X0054170Y0020828D01*
X0054248Y0020815D01*
X0054325Y0020798D01*
X0054402Y0020778D01*
X0054477Y0020753D01*
X0054551Y0020725D01*
X0054624Y0020693D01*
X0054694Y0020658D01*
X0054763Y0020619D01*
X0054830Y0020576D01*
X0054895Y0020530D01*
X0054957Y0020482D01*
X0055017Y0020430D01*
X0055074Y0020375D01*
X0055128Y0020317D01*
X0055179Y0020257D01*
X0055227Y0020194D01*
X0055272Y0020129D01*
X0055314Y0020061D01*
X0055352Y0019992D01*
X0055386Y0019921D01*
X0055417Y0019848D01*
X0055445Y0019773D01*
X0055468Y0019698D01*
X0055488Y0019621D01*
X0055504Y0019544D01*
X0055516Y0019465D01*
X0055524Y0019387D01*
X0055528Y0019308D01*
X0055528Y0019228D01*
X0055524Y0019149D01*
X0055516Y0019071D01*
X0055504Y0018992D01*
X0055488Y0018915D01*
X0055468Y0018838D01*
X0055445Y0018763D01*
X0055417Y0018688D01*
X0055386Y0018615D01*
X0055352Y0018544D01*
X0055314Y0018475D01*
X0055272Y0018407D01*
X0055227Y0018342D01*
X0055179Y0018279D01*
X0055128Y0018219D01*
X0055074Y0018161D01*
X0055017Y0018106D01*
X0054957Y0018054D01*
X0054895Y0018006D01*
X0054830Y0017960D01*
X0054763Y0017917D01*
X0054694Y0017878D01*
X0054624Y0017843D01*
X0054551Y0017811D01*
X0054477Y0017783D01*
X0054402Y0017758D01*
X0054325Y0017738D01*
X0054248Y0017721D01*
X0054170Y0017708D01*
X0054091Y0017699D01*
X0054012Y0017694D01*
X0053933Y0017693D01*
X0053854Y0017696D01*
X0053775Y0017703D01*
X0053697Y0017714D01*
X0053619Y0017729D01*
X0053542Y0017748D01*
X0053466Y0017770D01*
X0053392Y0017796D01*
X0053318Y0017826D01*
X0053247Y0017860D01*
X0053177Y0017897D01*
X0053109Y0017938D01*
X0053043Y0017982D01*
X0052980Y0018030D01*
X0052919Y0018080D01*
X0052860Y0018134D01*
X0052805Y0018190D01*
X0052752Y0018249D01*
X0052702Y0018311D01*
X0052656Y0018375D01*
X0052613Y0018441D01*
X0052573Y0018509D01*
X0052536Y0018580D01*
X0052504Y0018652D01*
X0052474Y0018725D01*
X0052449Y0018800D01*
X0052427Y0018876D01*
X0052410Y0018953D01*
X0052396Y0019031D01*
X0052386Y0019110D01*
X0052380Y0019189D01*
X0052378Y0019268D01*
X0029582Y0019268D02*
X0029584Y0019347D01*
X0029590Y0019426D01*
X0029600Y0019505D01*
X0029614Y0019583D01*
X0029631Y0019660D01*
X0029653Y0019736D01*
X0029678Y0019811D01*
X0029708Y0019884D01*
X0029740Y0019956D01*
X0029777Y0020027D01*
X0029817Y0020095D01*
X0029860Y0020161D01*
X0029906Y0020225D01*
X0029956Y0020287D01*
X0030009Y0020346D01*
X0030064Y0020402D01*
X0030123Y0020456D01*
X0030184Y0020506D01*
X0030247Y0020554D01*
X0030313Y0020598D01*
X0030381Y0020639D01*
X0030451Y0020676D01*
X0030522Y0020710D01*
X0030596Y0020740D01*
X0030670Y0020766D01*
X0030746Y0020788D01*
X0030823Y0020807D01*
X0030901Y0020822D01*
X0030979Y0020833D01*
X0031058Y0020840D01*
X0031137Y0020843D01*
X0031216Y0020842D01*
X0031295Y0020837D01*
X0031374Y0020828D01*
X0031452Y0020815D01*
X0031529Y0020798D01*
X0031606Y0020778D01*
X0031681Y0020753D01*
X0031755Y0020725D01*
X0031828Y0020693D01*
X0031898Y0020658D01*
X0031967Y0020619D01*
X0032034Y0020576D01*
X0032099Y0020530D01*
X0032161Y0020482D01*
X0032221Y0020430D01*
X0032278Y0020375D01*
X0032332Y0020317D01*
X0032383Y0020257D01*
X0032431Y0020194D01*
X0032476Y0020129D01*
X0032518Y0020061D01*
X0032556Y0019992D01*
X0032590Y0019921D01*
X0032621Y0019848D01*
X0032649Y0019773D01*
X0032672Y0019698D01*
X0032692Y0019621D01*
X0032708Y0019544D01*
X0032720Y0019465D01*
X0032728Y0019387D01*
X0032732Y0019308D01*
X0032732Y0019228D01*
X0032728Y0019149D01*
X0032720Y0019071D01*
X0032708Y0018992D01*
X0032692Y0018915D01*
X0032672Y0018838D01*
X0032649Y0018763D01*
X0032621Y0018688D01*
X0032590Y0018615D01*
X0032556Y0018544D01*
X0032518Y0018475D01*
X0032476Y0018407D01*
X0032431Y0018342D01*
X0032383Y0018279D01*
X0032332Y0018219D01*
X0032278Y0018161D01*
X0032221Y0018106D01*
X0032161Y0018054D01*
X0032099Y0018006D01*
X0032034Y0017960D01*
X0031967Y0017917D01*
X0031898Y0017878D01*
X0031828Y0017843D01*
X0031755Y0017811D01*
X0031681Y0017783D01*
X0031606Y0017758D01*
X0031529Y0017738D01*
X0031452Y0017721D01*
X0031374Y0017708D01*
X0031295Y0017699D01*
X0031216Y0017694D01*
X0031137Y0017693D01*
X0031058Y0017696D01*
X0030979Y0017703D01*
X0030901Y0017714D01*
X0030823Y0017729D01*
X0030746Y0017748D01*
X0030670Y0017770D01*
X0030596Y0017796D01*
X0030522Y0017826D01*
X0030451Y0017860D01*
X0030381Y0017897D01*
X0030313Y0017938D01*
X0030247Y0017982D01*
X0030184Y0018030D01*
X0030123Y0018080D01*
X0030064Y0018134D01*
X0030009Y0018190D01*
X0029956Y0018249D01*
X0029906Y0018311D01*
X0029860Y0018375D01*
X0029817Y0018441D01*
X0029777Y0018509D01*
X0029740Y0018580D01*
X0029708Y0018652D01*
X0029678Y0018725D01*
X0029653Y0018800D01*
X0029631Y0018876D01*
X0029614Y0018953D01*
X0029600Y0019031D01*
X0029590Y0019110D01*
X0029584Y0019189D01*
X0029582Y0019268D01*
X0015803Y0019268D02*
X0015805Y0019347D01*
X0015811Y0019426D01*
X0015821Y0019505D01*
X0015835Y0019583D01*
X0015852Y0019660D01*
X0015874Y0019736D01*
X0015899Y0019811D01*
X0015929Y0019884D01*
X0015961Y0019956D01*
X0015998Y0020027D01*
X0016038Y0020095D01*
X0016081Y0020161D01*
X0016127Y0020225D01*
X0016177Y0020287D01*
X0016230Y0020346D01*
X0016285Y0020402D01*
X0016344Y0020456D01*
X0016405Y0020506D01*
X0016468Y0020554D01*
X0016534Y0020598D01*
X0016602Y0020639D01*
X0016672Y0020676D01*
X0016743Y0020710D01*
X0016817Y0020740D01*
X0016891Y0020766D01*
X0016967Y0020788D01*
X0017044Y0020807D01*
X0017122Y0020822D01*
X0017200Y0020833D01*
X0017279Y0020840D01*
X0017358Y0020843D01*
X0017437Y0020842D01*
X0017516Y0020837D01*
X0017595Y0020828D01*
X0017673Y0020815D01*
X0017750Y0020798D01*
X0017827Y0020778D01*
X0017902Y0020753D01*
X0017976Y0020725D01*
X0018049Y0020693D01*
X0018119Y0020658D01*
X0018188Y0020619D01*
X0018255Y0020576D01*
X0018320Y0020530D01*
X0018382Y0020482D01*
X0018442Y0020430D01*
X0018499Y0020375D01*
X0018553Y0020317D01*
X0018604Y0020257D01*
X0018652Y0020194D01*
X0018697Y0020129D01*
X0018739Y0020061D01*
X0018777Y0019992D01*
X0018811Y0019921D01*
X0018842Y0019848D01*
X0018870Y0019773D01*
X0018893Y0019698D01*
X0018913Y0019621D01*
X0018929Y0019544D01*
X0018941Y0019465D01*
X0018949Y0019387D01*
X0018953Y0019308D01*
X0018953Y0019228D01*
X0018949Y0019149D01*
X0018941Y0019071D01*
X0018929Y0018992D01*
X0018913Y0018915D01*
X0018893Y0018838D01*
X0018870Y0018763D01*
X0018842Y0018688D01*
X0018811Y0018615D01*
X0018777Y0018544D01*
X0018739Y0018475D01*
X0018697Y0018407D01*
X0018652Y0018342D01*
X0018604Y0018279D01*
X0018553Y0018219D01*
X0018499Y0018161D01*
X0018442Y0018106D01*
X0018382Y0018054D01*
X0018320Y0018006D01*
X0018255Y0017960D01*
X0018188Y0017917D01*
X0018119Y0017878D01*
X0018049Y0017843D01*
X0017976Y0017811D01*
X0017902Y0017783D01*
X0017827Y0017758D01*
X0017750Y0017738D01*
X0017673Y0017721D01*
X0017595Y0017708D01*
X0017516Y0017699D01*
X0017437Y0017694D01*
X0017358Y0017693D01*
X0017279Y0017696D01*
X0017200Y0017703D01*
X0017122Y0017714D01*
X0017044Y0017729D01*
X0016967Y0017748D01*
X0016891Y0017770D01*
X0016817Y0017796D01*
X0016743Y0017826D01*
X0016672Y0017860D01*
X0016602Y0017897D01*
X0016534Y0017938D01*
X0016468Y0017982D01*
X0016405Y0018030D01*
X0016344Y0018080D01*
X0016285Y0018134D01*
X0016230Y0018190D01*
X0016177Y0018249D01*
X0016127Y0018311D01*
X0016081Y0018375D01*
X0016038Y0018441D01*
X0015998Y0018509D01*
X0015961Y0018580D01*
X0015929Y0018652D01*
X0015899Y0018725D01*
X0015874Y0018800D01*
X0015852Y0018876D01*
X0015835Y0018953D01*
X0015821Y0019031D01*
X0015811Y0019110D01*
X0015805Y0019189D01*
X0015803Y0019268D01*
D13*
X0015673Y0004366D02*
X0015673Y0002899D01*
X0014939Y0002165D01*
X0014205Y0002899D01*
X0014205Y0004366D01*
X0013463Y0003999D02*
X0013096Y0004366D01*
X0012362Y0004366D01*
X0011995Y0003999D01*
X0013463Y0003999D02*
X0013463Y0003632D01*
X0011995Y0002165D01*
X0013463Y0002165D01*
X0011253Y0002165D02*
X0009785Y0002165D01*
X0010519Y0002165D02*
X0010519Y0004366D01*
X0009785Y0003632D01*
X0021203Y0003999D02*
X0021203Y0002532D01*
X0021570Y0002165D01*
X0022304Y0002165D01*
X0022671Y0002532D01*
X0022671Y0003999D01*
X0022304Y0004366D01*
X0021570Y0004366D01*
X0021203Y0003999D01*
X0023412Y0004366D02*
X0023412Y0002532D01*
X0023779Y0002165D01*
X0024513Y0002165D01*
X0024880Y0002532D01*
X0024880Y0004366D01*
X0025622Y0004366D02*
X0027090Y0004366D01*
X0026356Y0004366D02*
X0026356Y0002165D01*
X0031360Y0002295D02*
X0031727Y0001928D01*
X0032461Y0001928D01*
X0032828Y0002295D01*
X0032828Y0003029D01*
X0032094Y0003029D01*
X0031360Y0003763D02*
X0031360Y0002295D01*
X0031360Y0003763D02*
X0031727Y0004130D01*
X0032461Y0004130D01*
X0032828Y0003763D01*
X0033570Y0004130D02*
X0035038Y0001928D01*
X0035038Y0004130D01*
X0035780Y0004130D02*
X0036881Y0004130D01*
X0037248Y0003763D01*
X0037248Y0002295D01*
X0036881Y0001928D01*
X0035780Y0001928D01*
X0035780Y0004130D01*
X0033570Y0004130D02*
X0033570Y0001928D01*
X0048014Y0002532D02*
X0048381Y0002165D01*
X0049115Y0002165D01*
X0049482Y0002532D01*
X0049482Y0003266D01*
X0048748Y0003266D01*
X0049482Y0003999D02*
X0049115Y0004366D01*
X0048381Y0004366D01*
X0048014Y0003999D01*
X0048014Y0002532D01*
X0050224Y0002165D02*
X0050224Y0004366D01*
X0051691Y0002165D01*
X0051691Y0004366D01*
X0052433Y0004366D02*
X0053534Y0004366D01*
X0053901Y0003999D01*
X0053901Y0002532D01*
X0053534Y0002165D01*
X0052433Y0002165D01*
X0052433Y0004366D01*
X0060015Y0004366D02*
X0060749Y0004366D01*
X0060382Y0004366D02*
X0060382Y0002165D01*
X0060015Y0002165D02*
X0060749Y0002165D01*
X0061489Y0002165D02*
X0061489Y0004366D01*
X0062956Y0002165D01*
X0062956Y0004366D01*
X0068092Y0003632D02*
X0068826Y0004366D01*
X0068826Y0002165D01*
X0068092Y0002165D02*
X0069560Y0002165D01*
X0070302Y0002165D02*
X0071770Y0003632D01*
X0071770Y0003999D01*
X0071403Y0004366D01*
X0070669Y0004366D01*
X0070302Y0003999D01*
X0070302Y0002165D02*
X0071770Y0002165D01*
X0072512Y0002899D02*
X0072512Y0004366D01*
X0072512Y0002899D02*
X0073246Y0002165D01*
X0073980Y0002899D01*
X0073980Y0004366D01*
X0096399Y0003632D02*
X0097133Y0004366D01*
X0097133Y0002165D01*
X0096399Y0002165D02*
X0097867Y0002165D01*
X0098609Y0002165D02*
X0100077Y0003632D01*
X0100077Y0003999D01*
X0099710Y0004366D01*
X0098976Y0004366D01*
X0098609Y0003999D01*
X0098609Y0002165D02*
X0100077Y0002165D01*
X0100819Y0002899D02*
X0101553Y0002165D01*
X0102287Y0002899D01*
X0102287Y0004366D01*
X0100819Y0004366D02*
X0100819Y0002899D01*
X0107817Y0002532D02*
X0108184Y0002165D01*
X0108918Y0002165D01*
X0109285Y0002532D01*
X0109285Y0003999D01*
X0108918Y0004366D01*
X0108184Y0004366D01*
X0107817Y0003999D01*
X0107817Y0002532D01*
X0110027Y0002532D02*
X0110394Y0002165D01*
X0111128Y0002165D01*
X0111495Y0002532D01*
X0111495Y0004366D01*
X0112237Y0004366D02*
X0113704Y0004366D01*
X0112971Y0004366D02*
X0112971Y0002165D01*
X0110027Y0002532D02*
X0110027Y0004366D01*
X0117974Y0003763D02*
X0117974Y0002295D01*
X0118341Y0001928D01*
X0119075Y0001928D01*
X0119442Y0002295D01*
X0119442Y0003029D01*
X0118708Y0003029D01*
X0117974Y0003763D02*
X0118341Y0004130D01*
X0119075Y0004130D01*
X0119442Y0003763D01*
X0120184Y0004130D02*
X0121652Y0001928D01*
X0121652Y0004130D01*
X0122394Y0004130D02*
X0122394Y0001928D01*
X0123495Y0001928D01*
X0123862Y0002295D01*
X0123862Y0003763D01*
X0123495Y0004130D01*
X0122394Y0004130D01*
X0120184Y0004130D02*
X0120184Y0001928D01*
X0134628Y0002532D02*
X0134995Y0002165D01*
X0135729Y0002165D01*
X0136096Y0002532D01*
X0136096Y0003266D01*
X0135362Y0003266D01*
X0136096Y0003999D02*
X0135729Y0004366D01*
X0134995Y0004366D01*
X0134628Y0003999D01*
X0134628Y0002532D01*
X0136838Y0002165D02*
X0136838Y0004366D01*
X0138306Y0002165D01*
X0138306Y0004366D01*
X0139048Y0004366D02*
X0139048Y0002165D01*
X0140149Y0002165D01*
X0140515Y0002532D01*
X0140515Y0003999D01*
X0140149Y0004366D01*
X0139048Y0004366D01*
X0146629Y0004366D02*
X0147363Y0004366D01*
X0146996Y0004366D02*
X0146996Y0002165D01*
X0146629Y0002165D02*
X0147363Y0002165D01*
X0148103Y0002165D02*
X0148103Y0004366D01*
X0149571Y0002165D01*
X0149571Y0004366D01*
X0154707Y0003632D02*
X0155441Y0004366D01*
X0155441Y0002165D01*
X0156174Y0002165D02*
X0154707Y0002165D01*
X0156916Y0002165D02*
X0158384Y0003632D01*
X0158384Y0003999D01*
X0158017Y0004366D01*
X0157283Y0004366D01*
X0156916Y0003999D01*
X0156916Y0002165D02*
X0158384Y0002165D01*
X0159126Y0002899D02*
X0159860Y0002165D01*
X0160594Y0002899D01*
X0160594Y0004366D01*
X0159126Y0004366D02*
X0159126Y0002899D01*
X0157625Y0033541D02*
X0156524Y0034275D01*
X0157625Y0035009D01*
X0156524Y0035743D02*
X0156524Y0033541D01*
X0155782Y0033908D02*
X0155415Y0033541D01*
X0154681Y0033541D01*
X0154314Y0033908D01*
X0155782Y0035376D01*
X0155782Y0033908D01*
X0155782Y0035376D02*
X0155415Y0035743D01*
X0154681Y0035743D01*
X0154314Y0035376D01*
X0154314Y0033908D01*
X0153572Y0033541D02*
X0152104Y0033541D01*
X0152838Y0033541D02*
X0152838Y0035743D01*
X0152104Y0035009D01*
X0151558Y0042360D02*
X0151558Y0044562D01*
X0152659Y0044562D01*
X0153026Y0044195D01*
X0153026Y0043461D01*
X0152659Y0043094D01*
X0151558Y0043094D01*
X0150816Y0042727D02*
X0150816Y0043461D01*
X0150082Y0043461D01*
X0150816Y0044195D02*
X0150449Y0044562D01*
X0149715Y0044562D01*
X0149348Y0044195D01*
X0149348Y0042727D01*
X0149715Y0042360D01*
X0150449Y0042360D01*
X0150816Y0042727D01*
X0153768Y0042360D02*
X0154502Y0042360D01*
X0154135Y0042360D02*
X0154135Y0044562D01*
X0153768Y0044562D02*
X0154502Y0044562D01*
X0155241Y0044195D02*
X0155608Y0044562D01*
X0156342Y0044562D01*
X0156709Y0044195D01*
X0156709Y0042727D01*
X0156342Y0042360D01*
X0155608Y0042360D01*
X0155241Y0042727D01*
X0155241Y0044195D01*
X0155415Y0045647D02*
X0154681Y0045647D01*
X0154314Y0046014D01*
X0155782Y0047482D01*
X0155782Y0046014D01*
X0155415Y0045647D01*
X0156524Y0045647D02*
X0156524Y0047849D01*
X0155782Y0047482D02*
X0155415Y0047849D01*
X0154681Y0047849D01*
X0154314Y0047482D01*
X0154314Y0046014D01*
X0153572Y0045647D02*
X0152104Y0045647D01*
X0152838Y0045647D02*
X0152838Y0047849D01*
X0152104Y0047115D01*
X0156524Y0046381D02*
X0157625Y0045647D01*
X0156524Y0046381D02*
X0157625Y0047115D01*
X0160028Y0044562D02*
X0159661Y0044195D01*
X0160028Y0044562D02*
X0160762Y0044562D01*
X0161129Y0044195D01*
X0161129Y0043828D01*
X0159661Y0042360D01*
X0161129Y0042360D01*
X0158919Y0043461D02*
X0157451Y0043461D01*
X0156342Y0054072D02*
X0155608Y0054072D01*
X0155241Y0054439D01*
X0155241Y0055907D01*
X0155608Y0056274D01*
X0156342Y0056274D01*
X0156709Y0055907D01*
X0156709Y0054439D01*
X0156342Y0054072D01*
X0157451Y0055173D02*
X0158919Y0055173D01*
X0159661Y0055540D02*
X0160395Y0056274D01*
X0160395Y0054072D01*
X0159661Y0054072D02*
X0161129Y0054072D01*
X0161871Y0054439D02*
X0162238Y0054072D01*
X0162972Y0054072D01*
X0163339Y0054439D01*
X0163339Y0055173D01*
X0162972Y0055540D01*
X0162605Y0055540D01*
X0161871Y0055173D01*
X0161871Y0056274D01*
X0163339Y0056274D01*
X0154502Y0056274D02*
X0153768Y0056274D01*
X0154135Y0056274D02*
X0154135Y0054072D01*
X0153768Y0054072D02*
X0154502Y0054072D01*
X0153026Y0055173D02*
X0153026Y0055907D01*
X0152659Y0056274D01*
X0151558Y0056274D01*
X0151558Y0054072D01*
X0151558Y0054806D02*
X0152659Y0054806D01*
X0153026Y0055173D01*
X0150816Y0055173D02*
X0150082Y0055173D01*
X0150816Y0055173D02*
X0150816Y0054439D01*
X0150449Y0054072D01*
X0149715Y0054072D01*
X0149348Y0054439D01*
X0149348Y0055907D01*
X0149715Y0056274D01*
X0150449Y0056274D01*
X0150816Y0055907D01*
X0141227Y0054203D02*
X0141227Y0053836D01*
X0140860Y0053836D01*
X0140860Y0054203D01*
X0141227Y0054203D01*
X0140118Y0053836D02*
X0140118Y0056038D01*
X0139384Y0055304D01*
X0138650Y0056038D01*
X0138650Y0053836D01*
X0137908Y0053836D02*
X0137908Y0056038D01*
X0136440Y0056038D02*
X0136440Y0053836D01*
X0137174Y0054570D01*
X0137908Y0053836D01*
X0135698Y0054937D02*
X0135698Y0055671D01*
X0135331Y0056038D01*
X0134230Y0056038D01*
X0134230Y0053836D01*
X0134230Y0054570D02*
X0135331Y0054570D01*
X0135698Y0054937D01*
X0136932Y0047613D02*
X0136932Y0045411D01*
X0136198Y0045411D02*
X0137666Y0045411D01*
X0138408Y0045778D02*
X0139876Y0047246D01*
X0139876Y0045778D01*
X0139509Y0045411D01*
X0138775Y0045411D01*
X0138408Y0045778D01*
X0138408Y0047246D01*
X0138775Y0047613D01*
X0139509Y0047613D01*
X0139876Y0047246D01*
X0140618Y0047613D02*
X0140618Y0045411D01*
X0140618Y0046145D02*
X0141719Y0046879D01*
X0140618Y0046145D02*
X0141719Y0045411D01*
X0141331Y0044266D02*
X0140230Y0044266D01*
X0140230Y0042065D01*
X0140230Y0042799D02*
X0141331Y0042799D01*
X0141698Y0043166D01*
X0141698Y0043899D01*
X0141331Y0044266D01*
X0142440Y0044266D02*
X0142440Y0042065D01*
X0143540Y0042065D01*
X0143907Y0042432D01*
X0143907Y0043899D01*
X0143540Y0044266D01*
X0142440Y0044266D01*
X0139488Y0043166D02*
X0138020Y0043166D01*
X0137278Y0043166D02*
X0135810Y0043166D01*
X0135068Y0043899D02*
X0134701Y0044266D01*
X0133967Y0044266D01*
X0133600Y0043899D01*
X0133600Y0042432D01*
X0133967Y0042065D01*
X0134701Y0042065D01*
X0135068Y0042432D01*
X0135810Y0042065D02*
X0135810Y0044266D01*
X0137278Y0044266D02*
X0137278Y0042065D01*
X0136198Y0046879D02*
X0136932Y0047613D01*
X0137090Y0035841D02*
X0137090Y0033639D01*
X0136356Y0033639D02*
X0137824Y0033639D01*
X0138566Y0034006D02*
X0138933Y0033639D01*
X0139667Y0033639D01*
X0140034Y0034006D01*
X0140034Y0035474D01*
X0138566Y0034006D01*
X0138566Y0035474D01*
X0138933Y0035841D01*
X0139667Y0035841D01*
X0140034Y0035474D01*
X0140776Y0035841D02*
X0140776Y0033639D01*
X0140776Y0034373D02*
X0141877Y0033639D01*
X0140776Y0034373D02*
X0141877Y0035107D01*
X0137090Y0035841D02*
X0136356Y0035107D01*
X0115957Y0037798D02*
X0115959Y0037873D01*
X0115965Y0037947D01*
X0115975Y0038021D01*
X0115989Y0038094D01*
X0116006Y0038166D01*
X0116028Y0038238D01*
X0116053Y0038308D01*
X0116082Y0038376D01*
X0116115Y0038444D01*
X0116151Y0038509D01*
X0116190Y0038572D01*
X0116233Y0038633D01*
X0116279Y0038692D01*
X0116328Y0038748D01*
X0116380Y0038801D01*
X0116435Y0038852D01*
X0116492Y0038899D01*
X0116552Y0038944D01*
X0116614Y0038985D01*
X0116679Y0039023D01*
X0116745Y0039057D01*
X0116813Y0039088D01*
X0116882Y0039115D01*
X0116953Y0039138D01*
X0117025Y0039158D01*
X0117098Y0039174D01*
X0117171Y0039186D01*
X0117245Y0039194D01*
X0117320Y0039198D01*
X0117394Y0039198D01*
X0117469Y0039194D01*
X0117543Y0039186D01*
X0117616Y0039174D01*
X0117689Y0039158D01*
X0117761Y0039138D01*
X0117832Y0039115D01*
X0117901Y0039088D01*
X0117969Y0039057D01*
X0118035Y0039023D01*
X0118100Y0038985D01*
X0118162Y0038944D01*
X0118222Y0038899D01*
X0118279Y0038852D01*
X0118334Y0038801D01*
X0118386Y0038748D01*
X0118435Y0038692D01*
X0118481Y0038633D01*
X0118524Y0038572D01*
X0118563Y0038509D01*
X0118599Y0038444D01*
X0118632Y0038376D01*
X0118661Y0038308D01*
X0118686Y0038238D01*
X0118708Y0038166D01*
X0118725Y0038094D01*
X0118739Y0038021D01*
X0118749Y0037947D01*
X0118755Y0037873D01*
X0118757Y0037798D01*
X0118755Y0037723D01*
X0118749Y0037649D01*
X0118739Y0037575D01*
X0118725Y0037502D01*
X0118708Y0037430D01*
X0118686Y0037358D01*
X0118661Y0037288D01*
X0118632Y0037220D01*
X0118599Y0037152D01*
X0118563Y0037087D01*
X0118524Y0037024D01*
X0118481Y0036963D01*
X0118435Y0036904D01*
X0118386Y0036848D01*
X0118334Y0036795D01*
X0118279Y0036744D01*
X0118222Y0036697D01*
X0118162Y0036652D01*
X0118100Y0036611D01*
X0118035Y0036573D01*
X0117969Y0036539D01*
X0117901Y0036508D01*
X0117832Y0036481D01*
X0117761Y0036458D01*
X0117689Y0036438D01*
X0117616Y0036422D01*
X0117543Y0036410D01*
X0117469Y0036402D01*
X0117394Y0036398D01*
X0117320Y0036398D01*
X0117245Y0036402D01*
X0117171Y0036410D01*
X0117098Y0036422D01*
X0117025Y0036438D01*
X0116953Y0036458D01*
X0116882Y0036481D01*
X0116813Y0036508D01*
X0116745Y0036539D01*
X0116679Y0036573D01*
X0116614Y0036611D01*
X0116552Y0036652D01*
X0116492Y0036697D01*
X0116435Y0036744D01*
X0116380Y0036795D01*
X0116328Y0036848D01*
X0116279Y0036904D01*
X0116233Y0036963D01*
X0116190Y0037024D01*
X0116151Y0037087D01*
X0116115Y0037152D01*
X0116082Y0037220D01*
X0116053Y0037288D01*
X0116028Y0037358D01*
X0116006Y0037430D01*
X0115989Y0037502D01*
X0115975Y0037575D01*
X0115965Y0037649D01*
X0115959Y0037723D01*
X0115957Y0037798D01*
X0113308Y0037438D02*
X0113308Y0036337D01*
X0111106Y0036337D01*
X0111106Y0037438D01*
X0111473Y0037805D01*
X0112941Y0037805D01*
X0113308Y0037438D01*
X0112941Y0038547D02*
X0113308Y0038914D01*
X0113308Y0039648D01*
X0112941Y0040015D01*
X0112574Y0040015D01*
X0112207Y0039648D01*
X0112207Y0038914D01*
X0111840Y0038547D01*
X0111473Y0038547D01*
X0111106Y0038914D01*
X0111106Y0039648D01*
X0111473Y0040015D01*
X0112207Y0040757D02*
X0112207Y0042225D01*
X0112574Y0042967D02*
X0112207Y0043334D01*
X0112207Y0044068D01*
X0112574Y0044435D01*
X0112941Y0044435D01*
X0113308Y0044068D01*
X0113308Y0043334D01*
X0112941Y0042967D01*
X0112574Y0042967D01*
X0112207Y0043334D02*
X0111840Y0042967D01*
X0111473Y0042967D01*
X0111106Y0043334D01*
X0111106Y0044068D01*
X0111473Y0044435D01*
X0111840Y0044435D01*
X0112207Y0044068D01*
X0112574Y0045177D02*
X0112207Y0045544D01*
X0112207Y0046278D01*
X0112574Y0046645D01*
X0112941Y0046645D01*
X0113308Y0046278D01*
X0113308Y0045544D01*
X0112941Y0045177D01*
X0112574Y0045177D01*
X0112207Y0045544D02*
X0111840Y0045177D01*
X0111473Y0045177D01*
X0111106Y0045544D01*
X0111106Y0046278D01*
X0111473Y0046645D01*
X0111840Y0046645D01*
X0112207Y0046278D01*
X0111840Y0047387D02*
X0112207Y0047754D01*
X0112207Y0048855D01*
X0112941Y0048855D02*
X0111473Y0048855D01*
X0111106Y0048488D01*
X0111106Y0047754D01*
X0111473Y0047387D01*
X0111840Y0047387D01*
X0112941Y0047387D02*
X0113308Y0047754D01*
X0113308Y0048488D01*
X0112941Y0048855D01*
X0112941Y0049597D02*
X0113308Y0049964D01*
X0113308Y0050698D01*
X0112941Y0051065D01*
X0112574Y0051065D01*
X0112207Y0050698D01*
X0112207Y0049597D01*
X0112941Y0049597D01*
X0112207Y0049597D02*
X0111473Y0050331D01*
X0111106Y0051065D01*
X0111106Y0035595D02*
X0111106Y0034128D01*
X0113308Y0034128D01*
X0112207Y0034128D02*
X0112207Y0034862D01*
X0074515Y0054439D02*
X0074148Y0054072D01*
X0073414Y0054072D01*
X0073047Y0054439D01*
X0073047Y0055173D02*
X0073781Y0055540D01*
X0074148Y0055540D01*
X0074515Y0055173D01*
X0074515Y0054439D01*
X0073047Y0055173D02*
X0073047Y0056274D01*
X0074515Y0056274D01*
X0072305Y0054072D02*
X0070837Y0054072D01*
X0071571Y0054072D02*
X0071571Y0056274D01*
X0070837Y0055540D01*
X0070095Y0055907D02*
X0070095Y0054439D01*
X0069728Y0054072D01*
X0068994Y0054072D01*
X0068627Y0054439D01*
X0068627Y0055907D01*
X0068994Y0056274D01*
X0069728Y0056274D01*
X0070095Y0055907D01*
X0067888Y0056274D02*
X0067154Y0056274D01*
X0067521Y0056274D02*
X0067521Y0054072D01*
X0067154Y0054072D02*
X0067888Y0054072D01*
X0066412Y0055173D02*
X0066412Y0055907D01*
X0066045Y0056274D01*
X0064944Y0056274D01*
X0064944Y0054072D01*
X0064944Y0054806D02*
X0066045Y0054806D01*
X0066412Y0055173D01*
X0064202Y0055173D02*
X0063468Y0055173D01*
X0064202Y0055173D02*
X0064202Y0054439D01*
X0063835Y0054072D01*
X0063101Y0054072D01*
X0062734Y0054439D01*
X0062734Y0055907D01*
X0063101Y0056274D01*
X0063835Y0056274D01*
X0064202Y0055907D01*
X0066224Y0047849D02*
X0066224Y0045647D01*
X0065490Y0045647D02*
X0066958Y0045647D01*
X0067700Y0046014D02*
X0068067Y0045647D01*
X0068801Y0045647D01*
X0069168Y0046014D01*
X0069168Y0047482D01*
X0067700Y0046014D01*
X0067700Y0047482D01*
X0068067Y0047849D01*
X0068801Y0047849D01*
X0069168Y0047482D01*
X0069910Y0047849D02*
X0069910Y0045647D01*
X0069910Y0046381D02*
X0071010Y0047115D01*
X0069910Y0046381D02*
X0071010Y0045647D01*
X0071204Y0044562D02*
X0070837Y0044195D01*
X0071204Y0044562D02*
X0071938Y0044562D01*
X0072305Y0044195D01*
X0072305Y0043828D01*
X0070837Y0042360D01*
X0072305Y0042360D01*
X0070095Y0042727D02*
X0070095Y0044195D01*
X0069728Y0044562D01*
X0068994Y0044562D01*
X0068627Y0044195D01*
X0068627Y0042727D01*
X0068994Y0042360D01*
X0069728Y0042360D01*
X0070095Y0042727D01*
X0067888Y0042360D02*
X0067154Y0042360D01*
X0067521Y0042360D02*
X0067521Y0044562D01*
X0067154Y0044562D02*
X0067888Y0044562D01*
X0066412Y0044195D02*
X0066412Y0043461D01*
X0066045Y0043094D01*
X0064944Y0043094D01*
X0064944Y0042360D02*
X0064944Y0044562D01*
X0066045Y0044562D01*
X0066412Y0044195D01*
X0064202Y0044195D02*
X0063835Y0044562D01*
X0063101Y0044562D01*
X0062734Y0044195D01*
X0062734Y0042727D01*
X0063101Y0042360D01*
X0063835Y0042360D01*
X0064202Y0042727D01*
X0064202Y0043461D01*
X0063468Y0043461D01*
X0065490Y0047115D02*
X0066224Y0047849D01*
X0057293Y0043899D02*
X0057293Y0042432D01*
X0056926Y0042065D01*
X0055825Y0042065D01*
X0055825Y0044266D01*
X0056926Y0044266D01*
X0057293Y0043899D01*
X0055083Y0043899D02*
X0055083Y0043166D01*
X0054716Y0042799D01*
X0053615Y0042799D01*
X0053615Y0042065D02*
X0053615Y0044266D01*
X0054716Y0044266D01*
X0055083Y0043899D01*
X0055105Y0045411D02*
X0054004Y0046145D01*
X0055105Y0046879D01*
X0054004Y0047613D02*
X0054004Y0045411D01*
X0053262Y0045778D02*
X0052895Y0045411D01*
X0052161Y0045411D01*
X0051794Y0045778D01*
X0053262Y0047246D01*
X0053262Y0045778D01*
X0051794Y0045778D02*
X0051794Y0047246D01*
X0052161Y0047613D01*
X0052895Y0047613D01*
X0053262Y0047246D01*
X0051052Y0045411D02*
X0049584Y0045411D01*
X0050318Y0045411D02*
X0050318Y0047613D01*
X0049584Y0046879D01*
X0049196Y0044266D02*
X0049196Y0042065D01*
X0048454Y0042432D02*
X0048087Y0042065D01*
X0047353Y0042065D01*
X0046986Y0042432D01*
X0046986Y0043899D01*
X0047353Y0044266D01*
X0048087Y0044266D01*
X0048454Y0043899D01*
X0049196Y0043166D02*
X0050664Y0043166D01*
X0050664Y0044266D02*
X0050664Y0042065D01*
X0051406Y0041698D02*
X0052873Y0041698D01*
X0053053Y0035841D02*
X0053420Y0035474D01*
X0051952Y0034006D01*
X0052319Y0033639D01*
X0053053Y0033639D01*
X0053420Y0034006D01*
X0053420Y0035474D01*
X0053053Y0035841D02*
X0052319Y0035841D01*
X0051952Y0035474D01*
X0051952Y0034006D01*
X0051210Y0033639D02*
X0049742Y0033639D01*
X0050476Y0033639D02*
X0050476Y0035841D01*
X0049742Y0035107D01*
X0054161Y0034373D02*
X0055262Y0035107D01*
X0054161Y0034373D02*
X0055262Y0033639D01*
X0054161Y0033639D02*
X0054161Y0035841D01*
X0065490Y0035009D02*
X0066224Y0035743D01*
X0066224Y0033541D01*
X0065490Y0033541D02*
X0066958Y0033541D01*
X0067700Y0033908D02*
X0068067Y0033541D01*
X0068801Y0033541D01*
X0069168Y0033908D01*
X0069168Y0035376D01*
X0067700Y0033908D01*
X0067700Y0035376D01*
X0068067Y0035743D01*
X0068801Y0035743D01*
X0069168Y0035376D01*
X0069910Y0035743D02*
X0069910Y0033541D01*
X0069910Y0034275D02*
X0071010Y0035009D01*
X0069910Y0034275D02*
X0071010Y0033541D01*
X0053503Y0053836D02*
X0053503Y0056038D01*
X0052769Y0055304D01*
X0052036Y0056038D01*
X0052036Y0053836D01*
X0051294Y0053836D02*
X0051294Y0056038D01*
X0049826Y0056038D02*
X0049826Y0053836D01*
X0050560Y0054570D01*
X0051294Y0053836D01*
X0049084Y0054937D02*
X0049084Y0055671D01*
X0048717Y0056038D01*
X0047616Y0056038D01*
X0047616Y0053836D01*
X0047616Y0054570D02*
X0048717Y0054570D01*
X0049084Y0054937D01*
X0029343Y0037798D02*
X0029345Y0037873D01*
X0029351Y0037947D01*
X0029361Y0038021D01*
X0029375Y0038094D01*
X0029392Y0038166D01*
X0029414Y0038238D01*
X0029439Y0038308D01*
X0029468Y0038376D01*
X0029501Y0038444D01*
X0029537Y0038509D01*
X0029576Y0038572D01*
X0029619Y0038633D01*
X0029665Y0038692D01*
X0029714Y0038748D01*
X0029766Y0038801D01*
X0029821Y0038852D01*
X0029878Y0038899D01*
X0029938Y0038944D01*
X0030000Y0038985D01*
X0030065Y0039023D01*
X0030131Y0039057D01*
X0030199Y0039088D01*
X0030268Y0039115D01*
X0030339Y0039138D01*
X0030411Y0039158D01*
X0030484Y0039174D01*
X0030557Y0039186D01*
X0030631Y0039194D01*
X0030706Y0039198D01*
X0030780Y0039198D01*
X0030855Y0039194D01*
X0030929Y0039186D01*
X0031002Y0039174D01*
X0031075Y0039158D01*
X0031147Y0039138D01*
X0031218Y0039115D01*
X0031287Y0039088D01*
X0031355Y0039057D01*
X0031421Y0039023D01*
X0031486Y0038985D01*
X0031548Y0038944D01*
X0031608Y0038899D01*
X0031665Y0038852D01*
X0031720Y0038801D01*
X0031772Y0038748D01*
X0031821Y0038692D01*
X0031867Y0038633D01*
X0031910Y0038572D01*
X0031949Y0038509D01*
X0031985Y0038444D01*
X0032018Y0038376D01*
X0032047Y0038308D01*
X0032072Y0038238D01*
X0032094Y0038166D01*
X0032111Y0038094D01*
X0032125Y0038021D01*
X0032135Y0037947D01*
X0032141Y0037873D01*
X0032143Y0037798D01*
X0032141Y0037723D01*
X0032135Y0037649D01*
X0032125Y0037575D01*
X0032111Y0037502D01*
X0032094Y0037430D01*
X0032072Y0037358D01*
X0032047Y0037288D01*
X0032018Y0037220D01*
X0031985Y0037152D01*
X0031949Y0037087D01*
X0031910Y0037024D01*
X0031867Y0036963D01*
X0031821Y0036904D01*
X0031772Y0036848D01*
X0031720Y0036795D01*
X0031665Y0036744D01*
X0031608Y0036697D01*
X0031548Y0036652D01*
X0031486Y0036611D01*
X0031421Y0036573D01*
X0031355Y0036539D01*
X0031287Y0036508D01*
X0031218Y0036481D01*
X0031147Y0036458D01*
X0031075Y0036438D01*
X0031002Y0036422D01*
X0030929Y0036410D01*
X0030855Y0036402D01*
X0030780Y0036398D01*
X0030706Y0036398D01*
X0030631Y0036402D01*
X0030557Y0036410D01*
X0030484Y0036422D01*
X0030411Y0036438D01*
X0030339Y0036458D01*
X0030268Y0036481D01*
X0030199Y0036508D01*
X0030131Y0036539D01*
X0030065Y0036573D01*
X0030000Y0036611D01*
X0029938Y0036652D01*
X0029878Y0036697D01*
X0029821Y0036744D01*
X0029766Y0036795D01*
X0029714Y0036848D01*
X0029665Y0036904D01*
X0029619Y0036963D01*
X0029576Y0037024D01*
X0029537Y0037087D01*
X0029501Y0037152D01*
X0029468Y0037220D01*
X0029439Y0037288D01*
X0029414Y0037358D01*
X0029392Y0037430D01*
X0029375Y0037502D01*
X0029361Y0037575D01*
X0029351Y0037649D01*
X0029345Y0037723D01*
X0029343Y0037798D01*
X0026694Y0038547D02*
X0026694Y0039648D01*
X0026327Y0040015D01*
X0024859Y0040015D01*
X0024492Y0039648D01*
X0024492Y0038547D01*
X0026694Y0038547D01*
X0025593Y0037071D02*
X0025593Y0036337D01*
X0026694Y0036337D02*
X0024492Y0036337D01*
X0024492Y0037805D01*
X0024859Y0040757D02*
X0025226Y0040757D01*
X0025593Y0041124D01*
X0025593Y0041858D01*
X0025960Y0042225D01*
X0026327Y0042225D01*
X0026694Y0041858D01*
X0026694Y0041124D01*
X0026327Y0040757D01*
X0024859Y0040757D02*
X0024492Y0041124D01*
X0024492Y0041858D01*
X0024859Y0042225D01*
X0024859Y0042967D02*
X0025226Y0042967D01*
X0025593Y0043334D01*
X0025593Y0044068D01*
X0025960Y0044435D01*
X0026327Y0044435D01*
X0026694Y0044068D01*
X0026694Y0043334D01*
X0026327Y0042967D01*
X0025960Y0042967D01*
X0025593Y0043334D01*
X0025593Y0044068D02*
X0025226Y0044435D01*
X0024859Y0044435D01*
X0024492Y0044068D01*
X0024492Y0043334D01*
X0024859Y0042967D01*
X0024859Y0045177D02*
X0025226Y0045177D01*
X0025593Y0045544D01*
X0025593Y0046278D01*
X0025960Y0046645D01*
X0026327Y0046645D01*
X0026694Y0046278D01*
X0026694Y0045544D01*
X0026327Y0045177D01*
X0025960Y0045177D01*
X0025593Y0045544D01*
X0025593Y0046278D02*
X0025226Y0046645D01*
X0024859Y0046645D01*
X0024492Y0046278D01*
X0024492Y0045544D01*
X0024859Y0045177D01*
X0024859Y0047387D02*
X0025226Y0047387D01*
X0025593Y0047754D01*
X0025593Y0048855D01*
X0026327Y0048855D02*
X0024859Y0048855D01*
X0024492Y0048488D01*
X0024492Y0047754D01*
X0024859Y0047387D01*
X0026327Y0047387D02*
X0026694Y0047754D01*
X0026694Y0048488D01*
X0026327Y0048855D01*
X0026327Y0049597D02*
X0025593Y0049597D01*
X0025593Y0050698D01*
X0025960Y0051065D01*
X0026327Y0051065D01*
X0026694Y0050698D01*
X0026694Y0049964D01*
X0026327Y0049597D01*
X0025593Y0049597D02*
X0024859Y0050331D01*
X0024492Y0051065D01*
D14*
X0021161Y0040201D02*
X0019960Y0040201D01*
X0019359Y0039600D01*
X0019359Y0039000D01*
X0019960Y0038399D01*
X0021161Y0038399D01*
X0021761Y0037799D01*
X0021761Y0037198D01*
X0021161Y0036598D01*
X0019960Y0036598D01*
X0019359Y0037198D01*
X0019359Y0037799D01*
X0019960Y0038399D01*
X0021161Y0038399D02*
X0021761Y0039000D01*
X0021761Y0039600D01*
X0021161Y0040201D01*
X0025724Y0065216D02*
X0030328Y0065216D01*
X0030328Y0068285D01*
X0029560Y0069820D02*
X0030328Y0070587D01*
X0030328Y0072122D01*
X0029560Y0072889D01*
X0028793Y0072889D01*
X0028026Y0072122D01*
X0028026Y0070587D01*
X0027258Y0069820D01*
X0026491Y0069820D01*
X0025724Y0070587D01*
X0025724Y0072122D01*
X0026491Y0072889D01*
X0025724Y0074424D02*
X0025724Y0076726D01*
X0026491Y0077493D01*
X0028026Y0077493D01*
X0028793Y0076726D01*
X0028793Y0074424D01*
X0030328Y0074424D02*
X0025724Y0074424D01*
X0028026Y0079028D02*
X0028026Y0082097D01*
X0027258Y0083631D02*
X0025724Y0085166D01*
X0030328Y0085166D01*
X0030328Y0083631D02*
X0030328Y0086701D01*
X0030328Y0088235D02*
X0027258Y0091305D01*
X0026491Y0091305D01*
X0025724Y0090537D01*
X0025724Y0089003D01*
X0026491Y0088235D01*
X0030328Y0088235D02*
X0030328Y0091305D01*
X0025724Y0068285D02*
X0025724Y0065216D01*
X0028026Y0065216D02*
X0028026Y0066750D01*
X0105974Y0039600D02*
X0105974Y0039000D01*
X0106574Y0038399D01*
X0107775Y0038399D01*
X0108376Y0037799D01*
X0108376Y0037198D01*
X0107775Y0036598D01*
X0106574Y0036598D01*
X0105974Y0037198D01*
X0105974Y0037799D01*
X0106574Y0038399D01*
X0107775Y0038399D02*
X0108376Y0039000D01*
X0108376Y0039600D01*
X0107775Y0040201D01*
X0106574Y0040201D01*
X0105974Y0039600D01*
X0112338Y0065216D02*
X0116942Y0065216D01*
X0116942Y0068285D01*
X0116174Y0069820D02*
X0116942Y0070587D01*
X0116942Y0072122D01*
X0116174Y0072889D01*
X0115407Y0072889D01*
X0114640Y0072122D01*
X0114640Y0070587D01*
X0113872Y0069820D01*
X0113105Y0069820D01*
X0112338Y0070587D01*
X0112338Y0072122D01*
X0113105Y0072889D01*
X0112338Y0074424D02*
X0112338Y0076726D01*
X0113105Y0077493D01*
X0114640Y0077493D01*
X0115407Y0076726D01*
X0115407Y0074424D01*
X0116942Y0074424D02*
X0112338Y0074424D01*
X0117709Y0079028D02*
X0117709Y0082097D01*
X0116942Y0083631D02*
X0116942Y0086701D01*
X0116942Y0088235D02*
X0113872Y0091305D01*
X0113105Y0091305D01*
X0112338Y0090537D01*
X0112338Y0089003D01*
X0113105Y0088235D01*
X0112338Y0085166D02*
X0116942Y0085166D01*
X0116942Y0088235D02*
X0116942Y0091305D01*
X0112338Y0085166D02*
X0113872Y0083631D01*
X0112338Y0068285D02*
X0112338Y0065216D01*
X0114640Y0065216D02*
X0114640Y0066750D01*
M02*
