G75*
%MOIN*%
%OFA0B0*%
%FSLAX25Y25*%
%IPPOS*%
%LPD*%
%AMOC8*
5,1,8,0,0,1.08239X$1,22.5*
%
%ADD10C,0.00000*%
%ADD11C,0.00200*%
%ADD12C,0.00500*%
%ADD13C,0.00300*%
%ADD14R,0.23622X0.23622*%
%ADD15C,0.01200*%
%ADD16R,0.19685X0.11811*%
%ADD17C,0.00400*%
D10*
X0003787Y0004681D02*
X0003787Y0150350D01*
X0101425Y0150350D01*
X0101425Y0096807D01*
X0101427Y0096734D01*
X0101433Y0096661D01*
X0101443Y0096588D01*
X0101456Y0096516D01*
X0101474Y0096444D01*
X0101495Y0096374D01*
X0101520Y0096305D01*
X0101548Y0096238D01*
X0101580Y0096172D01*
X0101616Y0096107D01*
X0101655Y0096045D01*
X0101697Y0095985D01*
X0101742Y0095927D01*
X0101790Y0095872D01*
X0101842Y0095820D01*
X0101896Y0095770D01*
X0101952Y0095723D01*
X0102011Y0095679D01*
X0102072Y0095639D01*
X0102135Y0095602D01*
X0102200Y0095568D01*
X0102267Y0095537D01*
X0102336Y0095511D01*
X0102405Y0095488D01*
X0102476Y0095468D01*
X0102548Y0095453D01*
X0102620Y0095441D01*
X0102693Y0095433D01*
X0102766Y0095429D01*
X0102840Y0095429D01*
X0102913Y0095433D01*
X0102986Y0095441D01*
X0103058Y0095453D01*
X0103130Y0095468D01*
X0103201Y0095488D01*
X0103270Y0095511D01*
X0103339Y0095537D01*
X0103406Y0095568D01*
X0103471Y0095602D01*
X0103534Y0095639D01*
X0103595Y0095679D01*
X0103654Y0095723D01*
X0103710Y0095770D01*
X0103764Y0095820D01*
X0103816Y0095872D01*
X0103864Y0095927D01*
X0103909Y0095985D01*
X0103951Y0096045D01*
X0103990Y0096107D01*
X0104026Y0096172D01*
X0104058Y0096238D01*
X0104086Y0096305D01*
X0104111Y0096374D01*
X0104132Y0096444D01*
X0104150Y0096516D01*
X0104163Y0096588D01*
X0104173Y0096661D01*
X0104179Y0096734D01*
X0104181Y0096807D01*
X0104181Y0150350D01*
X0200638Y0150350D01*
X0200638Y0004681D01*
X0104181Y0004681D01*
X0104181Y0051138D01*
X0104169Y0051210D01*
X0104153Y0051282D01*
X0104133Y0051353D01*
X0104109Y0051423D01*
X0104082Y0051491D01*
X0104051Y0051558D01*
X0104016Y0051623D01*
X0103978Y0051687D01*
X0103937Y0051748D01*
X0103893Y0051807D01*
X0103846Y0051863D01*
X0103796Y0051917D01*
X0103743Y0051968D01*
X0103687Y0052016D01*
X0103629Y0052062D01*
X0103568Y0052104D01*
X0103506Y0052143D01*
X0103441Y0052178D01*
X0103375Y0052210D01*
X0103307Y0052239D01*
X0103238Y0052263D01*
X0103167Y0052285D01*
X0103095Y0052302D01*
X0103023Y0052315D01*
X0102950Y0052325D01*
X0102877Y0052331D01*
X0102803Y0052333D01*
X0102729Y0052331D01*
X0102656Y0052325D01*
X0102583Y0052315D01*
X0102511Y0052302D01*
X0102439Y0052285D01*
X0102368Y0052263D01*
X0102299Y0052239D01*
X0102231Y0052210D01*
X0102165Y0052178D01*
X0102100Y0052143D01*
X0102038Y0052104D01*
X0101977Y0052062D01*
X0101919Y0052016D01*
X0101863Y0051968D01*
X0101810Y0051917D01*
X0101760Y0051863D01*
X0101713Y0051807D01*
X0101669Y0051748D01*
X0101628Y0051687D01*
X0101590Y0051623D01*
X0101555Y0051558D01*
X0101524Y0051491D01*
X0101497Y0051423D01*
X0101473Y0051353D01*
X0101453Y0051282D01*
X0101437Y0051210D01*
X0101425Y0051138D01*
X0101425Y0004681D01*
X0003787Y0004681D01*
X0101425Y0055862D02*
X0101427Y0055931D01*
X0101433Y0055999D01*
X0101443Y0056067D01*
X0101457Y0056134D01*
X0101475Y0056201D01*
X0101496Y0056266D01*
X0101522Y0056330D01*
X0101551Y0056392D01*
X0101583Y0056452D01*
X0101619Y0056511D01*
X0101659Y0056567D01*
X0101701Y0056621D01*
X0101747Y0056672D01*
X0101796Y0056721D01*
X0101847Y0056767D01*
X0101901Y0056809D01*
X0101957Y0056849D01*
X0102015Y0056885D01*
X0102076Y0056917D01*
X0102138Y0056946D01*
X0102202Y0056972D01*
X0102267Y0056993D01*
X0102334Y0057011D01*
X0102401Y0057025D01*
X0102469Y0057035D01*
X0102537Y0057041D01*
X0102606Y0057043D01*
X0102675Y0057041D01*
X0102743Y0057035D01*
X0102811Y0057025D01*
X0102878Y0057011D01*
X0102945Y0056993D01*
X0103010Y0056972D01*
X0103074Y0056946D01*
X0103136Y0056917D01*
X0103196Y0056885D01*
X0103255Y0056849D01*
X0103311Y0056809D01*
X0103365Y0056767D01*
X0103416Y0056721D01*
X0103465Y0056672D01*
X0103511Y0056621D01*
X0103553Y0056567D01*
X0103593Y0056511D01*
X0103629Y0056452D01*
X0103661Y0056392D01*
X0103690Y0056330D01*
X0103716Y0056266D01*
X0103737Y0056201D01*
X0103755Y0056134D01*
X0103769Y0056067D01*
X0103779Y0055999D01*
X0103785Y0055931D01*
X0103787Y0055862D01*
X0103785Y0055793D01*
X0103779Y0055725D01*
X0103769Y0055657D01*
X0103755Y0055590D01*
X0103737Y0055523D01*
X0103716Y0055458D01*
X0103690Y0055394D01*
X0103661Y0055332D01*
X0103629Y0055271D01*
X0103593Y0055213D01*
X0103553Y0055157D01*
X0103511Y0055103D01*
X0103465Y0055052D01*
X0103416Y0055003D01*
X0103365Y0054957D01*
X0103311Y0054915D01*
X0103255Y0054875D01*
X0103197Y0054839D01*
X0103136Y0054807D01*
X0103074Y0054778D01*
X0103010Y0054752D01*
X0102945Y0054731D01*
X0102878Y0054713D01*
X0102811Y0054699D01*
X0102743Y0054689D01*
X0102675Y0054683D01*
X0102606Y0054681D01*
X0102537Y0054683D01*
X0102469Y0054689D01*
X0102401Y0054699D01*
X0102334Y0054713D01*
X0102267Y0054731D01*
X0102202Y0054752D01*
X0102138Y0054778D01*
X0102076Y0054807D01*
X0102015Y0054839D01*
X0101957Y0054875D01*
X0101901Y0054915D01*
X0101847Y0054957D01*
X0101796Y0055003D01*
X0101747Y0055052D01*
X0101701Y0055103D01*
X0101659Y0055157D01*
X0101619Y0055213D01*
X0101583Y0055271D01*
X0101551Y0055332D01*
X0101522Y0055394D01*
X0101496Y0055458D01*
X0101475Y0055523D01*
X0101457Y0055590D01*
X0101443Y0055657D01*
X0101433Y0055725D01*
X0101427Y0055793D01*
X0101425Y0055862D01*
X0101425Y0059799D02*
X0101427Y0059868D01*
X0101433Y0059936D01*
X0101443Y0060004D01*
X0101457Y0060071D01*
X0101475Y0060138D01*
X0101496Y0060203D01*
X0101522Y0060267D01*
X0101551Y0060329D01*
X0101583Y0060389D01*
X0101619Y0060448D01*
X0101659Y0060504D01*
X0101701Y0060558D01*
X0101747Y0060609D01*
X0101796Y0060658D01*
X0101847Y0060704D01*
X0101901Y0060746D01*
X0101957Y0060786D01*
X0102015Y0060822D01*
X0102076Y0060854D01*
X0102138Y0060883D01*
X0102202Y0060909D01*
X0102267Y0060930D01*
X0102334Y0060948D01*
X0102401Y0060962D01*
X0102469Y0060972D01*
X0102537Y0060978D01*
X0102606Y0060980D01*
X0102675Y0060978D01*
X0102743Y0060972D01*
X0102811Y0060962D01*
X0102878Y0060948D01*
X0102945Y0060930D01*
X0103010Y0060909D01*
X0103074Y0060883D01*
X0103136Y0060854D01*
X0103196Y0060822D01*
X0103255Y0060786D01*
X0103311Y0060746D01*
X0103365Y0060704D01*
X0103416Y0060658D01*
X0103465Y0060609D01*
X0103511Y0060558D01*
X0103553Y0060504D01*
X0103593Y0060448D01*
X0103629Y0060389D01*
X0103661Y0060329D01*
X0103690Y0060267D01*
X0103716Y0060203D01*
X0103737Y0060138D01*
X0103755Y0060071D01*
X0103769Y0060004D01*
X0103779Y0059936D01*
X0103785Y0059868D01*
X0103787Y0059799D01*
X0103785Y0059730D01*
X0103779Y0059662D01*
X0103769Y0059594D01*
X0103755Y0059527D01*
X0103737Y0059460D01*
X0103716Y0059395D01*
X0103690Y0059331D01*
X0103661Y0059269D01*
X0103629Y0059208D01*
X0103593Y0059150D01*
X0103553Y0059094D01*
X0103511Y0059040D01*
X0103465Y0058989D01*
X0103416Y0058940D01*
X0103365Y0058894D01*
X0103311Y0058852D01*
X0103255Y0058812D01*
X0103197Y0058776D01*
X0103136Y0058744D01*
X0103074Y0058715D01*
X0103010Y0058689D01*
X0102945Y0058668D01*
X0102878Y0058650D01*
X0102811Y0058636D01*
X0102743Y0058626D01*
X0102675Y0058620D01*
X0102606Y0058618D01*
X0102537Y0058620D01*
X0102469Y0058626D01*
X0102401Y0058636D01*
X0102334Y0058650D01*
X0102267Y0058668D01*
X0102202Y0058689D01*
X0102138Y0058715D01*
X0102076Y0058744D01*
X0102015Y0058776D01*
X0101957Y0058812D01*
X0101901Y0058852D01*
X0101847Y0058894D01*
X0101796Y0058940D01*
X0101747Y0058989D01*
X0101701Y0059040D01*
X0101659Y0059094D01*
X0101619Y0059150D01*
X0101583Y0059208D01*
X0101551Y0059269D01*
X0101522Y0059331D01*
X0101496Y0059395D01*
X0101475Y0059460D01*
X0101457Y0059527D01*
X0101443Y0059594D01*
X0101433Y0059662D01*
X0101427Y0059730D01*
X0101425Y0059799D01*
X0101425Y0064130D02*
X0101427Y0064199D01*
X0101433Y0064267D01*
X0101443Y0064335D01*
X0101457Y0064402D01*
X0101475Y0064469D01*
X0101496Y0064534D01*
X0101522Y0064598D01*
X0101551Y0064660D01*
X0101583Y0064720D01*
X0101619Y0064779D01*
X0101659Y0064835D01*
X0101701Y0064889D01*
X0101747Y0064940D01*
X0101796Y0064989D01*
X0101847Y0065035D01*
X0101901Y0065077D01*
X0101957Y0065117D01*
X0102015Y0065153D01*
X0102076Y0065185D01*
X0102138Y0065214D01*
X0102202Y0065240D01*
X0102267Y0065261D01*
X0102334Y0065279D01*
X0102401Y0065293D01*
X0102469Y0065303D01*
X0102537Y0065309D01*
X0102606Y0065311D01*
X0102675Y0065309D01*
X0102743Y0065303D01*
X0102811Y0065293D01*
X0102878Y0065279D01*
X0102945Y0065261D01*
X0103010Y0065240D01*
X0103074Y0065214D01*
X0103136Y0065185D01*
X0103196Y0065153D01*
X0103255Y0065117D01*
X0103311Y0065077D01*
X0103365Y0065035D01*
X0103416Y0064989D01*
X0103465Y0064940D01*
X0103511Y0064889D01*
X0103553Y0064835D01*
X0103593Y0064779D01*
X0103629Y0064720D01*
X0103661Y0064660D01*
X0103690Y0064598D01*
X0103716Y0064534D01*
X0103737Y0064469D01*
X0103755Y0064402D01*
X0103769Y0064335D01*
X0103779Y0064267D01*
X0103785Y0064199D01*
X0103787Y0064130D01*
X0103785Y0064061D01*
X0103779Y0063993D01*
X0103769Y0063925D01*
X0103755Y0063858D01*
X0103737Y0063791D01*
X0103716Y0063726D01*
X0103690Y0063662D01*
X0103661Y0063600D01*
X0103629Y0063539D01*
X0103593Y0063481D01*
X0103553Y0063425D01*
X0103511Y0063371D01*
X0103465Y0063320D01*
X0103416Y0063271D01*
X0103365Y0063225D01*
X0103311Y0063183D01*
X0103255Y0063143D01*
X0103197Y0063107D01*
X0103136Y0063075D01*
X0103074Y0063046D01*
X0103010Y0063020D01*
X0102945Y0062999D01*
X0102878Y0062981D01*
X0102811Y0062967D01*
X0102743Y0062957D01*
X0102675Y0062951D01*
X0102606Y0062949D01*
X0102537Y0062951D01*
X0102469Y0062957D01*
X0102401Y0062967D01*
X0102334Y0062981D01*
X0102267Y0062999D01*
X0102202Y0063020D01*
X0102138Y0063046D01*
X0102076Y0063075D01*
X0102015Y0063107D01*
X0101957Y0063143D01*
X0101901Y0063183D01*
X0101847Y0063225D01*
X0101796Y0063271D01*
X0101747Y0063320D01*
X0101701Y0063371D01*
X0101659Y0063425D01*
X0101619Y0063481D01*
X0101583Y0063539D01*
X0101551Y0063600D01*
X0101522Y0063662D01*
X0101496Y0063726D01*
X0101475Y0063791D01*
X0101457Y0063858D01*
X0101443Y0063925D01*
X0101433Y0063993D01*
X0101427Y0064061D01*
X0101425Y0064130D01*
X0101425Y0068067D02*
X0101427Y0068136D01*
X0101433Y0068204D01*
X0101443Y0068272D01*
X0101457Y0068339D01*
X0101475Y0068406D01*
X0101496Y0068471D01*
X0101522Y0068535D01*
X0101551Y0068597D01*
X0101583Y0068657D01*
X0101619Y0068716D01*
X0101659Y0068772D01*
X0101701Y0068826D01*
X0101747Y0068877D01*
X0101796Y0068926D01*
X0101847Y0068972D01*
X0101901Y0069014D01*
X0101957Y0069054D01*
X0102015Y0069090D01*
X0102076Y0069122D01*
X0102138Y0069151D01*
X0102202Y0069177D01*
X0102267Y0069198D01*
X0102334Y0069216D01*
X0102401Y0069230D01*
X0102469Y0069240D01*
X0102537Y0069246D01*
X0102606Y0069248D01*
X0102675Y0069246D01*
X0102743Y0069240D01*
X0102811Y0069230D01*
X0102878Y0069216D01*
X0102945Y0069198D01*
X0103010Y0069177D01*
X0103074Y0069151D01*
X0103136Y0069122D01*
X0103196Y0069090D01*
X0103255Y0069054D01*
X0103311Y0069014D01*
X0103365Y0068972D01*
X0103416Y0068926D01*
X0103465Y0068877D01*
X0103511Y0068826D01*
X0103553Y0068772D01*
X0103593Y0068716D01*
X0103629Y0068657D01*
X0103661Y0068597D01*
X0103690Y0068535D01*
X0103716Y0068471D01*
X0103737Y0068406D01*
X0103755Y0068339D01*
X0103769Y0068272D01*
X0103779Y0068204D01*
X0103785Y0068136D01*
X0103787Y0068067D01*
X0103785Y0067998D01*
X0103779Y0067930D01*
X0103769Y0067862D01*
X0103755Y0067795D01*
X0103737Y0067728D01*
X0103716Y0067663D01*
X0103690Y0067599D01*
X0103661Y0067537D01*
X0103629Y0067476D01*
X0103593Y0067418D01*
X0103553Y0067362D01*
X0103511Y0067308D01*
X0103465Y0067257D01*
X0103416Y0067208D01*
X0103365Y0067162D01*
X0103311Y0067120D01*
X0103255Y0067080D01*
X0103197Y0067044D01*
X0103136Y0067012D01*
X0103074Y0066983D01*
X0103010Y0066957D01*
X0102945Y0066936D01*
X0102878Y0066918D01*
X0102811Y0066904D01*
X0102743Y0066894D01*
X0102675Y0066888D01*
X0102606Y0066886D01*
X0102537Y0066888D01*
X0102469Y0066894D01*
X0102401Y0066904D01*
X0102334Y0066918D01*
X0102267Y0066936D01*
X0102202Y0066957D01*
X0102138Y0066983D01*
X0102076Y0067012D01*
X0102015Y0067044D01*
X0101957Y0067080D01*
X0101901Y0067120D01*
X0101847Y0067162D01*
X0101796Y0067208D01*
X0101747Y0067257D01*
X0101701Y0067308D01*
X0101659Y0067362D01*
X0101619Y0067418D01*
X0101583Y0067476D01*
X0101551Y0067537D01*
X0101522Y0067599D01*
X0101496Y0067663D01*
X0101475Y0067728D01*
X0101457Y0067795D01*
X0101443Y0067862D01*
X0101433Y0067930D01*
X0101427Y0067998D01*
X0101425Y0068067D01*
X0101425Y0072398D02*
X0101427Y0072467D01*
X0101433Y0072535D01*
X0101443Y0072603D01*
X0101457Y0072670D01*
X0101475Y0072737D01*
X0101496Y0072802D01*
X0101522Y0072866D01*
X0101551Y0072928D01*
X0101583Y0072988D01*
X0101619Y0073047D01*
X0101659Y0073103D01*
X0101701Y0073157D01*
X0101747Y0073208D01*
X0101796Y0073257D01*
X0101847Y0073303D01*
X0101901Y0073345D01*
X0101957Y0073385D01*
X0102015Y0073421D01*
X0102076Y0073453D01*
X0102138Y0073482D01*
X0102202Y0073508D01*
X0102267Y0073529D01*
X0102334Y0073547D01*
X0102401Y0073561D01*
X0102469Y0073571D01*
X0102537Y0073577D01*
X0102606Y0073579D01*
X0102675Y0073577D01*
X0102743Y0073571D01*
X0102811Y0073561D01*
X0102878Y0073547D01*
X0102945Y0073529D01*
X0103010Y0073508D01*
X0103074Y0073482D01*
X0103136Y0073453D01*
X0103196Y0073421D01*
X0103255Y0073385D01*
X0103311Y0073345D01*
X0103365Y0073303D01*
X0103416Y0073257D01*
X0103465Y0073208D01*
X0103511Y0073157D01*
X0103553Y0073103D01*
X0103593Y0073047D01*
X0103629Y0072988D01*
X0103661Y0072928D01*
X0103690Y0072866D01*
X0103716Y0072802D01*
X0103737Y0072737D01*
X0103755Y0072670D01*
X0103769Y0072603D01*
X0103779Y0072535D01*
X0103785Y0072467D01*
X0103787Y0072398D01*
X0103785Y0072329D01*
X0103779Y0072261D01*
X0103769Y0072193D01*
X0103755Y0072126D01*
X0103737Y0072059D01*
X0103716Y0071994D01*
X0103690Y0071930D01*
X0103661Y0071868D01*
X0103629Y0071807D01*
X0103593Y0071749D01*
X0103553Y0071693D01*
X0103511Y0071639D01*
X0103465Y0071588D01*
X0103416Y0071539D01*
X0103365Y0071493D01*
X0103311Y0071451D01*
X0103255Y0071411D01*
X0103197Y0071375D01*
X0103136Y0071343D01*
X0103074Y0071314D01*
X0103010Y0071288D01*
X0102945Y0071267D01*
X0102878Y0071249D01*
X0102811Y0071235D01*
X0102743Y0071225D01*
X0102675Y0071219D01*
X0102606Y0071217D01*
X0102537Y0071219D01*
X0102469Y0071225D01*
X0102401Y0071235D01*
X0102334Y0071249D01*
X0102267Y0071267D01*
X0102202Y0071288D01*
X0102138Y0071314D01*
X0102076Y0071343D01*
X0102015Y0071375D01*
X0101957Y0071411D01*
X0101901Y0071451D01*
X0101847Y0071493D01*
X0101796Y0071539D01*
X0101747Y0071588D01*
X0101701Y0071639D01*
X0101659Y0071693D01*
X0101619Y0071749D01*
X0101583Y0071807D01*
X0101551Y0071868D01*
X0101522Y0071930D01*
X0101496Y0071994D01*
X0101475Y0072059D01*
X0101457Y0072126D01*
X0101443Y0072193D01*
X0101433Y0072261D01*
X0101427Y0072329D01*
X0101425Y0072398D01*
X0101425Y0076335D02*
X0101427Y0076404D01*
X0101433Y0076472D01*
X0101443Y0076540D01*
X0101457Y0076607D01*
X0101475Y0076674D01*
X0101496Y0076739D01*
X0101522Y0076803D01*
X0101551Y0076865D01*
X0101583Y0076925D01*
X0101619Y0076984D01*
X0101659Y0077040D01*
X0101701Y0077094D01*
X0101747Y0077145D01*
X0101796Y0077194D01*
X0101847Y0077240D01*
X0101901Y0077282D01*
X0101957Y0077322D01*
X0102015Y0077358D01*
X0102076Y0077390D01*
X0102138Y0077419D01*
X0102202Y0077445D01*
X0102267Y0077466D01*
X0102334Y0077484D01*
X0102401Y0077498D01*
X0102469Y0077508D01*
X0102537Y0077514D01*
X0102606Y0077516D01*
X0102675Y0077514D01*
X0102743Y0077508D01*
X0102811Y0077498D01*
X0102878Y0077484D01*
X0102945Y0077466D01*
X0103010Y0077445D01*
X0103074Y0077419D01*
X0103136Y0077390D01*
X0103196Y0077358D01*
X0103255Y0077322D01*
X0103311Y0077282D01*
X0103365Y0077240D01*
X0103416Y0077194D01*
X0103465Y0077145D01*
X0103511Y0077094D01*
X0103553Y0077040D01*
X0103593Y0076984D01*
X0103629Y0076925D01*
X0103661Y0076865D01*
X0103690Y0076803D01*
X0103716Y0076739D01*
X0103737Y0076674D01*
X0103755Y0076607D01*
X0103769Y0076540D01*
X0103779Y0076472D01*
X0103785Y0076404D01*
X0103787Y0076335D01*
X0103785Y0076266D01*
X0103779Y0076198D01*
X0103769Y0076130D01*
X0103755Y0076063D01*
X0103737Y0075996D01*
X0103716Y0075931D01*
X0103690Y0075867D01*
X0103661Y0075805D01*
X0103629Y0075744D01*
X0103593Y0075686D01*
X0103553Y0075630D01*
X0103511Y0075576D01*
X0103465Y0075525D01*
X0103416Y0075476D01*
X0103365Y0075430D01*
X0103311Y0075388D01*
X0103255Y0075348D01*
X0103197Y0075312D01*
X0103136Y0075280D01*
X0103074Y0075251D01*
X0103010Y0075225D01*
X0102945Y0075204D01*
X0102878Y0075186D01*
X0102811Y0075172D01*
X0102743Y0075162D01*
X0102675Y0075156D01*
X0102606Y0075154D01*
X0102537Y0075156D01*
X0102469Y0075162D01*
X0102401Y0075172D01*
X0102334Y0075186D01*
X0102267Y0075204D01*
X0102202Y0075225D01*
X0102138Y0075251D01*
X0102076Y0075280D01*
X0102015Y0075312D01*
X0101957Y0075348D01*
X0101901Y0075388D01*
X0101847Y0075430D01*
X0101796Y0075476D01*
X0101747Y0075525D01*
X0101701Y0075576D01*
X0101659Y0075630D01*
X0101619Y0075686D01*
X0101583Y0075744D01*
X0101551Y0075805D01*
X0101522Y0075867D01*
X0101496Y0075931D01*
X0101475Y0075996D01*
X0101457Y0076063D01*
X0101443Y0076130D01*
X0101433Y0076198D01*
X0101427Y0076266D01*
X0101425Y0076335D01*
X0101425Y0080665D02*
X0101427Y0080734D01*
X0101433Y0080802D01*
X0101443Y0080870D01*
X0101457Y0080937D01*
X0101475Y0081004D01*
X0101496Y0081069D01*
X0101522Y0081133D01*
X0101551Y0081195D01*
X0101583Y0081255D01*
X0101619Y0081314D01*
X0101659Y0081370D01*
X0101701Y0081424D01*
X0101747Y0081475D01*
X0101796Y0081524D01*
X0101847Y0081570D01*
X0101901Y0081612D01*
X0101957Y0081652D01*
X0102015Y0081688D01*
X0102076Y0081720D01*
X0102138Y0081749D01*
X0102202Y0081775D01*
X0102267Y0081796D01*
X0102334Y0081814D01*
X0102401Y0081828D01*
X0102469Y0081838D01*
X0102537Y0081844D01*
X0102606Y0081846D01*
X0102675Y0081844D01*
X0102743Y0081838D01*
X0102811Y0081828D01*
X0102878Y0081814D01*
X0102945Y0081796D01*
X0103010Y0081775D01*
X0103074Y0081749D01*
X0103136Y0081720D01*
X0103196Y0081688D01*
X0103255Y0081652D01*
X0103311Y0081612D01*
X0103365Y0081570D01*
X0103416Y0081524D01*
X0103465Y0081475D01*
X0103511Y0081424D01*
X0103553Y0081370D01*
X0103593Y0081314D01*
X0103629Y0081255D01*
X0103661Y0081195D01*
X0103690Y0081133D01*
X0103716Y0081069D01*
X0103737Y0081004D01*
X0103755Y0080937D01*
X0103769Y0080870D01*
X0103779Y0080802D01*
X0103785Y0080734D01*
X0103787Y0080665D01*
X0103785Y0080596D01*
X0103779Y0080528D01*
X0103769Y0080460D01*
X0103755Y0080393D01*
X0103737Y0080326D01*
X0103716Y0080261D01*
X0103690Y0080197D01*
X0103661Y0080135D01*
X0103629Y0080074D01*
X0103593Y0080016D01*
X0103553Y0079960D01*
X0103511Y0079906D01*
X0103465Y0079855D01*
X0103416Y0079806D01*
X0103365Y0079760D01*
X0103311Y0079718D01*
X0103255Y0079678D01*
X0103197Y0079642D01*
X0103136Y0079610D01*
X0103074Y0079581D01*
X0103010Y0079555D01*
X0102945Y0079534D01*
X0102878Y0079516D01*
X0102811Y0079502D01*
X0102743Y0079492D01*
X0102675Y0079486D01*
X0102606Y0079484D01*
X0102537Y0079486D01*
X0102469Y0079492D01*
X0102401Y0079502D01*
X0102334Y0079516D01*
X0102267Y0079534D01*
X0102202Y0079555D01*
X0102138Y0079581D01*
X0102076Y0079610D01*
X0102015Y0079642D01*
X0101957Y0079678D01*
X0101901Y0079718D01*
X0101847Y0079760D01*
X0101796Y0079806D01*
X0101747Y0079855D01*
X0101701Y0079906D01*
X0101659Y0079960D01*
X0101619Y0080016D01*
X0101583Y0080074D01*
X0101551Y0080135D01*
X0101522Y0080197D01*
X0101496Y0080261D01*
X0101475Y0080326D01*
X0101457Y0080393D01*
X0101443Y0080460D01*
X0101433Y0080528D01*
X0101427Y0080596D01*
X0101425Y0080665D01*
X0101425Y0084602D02*
X0101427Y0084671D01*
X0101433Y0084739D01*
X0101443Y0084807D01*
X0101457Y0084874D01*
X0101475Y0084941D01*
X0101496Y0085006D01*
X0101522Y0085070D01*
X0101551Y0085132D01*
X0101583Y0085192D01*
X0101619Y0085251D01*
X0101659Y0085307D01*
X0101701Y0085361D01*
X0101747Y0085412D01*
X0101796Y0085461D01*
X0101847Y0085507D01*
X0101901Y0085549D01*
X0101957Y0085589D01*
X0102015Y0085625D01*
X0102076Y0085657D01*
X0102138Y0085686D01*
X0102202Y0085712D01*
X0102267Y0085733D01*
X0102334Y0085751D01*
X0102401Y0085765D01*
X0102469Y0085775D01*
X0102537Y0085781D01*
X0102606Y0085783D01*
X0102675Y0085781D01*
X0102743Y0085775D01*
X0102811Y0085765D01*
X0102878Y0085751D01*
X0102945Y0085733D01*
X0103010Y0085712D01*
X0103074Y0085686D01*
X0103136Y0085657D01*
X0103196Y0085625D01*
X0103255Y0085589D01*
X0103311Y0085549D01*
X0103365Y0085507D01*
X0103416Y0085461D01*
X0103465Y0085412D01*
X0103511Y0085361D01*
X0103553Y0085307D01*
X0103593Y0085251D01*
X0103629Y0085192D01*
X0103661Y0085132D01*
X0103690Y0085070D01*
X0103716Y0085006D01*
X0103737Y0084941D01*
X0103755Y0084874D01*
X0103769Y0084807D01*
X0103779Y0084739D01*
X0103785Y0084671D01*
X0103787Y0084602D01*
X0103785Y0084533D01*
X0103779Y0084465D01*
X0103769Y0084397D01*
X0103755Y0084330D01*
X0103737Y0084263D01*
X0103716Y0084198D01*
X0103690Y0084134D01*
X0103661Y0084072D01*
X0103629Y0084011D01*
X0103593Y0083953D01*
X0103553Y0083897D01*
X0103511Y0083843D01*
X0103465Y0083792D01*
X0103416Y0083743D01*
X0103365Y0083697D01*
X0103311Y0083655D01*
X0103255Y0083615D01*
X0103197Y0083579D01*
X0103136Y0083547D01*
X0103074Y0083518D01*
X0103010Y0083492D01*
X0102945Y0083471D01*
X0102878Y0083453D01*
X0102811Y0083439D01*
X0102743Y0083429D01*
X0102675Y0083423D01*
X0102606Y0083421D01*
X0102537Y0083423D01*
X0102469Y0083429D01*
X0102401Y0083439D01*
X0102334Y0083453D01*
X0102267Y0083471D01*
X0102202Y0083492D01*
X0102138Y0083518D01*
X0102076Y0083547D01*
X0102015Y0083579D01*
X0101957Y0083615D01*
X0101901Y0083655D01*
X0101847Y0083697D01*
X0101796Y0083743D01*
X0101747Y0083792D01*
X0101701Y0083843D01*
X0101659Y0083897D01*
X0101619Y0083953D01*
X0101583Y0084011D01*
X0101551Y0084072D01*
X0101522Y0084134D01*
X0101496Y0084198D01*
X0101475Y0084263D01*
X0101457Y0084330D01*
X0101443Y0084397D01*
X0101433Y0084465D01*
X0101427Y0084533D01*
X0101425Y0084602D01*
X0101425Y0088539D02*
X0101427Y0088608D01*
X0101433Y0088676D01*
X0101443Y0088744D01*
X0101457Y0088811D01*
X0101475Y0088878D01*
X0101496Y0088943D01*
X0101522Y0089007D01*
X0101551Y0089069D01*
X0101583Y0089129D01*
X0101619Y0089188D01*
X0101659Y0089244D01*
X0101701Y0089298D01*
X0101747Y0089349D01*
X0101796Y0089398D01*
X0101847Y0089444D01*
X0101901Y0089486D01*
X0101957Y0089526D01*
X0102015Y0089562D01*
X0102076Y0089594D01*
X0102138Y0089623D01*
X0102202Y0089649D01*
X0102267Y0089670D01*
X0102334Y0089688D01*
X0102401Y0089702D01*
X0102469Y0089712D01*
X0102537Y0089718D01*
X0102606Y0089720D01*
X0102675Y0089718D01*
X0102743Y0089712D01*
X0102811Y0089702D01*
X0102878Y0089688D01*
X0102945Y0089670D01*
X0103010Y0089649D01*
X0103074Y0089623D01*
X0103136Y0089594D01*
X0103196Y0089562D01*
X0103255Y0089526D01*
X0103311Y0089486D01*
X0103365Y0089444D01*
X0103416Y0089398D01*
X0103465Y0089349D01*
X0103511Y0089298D01*
X0103553Y0089244D01*
X0103593Y0089188D01*
X0103629Y0089129D01*
X0103661Y0089069D01*
X0103690Y0089007D01*
X0103716Y0088943D01*
X0103737Y0088878D01*
X0103755Y0088811D01*
X0103769Y0088744D01*
X0103779Y0088676D01*
X0103785Y0088608D01*
X0103787Y0088539D01*
X0103785Y0088470D01*
X0103779Y0088402D01*
X0103769Y0088334D01*
X0103755Y0088267D01*
X0103737Y0088200D01*
X0103716Y0088135D01*
X0103690Y0088071D01*
X0103661Y0088009D01*
X0103629Y0087948D01*
X0103593Y0087890D01*
X0103553Y0087834D01*
X0103511Y0087780D01*
X0103465Y0087729D01*
X0103416Y0087680D01*
X0103365Y0087634D01*
X0103311Y0087592D01*
X0103255Y0087552D01*
X0103197Y0087516D01*
X0103136Y0087484D01*
X0103074Y0087455D01*
X0103010Y0087429D01*
X0102945Y0087408D01*
X0102878Y0087390D01*
X0102811Y0087376D01*
X0102743Y0087366D01*
X0102675Y0087360D01*
X0102606Y0087358D01*
X0102537Y0087360D01*
X0102469Y0087366D01*
X0102401Y0087376D01*
X0102334Y0087390D01*
X0102267Y0087408D01*
X0102202Y0087429D01*
X0102138Y0087455D01*
X0102076Y0087484D01*
X0102015Y0087516D01*
X0101957Y0087552D01*
X0101901Y0087592D01*
X0101847Y0087634D01*
X0101796Y0087680D01*
X0101747Y0087729D01*
X0101701Y0087780D01*
X0101659Y0087834D01*
X0101619Y0087890D01*
X0101583Y0087948D01*
X0101551Y0088009D01*
X0101522Y0088071D01*
X0101496Y0088135D01*
X0101475Y0088200D01*
X0101457Y0088267D01*
X0101443Y0088334D01*
X0101433Y0088402D01*
X0101427Y0088470D01*
X0101425Y0088539D01*
X0101425Y0092476D02*
X0101427Y0092545D01*
X0101433Y0092613D01*
X0101443Y0092681D01*
X0101457Y0092748D01*
X0101475Y0092815D01*
X0101496Y0092880D01*
X0101522Y0092944D01*
X0101551Y0093006D01*
X0101583Y0093066D01*
X0101619Y0093125D01*
X0101659Y0093181D01*
X0101701Y0093235D01*
X0101747Y0093286D01*
X0101796Y0093335D01*
X0101847Y0093381D01*
X0101901Y0093423D01*
X0101957Y0093463D01*
X0102015Y0093499D01*
X0102076Y0093531D01*
X0102138Y0093560D01*
X0102202Y0093586D01*
X0102267Y0093607D01*
X0102334Y0093625D01*
X0102401Y0093639D01*
X0102469Y0093649D01*
X0102537Y0093655D01*
X0102606Y0093657D01*
X0102675Y0093655D01*
X0102743Y0093649D01*
X0102811Y0093639D01*
X0102878Y0093625D01*
X0102945Y0093607D01*
X0103010Y0093586D01*
X0103074Y0093560D01*
X0103136Y0093531D01*
X0103196Y0093499D01*
X0103255Y0093463D01*
X0103311Y0093423D01*
X0103365Y0093381D01*
X0103416Y0093335D01*
X0103465Y0093286D01*
X0103511Y0093235D01*
X0103553Y0093181D01*
X0103593Y0093125D01*
X0103629Y0093066D01*
X0103661Y0093006D01*
X0103690Y0092944D01*
X0103716Y0092880D01*
X0103737Y0092815D01*
X0103755Y0092748D01*
X0103769Y0092681D01*
X0103779Y0092613D01*
X0103785Y0092545D01*
X0103787Y0092476D01*
X0103785Y0092407D01*
X0103779Y0092339D01*
X0103769Y0092271D01*
X0103755Y0092204D01*
X0103737Y0092137D01*
X0103716Y0092072D01*
X0103690Y0092008D01*
X0103661Y0091946D01*
X0103629Y0091885D01*
X0103593Y0091827D01*
X0103553Y0091771D01*
X0103511Y0091717D01*
X0103465Y0091666D01*
X0103416Y0091617D01*
X0103365Y0091571D01*
X0103311Y0091529D01*
X0103255Y0091489D01*
X0103197Y0091453D01*
X0103136Y0091421D01*
X0103074Y0091392D01*
X0103010Y0091366D01*
X0102945Y0091345D01*
X0102878Y0091327D01*
X0102811Y0091313D01*
X0102743Y0091303D01*
X0102675Y0091297D01*
X0102606Y0091295D01*
X0102537Y0091297D01*
X0102469Y0091303D01*
X0102401Y0091313D01*
X0102334Y0091327D01*
X0102267Y0091345D01*
X0102202Y0091366D01*
X0102138Y0091392D01*
X0102076Y0091421D01*
X0102015Y0091453D01*
X0101957Y0091489D01*
X0101901Y0091529D01*
X0101847Y0091571D01*
X0101796Y0091617D01*
X0101747Y0091666D01*
X0101701Y0091717D01*
X0101659Y0091771D01*
X0101619Y0091827D01*
X0101583Y0091885D01*
X0101551Y0091946D01*
X0101522Y0092008D01*
X0101496Y0092072D01*
X0101475Y0092137D01*
X0101457Y0092204D01*
X0101443Y0092271D01*
X0101433Y0092339D01*
X0101427Y0092407D01*
X0101425Y0092476D01*
D11*
X0071680Y0084170D02*
X0071680Y0081968D01*
X0071680Y0082702D02*
X0070580Y0082702D01*
X0070213Y0083069D01*
X0070213Y0083803D01*
X0070580Y0084170D01*
X0071680Y0084170D01*
X0069471Y0084170D02*
X0069471Y0081968D01*
X0068737Y0082702D01*
X0068003Y0081968D01*
X0068003Y0084170D01*
X0067261Y0084170D02*
X0066527Y0083436D01*
X0065793Y0084170D01*
X0065793Y0081968D01*
X0065051Y0082335D02*
X0064684Y0081968D01*
X0063950Y0081968D01*
X0063583Y0082335D01*
X0063583Y0082702D01*
X0063950Y0083069D01*
X0064317Y0083069D01*
X0063950Y0083069D02*
X0063583Y0083436D01*
X0063583Y0083803D01*
X0063950Y0084170D01*
X0064684Y0084170D01*
X0065051Y0083803D01*
X0067261Y0084170D02*
X0067261Y0081968D01*
X0067019Y0089999D02*
X0067019Y0092201D01*
X0067761Y0091834D02*
X0069229Y0090366D01*
X0068862Y0089999D01*
X0068128Y0089999D01*
X0067761Y0090366D01*
X0067761Y0091834D01*
X0068128Y0092201D01*
X0068862Y0092201D01*
X0069229Y0091834D01*
X0069229Y0090366D01*
X0069971Y0089999D02*
X0071439Y0089999D01*
X0070705Y0089999D02*
X0070705Y0092201D01*
X0071439Y0091467D01*
X0067019Y0090733D02*
X0065551Y0092201D01*
X0066652Y0091100D02*
X0065551Y0089999D01*
X0048232Y0085521D02*
X0048234Y0085596D01*
X0048240Y0085670D01*
X0048250Y0085744D01*
X0048264Y0085817D01*
X0048281Y0085889D01*
X0048303Y0085961D01*
X0048328Y0086031D01*
X0048357Y0086099D01*
X0048390Y0086167D01*
X0048426Y0086232D01*
X0048465Y0086295D01*
X0048508Y0086356D01*
X0048554Y0086415D01*
X0048603Y0086471D01*
X0048655Y0086524D01*
X0048710Y0086575D01*
X0048767Y0086622D01*
X0048827Y0086667D01*
X0048889Y0086708D01*
X0048954Y0086746D01*
X0049020Y0086780D01*
X0049088Y0086811D01*
X0049157Y0086838D01*
X0049228Y0086861D01*
X0049300Y0086881D01*
X0049373Y0086897D01*
X0049446Y0086909D01*
X0049520Y0086917D01*
X0049595Y0086921D01*
X0049669Y0086921D01*
X0049744Y0086917D01*
X0049818Y0086909D01*
X0049891Y0086897D01*
X0049964Y0086881D01*
X0050036Y0086861D01*
X0050107Y0086838D01*
X0050176Y0086811D01*
X0050244Y0086780D01*
X0050310Y0086746D01*
X0050375Y0086708D01*
X0050437Y0086667D01*
X0050497Y0086622D01*
X0050554Y0086575D01*
X0050609Y0086524D01*
X0050661Y0086471D01*
X0050710Y0086415D01*
X0050756Y0086356D01*
X0050799Y0086295D01*
X0050838Y0086232D01*
X0050874Y0086167D01*
X0050907Y0086099D01*
X0050936Y0086031D01*
X0050961Y0085961D01*
X0050983Y0085889D01*
X0051000Y0085817D01*
X0051014Y0085744D01*
X0051024Y0085670D01*
X0051030Y0085596D01*
X0051032Y0085521D01*
X0051030Y0085446D01*
X0051024Y0085372D01*
X0051014Y0085298D01*
X0051000Y0085225D01*
X0050983Y0085153D01*
X0050961Y0085081D01*
X0050936Y0085011D01*
X0050907Y0084943D01*
X0050874Y0084875D01*
X0050838Y0084810D01*
X0050799Y0084747D01*
X0050756Y0084686D01*
X0050710Y0084627D01*
X0050661Y0084571D01*
X0050609Y0084518D01*
X0050554Y0084467D01*
X0050497Y0084420D01*
X0050437Y0084375D01*
X0050375Y0084334D01*
X0050310Y0084296D01*
X0050244Y0084262D01*
X0050176Y0084231D01*
X0050107Y0084204D01*
X0050036Y0084181D01*
X0049964Y0084161D01*
X0049891Y0084145D01*
X0049818Y0084133D01*
X0049744Y0084125D01*
X0049669Y0084121D01*
X0049595Y0084121D01*
X0049520Y0084125D01*
X0049446Y0084133D01*
X0049373Y0084145D01*
X0049300Y0084161D01*
X0049228Y0084181D01*
X0049157Y0084204D01*
X0049088Y0084231D01*
X0049020Y0084262D01*
X0048954Y0084296D01*
X0048889Y0084334D01*
X0048827Y0084375D01*
X0048767Y0084420D01*
X0048710Y0084467D01*
X0048655Y0084518D01*
X0048603Y0084571D01*
X0048554Y0084627D01*
X0048508Y0084686D01*
X0048465Y0084747D01*
X0048426Y0084810D01*
X0048390Y0084875D01*
X0048357Y0084943D01*
X0048328Y0085011D01*
X0048303Y0085081D01*
X0048281Y0085153D01*
X0048264Y0085225D01*
X0048250Y0085298D01*
X0048240Y0085372D01*
X0048234Y0085446D01*
X0048232Y0085521D01*
X0048328Y0089271D02*
X0047594Y0089271D01*
X0047227Y0089638D01*
X0046485Y0089271D02*
X0046485Y0091473D01*
X0047227Y0091106D02*
X0047594Y0091473D01*
X0048328Y0091473D01*
X0048695Y0091106D01*
X0048695Y0089638D01*
X0048328Y0089271D01*
X0046485Y0090372D02*
X0045017Y0090372D01*
X0044276Y0090372D02*
X0042808Y0090372D01*
X0042808Y0090739D02*
X0042808Y0089271D01*
X0042066Y0089271D02*
X0042066Y0091473D01*
X0040598Y0089271D01*
X0040598Y0091473D01*
X0039856Y0091106D02*
X0039489Y0091473D01*
X0038755Y0091473D01*
X0038388Y0091106D01*
X0038388Y0090739D01*
X0038755Y0090372D01*
X0038388Y0090005D01*
X0038388Y0089638D01*
X0038755Y0089271D01*
X0039489Y0089271D01*
X0039856Y0089638D01*
X0039122Y0090372D02*
X0038755Y0090372D01*
X0042808Y0090739D02*
X0043542Y0091473D01*
X0044276Y0090739D01*
X0044276Y0089271D01*
X0045017Y0089271D02*
X0045017Y0091473D01*
X0044722Y0052909D02*
X0044722Y0052542D01*
X0044722Y0051808D02*
X0044722Y0050340D01*
X0045088Y0050340D02*
X0044355Y0050340D01*
X0043615Y0050340D02*
X0043615Y0051808D01*
X0043248Y0051808D01*
X0042881Y0051441D01*
X0042514Y0051808D01*
X0042147Y0051441D01*
X0042147Y0050340D01*
X0042881Y0050340D02*
X0042881Y0051441D01*
X0041405Y0051808D02*
X0041038Y0051808D01*
X0040671Y0051441D01*
X0040304Y0051808D01*
X0039937Y0051441D01*
X0039937Y0050340D01*
X0040671Y0050340D02*
X0040671Y0051441D01*
X0041405Y0051808D02*
X0041405Y0050340D01*
X0041778Y0048208D02*
X0042145Y0048208D01*
X0042879Y0047474D01*
X0042879Y0046740D02*
X0042879Y0048208D01*
X0043621Y0047841D02*
X0045088Y0047841D01*
X0045830Y0047474D02*
X0045830Y0047107D01*
X0046197Y0046740D01*
X0047298Y0046740D01*
X0047298Y0048942D01*
X0046197Y0048942D01*
X0045830Y0048575D01*
X0045830Y0048208D01*
X0046197Y0047841D01*
X0047298Y0047841D01*
X0048040Y0047841D02*
X0048774Y0047841D01*
X0048040Y0047841D02*
X0048040Y0047107D01*
X0048407Y0046740D01*
X0049141Y0046740D01*
X0049508Y0047107D01*
X0049508Y0048575D01*
X0049141Y0048942D01*
X0048407Y0048942D01*
X0048040Y0048575D01*
X0047298Y0050340D02*
X0046197Y0050340D01*
X0045830Y0050707D01*
X0045830Y0052175D01*
X0046197Y0052542D01*
X0047298Y0052542D01*
X0047298Y0050340D01*
X0045088Y0051808D02*
X0044722Y0051808D01*
X0046197Y0047841D02*
X0045830Y0047474D01*
X0050250Y0047841D02*
X0050617Y0047474D01*
X0051718Y0047474D01*
X0050984Y0047474D02*
X0050250Y0046740D01*
X0050250Y0047841D02*
X0050250Y0048575D01*
X0050617Y0048942D01*
X0051718Y0048942D01*
X0051718Y0046740D01*
X0054667Y0046740D02*
X0055034Y0046740D01*
X0055034Y0047107D01*
X0054667Y0047107D01*
X0054667Y0046740D01*
X0055401Y0046006D01*
X0056141Y0046740D02*
X0056875Y0046740D01*
X0056508Y0046740D02*
X0056508Y0048942D01*
X0056875Y0048942D01*
X0057616Y0047841D02*
X0057616Y0047474D01*
X0059084Y0047474D01*
X0059084Y0047107D02*
X0059084Y0047841D01*
X0058717Y0048208D01*
X0057983Y0048208D01*
X0057616Y0047841D01*
X0057983Y0046740D02*
X0058717Y0046740D01*
X0059084Y0047107D01*
X0059826Y0046740D02*
X0059826Y0047841D01*
X0060193Y0048208D01*
X0061294Y0048208D01*
X0061294Y0046740D01*
X0062036Y0046740D02*
X0062036Y0047841D01*
X0062403Y0048208D01*
X0063504Y0048208D01*
X0063504Y0046740D01*
X0064246Y0046740D02*
X0065347Y0046740D01*
X0065714Y0047107D01*
X0065347Y0047474D01*
X0064246Y0047474D01*
X0064246Y0047841D02*
X0064246Y0046740D01*
X0064246Y0047841D02*
X0064613Y0048208D01*
X0065347Y0048208D01*
X0066456Y0047841D02*
X0066456Y0046740D01*
X0066456Y0047841D02*
X0066823Y0048208D01*
X0067557Y0048208D01*
X0067924Y0047841D01*
X0068666Y0048208D02*
X0069767Y0048208D01*
X0070134Y0047841D01*
X0070134Y0047107D01*
X0069767Y0046740D01*
X0068666Y0046740D01*
X0067924Y0046740D02*
X0067924Y0048942D01*
X0070134Y0050340D02*
X0070134Y0052542D01*
X0069033Y0052542D01*
X0068666Y0052175D01*
X0068666Y0051441D01*
X0069033Y0051074D01*
X0070134Y0051074D01*
X0070876Y0051074D02*
X0070876Y0050707D01*
X0071243Y0050340D01*
X0071977Y0050340D01*
X0072344Y0050707D01*
X0071977Y0051441D02*
X0071243Y0051441D01*
X0070876Y0051074D01*
X0070876Y0052175D02*
X0071243Y0052542D01*
X0071977Y0052542D01*
X0072344Y0052175D01*
X0072344Y0051808D01*
X0071977Y0051441D01*
X0073086Y0050340D02*
X0074554Y0050340D01*
X0074554Y0052542D01*
X0073086Y0052542D01*
X0073820Y0051441D02*
X0074554Y0051441D01*
X0074187Y0048942D02*
X0073453Y0048942D01*
X0073086Y0048575D01*
X0073086Y0048208D01*
X0073453Y0047841D01*
X0073086Y0047474D01*
X0073086Y0047107D01*
X0073453Y0046740D01*
X0074187Y0046740D01*
X0074554Y0047107D01*
X0073820Y0047841D02*
X0073453Y0047841D01*
X0074554Y0048575D02*
X0074187Y0048942D01*
X0071977Y0041742D02*
X0071243Y0041742D01*
X0070876Y0041375D01*
X0070876Y0041008D01*
X0072344Y0039540D01*
X0070876Y0039540D01*
X0070134Y0039540D02*
X0069767Y0039540D01*
X0069767Y0039907D01*
X0070134Y0039907D01*
X0070134Y0039540D01*
X0069029Y0039907D02*
X0067561Y0041375D01*
X0067561Y0039907D01*
X0067928Y0039540D01*
X0068662Y0039540D01*
X0069029Y0039907D01*
X0069029Y0041375D01*
X0068662Y0041742D01*
X0067928Y0041742D01*
X0067561Y0041375D01*
X0066819Y0041008D02*
X0066819Y0039540D01*
X0066819Y0040274D02*
X0066085Y0041008D01*
X0065718Y0041008D01*
X0064977Y0040641D02*
X0064977Y0039907D01*
X0064610Y0039540D01*
X0063876Y0039540D01*
X0063509Y0040274D02*
X0064977Y0040274D01*
X0064977Y0040641D02*
X0064610Y0041008D01*
X0063876Y0041008D01*
X0063509Y0040641D01*
X0063509Y0040274D01*
X0062768Y0041008D02*
X0062034Y0039540D01*
X0061300Y0041008D01*
X0060558Y0041008D02*
X0059824Y0041742D01*
X0059824Y0039540D01*
X0060558Y0039540D02*
X0059090Y0039540D01*
X0059086Y0033808D02*
X0059453Y0033441D01*
X0059453Y0032707D01*
X0059086Y0032340D01*
X0058352Y0032340D01*
X0057985Y0032707D01*
X0057985Y0033441D01*
X0058352Y0033808D01*
X0059086Y0033808D01*
X0060195Y0033808D02*
X0061296Y0033808D01*
X0061663Y0033441D01*
X0061663Y0032707D01*
X0061296Y0032340D01*
X0060195Y0032340D01*
X0062401Y0032340D02*
X0062768Y0032340D01*
X0062768Y0032707D01*
X0062401Y0032707D01*
X0062401Y0032340D01*
X0063509Y0032707D02*
X0063509Y0033441D01*
X0063876Y0033808D01*
X0064977Y0033808D01*
X0064977Y0034542D02*
X0064977Y0032340D01*
X0063876Y0032340D01*
X0063509Y0032707D01*
X0065719Y0032340D02*
X0065719Y0033808D01*
X0065719Y0032340D02*
X0066820Y0032340D01*
X0067187Y0032707D01*
X0067187Y0033808D01*
X0067929Y0033441D02*
X0067929Y0032340D01*
X0067929Y0033441D02*
X0068296Y0033808D01*
X0069030Y0033808D01*
X0069397Y0033441D01*
X0070136Y0033808D02*
X0070870Y0033808D01*
X0070503Y0034175D02*
X0070503Y0032707D01*
X0070136Y0032340D01*
X0069397Y0032340D02*
X0069397Y0034542D01*
X0071977Y0034542D02*
X0071977Y0034909D01*
X0071977Y0033808D02*
X0071977Y0032340D01*
X0072344Y0032340D02*
X0071610Y0032340D01*
X0073086Y0032340D02*
X0074187Y0032340D01*
X0074554Y0032707D01*
X0074554Y0033441D01*
X0074187Y0033808D01*
X0073086Y0033808D01*
X0073086Y0031973D01*
X0073453Y0031606D01*
X0073820Y0031606D01*
X0072344Y0033808D02*
X0071977Y0033808D01*
X0073820Y0039540D02*
X0073086Y0041008D01*
X0072344Y0041375D02*
X0071977Y0041742D01*
X0074554Y0041008D02*
X0073820Y0039540D01*
X0065714Y0050340D02*
X0064980Y0051074D01*
X0064246Y0050340D01*
X0064246Y0052542D01*
X0063504Y0051808D02*
X0063137Y0051808D01*
X0063137Y0050340D01*
X0063504Y0050340D02*
X0062770Y0050340D01*
X0062031Y0050340D02*
X0062031Y0052542D01*
X0060563Y0052542D01*
X0059821Y0051808D02*
X0059454Y0051808D01*
X0059454Y0050340D01*
X0059821Y0050340D02*
X0059087Y0050340D01*
X0061297Y0051441D02*
X0062031Y0051441D01*
X0063137Y0052542D02*
X0063137Y0052909D01*
X0059454Y0052909D02*
X0059454Y0052542D01*
X0056138Y0052542D02*
X0056138Y0050340D01*
X0054670Y0050340D01*
X0053928Y0050340D02*
X0052460Y0050340D01*
X0051718Y0050340D02*
X0050617Y0050340D01*
X0050250Y0050707D01*
X0050250Y0052175D01*
X0050617Y0052542D01*
X0051718Y0052542D01*
X0051718Y0050340D01*
X0053194Y0051441D02*
X0053928Y0051441D01*
X0053928Y0052542D02*
X0053928Y0050340D01*
X0053928Y0052542D02*
X0052460Y0052542D01*
X0041037Y0047841D02*
X0041037Y0047107D01*
X0040670Y0046740D01*
X0039936Y0046740D01*
X0039569Y0047474D02*
X0041037Y0047474D01*
X0041037Y0047841D02*
X0040670Y0048208D01*
X0039936Y0048208D01*
X0039569Y0047841D01*
X0039569Y0047474D01*
X0038827Y0047107D02*
X0038460Y0047474D01*
X0037359Y0047474D01*
X0037359Y0047841D02*
X0037359Y0046740D01*
X0038460Y0046740D01*
X0038827Y0047107D01*
X0038460Y0048208D02*
X0037726Y0048208D01*
X0037359Y0047841D01*
X0036617Y0047841D02*
X0036617Y0047107D01*
X0036250Y0046740D01*
X0035149Y0046740D01*
X0035149Y0048942D01*
X0035149Y0048208D02*
X0036250Y0048208D01*
X0036617Y0047841D01*
X0034407Y0048208D02*
X0034407Y0047107D01*
X0034040Y0046740D01*
X0032939Y0046740D01*
X0032939Y0046373D02*
X0033306Y0046006D01*
X0033673Y0046006D01*
X0032939Y0046373D02*
X0032939Y0048208D01*
X0036986Y0050340D02*
X0036986Y0051808D01*
X0036986Y0051074D02*
X0036252Y0051808D01*
X0035885Y0051808D01*
X0037728Y0051441D02*
X0037728Y0051074D01*
X0039195Y0051074D01*
X0039195Y0050707D02*
X0039195Y0051441D01*
X0038828Y0051808D01*
X0038095Y0051808D01*
X0037728Y0051441D01*
X0038095Y0050340D02*
X0038828Y0050340D01*
X0039195Y0050707D01*
X0036987Y0034175D02*
X0036987Y0032707D01*
X0036620Y0032340D01*
X0036620Y0033808D02*
X0037354Y0033808D01*
X0038096Y0033441D02*
X0038096Y0032340D01*
X0038096Y0033441D02*
X0038463Y0033808D01*
X0039564Y0033808D01*
X0039564Y0032340D01*
X0040306Y0033074D02*
X0041774Y0033074D01*
X0041774Y0032707D02*
X0041774Y0033441D01*
X0041407Y0033808D01*
X0040673Y0033808D01*
X0040306Y0033441D01*
X0040306Y0033074D01*
X0040673Y0032340D02*
X0041407Y0032340D01*
X0041774Y0032707D01*
X0042516Y0032340D02*
X0042516Y0033441D01*
X0042883Y0033808D01*
X0043250Y0033441D01*
X0043250Y0032340D01*
X0043984Y0032340D02*
X0043984Y0033808D01*
X0043617Y0033808D01*
X0043250Y0033441D01*
X0044726Y0033441D02*
X0044726Y0033074D01*
X0046193Y0033074D01*
X0046193Y0032707D02*
X0046193Y0033441D01*
X0045826Y0033808D01*
X0045092Y0033808D01*
X0044726Y0033441D01*
X0045092Y0032340D02*
X0045826Y0032340D01*
X0046193Y0032707D01*
X0046933Y0032340D02*
X0047667Y0032340D01*
X0047300Y0032340D02*
X0047300Y0034542D01*
X0047667Y0034542D01*
X0048409Y0033808D02*
X0049510Y0033808D01*
X0049877Y0033441D01*
X0049877Y0032707D01*
X0049510Y0032340D01*
X0048409Y0032340D01*
X0050616Y0031973D02*
X0050616Y0033808D01*
X0050616Y0034542D02*
X0050616Y0034909D01*
X0052089Y0033808D02*
X0052823Y0033808D01*
X0052456Y0034175D02*
X0052456Y0032707D01*
X0052089Y0032340D01*
X0051350Y0031606D02*
X0050983Y0031606D01*
X0050616Y0031973D01*
X0053565Y0034542D02*
X0055033Y0032340D01*
X0055775Y0032340D02*
X0055775Y0033441D01*
X0056142Y0033808D01*
X0056509Y0033441D01*
X0056509Y0032340D01*
X0057243Y0032340D02*
X0057243Y0033808D01*
X0056876Y0033808D01*
X0056509Y0033441D01*
X0065714Y0050340D02*
X0065714Y0052542D01*
X0132546Y0048208D02*
X0132546Y0046373D01*
X0132913Y0046006D01*
X0133280Y0046006D01*
X0133647Y0046740D02*
X0132546Y0046740D01*
X0133647Y0046740D02*
X0134014Y0047107D01*
X0134014Y0048208D01*
X0134756Y0048208D02*
X0135857Y0048208D01*
X0136224Y0047841D01*
X0136224Y0047107D01*
X0135857Y0046740D01*
X0134756Y0046740D01*
X0134756Y0048942D01*
X0136592Y0050340D02*
X0136592Y0051808D01*
X0136592Y0051074D02*
X0135858Y0051808D01*
X0135491Y0051808D01*
X0137334Y0051441D02*
X0137334Y0051074D01*
X0138802Y0051074D01*
X0138802Y0050707D02*
X0138802Y0051441D01*
X0138435Y0051808D01*
X0137701Y0051808D01*
X0137334Y0051441D01*
X0137701Y0050340D02*
X0138435Y0050340D01*
X0138802Y0050707D01*
X0139544Y0050340D02*
X0139544Y0051441D01*
X0139911Y0051808D01*
X0140278Y0051441D01*
X0140278Y0050340D01*
X0141012Y0050340D02*
X0141012Y0051808D01*
X0140645Y0051808D01*
X0140278Y0051441D01*
X0141754Y0051441D02*
X0141754Y0050340D01*
X0142488Y0050340D02*
X0142488Y0051441D01*
X0142121Y0051808D01*
X0141754Y0051441D01*
X0142488Y0051441D02*
X0142855Y0051808D01*
X0143222Y0051808D01*
X0143222Y0050340D01*
X0143961Y0050340D02*
X0144695Y0050340D01*
X0144328Y0050340D02*
X0144328Y0051808D01*
X0144695Y0051808D01*
X0144328Y0052542D02*
X0144328Y0052909D01*
X0145437Y0052175D02*
X0145804Y0052542D01*
X0146905Y0052542D01*
X0146905Y0050340D01*
X0145804Y0050340D01*
X0145437Y0050707D01*
X0145437Y0052175D01*
X0145804Y0048942D02*
X0145437Y0048575D01*
X0145437Y0048208D01*
X0145804Y0047841D01*
X0146905Y0047841D01*
X0147647Y0047841D02*
X0147647Y0047107D01*
X0148014Y0046740D01*
X0148748Y0046740D01*
X0149115Y0047107D01*
X0149115Y0048575D01*
X0148748Y0048942D01*
X0148014Y0048942D01*
X0147647Y0048575D01*
X0147647Y0047841D02*
X0148381Y0047841D01*
X0149857Y0047841D02*
X0150223Y0047474D01*
X0151324Y0047474D01*
X0150590Y0047474D02*
X0149857Y0046740D01*
X0149857Y0047841D02*
X0149857Y0048575D01*
X0150223Y0048942D01*
X0151324Y0048942D01*
X0151324Y0046740D01*
X0154274Y0046740D02*
X0154641Y0046740D01*
X0154641Y0047107D01*
X0154274Y0047107D01*
X0154274Y0046740D01*
X0155008Y0046006D01*
X0155747Y0046740D02*
X0156481Y0046740D01*
X0156114Y0046740D02*
X0156114Y0048942D01*
X0156481Y0048942D01*
X0157223Y0047841D02*
X0157223Y0047474D01*
X0158691Y0047474D01*
X0158691Y0047107D02*
X0158691Y0047841D01*
X0158324Y0048208D01*
X0157590Y0048208D01*
X0157223Y0047841D01*
X0157590Y0046740D02*
X0158324Y0046740D01*
X0158691Y0047107D01*
X0159433Y0046740D02*
X0159433Y0047841D01*
X0159800Y0048208D01*
X0160901Y0048208D01*
X0160901Y0046740D01*
X0161643Y0046740D02*
X0161643Y0047841D01*
X0162010Y0048208D01*
X0163110Y0048208D01*
X0163110Y0046740D01*
X0163852Y0046740D02*
X0163852Y0047841D01*
X0164219Y0048208D01*
X0164953Y0048208D01*
X0164953Y0047474D02*
X0163852Y0047474D01*
X0163852Y0046740D02*
X0164953Y0046740D01*
X0165320Y0047107D01*
X0164953Y0047474D01*
X0166062Y0047841D02*
X0166062Y0046740D01*
X0166062Y0047841D02*
X0166429Y0048208D01*
X0167163Y0048208D01*
X0167530Y0047841D01*
X0168272Y0048208D02*
X0169373Y0048208D01*
X0169740Y0047841D01*
X0169740Y0047107D01*
X0169373Y0046740D01*
X0168272Y0046740D01*
X0167530Y0046740D02*
X0167530Y0048942D01*
X0165320Y0050340D02*
X0164586Y0051074D01*
X0163852Y0050340D01*
X0163852Y0052542D01*
X0163110Y0051808D02*
X0162743Y0051808D01*
X0162743Y0050340D01*
X0163110Y0050340D02*
X0162376Y0050340D01*
X0161637Y0050340D02*
X0161637Y0052542D01*
X0160169Y0052542D01*
X0159427Y0051808D02*
X0159060Y0051808D01*
X0159060Y0050340D01*
X0159427Y0050340D02*
X0158693Y0050340D01*
X0160903Y0051441D02*
X0161637Y0051441D01*
X0162743Y0052542D02*
X0162743Y0052909D01*
X0165320Y0052542D02*
X0165320Y0050340D01*
X0168272Y0051441D02*
X0168639Y0051074D01*
X0169740Y0051074D01*
X0169740Y0050340D02*
X0169740Y0052542D01*
X0168639Y0052542D01*
X0168272Y0052175D01*
X0168272Y0051441D01*
X0170482Y0051074D02*
X0170482Y0050707D01*
X0170849Y0050340D01*
X0171583Y0050340D01*
X0171950Y0050707D01*
X0171583Y0051441D02*
X0170849Y0051441D01*
X0170482Y0051074D01*
X0170482Y0052175D02*
X0170849Y0052542D01*
X0171583Y0052542D01*
X0171950Y0052175D01*
X0171950Y0051808D01*
X0171583Y0051441D01*
X0172692Y0050340D02*
X0174160Y0050340D01*
X0174160Y0052542D01*
X0172692Y0052542D01*
X0173426Y0051441D02*
X0174160Y0051441D01*
X0173793Y0048942D02*
X0173059Y0048942D01*
X0172692Y0048575D01*
X0172692Y0048208D01*
X0173059Y0047841D01*
X0172692Y0047474D01*
X0172692Y0047107D01*
X0173059Y0046740D01*
X0173793Y0046740D01*
X0174160Y0047107D01*
X0173426Y0047841D02*
X0173059Y0047841D01*
X0174160Y0048575D02*
X0173793Y0048942D01*
X0171583Y0041742D02*
X0171950Y0041375D01*
X0171583Y0041742D02*
X0170849Y0041742D01*
X0170482Y0041375D01*
X0170482Y0041008D01*
X0171950Y0039540D01*
X0170482Y0039540D01*
X0169740Y0039540D02*
X0169373Y0039540D01*
X0169373Y0039907D01*
X0169740Y0039907D01*
X0169740Y0039540D01*
X0168635Y0039907D02*
X0167167Y0041375D01*
X0167167Y0039907D01*
X0167534Y0039540D01*
X0168268Y0039540D01*
X0168635Y0039907D01*
X0168635Y0041375D01*
X0168268Y0041742D01*
X0167534Y0041742D01*
X0167167Y0041375D01*
X0166425Y0041008D02*
X0166425Y0039540D01*
X0166425Y0040274D02*
X0165691Y0041008D01*
X0165324Y0041008D01*
X0164584Y0040641D02*
X0164217Y0041008D01*
X0163483Y0041008D01*
X0163116Y0040641D01*
X0163116Y0040274D01*
X0164584Y0040274D01*
X0164584Y0039907D02*
X0164584Y0040641D01*
X0164584Y0039907D02*
X0164217Y0039540D01*
X0163483Y0039540D01*
X0162374Y0041008D02*
X0161640Y0039540D01*
X0160906Y0041008D01*
X0160164Y0041008D02*
X0159430Y0041742D01*
X0159430Y0039540D01*
X0160164Y0039540D02*
X0158696Y0039540D01*
X0158692Y0033808D02*
X0159059Y0033441D01*
X0159059Y0032707D01*
X0158692Y0032340D01*
X0157958Y0032340D01*
X0157591Y0032707D01*
X0157591Y0033441D01*
X0157958Y0033808D01*
X0158692Y0033808D01*
X0159801Y0033808D02*
X0160902Y0033808D01*
X0161269Y0033441D01*
X0161269Y0032707D01*
X0160902Y0032340D01*
X0159801Y0032340D01*
X0162007Y0032340D02*
X0162374Y0032340D01*
X0162374Y0032707D01*
X0162007Y0032707D01*
X0162007Y0032340D01*
X0163116Y0032707D02*
X0163116Y0033441D01*
X0163483Y0033808D01*
X0164584Y0033808D01*
X0164584Y0034542D02*
X0164584Y0032340D01*
X0163483Y0032340D01*
X0163116Y0032707D01*
X0165326Y0032340D02*
X0165326Y0033808D01*
X0166794Y0033808D02*
X0166794Y0032707D01*
X0166427Y0032340D01*
X0165326Y0032340D01*
X0167536Y0032340D02*
X0167536Y0033441D01*
X0167903Y0033808D01*
X0168636Y0033808D01*
X0169003Y0033441D01*
X0169743Y0033808D02*
X0170477Y0033808D01*
X0170110Y0034175D02*
X0170110Y0032707D01*
X0169743Y0032340D01*
X0169003Y0032340D02*
X0169003Y0034542D01*
X0171583Y0034542D02*
X0171583Y0034909D01*
X0171583Y0033808D02*
X0171583Y0032340D01*
X0171950Y0032340D02*
X0171216Y0032340D01*
X0172692Y0032340D02*
X0173793Y0032340D01*
X0174160Y0032707D01*
X0174160Y0033441D01*
X0173793Y0033808D01*
X0172692Y0033808D01*
X0172692Y0031973D01*
X0173059Y0031606D01*
X0173426Y0031606D01*
X0171950Y0033808D02*
X0171583Y0033808D01*
X0173426Y0039540D02*
X0172692Y0041008D01*
X0174160Y0041008D02*
X0173426Y0039540D01*
X0156849Y0033808D02*
X0156849Y0032340D01*
X0156115Y0032340D02*
X0156115Y0033441D01*
X0155748Y0033808D01*
X0155381Y0033441D01*
X0155381Y0032340D01*
X0154639Y0032340D02*
X0153171Y0034542D01*
X0152429Y0033808D02*
X0151695Y0033808D01*
X0152062Y0034175D02*
X0152062Y0032707D01*
X0151695Y0032340D01*
X0150956Y0031606D02*
X0150589Y0031606D01*
X0150222Y0031973D01*
X0150222Y0033808D01*
X0150222Y0034542D02*
X0150222Y0034909D01*
X0149116Y0033808D02*
X0149483Y0033441D01*
X0149483Y0032707D01*
X0149116Y0032340D01*
X0148015Y0032340D01*
X0147273Y0032340D02*
X0146539Y0032340D01*
X0146906Y0032340D02*
X0146906Y0034542D01*
X0147273Y0034542D01*
X0148015Y0033808D02*
X0149116Y0033808D01*
X0145800Y0033441D02*
X0145800Y0032707D01*
X0145433Y0032340D01*
X0144699Y0032340D01*
X0144332Y0033074D02*
X0145800Y0033074D01*
X0145800Y0033441D02*
X0145433Y0033808D01*
X0144699Y0033808D01*
X0144332Y0033441D01*
X0144332Y0033074D01*
X0143590Y0032340D02*
X0143590Y0033808D01*
X0143223Y0033808D01*
X0142856Y0033441D01*
X0142489Y0033808D01*
X0142122Y0033441D01*
X0142122Y0032340D01*
X0142856Y0032340D02*
X0142856Y0033441D01*
X0141380Y0033441D02*
X0141013Y0033808D01*
X0140279Y0033808D01*
X0139912Y0033441D01*
X0139912Y0033074D01*
X0141380Y0033074D01*
X0141380Y0032707D02*
X0141380Y0033441D01*
X0141380Y0032707D02*
X0141013Y0032340D01*
X0140279Y0032340D01*
X0139170Y0032340D02*
X0139170Y0033808D01*
X0138069Y0033808D01*
X0137702Y0033441D01*
X0137702Y0032340D01*
X0136593Y0032707D02*
X0136593Y0034175D01*
X0136960Y0033808D02*
X0136226Y0033808D01*
X0136593Y0032707D02*
X0136226Y0032340D01*
X0136966Y0046740D02*
X0138066Y0046740D01*
X0138433Y0047107D01*
X0138066Y0047474D01*
X0136966Y0047474D01*
X0136966Y0047841D02*
X0136966Y0046740D01*
X0136966Y0047841D02*
X0137333Y0048208D01*
X0138066Y0048208D01*
X0139175Y0047841D02*
X0139175Y0047474D01*
X0140643Y0047474D01*
X0140643Y0047107D02*
X0140643Y0047841D01*
X0140276Y0048208D01*
X0139542Y0048208D01*
X0139175Y0047841D01*
X0139542Y0046740D02*
X0140276Y0046740D01*
X0140643Y0047107D01*
X0141384Y0048208D02*
X0141751Y0048208D01*
X0142485Y0047474D01*
X0142485Y0046740D02*
X0142485Y0048208D01*
X0143227Y0047841D02*
X0144695Y0047841D01*
X0145437Y0047474D02*
X0145437Y0047107D01*
X0145804Y0046740D01*
X0146905Y0046740D01*
X0146905Y0048942D01*
X0145804Y0048942D01*
X0145804Y0047841D02*
X0145437Y0047474D01*
X0149857Y0050707D02*
X0149857Y0052175D01*
X0150223Y0052542D01*
X0151324Y0052542D01*
X0151324Y0050340D01*
X0150223Y0050340D01*
X0149857Y0050707D01*
X0152066Y0050340D02*
X0153534Y0050340D01*
X0153534Y0052542D01*
X0152066Y0052542D01*
X0152800Y0051441D02*
X0153534Y0051441D01*
X0154276Y0050340D02*
X0155744Y0050340D01*
X0155744Y0052542D01*
X0159060Y0052542D02*
X0159060Y0052909D01*
X0156849Y0033808D02*
X0156482Y0033808D01*
X0156115Y0033441D01*
X0163556Y0081968D02*
X0164290Y0081968D01*
X0164657Y0082335D01*
X0163923Y0083069D02*
X0163556Y0083069D01*
X0163189Y0082702D01*
X0163189Y0082335D01*
X0163556Y0081968D01*
X0163556Y0083069D02*
X0163189Y0083436D01*
X0163189Y0083803D01*
X0163556Y0084170D01*
X0164290Y0084170D01*
X0164657Y0083803D01*
X0165399Y0083069D02*
X0166867Y0083069D01*
X0167609Y0084170D02*
X0167609Y0081968D01*
X0169077Y0081968D02*
X0169077Y0084170D01*
X0168343Y0083436D01*
X0167609Y0084170D01*
X0169819Y0084170D02*
X0169819Y0081968D01*
X0170553Y0082702D01*
X0171287Y0081968D01*
X0171287Y0084170D01*
X0172029Y0083803D02*
X0172029Y0083069D01*
X0172396Y0082702D01*
X0173497Y0082702D01*
X0173497Y0081968D02*
X0173497Y0084170D01*
X0172396Y0084170D01*
X0172029Y0083803D01*
X0171045Y0089999D02*
X0169577Y0089999D01*
X0170311Y0089999D02*
X0170311Y0092201D01*
X0171045Y0091467D01*
X0168836Y0091834D02*
X0168836Y0090366D01*
X0167368Y0091834D01*
X0167368Y0090366D01*
X0167735Y0089999D01*
X0168469Y0089999D01*
X0168836Y0090366D01*
X0168836Y0091834D02*
X0168469Y0092201D01*
X0167735Y0092201D01*
X0167368Y0091834D01*
X0166626Y0092201D02*
X0166626Y0089999D01*
X0166626Y0090733D02*
X0165158Y0092201D01*
X0166259Y0091100D02*
X0165158Y0089999D01*
X0147839Y0085521D02*
X0147841Y0085596D01*
X0147847Y0085670D01*
X0147857Y0085744D01*
X0147871Y0085817D01*
X0147888Y0085889D01*
X0147910Y0085961D01*
X0147935Y0086031D01*
X0147964Y0086099D01*
X0147997Y0086167D01*
X0148033Y0086232D01*
X0148072Y0086295D01*
X0148115Y0086356D01*
X0148161Y0086415D01*
X0148210Y0086471D01*
X0148262Y0086524D01*
X0148317Y0086575D01*
X0148374Y0086622D01*
X0148434Y0086667D01*
X0148496Y0086708D01*
X0148561Y0086746D01*
X0148627Y0086780D01*
X0148695Y0086811D01*
X0148764Y0086838D01*
X0148835Y0086861D01*
X0148907Y0086881D01*
X0148980Y0086897D01*
X0149053Y0086909D01*
X0149127Y0086917D01*
X0149202Y0086921D01*
X0149276Y0086921D01*
X0149351Y0086917D01*
X0149425Y0086909D01*
X0149498Y0086897D01*
X0149571Y0086881D01*
X0149643Y0086861D01*
X0149714Y0086838D01*
X0149783Y0086811D01*
X0149851Y0086780D01*
X0149917Y0086746D01*
X0149982Y0086708D01*
X0150044Y0086667D01*
X0150104Y0086622D01*
X0150161Y0086575D01*
X0150216Y0086524D01*
X0150268Y0086471D01*
X0150317Y0086415D01*
X0150363Y0086356D01*
X0150406Y0086295D01*
X0150445Y0086232D01*
X0150481Y0086167D01*
X0150514Y0086099D01*
X0150543Y0086031D01*
X0150568Y0085961D01*
X0150590Y0085889D01*
X0150607Y0085817D01*
X0150621Y0085744D01*
X0150631Y0085670D01*
X0150637Y0085596D01*
X0150639Y0085521D01*
X0150637Y0085446D01*
X0150631Y0085372D01*
X0150621Y0085298D01*
X0150607Y0085225D01*
X0150590Y0085153D01*
X0150568Y0085081D01*
X0150543Y0085011D01*
X0150514Y0084943D01*
X0150481Y0084875D01*
X0150445Y0084810D01*
X0150406Y0084747D01*
X0150363Y0084686D01*
X0150317Y0084627D01*
X0150268Y0084571D01*
X0150216Y0084518D01*
X0150161Y0084467D01*
X0150104Y0084420D01*
X0150044Y0084375D01*
X0149982Y0084334D01*
X0149917Y0084296D01*
X0149851Y0084262D01*
X0149783Y0084231D01*
X0149714Y0084204D01*
X0149643Y0084181D01*
X0149571Y0084161D01*
X0149498Y0084145D01*
X0149425Y0084133D01*
X0149351Y0084125D01*
X0149276Y0084121D01*
X0149202Y0084121D01*
X0149127Y0084125D01*
X0149053Y0084133D01*
X0148980Y0084145D01*
X0148907Y0084161D01*
X0148835Y0084181D01*
X0148764Y0084204D01*
X0148695Y0084231D01*
X0148627Y0084262D01*
X0148561Y0084296D01*
X0148496Y0084334D01*
X0148434Y0084375D01*
X0148374Y0084420D01*
X0148317Y0084467D01*
X0148262Y0084518D01*
X0148210Y0084571D01*
X0148161Y0084627D01*
X0148115Y0084686D01*
X0148072Y0084747D01*
X0148033Y0084810D01*
X0147997Y0084875D01*
X0147964Y0084943D01*
X0147935Y0085011D01*
X0147910Y0085081D01*
X0147888Y0085153D01*
X0147871Y0085225D01*
X0147857Y0085298D01*
X0147847Y0085372D01*
X0147841Y0085446D01*
X0147839Y0085521D01*
X0147935Y0089271D02*
X0147201Y0089271D01*
X0146834Y0089638D01*
X0146092Y0089271D02*
X0146092Y0091473D01*
X0146834Y0091106D02*
X0147201Y0091473D01*
X0147935Y0091473D01*
X0148302Y0091106D01*
X0148302Y0089638D01*
X0147935Y0089271D01*
X0146092Y0090372D02*
X0144624Y0090372D01*
X0143882Y0090372D02*
X0142414Y0090372D01*
X0142414Y0090739D02*
X0142414Y0089271D01*
X0141672Y0089271D02*
X0141672Y0091473D01*
X0140204Y0089271D01*
X0140204Y0091473D01*
X0139462Y0090372D02*
X0137994Y0090372D01*
X0137252Y0089638D02*
X0136885Y0089271D01*
X0136151Y0089271D01*
X0135784Y0089638D01*
X0135784Y0090005D01*
X0136151Y0090372D01*
X0136518Y0090372D01*
X0136151Y0090372D02*
X0135784Y0090739D01*
X0135784Y0091106D01*
X0136151Y0091473D01*
X0136885Y0091473D01*
X0137252Y0091106D01*
X0142414Y0090739D02*
X0143148Y0091473D01*
X0143882Y0090739D01*
X0143882Y0089271D01*
X0144624Y0089271D02*
X0144624Y0091473D01*
D12*
X0151439Y0087721D02*
X0137239Y0087721D01*
X0137239Y0069121D01*
X0151439Y0069121D01*
X0151439Y0087721D01*
X0120126Y0092713D02*
X0188630Y0092713D01*
X0188630Y0136807D01*
X0120126Y0136807D01*
X0120126Y0092713D01*
X0089024Y0092713D02*
X0089024Y0136807D01*
X0020520Y0136807D01*
X0020520Y0092713D01*
X0089024Y0092713D01*
X0051832Y0087721D02*
X0051832Y0069121D01*
X0037632Y0069121D01*
X0037632Y0087721D01*
X0051832Y0087721D01*
D13*
X0051907Y0128264D02*
X0050672Y0128264D01*
X0051290Y0128264D02*
X0051290Y0131967D01*
X0051907Y0131967D02*
X0050672Y0131967D01*
X0049451Y0131967D02*
X0046983Y0128264D01*
X0046983Y0131967D01*
X0045768Y0131967D02*
X0044534Y0131967D01*
X0045151Y0131967D02*
X0045151Y0128264D01*
X0045768Y0128264D02*
X0044534Y0128264D01*
X0043313Y0130116D02*
X0040844Y0130116D01*
X0039630Y0131350D02*
X0039012Y0131967D01*
X0037778Y0131967D01*
X0037161Y0131350D01*
X0037161Y0130733D01*
X0037778Y0130116D01*
X0037161Y0129499D01*
X0037161Y0128881D01*
X0037778Y0128264D01*
X0039012Y0128264D01*
X0039630Y0128881D01*
X0038395Y0130116D02*
X0037778Y0130116D01*
X0035946Y0130116D02*
X0035946Y0128881D01*
X0035329Y0128264D01*
X0034095Y0128264D01*
X0033478Y0128881D01*
X0033478Y0129499D01*
X0034095Y0130116D01*
X0035946Y0130116D01*
X0034712Y0131350D01*
X0033478Y0131967D01*
X0032263Y0131350D02*
X0031646Y0131967D01*
X0030412Y0131967D01*
X0029795Y0131350D01*
X0032263Y0128881D01*
X0031646Y0128264D01*
X0030412Y0128264D01*
X0029795Y0128881D01*
X0029795Y0131350D01*
X0032263Y0131350D02*
X0032263Y0128881D01*
X0049451Y0128264D02*
X0049451Y0131967D01*
X0053121Y0131967D02*
X0053121Y0128264D01*
X0054355Y0130733D02*
X0053121Y0131967D01*
X0054355Y0130733D02*
X0055590Y0131967D01*
X0055590Y0128264D01*
X0056804Y0130116D02*
X0059273Y0130116D01*
X0060487Y0131350D02*
X0062956Y0128881D01*
X0062956Y0128264D01*
X0064171Y0128881D02*
X0064788Y0128264D01*
X0066022Y0128264D01*
X0066639Y0128881D01*
X0064171Y0131350D01*
X0064171Y0128881D01*
X0066639Y0128881D02*
X0066639Y0131350D01*
X0066022Y0131967D01*
X0064788Y0131967D01*
X0064171Y0131350D01*
X0062956Y0131967D02*
X0060487Y0131967D01*
X0060487Y0131350D01*
X0067854Y0131350D02*
X0067854Y0130733D01*
X0068471Y0130116D01*
X0067854Y0129499D01*
X0067854Y0128881D01*
X0068471Y0128264D01*
X0069705Y0128264D01*
X0070322Y0128881D01*
X0071537Y0128264D02*
X0074006Y0128264D01*
X0071537Y0130733D01*
X0071537Y0131350D01*
X0072154Y0131967D01*
X0073388Y0131967D01*
X0074006Y0131350D01*
X0075220Y0131350D02*
X0075220Y0130116D01*
X0075837Y0129499D01*
X0077689Y0129499D01*
X0077689Y0128264D02*
X0077689Y0131967D01*
X0075837Y0131967D01*
X0075220Y0131350D01*
X0078903Y0131967D02*
X0078903Y0128264D01*
X0081372Y0128264D02*
X0081372Y0131967D01*
X0080137Y0130733D01*
X0078903Y0131967D01*
X0070322Y0131350D02*
X0069705Y0131967D01*
X0068471Y0131967D01*
X0067854Y0131350D01*
X0068471Y0130116D02*
X0069088Y0130116D01*
X0129401Y0131350D02*
X0129401Y0128881D01*
X0130018Y0128264D01*
X0131252Y0128264D01*
X0131870Y0128881D01*
X0129401Y0131350D01*
X0130018Y0131967D01*
X0131252Y0131967D01*
X0131870Y0131350D01*
X0131870Y0128881D01*
X0133084Y0128881D02*
X0133084Y0129499D01*
X0133701Y0130116D01*
X0135553Y0130116D01*
X0135553Y0128881D01*
X0134936Y0128264D01*
X0133701Y0128264D01*
X0133084Y0128881D01*
X0134318Y0131350D02*
X0135553Y0130116D01*
X0136767Y0130733D02*
X0137384Y0130116D01*
X0136767Y0129499D01*
X0136767Y0128881D01*
X0137384Y0128264D01*
X0138619Y0128264D01*
X0139236Y0128881D01*
X0140450Y0130116D02*
X0142919Y0130116D01*
X0144140Y0131967D02*
X0145374Y0131967D01*
X0144757Y0131967D02*
X0144757Y0128264D01*
X0145374Y0128264D02*
X0144140Y0128264D01*
X0146589Y0128264D02*
X0146589Y0131967D01*
X0149058Y0131967D02*
X0146589Y0128264D01*
X0149058Y0128264D02*
X0149058Y0131967D01*
X0150279Y0131967D02*
X0151513Y0131967D01*
X0150896Y0131967D02*
X0150896Y0128264D01*
X0151513Y0128264D02*
X0150279Y0128264D01*
X0152727Y0128264D02*
X0152727Y0131967D01*
X0153962Y0130733D01*
X0155196Y0131967D01*
X0155196Y0128264D01*
X0156411Y0130116D02*
X0158879Y0130116D01*
X0160094Y0131350D02*
X0162562Y0128881D01*
X0162562Y0128264D01*
X0163777Y0128881D02*
X0164394Y0128264D01*
X0165628Y0128264D01*
X0166246Y0128881D01*
X0163777Y0131350D01*
X0163777Y0128881D01*
X0166246Y0128881D02*
X0166246Y0131350D01*
X0165628Y0131967D01*
X0164394Y0131967D01*
X0163777Y0131350D01*
X0162562Y0131967D02*
X0160094Y0131967D01*
X0160094Y0131350D01*
X0167460Y0131350D02*
X0167460Y0130733D01*
X0168077Y0130116D01*
X0167460Y0129499D01*
X0167460Y0128881D01*
X0168077Y0128264D01*
X0169312Y0128264D01*
X0169929Y0128881D01*
X0171143Y0128264D02*
X0173612Y0128264D01*
X0171143Y0130733D01*
X0171143Y0131350D01*
X0171760Y0131967D01*
X0172995Y0131967D01*
X0173612Y0131350D01*
X0174826Y0131350D02*
X0174826Y0130116D01*
X0175443Y0129499D01*
X0177295Y0129499D01*
X0177295Y0128264D02*
X0177295Y0131967D01*
X0175443Y0131967D01*
X0174826Y0131350D01*
X0178509Y0131967D02*
X0178509Y0128264D01*
X0180978Y0128264D02*
X0180978Y0131967D01*
X0179744Y0130733D01*
X0178509Y0131967D01*
X0169929Y0131350D02*
X0169312Y0131967D01*
X0168077Y0131967D01*
X0167460Y0131350D01*
X0168077Y0130116D02*
X0168694Y0130116D01*
X0139236Y0131350D02*
X0138619Y0131967D01*
X0137384Y0131967D01*
X0136767Y0131350D01*
X0136767Y0130733D01*
X0137384Y0130116D02*
X0138001Y0130116D01*
X0134318Y0131350D02*
X0133084Y0131967D01*
D14*
X0141780Y0109248D03*
X0042173Y0109248D03*
D15*
X0059496Y0113185D02*
X0059496Y0117122D01*
X0065402Y0117122D02*
X0065402Y0113185D01*
X0071701Y0113185D02*
X0071701Y0117122D01*
X0077606Y0117122D02*
X0077606Y0113185D01*
X0077606Y0101374D02*
X0077606Y0097437D01*
X0071701Y0097437D02*
X0071701Y0101374D01*
X0065402Y0101374D02*
X0065402Y0097437D01*
X0059496Y0097437D02*
X0059496Y0101374D01*
X0159102Y0101374D02*
X0159102Y0097437D01*
X0165008Y0097437D02*
X0165008Y0101374D01*
X0171307Y0101374D02*
X0171307Y0097437D01*
X0177213Y0097437D02*
X0177213Y0101374D01*
X0177213Y0113185D02*
X0177213Y0117122D01*
X0171307Y0117122D02*
X0171307Y0113185D01*
X0165008Y0113185D02*
X0165008Y0117122D01*
X0159102Y0117122D02*
X0159102Y0113185D01*
D16*
X0168157Y0107280D03*
X0068551Y0107280D03*
D17*
X0041532Y0086124D02*
X0041532Y0085523D01*
X0040932Y0084923D01*
X0039731Y0084923D01*
X0039130Y0084322D01*
X0039130Y0083722D01*
X0039731Y0083121D01*
X0040932Y0083121D01*
X0041532Y0083722D01*
X0041532Y0084322D01*
X0040932Y0084923D01*
X0039731Y0084923D02*
X0039130Y0085523D01*
X0039130Y0086124D01*
X0039731Y0086724D01*
X0040932Y0086724D01*
X0041532Y0086124D01*
X0138737Y0086124D02*
X0138737Y0085523D01*
X0139337Y0084923D01*
X0140538Y0084923D01*
X0141139Y0085523D01*
X0141139Y0086124D01*
X0140538Y0086724D01*
X0139337Y0086724D01*
X0138737Y0086124D01*
X0139337Y0084923D02*
X0138737Y0084322D01*
X0138737Y0083722D01*
X0139337Y0083121D01*
X0140538Y0083121D01*
X0141139Y0083722D01*
X0141139Y0084322D01*
X0140538Y0084923D01*
M02*
