%
M48
M72
T01C0.02362
T02C0.02400
T03C0.03150
%
T01
X10874Y12555
X26622Y12555
X54181Y12555
X54181Y20429
X65992Y12555
X77803Y12555
X93551Y12555
X93551Y28303
X93551Y44051
X102606Y55862
X102606Y59799
X102606Y64130
X102606Y68067
X102606Y72398
X102606Y76335
X102606Y80665
X102606Y84602
X102606Y88539
X102606Y92476
X112843Y95232
X110480Y103106
X93551Y107043
X93551Y122791
X73866Y122791
X58118Y122791
X42370Y122791
X31346Y122004
X42370Y138539
X58118Y138539
X73866Y138539
X73866Y107043
X73866Y95232
X77803Y87358
X93551Y75547
X93551Y59799
X110480Y55862
X118354Y55862
X118354Y71610
X110480Y71610
X110480Y79484
X134102Y95232
X134102Y103106
X141976Y95232
X141976Y87358
X148669Y87358
X157724Y95232
X157724Y107043
X173472Y107043
X173472Y95232
X177409Y87358
X193157Y75547
X193157Y59799
X193157Y44051
X193157Y28303
X193157Y12555
X177409Y12555
X165598Y12555
X153787Y12555
X153787Y20429
X126228Y12555
X110480Y12555
X153787Y47988
X153787Y55862
X153787Y63736
X193157Y107043
X193157Y122791
X173472Y122791
X157724Y122791
X141976Y122791
X130953Y122004
X141976Y138539
X157724Y138539
X173472Y138539
X110480Y138539
X58118Y107043
X58118Y95232
X49063Y87358
X42370Y87358
X41583Y95232
X33709Y95232
X33709Y103106
X13236Y95232
X10874Y103106
X10874Y79484
X10874Y71610
X18748Y71610
X18748Y55862
X10874Y55862
X54181Y55862
X54181Y47988
X54181Y63736
X10874Y138539
T02
X37838Y110109
X137444Y110109
T03
X82213Y62319
X82213Y48539
X82370Y34760
X82370Y20980
X122764Y20980
X122764Y34760
X122764Y48461
X122764Y62240
X181819Y62319
X181819Y48539
X181976Y34760
X181976Y20980
X23157Y20980
X23157Y34760
X23157Y48461
X23157Y62240
M30
