%
M48
M72
T01C0.02362
T02C0.02400
T03C0.03150
%
T01
X10874Y12161
X26622Y12161
X54181Y12161
X53787Y17280
X65992Y12161
X77803Y12161
X93551Y12161
X110087Y12161
X125835Y12161
X153394Y12161
X153000Y17280
X165205Y12161
X177016Y12161
X192764Y12161
X192764Y27909
X192764Y43657
X192764Y59406
X192764Y75154
X177016Y86965
X173079Y94839
X173079Y106650
X157331Y106650
X157331Y94839
X148276Y86965
X141583Y86965
X140795Y94839
X132921Y94839
X132921Y102713
X112449Y94839
X110087Y102713
X102606Y92083
X102606Y88146
X102606Y84209
X102606Y80272
X102606Y75941
X102606Y72004
X102606Y67673
X102606Y63736
X102606Y59406
X102606Y55469
X110087Y55469
X117961Y55469
X117961Y71217
X110087Y71217
X110087Y79091
X93551Y75154
X77803Y86965
X73866Y94839
X73866Y106650
X58118Y106650
X58118Y94839
X49063Y86965
X42370Y86965
X41583Y94839
X33709Y94839
X33709Y102713
X13236Y94839
X10874Y102713
X31346Y121610
X42370Y122398
X58118Y122398
X73866Y122398
X73866Y138146
X58118Y138146
X42370Y138146
X10874Y138146
X10874Y79091
X10874Y71217
X18748Y71217
X18748Y55469
X10874Y55469
X54181Y57437
X54181Y49563
X54181Y65311
X93551Y59406
X93551Y43657
X93551Y27909
X153394Y49563
X153394Y57437
X153394Y65311
X192764Y106650
X192764Y122398
X173079Y122398
X157331Y122398
X141583Y122398
X130559Y121610
X141583Y138146
X157331Y138146
X173079Y138146
X110087Y138146
X93551Y122398
X93551Y106650
T02
X37838Y109715
X137050Y109715
T03
X82213Y61925
X82213Y48146
X82370Y34366
X82370Y20587
X122370Y20587
X122370Y34366
X122370Y48067
X122370Y61846
X181425Y61925
X181425Y48146
X181583Y34366
X181583Y20587
X23157Y20587
X23157Y34366
X23157Y48067
X23157Y61846
M30
