G75*
%MOIN*%
%OFA0B0*%
%FSLAX25Y25*%
%IPPOS*%
%LPD*%
%AMOC8*
5,1,8,0,0,1.08239X$1,22.5*
%
%ADD10C,0.00000*%
%ADD11C,0.00200*%
%ADD12C,0.00500*%
%ADD13C,0.00300*%
%ADD14R,0.23622X0.23622*%
%ADD15C,0.01200*%
%ADD16R,0.19685X0.11811*%
%ADD17C,0.00400*%
D10*
X0003787Y0004287D02*
X0003787Y0149957D01*
X0101425Y0149957D01*
X0101425Y0096413D01*
X0101427Y0096340D01*
X0101433Y0096267D01*
X0101443Y0096194D01*
X0101456Y0096122D01*
X0101474Y0096050D01*
X0101495Y0095980D01*
X0101520Y0095911D01*
X0101548Y0095844D01*
X0101580Y0095778D01*
X0101616Y0095713D01*
X0101655Y0095651D01*
X0101697Y0095591D01*
X0101742Y0095533D01*
X0101790Y0095478D01*
X0101842Y0095426D01*
X0101896Y0095376D01*
X0101952Y0095329D01*
X0102011Y0095285D01*
X0102072Y0095245D01*
X0102135Y0095208D01*
X0102200Y0095174D01*
X0102267Y0095143D01*
X0102336Y0095117D01*
X0102405Y0095094D01*
X0102476Y0095074D01*
X0102548Y0095059D01*
X0102620Y0095047D01*
X0102693Y0095039D01*
X0102766Y0095035D01*
X0102840Y0095035D01*
X0102913Y0095039D01*
X0102986Y0095047D01*
X0103058Y0095059D01*
X0103130Y0095074D01*
X0103201Y0095094D01*
X0103270Y0095117D01*
X0103339Y0095143D01*
X0103406Y0095174D01*
X0103471Y0095208D01*
X0103534Y0095245D01*
X0103595Y0095285D01*
X0103654Y0095329D01*
X0103710Y0095376D01*
X0103764Y0095426D01*
X0103816Y0095478D01*
X0103864Y0095533D01*
X0103909Y0095591D01*
X0103951Y0095651D01*
X0103990Y0095713D01*
X0104026Y0095778D01*
X0104058Y0095844D01*
X0104086Y0095911D01*
X0104111Y0095980D01*
X0104132Y0096050D01*
X0104150Y0096122D01*
X0104163Y0096194D01*
X0104173Y0096267D01*
X0104179Y0096340D01*
X0104181Y0096413D01*
X0104181Y0149957D01*
X0200638Y0149957D01*
X0200638Y0096413D01*
X0200638Y0050744D01*
X0200638Y0004287D01*
X0104181Y0004287D01*
X0104181Y0050744D01*
X0104169Y0050816D01*
X0104153Y0050888D01*
X0104133Y0050959D01*
X0104109Y0051029D01*
X0104082Y0051097D01*
X0104051Y0051164D01*
X0104016Y0051229D01*
X0103978Y0051293D01*
X0103937Y0051354D01*
X0103893Y0051413D01*
X0103846Y0051469D01*
X0103796Y0051523D01*
X0103743Y0051574D01*
X0103687Y0051622D01*
X0103629Y0051668D01*
X0103568Y0051710D01*
X0103506Y0051749D01*
X0103441Y0051784D01*
X0103375Y0051816D01*
X0103307Y0051845D01*
X0103238Y0051869D01*
X0103167Y0051891D01*
X0103095Y0051908D01*
X0103023Y0051921D01*
X0102950Y0051931D01*
X0102877Y0051937D01*
X0102803Y0051939D01*
X0102729Y0051937D01*
X0102656Y0051931D01*
X0102583Y0051921D01*
X0102511Y0051908D01*
X0102439Y0051891D01*
X0102368Y0051869D01*
X0102299Y0051845D01*
X0102231Y0051816D01*
X0102165Y0051784D01*
X0102100Y0051749D01*
X0102038Y0051710D01*
X0101977Y0051668D01*
X0101919Y0051622D01*
X0101863Y0051574D01*
X0101810Y0051523D01*
X0101760Y0051469D01*
X0101713Y0051413D01*
X0101669Y0051354D01*
X0101628Y0051293D01*
X0101590Y0051229D01*
X0101555Y0051164D01*
X0101524Y0051097D01*
X0101497Y0051029D01*
X0101473Y0050959D01*
X0101453Y0050888D01*
X0101437Y0050816D01*
X0101425Y0050744D01*
X0101425Y0004287D01*
X0003787Y0004287D01*
X0101425Y0055469D02*
X0101427Y0055538D01*
X0101433Y0055606D01*
X0101443Y0055674D01*
X0101457Y0055741D01*
X0101475Y0055808D01*
X0101496Y0055873D01*
X0101522Y0055937D01*
X0101551Y0055999D01*
X0101583Y0056059D01*
X0101619Y0056118D01*
X0101659Y0056174D01*
X0101701Y0056228D01*
X0101747Y0056279D01*
X0101796Y0056328D01*
X0101847Y0056374D01*
X0101901Y0056416D01*
X0101957Y0056456D01*
X0102015Y0056492D01*
X0102076Y0056524D01*
X0102138Y0056553D01*
X0102202Y0056579D01*
X0102267Y0056600D01*
X0102334Y0056618D01*
X0102401Y0056632D01*
X0102469Y0056642D01*
X0102537Y0056648D01*
X0102606Y0056650D01*
X0102675Y0056648D01*
X0102743Y0056642D01*
X0102811Y0056632D01*
X0102878Y0056618D01*
X0102945Y0056600D01*
X0103010Y0056579D01*
X0103074Y0056553D01*
X0103136Y0056524D01*
X0103196Y0056492D01*
X0103255Y0056456D01*
X0103311Y0056416D01*
X0103365Y0056374D01*
X0103416Y0056328D01*
X0103465Y0056279D01*
X0103511Y0056228D01*
X0103553Y0056174D01*
X0103593Y0056118D01*
X0103629Y0056059D01*
X0103661Y0055999D01*
X0103690Y0055937D01*
X0103716Y0055873D01*
X0103737Y0055808D01*
X0103755Y0055741D01*
X0103769Y0055674D01*
X0103779Y0055606D01*
X0103785Y0055538D01*
X0103787Y0055469D01*
X0103785Y0055400D01*
X0103779Y0055332D01*
X0103769Y0055264D01*
X0103755Y0055197D01*
X0103737Y0055130D01*
X0103716Y0055065D01*
X0103690Y0055001D01*
X0103661Y0054939D01*
X0103629Y0054878D01*
X0103593Y0054820D01*
X0103553Y0054764D01*
X0103511Y0054710D01*
X0103465Y0054659D01*
X0103416Y0054610D01*
X0103365Y0054564D01*
X0103311Y0054522D01*
X0103255Y0054482D01*
X0103197Y0054446D01*
X0103136Y0054414D01*
X0103074Y0054385D01*
X0103010Y0054359D01*
X0102945Y0054338D01*
X0102878Y0054320D01*
X0102811Y0054306D01*
X0102743Y0054296D01*
X0102675Y0054290D01*
X0102606Y0054288D01*
X0102537Y0054290D01*
X0102469Y0054296D01*
X0102401Y0054306D01*
X0102334Y0054320D01*
X0102267Y0054338D01*
X0102202Y0054359D01*
X0102138Y0054385D01*
X0102076Y0054414D01*
X0102015Y0054446D01*
X0101957Y0054482D01*
X0101901Y0054522D01*
X0101847Y0054564D01*
X0101796Y0054610D01*
X0101747Y0054659D01*
X0101701Y0054710D01*
X0101659Y0054764D01*
X0101619Y0054820D01*
X0101583Y0054878D01*
X0101551Y0054939D01*
X0101522Y0055001D01*
X0101496Y0055065D01*
X0101475Y0055130D01*
X0101457Y0055197D01*
X0101443Y0055264D01*
X0101433Y0055332D01*
X0101427Y0055400D01*
X0101425Y0055469D01*
X0101425Y0059406D02*
X0101427Y0059475D01*
X0101433Y0059543D01*
X0101443Y0059611D01*
X0101457Y0059678D01*
X0101475Y0059745D01*
X0101496Y0059810D01*
X0101522Y0059874D01*
X0101551Y0059936D01*
X0101583Y0059996D01*
X0101619Y0060055D01*
X0101659Y0060111D01*
X0101701Y0060165D01*
X0101747Y0060216D01*
X0101796Y0060265D01*
X0101847Y0060311D01*
X0101901Y0060353D01*
X0101957Y0060393D01*
X0102015Y0060429D01*
X0102076Y0060461D01*
X0102138Y0060490D01*
X0102202Y0060516D01*
X0102267Y0060537D01*
X0102334Y0060555D01*
X0102401Y0060569D01*
X0102469Y0060579D01*
X0102537Y0060585D01*
X0102606Y0060587D01*
X0102675Y0060585D01*
X0102743Y0060579D01*
X0102811Y0060569D01*
X0102878Y0060555D01*
X0102945Y0060537D01*
X0103010Y0060516D01*
X0103074Y0060490D01*
X0103136Y0060461D01*
X0103196Y0060429D01*
X0103255Y0060393D01*
X0103311Y0060353D01*
X0103365Y0060311D01*
X0103416Y0060265D01*
X0103465Y0060216D01*
X0103511Y0060165D01*
X0103553Y0060111D01*
X0103593Y0060055D01*
X0103629Y0059996D01*
X0103661Y0059936D01*
X0103690Y0059874D01*
X0103716Y0059810D01*
X0103737Y0059745D01*
X0103755Y0059678D01*
X0103769Y0059611D01*
X0103779Y0059543D01*
X0103785Y0059475D01*
X0103787Y0059406D01*
X0103785Y0059337D01*
X0103779Y0059269D01*
X0103769Y0059201D01*
X0103755Y0059134D01*
X0103737Y0059067D01*
X0103716Y0059002D01*
X0103690Y0058938D01*
X0103661Y0058876D01*
X0103629Y0058815D01*
X0103593Y0058757D01*
X0103553Y0058701D01*
X0103511Y0058647D01*
X0103465Y0058596D01*
X0103416Y0058547D01*
X0103365Y0058501D01*
X0103311Y0058459D01*
X0103255Y0058419D01*
X0103197Y0058383D01*
X0103136Y0058351D01*
X0103074Y0058322D01*
X0103010Y0058296D01*
X0102945Y0058275D01*
X0102878Y0058257D01*
X0102811Y0058243D01*
X0102743Y0058233D01*
X0102675Y0058227D01*
X0102606Y0058225D01*
X0102537Y0058227D01*
X0102469Y0058233D01*
X0102401Y0058243D01*
X0102334Y0058257D01*
X0102267Y0058275D01*
X0102202Y0058296D01*
X0102138Y0058322D01*
X0102076Y0058351D01*
X0102015Y0058383D01*
X0101957Y0058419D01*
X0101901Y0058459D01*
X0101847Y0058501D01*
X0101796Y0058547D01*
X0101747Y0058596D01*
X0101701Y0058647D01*
X0101659Y0058701D01*
X0101619Y0058757D01*
X0101583Y0058815D01*
X0101551Y0058876D01*
X0101522Y0058938D01*
X0101496Y0059002D01*
X0101475Y0059067D01*
X0101457Y0059134D01*
X0101443Y0059201D01*
X0101433Y0059269D01*
X0101427Y0059337D01*
X0101425Y0059406D01*
X0101425Y0063736D02*
X0101427Y0063805D01*
X0101433Y0063873D01*
X0101443Y0063941D01*
X0101457Y0064008D01*
X0101475Y0064075D01*
X0101496Y0064140D01*
X0101522Y0064204D01*
X0101551Y0064266D01*
X0101583Y0064326D01*
X0101619Y0064385D01*
X0101659Y0064441D01*
X0101701Y0064495D01*
X0101747Y0064546D01*
X0101796Y0064595D01*
X0101847Y0064641D01*
X0101901Y0064683D01*
X0101957Y0064723D01*
X0102015Y0064759D01*
X0102076Y0064791D01*
X0102138Y0064820D01*
X0102202Y0064846D01*
X0102267Y0064867D01*
X0102334Y0064885D01*
X0102401Y0064899D01*
X0102469Y0064909D01*
X0102537Y0064915D01*
X0102606Y0064917D01*
X0102675Y0064915D01*
X0102743Y0064909D01*
X0102811Y0064899D01*
X0102878Y0064885D01*
X0102945Y0064867D01*
X0103010Y0064846D01*
X0103074Y0064820D01*
X0103136Y0064791D01*
X0103196Y0064759D01*
X0103255Y0064723D01*
X0103311Y0064683D01*
X0103365Y0064641D01*
X0103416Y0064595D01*
X0103465Y0064546D01*
X0103511Y0064495D01*
X0103553Y0064441D01*
X0103593Y0064385D01*
X0103629Y0064326D01*
X0103661Y0064266D01*
X0103690Y0064204D01*
X0103716Y0064140D01*
X0103737Y0064075D01*
X0103755Y0064008D01*
X0103769Y0063941D01*
X0103779Y0063873D01*
X0103785Y0063805D01*
X0103787Y0063736D01*
X0103785Y0063667D01*
X0103779Y0063599D01*
X0103769Y0063531D01*
X0103755Y0063464D01*
X0103737Y0063397D01*
X0103716Y0063332D01*
X0103690Y0063268D01*
X0103661Y0063206D01*
X0103629Y0063145D01*
X0103593Y0063087D01*
X0103553Y0063031D01*
X0103511Y0062977D01*
X0103465Y0062926D01*
X0103416Y0062877D01*
X0103365Y0062831D01*
X0103311Y0062789D01*
X0103255Y0062749D01*
X0103197Y0062713D01*
X0103136Y0062681D01*
X0103074Y0062652D01*
X0103010Y0062626D01*
X0102945Y0062605D01*
X0102878Y0062587D01*
X0102811Y0062573D01*
X0102743Y0062563D01*
X0102675Y0062557D01*
X0102606Y0062555D01*
X0102537Y0062557D01*
X0102469Y0062563D01*
X0102401Y0062573D01*
X0102334Y0062587D01*
X0102267Y0062605D01*
X0102202Y0062626D01*
X0102138Y0062652D01*
X0102076Y0062681D01*
X0102015Y0062713D01*
X0101957Y0062749D01*
X0101901Y0062789D01*
X0101847Y0062831D01*
X0101796Y0062877D01*
X0101747Y0062926D01*
X0101701Y0062977D01*
X0101659Y0063031D01*
X0101619Y0063087D01*
X0101583Y0063145D01*
X0101551Y0063206D01*
X0101522Y0063268D01*
X0101496Y0063332D01*
X0101475Y0063397D01*
X0101457Y0063464D01*
X0101443Y0063531D01*
X0101433Y0063599D01*
X0101427Y0063667D01*
X0101425Y0063736D01*
X0101425Y0067673D02*
X0101427Y0067742D01*
X0101433Y0067810D01*
X0101443Y0067878D01*
X0101457Y0067945D01*
X0101475Y0068012D01*
X0101496Y0068077D01*
X0101522Y0068141D01*
X0101551Y0068203D01*
X0101583Y0068263D01*
X0101619Y0068322D01*
X0101659Y0068378D01*
X0101701Y0068432D01*
X0101747Y0068483D01*
X0101796Y0068532D01*
X0101847Y0068578D01*
X0101901Y0068620D01*
X0101957Y0068660D01*
X0102015Y0068696D01*
X0102076Y0068728D01*
X0102138Y0068757D01*
X0102202Y0068783D01*
X0102267Y0068804D01*
X0102334Y0068822D01*
X0102401Y0068836D01*
X0102469Y0068846D01*
X0102537Y0068852D01*
X0102606Y0068854D01*
X0102675Y0068852D01*
X0102743Y0068846D01*
X0102811Y0068836D01*
X0102878Y0068822D01*
X0102945Y0068804D01*
X0103010Y0068783D01*
X0103074Y0068757D01*
X0103136Y0068728D01*
X0103196Y0068696D01*
X0103255Y0068660D01*
X0103311Y0068620D01*
X0103365Y0068578D01*
X0103416Y0068532D01*
X0103465Y0068483D01*
X0103511Y0068432D01*
X0103553Y0068378D01*
X0103593Y0068322D01*
X0103629Y0068263D01*
X0103661Y0068203D01*
X0103690Y0068141D01*
X0103716Y0068077D01*
X0103737Y0068012D01*
X0103755Y0067945D01*
X0103769Y0067878D01*
X0103779Y0067810D01*
X0103785Y0067742D01*
X0103787Y0067673D01*
X0103785Y0067604D01*
X0103779Y0067536D01*
X0103769Y0067468D01*
X0103755Y0067401D01*
X0103737Y0067334D01*
X0103716Y0067269D01*
X0103690Y0067205D01*
X0103661Y0067143D01*
X0103629Y0067082D01*
X0103593Y0067024D01*
X0103553Y0066968D01*
X0103511Y0066914D01*
X0103465Y0066863D01*
X0103416Y0066814D01*
X0103365Y0066768D01*
X0103311Y0066726D01*
X0103255Y0066686D01*
X0103197Y0066650D01*
X0103136Y0066618D01*
X0103074Y0066589D01*
X0103010Y0066563D01*
X0102945Y0066542D01*
X0102878Y0066524D01*
X0102811Y0066510D01*
X0102743Y0066500D01*
X0102675Y0066494D01*
X0102606Y0066492D01*
X0102537Y0066494D01*
X0102469Y0066500D01*
X0102401Y0066510D01*
X0102334Y0066524D01*
X0102267Y0066542D01*
X0102202Y0066563D01*
X0102138Y0066589D01*
X0102076Y0066618D01*
X0102015Y0066650D01*
X0101957Y0066686D01*
X0101901Y0066726D01*
X0101847Y0066768D01*
X0101796Y0066814D01*
X0101747Y0066863D01*
X0101701Y0066914D01*
X0101659Y0066968D01*
X0101619Y0067024D01*
X0101583Y0067082D01*
X0101551Y0067143D01*
X0101522Y0067205D01*
X0101496Y0067269D01*
X0101475Y0067334D01*
X0101457Y0067401D01*
X0101443Y0067468D01*
X0101433Y0067536D01*
X0101427Y0067604D01*
X0101425Y0067673D01*
X0101425Y0072004D02*
X0101427Y0072073D01*
X0101433Y0072141D01*
X0101443Y0072209D01*
X0101457Y0072276D01*
X0101475Y0072343D01*
X0101496Y0072408D01*
X0101522Y0072472D01*
X0101551Y0072534D01*
X0101583Y0072594D01*
X0101619Y0072653D01*
X0101659Y0072709D01*
X0101701Y0072763D01*
X0101747Y0072814D01*
X0101796Y0072863D01*
X0101847Y0072909D01*
X0101901Y0072951D01*
X0101957Y0072991D01*
X0102015Y0073027D01*
X0102076Y0073059D01*
X0102138Y0073088D01*
X0102202Y0073114D01*
X0102267Y0073135D01*
X0102334Y0073153D01*
X0102401Y0073167D01*
X0102469Y0073177D01*
X0102537Y0073183D01*
X0102606Y0073185D01*
X0102675Y0073183D01*
X0102743Y0073177D01*
X0102811Y0073167D01*
X0102878Y0073153D01*
X0102945Y0073135D01*
X0103010Y0073114D01*
X0103074Y0073088D01*
X0103136Y0073059D01*
X0103196Y0073027D01*
X0103255Y0072991D01*
X0103311Y0072951D01*
X0103365Y0072909D01*
X0103416Y0072863D01*
X0103465Y0072814D01*
X0103511Y0072763D01*
X0103553Y0072709D01*
X0103593Y0072653D01*
X0103629Y0072594D01*
X0103661Y0072534D01*
X0103690Y0072472D01*
X0103716Y0072408D01*
X0103737Y0072343D01*
X0103755Y0072276D01*
X0103769Y0072209D01*
X0103779Y0072141D01*
X0103785Y0072073D01*
X0103787Y0072004D01*
X0103785Y0071935D01*
X0103779Y0071867D01*
X0103769Y0071799D01*
X0103755Y0071732D01*
X0103737Y0071665D01*
X0103716Y0071600D01*
X0103690Y0071536D01*
X0103661Y0071474D01*
X0103629Y0071413D01*
X0103593Y0071355D01*
X0103553Y0071299D01*
X0103511Y0071245D01*
X0103465Y0071194D01*
X0103416Y0071145D01*
X0103365Y0071099D01*
X0103311Y0071057D01*
X0103255Y0071017D01*
X0103197Y0070981D01*
X0103136Y0070949D01*
X0103074Y0070920D01*
X0103010Y0070894D01*
X0102945Y0070873D01*
X0102878Y0070855D01*
X0102811Y0070841D01*
X0102743Y0070831D01*
X0102675Y0070825D01*
X0102606Y0070823D01*
X0102537Y0070825D01*
X0102469Y0070831D01*
X0102401Y0070841D01*
X0102334Y0070855D01*
X0102267Y0070873D01*
X0102202Y0070894D01*
X0102138Y0070920D01*
X0102076Y0070949D01*
X0102015Y0070981D01*
X0101957Y0071017D01*
X0101901Y0071057D01*
X0101847Y0071099D01*
X0101796Y0071145D01*
X0101747Y0071194D01*
X0101701Y0071245D01*
X0101659Y0071299D01*
X0101619Y0071355D01*
X0101583Y0071413D01*
X0101551Y0071474D01*
X0101522Y0071536D01*
X0101496Y0071600D01*
X0101475Y0071665D01*
X0101457Y0071732D01*
X0101443Y0071799D01*
X0101433Y0071867D01*
X0101427Y0071935D01*
X0101425Y0072004D01*
X0101425Y0075941D02*
X0101427Y0076010D01*
X0101433Y0076078D01*
X0101443Y0076146D01*
X0101457Y0076213D01*
X0101475Y0076280D01*
X0101496Y0076345D01*
X0101522Y0076409D01*
X0101551Y0076471D01*
X0101583Y0076531D01*
X0101619Y0076590D01*
X0101659Y0076646D01*
X0101701Y0076700D01*
X0101747Y0076751D01*
X0101796Y0076800D01*
X0101847Y0076846D01*
X0101901Y0076888D01*
X0101957Y0076928D01*
X0102015Y0076964D01*
X0102076Y0076996D01*
X0102138Y0077025D01*
X0102202Y0077051D01*
X0102267Y0077072D01*
X0102334Y0077090D01*
X0102401Y0077104D01*
X0102469Y0077114D01*
X0102537Y0077120D01*
X0102606Y0077122D01*
X0102675Y0077120D01*
X0102743Y0077114D01*
X0102811Y0077104D01*
X0102878Y0077090D01*
X0102945Y0077072D01*
X0103010Y0077051D01*
X0103074Y0077025D01*
X0103136Y0076996D01*
X0103196Y0076964D01*
X0103255Y0076928D01*
X0103311Y0076888D01*
X0103365Y0076846D01*
X0103416Y0076800D01*
X0103465Y0076751D01*
X0103511Y0076700D01*
X0103553Y0076646D01*
X0103593Y0076590D01*
X0103629Y0076531D01*
X0103661Y0076471D01*
X0103690Y0076409D01*
X0103716Y0076345D01*
X0103737Y0076280D01*
X0103755Y0076213D01*
X0103769Y0076146D01*
X0103779Y0076078D01*
X0103785Y0076010D01*
X0103787Y0075941D01*
X0103785Y0075872D01*
X0103779Y0075804D01*
X0103769Y0075736D01*
X0103755Y0075669D01*
X0103737Y0075602D01*
X0103716Y0075537D01*
X0103690Y0075473D01*
X0103661Y0075411D01*
X0103629Y0075350D01*
X0103593Y0075292D01*
X0103553Y0075236D01*
X0103511Y0075182D01*
X0103465Y0075131D01*
X0103416Y0075082D01*
X0103365Y0075036D01*
X0103311Y0074994D01*
X0103255Y0074954D01*
X0103197Y0074918D01*
X0103136Y0074886D01*
X0103074Y0074857D01*
X0103010Y0074831D01*
X0102945Y0074810D01*
X0102878Y0074792D01*
X0102811Y0074778D01*
X0102743Y0074768D01*
X0102675Y0074762D01*
X0102606Y0074760D01*
X0102537Y0074762D01*
X0102469Y0074768D01*
X0102401Y0074778D01*
X0102334Y0074792D01*
X0102267Y0074810D01*
X0102202Y0074831D01*
X0102138Y0074857D01*
X0102076Y0074886D01*
X0102015Y0074918D01*
X0101957Y0074954D01*
X0101901Y0074994D01*
X0101847Y0075036D01*
X0101796Y0075082D01*
X0101747Y0075131D01*
X0101701Y0075182D01*
X0101659Y0075236D01*
X0101619Y0075292D01*
X0101583Y0075350D01*
X0101551Y0075411D01*
X0101522Y0075473D01*
X0101496Y0075537D01*
X0101475Y0075602D01*
X0101457Y0075669D01*
X0101443Y0075736D01*
X0101433Y0075804D01*
X0101427Y0075872D01*
X0101425Y0075941D01*
X0101425Y0080272D02*
X0101427Y0080341D01*
X0101433Y0080409D01*
X0101443Y0080477D01*
X0101457Y0080544D01*
X0101475Y0080611D01*
X0101496Y0080676D01*
X0101522Y0080740D01*
X0101551Y0080802D01*
X0101583Y0080862D01*
X0101619Y0080921D01*
X0101659Y0080977D01*
X0101701Y0081031D01*
X0101747Y0081082D01*
X0101796Y0081131D01*
X0101847Y0081177D01*
X0101901Y0081219D01*
X0101957Y0081259D01*
X0102015Y0081295D01*
X0102076Y0081327D01*
X0102138Y0081356D01*
X0102202Y0081382D01*
X0102267Y0081403D01*
X0102334Y0081421D01*
X0102401Y0081435D01*
X0102469Y0081445D01*
X0102537Y0081451D01*
X0102606Y0081453D01*
X0102675Y0081451D01*
X0102743Y0081445D01*
X0102811Y0081435D01*
X0102878Y0081421D01*
X0102945Y0081403D01*
X0103010Y0081382D01*
X0103074Y0081356D01*
X0103136Y0081327D01*
X0103196Y0081295D01*
X0103255Y0081259D01*
X0103311Y0081219D01*
X0103365Y0081177D01*
X0103416Y0081131D01*
X0103465Y0081082D01*
X0103511Y0081031D01*
X0103553Y0080977D01*
X0103593Y0080921D01*
X0103629Y0080862D01*
X0103661Y0080802D01*
X0103690Y0080740D01*
X0103716Y0080676D01*
X0103737Y0080611D01*
X0103755Y0080544D01*
X0103769Y0080477D01*
X0103779Y0080409D01*
X0103785Y0080341D01*
X0103787Y0080272D01*
X0103785Y0080203D01*
X0103779Y0080135D01*
X0103769Y0080067D01*
X0103755Y0080000D01*
X0103737Y0079933D01*
X0103716Y0079868D01*
X0103690Y0079804D01*
X0103661Y0079742D01*
X0103629Y0079681D01*
X0103593Y0079623D01*
X0103553Y0079567D01*
X0103511Y0079513D01*
X0103465Y0079462D01*
X0103416Y0079413D01*
X0103365Y0079367D01*
X0103311Y0079325D01*
X0103255Y0079285D01*
X0103197Y0079249D01*
X0103136Y0079217D01*
X0103074Y0079188D01*
X0103010Y0079162D01*
X0102945Y0079141D01*
X0102878Y0079123D01*
X0102811Y0079109D01*
X0102743Y0079099D01*
X0102675Y0079093D01*
X0102606Y0079091D01*
X0102537Y0079093D01*
X0102469Y0079099D01*
X0102401Y0079109D01*
X0102334Y0079123D01*
X0102267Y0079141D01*
X0102202Y0079162D01*
X0102138Y0079188D01*
X0102076Y0079217D01*
X0102015Y0079249D01*
X0101957Y0079285D01*
X0101901Y0079325D01*
X0101847Y0079367D01*
X0101796Y0079413D01*
X0101747Y0079462D01*
X0101701Y0079513D01*
X0101659Y0079567D01*
X0101619Y0079623D01*
X0101583Y0079681D01*
X0101551Y0079742D01*
X0101522Y0079804D01*
X0101496Y0079868D01*
X0101475Y0079933D01*
X0101457Y0080000D01*
X0101443Y0080067D01*
X0101433Y0080135D01*
X0101427Y0080203D01*
X0101425Y0080272D01*
X0101425Y0084209D02*
X0101427Y0084278D01*
X0101433Y0084346D01*
X0101443Y0084414D01*
X0101457Y0084481D01*
X0101475Y0084548D01*
X0101496Y0084613D01*
X0101522Y0084677D01*
X0101551Y0084739D01*
X0101583Y0084799D01*
X0101619Y0084858D01*
X0101659Y0084914D01*
X0101701Y0084968D01*
X0101747Y0085019D01*
X0101796Y0085068D01*
X0101847Y0085114D01*
X0101901Y0085156D01*
X0101957Y0085196D01*
X0102015Y0085232D01*
X0102076Y0085264D01*
X0102138Y0085293D01*
X0102202Y0085319D01*
X0102267Y0085340D01*
X0102334Y0085358D01*
X0102401Y0085372D01*
X0102469Y0085382D01*
X0102537Y0085388D01*
X0102606Y0085390D01*
X0102675Y0085388D01*
X0102743Y0085382D01*
X0102811Y0085372D01*
X0102878Y0085358D01*
X0102945Y0085340D01*
X0103010Y0085319D01*
X0103074Y0085293D01*
X0103136Y0085264D01*
X0103196Y0085232D01*
X0103255Y0085196D01*
X0103311Y0085156D01*
X0103365Y0085114D01*
X0103416Y0085068D01*
X0103465Y0085019D01*
X0103511Y0084968D01*
X0103553Y0084914D01*
X0103593Y0084858D01*
X0103629Y0084799D01*
X0103661Y0084739D01*
X0103690Y0084677D01*
X0103716Y0084613D01*
X0103737Y0084548D01*
X0103755Y0084481D01*
X0103769Y0084414D01*
X0103779Y0084346D01*
X0103785Y0084278D01*
X0103787Y0084209D01*
X0103785Y0084140D01*
X0103779Y0084072D01*
X0103769Y0084004D01*
X0103755Y0083937D01*
X0103737Y0083870D01*
X0103716Y0083805D01*
X0103690Y0083741D01*
X0103661Y0083679D01*
X0103629Y0083618D01*
X0103593Y0083560D01*
X0103553Y0083504D01*
X0103511Y0083450D01*
X0103465Y0083399D01*
X0103416Y0083350D01*
X0103365Y0083304D01*
X0103311Y0083262D01*
X0103255Y0083222D01*
X0103197Y0083186D01*
X0103136Y0083154D01*
X0103074Y0083125D01*
X0103010Y0083099D01*
X0102945Y0083078D01*
X0102878Y0083060D01*
X0102811Y0083046D01*
X0102743Y0083036D01*
X0102675Y0083030D01*
X0102606Y0083028D01*
X0102537Y0083030D01*
X0102469Y0083036D01*
X0102401Y0083046D01*
X0102334Y0083060D01*
X0102267Y0083078D01*
X0102202Y0083099D01*
X0102138Y0083125D01*
X0102076Y0083154D01*
X0102015Y0083186D01*
X0101957Y0083222D01*
X0101901Y0083262D01*
X0101847Y0083304D01*
X0101796Y0083350D01*
X0101747Y0083399D01*
X0101701Y0083450D01*
X0101659Y0083504D01*
X0101619Y0083560D01*
X0101583Y0083618D01*
X0101551Y0083679D01*
X0101522Y0083741D01*
X0101496Y0083805D01*
X0101475Y0083870D01*
X0101457Y0083937D01*
X0101443Y0084004D01*
X0101433Y0084072D01*
X0101427Y0084140D01*
X0101425Y0084209D01*
X0101425Y0088146D02*
X0101427Y0088215D01*
X0101433Y0088283D01*
X0101443Y0088351D01*
X0101457Y0088418D01*
X0101475Y0088485D01*
X0101496Y0088550D01*
X0101522Y0088614D01*
X0101551Y0088676D01*
X0101583Y0088736D01*
X0101619Y0088795D01*
X0101659Y0088851D01*
X0101701Y0088905D01*
X0101747Y0088956D01*
X0101796Y0089005D01*
X0101847Y0089051D01*
X0101901Y0089093D01*
X0101957Y0089133D01*
X0102015Y0089169D01*
X0102076Y0089201D01*
X0102138Y0089230D01*
X0102202Y0089256D01*
X0102267Y0089277D01*
X0102334Y0089295D01*
X0102401Y0089309D01*
X0102469Y0089319D01*
X0102537Y0089325D01*
X0102606Y0089327D01*
X0102675Y0089325D01*
X0102743Y0089319D01*
X0102811Y0089309D01*
X0102878Y0089295D01*
X0102945Y0089277D01*
X0103010Y0089256D01*
X0103074Y0089230D01*
X0103136Y0089201D01*
X0103196Y0089169D01*
X0103255Y0089133D01*
X0103311Y0089093D01*
X0103365Y0089051D01*
X0103416Y0089005D01*
X0103465Y0088956D01*
X0103511Y0088905D01*
X0103553Y0088851D01*
X0103593Y0088795D01*
X0103629Y0088736D01*
X0103661Y0088676D01*
X0103690Y0088614D01*
X0103716Y0088550D01*
X0103737Y0088485D01*
X0103755Y0088418D01*
X0103769Y0088351D01*
X0103779Y0088283D01*
X0103785Y0088215D01*
X0103787Y0088146D01*
X0103785Y0088077D01*
X0103779Y0088009D01*
X0103769Y0087941D01*
X0103755Y0087874D01*
X0103737Y0087807D01*
X0103716Y0087742D01*
X0103690Y0087678D01*
X0103661Y0087616D01*
X0103629Y0087555D01*
X0103593Y0087497D01*
X0103553Y0087441D01*
X0103511Y0087387D01*
X0103465Y0087336D01*
X0103416Y0087287D01*
X0103365Y0087241D01*
X0103311Y0087199D01*
X0103255Y0087159D01*
X0103197Y0087123D01*
X0103136Y0087091D01*
X0103074Y0087062D01*
X0103010Y0087036D01*
X0102945Y0087015D01*
X0102878Y0086997D01*
X0102811Y0086983D01*
X0102743Y0086973D01*
X0102675Y0086967D01*
X0102606Y0086965D01*
X0102537Y0086967D01*
X0102469Y0086973D01*
X0102401Y0086983D01*
X0102334Y0086997D01*
X0102267Y0087015D01*
X0102202Y0087036D01*
X0102138Y0087062D01*
X0102076Y0087091D01*
X0102015Y0087123D01*
X0101957Y0087159D01*
X0101901Y0087199D01*
X0101847Y0087241D01*
X0101796Y0087287D01*
X0101747Y0087336D01*
X0101701Y0087387D01*
X0101659Y0087441D01*
X0101619Y0087497D01*
X0101583Y0087555D01*
X0101551Y0087616D01*
X0101522Y0087678D01*
X0101496Y0087742D01*
X0101475Y0087807D01*
X0101457Y0087874D01*
X0101443Y0087941D01*
X0101433Y0088009D01*
X0101427Y0088077D01*
X0101425Y0088146D01*
X0101425Y0092083D02*
X0101427Y0092152D01*
X0101433Y0092220D01*
X0101443Y0092288D01*
X0101457Y0092355D01*
X0101475Y0092422D01*
X0101496Y0092487D01*
X0101522Y0092551D01*
X0101551Y0092613D01*
X0101583Y0092673D01*
X0101619Y0092732D01*
X0101659Y0092788D01*
X0101701Y0092842D01*
X0101747Y0092893D01*
X0101796Y0092942D01*
X0101847Y0092988D01*
X0101901Y0093030D01*
X0101957Y0093070D01*
X0102015Y0093106D01*
X0102076Y0093138D01*
X0102138Y0093167D01*
X0102202Y0093193D01*
X0102267Y0093214D01*
X0102334Y0093232D01*
X0102401Y0093246D01*
X0102469Y0093256D01*
X0102537Y0093262D01*
X0102606Y0093264D01*
X0102675Y0093262D01*
X0102743Y0093256D01*
X0102811Y0093246D01*
X0102878Y0093232D01*
X0102945Y0093214D01*
X0103010Y0093193D01*
X0103074Y0093167D01*
X0103136Y0093138D01*
X0103196Y0093106D01*
X0103255Y0093070D01*
X0103311Y0093030D01*
X0103365Y0092988D01*
X0103416Y0092942D01*
X0103465Y0092893D01*
X0103511Y0092842D01*
X0103553Y0092788D01*
X0103593Y0092732D01*
X0103629Y0092673D01*
X0103661Y0092613D01*
X0103690Y0092551D01*
X0103716Y0092487D01*
X0103737Y0092422D01*
X0103755Y0092355D01*
X0103769Y0092288D01*
X0103779Y0092220D01*
X0103785Y0092152D01*
X0103787Y0092083D01*
X0103785Y0092014D01*
X0103779Y0091946D01*
X0103769Y0091878D01*
X0103755Y0091811D01*
X0103737Y0091744D01*
X0103716Y0091679D01*
X0103690Y0091615D01*
X0103661Y0091553D01*
X0103629Y0091492D01*
X0103593Y0091434D01*
X0103553Y0091378D01*
X0103511Y0091324D01*
X0103465Y0091273D01*
X0103416Y0091224D01*
X0103365Y0091178D01*
X0103311Y0091136D01*
X0103255Y0091096D01*
X0103197Y0091060D01*
X0103136Y0091028D01*
X0103074Y0090999D01*
X0103010Y0090973D01*
X0102945Y0090952D01*
X0102878Y0090934D01*
X0102811Y0090920D01*
X0102743Y0090910D01*
X0102675Y0090904D01*
X0102606Y0090902D01*
X0102537Y0090904D01*
X0102469Y0090910D01*
X0102401Y0090920D01*
X0102334Y0090934D01*
X0102267Y0090952D01*
X0102202Y0090973D01*
X0102138Y0090999D01*
X0102076Y0091028D01*
X0102015Y0091060D01*
X0101957Y0091096D01*
X0101901Y0091136D01*
X0101847Y0091178D01*
X0101796Y0091224D01*
X0101747Y0091273D01*
X0101701Y0091324D01*
X0101659Y0091378D01*
X0101619Y0091434D01*
X0101583Y0091492D01*
X0101551Y0091553D01*
X0101522Y0091615D01*
X0101496Y0091679D01*
X0101475Y0091744D01*
X0101457Y0091811D01*
X0101443Y0091878D01*
X0101433Y0091946D01*
X0101427Y0092014D01*
X0101425Y0092083D01*
D11*
X0071439Y0091073D02*
X0070705Y0091807D01*
X0070705Y0089606D01*
X0071439Y0089606D02*
X0069971Y0089606D01*
X0069229Y0089972D02*
X0067761Y0091440D01*
X0067761Y0089972D01*
X0068128Y0089606D01*
X0068862Y0089606D01*
X0069229Y0089972D01*
X0069229Y0091440D01*
X0068862Y0091807D01*
X0068128Y0091807D01*
X0067761Y0091440D01*
X0067019Y0091807D02*
X0067019Y0089606D01*
X0067019Y0090339D02*
X0065551Y0091807D01*
X0066652Y0090706D02*
X0065551Y0089606D01*
X0065793Y0083776D02*
X0065793Y0081574D01*
X0065051Y0081941D02*
X0064684Y0081574D01*
X0063950Y0081574D01*
X0063583Y0081941D01*
X0063583Y0082308D01*
X0063950Y0082675D01*
X0064317Y0082675D01*
X0063950Y0082675D02*
X0063583Y0083042D01*
X0063583Y0083409D01*
X0063950Y0083776D01*
X0064684Y0083776D01*
X0065051Y0083409D01*
X0065793Y0083776D02*
X0066527Y0083042D01*
X0067261Y0083776D01*
X0067261Y0081574D01*
X0068003Y0081574D02*
X0068003Y0083776D01*
X0069471Y0083776D02*
X0069471Y0081574D01*
X0068737Y0082308D01*
X0068003Y0081574D01*
X0070213Y0082675D02*
X0070580Y0082308D01*
X0071680Y0082308D01*
X0071680Y0081574D02*
X0071680Y0083776D01*
X0070580Y0083776D01*
X0070213Y0083409D01*
X0070213Y0082675D01*
X0048232Y0085128D02*
X0048234Y0085203D01*
X0048240Y0085277D01*
X0048250Y0085351D01*
X0048264Y0085424D01*
X0048281Y0085496D01*
X0048303Y0085568D01*
X0048328Y0085638D01*
X0048357Y0085706D01*
X0048390Y0085774D01*
X0048426Y0085839D01*
X0048465Y0085902D01*
X0048508Y0085963D01*
X0048554Y0086022D01*
X0048603Y0086078D01*
X0048655Y0086131D01*
X0048710Y0086182D01*
X0048767Y0086229D01*
X0048827Y0086274D01*
X0048889Y0086315D01*
X0048954Y0086353D01*
X0049020Y0086387D01*
X0049088Y0086418D01*
X0049157Y0086445D01*
X0049228Y0086468D01*
X0049300Y0086488D01*
X0049373Y0086504D01*
X0049446Y0086516D01*
X0049520Y0086524D01*
X0049595Y0086528D01*
X0049669Y0086528D01*
X0049744Y0086524D01*
X0049818Y0086516D01*
X0049891Y0086504D01*
X0049964Y0086488D01*
X0050036Y0086468D01*
X0050107Y0086445D01*
X0050176Y0086418D01*
X0050244Y0086387D01*
X0050310Y0086353D01*
X0050375Y0086315D01*
X0050437Y0086274D01*
X0050497Y0086229D01*
X0050554Y0086182D01*
X0050609Y0086131D01*
X0050661Y0086078D01*
X0050710Y0086022D01*
X0050756Y0085963D01*
X0050799Y0085902D01*
X0050838Y0085839D01*
X0050874Y0085774D01*
X0050907Y0085706D01*
X0050936Y0085638D01*
X0050961Y0085568D01*
X0050983Y0085496D01*
X0051000Y0085424D01*
X0051014Y0085351D01*
X0051024Y0085277D01*
X0051030Y0085203D01*
X0051032Y0085128D01*
X0051030Y0085053D01*
X0051024Y0084979D01*
X0051014Y0084905D01*
X0051000Y0084832D01*
X0050983Y0084760D01*
X0050961Y0084688D01*
X0050936Y0084618D01*
X0050907Y0084550D01*
X0050874Y0084482D01*
X0050838Y0084417D01*
X0050799Y0084354D01*
X0050756Y0084293D01*
X0050710Y0084234D01*
X0050661Y0084178D01*
X0050609Y0084125D01*
X0050554Y0084074D01*
X0050497Y0084027D01*
X0050437Y0083982D01*
X0050375Y0083941D01*
X0050310Y0083903D01*
X0050244Y0083869D01*
X0050176Y0083838D01*
X0050107Y0083811D01*
X0050036Y0083788D01*
X0049964Y0083768D01*
X0049891Y0083752D01*
X0049818Y0083740D01*
X0049744Y0083732D01*
X0049669Y0083728D01*
X0049595Y0083728D01*
X0049520Y0083732D01*
X0049446Y0083740D01*
X0049373Y0083752D01*
X0049300Y0083768D01*
X0049228Y0083788D01*
X0049157Y0083811D01*
X0049088Y0083838D01*
X0049020Y0083869D01*
X0048954Y0083903D01*
X0048889Y0083941D01*
X0048827Y0083982D01*
X0048767Y0084027D01*
X0048710Y0084074D01*
X0048655Y0084125D01*
X0048603Y0084178D01*
X0048554Y0084234D01*
X0048508Y0084293D01*
X0048465Y0084354D01*
X0048426Y0084417D01*
X0048390Y0084482D01*
X0048357Y0084550D01*
X0048328Y0084618D01*
X0048303Y0084688D01*
X0048281Y0084760D01*
X0048264Y0084832D01*
X0048250Y0084905D01*
X0048240Y0084979D01*
X0048234Y0085053D01*
X0048232Y0085128D01*
X0048328Y0088878D02*
X0047594Y0088878D01*
X0047227Y0089245D01*
X0046485Y0088878D02*
X0046485Y0091079D01*
X0047227Y0090712D02*
X0047594Y0091079D01*
X0048328Y0091079D01*
X0048695Y0090712D01*
X0048695Y0089245D01*
X0048328Y0088878D01*
X0046485Y0089978D02*
X0045017Y0089978D01*
X0044276Y0089978D02*
X0042808Y0089978D01*
X0042808Y0090345D02*
X0042808Y0088878D01*
X0042066Y0088878D02*
X0042066Y0091079D01*
X0040598Y0088878D01*
X0040598Y0091079D01*
X0039856Y0090712D02*
X0039489Y0091079D01*
X0038755Y0091079D01*
X0038388Y0090712D01*
X0038388Y0090345D01*
X0038755Y0089978D01*
X0038388Y0089612D01*
X0038388Y0089245D01*
X0038755Y0088878D01*
X0039489Y0088878D01*
X0039856Y0089245D01*
X0039122Y0089978D02*
X0038755Y0089978D01*
X0042808Y0090345D02*
X0043542Y0091079D01*
X0044276Y0090345D01*
X0044276Y0088878D01*
X0045017Y0088878D02*
X0045017Y0091079D01*
X0044722Y0052515D02*
X0044722Y0052148D01*
X0044722Y0051414D02*
X0044722Y0049946D01*
X0045088Y0049946D02*
X0044355Y0049946D01*
X0043615Y0049946D02*
X0043615Y0051414D01*
X0043248Y0051414D01*
X0042881Y0051047D01*
X0042514Y0051414D01*
X0042147Y0051047D01*
X0042147Y0049946D01*
X0042881Y0049946D02*
X0042881Y0051047D01*
X0041405Y0051414D02*
X0041038Y0051414D01*
X0040671Y0051047D01*
X0040304Y0051414D01*
X0039937Y0051047D01*
X0039937Y0049946D01*
X0040671Y0049946D02*
X0040671Y0051047D01*
X0041405Y0051414D02*
X0041405Y0049946D01*
X0041778Y0047814D02*
X0042145Y0047814D01*
X0042879Y0047080D01*
X0042879Y0046346D02*
X0042879Y0047814D01*
X0043621Y0047447D02*
X0045088Y0047447D01*
X0045830Y0047080D02*
X0046197Y0047447D01*
X0047298Y0047447D01*
X0048040Y0047447D02*
X0048774Y0047447D01*
X0048040Y0047447D02*
X0048040Y0046713D01*
X0048407Y0046346D01*
X0049141Y0046346D01*
X0049508Y0046713D01*
X0049508Y0048181D01*
X0049141Y0048548D01*
X0048407Y0048548D01*
X0048040Y0048181D01*
X0047298Y0048548D02*
X0046197Y0048548D01*
X0045830Y0048181D01*
X0045830Y0047814D01*
X0046197Y0047447D01*
X0045830Y0047080D02*
X0045830Y0046713D01*
X0046197Y0046346D01*
X0047298Y0046346D01*
X0047298Y0048548D01*
X0047298Y0049946D02*
X0046197Y0049946D01*
X0045830Y0050313D01*
X0045830Y0051781D01*
X0046197Y0052148D01*
X0047298Y0052148D01*
X0047298Y0049946D01*
X0045088Y0051414D02*
X0044722Y0051414D01*
X0041037Y0047447D02*
X0040670Y0047814D01*
X0039936Y0047814D01*
X0039569Y0047447D01*
X0039569Y0047080D01*
X0041037Y0047080D01*
X0041037Y0046713D02*
X0041037Y0047447D01*
X0041037Y0046713D02*
X0040670Y0046346D01*
X0039936Y0046346D01*
X0038827Y0046713D02*
X0038460Y0047080D01*
X0037359Y0047080D01*
X0037359Y0047447D02*
X0037359Y0046346D01*
X0038460Y0046346D01*
X0038827Y0046713D01*
X0038460Y0047814D02*
X0037726Y0047814D01*
X0037359Y0047447D01*
X0036617Y0047447D02*
X0036617Y0046713D01*
X0036250Y0046346D01*
X0035149Y0046346D01*
X0035149Y0048548D01*
X0035149Y0047814D02*
X0036250Y0047814D01*
X0036617Y0047447D01*
X0034407Y0047814D02*
X0034407Y0046713D01*
X0034040Y0046346D01*
X0032939Y0046346D01*
X0032939Y0045979D02*
X0033306Y0045612D01*
X0033673Y0045612D01*
X0032939Y0045979D02*
X0032939Y0047814D01*
X0036986Y0049946D02*
X0036986Y0051414D01*
X0036986Y0050680D02*
X0036252Y0051414D01*
X0035885Y0051414D01*
X0037728Y0051047D02*
X0037728Y0050680D01*
X0039195Y0050680D01*
X0039195Y0050313D02*
X0039195Y0051047D01*
X0038828Y0051414D01*
X0038095Y0051414D01*
X0037728Y0051047D01*
X0038095Y0049946D02*
X0038828Y0049946D01*
X0039195Y0050313D01*
X0050250Y0050313D02*
X0050250Y0051781D01*
X0050617Y0052148D01*
X0051718Y0052148D01*
X0051718Y0049946D01*
X0050617Y0049946D01*
X0050250Y0050313D01*
X0050617Y0048548D02*
X0050250Y0048181D01*
X0050250Y0047447D01*
X0050617Y0047080D01*
X0051718Y0047080D01*
X0051718Y0046346D02*
X0051718Y0048548D01*
X0050617Y0048548D01*
X0050984Y0047080D02*
X0050250Y0046346D01*
X0052460Y0049946D02*
X0053928Y0049946D01*
X0053928Y0052148D01*
X0052460Y0052148D01*
X0053194Y0051047D02*
X0053928Y0051047D01*
X0054670Y0049946D02*
X0056138Y0049946D01*
X0056138Y0052148D01*
X0059087Y0049946D02*
X0059821Y0049946D01*
X0059454Y0049946D02*
X0059454Y0051414D01*
X0059821Y0051414D01*
X0059454Y0052148D02*
X0059454Y0052515D01*
X0060563Y0052148D02*
X0062031Y0052148D01*
X0062031Y0049946D01*
X0062770Y0049946D02*
X0063504Y0049946D01*
X0063137Y0049946D02*
X0063137Y0051414D01*
X0063504Y0051414D01*
X0063137Y0052148D02*
X0063137Y0052515D01*
X0064246Y0052148D02*
X0064246Y0049946D01*
X0064980Y0050680D01*
X0065714Y0049946D01*
X0065714Y0052148D01*
X0068666Y0051781D02*
X0068666Y0051047D01*
X0069033Y0050680D01*
X0070134Y0050680D01*
X0070134Y0049946D02*
X0070134Y0052148D01*
X0069033Y0052148D01*
X0068666Y0051781D01*
X0070876Y0051781D02*
X0071243Y0052148D01*
X0071977Y0052148D01*
X0072344Y0051781D01*
X0072344Y0051414D01*
X0071977Y0051047D01*
X0071243Y0051047D01*
X0070876Y0050680D01*
X0070876Y0050313D01*
X0071243Y0049946D01*
X0071977Y0049946D01*
X0072344Y0050313D01*
X0073086Y0049946D02*
X0074554Y0049946D01*
X0074554Y0052148D01*
X0073086Y0052148D01*
X0073820Y0051047D02*
X0074554Y0051047D01*
X0074187Y0048548D02*
X0073453Y0048548D01*
X0073086Y0048181D01*
X0073086Y0047814D01*
X0073453Y0047447D01*
X0073086Y0047080D01*
X0073086Y0046713D01*
X0073453Y0046346D01*
X0074187Y0046346D01*
X0074554Y0046713D01*
X0073820Y0047447D02*
X0073453Y0047447D01*
X0074554Y0048181D02*
X0074187Y0048548D01*
X0070134Y0047447D02*
X0070134Y0046713D01*
X0069767Y0046346D01*
X0068666Y0046346D01*
X0067924Y0046346D02*
X0067924Y0048548D01*
X0067557Y0047814D02*
X0067924Y0047447D01*
X0067557Y0047814D02*
X0066823Y0047814D01*
X0066456Y0047447D01*
X0066456Y0046346D01*
X0065714Y0046713D02*
X0065347Y0047080D01*
X0064246Y0047080D01*
X0064246Y0047447D02*
X0064246Y0046346D01*
X0065347Y0046346D01*
X0065714Y0046713D01*
X0065347Y0047814D02*
X0064613Y0047814D01*
X0064246Y0047447D01*
X0063504Y0047814D02*
X0063504Y0046346D01*
X0062036Y0046346D02*
X0062036Y0047447D01*
X0062403Y0047814D01*
X0063504Y0047814D01*
X0061294Y0047814D02*
X0061294Y0046346D01*
X0059826Y0046346D02*
X0059826Y0047447D01*
X0060193Y0047814D01*
X0061294Y0047814D01*
X0059084Y0047447D02*
X0059084Y0046713D01*
X0058717Y0046346D01*
X0057983Y0046346D01*
X0057616Y0047080D02*
X0059084Y0047080D01*
X0059084Y0047447D02*
X0058717Y0047814D01*
X0057983Y0047814D01*
X0057616Y0047447D01*
X0057616Y0047080D01*
X0056875Y0046346D02*
X0056141Y0046346D01*
X0056508Y0046346D02*
X0056508Y0048548D01*
X0056875Y0048548D01*
X0055034Y0046713D02*
X0055034Y0046346D01*
X0054667Y0046346D01*
X0054667Y0046713D01*
X0055034Y0046713D01*
X0054667Y0046346D02*
X0055401Y0045612D01*
X0059824Y0041348D02*
X0059824Y0039146D01*
X0060558Y0039146D02*
X0059090Y0039146D01*
X0060558Y0040614D02*
X0059824Y0041348D01*
X0061300Y0040614D02*
X0062034Y0039146D01*
X0062768Y0040614D01*
X0063509Y0040247D02*
X0063509Y0039880D01*
X0064977Y0039880D01*
X0064977Y0039513D02*
X0064977Y0040247D01*
X0064610Y0040614D01*
X0063876Y0040614D01*
X0063509Y0040247D01*
X0063876Y0039146D02*
X0064610Y0039146D01*
X0064977Y0039513D01*
X0065718Y0040614D02*
X0066085Y0040614D01*
X0066819Y0039880D01*
X0066819Y0039146D02*
X0066819Y0040614D01*
X0067561Y0040981D02*
X0069029Y0039513D01*
X0068662Y0039146D01*
X0067928Y0039146D01*
X0067561Y0039513D01*
X0067561Y0040981D01*
X0067928Y0041348D01*
X0068662Y0041348D01*
X0069029Y0040981D01*
X0069029Y0039513D01*
X0069767Y0039513D02*
X0069767Y0039146D01*
X0070134Y0039146D01*
X0070134Y0039513D01*
X0069767Y0039513D01*
X0070876Y0039146D02*
X0072344Y0039146D01*
X0070876Y0040614D01*
X0070876Y0040981D01*
X0071243Y0041348D01*
X0071977Y0041348D01*
X0072344Y0040981D01*
X0073086Y0040614D02*
X0073820Y0039146D01*
X0074554Y0040614D01*
X0071977Y0034515D02*
X0071977Y0034148D01*
X0071977Y0033414D02*
X0071977Y0031946D01*
X0072344Y0031946D02*
X0071610Y0031946D01*
X0070503Y0032313D02*
X0070136Y0031946D01*
X0070503Y0032313D02*
X0070503Y0033781D01*
X0070870Y0033414D02*
X0070136Y0033414D01*
X0069397Y0033047D02*
X0069030Y0033414D01*
X0068296Y0033414D01*
X0067929Y0033047D01*
X0067929Y0031946D01*
X0067187Y0032313D02*
X0067187Y0033414D01*
X0067187Y0032313D02*
X0066820Y0031946D01*
X0065719Y0031946D01*
X0065719Y0033414D01*
X0064977Y0033414D02*
X0063876Y0033414D01*
X0063509Y0033047D01*
X0063509Y0032313D01*
X0063876Y0031946D01*
X0064977Y0031946D01*
X0064977Y0034148D01*
X0062768Y0032313D02*
X0062401Y0032313D01*
X0062401Y0031946D01*
X0062768Y0031946D01*
X0062768Y0032313D01*
X0061663Y0032313D02*
X0061296Y0031946D01*
X0060195Y0031946D01*
X0059453Y0032313D02*
X0059086Y0031946D01*
X0058352Y0031946D01*
X0057985Y0032313D01*
X0057985Y0033047D01*
X0058352Y0033414D01*
X0059086Y0033414D01*
X0059453Y0033047D01*
X0059453Y0032313D01*
X0060195Y0033414D02*
X0061296Y0033414D01*
X0061663Y0033047D01*
X0061663Y0032313D01*
X0057243Y0031946D02*
X0057243Y0033414D01*
X0056876Y0033414D01*
X0056509Y0033047D01*
X0056142Y0033414D01*
X0055775Y0033047D01*
X0055775Y0031946D01*
X0056509Y0031946D02*
X0056509Y0033047D01*
X0055033Y0031946D02*
X0053565Y0034148D01*
X0052823Y0033414D02*
X0052089Y0033414D01*
X0052456Y0033781D02*
X0052456Y0032313D01*
X0052089Y0031946D01*
X0051350Y0031212D02*
X0050983Y0031212D01*
X0050616Y0031579D01*
X0050616Y0033414D01*
X0050616Y0034148D02*
X0050616Y0034515D01*
X0049510Y0033414D02*
X0049877Y0033047D01*
X0049877Y0032313D01*
X0049510Y0031946D01*
X0048409Y0031946D01*
X0047667Y0031946D02*
X0046933Y0031946D01*
X0047300Y0031946D02*
X0047300Y0034148D01*
X0047667Y0034148D01*
X0048409Y0033414D02*
X0049510Y0033414D01*
X0046193Y0033047D02*
X0045826Y0033414D01*
X0045092Y0033414D01*
X0044726Y0033047D01*
X0044726Y0032680D01*
X0046193Y0032680D01*
X0046193Y0032313D02*
X0046193Y0033047D01*
X0046193Y0032313D02*
X0045826Y0031946D01*
X0045092Y0031946D01*
X0043984Y0031946D02*
X0043984Y0033414D01*
X0043617Y0033414D01*
X0043250Y0033047D01*
X0042883Y0033414D01*
X0042516Y0033047D01*
X0042516Y0031946D01*
X0043250Y0031946D02*
X0043250Y0033047D01*
X0041774Y0033047D02*
X0041407Y0033414D01*
X0040673Y0033414D01*
X0040306Y0033047D01*
X0040306Y0032680D01*
X0041774Y0032680D01*
X0041774Y0032313D02*
X0041774Y0033047D01*
X0041774Y0032313D02*
X0041407Y0031946D01*
X0040673Y0031946D01*
X0039564Y0031946D02*
X0039564Y0033414D01*
X0038463Y0033414D01*
X0038096Y0033047D01*
X0038096Y0031946D01*
X0036987Y0032313D02*
X0036620Y0031946D01*
X0036987Y0032313D02*
X0036987Y0033781D01*
X0037354Y0033414D02*
X0036620Y0033414D01*
X0061297Y0051047D02*
X0062031Y0051047D01*
X0068666Y0047814D02*
X0069767Y0047814D01*
X0070134Y0047447D01*
X0069397Y0034148D02*
X0069397Y0031946D01*
X0071977Y0033414D02*
X0072344Y0033414D01*
X0073086Y0033414D02*
X0074187Y0033414D01*
X0074554Y0033047D01*
X0074554Y0032313D01*
X0074187Y0031946D01*
X0073086Y0031946D01*
X0073086Y0031579D02*
X0073086Y0033414D01*
X0073086Y0031579D02*
X0073453Y0031212D01*
X0073820Y0031212D01*
X0132152Y0045979D02*
X0132519Y0045612D01*
X0132886Y0045612D01*
X0132152Y0045979D02*
X0132152Y0047814D01*
X0132152Y0046346D02*
X0133253Y0046346D01*
X0133620Y0046713D01*
X0133620Y0047814D01*
X0134362Y0047814D02*
X0135463Y0047814D01*
X0135830Y0047447D01*
X0135830Y0046713D01*
X0135463Y0046346D01*
X0134362Y0046346D01*
X0134362Y0048548D01*
X0136198Y0049946D02*
X0136198Y0051414D01*
X0136198Y0050680D02*
X0135464Y0051414D01*
X0135097Y0051414D01*
X0136940Y0051047D02*
X0136940Y0050680D01*
X0138408Y0050680D01*
X0138408Y0050313D02*
X0138408Y0051047D01*
X0138041Y0051414D01*
X0137307Y0051414D01*
X0136940Y0051047D01*
X0137307Y0049946D02*
X0138041Y0049946D01*
X0138408Y0050313D01*
X0139150Y0049946D02*
X0139150Y0051047D01*
X0139517Y0051414D01*
X0139884Y0051047D01*
X0139884Y0049946D01*
X0140618Y0049946D02*
X0140618Y0051414D01*
X0140251Y0051414D01*
X0139884Y0051047D01*
X0141360Y0051047D02*
X0141360Y0049946D01*
X0142094Y0049946D02*
X0142094Y0051047D01*
X0141727Y0051414D01*
X0141360Y0051047D01*
X0142094Y0051047D02*
X0142461Y0051414D01*
X0142828Y0051414D01*
X0142828Y0049946D01*
X0143567Y0049946D02*
X0144301Y0049946D01*
X0143934Y0049946D02*
X0143934Y0051414D01*
X0144301Y0051414D01*
X0143934Y0052148D02*
X0143934Y0052515D01*
X0145043Y0051781D02*
X0145410Y0052148D01*
X0146511Y0052148D01*
X0146511Y0049946D01*
X0145410Y0049946D01*
X0145043Y0050313D01*
X0145043Y0051781D01*
X0145410Y0048548D02*
X0145043Y0048181D01*
X0145043Y0047814D01*
X0145410Y0047447D01*
X0146511Y0047447D01*
X0147253Y0047447D02*
X0147987Y0047447D01*
X0147253Y0047447D02*
X0147253Y0046713D01*
X0147620Y0046346D01*
X0148354Y0046346D01*
X0148721Y0046713D01*
X0148721Y0048181D01*
X0148354Y0048548D01*
X0147620Y0048548D01*
X0147253Y0048181D01*
X0146511Y0048548D02*
X0145410Y0048548D01*
X0145410Y0047447D02*
X0145043Y0047080D01*
X0145043Y0046713D01*
X0145410Y0046346D01*
X0146511Y0046346D01*
X0146511Y0048548D01*
X0144301Y0047447D02*
X0142833Y0047447D01*
X0142091Y0047080D02*
X0141357Y0047814D01*
X0140990Y0047814D01*
X0140250Y0047447D02*
X0139883Y0047814D01*
X0139149Y0047814D01*
X0138782Y0047447D01*
X0138782Y0047080D01*
X0140250Y0047080D01*
X0140250Y0046713D02*
X0140250Y0047447D01*
X0140250Y0046713D02*
X0139883Y0046346D01*
X0139149Y0046346D01*
X0138040Y0046713D02*
X0137673Y0047080D01*
X0136572Y0047080D01*
X0136572Y0047447D02*
X0136572Y0046346D01*
X0137673Y0046346D01*
X0138040Y0046713D01*
X0137673Y0047814D02*
X0136939Y0047814D01*
X0136572Y0047447D01*
X0142091Y0047814D02*
X0142091Y0046346D01*
X0149463Y0046346D02*
X0150197Y0047080D01*
X0149830Y0047080D02*
X0150931Y0047080D01*
X0150931Y0046346D02*
X0150931Y0048548D01*
X0149830Y0048548D01*
X0149463Y0048181D01*
X0149463Y0047447D01*
X0149830Y0047080D01*
X0149830Y0049946D02*
X0149463Y0050313D01*
X0149463Y0051781D01*
X0149830Y0052148D01*
X0150931Y0052148D01*
X0150931Y0049946D01*
X0149830Y0049946D01*
X0151673Y0049946D02*
X0153141Y0049946D01*
X0153141Y0052148D01*
X0151673Y0052148D01*
X0152407Y0051047D02*
X0153141Y0051047D01*
X0153883Y0049946D02*
X0155350Y0049946D01*
X0155350Y0052148D01*
X0158667Y0052148D02*
X0158667Y0052515D01*
X0158667Y0051414D02*
X0158667Y0049946D01*
X0159034Y0049946D02*
X0158300Y0049946D01*
X0158667Y0051414D02*
X0159034Y0051414D01*
X0159776Y0052148D02*
X0161243Y0052148D01*
X0161243Y0049946D01*
X0161983Y0049946D02*
X0162717Y0049946D01*
X0162350Y0049946D02*
X0162350Y0051414D01*
X0162717Y0051414D01*
X0162350Y0052148D02*
X0162350Y0052515D01*
X0163459Y0052148D02*
X0163459Y0049946D01*
X0164193Y0050680D01*
X0164927Y0049946D01*
X0164927Y0052148D01*
X0167878Y0051781D02*
X0167878Y0051047D01*
X0168245Y0050680D01*
X0169346Y0050680D01*
X0169346Y0049946D02*
X0169346Y0052148D01*
X0168245Y0052148D01*
X0167878Y0051781D01*
X0170088Y0051781D02*
X0170455Y0052148D01*
X0171189Y0052148D01*
X0171556Y0051781D01*
X0171556Y0051414D01*
X0171189Y0051047D01*
X0170455Y0051047D01*
X0170088Y0050680D01*
X0170088Y0050313D01*
X0170455Y0049946D01*
X0171189Y0049946D01*
X0171556Y0050313D01*
X0172298Y0049946D02*
X0173766Y0049946D01*
X0173766Y0052148D01*
X0172298Y0052148D01*
X0173032Y0051047D02*
X0173766Y0051047D01*
X0173399Y0048548D02*
X0172665Y0048548D01*
X0172298Y0048181D01*
X0172298Y0047814D01*
X0172665Y0047447D01*
X0172298Y0047080D01*
X0172298Y0046713D01*
X0172665Y0046346D01*
X0173399Y0046346D01*
X0173766Y0046713D01*
X0173032Y0047447D02*
X0172665Y0047447D01*
X0173766Y0048181D02*
X0173399Y0048548D01*
X0169346Y0047447D02*
X0169346Y0046713D01*
X0168979Y0046346D01*
X0167878Y0046346D01*
X0167137Y0046346D02*
X0167137Y0048548D01*
X0166770Y0047814D02*
X0166036Y0047814D01*
X0165669Y0047447D01*
X0165669Y0046346D01*
X0164927Y0046713D02*
X0164560Y0047080D01*
X0163459Y0047080D01*
X0163459Y0047447D02*
X0163459Y0046346D01*
X0164560Y0046346D01*
X0164927Y0046713D01*
X0164560Y0047814D02*
X0163826Y0047814D01*
X0163459Y0047447D01*
X0162717Y0047814D02*
X0161616Y0047814D01*
X0161249Y0047447D01*
X0161249Y0046346D01*
X0160507Y0046346D02*
X0160507Y0047814D01*
X0159406Y0047814D01*
X0159039Y0047447D01*
X0159039Y0046346D01*
X0158297Y0046713D02*
X0158297Y0047447D01*
X0157930Y0047814D01*
X0157196Y0047814D01*
X0156829Y0047447D01*
X0156829Y0047080D01*
X0158297Y0047080D01*
X0158297Y0046713D02*
X0157930Y0046346D01*
X0157196Y0046346D01*
X0156087Y0046346D02*
X0155353Y0046346D01*
X0155720Y0046346D02*
X0155720Y0048548D01*
X0156087Y0048548D01*
X0154247Y0046713D02*
X0154247Y0046346D01*
X0153880Y0046346D01*
X0153880Y0046713D01*
X0154247Y0046713D01*
X0153880Y0046346D02*
X0154614Y0045612D01*
X0159036Y0041348D02*
X0159036Y0039146D01*
X0159770Y0039146D02*
X0158302Y0039146D01*
X0159770Y0040614D02*
X0159036Y0041348D01*
X0160512Y0040614D02*
X0161246Y0039146D01*
X0161980Y0040614D01*
X0162722Y0040247D02*
X0162722Y0039880D01*
X0164190Y0039880D01*
X0164190Y0039513D02*
X0164190Y0040247D01*
X0163823Y0040614D01*
X0163089Y0040614D01*
X0162722Y0040247D01*
X0163089Y0039146D02*
X0163823Y0039146D01*
X0164190Y0039513D01*
X0164931Y0040614D02*
X0165298Y0040614D01*
X0166032Y0039880D01*
X0166032Y0039146D02*
X0166032Y0040614D01*
X0166774Y0040981D02*
X0168241Y0039513D01*
X0167874Y0039146D01*
X0167141Y0039146D01*
X0166774Y0039513D01*
X0166774Y0040981D01*
X0167141Y0041348D01*
X0167874Y0041348D01*
X0168241Y0040981D01*
X0168241Y0039513D01*
X0168979Y0039513D02*
X0168979Y0039146D01*
X0169346Y0039146D01*
X0169346Y0039513D01*
X0168979Y0039513D01*
X0170088Y0039146D02*
X0171556Y0039146D01*
X0170088Y0040614D01*
X0170088Y0040981D01*
X0170455Y0041348D01*
X0171189Y0041348D01*
X0171556Y0040981D01*
X0172298Y0040614D02*
X0173032Y0039146D01*
X0173766Y0040614D01*
X0171189Y0034515D02*
X0171189Y0034148D01*
X0171189Y0033414D02*
X0171189Y0031946D01*
X0171556Y0031946D02*
X0170822Y0031946D01*
X0169716Y0032313D02*
X0169716Y0033781D01*
X0170083Y0033414D02*
X0169349Y0033414D01*
X0168610Y0033047D02*
X0168243Y0033414D01*
X0167509Y0033414D01*
X0167142Y0033047D01*
X0167142Y0031946D01*
X0166400Y0032313D02*
X0166033Y0031946D01*
X0164932Y0031946D01*
X0164932Y0033414D01*
X0164190Y0033414D02*
X0163089Y0033414D01*
X0162722Y0033047D01*
X0162722Y0032313D01*
X0163089Y0031946D01*
X0164190Y0031946D01*
X0164190Y0034148D01*
X0166400Y0033414D02*
X0166400Y0032313D01*
X0168610Y0031946D02*
X0168610Y0034148D01*
X0169716Y0032313D02*
X0169349Y0031946D01*
X0171189Y0033414D02*
X0171556Y0033414D01*
X0172298Y0033414D02*
X0172298Y0031579D01*
X0172665Y0031212D01*
X0173032Y0031212D01*
X0173399Y0031946D02*
X0172298Y0031946D01*
X0173399Y0031946D02*
X0173766Y0032313D01*
X0173766Y0033047D01*
X0173399Y0033414D01*
X0172298Y0033414D01*
X0161980Y0032313D02*
X0161613Y0032313D01*
X0161613Y0031946D01*
X0161980Y0031946D01*
X0161980Y0032313D01*
X0160875Y0032313D02*
X0160508Y0031946D01*
X0159407Y0031946D01*
X0158665Y0032313D02*
X0158298Y0031946D01*
X0157564Y0031946D01*
X0157197Y0032313D01*
X0157197Y0033047D01*
X0157564Y0033414D01*
X0158298Y0033414D01*
X0158665Y0033047D01*
X0158665Y0032313D01*
X0159407Y0033414D02*
X0160508Y0033414D01*
X0160875Y0033047D01*
X0160875Y0032313D01*
X0156455Y0031946D02*
X0156455Y0033414D01*
X0156088Y0033414D01*
X0155721Y0033047D01*
X0155354Y0033414D01*
X0154988Y0033047D01*
X0154988Y0031946D01*
X0155721Y0031946D02*
X0155721Y0033047D01*
X0154246Y0031946D02*
X0152778Y0034148D01*
X0152036Y0033414D02*
X0151302Y0033414D01*
X0151669Y0033781D02*
X0151669Y0032313D01*
X0151302Y0031946D01*
X0150562Y0031212D02*
X0150195Y0031212D01*
X0149828Y0031579D01*
X0149828Y0033414D01*
X0149828Y0034148D02*
X0149828Y0034515D01*
X0148722Y0033414D02*
X0149089Y0033047D01*
X0149089Y0032313D01*
X0148722Y0031946D01*
X0147621Y0031946D01*
X0146879Y0031946D02*
X0146145Y0031946D01*
X0146512Y0031946D02*
X0146512Y0034148D01*
X0146879Y0034148D01*
X0147621Y0033414D02*
X0148722Y0033414D01*
X0145406Y0033047D02*
X0145039Y0033414D01*
X0144305Y0033414D01*
X0143938Y0033047D01*
X0143938Y0032680D01*
X0145406Y0032680D01*
X0145406Y0032313D02*
X0145406Y0033047D01*
X0145406Y0032313D02*
X0145039Y0031946D01*
X0144305Y0031946D01*
X0143196Y0031946D02*
X0143196Y0033414D01*
X0142829Y0033414D01*
X0142462Y0033047D01*
X0142095Y0033414D01*
X0141728Y0033047D01*
X0141728Y0031946D01*
X0142462Y0031946D02*
X0142462Y0033047D01*
X0140986Y0033047D02*
X0140619Y0033414D01*
X0139885Y0033414D01*
X0139518Y0033047D01*
X0139518Y0032680D01*
X0140986Y0032680D01*
X0140986Y0032313D02*
X0140986Y0033047D01*
X0140986Y0032313D02*
X0140619Y0031946D01*
X0139885Y0031946D01*
X0138776Y0031946D02*
X0138776Y0033414D01*
X0137675Y0033414D01*
X0137308Y0033047D01*
X0137308Y0031946D01*
X0136200Y0032313D02*
X0136200Y0033781D01*
X0136567Y0033414D02*
X0135833Y0033414D01*
X0136200Y0032313D02*
X0135833Y0031946D01*
X0160510Y0051047D02*
X0161243Y0051047D01*
X0162717Y0047814D02*
X0162717Y0046346D01*
X0166770Y0047814D02*
X0167137Y0047447D01*
X0167878Y0047814D02*
X0168979Y0047814D01*
X0169346Y0047447D01*
X0166473Y0081207D02*
X0165005Y0081207D01*
X0164263Y0081941D02*
X0163896Y0081574D01*
X0163163Y0081574D01*
X0162796Y0081941D01*
X0162796Y0082308D01*
X0163163Y0082675D01*
X0163530Y0082675D01*
X0163163Y0082675D02*
X0162796Y0083042D01*
X0162796Y0083409D01*
X0163163Y0083776D01*
X0163896Y0083776D01*
X0164263Y0083409D01*
X0167215Y0083776D02*
X0167215Y0081574D01*
X0168683Y0081574D02*
X0168683Y0083776D01*
X0167949Y0083042D01*
X0167215Y0083776D01*
X0169425Y0083776D02*
X0169425Y0081574D01*
X0170159Y0082308D01*
X0170893Y0081574D01*
X0170893Y0083776D01*
X0171635Y0083409D02*
X0171635Y0082675D01*
X0172002Y0082308D01*
X0173103Y0082308D01*
X0173103Y0081574D02*
X0173103Y0083776D01*
X0172002Y0083776D01*
X0171635Y0083409D01*
X0170652Y0089606D02*
X0169184Y0089606D01*
X0169918Y0089606D02*
X0169918Y0091807D01*
X0170652Y0091073D01*
X0168442Y0091440D02*
X0168442Y0089972D01*
X0166974Y0091440D01*
X0166974Y0089972D01*
X0167341Y0089606D01*
X0168075Y0089606D01*
X0168442Y0089972D01*
X0168442Y0091440D02*
X0168075Y0091807D01*
X0167341Y0091807D01*
X0166974Y0091440D01*
X0166232Y0091807D02*
X0166232Y0089606D01*
X0166232Y0090339D02*
X0164764Y0091807D01*
X0165865Y0090706D02*
X0164764Y0089606D01*
X0147445Y0085128D02*
X0147447Y0085203D01*
X0147453Y0085277D01*
X0147463Y0085351D01*
X0147477Y0085424D01*
X0147494Y0085496D01*
X0147516Y0085568D01*
X0147541Y0085638D01*
X0147570Y0085706D01*
X0147603Y0085774D01*
X0147639Y0085839D01*
X0147678Y0085902D01*
X0147721Y0085963D01*
X0147767Y0086022D01*
X0147816Y0086078D01*
X0147868Y0086131D01*
X0147923Y0086182D01*
X0147980Y0086229D01*
X0148040Y0086274D01*
X0148102Y0086315D01*
X0148167Y0086353D01*
X0148233Y0086387D01*
X0148301Y0086418D01*
X0148370Y0086445D01*
X0148441Y0086468D01*
X0148513Y0086488D01*
X0148586Y0086504D01*
X0148659Y0086516D01*
X0148733Y0086524D01*
X0148808Y0086528D01*
X0148882Y0086528D01*
X0148957Y0086524D01*
X0149031Y0086516D01*
X0149104Y0086504D01*
X0149177Y0086488D01*
X0149249Y0086468D01*
X0149320Y0086445D01*
X0149389Y0086418D01*
X0149457Y0086387D01*
X0149523Y0086353D01*
X0149588Y0086315D01*
X0149650Y0086274D01*
X0149710Y0086229D01*
X0149767Y0086182D01*
X0149822Y0086131D01*
X0149874Y0086078D01*
X0149923Y0086022D01*
X0149969Y0085963D01*
X0150012Y0085902D01*
X0150051Y0085839D01*
X0150087Y0085774D01*
X0150120Y0085706D01*
X0150149Y0085638D01*
X0150174Y0085568D01*
X0150196Y0085496D01*
X0150213Y0085424D01*
X0150227Y0085351D01*
X0150237Y0085277D01*
X0150243Y0085203D01*
X0150245Y0085128D01*
X0150243Y0085053D01*
X0150237Y0084979D01*
X0150227Y0084905D01*
X0150213Y0084832D01*
X0150196Y0084760D01*
X0150174Y0084688D01*
X0150149Y0084618D01*
X0150120Y0084550D01*
X0150087Y0084482D01*
X0150051Y0084417D01*
X0150012Y0084354D01*
X0149969Y0084293D01*
X0149923Y0084234D01*
X0149874Y0084178D01*
X0149822Y0084125D01*
X0149767Y0084074D01*
X0149710Y0084027D01*
X0149650Y0083982D01*
X0149588Y0083941D01*
X0149523Y0083903D01*
X0149457Y0083869D01*
X0149389Y0083838D01*
X0149320Y0083811D01*
X0149249Y0083788D01*
X0149177Y0083768D01*
X0149104Y0083752D01*
X0149031Y0083740D01*
X0148957Y0083732D01*
X0148882Y0083728D01*
X0148808Y0083728D01*
X0148733Y0083732D01*
X0148659Y0083740D01*
X0148586Y0083752D01*
X0148513Y0083768D01*
X0148441Y0083788D01*
X0148370Y0083811D01*
X0148301Y0083838D01*
X0148233Y0083869D01*
X0148167Y0083903D01*
X0148102Y0083941D01*
X0148040Y0083982D01*
X0147980Y0084027D01*
X0147923Y0084074D01*
X0147868Y0084125D01*
X0147816Y0084178D01*
X0147767Y0084234D01*
X0147721Y0084293D01*
X0147678Y0084354D01*
X0147639Y0084417D01*
X0147603Y0084482D01*
X0147570Y0084550D01*
X0147541Y0084618D01*
X0147516Y0084688D01*
X0147494Y0084760D01*
X0147477Y0084832D01*
X0147463Y0084905D01*
X0147453Y0084979D01*
X0147447Y0085053D01*
X0147445Y0085128D01*
X0147541Y0088878D02*
X0146807Y0088878D01*
X0146440Y0089245D01*
X0145698Y0088878D02*
X0145698Y0091079D01*
X0146440Y0090712D02*
X0146807Y0091079D01*
X0147541Y0091079D01*
X0147908Y0090712D01*
X0147908Y0089245D01*
X0147541Y0088878D01*
X0145698Y0089978D02*
X0144230Y0089978D01*
X0143488Y0089978D02*
X0142020Y0089978D01*
X0142020Y0090345D02*
X0142020Y0088878D01*
X0141278Y0088878D02*
X0141278Y0091079D01*
X0139810Y0088878D01*
X0139810Y0091079D01*
X0142020Y0090345D02*
X0142754Y0091079D01*
X0143488Y0090345D01*
X0143488Y0088878D01*
X0144230Y0088878D02*
X0144230Y0091079D01*
X0139068Y0088511D02*
X0137600Y0088511D01*
X0136858Y0089245D02*
X0136491Y0088878D01*
X0135758Y0088878D01*
X0135391Y0089245D01*
X0135391Y0089612D01*
X0135758Y0089978D01*
X0136125Y0089978D01*
X0135758Y0089978D02*
X0135391Y0090345D01*
X0135391Y0090712D01*
X0135758Y0091079D01*
X0136491Y0091079D01*
X0136858Y0090712D01*
D12*
X0136845Y0087328D02*
X0151045Y0087328D01*
X0151045Y0068728D01*
X0136845Y0068728D01*
X0136845Y0087328D01*
X0119732Y0092319D02*
X0188236Y0092319D01*
X0188236Y0136413D01*
X0119732Y0136413D01*
X0119732Y0092319D01*
X0089024Y0092319D02*
X0089024Y0136413D01*
X0020520Y0136413D01*
X0020520Y0092319D01*
X0089024Y0092319D01*
X0051832Y0087328D02*
X0051832Y0068728D01*
X0037632Y0068728D01*
X0037632Y0087328D01*
X0051832Y0087328D01*
D13*
X0051907Y0127870D02*
X0050672Y0127870D01*
X0051290Y0127870D02*
X0051290Y0131574D01*
X0051907Y0131574D02*
X0050672Y0131574D01*
X0049451Y0131574D02*
X0046983Y0127870D01*
X0046983Y0131574D01*
X0045768Y0131574D02*
X0044534Y0131574D01*
X0045151Y0131574D02*
X0045151Y0127870D01*
X0045768Y0127870D02*
X0044534Y0127870D01*
X0043313Y0129722D02*
X0040844Y0129722D01*
X0039630Y0128488D02*
X0039012Y0127870D01*
X0037778Y0127870D01*
X0037161Y0128488D01*
X0037161Y0129105D01*
X0037778Y0129722D01*
X0038395Y0129722D01*
X0037778Y0129722D02*
X0037161Y0130339D01*
X0037161Y0130956D01*
X0037778Y0131574D01*
X0039012Y0131574D01*
X0039630Y0130956D01*
X0035946Y0129722D02*
X0035946Y0128488D01*
X0035329Y0127870D01*
X0034095Y0127870D01*
X0033478Y0128488D01*
X0033478Y0129105D01*
X0034095Y0129722D01*
X0035946Y0129722D01*
X0034712Y0130956D01*
X0033478Y0131574D01*
X0032263Y0130956D02*
X0031646Y0131574D01*
X0030412Y0131574D01*
X0029795Y0130956D01*
X0032263Y0128488D01*
X0031646Y0127870D01*
X0030412Y0127870D01*
X0029795Y0128488D01*
X0029795Y0130956D01*
X0032263Y0130956D02*
X0032263Y0128488D01*
X0049451Y0127870D02*
X0049451Y0131574D01*
X0053121Y0131574D02*
X0053121Y0127870D01*
X0054355Y0130339D02*
X0053121Y0131574D01*
X0054355Y0130339D02*
X0055590Y0131574D01*
X0055590Y0127870D01*
X0056804Y0129722D02*
X0059273Y0129722D01*
X0060487Y0130956D02*
X0060487Y0131574D01*
X0062956Y0131574D01*
X0064171Y0130956D02*
X0066639Y0128488D01*
X0066022Y0127870D01*
X0064788Y0127870D01*
X0064171Y0128488D01*
X0064171Y0130956D01*
X0064788Y0131574D01*
X0066022Y0131574D01*
X0066639Y0130956D01*
X0066639Y0128488D01*
X0067854Y0128488D02*
X0068471Y0127870D01*
X0069705Y0127870D01*
X0070322Y0128488D01*
X0071537Y0127870D02*
X0074006Y0127870D01*
X0071537Y0130339D01*
X0071537Y0130956D01*
X0072154Y0131574D01*
X0073388Y0131574D01*
X0074006Y0130956D01*
X0075220Y0130956D02*
X0075220Y0129722D01*
X0075837Y0129105D01*
X0077689Y0129105D01*
X0077689Y0127870D02*
X0077689Y0131574D01*
X0075837Y0131574D01*
X0075220Y0130956D01*
X0078903Y0131574D02*
X0078903Y0127870D01*
X0081372Y0127870D02*
X0081372Y0131574D01*
X0080137Y0130339D01*
X0078903Y0131574D01*
X0070322Y0130956D02*
X0069705Y0131574D01*
X0068471Y0131574D01*
X0067854Y0130956D01*
X0067854Y0130339D01*
X0068471Y0129722D01*
X0067854Y0129105D01*
X0067854Y0128488D01*
X0068471Y0129722D02*
X0069088Y0129722D01*
X0062956Y0128488D02*
X0062956Y0127870D01*
X0062956Y0128488D02*
X0060487Y0130956D01*
X0129007Y0130956D02*
X0129007Y0128488D01*
X0129624Y0127870D01*
X0130859Y0127870D01*
X0131476Y0128488D01*
X0129007Y0130956D01*
X0129624Y0131574D01*
X0130859Y0131574D01*
X0131476Y0130956D01*
X0131476Y0128488D01*
X0132690Y0128488D02*
X0132690Y0129105D01*
X0133307Y0129722D01*
X0135159Y0129722D01*
X0135159Y0128488D01*
X0134542Y0127870D01*
X0133307Y0127870D01*
X0132690Y0128488D01*
X0133925Y0130956D02*
X0135159Y0129722D01*
X0136373Y0129105D02*
X0136373Y0128488D01*
X0136991Y0127870D01*
X0138225Y0127870D01*
X0138842Y0128488D01*
X0140057Y0129722D02*
X0142525Y0129722D01*
X0143746Y0127870D02*
X0144981Y0127870D01*
X0144364Y0127870D02*
X0144364Y0131574D01*
X0144981Y0131574D02*
X0143746Y0131574D01*
X0146195Y0131574D02*
X0146195Y0127870D01*
X0148664Y0131574D01*
X0148664Y0127870D01*
X0149885Y0127870D02*
X0151119Y0127870D01*
X0150502Y0127870D02*
X0150502Y0131574D01*
X0151119Y0131574D02*
X0149885Y0131574D01*
X0152334Y0131574D02*
X0153568Y0130339D01*
X0154802Y0131574D01*
X0154802Y0127870D01*
X0156017Y0129722D02*
X0158486Y0129722D01*
X0159700Y0130956D02*
X0162169Y0128488D01*
X0162169Y0127870D01*
X0163383Y0128488D02*
X0164000Y0127870D01*
X0165235Y0127870D01*
X0165852Y0128488D01*
X0163383Y0130956D01*
X0163383Y0128488D01*
X0163383Y0130956D02*
X0164000Y0131574D01*
X0165235Y0131574D01*
X0165852Y0130956D01*
X0165852Y0128488D01*
X0167066Y0128488D02*
X0167683Y0127870D01*
X0168918Y0127870D01*
X0169535Y0128488D01*
X0170749Y0127870D02*
X0173218Y0127870D01*
X0170749Y0130339D01*
X0170749Y0130956D01*
X0171367Y0131574D01*
X0172601Y0131574D01*
X0173218Y0130956D01*
X0174433Y0130956D02*
X0175050Y0131574D01*
X0176901Y0131574D01*
X0176901Y0127870D01*
X0178116Y0127870D02*
X0178116Y0131574D01*
X0179350Y0130339D01*
X0180584Y0131574D01*
X0180584Y0127870D01*
X0176901Y0129105D02*
X0175050Y0129105D01*
X0174433Y0129722D01*
X0174433Y0130956D01*
X0169535Y0130956D02*
X0168918Y0131574D01*
X0167683Y0131574D01*
X0167066Y0130956D01*
X0167066Y0130339D01*
X0167683Y0129722D01*
X0167066Y0129105D01*
X0167066Y0128488D01*
X0167683Y0129722D02*
X0168301Y0129722D01*
X0162169Y0131574D02*
X0159700Y0131574D01*
X0159700Y0130956D01*
X0152334Y0131574D02*
X0152334Y0127870D01*
X0138842Y0130956D02*
X0138225Y0131574D01*
X0136991Y0131574D01*
X0136373Y0130956D01*
X0136373Y0130339D01*
X0136991Y0129722D01*
X0136373Y0129105D01*
X0136991Y0129722D02*
X0137608Y0129722D01*
X0133925Y0130956D02*
X0132690Y0131574D01*
D14*
X0141386Y0108854D03*
X0042173Y0108854D03*
D15*
X0059496Y0112791D02*
X0059496Y0116728D01*
X0065402Y0116728D02*
X0065402Y0112791D01*
X0071701Y0112791D02*
X0071701Y0116728D01*
X0077606Y0116728D02*
X0077606Y0112791D01*
X0077606Y0100980D02*
X0077606Y0097043D01*
X0071701Y0097043D02*
X0071701Y0100980D01*
X0065402Y0100980D02*
X0065402Y0097043D01*
X0059496Y0097043D02*
X0059496Y0100980D01*
X0158709Y0100980D02*
X0158709Y0097043D01*
X0164614Y0097043D02*
X0164614Y0100980D01*
X0170913Y0100980D02*
X0170913Y0097043D01*
X0176819Y0097043D02*
X0176819Y0100980D01*
X0176819Y0112791D02*
X0176819Y0116728D01*
X0170913Y0116728D02*
X0170913Y0112791D01*
X0164614Y0112791D02*
X0164614Y0116728D01*
X0158709Y0116728D02*
X0158709Y0112791D01*
D16*
X0167764Y0106886D03*
X0068551Y0106886D03*
D17*
X0041532Y0085730D02*
X0041532Y0085130D01*
X0040932Y0084529D01*
X0039731Y0084529D01*
X0039130Y0083929D01*
X0039130Y0083328D01*
X0039731Y0082728D01*
X0040932Y0082728D01*
X0041532Y0083328D01*
X0041532Y0083929D01*
X0040932Y0084529D01*
X0039731Y0084529D02*
X0039130Y0085130D01*
X0039130Y0085730D01*
X0039731Y0086331D01*
X0040932Y0086331D01*
X0041532Y0085730D01*
X0138343Y0085730D02*
X0138343Y0085130D01*
X0138943Y0084529D01*
X0140144Y0084529D01*
X0140745Y0085130D01*
X0140745Y0085730D01*
X0140144Y0086331D01*
X0138943Y0086331D01*
X0138343Y0085730D01*
X0138943Y0084529D02*
X0138343Y0083929D01*
X0138343Y0083328D01*
X0138943Y0082728D01*
X0140144Y0082728D01*
X0140745Y0083328D01*
X0140745Y0083929D01*
X0140144Y0084529D01*
M02*
