G75*
%MOIN*%
%OFA0B0*%
%FSLAX25Y25*%
%IPPOS*%
%LPD*%
%AMOC8*
5,1,8,0,0,1.08239X$1,22.5*
%
%ADD10C,0.00000*%
%ADD11R,0.07874X0.04724*%
%ADD12R,0.04724X0.07874*%
%ADD13R,0.06000X0.02400*%
%ADD14C,0.10000*%
%ADD15R,0.04331X0.03937*%
%ADD16R,0.03937X0.04331*%
%ADD17C,0.01000*%
%ADD18C,0.03562*%
%ADD19C,0.10000*%
%ADD20C,0.03600*%
%ADD21C,0.04000*%
D10*
X0003787Y0004681D02*
X0003787Y0150350D01*
X0101425Y0150350D01*
X0101425Y0096807D01*
X0101427Y0096734D01*
X0101433Y0096661D01*
X0101443Y0096588D01*
X0101456Y0096516D01*
X0101474Y0096444D01*
X0101495Y0096374D01*
X0101520Y0096305D01*
X0101548Y0096238D01*
X0101580Y0096172D01*
X0101616Y0096107D01*
X0101655Y0096045D01*
X0101697Y0095985D01*
X0101742Y0095927D01*
X0101790Y0095872D01*
X0101842Y0095820D01*
X0101896Y0095770D01*
X0101952Y0095723D01*
X0102011Y0095679D01*
X0102072Y0095639D01*
X0102135Y0095602D01*
X0102200Y0095568D01*
X0102267Y0095537D01*
X0102336Y0095511D01*
X0102405Y0095488D01*
X0102476Y0095468D01*
X0102548Y0095453D01*
X0102620Y0095441D01*
X0102693Y0095433D01*
X0102766Y0095429D01*
X0102840Y0095429D01*
X0102913Y0095433D01*
X0102986Y0095441D01*
X0103058Y0095453D01*
X0103130Y0095468D01*
X0103201Y0095488D01*
X0103270Y0095511D01*
X0103339Y0095537D01*
X0103406Y0095568D01*
X0103471Y0095602D01*
X0103534Y0095639D01*
X0103595Y0095679D01*
X0103654Y0095723D01*
X0103710Y0095770D01*
X0103764Y0095820D01*
X0103816Y0095872D01*
X0103864Y0095927D01*
X0103909Y0095985D01*
X0103951Y0096045D01*
X0103990Y0096107D01*
X0104026Y0096172D01*
X0104058Y0096238D01*
X0104086Y0096305D01*
X0104111Y0096374D01*
X0104132Y0096444D01*
X0104150Y0096516D01*
X0104163Y0096588D01*
X0104173Y0096661D01*
X0104179Y0096734D01*
X0104181Y0096807D01*
X0104181Y0150350D01*
X0200638Y0150350D01*
X0200638Y0004681D01*
X0104181Y0004681D01*
X0104181Y0051138D01*
X0104169Y0051210D01*
X0104153Y0051282D01*
X0104133Y0051353D01*
X0104109Y0051423D01*
X0104082Y0051491D01*
X0104051Y0051558D01*
X0104016Y0051623D01*
X0103978Y0051687D01*
X0103937Y0051748D01*
X0103893Y0051807D01*
X0103846Y0051863D01*
X0103796Y0051917D01*
X0103743Y0051968D01*
X0103687Y0052016D01*
X0103629Y0052062D01*
X0103568Y0052104D01*
X0103506Y0052143D01*
X0103441Y0052178D01*
X0103375Y0052210D01*
X0103307Y0052239D01*
X0103238Y0052263D01*
X0103167Y0052285D01*
X0103095Y0052302D01*
X0103023Y0052315D01*
X0102950Y0052325D01*
X0102877Y0052331D01*
X0102803Y0052333D01*
X0102729Y0052331D01*
X0102656Y0052325D01*
X0102583Y0052315D01*
X0102511Y0052302D01*
X0102439Y0052285D01*
X0102368Y0052263D01*
X0102299Y0052239D01*
X0102231Y0052210D01*
X0102165Y0052178D01*
X0102100Y0052143D01*
X0102038Y0052104D01*
X0101977Y0052062D01*
X0101919Y0052016D01*
X0101863Y0051968D01*
X0101810Y0051917D01*
X0101760Y0051863D01*
X0101713Y0051807D01*
X0101669Y0051748D01*
X0101628Y0051687D01*
X0101590Y0051623D01*
X0101555Y0051558D01*
X0101524Y0051491D01*
X0101497Y0051423D01*
X0101473Y0051353D01*
X0101453Y0051282D01*
X0101437Y0051210D01*
X0101425Y0051138D01*
X0101425Y0004681D01*
X0003787Y0004681D01*
X0101425Y0055862D02*
X0101427Y0055931D01*
X0101433Y0055999D01*
X0101443Y0056067D01*
X0101457Y0056134D01*
X0101475Y0056201D01*
X0101496Y0056266D01*
X0101522Y0056330D01*
X0101551Y0056392D01*
X0101583Y0056452D01*
X0101619Y0056511D01*
X0101659Y0056567D01*
X0101701Y0056621D01*
X0101747Y0056672D01*
X0101796Y0056721D01*
X0101847Y0056767D01*
X0101901Y0056809D01*
X0101957Y0056849D01*
X0102015Y0056885D01*
X0102076Y0056917D01*
X0102138Y0056946D01*
X0102202Y0056972D01*
X0102267Y0056993D01*
X0102334Y0057011D01*
X0102401Y0057025D01*
X0102469Y0057035D01*
X0102537Y0057041D01*
X0102606Y0057043D01*
X0102675Y0057041D01*
X0102743Y0057035D01*
X0102811Y0057025D01*
X0102878Y0057011D01*
X0102945Y0056993D01*
X0103010Y0056972D01*
X0103074Y0056946D01*
X0103136Y0056917D01*
X0103196Y0056885D01*
X0103255Y0056849D01*
X0103311Y0056809D01*
X0103365Y0056767D01*
X0103416Y0056721D01*
X0103465Y0056672D01*
X0103511Y0056621D01*
X0103553Y0056567D01*
X0103593Y0056511D01*
X0103629Y0056452D01*
X0103661Y0056392D01*
X0103690Y0056330D01*
X0103716Y0056266D01*
X0103737Y0056201D01*
X0103755Y0056134D01*
X0103769Y0056067D01*
X0103779Y0055999D01*
X0103785Y0055931D01*
X0103787Y0055862D01*
X0103785Y0055793D01*
X0103779Y0055725D01*
X0103769Y0055657D01*
X0103755Y0055590D01*
X0103737Y0055523D01*
X0103716Y0055458D01*
X0103690Y0055394D01*
X0103661Y0055332D01*
X0103629Y0055271D01*
X0103593Y0055213D01*
X0103553Y0055157D01*
X0103511Y0055103D01*
X0103465Y0055052D01*
X0103416Y0055003D01*
X0103365Y0054957D01*
X0103311Y0054915D01*
X0103255Y0054875D01*
X0103197Y0054839D01*
X0103136Y0054807D01*
X0103074Y0054778D01*
X0103010Y0054752D01*
X0102945Y0054731D01*
X0102878Y0054713D01*
X0102811Y0054699D01*
X0102743Y0054689D01*
X0102675Y0054683D01*
X0102606Y0054681D01*
X0102537Y0054683D01*
X0102469Y0054689D01*
X0102401Y0054699D01*
X0102334Y0054713D01*
X0102267Y0054731D01*
X0102202Y0054752D01*
X0102138Y0054778D01*
X0102076Y0054807D01*
X0102015Y0054839D01*
X0101957Y0054875D01*
X0101901Y0054915D01*
X0101847Y0054957D01*
X0101796Y0055003D01*
X0101747Y0055052D01*
X0101701Y0055103D01*
X0101659Y0055157D01*
X0101619Y0055213D01*
X0101583Y0055271D01*
X0101551Y0055332D01*
X0101522Y0055394D01*
X0101496Y0055458D01*
X0101475Y0055523D01*
X0101457Y0055590D01*
X0101443Y0055657D01*
X0101433Y0055725D01*
X0101427Y0055793D01*
X0101425Y0055862D01*
X0101425Y0059799D02*
X0101427Y0059868D01*
X0101433Y0059936D01*
X0101443Y0060004D01*
X0101457Y0060071D01*
X0101475Y0060138D01*
X0101496Y0060203D01*
X0101522Y0060267D01*
X0101551Y0060329D01*
X0101583Y0060389D01*
X0101619Y0060448D01*
X0101659Y0060504D01*
X0101701Y0060558D01*
X0101747Y0060609D01*
X0101796Y0060658D01*
X0101847Y0060704D01*
X0101901Y0060746D01*
X0101957Y0060786D01*
X0102015Y0060822D01*
X0102076Y0060854D01*
X0102138Y0060883D01*
X0102202Y0060909D01*
X0102267Y0060930D01*
X0102334Y0060948D01*
X0102401Y0060962D01*
X0102469Y0060972D01*
X0102537Y0060978D01*
X0102606Y0060980D01*
X0102675Y0060978D01*
X0102743Y0060972D01*
X0102811Y0060962D01*
X0102878Y0060948D01*
X0102945Y0060930D01*
X0103010Y0060909D01*
X0103074Y0060883D01*
X0103136Y0060854D01*
X0103196Y0060822D01*
X0103255Y0060786D01*
X0103311Y0060746D01*
X0103365Y0060704D01*
X0103416Y0060658D01*
X0103465Y0060609D01*
X0103511Y0060558D01*
X0103553Y0060504D01*
X0103593Y0060448D01*
X0103629Y0060389D01*
X0103661Y0060329D01*
X0103690Y0060267D01*
X0103716Y0060203D01*
X0103737Y0060138D01*
X0103755Y0060071D01*
X0103769Y0060004D01*
X0103779Y0059936D01*
X0103785Y0059868D01*
X0103787Y0059799D01*
X0103785Y0059730D01*
X0103779Y0059662D01*
X0103769Y0059594D01*
X0103755Y0059527D01*
X0103737Y0059460D01*
X0103716Y0059395D01*
X0103690Y0059331D01*
X0103661Y0059269D01*
X0103629Y0059208D01*
X0103593Y0059150D01*
X0103553Y0059094D01*
X0103511Y0059040D01*
X0103465Y0058989D01*
X0103416Y0058940D01*
X0103365Y0058894D01*
X0103311Y0058852D01*
X0103255Y0058812D01*
X0103197Y0058776D01*
X0103136Y0058744D01*
X0103074Y0058715D01*
X0103010Y0058689D01*
X0102945Y0058668D01*
X0102878Y0058650D01*
X0102811Y0058636D01*
X0102743Y0058626D01*
X0102675Y0058620D01*
X0102606Y0058618D01*
X0102537Y0058620D01*
X0102469Y0058626D01*
X0102401Y0058636D01*
X0102334Y0058650D01*
X0102267Y0058668D01*
X0102202Y0058689D01*
X0102138Y0058715D01*
X0102076Y0058744D01*
X0102015Y0058776D01*
X0101957Y0058812D01*
X0101901Y0058852D01*
X0101847Y0058894D01*
X0101796Y0058940D01*
X0101747Y0058989D01*
X0101701Y0059040D01*
X0101659Y0059094D01*
X0101619Y0059150D01*
X0101583Y0059208D01*
X0101551Y0059269D01*
X0101522Y0059331D01*
X0101496Y0059395D01*
X0101475Y0059460D01*
X0101457Y0059527D01*
X0101443Y0059594D01*
X0101433Y0059662D01*
X0101427Y0059730D01*
X0101425Y0059799D01*
X0101425Y0064130D02*
X0101427Y0064199D01*
X0101433Y0064267D01*
X0101443Y0064335D01*
X0101457Y0064402D01*
X0101475Y0064469D01*
X0101496Y0064534D01*
X0101522Y0064598D01*
X0101551Y0064660D01*
X0101583Y0064720D01*
X0101619Y0064779D01*
X0101659Y0064835D01*
X0101701Y0064889D01*
X0101747Y0064940D01*
X0101796Y0064989D01*
X0101847Y0065035D01*
X0101901Y0065077D01*
X0101957Y0065117D01*
X0102015Y0065153D01*
X0102076Y0065185D01*
X0102138Y0065214D01*
X0102202Y0065240D01*
X0102267Y0065261D01*
X0102334Y0065279D01*
X0102401Y0065293D01*
X0102469Y0065303D01*
X0102537Y0065309D01*
X0102606Y0065311D01*
X0102675Y0065309D01*
X0102743Y0065303D01*
X0102811Y0065293D01*
X0102878Y0065279D01*
X0102945Y0065261D01*
X0103010Y0065240D01*
X0103074Y0065214D01*
X0103136Y0065185D01*
X0103196Y0065153D01*
X0103255Y0065117D01*
X0103311Y0065077D01*
X0103365Y0065035D01*
X0103416Y0064989D01*
X0103465Y0064940D01*
X0103511Y0064889D01*
X0103553Y0064835D01*
X0103593Y0064779D01*
X0103629Y0064720D01*
X0103661Y0064660D01*
X0103690Y0064598D01*
X0103716Y0064534D01*
X0103737Y0064469D01*
X0103755Y0064402D01*
X0103769Y0064335D01*
X0103779Y0064267D01*
X0103785Y0064199D01*
X0103787Y0064130D01*
X0103785Y0064061D01*
X0103779Y0063993D01*
X0103769Y0063925D01*
X0103755Y0063858D01*
X0103737Y0063791D01*
X0103716Y0063726D01*
X0103690Y0063662D01*
X0103661Y0063600D01*
X0103629Y0063539D01*
X0103593Y0063481D01*
X0103553Y0063425D01*
X0103511Y0063371D01*
X0103465Y0063320D01*
X0103416Y0063271D01*
X0103365Y0063225D01*
X0103311Y0063183D01*
X0103255Y0063143D01*
X0103197Y0063107D01*
X0103136Y0063075D01*
X0103074Y0063046D01*
X0103010Y0063020D01*
X0102945Y0062999D01*
X0102878Y0062981D01*
X0102811Y0062967D01*
X0102743Y0062957D01*
X0102675Y0062951D01*
X0102606Y0062949D01*
X0102537Y0062951D01*
X0102469Y0062957D01*
X0102401Y0062967D01*
X0102334Y0062981D01*
X0102267Y0062999D01*
X0102202Y0063020D01*
X0102138Y0063046D01*
X0102076Y0063075D01*
X0102015Y0063107D01*
X0101957Y0063143D01*
X0101901Y0063183D01*
X0101847Y0063225D01*
X0101796Y0063271D01*
X0101747Y0063320D01*
X0101701Y0063371D01*
X0101659Y0063425D01*
X0101619Y0063481D01*
X0101583Y0063539D01*
X0101551Y0063600D01*
X0101522Y0063662D01*
X0101496Y0063726D01*
X0101475Y0063791D01*
X0101457Y0063858D01*
X0101443Y0063925D01*
X0101433Y0063993D01*
X0101427Y0064061D01*
X0101425Y0064130D01*
X0101425Y0068067D02*
X0101427Y0068136D01*
X0101433Y0068204D01*
X0101443Y0068272D01*
X0101457Y0068339D01*
X0101475Y0068406D01*
X0101496Y0068471D01*
X0101522Y0068535D01*
X0101551Y0068597D01*
X0101583Y0068657D01*
X0101619Y0068716D01*
X0101659Y0068772D01*
X0101701Y0068826D01*
X0101747Y0068877D01*
X0101796Y0068926D01*
X0101847Y0068972D01*
X0101901Y0069014D01*
X0101957Y0069054D01*
X0102015Y0069090D01*
X0102076Y0069122D01*
X0102138Y0069151D01*
X0102202Y0069177D01*
X0102267Y0069198D01*
X0102334Y0069216D01*
X0102401Y0069230D01*
X0102469Y0069240D01*
X0102537Y0069246D01*
X0102606Y0069248D01*
X0102675Y0069246D01*
X0102743Y0069240D01*
X0102811Y0069230D01*
X0102878Y0069216D01*
X0102945Y0069198D01*
X0103010Y0069177D01*
X0103074Y0069151D01*
X0103136Y0069122D01*
X0103196Y0069090D01*
X0103255Y0069054D01*
X0103311Y0069014D01*
X0103365Y0068972D01*
X0103416Y0068926D01*
X0103465Y0068877D01*
X0103511Y0068826D01*
X0103553Y0068772D01*
X0103593Y0068716D01*
X0103629Y0068657D01*
X0103661Y0068597D01*
X0103690Y0068535D01*
X0103716Y0068471D01*
X0103737Y0068406D01*
X0103755Y0068339D01*
X0103769Y0068272D01*
X0103779Y0068204D01*
X0103785Y0068136D01*
X0103787Y0068067D01*
X0103785Y0067998D01*
X0103779Y0067930D01*
X0103769Y0067862D01*
X0103755Y0067795D01*
X0103737Y0067728D01*
X0103716Y0067663D01*
X0103690Y0067599D01*
X0103661Y0067537D01*
X0103629Y0067476D01*
X0103593Y0067418D01*
X0103553Y0067362D01*
X0103511Y0067308D01*
X0103465Y0067257D01*
X0103416Y0067208D01*
X0103365Y0067162D01*
X0103311Y0067120D01*
X0103255Y0067080D01*
X0103197Y0067044D01*
X0103136Y0067012D01*
X0103074Y0066983D01*
X0103010Y0066957D01*
X0102945Y0066936D01*
X0102878Y0066918D01*
X0102811Y0066904D01*
X0102743Y0066894D01*
X0102675Y0066888D01*
X0102606Y0066886D01*
X0102537Y0066888D01*
X0102469Y0066894D01*
X0102401Y0066904D01*
X0102334Y0066918D01*
X0102267Y0066936D01*
X0102202Y0066957D01*
X0102138Y0066983D01*
X0102076Y0067012D01*
X0102015Y0067044D01*
X0101957Y0067080D01*
X0101901Y0067120D01*
X0101847Y0067162D01*
X0101796Y0067208D01*
X0101747Y0067257D01*
X0101701Y0067308D01*
X0101659Y0067362D01*
X0101619Y0067418D01*
X0101583Y0067476D01*
X0101551Y0067537D01*
X0101522Y0067599D01*
X0101496Y0067663D01*
X0101475Y0067728D01*
X0101457Y0067795D01*
X0101443Y0067862D01*
X0101433Y0067930D01*
X0101427Y0067998D01*
X0101425Y0068067D01*
X0101425Y0072398D02*
X0101427Y0072467D01*
X0101433Y0072535D01*
X0101443Y0072603D01*
X0101457Y0072670D01*
X0101475Y0072737D01*
X0101496Y0072802D01*
X0101522Y0072866D01*
X0101551Y0072928D01*
X0101583Y0072988D01*
X0101619Y0073047D01*
X0101659Y0073103D01*
X0101701Y0073157D01*
X0101747Y0073208D01*
X0101796Y0073257D01*
X0101847Y0073303D01*
X0101901Y0073345D01*
X0101957Y0073385D01*
X0102015Y0073421D01*
X0102076Y0073453D01*
X0102138Y0073482D01*
X0102202Y0073508D01*
X0102267Y0073529D01*
X0102334Y0073547D01*
X0102401Y0073561D01*
X0102469Y0073571D01*
X0102537Y0073577D01*
X0102606Y0073579D01*
X0102675Y0073577D01*
X0102743Y0073571D01*
X0102811Y0073561D01*
X0102878Y0073547D01*
X0102945Y0073529D01*
X0103010Y0073508D01*
X0103074Y0073482D01*
X0103136Y0073453D01*
X0103196Y0073421D01*
X0103255Y0073385D01*
X0103311Y0073345D01*
X0103365Y0073303D01*
X0103416Y0073257D01*
X0103465Y0073208D01*
X0103511Y0073157D01*
X0103553Y0073103D01*
X0103593Y0073047D01*
X0103629Y0072988D01*
X0103661Y0072928D01*
X0103690Y0072866D01*
X0103716Y0072802D01*
X0103737Y0072737D01*
X0103755Y0072670D01*
X0103769Y0072603D01*
X0103779Y0072535D01*
X0103785Y0072467D01*
X0103787Y0072398D01*
X0103785Y0072329D01*
X0103779Y0072261D01*
X0103769Y0072193D01*
X0103755Y0072126D01*
X0103737Y0072059D01*
X0103716Y0071994D01*
X0103690Y0071930D01*
X0103661Y0071868D01*
X0103629Y0071807D01*
X0103593Y0071749D01*
X0103553Y0071693D01*
X0103511Y0071639D01*
X0103465Y0071588D01*
X0103416Y0071539D01*
X0103365Y0071493D01*
X0103311Y0071451D01*
X0103255Y0071411D01*
X0103197Y0071375D01*
X0103136Y0071343D01*
X0103074Y0071314D01*
X0103010Y0071288D01*
X0102945Y0071267D01*
X0102878Y0071249D01*
X0102811Y0071235D01*
X0102743Y0071225D01*
X0102675Y0071219D01*
X0102606Y0071217D01*
X0102537Y0071219D01*
X0102469Y0071225D01*
X0102401Y0071235D01*
X0102334Y0071249D01*
X0102267Y0071267D01*
X0102202Y0071288D01*
X0102138Y0071314D01*
X0102076Y0071343D01*
X0102015Y0071375D01*
X0101957Y0071411D01*
X0101901Y0071451D01*
X0101847Y0071493D01*
X0101796Y0071539D01*
X0101747Y0071588D01*
X0101701Y0071639D01*
X0101659Y0071693D01*
X0101619Y0071749D01*
X0101583Y0071807D01*
X0101551Y0071868D01*
X0101522Y0071930D01*
X0101496Y0071994D01*
X0101475Y0072059D01*
X0101457Y0072126D01*
X0101443Y0072193D01*
X0101433Y0072261D01*
X0101427Y0072329D01*
X0101425Y0072398D01*
X0101425Y0076335D02*
X0101427Y0076404D01*
X0101433Y0076472D01*
X0101443Y0076540D01*
X0101457Y0076607D01*
X0101475Y0076674D01*
X0101496Y0076739D01*
X0101522Y0076803D01*
X0101551Y0076865D01*
X0101583Y0076925D01*
X0101619Y0076984D01*
X0101659Y0077040D01*
X0101701Y0077094D01*
X0101747Y0077145D01*
X0101796Y0077194D01*
X0101847Y0077240D01*
X0101901Y0077282D01*
X0101957Y0077322D01*
X0102015Y0077358D01*
X0102076Y0077390D01*
X0102138Y0077419D01*
X0102202Y0077445D01*
X0102267Y0077466D01*
X0102334Y0077484D01*
X0102401Y0077498D01*
X0102469Y0077508D01*
X0102537Y0077514D01*
X0102606Y0077516D01*
X0102675Y0077514D01*
X0102743Y0077508D01*
X0102811Y0077498D01*
X0102878Y0077484D01*
X0102945Y0077466D01*
X0103010Y0077445D01*
X0103074Y0077419D01*
X0103136Y0077390D01*
X0103196Y0077358D01*
X0103255Y0077322D01*
X0103311Y0077282D01*
X0103365Y0077240D01*
X0103416Y0077194D01*
X0103465Y0077145D01*
X0103511Y0077094D01*
X0103553Y0077040D01*
X0103593Y0076984D01*
X0103629Y0076925D01*
X0103661Y0076865D01*
X0103690Y0076803D01*
X0103716Y0076739D01*
X0103737Y0076674D01*
X0103755Y0076607D01*
X0103769Y0076540D01*
X0103779Y0076472D01*
X0103785Y0076404D01*
X0103787Y0076335D01*
X0103785Y0076266D01*
X0103779Y0076198D01*
X0103769Y0076130D01*
X0103755Y0076063D01*
X0103737Y0075996D01*
X0103716Y0075931D01*
X0103690Y0075867D01*
X0103661Y0075805D01*
X0103629Y0075744D01*
X0103593Y0075686D01*
X0103553Y0075630D01*
X0103511Y0075576D01*
X0103465Y0075525D01*
X0103416Y0075476D01*
X0103365Y0075430D01*
X0103311Y0075388D01*
X0103255Y0075348D01*
X0103197Y0075312D01*
X0103136Y0075280D01*
X0103074Y0075251D01*
X0103010Y0075225D01*
X0102945Y0075204D01*
X0102878Y0075186D01*
X0102811Y0075172D01*
X0102743Y0075162D01*
X0102675Y0075156D01*
X0102606Y0075154D01*
X0102537Y0075156D01*
X0102469Y0075162D01*
X0102401Y0075172D01*
X0102334Y0075186D01*
X0102267Y0075204D01*
X0102202Y0075225D01*
X0102138Y0075251D01*
X0102076Y0075280D01*
X0102015Y0075312D01*
X0101957Y0075348D01*
X0101901Y0075388D01*
X0101847Y0075430D01*
X0101796Y0075476D01*
X0101747Y0075525D01*
X0101701Y0075576D01*
X0101659Y0075630D01*
X0101619Y0075686D01*
X0101583Y0075744D01*
X0101551Y0075805D01*
X0101522Y0075867D01*
X0101496Y0075931D01*
X0101475Y0075996D01*
X0101457Y0076063D01*
X0101443Y0076130D01*
X0101433Y0076198D01*
X0101427Y0076266D01*
X0101425Y0076335D01*
X0101425Y0080665D02*
X0101427Y0080734D01*
X0101433Y0080802D01*
X0101443Y0080870D01*
X0101457Y0080937D01*
X0101475Y0081004D01*
X0101496Y0081069D01*
X0101522Y0081133D01*
X0101551Y0081195D01*
X0101583Y0081255D01*
X0101619Y0081314D01*
X0101659Y0081370D01*
X0101701Y0081424D01*
X0101747Y0081475D01*
X0101796Y0081524D01*
X0101847Y0081570D01*
X0101901Y0081612D01*
X0101957Y0081652D01*
X0102015Y0081688D01*
X0102076Y0081720D01*
X0102138Y0081749D01*
X0102202Y0081775D01*
X0102267Y0081796D01*
X0102334Y0081814D01*
X0102401Y0081828D01*
X0102469Y0081838D01*
X0102537Y0081844D01*
X0102606Y0081846D01*
X0102675Y0081844D01*
X0102743Y0081838D01*
X0102811Y0081828D01*
X0102878Y0081814D01*
X0102945Y0081796D01*
X0103010Y0081775D01*
X0103074Y0081749D01*
X0103136Y0081720D01*
X0103196Y0081688D01*
X0103255Y0081652D01*
X0103311Y0081612D01*
X0103365Y0081570D01*
X0103416Y0081524D01*
X0103465Y0081475D01*
X0103511Y0081424D01*
X0103553Y0081370D01*
X0103593Y0081314D01*
X0103629Y0081255D01*
X0103661Y0081195D01*
X0103690Y0081133D01*
X0103716Y0081069D01*
X0103737Y0081004D01*
X0103755Y0080937D01*
X0103769Y0080870D01*
X0103779Y0080802D01*
X0103785Y0080734D01*
X0103787Y0080665D01*
X0103785Y0080596D01*
X0103779Y0080528D01*
X0103769Y0080460D01*
X0103755Y0080393D01*
X0103737Y0080326D01*
X0103716Y0080261D01*
X0103690Y0080197D01*
X0103661Y0080135D01*
X0103629Y0080074D01*
X0103593Y0080016D01*
X0103553Y0079960D01*
X0103511Y0079906D01*
X0103465Y0079855D01*
X0103416Y0079806D01*
X0103365Y0079760D01*
X0103311Y0079718D01*
X0103255Y0079678D01*
X0103197Y0079642D01*
X0103136Y0079610D01*
X0103074Y0079581D01*
X0103010Y0079555D01*
X0102945Y0079534D01*
X0102878Y0079516D01*
X0102811Y0079502D01*
X0102743Y0079492D01*
X0102675Y0079486D01*
X0102606Y0079484D01*
X0102537Y0079486D01*
X0102469Y0079492D01*
X0102401Y0079502D01*
X0102334Y0079516D01*
X0102267Y0079534D01*
X0102202Y0079555D01*
X0102138Y0079581D01*
X0102076Y0079610D01*
X0102015Y0079642D01*
X0101957Y0079678D01*
X0101901Y0079718D01*
X0101847Y0079760D01*
X0101796Y0079806D01*
X0101747Y0079855D01*
X0101701Y0079906D01*
X0101659Y0079960D01*
X0101619Y0080016D01*
X0101583Y0080074D01*
X0101551Y0080135D01*
X0101522Y0080197D01*
X0101496Y0080261D01*
X0101475Y0080326D01*
X0101457Y0080393D01*
X0101443Y0080460D01*
X0101433Y0080528D01*
X0101427Y0080596D01*
X0101425Y0080665D01*
X0101425Y0084602D02*
X0101427Y0084671D01*
X0101433Y0084739D01*
X0101443Y0084807D01*
X0101457Y0084874D01*
X0101475Y0084941D01*
X0101496Y0085006D01*
X0101522Y0085070D01*
X0101551Y0085132D01*
X0101583Y0085192D01*
X0101619Y0085251D01*
X0101659Y0085307D01*
X0101701Y0085361D01*
X0101747Y0085412D01*
X0101796Y0085461D01*
X0101847Y0085507D01*
X0101901Y0085549D01*
X0101957Y0085589D01*
X0102015Y0085625D01*
X0102076Y0085657D01*
X0102138Y0085686D01*
X0102202Y0085712D01*
X0102267Y0085733D01*
X0102334Y0085751D01*
X0102401Y0085765D01*
X0102469Y0085775D01*
X0102537Y0085781D01*
X0102606Y0085783D01*
X0102675Y0085781D01*
X0102743Y0085775D01*
X0102811Y0085765D01*
X0102878Y0085751D01*
X0102945Y0085733D01*
X0103010Y0085712D01*
X0103074Y0085686D01*
X0103136Y0085657D01*
X0103196Y0085625D01*
X0103255Y0085589D01*
X0103311Y0085549D01*
X0103365Y0085507D01*
X0103416Y0085461D01*
X0103465Y0085412D01*
X0103511Y0085361D01*
X0103553Y0085307D01*
X0103593Y0085251D01*
X0103629Y0085192D01*
X0103661Y0085132D01*
X0103690Y0085070D01*
X0103716Y0085006D01*
X0103737Y0084941D01*
X0103755Y0084874D01*
X0103769Y0084807D01*
X0103779Y0084739D01*
X0103785Y0084671D01*
X0103787Y0084602D01*
X0103785Y0084533D01*
X0103779Y0084465D01*
X0103769Y0084397D01*
X0103755Y0084330D01*
X0103737Y0084263D01*
X0103716Y0084198D01*
X0103690Y0084134D01*
X0103661Y0084072D01*
X0103629Y0084011D01*
X0103593Y0083953D01*
X0103553Y0083897D01*
X0103511Y0083843D01*
X0103465Y0083792D01*
X0103416Y0083743D01*
X0103365Y0083697D01*
X0103311Y0083655D01*
X0103255Y0083615D01*
X0103197Y0083579D01*
X0103136Y0083547D01*
X0103074Y0083518D01*
X0103010Y0083492D01*
X0102945Y0083471D01*
X0102878Y0083453D01*
X0102811Y0083439D01*
X0102743Y0083429D01*
X0102675Y0083423D01*
X0102606Y0083421D01*
X0102537Y0083423D01*
X0102469Y0083429D01*
X0102401Y0083439D01*
X0102334Y0083453D01*
X0102267Y0083471D01*
X0102202Y0083492D01*
X0102138Y0083518D01*
X0102076Y0083547D01*
X0102015Y0083579D01*
X0101957Y0083615D01*
X0101901Y0083655D01*
X0101847Y0083697D01*
X0101796Y0083743D01*
X0101747Y0083792D01*
X0101701Y0083843D01*
X0101659Y0083897D01*
X0101619Y0083953D01*
X0101583Y0084011D01*
X0101551Y0084072D01*
X0101522Y0084134D01*
X0101496Y0084198D01*
X0101475Y0084263D01*
X0101457Y0084330D01*
X0101443Y0084397D01*
X0101433Y0084465D01*
X0101427Y0084533D01*
X0101425Y0084602D01*
X0101425Y0088539D02*
X0101427Y0088608D01*
X0101433Y0088676D01*
X0101443Y0088744D01*
X0101457Y0088811D01*
X0101475Y0088878D01*
X0101496Y0088943D01*
X0101522Y0089007D01*
X0101551Y0089069D01*
X0101583Y0089129D01*
X0101619Y0089188D01*
X0101659Y0089244D01*
X0101701Y0089298D01*
X0101747Y0089349D01*
X0101796Y0089398D01*
X0101847Y0089444D01*
X0101901Y0089486D01*
X0101957Y0089526D01*
X0102015Y0089562D01*
X0102076Y0089594D01*
X0102138Y0089623D01*
X0102202Y0089649D01*
X0102267Y0089670D01*
X0102334Y0089688D01*
X0102401Y0089702D01*
X0102469Y0089712D01*
X0102537Y0089718D01*
X0102606Y0089720D01*
X0102675Y0089718D01*
X0102743Y0089712D01*
X0102811Y0089702D01*
X0102878Y0089688D01*
X0102945Y0089670D01*
X0103010Y0089649D01*
X0103074Y0089623D01*
X0103136Y0089594D01*
X0103196Y0089562D01*
X0103255Y0089526D01*
X0103311Y0089486D01*
X0103365Y0089444D01*
X0103416Y0089398D01*
X0103465Y0089349D01*
X0103511Y0089298D01*
X0103553Y0089244D01*
X0103593Y0089188D01*
X0103629Y0089129D01*
X0103661Y0089069D01*
X0103690Y0089007D01*
X0103716Y0088943D01*
X0103737Y0088878D01*
X0103755Y0088811D01*
X0103769Y0088744D01*
X0103779Y0088676D01*
X0103785Y0088608D01*
X0103787Y0088539D01*
X0103785Y0088470D01*
X0103779Y0088402D01*
X0103769Y0088334D01*
X0103755Y0088267D01*
X0103737Y0088200D01*
X0103716Y0088135D01*
X0103690Y0088071D01*
X0103661Y0088009D01*
X0103629Y0087948D01*
X0103593Y0087890D01*
X0103553Y0087834D01*
X0103511Y0087780D01*
X0103465Y0087729D01*
X0103416Y0087680D01*
X0103365Y0087634D01*
X0103311Y0087592D01*
X0103255Y0087552D01*
X0103197Y0087516D01*
X0103136Y0087484D01*
X0103074Y0087455D01*
X0103010Y0087429D01*
X0102945Y0087408D01*
X0102878Y0087390D01*
X0102811Y0087376D01*
X0102743Y0087366D01*
X0102675Y0087360D01*
X0102606Y0087358D01*
X0102537Y0087360D01*
X0102469Y0087366D01*
X0102401Y0087376D01*
X0102334Y0087390D01*
X0102267Y0087408D01*
X0102202Y0087429D01*
X0102138Y0087455D01*
X0102076Y0087484D01*
X0102015Y0087516D01*
X0101957Y0087552D01*
X0101901Y0087592D01*
X0101847Y0087634D01*
X0101796Y0087680D01*
X0101747Y0087729D01*
X0101701Y0087780D01*
X0101659Y0087834D01*
X0101619Y0087890D01*
X0101583Y0087948D01*
X0101551Y0088009D01*
X0101522Y0088071D01*
X0101496Y0088135D01*
X0101475Y0088200D01*
X0101457Y0088267D01*
X0101443Y0088334D01*
X0101433Y0088402D01*
X0101427Y0088470D01*
X0101425Y0088539D01*
X0101425Y0092476D02*
X0101427Y0092545D01*
X0101433Y0092613D01*
X0101443Y0092681D01*
X0101457Y0092748D01*
X0101475Y0092815D01*
X0101496Y0092880D01*
X0101522Y0092944D01*
X0101551Y0093006D01*
X0101583Y0093066D01*
X0101619Y0093125D01*
X0101659Y0093181D01*
X0101701Y0093235D01*
X0101747Y0093286D01*
X0101796Y0093335D01*
X0101847Y0093381D01*
X0101901Y0093423D01*
X0101957Y0093463D01*
X0102015Y0093499D01*
X0102076Y0093531D01*
X0102138Y0093560D01*
X0102202Y0093586D01*
X0102267Y0093607D01*
X0102334Y0093625D01*
X0102401Y0093639D01*
X0102469Y0093649D01*
X0102537Y0093655D01*
X0102606Y0093657D01*
X0102675Y0093655D01*
X0102743Y0093649D01*
X0102811Y0093639D01*
X0102878Y0093625D01*
X0102945Y0093607D01*
X0103010Y0093586D01*
X0103074Y0093560D01*
X0103136Y0093531D01*
X0103196Y0093499D01*
X0103255Y0093463D01*
X0103311Y0093423D01*
X0103365Y0093381D01*
X0103416Y0093335D01*
X0103465Y0093286D01*
X0103511Y0093235D01*
X0103553Y0093181D01*
X0103593Y0093125D01*
X0103629Y0093066D01*
X0103661Y0093006D01*
X0103690Y0092944D01*
X0103716Y0092880D01*
X0103737Y0092815D01*
X0103755Y0092748D01*
X0103769Y0092681D01*
X0103779Y0092613D01*
X0103785Y0092545D01*
X0103787Y0092476D01*
X0103785Y0092407D01*
X0103779Y0092339D01*
X0103769Y0092271D01*
X0103755Y0092204D01*
X0103737Y0092137D01*
X0103716Y0092072D01*
X0103690Y0092008D01*
X0103661Y0091946D01*
X0103629Y0091885D01*
X0103593Y0091827D01*
X0103553Y0091771D01*
X0103511Y0091717D01*
X0103465Y0091666D01*
X0103416Y0091617D01*
X0103365Y0091571D01*
X0103311Y0091529D01*
X0103255Y0091489D01*
X0103197Y0091453D01*
X0103136Y0091421D01*
X0103074Y0091392D01*
X0103010Y0091366D01*
X0102945Y0091345D01*
X0102878Y0091327D01*
X0102811Y0091313D01*
X0102743Y0091303D01*
X0102675Y0091297D01*
X0102606Y0091295D01*
X0102537Y0091297D01*
X0102469Y0091303D01*
X0102401Y0091313D01*
X0102334Y0091327D01*
X0102267Y0091345D01*
X0102202Y0091366D01*
X0102138Y0091392D01*
X0102076Y0091421D01*
X0102015Y0091453D01*
X0101957Y0091489D01*
X0101901Y0091529D01*
X0101847Y0091571D01*
X0101796Y0091617D01*
X0101747Y0091666D01*
X0101701Y0091717D01*
X0101659Y0091771D01*
X0101619Y0091827D01*
X0101583Y0091885D01*
X0101551Y0091946D01*
X0101522Y0092008D01*
X0101496Y0092072D01*
X0101475Y0092137D01*
X0101457Y0092204D01*
X0101443Y0092271D01*
X0101433Y0092339D01*
X0101427Y0092407D01*
X0101425Y0092476D01*
D11*
X0085362Y0094445D03*
X0085362Y0086571D03*
X0085362Y0102319D03*
X0085362Y0110193D03*
X0085362Y0118067D03*
X0085362Y0125941D03*
X0085362Y0133815D03*
X0085362Y0141689D03*
X0121189Y0141689D03*
X0121189Y0133815D03*
X0121189Y0125941D03*
X0121189Y0118067D03*
X0121189Y0110193D03*
X0121189Y0102319D03*
X0121189Y0094445D03*
X0121189Y0086571D03*
X0184969Y0086571D03*
X0184969Y0094445D03*
X0184969Y0102319D03*
X0184969Y0110193D03*
X0184969Y0118067D03*
X0184969Y0125941D03*
X0184969Y0133815D03*
X0184969Y0141689D03*
X0021583Y0141689D03*
X0021583Y0133815D03*
X0021583Y0125941D03*
X0021583Y0118067D03*
X0021583Y0110193D03*
X0021583Y0102319D03*
X0021583Y0094445D03*
X0021583Y0086571D03*
D12*
X0033394Y0078697D03*
X0041268Y0078697D03*
X0049142Y0078697D03*
X0057016Y0078697D03*
X0064890Y0078697D03*
X0072764Y0078697D03*
X0133000Y0078697D03*
X0140874Y0078697D03*
X0148748Y0078697D03*
X0156622Y0078697D03*
X0164496Y0078697D03*
X0172370Y0078697D03*
D13*
X0164312Y0064858D03*
X0164312Y0059858D03*
X0164312Y0054858D03*
X0164312Y0049858D03*
X0164312Y0036827D03*
X0164312Y0031827D03*
X0164312Y0026827D03*
X0164312Y0021827D03*
X0142712Y0021827D03*
X0142712Y0026827D03*
X0142712Y0031827D03*
X0142712Y0036827D03*
X0142712Y0049858D03*
X0142712Y0054858D03*
X0142712Y0059858D03*
X0142712Y0064858D03*
X0064706Y0064858D03*
X0064706Y0059858D03*
X0064706Y0054858D03*
X0064706Y0049858D03*
X0064706Y0036827D03*
X0064706Y0031827D03*
X0064706Y0026827D03*
X0064706Y0021827D03*
X0043106Y0021827D03*
X0043106Y0026827D03*
X0043106Y0031827D03*
X0043106Y0036827D03*
X0043106Y0049858D03*
X0043106Y0054858D03*
X0043106Y0059858D03*
X0043106Y0064858D03*
D14*
X0023157Y0062240D03*
X0023157Y0048461D03*
X0023157Y0034760D03*
X0023157Y0020980D03*
X0082370Y0020980D03*
X0082370Y0034760D03*
X0082213Y0048539D03*
X0082213Y0062319D03*
X0122764Y0062240D03*
X0122764Y0048461D03*
X0122764Y0034760D03*
X0122764Y0020980D03*
X0181976Y0020980D03*
X0181976Y0034760D03*
X0181819Y0048539D03*
X0181819Y0062319D03*
D15*
X0193197Y0087319D03*
X0193197Y0094012D03*
X0112803Y0110941D03*
X0112803Y0117634D03*
X0112803Y0124248D03*
X0112803Y0130941D03*
X0093591Y0094012D03*
X0093591Y0087319D03*
X0013197Y0110941D03*
X0013197Y0117634D03*
X0013197Y0124248D03*
X0013197Y0130941D03*
D16*
X0041701Y0044091D03*
X0048394Y0044091D03*
X0048079Y0015114D03*
X0041386Y0015114D03*
X0140992Y0015114D03*
X0147685Y0015114D03*
X0148000Y0044091D03*
X0141307Y0044091D03*
D17*
X0140989Y0044297D01*
X0133789Y0051497D01*
X0133789Y0069497D01*
X0126589Y0076697D01*
X0126589Y0090197D01*
X0122989Y0093797D01*
X0121189Y0093797D01*
X0121189Y0094445D01*
X0117252Y0090508D02*
X0114811Y0090508D01*
X0112843Y0092476D01*
X0112843Y0095232D01*
X0109489Y0097397D02*
X0113989Y0101897D01*
X0121189Y0101897D01*
X0121189Y0102319D01*
X0121189Y0109997D02*
X0121189Y0110193D01*
X0121189Y0109997D02*
X0122989Y0109997D01*
X0137444Y0110109D01*
X0130953Y0122004D02*
X0114260Y0122004D01*
X0114260Y0119091D01*
X0112803Y0117634D01*
X0114024Y0114130D02*
X0170323Y0114130D01*
X0182134Y0102319D01*
X0184969Y0102319D01*
X0184189Y0101897D01*
X0184189Y0094697D02*
X0184969Y0094445D01*
X0192764Y0094445D01*
X0193197Y0094012D01*
X0164312Y0064858D02*
X0164389Y0064097D01*
X0164389Y0060497D02*
X0164312Y0059858D01*
X0164389Y0059597D01*
X0164389Y0055097D02*
X0164312Y0054858D01*
X0164389Y0054197D01*
X0164389Y0050597D02*
X0164312Y0049858D01*
X0164312Y0036827D02*
X0164389Y0036197D01*
X0164389Y0032597D02*
X0164312Y0031827D01*
X0164389Y0031697D01*
X0164389Y0027197D02*
X0164312Y0026827D01*
X0164389Y0026297D01*
X0164389Y0022697D02*
X0164312Y0021827D01*
X0147289Y0017297D02*
X0147289Y0015497D01*
X0147685Y0015114D01*
X0147289Y0017297D02*
X0142789Y0021797D01*
X0142712Y0021827D01*
X0140989Y0017297D02*
X0131989Y0026297D01*
X0131989Y0066797D01*
X0109489Y0089297D01*
X0109489Y0097397D01*
X0117252Y0090508D02*
X0121189Y0086571D01*
X0121189Y0086597D01*
X0112803Y0110941D02*
X0112803Y0112909D01*
X0114024Y0114130D01*
X0114260Y0122004D02*
X0112803Y0124248D01*
X0117803Y0125941D02*
X0121189Y0125941D01*
X0117252Y0129878D01*
X0114417Y0129878D01*
X0113354Y0130941D01*
X0112803Y0130941D01*
X0121189Y0125941D02*
X0121189Y0125297D01*
X0122989Y0125297D01*
X0093157Y0094445D02*
X0093591Y0094012D01*
X0093157Y0094445D02*
X0085362Y0094445D01*
X0084583Y0094697D01*
X0084583Y0101897D02*
X0085362Y0102319D01*
X0082528Y0102319D01*
X0070717Y0114130D01*
X0014417Y0114130D01*
X0013197Y0112909D01*
X0013197Y0110941D01*
X0013197Y0117634D02*
X0014654Y0119091D01*
X0014654Y0122004D01*
X0013197Y0124248D01*
X0014654Y0122004D02*
X0031346Y0122004D01*
X0023383Y0125297D02*
X0021583Y0125297D01*
X0021583Y0125941D01*
X0017646Y0129878D01*
X0014811Y0129878D01*
X0013748Y0130941D01*
X0013197Y0130941D01*
X0018197Y0125941D02*
X0021583Y0125941D01*
X0021583Y0110193D02*
X0021583Y0109997D01*
X0023383Y0109997D01*
X0037838Y0110109D01*
X0021583Y0102319D02*
X0021583Y0101897D01*
X0014383Y0101897D01*
X0009883Y0097397D01*
X0009883Y0089297D01*
X0032383Y0066797D01*
X0032383Y0026297D01*
X0041383Y0017297D01*
X0041383Y0015497D01*
X0041386Y0015114D01*
X0047683Y0015497D02*
X0048079Y0015114D01*
X0047683Y0015497D02*
X0047683Y0017297D01*
X0043183Y0021797D01*
X0043106Y0021827D01*
X0025183Y0021797D02*
X0023157Y0020980D01*
X0041383Y0044297D02*
X0041701Y0044091D01*
X0041383Y0044297D02*
X0034183Y0051497D01*
X0034183Y0069497D01*
X0026983Y0076697D01*
X0026983Y0090197D01*
X0023383Y0093797D01*
X0021583Y0093797D01*
X0021583Y0094445D01*
X0017646Y0090508D02*
X0015205Y0090508D01*
X0013236Y0092476D01*
X0013236Y0095232D01*
X0017646Y0090508D02*
X0021583Y0086571D01*
X0021583Y0086597D01*
X0042283Y0049697D02*
X0043106Y0049858D01*
X0042283Y0049697D02*
X0047683Y0044297D01*
X0048394Y0044091D01*
X0064706Y0049858D02*
X0064783Y0050597D01*
X0064783Y0054197D02*
X0064706Y0054858D01*
X0064783Y0055097D01*
X0064783Y0059597D02*
X0064706Y0059858D01*
X0064783Y0060497D01*
X0064783Y0064097D02*
X0064706Y0064858D01*
X0081883Y0062297D02*
X0082213Y0062319D01*
X0064706Y0036827D02*
X0064783Y0036197D01*
X0064783Y0032597D02*
X0064706Y0031827D01*
X0064783Y0031697D01*
X0064783Y0027197D02*
X0064706Y0026827D01*
X0064783Y0026297D01*
X0064783Y0022697D02*
X0064706Y0021827D01*
X0081883Y0034397D02*
X0082370Y0034760D01*
X0122820Y0048291D02*
X0122764Y0048461D01*
X0141889Y0049697D02*
X0142712Y0049858D01*
X0141889Y0049697D02*
X0147289Y0044297D01*
X0148000Y0044091D01*
X0124789Y0021797D02*
X0122764Y0020980D01*
X0140989Y0017297D02*
X0140989Y0015497D01*
X0140992Y0015114D01*
X0181489Y0034397D02*
X0181976Y0034760D01*
X0181489Y0062297D02*
X0181819Y0062319D01*
X0023214Y0048291D02*
X0023157Y0048461D01*
D18*
X0018748Y0055862D03*
X0010874Y0055862D03*
X0010874Y0071610D03*
X0018748Y0071610D03*
X0010874Y0079484D03*
X0013236Y0095232D03*
X0010874Y0103106D03*
X0033709Y0103106D03*
X0033709Y0095232D03*
X0041583Y0095232D03*
X0042370Y0087358D03*
X0049063Y0087358D03*
X0058118Y0095232D03*
X0058118Y0107043D03*
X0073866Y0107043D03*
X0073866Y0095232D03*
X0077803Y0087358D03*
X0093551Y0075547D03*
X0093551Y0059799D03*
X0093551Y0044051D03*
X0093551Y0028303D03*
X0093551Y0012555D03*
X0077803Y0012555D03*
X0065992Y0012555D03*
X0054181Y0012555D03*
X0054181Y0020429D03*
X0026622Y0012555D03*
X0010874Y0012555D03*
X0054181Y0047988D03*
X0054181Y0055862D03*
X0054181Y0063736D03*
X0093551Y0107043D03*
X0093551Y0122791D03*
X0073866Y0122791D03*
X0058118Y0122791D03*
X0042370Y0122791D03*
X0031346Y0122004D03*
X0042370Y0138539D03*
X0058118Y0138539D03*
X0073866Y0138539D03*
X0110480Y0138539D03*
X0130953Y0122004D03*
X0141976Y0122791D03*
X0157724Y0122791D03*
X0173472Y0122791D03*
X0173472Y0107043D03*
X0173472Y0095232D03*
X0177409Y0087358D03*
X0193157Y0075547D03*
X0193157Y0059799D03*
X0193157Y0044051D03*
X0193157Y0028303D03*
X0193157Y0012555D03*
X0177409Y0012555D03*
X0165598Y0012555D03*
X0153787Y0012555D03*
X0153787Y0020429D03*
X0126228Y0012555D03*
X0110480Y0012555D03*
X0153787Y0047988D03*
X0153787Y0055862D03*
X0153787Y0063736D03*
X0148669Y0087358D03*
X0141976Y0087358D03*
X0141976Y0095232D03*
X0134102Y0095232D03*
X0134102Y0103106D03*
X0112843Y0095232D03*
X0110480Y0103106D03*
X0110480Y0079484D03*
X0110480Y0071610D03*
X0118354Y0071610D03*
X0118354Y0055862D03*
X0110480Y0055862D03*
X0157724Y0095232D03*
X0157724Y0107043D03*
X0193157Y0107043D03*
X0193157Y0122791D03*
X0173472Y0138539D03*
X0157724Y0138539D03*
X0141976Y0138539D03*
X0010874Y0138539D03*
D19*
X0043157Y0066886D02*
X0043157Y0057043D01*
X0064706Y0055174D02*
X0064706Y0059858D01*
X0064783Y0060497D02*
X0064706Y0060574D01*
X0064706Y0064858D01*
X0064783Y0064097D02*
X0080435Y0064097D01*
X0082213Y0062319D01*
X0064783Y0055097D02*
X0064706Y0055174D01*
X0064706Y0054858D02*
X0064706Y0050674D01*
X0064783Y0050597D01*
X0064706Y0036827D02*
X0064783Y0036750D01*
X0064783Y0036197D01*
X0080933Y0036197D01*
X0082370Y0034760D01*
X0064783Y0036197D02*
X0064783Y0032597D01*
X0064706Y0031827D02*
X0064783Y0031750D01*
X0064783Y0027197D01*
X0064706Y0026827D02*
X0064783Y0026750D01*
X0064783Y0022697D01*
X0043157Y0029484D02*
X0043157Y0034996D01*
X0023214Y0048291D02*
X0016688Y0048291D01*
X0011661Y0043264D01*
X0011661Y0028303D01*
X0020559Y0020980D01*
X0023157Y0020980D01*
X0111268Y0028303D02*
X0120165Y0020980D01*
X0122764Y0020980D01*
X0111268Y0028303D02*
X0111268Y0043264D01*
X0116294Y0048291D01*
X0122820Y0048291D01*
X0142764Y0057043D02*
X0142764Y0066886D01*
X0164312Y0064858D02*
X0164312Y0060574D01*
X0164389Y0060497D01*
X0164312Y0059858D02*
X0164312Y0055174D01*
X0164389Y0055097D01*
X0164312Y0054858D02*
X0164312Y0050674D01*
X0164389Y0050597D01*
X0164312Y0036827D02*
X0164389Y0036750D01*
X0164389Y0036197D01*
X0180539Y0036197D01*
X0181976Y0034760D01*
X0164389Y0036197D02*
X0164389Y0032597D01*
X0164312Y0031827D02*
X0164389Y0031750D01*
X0164389Y0027197D01*
X0164312Y0026827D02*
X0164389Y0026750D01*
X0164389Y0022697D01*
X0142764Y0029484D02*
X0142764Y0034996D01*
X0164389Y0064097D02*
X0180041Y0064097D01*
X0181819Y0062319D01*
D20*
X0137444Y0110109D03*
X0037838Y0110109D03*
D21*
X0034493Y0106383D02*
X0035006Y0105870D01*
X0036843Y0105109D01*
X0038832Y0105109D01*
X0040670Y0105870D01*
X0042077Y0107276D01*
X0042838Y0109114D01*
X0042838Y0110430D01*
X0069184Y0110430D01*
X0078225Y0101389D01*
X0078225Y0099320D01*
X0078614Y0098382D01*
X0078225Y0097444D01*
X0078225Y0091446D01*
X0078712Y0090270D01*
X0078726Y0090256D01*
X0078540Y0089808D01*
X0078425Y0089229D01*
X0078425Y0086571D01*
X0085362Y0086571D01*
X0085362Y0086571D01*
X0078425Y0086571D01*
X0078425Y0083913D01*
X0078540Y0083334D01*
X0078767Y0082788D01*
X0079095Y0082296D01*
X0079513Y0081878D01*
X0080004Y0081550D01*
X0080550Y0081324D01*
X0081130Y0081209D01*
X0085362Y0081209D01*
X0085362Y0086571D01*
X0085362Y0086571D01*
X0085362Y0081209D01*
X0089595Y0081209D01*
X0090174Y0081324D01*
X0090720Y0081550D01*
X0091212Y0081878D01*
X0091629Y0082296D01*
X0091666Y0082350D01*
X0093590Y0082350D01*
X0093590Y0087319D01*
X0093591Y0087319D01*
X0093591Y0082350D01*
X0096051Y0082350D01*
X0096631Y0082466D01*
X0097177Y0082692D01*
X0097668Y0083020D01*
X0098086Y0083438D01*
X0098247Y0083679D01*
X0098680Y0082634D01*
X0098225Y0081537D01*
X0098225Y0079794D01*
X0098761Y0078500D01*
X0098225Y0077206D01*
X0098225Y0075463D01*
X0098680Y0074366D01*
X0098225Y0073269D01*
X0098225Y0071526D01*
X0098761Y0070232D01*
X0098225Y0068938D01*
X0098225Y0067195D01*
X0098680Y0066098D01*
X0098225Y0065001D01*
X0098225Y0063258D01*
X0098761Y0061965D01*
X0098225Y0060671D01*
X0098225Y0058928D01*
X0098680Y0057831D01*
X0098225Y0056734D01*
X0098225Y0054991D01*
X0098892Y0053380D01*
X0098899Y0053374D01*
X0098415Y0052694D01*
X0098415Y0052694D01*
X0098314Y0051990D01*
X0098225Y0051774D01*
X0098225Y0051365D01*
X0098167Y0050960D01*
X0098225Y0050734D01*
X0098225Y0007881D01*
X0006987Y0007881D01*
X0006987Y0021381D01*
X0007016Y0021352D01*
X0007394Y0021195D01*
X0015042Y0014901D01*
X0015914Y0014029D01*
X0016292Y0013872D01*
X0016608Y0013612D01*
X0017788Y0013253D01*
X0018928Y0012780D01*
X0019337Y0012780D01*
X0019728Y0012661D01*
X0020956Y0012780D01*
X0024789Y0012780D01*
X0027802Y0014029D01*
X0030109Y0016335D01*
X0031357Y0019349D01*
X0031357Y0022089D01*
X0036217Y0017230D01*
X0036217Y0012312D01*
X0036704Y0011136D01*
X0037605Y0010236D01*
X0038781Y0009749D01*
X0043991Y0009749D01*
X0044732Y0010056D01*
X0045474Y0009749D01*
X0050684Y0009749D01*
X0051860Y0010236D01*
X0052760Y0011136D01*
X0053247Y0012312D01*
X0053247Y0017916D01*
X0052760Y0019092D01*
X0051860Y0019992D01*
X0050684Y0020480D01*
X0049733Y0020480D01*
X0049305Y0020907D01*
X0049305Y0023663D01*
X0048922Y0024588D01*
X0048990Y0024752D01*
X0049105Y0025331D01*
X0049105Y0026827D01*
X0049105Y0028322D01*
X0048990Y0028902D01*
X0048814Y0029327D01*
X0048990Y0029752D01*
X0049105Y0030331D01*
X0049105Y0031827D01*
X0049105Y0033322D01*
X0048990Y0033902D01*
X0048814Y0034327D01*
X0048990Y0034752D01*
X0049105Y0035331D01*
X0049105Y0036827D01*
X0049105Y0038322D01*
X0049025Y0038725D01*
X0050999Y0038725D01*
X0052175Y0039212D01*
X0053075Y0040113D01*
X0053562Y0041289D01*
X0053562Y0046892D01*
X0053075Y0048069D01*
X0052175Y0048969D01*
X0050999Y0049456D01*
X0049305Y0049456D01*
X0049305Y0051695D01*
X0048922Y0052620D01*
X0048990Y0052783D01*
X0049105Y0053363D01*
X0049105Y0054858D01*
X0043106Y0054858D01*
X0043106Y0054858D01*
X0049105Y0054858D01*
X0049105Y0056354D01*
X0048990Y0056933D01*
X0048814Y0057358D01*
X0048990Y0057783D01*
X0049105Y0058363D01*
X0049105Y0059858D01*
X0043106Y0059858D01*
X0043106Y0059858D01*
X0043106Y0054858D01*
X0043105Y0054858D01*
X0043105Y0055658D01*
X0043105Y0059858D01*
X0043106Y0059858D01*
X0049105Y0059858D01*
X0049105Y0061354D01*
X0048990Y0061933D01*
X0048814Y0062358D01*
X0048990Y0062783D01*
X0049105Y0063363D01*
X0049105Y0064858D01*
X0043106Y0064858D01*
X0043106Y0064858D01*
X0043106Y0059858D01*
X0043105Y0059858D01*
X0043105Y0064058D01*
X0043105Y0064858D01*
X0043106Y0064858D01*
X0049105Y0064858D01*
X0049105Y0066354D01*
X0048990Y0066933D01*
X0048764Y0067479D01*
X0048436Y0067971D01*
X0048018Y0068389D01*
X0047527Y0068717D01*
X0046981Y0068943D01*
X0046401Y0069058D01*
X0043106Y0069058D01*
X0043106Y0064858D01*
X0043105Y0064858D01*
X0043105Y0069058D01*
X0039810Y0069058D01*
X0039230Y0068943D01*
X0038684Y0068717D01*
X0038193Y0068389D01*
X0037883Y0068078D01*
X0037883Y0070233D01*
X0037319Y0071593D01*
X0037071Y0071841D01*
X0037331Y0071948D01*
X0038269Y0071560D01*
X0044266Y0071560D01*
X0045205Y0071948D01*
X0046143Y0071560D01*
X0052140Y0071560D01*
X0053079Y0071948D01*
X0054017Y0071560D01*
X0059811Y0071560D01*
X0057754Y0069503D01*
X0056506Y0066489D01*
X0056506Y0058943D01*
X0056506Y0053543D01*
X0056506Y0049043D01*
X0057754Y0046029D01*
X0060033Y0043750D01*
X0057754Y0041472D01*
X0056506Y0038458D01*
X0056506Y0035196D01*
X0056583Y0035009D01*
X0056583Y0033644D01*
X0056506Y0033458D01*
X0056506Y0030196D01*
X0056583Y0030009D01*
X0056583Y0028644D01*
X0056506Y0028458D01*
X0056506Y0025196D01*
X0056583Y0025009D01*
X0056583Y0021066D01*
X0057831Y0018052D01*
X0060138Y0015745D01*
X0063152Y0014497D01*
X0066414Y0014497D01*
X0069428Y0015745D01*
X0071734Y0018052D01*
X0072983Y0021066D01*
X0072983Y0027997D01*
X0077537Y0027997D01*
X0077663Y0027870D01*
X0075418Y0025625D01*
X0074170Y0022611D01*
X0074170Y0019349D01*
X0075418Y0016335D01*
X0077725Y0014029D01*
X0080739Y0012780D01*
X0084001Y0012780D01*
X0087015Y0014029D01*
X0089322Y0016335D01*
X0090570Y0019349D01*
X0090570Y0022611D01*
X0089322Y0025625D01*
X0087077Y0027870D01*
X0089322Y0030115D01*
X0090570Y0033129D01*
X0090570Y0036391D01*
X0089322Y0039405D01*
X0087015Y0041711D01*
X0086998Y0041728D01*
X0089164Y0043894D01*
X0090413Y0046908D01*
X0090413Y0050170D01*
X0089164Y0053184D01*
X0086919Y0055429D01*
X0089164Y0057674D01*
X0090413Y0060688D01*
X0090413Y0063950D01*
X0089164Y0066964D01*
X0086858Y0069271D01*
X0085080Y0071048D01*
X0082066Y0072297D01*
X0077188Y0072297D01*
X0077839Y0072947D01*
X0078326Y0074123D01*
X0078326Y0083270D01*
X0077839Y0084447D01*
X0076939Y0085347D01*
X0075763Y0085834D01*
X0069765Y0085834D01*
X0068827Y0085445D01*
X0067888Y0085834D01*
X0061891Y0085834D01*
X0060953Y0085445D01*
X0060014Y0085834D01*
X0054017Y0085834D01*
X0053079Y0085445D01*
X0052140Y0085834D01*
X0046143Y0085834D01*
X0045205Y0085445D01*
X0044266Y0085834D01*
X0038269Y0085834D01*
X0037331Y0085445D01*
X0036392Y0085834D01*
X0030683Y0085834D01*
X0030683Y0090933D01*
X0030119Y0092293D01*
X0028720Y0093692D01*
X0028720Y0097444D01*
X0028331Y0098382D01*
X0028720Y0099320D01*
X0028720Y0105318D01*
X0028331Y0106256D01*
X0028364Y0106335D01*
X0034493Y0106383D01*
X0028720Y0104644D02*
X0074970Y0104644D01*
X0078225Y0100645D02*
X0028720Y0100645D01*
X0028720Y0096647D02*
X0078225Y0096647D01*
X0078225Y0092648D02*
X0029764Y0092648D01*
X0030683Y0088650D02*
X0078425Y0088650D01*
X0078425Y0084651D02*
X0077634Y0084651D01*
X0078326Y0080653D02*
X0098225Y0080653D01*
X0098225Y0076654D02*
X0078326Y0076654D01*
X0077547Y0072656D02*
X0098225Y0072656D01*
X0098225Y0068657D02*
X0087471Y0068657D01*
X0090119Y0064659D02*
X0098225Y0064659D01*
X0098225Y0060660D02*
X0090401Y0060660D01*
X0088152Y0056662D02*
X0098225Y0056662D01*
X0098411Y0052663D02*
X0089380Y0052663D01*
X0090413Y0048665D02*
X0098225Y0048665D01*
X0098225Y0044666D02*
X0089484Y0044666D01*
X0087015Y0041711D02*
X0087015Y0041711D01*
X0088059Y0040668D02*
X0098225Y0040668D01*
X0098225Y0036669D02*
X0090455Y0036669D01*
X0090380Y0032671D02*
X0098225Y0032671D01*
X0098225Y0028672D02*
X0087879Y0028672D01*
X0089716Y0024674D02*
X0098225Y0024674D01*
X0098225Y0020675D02*
X0090570Y0020675D01*
X0089463Y0016677D02*
X0098225Y0016677D01*
X0098225Y0012678D02*
X0053247Y0012678D01*
X0053247Y0016677D02*
X0059206Y0016677D01*
X0056744Y0020675D02*
X0049537Y0020675D01*
X0048958Y0024674D02*
X0056583Y0024674D01*
X0056583Y0028672D02*
X0049036Y0028672D01*
X0049105Y0026827D02*
X0043106Y0026827D01*
X0043106Y0026827D01*
X0043105Y0026827D01*
X0043105Y0026827D01*
X0037106Y0026827D01*
X0037106Y0028322D01*
X0037221Y0028902D01*
X0037397Y0029327D01*
X0037221Y0029752D01*
X0037106Y0030331D01*
X0037106Y0031827D01*
X0043105Y0031827D01*
X0043105Y0031827D01*
X0043105Y0032627D01*
X0043105Y0036827D01*
X0043105Y0036827D01*
X0037106Y0036827D01*
X0037106Y0038322D01*
X0037221Y0038902D01*
X0037447Y0039448D01*
X0037542Y0039590D01*
X0037019Y0040113D01*
X0036532Y0041289D01*
X0036532Y0043915D01*
X0036083Y0044364D01*
X0036083Y0027829D01*
X0037106Y0026807D01*
X0037106Y0026827D01*
X0043105Y0026827D01*
X0043105Y0031027D01*
X0043105Y0031827D01*
X0043106Y0031827D01*
X0049105Y0031827D01*
X0043106Y0031827D01*
X0043106Y0031827D01*
X0043106Y0036827D01*
X0049105Y0036827D01*
X0043106Y0036827D01*
X0043106Y0036827D01*
X0043105Y0036827D01*
X0037106Y0036827D01*
X0037106Y0035331D01*
X0037221Y0034752D01*
X0037397Y0034327D01*
X0037221Y0033902D01*
X0037106Y0033322D01*
X0037106Y0031827D01*
X0043105Y0031827D01*
X0043106Y0031827D01*
X0043106Y0026827D01*
X0049105Y0026827D01*
X0049105Y0032671D02*
X0056506Y0032671D01*
X0056506Y0036669D02*
X0049105Y0036669D01*
X0053305Y0040668D02*
X0057421Y0040668D01*
X0059117Y0044666D02*
X0053562Y0044666D01*
X0052479Y0048665D02*
X0056662Y0048665D01*
X0056506Y0052663D02*
X0048941Y0052663D01*
X0049044Y0056662D02*
X0056506Y0056662D01*
X0056506Y0060660D02*
X0049105Y0060660D01*
X0049105Y0064659D02*
X0056506Y0064659D01*
X0057404Y0068657D02*
X0047616Y0068657D01*
X0043106Y0068657D02*
X0043105Y0068657D01*
X0043105Y0064659D02*
X0043106Y0064659D01*
X0043105Y0060660D02*
X0043106Y0060660D01*
X0043105Y0056662D02*
X0043106Y0056662D01*
X0038595Y0068657D02*
X0037883Y0068657D01*
X0023711Y0070236D02*
X0023682Y0070240D01*
X0023158Y0070240D01*
X0023158Y0062240D01*
X0023157Y0062240D01*
X0015157Y0062240D01*
X0015157Y0061716D01*
X0015294Y0060676D01*
X0015566Y0059663D01*
X0015967Y0058694D01*
X0016491Y0057786D01*
X0017130Y0056954D01*
X0017593Y0056491D01*
X0015057Y0056491D01*
X0012043Y0055242D01*
X0007016Y0050215D01*
X0006987Y0050186D01*
X0006987Y0086960D01*
X0007787Y0086160D01*
X0023711Y0070236D01*
X0023157Y0070240D02*
X0022633Y0070240D01*
X0021593Y0070103D01*
X0020580Y0069832D01*
X0019612Y0069431D01*
X0018703Y0068906D01*
X0017871Y0068268D01*
X0017130Y0067526D01*
X0016491Y0066694D01*
X0015967Y0065786D01*
X0015566Y0064817D01*
X0015294Y0063804D01*
X0015157Y0062765D01*
X0015157Y0062240D01*
X0023157Y0062240D01*
X0023157Y0062240D01*
X0023157Y0070240D01*
X0023157Y0068657D02*
X0023158Y0068657D01*
X0021291Y0072656D02*
X0006987Y0072656D01*
X0006987Y0076654D02*
X0017293Y0076654D01*
X0013294Y0080653D02*
X0006987Y0080653D01*
X0006987Y0084651D02*
X0009296Y0084651D01*
X0006987Y0099734D02*
X0006987Y0147150D01*
X0016766Y0147150D01*
X0015833Y0146764D01*
X0014933Y0145864D01*
X0014446Y0144688D01*
X0014446Y0138690D01*
X0014834Y0137752D01*
X0014446Y0136814D01*
X0014446Y0136109D01*
X0010395Y0136109D01*
X0009219Y0135622D01*
X0008319Y0134722D01*
X0007831Y0133546D01*
X0007831Y0128336D01*
X0008139Y0127594D01*
X0007831Y0126853D01*
X0007831Y0121643D01*
X0008122Y0120941D01*
X0007831Y0120239D01*
X0007831Y0115029D01*
X0008139Y0114287D01*
X0007831Y0113546D01*
X0007831Y0108336D01*
X0008319Y0107160D01*
X0009219Y0106260D01*
X0010395Y0105772D01*
X0014634Y0105772D01*
X0014561Y0105597D01*
X0013647Y0105597D01*
X0012287Y0105034D01*
X0011246Y0103993D01*
X0006987Y0099734D01*
X0006987Y0100645D02*
X0007899Y0100645D01*
X0006987Y0104644D02*
X0011897Y0104644D01*
X0007831Y0108642D02*
X0006987Y0108642D01*
X0006987Y0112641D02*
X0007831Y0112641D01*
X0007831Y0116639D02*
X0006987Y0116639D01*
X0006987Y0120638D02*
X0007997Y0120638D01*
X0007831Y0124636D02*
X0006987Y0124636D01*
X0006987Y0128635D02*
X0007831Y0128635D01*
X0007831Y0132633D02*
X0006987Y0132633D01*
X0006987Y0136632D02*
X0014446Y0136632D01*
X0014446Y0140630D02*
X0006987Y0140630D01*
X0006987Y0144629D02*
X0014446Y0144629D01*
X0028720Y0138690D02*
X0028331Y0137752D01*
X0028720Y0136814D01*
X0028720Y0130816D01*
X0028331Y0129878D01*
X0028720Y0128940D01*
X0028720Y0126307D01*
X0030356Y0126985D01*
X0032337Y0126985D01*
X0034168Y0126227D01*
X0035569Y0124825D01*
X0036328Y0122995D01*
X0036328Y0121013D01*
X0035569Y0119182D01*
X0034217Y0117830D01*
X0069981Y0117830D01*
X0071453Y0117830D01*
X0072812Y0117267D01*
X0078225Y0111854D01*
X0078225Y0113192D01*
X0078614Y0114130D01*
X0078225Y0115068D01*
X0078225Y0121066D01*
X0078614Y0122004D01*
X0078225Y0122942D01*
X0078225Y0128940D01*
X0078614Y0129878D01*
X0078225Y0130816D01*
X0078225Y0136814D01*
X0078614Y0137752D01*
X0078225Y0138690D01*
X0078225Y0143391D01*
X0028720Y0143391D01*
X0028720Y0138690D01*
X0028720Y0140630D02*
X0078225Y0140630D01*
X0078225Y0136632D02*
X0028720Y0136632D01*
X0028720Y0132633D02*
X0078225Y0132633D01*
X0078225Y0128635D02*
X0028720Y0128635D01*
X0035648Y0124636D02*
X0078225Y0124636D01*
X0078225Y0120638D02*
X0036172Y0120638D01*
X0042642Y0108642D02*
X0070971Y0108642D01*
X0077438Y0112641D02*
X0078225Y0112641D01*
X0078225Y0116639D02*
X0073440Y0116639D01*
X0092111Y0114130D02*
X0092499Y0113192D01*
X0092499Y0107194D01*
X0092111Y0106256D01*
X0092499Y0105318D01*
X0092499Y0099320D01*
X0092441Y0099180D01*
X0096392Y0099180D01*
X0097569Y0098693D01*
X0098225Y0098036D01*
X0098225Y0147150D01*
X0090179Y0147150D01*
X0091112Y0146764D01*
X0092012Y0145864D01*
X0092499Y0144688D01*
X0092499Y0138690D01*
X0092111Y0137752D01*
X0092499Y0136814D01*
X0092499Y0130816D01*
X0092111Y0129878D01*
X0092499Y0128940D01*
X0092499Y0122942D01*
X0092111Y0122004D01*
X0092499Y0121066D01*
X0092499Y0115068D01*
X0092111Y0114130D01*
X0092499Y0112641D02*
X0098225Y0112641D01*
X0098225Y0116639D02*
X0092499Y0116639D01*
X0092499Y0120638D02*
X0098225Y0120638D01*
X0098225Y0124636D02*
X0092499Y0124636D01*
X0092499Y0128635D02*
X0098225Y0128635D01*
X0098225Y0132633D02*
X0092499Y0132633D01*
X0092499Y0136632D02*
X0098225Y0136632D01*
X0098225Y0140630D02*
X0092499Y0140630D01*
X0092499Y0144629D02*
X0098225Y0144629D01*
X0107381Y0144629D02*
X0114052Y0144629D01*
X0114052Y0144688D02*
X0114052Y0138690D01*
X0114441Y0137752D01*
X0114052Y0136814D01*
X0114052Y0136109D01*
X0110001Y0136109D01*
X0108825Y0135622D01*
X0107925Y0134722D01*
X0107438Y0133546D01*
X0107438Y0128336D01*
X0107745Y0127594D01*
X0107438Y0126853D01*
X0107438Y0121643D01*
X0107729Y0120941D01*
X0107438Y0120239D01*
X0107438Y0115029D01*
X0107745Y0114287D01*
X0107438Y0113546D01*
X0107438Y0108336D01*
X0107925Y0107160D01*
X0108825Y0106260D01*
X0110001Y0105772D01*
X0114240Y0105772D01*
X0114168Y0105597D01*
X0113253Y0105597D01*
X0111893Y0105034D01*
X0110852Y0103993D01*
X0107381Y0100522D01*
X0107381Y0147150D01*
X0116372Y0147150D01*
X0115439Y0146764D01*
X0114539Y0145864D01*
X0114052Y0144688D01*
X0114052Y0140630D02*
X0107381Y0140630D01*
X0107381Y0136632D02*
X0114052Y0136632D01*
X0107438Y0132633D02*
X0107381Y0132633D01*
X0107381Y0128635D02*
X0107438Y0128635D01*
X0107381Y0124636D02*
X0107438Y0124636D01*
X0107381Y0120638D02*
X0107603Y0120638D01*
X0107438Y0116639D02*
X0107381Y0116639D01*
X0107381Y0112641D02*
X0107438Y0112641D01*
X0107381Y0108642D02*
X0107438Y0108642D01*
X0107381Y0104644D02*
X0111503Y0104644D01*
X0107505Y0100645D02*
X0107381Y0100645D01*
X0098225Y0100645D02*
X0092499Y0100645D01*
X0092499Y0104644D02*
X0098225Y0104644D01*
X0098225Y0108642D02*
X0092499Y0108642D01*
X0106665Y0086889D02*
X0107393Y0086160D01*
X0123317Y0070236D01*
X0123288Y0070240D01*
X0122764Y0070240D01*
X0122764Y0062240D01*
X0122764Y0062240D01*
X0114764Y0062240D01*
X0114764Y0061716D01*
X0114901Y0060676D01*
X0115172Y0059663D01*
X0115573Y0058694D01*
X0116098Y0057786D01*
X0116736Y0056954D01*
X0117200Y0056491D01*
X0114663Y0056491D01*
X0111650Y0055242D01*
X0107430Y0051023D01*
X0107381Y0051365D01*
X0107381Y0051774D01*
X0107292Y0051990D01*
X0107191Y0052694D01*
X0106461Y0053720D01*
X0106987Y0054991D01*
X0106987Y0056734D01*
X0106533Y0057831D01*
X0106987Y0058928D01*
X0106987Y0060671D01*
X0106451Y0061965D01*
X0106987Y0063258D01*
X0106987Y0065001D01*
X0106533Y0066098D01*
X0106987Y0067195D01*
X0106987Y0068938D01*
X0106451Y0070232D01*
X0106987Y0071526D01*
X0106987Y0073269D01*
X0106533Y0074366D01*
X0106987Y0075463D01*
X0106987Y0077206D01*
X0106451Y0078500D01*
X0106987Y0079794D01*
X0106987Y0081537D01*
X0106533Y0082634D01*
X0106987Y0083731D01*
X0106987Y0085474D01*
X0106533Y0086571D01*
X0106665Y0086889D01*
X0106987Y0084651D02*
X0108902Y0084651D01*
X0106987Y0080653D02*
X0112900Y0080653D01*
X0116899Y0076654D02*
X0106987Y0076654D01*
X0106987Y0072656D02*
X0120897Y0072656D01*
X0121200Y0070103D02*
X0120187Y0069832D01*
X0119218Y0069431D01*
X0118310Y0068906D01*
X0117478Y0068268D01*
X0116736Y0067526D01*
X0116098Y0066694D01*
X0115573Y0065786D01*
X0115172Y0064817D01*
X0114901Y0063804D01*
X0114764Y0062765D01*
X0114764Y0062240D01*
X0122764Y0062240D01*
X0122764Y0062240D01*
X0122764Y0070240D01*
X0122239Y0070240D01*
X0121200Y0070103D01*
X0122764Y0068657D02*
X0122764Y0068657D01*
X0122764Y0064659D02*
X0122764Y0064659D01*
X0117985Y0068657D02*
X0106987Y0068657D01*
X0106987Y0064659D02*
X0115130Y0064659D01*
X0114905Y0060660D02*
X0106987Y0060660D01*
X0106987Y0056662D02*
X0117028Y0056662D01*
X0109071Y0052663D02*
X0107196Y0052663D01*
X0107191Y0052694D02*
X0107191Y0052694D01*
X0135689Y0044364D02*
X0136139Y0043915D01*
X0136139Y0041289D01*
X0136626Y0040113D01*
X0137148Y0039590D01*
X0137053Y0039448D01*
X0136827Y0038902D01*
X0136712Y0038322D01*
X0136712Y0036827D01*
X0142712Y0036827D01*
X0148712Y0036827D01*
X0148712Y0038322D01*
X0148632Y0038725D01*
X0150605Y0038725D01*
X0151781Y0039212D01*
X0152681Y0040113D01*
X0153168Y0041289D01*
X0153168Y0046892D01*
X0152681Y0048069D01*
X0151781Y0048969D01*
X0150605Y0049456D01*
X0148912Y0049456D01*
X0148912Y0051695D01*
X0148529Y0052620D01*
X0148597Y0052783D01*
X0148712Y0053363D01*
X0148712Y0054858D01*
X0142712Y0054858D01*
X0142712Y0054858D01*
X0148712Y0054858D01*
X0148712Y0056354D01*
X0148597Y0056933D01*
X0148420Y0057358D01*
X0148597Y0057783D01*
X0148712Y0058363D01*
X0148712Y0059858D01*
X0142712Y0059858D01*
X0142712Y0054858D01*
X0142712Y0054858D01*
X0142712Y0059058D01*
X0142712Y0059858D01*
X0142712Y0059858D01*
X0142712Y0059858D01*
X0148712Y0059858D01*
X0148712Y0061354D01*
X0148597Y0061933D01*
X0148420Y0062358D01*
X0148597Y0062783D01*
X0148712Y0063363D01*
X0148712Y0064858D01*
X0142712Y0064858D01*
X0142712Y0059858D01*
X0142712Y0059858D01*
X0142712Y0064058D01*
X0142712Y0064858D01*
X0142712Y0064858D01*
X0142712Y0064858D01*
X0148712Y0064858D01*
X0148712Y0066354D01*
X0148597Y0066933D01*
X0148370Y0067479D01*
X0148042Y0067971D01*
X0147624Y0068389D01*
X0147133Y0068717D01*
X0146587Y0068943D01*
X0146007Y0069058D01*
X0142712Y0069058D01*
X0142712Y0064858D01*
X0142712Y0064858D01*
X0142712Y0069058D01*
X0139416Y0069058D01*
X0138837Y0068943D01*
X0138291Y0068717D01*
X0137799Y0068389D01*
X0137489Y0068078D01*
X0137489Y0070233D01*
X0136926Y0071593D01*
X0136677Y0071841D01*
X0136937Y0071948D01*
X0137875Y0071560D01*
X0143873Y0071560D01*
X0144811Y0071948D01*
X0145749Y0071560D01*
X0151747Y0071560D01*
X0152685Y0071948D01*
X0153623Y0071560D01*
X0159417Y0071560D01*
X0157360Y0069503D01*
X0156112Y0066489D01*
X0156112Y0061489D01*
X0156112Y0049043D01*
X0157360Y0046029D01*
X0159639Y0043750D01*
X0157360Y0041472D01*
X0156112Y0038458D01*
X0156112Y0035196D01*
X0156189Y0035009D01*
X0156189Y0033644D01*
X0156112Y0033458D01*
X0156112Y0030196D01*
X0156189Y0030009D01*
X0156189Y0028644D01*
X0156112Y0028458D01*
X0156112Y0025196D01*
X0156189Y0025009D01*
X0156189Y0021066D01*
X0157437Y0018052D01*
X0159744Y0015745D01*
X0162758Y0014497D01*
X0166020Y0014497D01*
X0169034Y0015745D01*
X0171341Y0018052D01*
X0172589Y0021066D01*
X0172589Y0027997D01*
X0177143Y0027997D01*
X0177270Y0027870D01*
X0175025Y0025625D01*
X0173776Y0022611D01*
X0173776Y0019349D01*
X0175025Y0016335D01*
X0177331Y0014029D01*
X0180345Y0012780D01*
X0183607Y0012780D01*
X0186621Y0014029D01*
X0188928Y0016335D01*
X0190176Y0019349D01*
X0190176Y0022611D01*
X0188928Y0025625D01*
X0186683Y0027870D01*
X0188928Y0030115D01*
X0190176Y0033129D01*
X0190176Y0036391D01*
X0188928Y0039405D01*
X0187491Y0040842D01*
X0186604Y0041728D01*
X0188771Y0043894D01*
X0190019Y0046908D01*
X0190019Y0050170D01*
X0188771Y0053184D01*
X0186526Y0055429D01*
X0188771Y0057674D01*
X0190019Y0060688D01*
X0190019Y0063950D01*
X0188771Y0066964D01*
X0186464Y0069271D01*
X0186464Y0069271D01*
X0184686Y0071048D01*
X0181672Y0072297D01*
X0176795Y0072297D01*
X0177445Y0072947D01*
X0177932Y0074123D01*
X0177932Y0083270D01*
X0177445Y0084447D01*
X0176545Y0085347D01*
X0175369Y0085834D01*
X0169371Y0085834D01*
X0168433Y0085445D01*
X0167495Y0085834D01*
X0161497Y0085834D01*
X0160559Y0085445D01*
X0159621Y0085834D01*
X0153623Y0085834D01*
X0152685Y0085445D01*
X0151747Y0085834D01*
X0145749Y0085834D01*
X0144811Y0085445D01*
X0143873Y0085834D01*
X0137875Y0085834D01*
X0136937Y0085445D01*
X0135999Y0085834D01*
X0130289Y0085834D01*
X0130289Y0090933D01*
X0129726Y0092293D01*
X0128326Y0093692D01*
X0128326Y0097444D01*
X0127937Y0098382D01*
X0128326Y0099320D01*
X0128326Y0105318D01*
X0127937Y0106256D01*
X0127970Y0106335D01*
X0134099Y0106383D01*
X0134612Y0105870D01*
X0136450Y0105109D01*
X0138439Y0105109D01*
X0140276Y0105870D01*
X0141683Y0107276D01*
X0142444Y0109114D01*
X0142444Y0110430D01*
X0168790Y0110430D01*
X0177831Y0101389D01*
X0177831Y0099320D01*
X0178220Y0098382D01*
X0177831Y0097444D01*
X0177831Y0091446D01*
X0178319Y0090270D01*
X0178332Y0090256D01*
X0178147Y0089808D01*
X0178031Y0089229D01*
X0178031Y0086571D01*
X0184968Y0086571D01*
X0184968Y0086571D01*
X0178031Y0086571D01*
X0178031Y0083913D01*
X0178147Y0083334D01*
X0178373Y0082788D01*
X0178701Y0082296D01*
X0179119Y0081878D01*
X0179610Y0081550D01*
X0180156Y0081324D01*
X0180736Y0081209D01*
X0184968Y0081209D01*
X0184968Y0086571D01*
X0184969Y0086571D01*
X0184969Y0081209D01*
X0189201Y0081209D01*
X0189781Y0081324D01*
X0190327Y0081550D01*
X0190818Y0081878D01*
X0191236Y0082296D01*
X0191272Y0082350D01*
X0193197Y0082350D01*
X0195658Y0082350D01*
X0196237Y0082466D01*
X0196783Y0082692D01*
X0197275Y0083020D01*
X0197438Y0083183D01*
X0197438Y0007881D01*
X0107381Y0007881D01*
X0107381Y0020882D01*
X0114648Y0014901D01*
X0115520Y0014029D01*
X0115898Y0013872D01*
X0116214Y0013612D01*
X0117394Y0013253D01*
X0118534Y0012780D01*
X0118943Y0012780D01*
X0119334Y0012661D01*
X0120562Y0012780D01*
X0124395Y0012780D01*
X0127409Y0014029D01*
X0129715Y0016335D01*
X0130964Y0019349D01*
X0130964Y0022089D01*
X0135824Y0017230D01*
X0135824Y0012312D01*
X0136311Y0011136D01*
X0137211Y0010236D01*
X0138387Y0009749D01*
X0143597Y0009749D01*
X0144339Y0010056D01*
X0145080Y0009749D01*
X0150290Y0009749D01*
X0151466Y0010236D01*
X0152366Y0011136D01*
X0152854Y0012312D01*
X0152854Y0017916D01*
X0152366Y0019092D01*
X0151466Y0019992D01*
X0150290Y0020480D01*
X0149339Y0020480D01*
X0148912Y0020907D01*
X0148912Y0023663D01*
X0148529Y0024588D01*
X0148597Y0024752D01*
X0148712Y0025331D01*
X0148712Y0026827D01*
X0148712Y0028322D01*
X0148597Y0028902D01*
X0148420Y0029327D01*
X0148597Y0029752D01*
X0148712Y0030331D01*
X0148712Y0031827D01*
X0148712Y0033322D01*
X0148597Y0033902D01*
X0148420Y0034327D01*
X0148597Y0034752D01*
X0148712Y0035331D01*
X0148712Y0036827D01*
X0142712Y0036827D01*
X0142712Y0036827D01*
X0142712Y0036827D01*
X0142712Y0031827D01*
X0142712Y0031827D01*
X0148712Y0031827D01*
X0142712Y0031827D01*
X0142712Y0031827D01*
X0142712Y0036027D01*
X0142712Y0036827D01*
X0142712Y0036827D01*
X0136712Y0036827D01*
X0136712Y0035331D01*
X0136827Y0034752D01*
X0137003Y0034327D01*
X0136827Y0033902D01*
X0136712Y0033322D01*
X0136712Y0031827D01*
X0142712Y0031827D01*
X0142712Y0031827D01*
X0142712Y0026827D01*
X0142712Y0026827D01*
X0148712Y0026827D01*
X0142712Y0026827D01*
X0142712Y0026827D01*
X0142712Y0031027D01*
X0142712Y0031827D01*
X0142712Y0031827D01*
X0136712Y0031827D01*
X0136712Y0030331D01*
X0136827Y0029752D01*
X0137003Y0029327D01*
X0136827Y0028902D01*
X0136712Y0028322D01*
X0136712Y0026827D01*
X0142712Y0026827D01*
X0142712Y0026827D01*
X0136712Y0026827D01*
X0136712Y0026807D01*
X0135689Y0027829D01*
X0135689Y0044364D01*
X0135689Y0040668D02*
X0136396Y0040668D01*
X0136712Y0036669D02*
X0135689Y0036669D01*
X0135689Y0032671D02*
X0136712Y0032671D01*
X0136781Y0028672D02*
X0135689Y0028672D01*
X0142712Y0028672D02*
X0142712Y0028672D01*
X0142712Y0032671D02*
X0142712Y0032671D01*
X0142712Y0036669D02*
X0142712Y0036669D01*
X0148712Y0036669D02*
X0156112Y0036669D01*
X0156112Y0032671D02*
X0148712Y0032671D01*
X0148642Y0028672D02*
X0156189Y0028672D01*
X0156189Y0024674D02*
X0148564Y0024674D01*
X0149143Y0020675D02*
X0156351Y0020675D01*
X0158813Y0016677D02*
X0152854Y0016677D01*
X0152854Y0012678D02*
X0197438Y0012678D01*
X0197438Y0016677D02*
X0189069Y0016677D01*
X0190176Y0020675D02*
X0197438Y0020675D01*
X0197438Y0024674D02*
X0189322Y0024674D01*
X0187485Y0028672D02*
X0197438Y0028672D01*
X0197438Y0032671D02*
X0189987Y0032671D01*
X0190061Y0036669D02*
X0197438Y0036669D01*
X0197438Y0040668D02*
X0187665Y0040668D01*
X0187491Y0040842D02*
X0187491Y0040842D01*
X0189090Y0044666D02*
X0197438Y0044666D01*
X0197438Y0048665D02*
X0190019Y0048665D01*
X0188986Y0052663D02*
X0197438Y0052663D01*
X0197438Y0056662D02*
X0187758Y0056662D01*
X0190007Y0060660D02*
X0197438Y0060660D01*
X0197438Y0064659D02*
X0189725Y0064659D01*
X0187077Y0068657D02*
X0197438Y0068657D01*
X0197438Y0072656D02*
X0177154Y0072656D01*
X0177932Y0076654D02*
X0197438Y0076654D01*
X0197438Y0080653D02*
X0177932Y0080653D01*
X0178031Y0084651D02*
X0177240Y0084651D01*
X0178031Y0088650D02*
X0130289Y0088650D01*
X0129370Y0092648D02*
X0177831Y0092648D01*
X0177831Y0096647D02*
X0128326Y0096647D01*
X0128326Y0100645D02*
X0177831Y0100645D01*
X0174576Y0104644D02*
X0128326Y0104644D01*
X0142249Y0108642D02*
X0170578Y0108642D01*
X0177044Y0112641D02*
X0177831Y0112641D01*
X0177831Y0113192D02*
X0177831Y0111854D01*
X0172419Y0117267D01*
X0171059Y0117830D01*
X0169587Y0117830D01*
X0133823Y0117830D01*
X0135176Y0119182D01*
X0135934Y0121013D01*
X0135934Y0122995D01*
X0135176Y0124825D01*
X0133774Y0126227D01*
X0131944Y0126985D01*
X0129962Y0126985D01*
X0128326Y0126307D01*
X0128326Y0128940D01*
X0127937Y0129878D01*
X0128326Y0130816D01*
X0128326Y0136814D01*
X0127937Y0137752D01*
X0128326Y0138690D01*
X0128326Y0143391D01*
X0177831Y0143391D01*
X0177831Y0138690D01*
X0178220Y0137752D01*
X0177831Y0136814D01*
X0177831Y0130816D01*
X0178220Y0129878D01*
X0177831Y0128940D01*
X0177831Y0122942D01*
X0178220Y0122004D01*
X0177831Y0121066D01*
X0177831Y0115068D01*
X0178220Y0114130D01*
X0177831Y0113192D01*
X0177831Y0116639D02*
X0173046Y0116639D01*
X0177831Y0120638D02*
X0135778Y0120638D01*
X0135254Y0124636D02*
X0177831Y0124636D01*
X0177831Y0128635D02*
X0128326Y0128635D01*
X0128326Y0132633D02*
X0177831Y0132633D01*
X0177831Y0136632D02*
X0128326Y0136632D01*
X0128326Y0140630D02*
X0177831Y0140630D01*
X0189785Y0147150D02*
X0197438Y0147150D01*
X0197438Y0098430D01*
X0197175Y0098693D01*
X0195999Y0099180D01*
X0192048Y0099180D01*
X0192105Y0099320D01*
X0192105Y0105318D01*
X0191717Y0106256D01*
X0192105Y0107194D01*
X0192105Y0113192D01*
X0191717Y0114130D01*
X0192105Y0115068D01*
X0192105Y0121066D01*
X0191717Y0122004D01*
X0192105Y0122942D01*
X0192105Y0128940D01*
X0191717Y0129878D01*
X0192105Y0130816D01*
X0192105Y0136814D01*
X0191717Y0137752D01*
X0192105Y0138690D01*
X0192105Y0144688D01*
X0191618Y0145864D01*
X0190718Y0146764D01*
X0189785Y0147150D01*
X0192105Y0144629D02*
X0197438Y0144629D01*
X0197438Y0140630D02*
X0192105Y0140630D01*
X0192105Y0136632D02*
X0197438Y0136632D01*
X0197438Y0132633D02*
X0192105Y0132633D01*
X0192105Y0128635D02*
X0197438Y0128635D01*
X0197438Y0124636D02*
X0192105Y0124636D01*
X0192105Y0120638D02*
X0197438Y0120638D01*
X0197438Y0116639D02*
X0192105Y0116639D01*
X0192105Y0112641D02*
X0197438Y0112641D01*
X0197438Y0108642D02*
X0192105Y0108642D01*
X0192105Y0104644D02*
X0197438Y0104644D01*
X0197438Y0100645D02*
X0192105Y0100645D01*
X0193197Y0087319D02*
X0193197Y0082350D01*
X0193197Y0087319D01*
X0193197Y0087319D01*
X0193197Y0084651D02*
X0193197Y0084651D01*
X0184969Y0084651D02*
X0184968Y0084651D01*
X0157010Y0068657D02*
X0147222Y0068657D01*
X0142712Y0068657D02*
X0142712Y0068657D01*
X0138202Y0068657D02*
X0137489Y0068657D01*
X0142712Y0064659D02*
X0142712Y0064659D01*
X0142712Y0060660D02*
X0142712Y0060660D01*
X0142712Y0056662D02*
X0142712Y0056662D01*
X0148651Y0056662D02*
X0156112Y0056662D01*
X0156112Y0060660D02*
X0148712Y0060660D01*
X0148712Y0064659D02*
X0156112Y0064659D01*
X0156112Y0052663D02*
X0148547Y0052663D01*
X0152085Y0048665D02*
X0156268Y0048665D01*
X0158723Y0044666D02*
X0153168Y0044666D01*
X0152911Y0040668D02*
X0157027Y0040668D01*
X0172589Y0024674D02*
X0174631Y0024674D01*
X0173776Y0020675D02*
X0172427Y0020675D01*
X0174883Y0016677D02*
X0169965Y0016677D01*
X0197438Y0008680D02*
X0107381Y0008680D01*
X0107381Y0012678D02*
X0119278Y0012678D01*
X0119510Y0012678D02*
X0135824Y0012678D01*
X0135824Y0016677D02*
X0129857Y0016677D01*
X0130964Y0020675D02*
X0132378Y0020675D01*
X0112491Y0016677D02*
X0107381Y0016677D01*
X0107381Y0020675D02*
X0107632Y0020675D01*
X0098225Y0008680D02*
X0006987Y0008680D01*
X0006987Y0012678D02*
X0019672Y0012678D01*
X0019904Y0012678D02*
X0036217Y0012678D01*
X0036217Y0016677D02*
X0030250Y0016677D01*
X0031357Y0020675D02*
X0032772Y0020675D01*
X0036083Y0028672D02*
X0037175Y0028672D01*
X0037106Y0032671D02*
X0036083Y0032671D01*
X0036083Y0036669D02*
X0037106Y0036669D01*
X0036789Y0040668D02*
X0036083Y0040668D01*
X0043105Y0036669D02*
X0043106Y0036669D01*
X0043105Y0032671D02*
X0043106Y0032671D01*
X0043105Y0028672D02*
X0043106Y0028672D01*
X0070359Y0016677D02*
X0075277Y0016677D01*
X0074170Y0020675D02*
X0072821Y0020675D01*
X0072983Y0024674D02*
X0075024Y0024674D01*
X0023158Y0064659D02*
X0023157Y0064659D01*
X0018379Y0068657D02*
X0006987Y0068657D01*
X0006987Y0064659D02*
X0015523Y0064659D01*
X0015299Y0060660D02*
X0006987Y0060660D01*
X0006987Y0056662D02*
X0017422Y0056662D01*
X0009464Y0052663D02*
X0006987Y0052663D01*
X0006987Y0020675D02*
X0008026Y0020675D01*
X0006987Y0016677D02*
X0012884Y0016677D01*
X0085362Y0084651D02*
X0085362Y0084651D01*
X0093590Y0084651D02*
X0093591Y0084651D01*
M02*
