G75*
%MOIN*%
%OFA0B0*%
%FSLAX25Y25*%
%IPPOS*%
%LPD*%
%AMOC8*
5,1,8,0,0,1.08239X$1,22.5*
%
%ADD10C,0.00000*%
%ADD11R,0.11811X0.11811*%
%ADD12C,0.10000*%
%ADD13R,0.06000X0.02400*%
%ADD14R,0.03937X0.04331*%
%ADD15C,0.01000*%
%ADD16C,0.03562*%
%ADD17C,0.10000*%
%ADD18C,0.03600*%
%ADD19C,0.05000*%
D10*
X0003787Y0004681D02*
X0003787Y0150350D01*
X0101425Y0150350D01*
X0101425Y0096807D01*
X0101427Y0096734D01*
X0101433Y0096661D01*
X0101443Y0096588D01*
X0101456Y0096516D01*
X0101474Y0096444D01*
X0101495Y0096374D01*
X0101520Y0096305D01*
X0101548Y0096238D01*
X0101580Y0096172D01*
X0101616Y0096107D01*
X0101655Y0096045D01*
X0101697Y0095985D01*
X0101742Y0095927D01*
X0101790Y0095872D01*
X0101842Y0095820D01*
X0101896Y0095770D01*
X0101952Y0095723D01*
X0102011Y0095679D01*
X0102072Y0095639D01*
X0102135Y0095602D01*
X0102200Y0095568D01*
X0102267Y0095537D01*
X0102336Y0095511D01*
X0102405Y0095488D01*
X0102476Y0095468D01*
X0102548Y0095453D01*
X0102620Y0095441D01*
X0102693Y0095433D01*
X0102766Y0095429D01*
X0102840Y0095429D01*
X0102913Y0095433D01*
X0102986Y0095441D01*
X0103058Y0095453D01*
X0103130Y0095468D01*
X0103201Y0095488D01*
X0103270Y0095511D01*
X0103339Y0095537D01*
X0103406Y0095568D01*
X0103471Y0095602D01*
X0103534Y0095639D01*
X0103595Y0095679D01*
X0103654Y0095723D01*
X0103710Y0095770D01*
X0103764Y0095820D01*
X0103816Y0095872D01*
X0103864Y0095927D01*
X0103909Y0095985D01*
X0103951Y0096045D01*
X0103990Y0096107D01*
X0104026Y0096172D01*
X0104058Y0096238D01*
X0104086Y0096305D01*
X0104111Y0096374D01*
X0104132Y0096444D01*
X0104150Y0096516D01*
X0104163Y0096588D01*
X0104173Y0096661D01*
X0104179Y0096734D01*
X0104181Y0096807D01*
X0104181Y0150350D01*
X0200638Y0150350D01*
X0200638Y0004681D01*
X0104181Y0004681D01*
X0104181Y0051138D01*
X0104169Y0051210D01*
X0104153Y0051282D01*
X0104133Y0051353D01*
X0104109Y0051423D01*
X0104082Y0051491D01*
X0104051Y0051558D01*
X0104016Y0051623D01*
X0103978Y0051687D01*
X0103937Y0051748D01*
X0103893Y0051807D01*
X0103846Y0051863D01*
X0103796Y0051917D01*
X0103743Y0051968D01*
X0103687Y0052016D01*
X0103629Y0052062D01*
X0103568Y0052104D01*
X0103506Y0052143D01*
X0103441Y0052178D01*
X0103375Y0052210D01*
X0103307Y0052239D01*
X0103238Y0052263D01*
X0103167Y0052285D01*
X0103095Y0052302D01*
X0103023Y0052315D01*
X0102950Y0052325D01*
X0102877Y0052331D01*
X0102803Y0052333D01*
X0102729Y0052331D01*
X0102656Y0052325D01*
X0102583Y0052315D01*
X0102511Y0052302D01*
X0102439Y0052285D01*
X0102368Y0052263D01*
X0102299Y0052239D01*
X0102231Y0052210D01*
X0102165Y0052178D01*
X0102100Y0052143D01*
X0102038Y0052104D01*
X0101977Y0052062D01*
X0101919Y0052016D01*
X0101863Y0051968D01*
X0101810Y0051917D01*
X0101760Y0051863D01*
X0101713Y0051807D01*
X0101669Y0051748D01*
X0101628Y0051687D01*
X0101590Y0051623D01*
X0101555Y0051558D01*
X0101524Y0051491D01*
X0101497Y0051423D01*
X0101473Y0051353D01*
X0101453Y0051282D01*
X0101437Y0051210D01*
X0101425Y0051138D01*
X0101425Y0004681D01*
X0003787Y0004681D01*
X0101425Y0055862D02*
X0101427Y0055931D01*
X0101433Y0055999D01*
X0101443Y0056067D01*
X0101457Y0056134D01*
X0101475Y0056201D01*
X0101496Y0056266D01*
X0101522Y0056330D01*
X0101551Y0056392D01*
X0101583Y0056452D01*
X0101619Y0056511D01*
X0101659Y0056567D01*
X0101701Y0056621D01*
X0101747Y0056672D01*
X0101796Y0056721D01*
X0101847Y0056767D01*
X0101901Y0056809D01*
X0101957Y0056849D01*
X0102015Y0056885D01*
X0102076Y0056917D01*
X0102138Y0056946D01*
X0102202Y0056972D01*
X0102267Y0056993D01*
X0102334Y0057011D01*
X0102401Y0057025D01*
X0102469Y0057035D01*
X0102537Y0057041D01*
X0102606Y0057043D01*
X0102675Y0057041D01*
X0102743Y0057035D01*
X0102811Y0057025D01*
X0102878Y0057011D01*
X0102945Y0056993D01*
X0103010Y0056972D01*
X0103074Y0056946D01*
X0103136Y0056917D01*
X0103196Y0056885D01*
X0103255Y0056849D01*
X0103311Y0056809D01*
X0103365Y0056767D01*
X0103416Y0056721D01*
X0103465Y0056672D01*
X0103511Y0056621D01*
X0103553Y0056567D01*
X0103593Y0056511D01*
X0103629Y0056452D01*
X0103661Y0056392D01*
X0103690Y0056330D01*
X0103716Y0056266D01*
X0103737Y0056201D01*
X0103755Y0056134D01*
X0103769Y0056067D01*
X0103779Y0055999D01*
X0103785Y0055931D01*
X0103787Y0055862D01*
X0103785Y0055793D01*
X0103779Y0055725D01*
X0103769Y0055657D01*
X0103755Y0055590D01*
X0103737Y0055523D01*
X0103716Y0055458D01*
X0103690Y0055394D01*
X0103661Y0055332D01*
X0103629Y0055271D01*
X0103593Y0055213D01*
X0103553Y0055157D01*
X0103511Y0055103D01*
X0103465Y0055052D01*
X0103416Y0055003D01*
X0103365Y0054957D01*
X0103311Y0054915D01*
X0103255Y0054875D01*
X0103197Y0054839D01*
X0103136Y0054807D01*
X0103074Y0054778D01*
X0103010Y0054752D01*
X0102945Y0054731D01*
X0102878Y0054713D01*
X0102811Y0054699D01*
X0102743Y0054689D01*
X0102675Y0054683D01*
X0102606Y0054681D01*
X0102537Y0054683D01*
X0102469Y0054689D01*
X0102401Y0054699D01*
X0102334Y0054713D01*
X0102267Y0054731D01*
X0102202Y0054752D01*
X0102138Y0054778D01*
X0102076Y0054807D01*
X0102015Y0054839D01*
X0101957Y0054875D01*
X0101901Y0054915D01*
X0101847Y0054957D01*
X0101796Y0055003D01*
X0101747Y0055052D01*
X0101701Y0055103D01*
X0101659Y0055157D01*
X0101619Y0055213D01*
X0101583Y0055271D01*
X0101551Y0055332D01*
X0101522Y0055394D01*
X0101496Y0055458D01*
X0101475Y0055523D01*
X0101457Y0055590D01*
X0101443Y0055657D01*
X0101433Y0055725D01*
X0101427Y0055793D01*
X0101425Y0055862D01*
X0101425Y0059799D02*
X0101427Y0059868D01*
X0101433Y0059936D01*
X0101443Y0060004D01*
X0101457Y0060071D01*
X0101475Y0060138D01*
X0101496Y0060203D01*
X0101522Y0060267D01*
X0101551Y0060329D01*
X0101583Y0060389D01*
X0101619Y0060448D01*
X0101659Y0060504D01*
X0101701Y0060558D01*
X0101747Y0060609D01*
X0101796Y0060658D01*
X0101847Y0060704D01*
X0101901Y0060746D01*
X0101957Y0060786D01*
X0102015Y0060822D01*
X0102076Y0060854D01*
X0102138Y0060883D01*
X0102202Y0060909D01*
X0102267Y0060930D01*
X0102334Y0060948D01*
X0102401Y0060962D01*
X0102469Y0060972D01*
X0102537Y0060978D01*
X0102606Y0060980D01*
X0102675Y0060978D01*
X0102743Y0060972D01*
X0102811Y0060962D01*
X0102878Y0060948D01*
X0102945Y0060930D01*
X0103010Y0060909D01*
X0103074Y0060883D01*
X0103136Y0060854D01*
X0103196Y0060822D01*
X0103255Y0060786D01*
X0103311Y0060746D01*
X0103365Y0060704D01*
X0103416Y0060658D01*
X0103465Y0060609D01*
X0103511Y0060558D01*
X0103553Y0060504D01*
X0103593Y0060448D01*
X0103629Y0060389D01*
X0103661Y0060329D01*
X0103690Y0060267D01*
X0103716Y0060203D01*
X0103737Y0060138D01*
X0103755Y0060071D01*
X0103769Y0060004D01*
X0103779Y0059936D01*
X0103785Y0059868D01*
X0103787Y0059799D01*
X0103785Y0059730D01*
X0103779Y0059662D01*
X0103769Y0059594D01*
X0103755Y0059527D01*
X0103737Y0059460D01*
X0103716Y0059395D01*
X0103690Y0059331D01*
X0103661Y0059269D01*
X0103629Y0059208D01*
X0103593Y0059150D01*
X0103553Y0059094D01*
X0103511Y0059040D01*
X0103465Y0058989D01*
X0103416Y0058940D01*
X0103365Y0058894D01*
X0103311Y0058852D01*
X0103255Y0058812D01*
X0103197Y0058776D01*
X0103136Y0058744D01*
X0103074Y0058715D01*
X0103010Y0058689D01*
X0102945Y0058668D01*
X0102878Y0058650D01*
X0102811Y0058636D01*
X0102743Y0058626D01*
X0102675Y0058620D01*
X0102606Y0058618D01*
X0102537Y0058620D01*
X0102469Y0058626D01*
X0102401Y0058636D01*
X0102334Y0058650D01*
X0102267Y0058668D01*
X0102202Y0058689D01*
X0102138Y0058715D01*
X0102076Y0058744D01*
X0102015Y0058776D01*
X0101957Y0058812D01*
X0101901Y0058852D01*
X0101847Y0058894D01*
X0101796Y0058940D01*
X0101747Y0058989D01*
X0101701Y0059040D01*
X0101659Y0059094D01*
X0101619Y0059150D01*
X0101583Y0059208D01*
X0101551Y0059269D01*
X0101522Y0059331D01*
X0101496Y0059395D01*
X0101475Y0059460D01*
X0101457Y0059527D01*
X0101443Y0059594D01*
X0101433Y0059662D01*
X0101427Y0059730D01*
X0101425Y0059799D01*
X0101425Y0064130D02*
X0101427Y0064199D01*
X0101433Y0064267D01*
X0101443Y0064335D01*
X0101457Y0064402D01*
X0101475Y0064469D01*
X0101496Y0064534D01*
X0101522Y0064598D01*
X0101551Y0064660D01*
X0101583Y0064720D01*
X0101619Y0064779D01*
X0101659Y0064835D01*
X0101701Y0064889D01*
X0101747Y0064940D01*
X0101796Y0064989D01*
X0101847Y0065035D01*
X0101901Y0065077D01*
X0101957Y0065117D01*
X0102015Y0065153D01*
X0102076Y0065185D01*
X0102138Y0065214D01*
X0102202Y0065240D01*
X0102267Y0065261D01*
X0102334Y0065279D01*
X0102401Y0065293D01*
X0102469Y0065303D01*
X0102537Y0065309D01*
X0102606Y0065311D01*
X0102675Y0065309D01*
X0102743Y0065303D01*
X0102811Y0065293D01*
X0102878Y0065279D01*
X0102945Y0065261D01*
X0103010Y0065240D01*
X0103074Y0065214D01*
X0103136Y0065185D01*
X0103196Y0065153D01*
X0103255Y0065117D01*
X0103311Y0065077D01*
X0103365Y0065035D01*
X0103416Y0064989D01*
X0103465Y0064940D01*
X0103511Y0064889D01*
X0103553Y0064835D01*
X0103593Y0064779D01*
X0103629Y0064720D01*
X0103661Y0064660D01*
X0103690Y0064598D01*
X0103716Y0064534D01*
X0103737Y0064469D01*
X0103755Y0064402D01*
X0103769Y0064335D01*
X0103779Y0064267D01*
X0103785Y0064199D01*
X0103787Y0064130D01*
X0103785Y0064061D01*
X0103779Y0063993D01*
X0103769Y0063925D01*
X0103755Y0063858D01*
X0103737Y0063791D01*
X0103716Y0063726D01*
X0103690Y0063662D01*
X0103661Y0063600D01*
X0103629Y0063539D01*
X0103593Y0063481D01*
X0103553Y0063425D01*
X0103511Y0063371D01*
X0103465Y0063320D01*
X0103416Y0063271D01*
X0103365Y0063225D01*
X0103311Y0063183D01*
X0103255Y0063143D01*
X0103197Y0063107D01*
X0103136Y0063075D01*
X0103074Y0063046D01*
X0103010Y0063020D01*
X0102945Y0062999D01*
X0102878Y0062981D01*
X0102811Y0062967D01*
X0102743Y0062957D01*
X0102675Y0062951D01*
X0102606Y0062949D01*
X0102537Y0062951D01*
X0102469Y0062957D01*
X0102401Y0062967D01*
X0102334Y0062981D01*
X0102267Y0062999D01*
X0102202Y0063020D01*
X0102138Y0063046D01*
X0102076Y0063075D01*
X0102015Y0063107D01*
X0101957Y0063143D01*
X0101901Y0063183D01*
X0101847Y0063225D01*
X0101796Y0063271D01*
X0101747Y0063320D01*
X0101701Y0063371D01*
X0101659Y0063425D01*
X0101619Y0063481D01*
X0101583Y0063539D01*
X0101551Y0063600D01*
X0101522Y0063662D01*
X0101496Y0063726D01*
X0101475Y0063791D01*
X0101457Y0063858D01*
X0101443Y0063925D01*
X0101433Y0063993D01*
X0101427Y0064061D01*
X0101425Y0064130D01*
X0101425Y0068067D02*
X0101427Y0068136D01*
X0101433Y0068204D01*
X0101443Y0068272D01*
X0101457Y0068339D01*
X0101475Y0068406D01*
X0101496Y0068471D01*
X0101522Y0068535D01*
X0101551Y0068597D01*
X0101583Y0068657D01*
X0101619Y0068716D01*
X0101659Y0068772D01*
X0101701Y0068826D01*
X0101747Y0068877D01*
X0101796Y0068926D01*
X0101847Y0068972D01*
X0101901Y0069014D01*
X0101957Y0069054D01*
X0102015Y0069090D01*
X0102076Y0069122D01*
X0102138Y0069151D01*
X0102202Y0069177D01*
X0102267Y0069198D01*
X0102334Y0069216D01*
X0102401Y0069230D01*
X0102469Y0069240D01*
X0102537Y0069246D01*
X0102606Y0069248D01*
X0102675Y0069246D01*
X0102743Y0069240D01*
X0102811Y0069230D01*
X0102878Y0069216D01*
X0102945Y0069198D01*
X0103010Y0069177D01*
X0103074Y0069151D01*
X0103136Y0069122D01*
X0103196Y0069090D01*
X0103255Y0069054D01*
X0103311Y0069014D01*
X0103365Y0068972D01*
X0103416Y0068926D01*
X0103465Y0068877D01*
X0103511Y0068826D01*
X0103553Y0068772D01*
X0103593Y0068716D01*
X0103629Y0068657D01*
X0103661Y0068597D01*
X0103690Y0068535D01*
X0103716Y0068471D01*
X0103737Y0068406D01*
X0103755Y0068339D01*
X0103769Y0068272D01*
X0103779Y0068204D01*
X0103785Y0068136D01*
X0103787Y0068067D01*
X0103785Y0067998D01*
X0103779Y0067930D01*
X0103769Y0067862D01*
X0103755Y0067795D01*
X0103737Y0067728D01*
X0103716Y0067663D01*
X0103690Y0067599D01*
X0103661Y0067537D01*
X0103629Y0067476D01*
X0103593Y0067418D01*
X0103553Y0067362D01*
X0103511Y0067308D01*
X0103465Y0067257D01*
X0103416Y0067208D01*
X0103365Y0067162D01*
X0103311Y0067120D01*
X0103255Y0067080D01*
X0103197Y0067044D01*
X0103136Y0067012D01*
X0103074Y0066983D01*
X0103010Y0066957D01*
X0102945Y0066936D01*
X0102878Y0066918D01*
X0102811Y0066904D01*
X0102743Y0066894D01*
X0102675Y0066888D01*
X0102606Y0066886D01*
X0102537Y0066888D01*
X0102469Y0066894D01*
X0102401Y0066904D01*
X0102334Y0066918D01*
X0102267Y0066936D01*
X0102202Y0066957D01*
X0102138Y0066983D01*
X0102076Y0067012D01*
X0102015Y0067044D01*
X0101957Y0067080D01*
X0101901Y0067120D01*
X0101847Y0067162D01*
X0101796Y0067208D01*
X0101747Y0067257D01*
X0101701Y0067308D01*
X0101659Y0067362D01*
X0101619Y0067418D01*
X0101583Y0067476D01*
X0101551Y0067537D01*
X0101522Y0067599D01*
X0101496Y0067663D01*
X0101475Y0067728D01*
X0101457Y0067795D01*
X0101443Y0067862D01*
X0101433Y0067930D01*
X0101427Y0067998D01*
X0101425Y0068067D01*
X0101425Y0072398D02*
X0101427Y0072467D01*
X0101433Y0072535D01*
X0101443Y0072603D01*
X0101457Y0072670D01*
X0101475Y0072737D01*
X0101496Y0072802D01*
X0101522Y0072866D01*
X0101551Y0072928D01*
X0101583Y0072988D01*
X0101619Y0073047D01*
X0101659Y0073103D01*
X0101701Y0073157D01*
X0101747Y0073208D01*
X0101796Y0073257D01*
X0101847Y0073303D01*
X0101901Y0073345D01*
X0101957Y0073385D01*
X0102015Y0073421D01*
X0102076Y0073453D01*
X0102138Y0073482D01*
X0102202Y0073508D01*
X0102267Y0073529D01*
X0102334Y0073547D01*
X0102401Y0073561D01*
X0102469Y0073571D01*
X0102537Y0073577D01*
X0102606Y0073579D01*
X0102675Y0073577D01*
X0102743Y0073571D01*
X0102811Y0073561D01*
X0102878Y0073547D01*
X0102945Y0073529D01*
X0103010Y0073508D01*
X0103074Y0073482D01*
X0103136Y0073453D01*
X0103196Y0073421D01*
X0103255Y0073385D01*
X0103311Y0073345D01*
X0103365Y0073303D01*
X0103416Y0073257D01*
X0103465Y0073208D01*
X0103511Y0073157D01*
X0103553Y0073103D01*
X0103593Y0073047D01*
X0103629Y0072988D01*
X0103661Y0072928D01*
X0103690Y0072866D01*
X0103716Y0072802D01*
X0103737Y0072737D01*
X0103755Y0072670D01*
X0103769Y0072603D01*
X0103779Y0072535D01*
X0103785Y0072467D01*
X0103787Y0072398D01*
X0103785Y0072329D01*
X0103779Y0072261D01*
X0103769Y0072193D01*
X0103755Y0072126D01*
X0103737Y0072059D01*
X0103716Y0071994D01*
X0103690Y0071930D01*
X0103661Y0071868D01*
X0103629Y0071807D01*
X0103593Y0071749D01*
X0103553Y0071693D01*
X0103511Y0071639D01*
X0103465Y0071588D01*
X0103416Y0071539D01*
X0103365Y0071493D01*
X0103311Y0071451D01*
X0103255Y0071411D01*
X0103197Y0071375D01*
X0103136Y0071343D01*
X0103074Y0071314D01*
X0103010Y0071288D01*
X0102945Y0071267D01*
X0102878Y0071249D01*
X0102811Y0071235D01*
X0102743Y0071225D01*
X0102675Y0071219D01*
X0102606Y0071217D01*
X0102537Y0071219D01*
X0102469Y0071225D01*
X0102401Y0071235D01*
X0102334Y0071249D01*
X0102267Y0071267D01*
X0102202Y0071288D01*
X0102138Y0071314D01*
X0102076Y0071343D01*
X0102015Y0071375D01*
X0101957Y0071411D01*
X0101901Y0071451D01*
X0101847Y0071493D01*
X0101796Y0071539D01*
X0101747Y0071588D01*
X0101701Y0071639D01*
X0101659Y0071693D01*
X0101619Y0071749D01*
X0101583Y0071807D01*
X0101551Y0071868D01*
X0101522Y0071930D01*
X0101496Y0071994D01*
X0101475Y0072059D01*
X0101457Y0072126D01*
X0101443Y0072193D01*
X0101433Y0072261D01*
X0101427Y0072329D01*
X0101425Y0072398D01*
X0101425Y0076335D02*
X0101427Y0076404D01*
X0101433Y0076472D01*
X0101443Y0076540D01*
X0101457Y0076607D01*
X0101475Y0076674D01*
X0101496Y0076739D01*
X0101522Y0076803D01*
X0101551Y0076865D01*
X0101583Y0076925D01*
X0101619Y0076984D01*
X0101659Y0077040D01*
X0101701Y0077094D01*
X0101747Y0077145D01*
X0101796Y0077194D01*
X0101847Y0077240D01*
X0101901Y0077282D01*
X0101957Y0077322D01*
X0102015Y0077358D01*
X0102076Y0077390D01*
X0102138Y0077419D01*
X0102202Y0077445D01*
X0102267Y0077466D01*
X0102334Y0077484D01*
X0102401Y0077498D01*
X0102469Y0077508D01*
X0102537Y0077514D01*
X0102606Y0077516D01*
X0102675Y0077514D01*
X0102743Y0077508D01*
X0102811Y0077498D01*
X0102878Y0077484D01*
X0102945Y0077466D01*
X0103010Y0077445D01*
X0103074Y0077419D01*
X0103136Y0077390D01*
X0103196Y0077358D01*
X0103255Y0077322D01*
X0103311Y0077282D01*
X0103365Y0077240D01*
X0103416Y0077194D01*
X0103465Y0077145D01*
X0103511Y0077094D01*
X0103553Y0077040D01*
X0103593Y0076984D01*
X0103629Y0076925D01*
X0103661Y0076865D01*
X0103690Y0076803D01*
X0103716Y0076739D01*
X0103737Y0076674D01*
X0103755Y0076607D01*
X0103769Y0076540D01*
X0103779Y0076472D01*
X0103785Y0076404D01*
X0103787Y0076335D01*
X0103785Y0076266D01*
X0103779Y0076198D01*
X0103769Y0076130D01*
X0103755Y0076063D01*
X0103737Y0075996D01*
X0103716Y0075931D01*
X0103690Y0075867D01*
X0103661Y0075805D01*
X0103629Y0075744D01*
X0103593Y0075686D01*
X0103553Y0075630D01*
X0103511Y0075576D01*
X0103465Y0075525D01*
X0103416Y0075476D01*
X0103365Y0075430D01*
X0103311Y0075388D01*
X0103255Y0075348D01*
X0103197Y0075312D01*
X0103136Y0075280D01*
X0103074Y0075251D01*
X0103010Y0075225D01*
X0102945Y0075204D01*
X0102878Y0075186D01*
X0102811Y0075172D01*
X0102743Y0075162D01*
X0102675Y0075156D01*
X0102606Y0075154D01*
X0102537Y0075156D01*
X0102469Y0075162D01*
X0102401Y0075172D01*
X0102334Y0075186D01*
X0102267Y0075204D01*
X0102202Y0075225D01*
X0102138Y0075251D01*
X0102076Y0075280D01*
X0102015Y0075312D01*
X0101957Y0075348D01*
X0101901Y0075388D01*
X0101847Y0075430D01*
X0101796Y0075476D01*
X0101747Y0075525D01*
X0101701Y0075576D01*
X0101659Y0075630D01*
X0101619Y0075686D01*
X0101583Y0075744D01*
X0101551Y0075805D01*
X0101522Y0075867D01*
X0101496Y0075931D01*
X0101475Y0075996D01*
X0101457Y0076063D01*
X0101443Y0076130D01*
X0101433Y0076198D01*
X0101427Y0076266D01*
X0101425Y0076335D01*
X0101425Y0080665D02*
X0101427Y0080734D01*
X0101433Y0080802D01*
X0101443Y0080870D01*
X0101457Y0080937D01*
X0101475Y0081004D01*
X0101496Y0081069D01*
X0101522Y0081133D01*
X0101551Y0081195D01*
X0101583Y0081255D01*
X0101619Y0081314D01*
X0101659Y0081370D01*
X0101701Y0081424D01*
X0101747Y0081475D01*
X0101796Y0081524D01*
X0101847Y0081570D01*
X0101901Y0081612D01*
X0101957Y0081652D01*
X0102015Y0081688D01*
X0102076Y0081720D01*
X0102138Y0081749D01*
X0102202Y0081775D01*
X0102267Y0081796D01*
X0102334Y0081814D01*
X0102401Y0081828D01*
X0102469Y0081838D01*
X0102537Y0081844D01*
X0102606Y0081846D01*
X0102675Y0081844D01*
X0102743Y0081838D01*
X0102811Y0081828D01*
X0102878Y0081814D01*
X0102945Y0081796D01*
X0103010Y0081775D01*
X0103074Y0081749D01*
X0103136Y0081720D01*
X0103196Y0081688D01*
X0103255Y0081652D01*
X0103311Y0081612D01*
X0103365Y0081570D01*
X0103416Y0081524D01*
X0103465Y0081475D01*
X0103511Y0081424D01*
X0103553Y0081370D01*
X0103593Y0081314D01*
X0103629Y0081255D01*
X0103661Y0081195D01*
X0103690Y0081133D01*
X0103716Y0081069D01*
X0103737Y0081004D01*
X0103755Y0080937D01*
X0103769Y0080870D01*
X0103779Y0080802D01*
X0103785Y0080734D01*
X0103787Y0080665D01*
X0103785Y0080596D01*
X0103779Y0080528D01*
X0103769Y0080460D01*
X0103755Y0080393D01*
X0103737Y0080326D01*
X0103716Y0080261D01*
X0103690Y0080197D01*
X0103661Y0080135D01*
X0103629Y0080074D01*
X0103593Y0080016D01*
X0103553Y0079960D01*
X0103511Y0079906D01*
X0103465Y0079855D01*
X0103416Y0079806D01*
X0103365Y0079760D01*
X0103311Y0079718D01*
X0103255Y0079678D01*
X0103197Y0079642D01*
X0103136Y0079610D01*
X0103074Y0079581D01*
X0103010Y0079555D01*
X0102945Y0079534D01*
X0102878Y0079516D01*
X0102811Y0079502D01*
X0102743Y0079492D01*
X0102675Y0079486D01*
X0102606Y0079484D01*
X0102537Y0079486D01*
X0102469Y0079492D01*
X0102401Y0079502D01*
X0102334Y0079516D01*
X0102267Y0079534D01*
X0102202Y0079555D01*
X0102138Y0079581D01*
X0102076Y0079610D01*
X0102015Y0079642D01*
X0101957Y0079678D01*
X0101901Y0079718D01*
X0101847Y0079760D01*
X0101796Y0079806D01*
X0101747Y0079855D01*
X0101701Y0079906D01*
X0101659Y0079960D01*
X0101619Y0080016D01*
X0101583Y0080074D01*
X0101551Y0080135D01*
X0101522Y0080197D01*
X0101496Y0080261D01*
X0101475Y0080326D01*
X0101457Y0080393D01*
X0101443Y0080460D01*
X0101433Y0080528D01*
X0101427Y0080596D01*
X0101425Y0080665D01*
X0101425Y0084602D02*
X0101427Y0084671D01*
X0101433Y0084739D01*
X0101443Y0084807D01*
X0101457Y0084874D01*
X0101475Y0084941D01*
X0101496Y0085006D01*
X0101522Y0085070D01*
X0101551Y0085132D01*
X0101583Y0085192D01*
X0101619Y0085251D01*
X0101659Y0085307D01*
X0101701Y0085361D01*
X0101747Y0085412D01*
X0101796Y0085461D01*
X0101847Y0085507D01*
X0101901Y0085549D01*
X0101957Y0085589D01*
X0102015Y0085625D01*
X0102076Y0085657D01*
X0102138Y0085686D01*
X0102202Y0085712D01*
X0102267Y0085733D01*
X0102334Y0085751D01*
X0102401Y0085765D01*
X0102469Y0085775D01*
X0102537Y0085781D01*
X0102606Y0085783D01*
X0102675Y0085781D01*
X0102743Y0085775D01*
X0102811Y0085765D01*
X0102878Y0085751D01*
X0102945Y0085733D01*
X0103010Y0085712D01*
X0103074Y0085686D01*
X0103136Y0085657D01*
X0103196Y0085625D01*
X0103255Y0085589D01*
X0103311Y0085549D01*
X0103365Y0085507D01*
X0103416Y0085461D01*
X0103465Y0085412D01*
X0103511Y0085361D01*
X0103553Y0085307D01*
X0103593Y0085251D01*
X0103629Y0085192D01*
X0103661Y0085132D01*
X0103690Y0085070D01*
X0103716Y0085006D01*
X0103737Y0084941D01*
X0103755Y0084874D01*
X0103769Y0084807D01*
X0103779Y0084739D01*
X0103785Y0084671D01*
X0103787Y0084602D01*
X0103785Y0084533D01*
X0103779Y0084465D01*
X0103769Y0084397D01*
X0103755Y0084330D01*
X0103737Y0084263D01*
X0103716Y0084198D01*
X0103690Y0084134D01*
X0103661Y0084072D01*
X0103629Y0084011D01*
X0103593Y0083953D01*
X0103553Y0083897D01*
X0103511Y0083843D01*
X0103465Y0083792D01*
X0103416Y0083743D01*
X0103365Y0083697D01*
X0103311Y0083655D01*
X0103255Y0083615D01*
X0103197Y0083579D01*
X0103136Y0083547D01*
X0103074Y0083518D01*
X0103010Y0083492D01*
X0102945Y0083471D01*
X0102878Y0083453D01*
X0102811Y0083439D01*
X0102743Y0083429D01*
X0102675Y0083423D01*
X0102606Y0083421D01*
X0102537Y0083423D01*
X0102469Y0083429D01*
X0102401Y0083439D01*
X0102334Y0083453D01*
X0102267Y0083471D01*
X0102202Y0083492D01*
X0102138Y0083518D01*
X0102076Y0083547D01*
X0102015Y0083579D01*
X0101957Y0083615D01*
X0101901Y0083655D01*
X0101847Y0083697D01*
X0101796Y0083743D01*
X0101747Y0083792D01*
X0101701Y0083843D01*
X0101659Y0083897D01*
X0101619Y0083953D01*
X0101583Y0084011D01*
X0101551Y0084072D01*
X0101522Y0084134D01*
X0101496Y0084198D01*
X0101475Y0084263D01*
X0101457Y0084330D01*
X0101443Y0084397D01*
X0101433Y0084465D01*
X0101427Y0084533D01*
X0101425Y0084602D01*
X0101425Y0088539D02*
X0101427Y0088608D01*
X0101433Y0088676D01*
X0101443Y0088744D01*
X0101457Y0088811D01*
X0101475Y0088878D01*
X0101496Y0088943D01*
X0101522Y0089007D01*
X0101551Y0089069D01*
X0101583Y0089129D01*
X0101619Y0089188D01*
X0101659Y0089244D01*
X0101701Y0089298D01*
X0101747Y0089349D01*
X0101796Y0089398D01*
X0101847Y0089444D01*
X0101901Y0089486D01*
X0101957Y0089526D01*
X0102015Y0089562D01*
X0102076Y0089594D01*
X0102138Y0089623D01*
X0102202Y0089649D01*
X0102267Y0089670D01*
X0102334Y0089688D01*
X0102401Y0089702D01*
X0102469Y0089712D01*
X0102537Y0089718D01*
X0102606Y0089720D01*
X0102675Y0089718D01*
X0102743Y0089712D01*
X0102811Y0089702D01*
X0102878Y0089688D01*
X0102945Y0089670D01*
X0103010Y0089649D01*
X0103074Y0089623D01*
X0103136Y0089594D01*
X0103196Y0089562D01*
X0103255Y0089526D01*
X0103311Y0089486D01*
X0103365Y0089444D01*
X0103416Y0089398D01*
X0103465Y0089349D01*
X0103511Y0089298D01*
X0103553Y0089244D01*
X0103593Y0089188D01*
X0103629Y0089129D01*
X0103661Y0089069D01*
X0103690Y0089007D01*
X0103716Y0088943D01*
X0103737Y0088878D01*
X0103755Y0088811D01*
X0103769Y0088744D01*
X0103779Y0088676D01*
X0103785Y0088608D01*
X0103787Y0088539D01*
X0103785Y0088470D01*
X0103779Y0088402D01*
X0103769Y0088334D01*
X0103755Y0088267D01*
X0103737Y0088200D01*
X0103716Y0088135D01*
X0103690Y0088071D01*
X0103661Y0088009D01*
X0103629Y0087948D01*
X0103593Y0087890D01*
X0103553Y0087834D01*
X0103511Y0087780D01*
X0103465Y0087729D01*
X0103416Y0087680D01*
X0103365Y0087634D01*
X0103311Y0087592D01*
X0103255Y0087552D01*
X0103197Y0087516D01*
X0103136Y0087484D01*
X0103074Y0087455D01*
X0103010Y0087429D01*
X0102945Y0087408D01*
X0102878Y0087390D01*
X0102811Y0087376D01*
X0102743Y0087366D01*
X0102675Y0087360D01*
X0102606Y0087358D01*
X0102537Y0087360D01*
X0102469Y0087366D01*
X0102401Y0087376D01*
X0102334Y0087390D01*
X0102267Y0087408D01*
X0102202Y0087429D01*
X0102138Y0087455D01*
X0102076Y0087484D01*
X0102015Y0087516D01*
X0101957Y0087552D01*
X0101901Y0087592D01*
X0101847Y0087634D01*
X0101796Y0087680D01*
X0101747Y0087729D01*
X0101701Y0087780D01*
X0101659Y0087834D01*
X0101619Y0087890D01*
X0101583Y0087948D01*
X0101551Y0088009D01*
X0101522Y0088071D01*
X0101496Y0088135D01*
X0101475Y0088200D01*
X0101457Y0088267D01*
X0101443Y0088334D01*
X0101433Y0088402D01*
X0101427Y0088470D01*
X0101425Y0088539D01*
X0101425Y0092476D02*
X0101427Y0092545D01*
X0101433Y0092613D01*
X0101443Y0092681D01*
X0101457Y0092748D01*
X0101475Y0092815D01*
X0101496Y0092880D01*
X0101522Y0092944D01*
X0101551Y0093006D01*
X0101583Y0093066D01*
X0101619Y0093125D01*
X0101659Y0093181D01*
X0101701Y0093235D01*
X0101747Y0093286D01*
X0101796Y0093335D01*
X0101847Y0093381D01*
X0101901Y0093423D01*
X0101957Y0093463D01*
X0102015Y0093499D01*
X0102076Y0093531D01*
X0102138Y0093560D01*
X0102202Y0093586D01*
X0102267Y0093607D01*
X0102334Y0093625D01*
X0102401Y0093639D01*
X0102469Y0093649D01*
X0102537Y0093655D01*
X0102606Y0093657D01*
X0102675Y0093655D01*
X0102743Y0093649D01*
X0102811Y0093639D01*
X0102878Y0093625D01*
X0102945Y0093607D01*
X0103010Y0093586D01*
X0103074Y0093560D01*
X0103136Y0093531D01*
X0103196Y0093499D01*
X0103255Y0093463D01*
X0103311Y0093423D01*
X0103365Y0093381D01*
X0103416Y0093335D01*
X0103465Y0093286D01*
X0103511Y0093235D01*
X0103553Y0093181D01*
X0103593Y0093125D01*
X0103629Y0093066D01*
X0103661Y0093006D01*
X0103690Y0092944D01*
X0103716Y0092880D01*
X0103737Y0092815D01*
X0103755Y0092748D01*
X0103769Y0092681D01*
X0103779Y0092613D01*
X0103785Y0092545D01*
X0103787Y0092476D01*
X0103785Y0092407D01*
X0103779Y0092339D01*
X0103769Y0092271D01*
X0103755Y0092204D01*
X0103737Y0092137D01*
X0103716Y0092072D01*
X0103690Y0092008D01*
X0103661Y0091946D01*
X0103629Y0091885D01*
X0103593Y0091827D01*
X0103553Y0091771D01*
X0103511Y0091717D01*
X0103465Y0091666D01*
X0103416Y0091617D01*
X0103365Y0091571D01*
X0103311Y0091529D01*
X0103255Y0091489D01*
X0103197Y0091453D01*
X0103136Y0091421D01*
X0103074Y0091392D01*
X0103010Y0091366D01*
X0102945Y0091345D01*
X0102878Y0091327D01*
X0102811Y0091313D01*
X0102743Y0091303D01*
X0102675Y0091297D01*
X0102606Y0091295D01*
X0102537Y0091297D01*
X0102469Y0091303D01*
X0102401Y0091313D01*
X0102334Y0091327D01*
X0102267Y0091345D01*
X0102202Y0091366D01*
X0102138Y0091392D01*
X0102076Y0091421D01*
X0102015Y0091453D01*
X0101957Y0091489D01*
X0101901Y0091529D01*
X0101847Y0091571D01*
X0101796Y0091617D01*
X0101747Y0091666D01*
X0101701Y0091717D01*
X0101659Y0091771D01*
X0101619Y0091827D01*
X0101583Y0091885D01*
X0101551Y0091946D01*
X0101522Y0092008D01*
X0101496Y0092072D01*
X0101475Y0092137D01*
X0101457Y0092204D01*
X0101443Y0092271D01*
X0101433Y0092339D01*
X0101427Y0092407D01*
X0101425Y0092476D01*
D11*
X0087055Y0094681D03*
X0122094Y0095469D03*
X0122094Y0134839D03*
X0087055Y0134839D03*
X0022488Y0134839D03*
X0022488Y0095469D03*
X0186661Y0094681D03*
X0186661Y0134839D03*
D12*
X0181819Y0062319D03*
X0181819Y0048539D03*
X0181976Y0034760D03*
X0181976Y0020980D03*
X0122764Y0020980D03*
X0122764Y0034760D03*
X0122764Y0048461D03*
X0122764Y0062240D03*
X0082213Y0062319D03*
X0082213Y0048539D03*
X0082370Y0034760D03*
X0082370Y0020980D03*
X0023157Y0020980D03*
X0023157Y0034760D03*
X0023157Y0048461D03*
X0023157Y0062240D03*
D13*
X0033932Y0070921D03*
X0033932Y0075921D03*
X0033932Y0080921D03*
X0033932Y0085921D03*
X0055532Y0085921D03*
X0055532Y0080921D03*
X0055532Y0075921D03*
X0055532Y0070921D03*
X0133539Y0070921D03*
X0133539Y0075921D03*
X0133539Y0080921D03*
X0133539Y0085921D03*
X0155139Y0085921D03*
X0155139Y0080921D03*
X0155139Y0075921D03*
X0155139Y0070921D03*
D14*
X0163669Y0086768D03*
X0170362Y0086768D03*
X0070756Y0086768D03*
X0064063Y0086768D03*
D15*
X0063883Y0087497D01*
X0060283Y0087497D01*
X0043183Y0104597D01*
X0037838Y0110109D01*
X0031346Y0122004D02*
X0017083Y0108528D01*
X0017083Y0098297D01*
X0013472Y0095469D02*
X0022488Y0095469D01*
X0022483Y0095597D01*
X0013472Y0095469D02*
X0013236Y0095232D01*
X0033932Y0085921D02*
X0034183Y0085697D01*
X0034183Y0081197D02*
X0033932Y0080921D01*
X0034183Y0080297D01*
X0034183Y0076697D02*
X0033932Y0075921D01*
X0034183Y0075797D01*
X0034183Y0071297D02*
X0033932Y0070921D01*
X0033283Y0070397D01*
X0053787Y0084996D02*
X0054713Y0085921D01*
X0055532Y0085921D01*
X0070183Y0086597D02*
X0070183Y0083897D01*
X0057583Y0071297D01*
X0055783Y0071297D01*
X0055532Y0070921D01*
X0070183Y0086597D02*
X0070756Y0086768D01*
X0087283Y0093797D02*
X0087055Y0094681D01*
X0112843Y0095232D02*
X0113079Y0095469D01*
X0122094Y0095469D01*
X0122089Y0095597D01*
X0116689Y0098297D02*
X0116689Y0108528D01*
X0130953Y0122004D01*
X0137444Y0110109D02*
X0142789Y0104597D01*
X0159889Y0087497D01*
X0163489Y0087497D01*
X0163669Y0086768D01*
X0169789Y0086597D02*
X0169789Y0083897D01*
X0157189Y0071297D01*
X0155389Y0071297D01*
X0155139Y0070921D01*
X0153394Y0084996D02*
X0154319Y0085921D01*
X0155139Y0085921D01*
X0169789Y0086597D02*
X0170362Y0086768D01*
X0186889Y0093797D02*
X0186661Y0094681D01*
X0133789Y0085697D02*
X0133539Y0085921D01*
X0133789Y0081197D02*
X0133539Y0080921D01*
X0133789Y0080297D01*
X0133789Y0076697D02*
X0133539Y0075921D01*
X0133789Y0075797D01*
X0133789Y0071297D02*
X0133539Y0070921D01*
X0132889Y0070397D01*
X0122933Y0034903D02*
X0122764Y0034760D01*
X0122539Y0021009D02*
X0122764Y0020980D01*
X0082670Y0021009D02*
X0082370Y0020980D01*
X0081883Y0047897D02*
X0082213Y0048539D01*
X0082783Y0048797D01*
X0023327Y0034903D02*
X0023157Y0034760D01*
X0022933Y0021009D02*
X0023157Y0020980D01*
X0181976Y0020980D02*
X0182276Y0021009D01*
X0181489Y0047897D02*
X0181819Y0048539D01*
X0182389Y0048797D01*
D16*
X0193157Y0044051D03*
X0193157Y0028303D03*
X0193157Y0012555D03*
X0177409Y0012555D03*
X0165598Y0012555D03*
X0153787Y0012555D03*
X0153787Y0020429D03*
X0126228Y0012555D03*
X0110480Y0012555D03*
X0093551Y0012555D03*
X0077803Y0012555D03*
X0065992Y0012555D03*
X0054181Y0012555D03*
X0054181Y0020429D03*
X0026622Y0012555D03*
X0010874Y0012555D03*
X0054181Y0047988D03*
X0054181Y0055862D03*
X0054181Y0063736D03*
X0049063Y0087358D03*
X0042370Y0087358D03*
X0041583Y0095232D03*
X0033709Y0095232D03*
X0033709Y0103106D03*
X0013236Y0095232D03*
X0010874Y0103106D03*
X0031346Y0122004D03*
X0042370Y0122791D03*
X0058118Y0122791D03*
X0073866Y0122791D03*
X0073866Y0107043D03*
X0073866Y0095232D03*
X0077803Y0087358D03*
X0093551Y0075547D03*
X0093551Y0059799D03*
X0093551Y0044051D03*
X0093551Y0028303D03*
X0110480Y0055862D03*
X0118354Y0055862D03*
X0118354Y0071610D03*
X0110480Y0071610D03*
X0110480Y0079484D03*
X0112843Y0095232D03*
X0110480Y0103106D03*
X0093551Y0107043D03*
X0093551Y0122791D03*
X0110480Y0138539D03*
X0130953Y0122004D03*
X0141976Y0122791D03*
X0157724Y0122791D03*
X0173472Y0122791D03*
X0173472Y0107043D03*
X0173472Y0095232D03*
X0177409Y0087358D03*
X0193157Y0075547D03*
X0193157Y0059799D03*
X0153787Y0055862D03*
X0153787Y0047988D03*
X0153787Y0063736D03*
X0148669Y0087358D03*
X0141976Y0087358D03*
X0141976Y0095232D03*
X0134102Y0095232D03*
X0134102Y0103106D03*
X0157724Y0107043D03*
X0157724Y0095232D03*
X0193157Y0107043D03*
X0193157Y0122791D03*
X0173472Y0138539D03*
X0157724Y0138539D03*
X0141976Y0138539D03*
X0073866Y0138539D03*
X0058118Y0138539D03*
X0042370Y0138539D03*
X0010874Y0138539D03*
X0058118Y0107043D03*
X0058118Y0095232D03*
X0018748Y0071610D03*
X0010874Y0071610D03*
X0010874Y0079484D03*
X0010874Y0055862D03*
X0018748Y0055862D03*
D17*
X0038433Y0062483D02*
X0033932Y0070921D01*
X0034183Y0071297D02*
X0034183Y0075671D01*
X0033932Y0075921D01*
X0034183Y0075797D02*
X0034183Y0080671D01*
X0033932Y0080921D01*
X0034183Y0081172D01*
X0034183Y0085697D01*
X0053787Y0084996D02*
X0053787Y0077909D01*
X0069929Y0067673D02*
X0069929Y0047988D01*
X0070480Y0048539D01*
X0082213Y0048539D01*
X0069929Y0047988D02*
X0057724Y0035390D01*
X0073286Y0021009D01*
X0082670Y0021009D01*
X0057724Y0035390D02*
X0043344Y0021009D01*
X0022933Y0021009D01*
X0023327Y0034903D02*
X0034797Y0034903D01*
X0038433Y0040114D01*
X0038433Y0062483D01*
X0069929Y0067673D02*
X0087283Y0085027D01*
X0087283Y0093797D01*
X0133789Y0085697D02*
X0133789Y0081172D01*
X0133539Y0080921D01*
X0133789Y0080671D01*
X0133789Y0075797D01*
X0133789Y0075671D02*
X0133539Y0075921D01*
X0133789Y0075671D02*
X0133789Y0071297D01*
X0133539Y0070921D02*
X0138039Y0062483D01*
X0138039Y0040114D01*
X0134403Y0034903D01*
X0122933Y0034903D01*
X0122539Y0021009D02*
X0142950Y0021009D01*
X0157331Y0035390D01*
X0172892Y0021009D01*
X0182276Y0021009D01*
X0157331Y0035390D02*
X0169535Y0047988D01*
X0169535Y0067673D01*
X0186889Y0085027D01*
X0186889Y0093797D01*
X0153394Y0084996D02*
X0153394Y0077909D01*
X0170087Y0048539D02*
X0169535Y0047988D01*
X0170087Y0048539D02*
X0181819Y0048539D01*
D18*
X0137444Y0110109D03*
X0037838Y0110109D03*
D19*
X0042500Y0113224D02*
X0040953Y0114771D01*
X0038932Y0115609D01*
X0036744Y0115609D01*
X0034722Y0114771D01*
X0033175Y0113224D01*
X0032338Y0111203D01*
X0032338Y0109015D01*
X0033175Y0106993D01*
X0034722Y0105446D01*
X0036744Y0104609D01*
X0037321Y0104609D01*
X0039609Y0102249D01*
X0039622Y0102218D01*
X0040190Y0101650D01*
X0040749Y0101073D01*
X0040780Y0101060D01*
X0051399Y0090440D01*
X0050874Y0090223D01*
X0050301Y0089840D01*
X0049814Y0089352D01*
X0049431Y0088779D01*
X0049167Y0088142D01*
X0049032Y0087466D01*
X0049032Y0085921D01*
X0049032Y0084377D01*
X0049167Y0083700D01*
X0049282Y0083421D01*
X0049167Y0083142D01*
X0049032Y0082466D01*
X0049032Y0080921D01*
X0049032Y0079377D01*
X0049167Y0078700D01*
X0049282Y0078421D01*
X0049167Y0078142D01*
X0049032Y0077466D01*
X0049032Y0075921D01*
X0049032Y0074377D01*
X0049167Y0073700D01*
X0049174Y0073683D01*
X0048832Y0072857D01*
X0048832Y0068985D01*
X0049396Y0067625D01*
X0050436Y0066585D01*
X0051796Y0066021D01*
X0059268Y0066021D01*
X0060628Y0066585D01*
X0061229Y0067186D01*
X0061229Y0051511D01*
X0052606Y0042610D01*
X0052509Y0042565D01*
X0051451Y0041420D01*
X0046494Y0036463D01*
X0046558Y0036555D01*
X0046765Y0037495D01*
X0047133Y0038384D01*
X0047133Y0039168D01*
X0047302Y0039935D01*
X0047133Y0040882D01*
X0047133Y0061189D01*
X0047260Y0061606D01*
X0047133Y0062907D01*
X0047133Y0064214D01*
X0046966Y0064617D01*
X0046924Y0065051D01*
X0046309Y0066204D01*
X0045809Y0067412D01*
X0045500Y0067720D01*
X0042883Y0072627D01*
X0042883Y0087427D01*
X0041558Y0090625D01*
X0039111Y0093072D01*
X0035913Y0094397D01*
X0032452Y0094397D01*
X0032094Y0094248D01*
X0032094Y0102110D01*
X0031530Y0103470D01*
X0030490Y0104511D01*
X0029130Y0105074D01*
X0021283Y0105074D01*
X0021283Y0106718D01*
X0031661Y0116523D01*
X0032437Y0116523D01*
X0034451Y0117357D01*
X0035993Y0118899D01*
X0036828Y0120914D01*
X0036828Y0123094D01*
X0035993Y0125109D01*
X0034451Y0126651D01*
X0032437Y0127485D01*
X0031582Y0127485D01*
X0031759Y0127912D01*
X0031894Y0128588D01*
X0031894Y0134386D01*
X0022941Y0134386D01*
X0022941Y0135291D01*
X0031894Y0135291D01*
X0031894Y0141089D01*
X0031759Y0141765D01*
X0031495Y0142402D01*
X0031169Y0142891D01*
X0078374Y0142891D01*
X0078048Y0142402D01*
X0077784Y0141765D01*
X0077650Y0141089D01*
X0077650Y0135291D01*
X0086602Y0135291D01*
X0086602Y0134386D01*
X0077650Y0134386D01*
X0077650Y0128588D01*
X0077784Y0127912D01*
X0078048Y0127275D01*
X0078431Y0126702D01*
X0078918Y0126214D01*
X0079492Y0125831D01*
X0080129Y0125568D01*
X0080805Y0125433D01*
X0086602Y0125433D01*
X0086602Y0134386D01*
X0087508Y0134386D01*
X0087508Y0135291D01*
X0096461Y0135291D01*
X0096461Y0141089D01*
X0096326Y0141765D01*
X0096062Y0142402D01*
X0095679Y0142975D01*
X0095192Y0143463D01*
X0094618Y0143846D01*
X0093982Y0144110D01*
X0093305Y0144244D01*
X0088681Y0144244D01*
X0088932Y0144495D01*
X0089495Y0145855D01*
X0089495Y0146650D01*
X0097725Y0146650D01*
X0097725Y0095648D01*
X0097981Y0095117D01*
X0097981Y0094065D01*
X0097725Y0093447D01*
X0097725Y0091505D01*
X0097981Y0090888D01*
X0097981Y0090128D01*
X0097725Y0089510D01*
X0097725Y0087568D01*
X0097981Y0086951D01*
X0097981Y0086191D01*
X0097725Y0085573D01*
X0097725Y0083631D01*
X0097981Y0083014D01*
X0097981Y0082254D01*
X0097725Y0081636D01*
X0097725Y0079694D01*
X0097981Y0079077D01*
X0097981Y0077923D01*
X0097725Y0077306D01*
X0097725Y0075364D01*
X0097981Y0074746D01*
X0097981Y0073986D01*
X0097725Y0073369D01*
X0097725Y0071427D01*
X0097981Y0070809D01*
X0097981Y0069656D01*
X0097725Y0069038D01*
X0097725Y0067096D01*
X0097981Y0066478D01*
X0097981Y0065719D01*
X0097725Y0065101D01*
X0097725Y0063159D01*
X0097981Y0062541D01*
X0097981Y0061388D01*
X0097725Y0060770D01*
X0097725Y0058828D01*
X0097981Y0058210D01*
X0097981Y0057451D01*
X0097725Y0056833D01*
X0097725Y0054891D01*
X0097981Y0054273D01*
X0097981Y0052946D01*
X0097937Y0052885D01*
X0097937Y0052885D01*
X0097828Y0052123D01*
X0097725Y0051874D01*
X0097725Y0051401D01*
X0097658Y0050932D01*
X0097725Y0050671D01*
X0097725Y0008381D01*
X0007487Y0008381D01*
X0007487Y0146650D01*
X0017095Y0146650D01*
X0017095Y0145855D01*
X0017659Y0144495D01*
X0017909Y0144244D01*
X0016238Y0144244D01*
X0015562Y0144110D01*
X0014925Y0143846D01*
X0014352Y0143463D01*
X0013864Y0142975D01*
X0013481Y0142402D01*
X0013217Y0141765D01*
X0013083Y0141089D01*
X0013083Y0135291D01*
X0022035Y0135291D01*
X0022035Y0134386D01*
X0013083Y0134386D01*
X0013083Y0128588D01*
X0013217Y0127912D01*
X0013481Y0127275D01*
X0013864Y0126702D01*
X0014352Y0126214D01*
X0014925Y0125831D01*
X0015562Y0125568D01*
X0016238Y0125433D01*
X0022035Y0125433D01*
X0022035Y0134386D01*
X0022941Y0134386D01*
X0022941Y0125433D01*
X0027024Y0125433D01*
X0026700Y0125109D01*
X0025865Y0123094D01*
X0025865Y0122603D01*
X0014761Y0112112D01*
X0014704Y0112088D01*
X0014155Y0111540D01*
X0013591Y0111007D01*
X0013566Y0110950D01*
X0013522Y0110907D01*
X0013225Y0110190D01*
X0012908Y0109482D01*
X0012906Y0109420D01*
X0012883Y0109363D01*
X0012883Y0108587D01*
X0012861Y0107812D01*
X0012883Y0107754D01*
X0012883Y0100713D01*
X0012146Y0100713D01*
X0010131Y0099879D01*
X0008590Y0098337D01*
X0007755Y0096323D01*
X0007755Y0094142D01*
X0008590Y0092127D01*
X0010131Y0090586D01*
X0012146Y0089751D01*
X0012883Y0089751D01*
X0012883Y0088827D01*
X0013446Y0087467D01*
X0014487Y0086426D01*
X0015847Y0085863D01*
X0025483Y0085863D01*
X0025483Y0083256D01*
X0025232Y0082652D01*
X0025232Y0079191D01*
X0025483Y0078586D01*
X0025483Y0078256D01*
X0025232Y0077652D01*
X0025232Y0074191D01*
X0025483Y0073586D01*
X0025483Y0073038D01*
X0025105Y0071798D01*
X0025234Y0070484D01*
X0024819Y0070595D01*
X0023715Y0070740D01*
X0023158Y0070740D01*
X0023158Y0062240D01*
X0023157Y0062240D01*
X0014657Y0062240D01*
X0014657Y0061683D01*
X0014803Y0060578D01*
X0015091Y0059502D01*
X0015518Y0058473D01*
X0016075Y0057508D01*
X0016753Y0056624D01*
X0017541Y0055836D01*
X0017930Y0055537D01*
X0015782Y0053389D01*
X0014457Y0050191D01*
X0014457Y0046730D01*
X0015782Y0043532D01*
X0017704Y0041610D01*
X0015782Y0039688D01*
X0014457Y0036490D01*
X0014457Y0033029D01*
X0015782Y0029832D01*
X0017617Y0027997D01*
X0015558Y0025938D01*
X0014233Y0022740D01*
X0014233Y0019279D01*
X0015558Y0016081D01*
X0018005Y0013634D01*
X0021203Y0012309D01*
X0021357Y0012309D01*
X0021427Y0012280D01*
X0024888Y0012280D01*
X0024958Y0012309D01*
X0045075Y0012309D01*
X0048272Y0013634D01*
X0057962Y0023324D01*
X0067255Y0014736D01*
X0068358Y0013634D01*
X0068522Y0013566D01*
X0068652Y0013445D01*
X0070115Y0012906D01*
X0071555Y0012309D01*
X0071733Y0012309D01*
X0071900Y0012248D01*
X0073457Y0012309D01*
X0080569Y0012309D01*
X0080640Y0012280D01*
X0084101Y0012280D01*
X0084171Y0012309D01*
X0084401Y0012309D01*
X0087598Y0013634D01*
X0090046Y0016081D01*
X0091370Y0019279D01*
X0091370Y0022740D01*
X0090046Y0025938D01*
X0087949Y0028035D01*
X0089746Y0029832D01*
X0091070Y0033029D01*
X0091070Y0036490D01*
X0089746Y0039688D01*
X0087705Y0041728D01*
X0089588Y0043611D01*
X0090913Y0046809D01*
X0090913Y0050270D01*
X0089588Y0053468D01*
X0087626Y0055429D01*
X0089588Y0057391D01*
X0090913Y0060588D01*
X0090913Y0064049D01*
X0089588Y0067247D01*
X0087141Y0069694D01*
X0085099Y0070540D01*
X0094658Y0080099D01*
X0095983Y0083296D01*
X0095983Y0086565D01*
X0096097Y0086680D01*
X0096661Y0088040D01*
X0096661Y0101323D01*
X0096097Y0102682D01*
X0095057Y0103723D01*
X0093697Y0104287D01*
X0080414Y0104287D01*
X0079054Y0103723D01*
X0078013Y0102682D01*
X0077450Y0101323D01*
X0077450Y0088040D01*
X0077608Y0087656D01*
X0076424Y0086472D01*
X0076424Y0089669D01*
X0075861Y0091029D01*
X0074820Y0092070D01*
X0073460Y0092633D01*
X0068051Y0092633D01*
X0067409Y0092367D01*
X0066767Y0092633D01*
X0061359Y0092633D01*
X0061166Y0092553D01*
X0046175Y0107544D01*
X0043338Y0110470D01*
X0043338Y0111203D01*
X0042500Y0113224D01*
X0041076Y0114648D02*
X0097725Y0114648D01*
X0097725Y0109650D02*
X0044133Y0109650D01*
X0049068Y0104651D02*
X0097725Y0104651D01*
X0097725Y0099653D02*
X0096661Y0099653D01*
X0096661Y0094654D02*
X0097981Y0094654D01*
X0097785Y0089656D02*
X0096661Y0089656D01*
X0095983Y0084657D02*
X0097725Y0084657D01*
X0097740Y0079659D02*
X0094218Y0079659D01*
X0097981Y0074660D02*
X0089220Y0074660D01*
X0087173Y0069662D02*
X0097981Y0069662D01*
X0097725Y0064663D02*
X0090658Y0064663D01*
X0090530Y0059665D02*
X0097725Y0059665D01*
X0097818Y0054666D02*
X0088389Y0054666D01*
X0090913Y0049668D02*
X0097725Y0049668D01*
X0097725Y0044669D02*
X0090026Y0044669D01*
X0089753Y0039671D02*
X0097725Y0039671D01*
X0097725Y0034672D02*
X0091070Y0034672D01*
X0089588Y0029674D02*
X0097725Y0029674D01*
X0097725Y0024675D02*
X0090569Y0024675D01*
X0091370Y0019677D02*
X0097725Y0019677D01*
X0097725Y0014678D02*
X0088642Y0014678D01*
X0097725Y0009680D02*
X0007487Y0009680D01*
X0007487Y0014678D02*
X0016961Y0014678D01*
X0014233Y0019677D02*
X0007487Y0019677D01*
X0007487Y0024675D02*
X0015035Y0024675D01*
X0015940Y0029674D02*
X0007487Y0029674D01*
X0007487Y0034672D02*
X0014457Y0034672D01*
X0015775Y0039671D02*
X0007487Y0039671D01*
X0007487Y0044669D02*
X0015311Y0044669D01*
X0014457Y0049668D02*
X0007487Y0049668D01*
X0007487Y0054666D02*
X0017059Y0054666D01*
X0015048Y0059665D02*
X0007487Y0059665D01*
X0007487Y0064663D02*
X0015007Y0064663D01*
X0015091Y0064978D02*
X0014803Y0063902D01*
X0014657Y0062797D01*
X0014657Y0062240D01*
X0023157Y0062240D01*
X0023157Y0062240D01*
X0023157Y0070740D01*
X0022600Y0070740D01*
X0021496Y0070595D01*
X0020419Y0070306D01*
X0019390Y0069880D01*
X0018425Y0069323D01*
X0017541Y0068645D01*
X0016753Y0067857D01*
X0016075Y0066973D01*
X0015518Y0066008D01*
X0015091Y0064978D01*
X0019012Y0069662D02*
X0007487Y0069662D01*
X0007487Y0074660D02*
X0025232Y0074660D01*
X0025232Y0079659D02*
X0007487Y0079659D01*
X0007487Y0084657D02*
X0025483Y0084657D01*
X0032094Y0094654D02*
X0047186Y0094654D01*
X0050117Y0089656D02*
X0041960Y0089656D01*
X0042883Y0084657D02*
X0049032Y0084657D01*
X0049032Y0085921D02*
X0055532Y0085921D01*
X0055532Y0085921D01*
X0055532Y0085921D01*
X0055532Y0085621D01*
X0055532Y0080921D01*
X0055532Y0080921D01*
X0055532Y0080621D01*
X0055532Y0075921D01*
X0049032Y0075921D01*
X0055532Y0075921D01*
X0055532Y0075921D01*
X0055532Y0075921D01*
X0055532Y0080921D01*
X0049032Y0080921D01*
X0055532Y0080921D01*
X0055532Y0080921D01*
X0055532Y0080921D01*
X0055532Y0085921D01*
X0049032Y0085921D01*
X0049032Y0079659D02*
X0042883Y0079659D01*
X0042883Y0074660D02*
X0049032Y0074660D01*
X0048832Y0069662D02*
X0044464Y0069662D01*
X0046962Y0064663D02*
X0061229Y0064663D01*
X0061229Y0059665D02*
X0047133Y0059665D01*
X0047133Y0054666D02*
X0061229Y0054666D01*
X0059443Y0049668D02*
X0047133Y0049668D01*
X0047133Y0044669D02*
X0054601Y0044669D01*
X0049702Y0039671D02*
X0047244Y0039671D01*
X0054315Y0019677D02*
X0061909Y0019677D01*
X0067313Y0014678D02*
X0049316Y0014678D01*
X0023158Y0064663D02*
X0023157Y0064663D01*
X0023157Y0069662D02*
X0023158Y0069662D01*
X0012883Y0089656D02*
X0007487Y0089656D01*
X0007487Y0094654D02*
X0007755Y0094654D01*
X0007487Y0099653D02*
X0009905Y0099653D01*
X0007487Y0104651D02*
X0012883Y0104651D01*
X0012983Y0109650D02*
X0007487Y0109650D01*
X0007487Y0114648D02*
X0017445Y0114648D01*
X0022736Y0119647D02*
X0007487Y0119647D01*
X0007487Y0124645D02*
X0026508Y0124645D01*
X0022941Y0129644D02*
X0022035Y0129644D01*
X0022035Y0134642D02*
X0007487Y0134642D01*
X0007487Y0129644D02*
X0013083Y0129644D01*
X0013083Y0139641D02*
X0007487Y0139641D01*
X0007487Y0144639D02*
X0017599Y0144639D01*
X0022941Y0134642D02*
X0086602Y0134642D01*
X0087508Y0134642D02*
X0097725Y0134642D01*
X0096461Y0134386D02*
X0087508Y0134386D01*
X0087508Y0125433D01*
X0093305Y0125433D01*
X0093982Y0125568D01*
X0094618Y0125831D01*
X0095192Y0126214D01*
X0095679Y0126702D01*
X0096062Y0127275D01*
X0096326Y0127912D01*
X0096461Y0128588D01*
X0096461Y0134386D01*
X0096461Y0129644D02*
X0097725Y0129644D01*
X0097725Y0124645D02*
X0036185Y0124645D01*
X0036303Y0119647D02*
X0097725Y0119647D01*
X0107881Y0119647D02*
X0122342Y0119647D01*
X0125472Y0122603D02*
X0114367Y0112112D01*
X0114310Y0112088D01*
X0113761Y0111540D01*
X0113197Y0111007D01*
X0113172Y0110950D01*
X0113128Y0110907D01*
X0112832Y0110190D01*
X0112514Y0109482D01*
X0112513Y0109420D01*
X0112489Y0109363D01*
X0112489Y0108587D01*
X0112467Y0107812D01*
X0112489Y0107754D01*
X0112489Y0100713D01*
X0111752Y0100713D01*
X0109738Y0099879D01*
X0108196Y0098337D01*
X0107881Y0097577D01*
X0107881Y0146650D01*
X0116702Y0146650D01*
X0116702Y0145855D01*
X0117265Y0144495D01*
X0117515Y0144244D01*
X0115844Y0144244D01*
X0115168Y0144110D01*
X0114531Y0143846D01*
X0113958Y0143463D01*
X0113470Y0142975D01*
X0113087Y0142402D01*
X0112823Y0141765D01*
X0112689Y0141089D01*
X0112689Y0135291D01*
X0121642Y0135291D01*
X0121642Y0134386D01*
X0122547Y0134386D01*
X0122547Y0125433D01*
X0126630Y0125433D01*
X0126306Y0125109D01*
X0125472Y0123094D01*
X0125472Y0122603D01*
X0126114Y0124645D02*
X0107881Y0124645D01*
X0107881Y0129644D02*
X0112689Y0129644D01*
X0112689Y0128588D02*
X0112823Y0127912D01*
X0113087Y0127275D01*
X0113470Y0126702D01*
X0113958Y0126214D01*
X0114531Y0125831D01*
X0115168Y0125568D01*
X0115844Y0125433D01*
X0121642Y0125433D01*
X0121642Y0134386D01*
X0112689Y0134386D01*
X0112689Y0128588D01*
X0107881Y0134642D02*
X0121642Y0134642D01*
X0122547Y0134642D02*
X0186209Y0134642D01*
X0186209Y0134386D02*
X0177256Y0134386D01*
X0177256Y0128588D01*
X0177390Y0127912D01*
X0177654Y0127275D01*
X0178037Y0126702D01*
X0178525Y0126214D01*
X0179098Y0125831D01*
X0179735Y0125568D01*
X0180411Y0125433D01*
X0186209Y0125433D01*
X0186209Y0134386D01*
X0187114Y0134386D01*
X0187114Y0135291D01*
X0196067Y0135291D01*
X0196067Y0141089D01*
X0195932Y0141765D01*
X0195669Y0142402D01*
X0195286Y0142975D01*
X0194798Y0143463D01*
X0194225Y0143846D01*
X0193588Y0144110D01*
X0192912Y0144244D01*
X0188288Y0144244D01*
X0188538Y0144495D01*
X0189102Y0145855D01*
X0189102Y0146650D01*
X0196938Y0146650D01*
X0196938Y0008381D01*
X0107881Y0008381D01*
X0107881Y0050671D01*
X0107948Y0050932D01*
X0107881Y0051401D01*
X0107881Y0051874D01*
X0107778Y0052123D01*
X0107669Y0052885D01*
X0107029Y0053785D01*
X0107487Y0054891D01*
X0107487Y0056833D01*
X0107074Y0057831D01*
X0107487Y0058828D01*
X0107487Y0060770D01*
X0106993Y0061965D01*
X0107487Y0063159D01*
X0107487Y0065101D01*
X0107074Y0066098D01*
X0107487Y0067096D01*
X0107487Y0069038D01*
X0106993Y0070232D01*
X0107487Y0071427D01*
X0107487Y0073369D01*
X0107074Y0074366D01*
X0107487Y0075364D01*
X0107487Y0077306D01*
X0106993Y0078500D01*
X0107487Y0079694D01*
X0107487Y0081636D01*
X0107074Y0082634D01*
X0107487Y0083631D01*
X0107487Y0085573D01*
X0107074Y0086571D01*
X0107487Y0087568D01*
X0107487Y0089510D01*
X0107074Y0090508D01*
X0107487Y0091505D01*
X0107487Y0093447D01*
X0107179Y0094191D01*
X0107361Y0094569D01*
X0107361Y0094142D01*
X0108196Y0092127D01*
X0109738Y0090586D01*
X0111752Y0089751D01*
X0112489Y0089751D01*
X0112489Y0088827D01*
X0113052Y0087467D01*
X0114093Y0086426D01*
X0115453Y0085863D01*
X0125089Y0085863D01*
X0125089Y0083256D01*
X0124839Y0082652D01*
X0124839Y0079191D01*
X0125089Y0078586D01*
X0125089Y0078256D01*
X0124839Y0077652D01*
X0124839Y0074191D01*
X0125089Y0073586D01*
X0125089Y0073038D01*
X0124712Y0071798D01*
X0124840Y0070484D01*
X0124426Y0070595D01*
X0123321Y0070740D01*
X0122764Y0070740D01*
X0122764Y0062240D01*
X0122764Y0062240D01*
X0114264Y0062240D01*
X0114264Y0061683D01*
X0114409Y0060578D01*
X0114698Y0059502D01*
X0115124Y0058473D01*
X0115681Y0057508D01*
X0116359Y0056624D01*
X0117147Y0055836D01*
X0117537Y0055537D01*
X0115388Y0053389D01*
X0114064Y0050191D01*
X0114064Y0046730D01*
X0115388Y0043532D01*
X0117311Y0041610D01*
X0115388Y0039688D01*
X0114064Y0036490D01*
X0114064Y0033029D01*
X0115388Y0029832D01*
X0117223Y0027997D01*
X0115164Y0025938D01*
X0113839Y0022740D01*
X0113839Y0019279D01*
X0115164Y0016081D01*
X0117611Y0013634D01*
X0120809Y0012309D01*
X0120963Y0012309D01*
X0121033Y0012280D01*
X0124494Y0012280D01*
X0124565Y0012309D01*
X0144681Y0012309D01*
X0147879Y0013634D01*
X0157569Y0023324D01*
X0166862Y0014736D01*
X0167964Y0013634D01*
X0168128Y0013566D01*
X0168259Y0013445D01*
X0169721Y0012906D01*
X0171162Y0012309D01*
X0171339Y0012309D01*
X0171506Y0012248D01*
X0173064Y0012309D01*
X0180175Y0012309D01*
X0180246Y0012280D01*
X0183707Y0012280D01*
X0183777Y0012309D01*
X0184007Y0012309D01*
X0187205Y0013634D01*
X0189652Y0016081D01*
X0190976Y0019279D01*
X0190976Y0022740D01*
X0189652Y0025938D01*
X0187555Y0028035D01*
X0189352Y0029832D01*
X0190676Y0033029D01*
X0190676Y0036490D01*
X0189352Y0039688D01*
X0187312Y0041728D01*
X0189194Y0043611D01*
X0190519Y0046809D01*
X0190519Y0050270D01*
X0189194Y0053468D01*
X0187233Y0055429D01*
X0189194Y0057391D01*
X0190519Y0060588D01*
X0190519Y0064049D01*
X0189194Y0067247D01*
X0186747Y0069694D01*
X0184706Y0070540D01*
X0194264Y0080099D01*
X0195589Y0083296D01*
X0195589Y0086565D01*
X0195704Y0086680D01*
X0196267Y0088040D01*
X0196267Y0101323D01*
X0195704Y0102682D01*
X0194663Y0103723D01*
X0193303Y0104287D01*
X0180020Y0104287D01*
X0178660Y0103723D01*
X0177619Y0102682D01*
X0177056Y0101323D01*
X0177056Y0088040D01*
X0177215Y0087656D01*
X0176031Y0086472D01*
X0176031Y0089669D01*
X0175467Y0091029D01*
X0174427Y0092070D01*
X0173067Y0092633D01*
X0167658Y0092633D01*
X0167016Y0092367D01*
X0166374Y0092633D01*
X0160965Y0092633D01*
X0160772Y0092553D01*
X0145781Y0107544D01*
X0142944Y0110470D01*
X0142944Y0111203D01*
X0142107Y0113224D01*
X0140560Y0114771D01*
X0138538Y0115609D01*
X0136350Y0115609D01*
X0134329Y0114771D01*
X0132781Y0113224D01*
X0131944Y0111203D01*
X0131944Y0109015D01*
X0132781Y0106993D01*
X0134329Y0105446D01*
X0136350Y0104609D01*
X0136927Y0104609D01*
X0139216Y0102249D01*
X0139228Y0102218D01*
X0139796Y0101650D01*
X0140355Y0101073D01*
X0140386Y0101060D01*
X0151006Y0090440D01*
X0150481Y0090223D01*
X0149907Y0089840D01*
X0149420Y0089352D01*
X0149037Y0088779D01*
X0148773Y0088142D01*
X0148639Y0087466D01*
X0148639Y0085921D01*
X0148639Y0084377D01*
X0148773Y0083700D01*
X0148889Y0083421D01*
X0148773Y0083142D01*
X0148639Y0082466D01*
X0148639Y0080921D01*
X0148639Y0079377D01*
X0148773Y0078700D01*
X0148889Y0078421D01*
X0148773Y0078142D01*
X0148639Y0077466D01*
X0148639Y0075921D01*
X0148639Y0074377D01*
X0148773Y0073700D01*
X0148780Y0073683D01*
X0148439Y0072857D01*
X0148439Y0068985D01*
X0149002Y0067625D01*
X0150043Y0066585D01*
X0151403Y0066021D01*
X0158875Y0066021D01*
X0160234Y0066585D01*
X0160835Y0067186D01*
X0160835Y0051511D01*
X0152212Y0042610D01*
X0152116Y0042565D01*
X0151058Y0041420D01*
X0146100Y0036463D01*
X0146164Y0036555D01*
X0146371Y0037495D01*
X0146739Y0038384D01*
X0146739Y0039168D01*
X0146908Y0039935D01*
X0146739Y0040882D01*
X0146739Y0061189D01*
X0146866Y0061606D01*
X0146739Y0062907D01*
X0146739Y0064214D01*
X0146572Y0064617D01*
X0146530Y0065051D01*
X0145915Y0066204D01*
X0145415Y0067412D01*
X0145106Y0067720D01*
X0142489Y0072627D01*
X0142489Y0087427D01*
X0141164Y0090625D01*
X0138717Y0093072D01*
X0135520Y0094397D01*
X0132058Y0094397D01*
X0131700Y0094248D01*
X0131700Y0102110D01*
X0131137Y0103470D01*
X0130096Y0104511D01*
X0128736Y0105074D01*
X0120889Y0105074D01*
X0120889Y0106718D01*
X0131267Y0116523D01*
X0132043Y0116523D01*
X0134058Y0117357D01*
X0135599Y0118899D01*
X0136434Y0120914D01*
X0136434Y0123094D01*
X0135599Y0125109D01*
X0134058Y0126651D01*
X0132043Y0127485D01*
X0131189Y0127485D01*
X0131365Y0127912D01*
X0131500Y0128588D01*
X0131500Y0134386D01*
X0122547Y0134386D01*
X0122547Y0135291D01*
X0131500Y0135291D01*
X0131500Y0141089D01*
X0131365Y0141765D01*
X0131102Y0142402D01*
X0130775Y0142891D01*
X0177981Y0142891D01*
X0177654Y0142402D01*
X0177390Y0141765D01*
X0177256Y0141089D01*
X0177256Y0135291D01*
X0186209Y0135291D01*
X0186209Y0134386D01*
X0187114Y0134386D02*
X0187114Y0125433D01*
X0192912Y0125433D01*
X0193588Y0125568D01*
X0194225Y0125831D01*
X0194798Y0126214D01*
X0195286Y0126702D01*
X0195669Y0127275D01*
X0195932Y0127912D01*
X0196067Y0128588D01*
X0196067Y0134386D01*
X0187114Y0134386D01*
X0187114Y0134642D02*
X0196938Y0134642D01*
X0196938Y0129644D02*
X0196067Y0129644D01*
X0196938Y0124645D02*
X0135791Y0124645D01*
X0135909Y0119647D02*
X0196938Y0119647D01*
X0196938Y0114648D02*
X0140683Y0114648D01*
X0143739Y0109650D02*
X0196938Y0109650D01*
X0196938Y0104651D02*
X0148674Y0104651D01*
X0153673Y0099653D02*
X0177056Y0099653D01*
X0177056Y0094654D02*
X0158671Y0094654D01*
X0149723Y0089656D02*
X0141566Y0089656D01*
X0142489Y0084657D02*
X0148639Y0084657D01*
X0148639Y0085921D02*
X0155138Y0085921D01*
X0155138Y0085921D01*
X0155139Y0085921D02*
X0155139Y0085921D01*
X0155139Y0080921D01*
X0155139Y0075921D01*
X0155139Y0075921D01*
X0155138Y0075921D02*
X0148639Y0075921D01*
X0155138Y0075921D01*
X0155138Y0075921D01*
X0155139Y0075921D02*
X0155139Y0080621D01*
X0155139Y0080921D01*
X0155139Y0080921D01*
X0155139Y0080921D01*
X0155138Y0080921D02*
X0148639Y0080921D01*
X0155138Y0080921D01*
X0155138Y0080921D01*
X0155139Y0080921D02*
X0155139Y0085621D01*
X0155139Y0085921D01*
X0155138Y0085921D02*
X0148639Y0085921D01*
X0155139Y0084657D02*
X0155139Y0084657D01*
X0155139Y0079659D02*
X0155139Y0079659D01*
X0148639Y0079659D02*
X0142489Y0079659D01*
X0142489Y0074660D02*
X0148639Y0074660D01*
X0148439Y0069662D02*
X0144071Y0069662D01*
X0146568Y0064663D02*
X0160835Y0064663D01*
X0160835Y0059665D02*
X0146739Y0059665D01*
X0146739Y0054666D02*
X0160835Y0054666D01*
X0159050Y0049668D02*
X0146739Y0049668D01*
X0146739Y0044669D02*
X0154207Y0044669D01*
X0149308Y0039671D02*
X0146850Y0039671D01*
X0153921Y0019677D02*
X0161516Y0019677D01*
X0166920Y0014678D02*
X0148923Y0014678D01*
X0116567Y0014678D02*
X0107881Y0014678D01*
X0107881Y0009680D02*
X0196938Y0009680D01*
X0196938Y0014678D02*
X0188249Y0014678D01*
X0190976Y0019677D02*
X0196938Y0019677D01*
X0196938Y0024675D02*
X0190175Y0024675D01*
X0189194Y0029674D02*
X0196938Y0029674D01*
X0196938Y0034672D02*
X0190676Y0034672D01*
X0189359Y0039671D02*
X0196938Y0039671D01*
X0196938Y0044669D02*
X0189633Y0044669D01*
X0190519Y0049668D02*
X0196938Y0049668D01*
X0196938Y0054666D02*
X0187996Y0054666D01*
X0190136Y0059665D02*
X0196938Y0059665D01*
X0196938Y0064663D02*
X0190265Y0064663D01*
X0186780Y0069662D02*
X0196938Y0069662D01*
X0196938Y0074660D02*
X0188826Y0074660D01*
X0193825Y0079659D02*
X0196938Y0079659D01*
X0196938Y0084657D02*
X0195589Y0084657D01*
X0196267Y0089656D02*
X0196938Y0089656D01*
X0196938Y0094654D02*
X0196267Y0094654D01*
X0196267Y0099653D02*
X0196938Y0099653D01*
X0177056Y0089656D02*
X0176031Y0089656D01*
X0146792Y0094654D02*
X0131700Y0094654D01*
X0131700Y0099653D02*
X0141793Y0099653D01*
X0136247Y0104651D02*
X0129756Y0104651D01*
X0131944Y0109650D02*
X0123992Y0109650D01*
X0129283Y0114648D02*
X0134206Y0114648D01*
X0117052Y0114648D02*
X0107881Y0114648D01*
X0107881Y0109650D02*
X0112590Y0109650D01*
X0112489Y0104651D02*
X0107881Y0104651D01*
X0107881Y0099653D02*
X0109512Y0099653D01*
X0107427Y0089656D02*
X0112489Y0089656D01*
X0107487Y0084657D02*
X0125089Y0084657D01*
X0124839Y0079659D02*
X0107473Y0079659D01*
X0107196Y0074660D02*
X0124839Y0074660D01*
X0122764Y0070740D02*
X0122207Y0070740D01*
X0121102Y0070595D01*
X0120026Y0070306D01*
X0118996Y0069880D01*
X0118031Y0069323D01*
X0117147Y0068645D01*
X0116359Y0067857D01*
X0115681Y0066973D01*
X0115124Y0066008D01*
X0114698Y0064978D01*
X0114409Y0063902D01*
X0114264Y0062797D01*
X0114264Y0062240D01*
X0122764Y0062240D01*
X0122764Y0062240D01*
X0122764Y0070740D01*
X0122764Y0069662D02*
X0122764Y0069662D01*
X0118618Y0069662D02*
X0107229Y0069662D01*
X0107487Y0064663D02*
X0114613Y0064663D01*
X0114654Y0059665D02*
X0107487Y0059665D01*
X0107394Y0054666D02*
X0116666Y0054666D01*
X0114064Y0049668D02*
X0107881Y0049668D01*
X0107669Y0052885D02*
X0107669Y0052885D01*
X0107881Y0044669D02*
X0114917Y0044669D01*
X0115381Y0039671D02*
X0107881Y0039671D01*
X0107881Y0034672D02*
X0114064Y0034672D01*
X0115546Y0029674D02*
X0107881Y0029674D01*
X0107881Y0024675D02*
X0114641Y0024675D01*
X0113839Y0019677D02*
X0107881Y0019677D01*
X0122764Y0064663D02*
X0122764Y0064663D01*
X0077450Y0089656D02*
X0076424Y0089656D01*
X0077450Y0094654D02*
X0059065Y0094654D01*
X0054066Y0099653D02*
X0077450Y0099653D01*
X0055532Y0084657D02*
X0055532Y0084657D01*
X0055532Y0079659D02*
X0055532Y0079659D01*
X0042187Y0099653D02*
X0032094Y0099653D01*
X0030150Y0104651D02*
X0036641Y0104651D01*
X0032338Y0109650D02*
X0024386Y0109650D01*
X0029677Y0114648D02*
X0034599Y0114648D01*
X0031894Y0129644D02*
X0077650Y0129644D01*
X0086602Y0129644D02*
X0087508Y0129644D01*
X0096461Y0139641D02*
X0097725Y0139641D01*
X0097725Y0144639D02*
X0088992Y0144639D01*
X0077650Y0139641D02*
X0031894Y0139641D01*
X0107881Y0139641D02*
X0112689Y0139641D01*
X0117205Y0144639D02*
X0107881Y0144639D01*
X0121642Y0129644D02*
X0122547Y0129644D01*
X0131500Y0129644D02*
X0177256Y0129644D01*
X0186209Y0129644D02*
X0187114Y0129644D01*
X0196067Y0139641D02*
X0196938Y0139641D01*
X0196938Y0144639D02*
X0188598Y0144639D01*
X0177256Y0139641D02*
X0131500Y0139641D01*
M02*
