G75*
%MOIN*%
%OFA0B0*%
%FSLAX25Y25*%
%IPPOS*%
%LPD*%
%AMOC8*
5,1,8,0,0,1.08239X$1,22.5*
%
%ADD10C,0.00000*%
%ADD11R,0.07874X0.04724*%
%ADD12R,0.04724X0.07874*%
%ADD13R,0.06000X0.02400*%
%ADD14C,0.10000*%
%ADD15R,0.04331X0.03937*%
%ADD16R,0.03937X0.04331*%
%ADD17C,0.01000*%
%ADD18C,0.03562*%
%ADD19C,0.10000*%
%ADD20C,0.01600*%
%ADD21C,0.03600*%
%ADD22C,0.04000*%
D10*
X0003787Y0004287D02*
X0003787Y0149957D01*
X0101425Y0149957D01*
X0101425Y0096413D01*
X0101427Y0096340D01*
X0101433Y0096267D01*
X0101443Y0096194D01*
X0101456Y0096122D01*
X0101474Y0096050D01*
X0101495Y0095980D01*
X0101520Y0095911D01*
X0101548Y0095844D01*
X0101580Y0095778D01*
X0101616Y0095713D01*
X0101655Y0095651D01*
X0101697Y0095591D01*
X0101742Y0095533D01*
X0101790Y0095478D01*
X0101842Y0095426D01*
X0101896Y0095376D01*
X0101952Y0095329D01*
X0102011Y0095285D01*
X0102072Y0095245D01*
X0102135Y0095208D01*
X0102200Y0095174D01*
X0102267Y0095143D01*
X0102336Y0095117D01*
X0102405Y0095094D01*
X0102476Y0095074D01*
X0102548Y0095059D01*
X0102620Y0095047D01*
X0102693Y0095039D01*
X0102766Y0095035D01*
X0102840Y0095035D01*
X0102913Y0095039D01*
X0102986Y0095047D01*
X0103058Y0095059D01*
X0103130Y0095074D01*
X0103201Y0095094D01*
X0103270Y0095117D01*
X0103339Y0095143D01*
X0103406Y0095174D01*
X0103471Y0095208D01*
X0103534Y0095245D01*
X0103595Y0095285D01*
X0103654Y0095329D01*
X0103710Y0095376D01*
X0103764Y0095426D01*
X0103816Y0095478D01*
X0103864Y0095533D01*
X0103909Y0095591D01*
X0103951Y0095651D01*
X0103990Y0095713D01*
X0104026Y0095778D01*
X0104058Y0095844D01*
X0104086Y0095911D01*
X0104111Y0095980D01*
X0104132Y0096050D01*
X0104150Y0096122D01*
X0104163Y0096194D01*
X0104173Y0096267D01*
X0104179Y0096340D01*
X0104181Y0096413D01*
X0104181Y0149957D01*
X0200638Y0149957D01*
X0200638Y0096413D01*
X0200638Y0050744D01*
X0200638Y0004287D01*
X0104181Y0004287D01*
X0104181Y0050744D01*
X0104169Y0050816D01*
X0104153Y0050888D01*
X0104133Y0050959D01*
X0104109Y0051029D01*
X0104082Y0051097D01*
X0104051Y0051164D01*
X0104016Y0051229D01*
X0103978Y0051293D01*
X0103937Y0051354D01*
X0103893Y0051413D01*
X0103846Y0051469D01*
X0103796Y0051523D01*
X0103743Y0051574D01*
X0103687Y0051622D01*
X0103629Y0051668D01*
X0103568Y0051710D01*
X0103506Y0051749D01*
X0103441Y0051784D01*
X0103375Y0051816D01*
X0103307Y0051845D01*
X0103238Y0051869D01*
X0103167Y0051891D01*
X0103095Y0051908D01*
X0103023Y0051921D01*
X0102950Y0051931D01*
X0102877Y0051937D01*
X0102803Y0051939D01*
X0102729Y0051937D01*
X0102656Y0051931D01*
X0102583Y0051921D01*
X0102511Y0051908D01*
X0102439Y0051891D01*
X0102368Y0051869D01*
X0102299Y0051845D01*
X0102231Y0051816D01*
X0102165Y0051784D01*
X0102100Y0051749D01*
X0102038Y0051710D01*
X0101977Y0051668D01*
X0101919Y0051622D01*
X0101863Y0051574D01*
X0101810Y0051523D01*
X0101760Y0051469D01*
X0101713Y0051413D01*
X0101669Y0051354D01*
X0101628Y0051293D01*
X0101590Y0051229D01*
X0101555Y0051164D01*
X0101524Y0051097D01*
X0101497Y0051029D01*
X0101473Y0050959D01*
X0101453Y0050888D01*
X0101437Y0050816D01*
X0101425Y0050744D01*
X0101425Y0004287D01*
X0003787Y0004287D01*
X0101425Y0055469D02*
X0101427Y0055538D01*
X0101433Y0055606D01*
X0101443Y0055674D01*
X0101457Y0055741D01*
X0101475Y0055808D01*
X0101496Y0055873D01*
X0101522Y0055937D01*
X0101551Y0055999D01*
X0101583Y0056059D01*
X0101619Y0056118D01*
X0101659Y0056174D01*
X0101701Y0056228D01*
X0101747Y0056279D01*
X0101796Y0056328D01*
X0101847Y0056374D01*
X0101901Y0056416D01*
X0101957Y0056456D01*
X0102015Y0056492D01*
X0102076Y0056524D01*
X0102138Y0056553D01*
X0102202Y0056579D01*
X0102267Y0056600D01*
X0102334Y0056618D01*
X0102401Y0056632D01*
X0102469Y0056642D01*
X0102537Y0056648D01*
X0102606Y0056650D01*
X0102675Y0056648D01*
X0102743Y0056642D01*
X0102811Y0056632D01*
X0102878Y0056618D01*
X0102945Y0056600D01*
X0103010Y0056579D01*
X0103074Y0056553D01*
X0103136Y0056524D01*
X0103196Y0056492D01*
X0103255Y0056456D01*
X0103311Y0056416D01*
X0103365Y0056374D01*
X0103416Y0056328D01*
X0103465Y0056279D01*
X0103511Y0056228D01*
X0103553Y0056174D01*
X0103593Y0056118D01*
X0103629Y0056059D01*
X0103661Y0055999D01*
X0103690Y0055937D01*
X0103716Y0055873D01*
X0103737Y0055808D01*
X0103755Y0055741D01*
X0103769Y0055674D01*
X0103779Y0055606D01*
X0103785Y0055538D01*
X0103787Y0055469D01*
X0103785Y0055400D01*
X0103779Y0055332D01*
X0103769Y0055264D01*
X0103755Y0055197D01*
X0103737Y0055130D01*
X0103716Y0055065D01*
X0103690Y0055001D01*
X0103661Y0054939D01*
X0103629Y0054878D01*
X0103593Y0054820D01*
X0103553Y0054764D01*
X0103511Y0054710D01*
X0103465Y0054659D01*
X0103416Y0054610D01*
X0103365Y0054564D01*
X0103311Y0054522D01*
X0103255Y0054482D01*
X0103197Y0054446D01*
X0103136Y0054414D01*
X0103074Y0054385D01*
X0103010Y0054359D01*
X0102945Y0054338D01*
X0102878Y0054320D01*
X0102811Y0054306D01*
X0102743Y0054296D01*
X0102675Y0054290D01*
X0102606Y0054288D01*
X0102537Y0054290D01*
X0102469Y0054296D01*
X0102401Y0054306D01*
X0102334Y0054320D01*
X0102267Y0054338D01*
X0102202Y0054359D01*
X0102138Y0054385D01*
X0102076Y0054414D01*
X0102015Y0054446D01*
X0101957Y0054482D01*
X0101901Y0054522D01*
X0101847Y0054564D01*
X0101796Y0054610D01*
X0101747Y0054659D01*
X0101701Y0054710D01*
X0101659Y0054764D01*
X0101619Y0054820D01*
X0101583Y0054878D01*
X0101551Y0054939D01*
X0101522Y0055001D01*
X0101496Y0055065D01*
X0101475Y0055130D01*
X0101457Y0055197D01*
X0101443Y0055264D01*
X0101433Y0055332D01*
X0101427Y0055400D01*
X0101425Y0055469D01*
X0101425Y0059406D02*
X0101427Y0059475D01*
X0101433Y0059543D01*
X0101443Y0059611D01*
X0101457Y0059678D01*
X0101475Y0059745D01*
X0101496Y0059810D01*
X0101522Y0059874D01*
X0101551Y0059936D01*
X0101583Y0059996D01*
X0101619Y0060055D01*
X0101659Y0060111D01*
X0101701Y0060165D01*
X0101747Y0060216D01*
X0101796Y0060265D01*
X0101847Y0060311D01*
X0101901Y0060353D01*
X0101957Y0060393D01*
X0102015Y0060429D01*
X0102076Y0060461D01*
X0102138Y0060490D01*
X0102202Y0060516D01*
X0102267Y0060537D01*
X0102334Y0060555D01*
X0102401Y0060569D01*
X0102469Y0060579D01*
X0102537Y0060585D01*
X0102606Y0060587D01*
X0102675Y0060585D01*
X0102743Y0060579D01*
X0102811Y0060569D01*
X0102878Y0060555D01*
X0102945Y0060537D01*
X0103010Y0060516D01*
X0103074Y0060490D01*
X0103136Y0060461D01*
X0103196Y0060429D01*
X0103255Y0060393D01*
X0103311Y0060353D01*
X0103365Y0060311D01*
X0103416Y0060265D01*
X0103465Y0060216D01*
X0103511Y0060165D01*
X0103553Y0060111D01*
X0103593Y0060055D01*
X0103629Y0059996D01*
X0103661Y0059936D01*
X0103690Y0059874D01*
X0103716Y0059810D01*
X0103737Y0059745D01*
X0103755Y0059678D01*
X0103769Y0059611D01*
X0103779Y0059543D01*
X0103785Y0059475D01*
X0103787Y0059406D01*
X0103785Y0059337D01*
X0103779Y0059269D01*
X0103769Y0059201D01*
X0103755Y0059134D01*
X0103737Y0059067D01*
X0103716Y0059002D01*
X0103690Y0058938D01*
X0103661Y0058876D01*
X0103629Y0058815D01*
X0103593Y0058757D01*
X0103553Y0058701D01*
X0103511Y0058647D01*
X0103465Y0058596D01*
X0103416Y0058547D01*
X0103365Y0058501D01*
X0103311Y0058459D01*
X0103255Y0058419D01*
X0103197Y0058383D01*
X0103136Y0058351D01*
X0103074Y0058322D01*
X0103010Y0058296D01*
X0102945Y0058275D01*
X0102878Y0058257D01*
X0102811Y0058243D01*
X0102743Y0058233D01*
X0102675Y0058227D01*
X0102606Y0058225D01*
X0102537Y0058227D01*
X0102469Y0058233D01*
X0102401Y0058243D01*
X0102334Y0058257D01*
X0102267Y0058275D01*
X0102202Y0058296D01*
X0102138Y0058322D01*
X0102076Y0058351D01*
X0102015Y0058383D01*
X0101957Y0058419D01*
X0101901Y0058459D01*
X0101847Y0058501D01*
X0101796Y0058547D01*
X0101747Y0058596D01*
X0101701Y0058647D01*
X0101659Y0058701D01*
X0101619Y0058757D01*
X0101583Y0058815D01*
X0101551Y0058876D01*
X0101522Y0058938D01*
X0101496Y0059002D01*
X0101475Y0059067D01*
X0101457Y0059134D01*
X0101443Y0059201D01*
X0101433Y0059269D01*
X0101427Y0059337D01*
X0101425Y0059406D01*
X0101425Y0063736D02*
X0101427Y0063805D01*
X0101433Y0063873D01*
X0101443Y0063941D01*
X0101457Y0064008D01*
X0101475Y0064075D01*
X0101496Y0064140D01*
X0101522Y0064204D01*
X0101551Y0064266D01*
X0101583Y0064326D01*
X0101619Y0064385D01*
X0101659Y0064441D01*
X0101701Y0064495D01*
X0101747Y0064546D01*
X0101796Y0064595D01*
X0101847Y0064641D01*
X0101901Y0064683D01*
X0101957Y0064723D01*
X0102015Y0064759D01*
X0102076Y0064791D01*
X0102138Y0064820D01*
X0102202Y0064846D01*
X0102267Y0064867D01*
X0102334Y0064885D01*
X0102401Y0064899D01*
X0102469Y0064909D01*
X0102537Y0064915D01*
X0102606Y0064917D01*
X0102675Y0064915D01*
X0102743Y0064909D01*
X0102811Y0064899D01*
X0102878Y0064885D01*
X0102945Y0064867D01*
X0103010Y0064846D01*
X0103074Y0064820D01*
X0103136Y0064791D01*
X0103196Y0064759D01*
X0103255Y0064723D01*
X0103311Y0064683D01*
X0103365Y0064641D01*
X0103416Y0064595D01*
X0103465Y0064546D01*
X0103511Y0064495D01*
X0103553Y0064441D01*
X0103593Y0064385D01*
X0103629Y0064326D01*
X0103661Y0064266D01*
X0103690Y0064204D01*
X0103716Y0064140D01*
X0103737Y0064075D01*
X0103755Y0064008D01*
X0103769Y0063941D01*
X0103779Y0063873D01*
X0103785Y0063805D01*
X0103787Y0063736D01*
X0103785Y0063667D01*
X0103779Y0063599D01*
X0103769Y0063531D01*
X0103755Y0063464D01*
X0103737Y0063397D01*
X0103716Y0063332D01*
X0103690Y0063268D01*
X0103661Y0063206D01*
X0103629Y0063145D01*
X0103593Y0063087D01*
X0103553Y0063031D01*
X0103511Y0062977D01*
X0103465Y0062926D01*
X0103416Y0062877D01*
X0103365Y0062831D01*
X0103311Y0062789D01*
X0103255Y0062749D01*
X0103197Y0062713D01*
X0103136Y0062681D01*
X0103074Y0062652D01*
X0103010Y0062626D01*
X0102945Y0062605D01*
X0102878Y0062587D01*
X0102811Y0062573D01*
X0102743Y0062563D01*
X0102675Y0062557D01*
X0102606Y0062555D01*
X0102537Y0062557D01*
X0102469Y0062563D01*
X0102401Y0062573D01*
X0102334Y0062587D01*
X0102267Y0062605D01*
X0102202Y0062626D01*
X0102138Y0062652D01*
X0102076Y0062681D01*
X0102015Y0062713D01*
X0101957Y0062749D01*
X0101901Y0062789D01*
X0101847Y0062831D01*
X0101796Y0062877D01*
X0101747Y0062926D01*
X0101701Y0062977D01*
X0101659Y0063031D01*
X0101619Y0063087D01*
X0101583Y0063145D01*
X0101551Y0063206D01*
X0101522Y0063268D01*
X0101496Y0063332D01*
X0101475Y0063397D01*
X0101457Y0063464D01*
X0101443Y0063531D01*
X0101433Y0063599D01*
X0101427Y0063667D01*
X0101425Y0063736D01*
X0101425Y0067673D02*
X0101427Y0067742D01*
X0101433Y0067810D01*
X0101443Y0067878D01*
X0101457Y0067945D01*
X0101475Y0068012D01*
X0101496Y0068077D01*
X0101522Y0068141D01*
X0101551Y0068203D01*
X0101583Y0068263D01*
X0101619Y0068322D01*
X0101659Y0068378D01*
X0101701Y0068432D01*
X0101747Y0068483D01*
X0101796Y0068532D01*
X0101847Y0068578D01*
X0101901Y0068620D01*
X0101957Y0068660D01*
X0102015Y0068696D01*
X0102076Y0068728D01*
X0102138Y0068757D01*
X0102202Y0068783D01*
X0102267Y0068804D01*
X0102334Y0068822D01*
X0102401Y0068836D01*
X0102469Y0068846D01*
X0102537Y0068852D01*
X0102606Y0068854D01*
X0102675Y0068852D01*
X0102743Y0068846D01*
X0102811Y0068836D01*
X0102878Y0068822D01*
X0102945Y0068804D01*
X0103010Y0068783D01*
X0103074Y0068757D01*
X0103136Y0068728D01*
X0103196Y0068696D01*
X0103255Y0068660D01*
X0103311Y0068620D01*
X0103365Y0068578D01*
X0103416Y0068532D01*
X0103465Y0068483D01*
X0103511Y0068432D01*
X0103553Y0068378D01*
X0103593Y0068322D01*
X0103629Y0068263D01*
X0103661Y0068203D01*
X0103690Y0068141D01*
X0103716Y0068077D01*
X0103737Y0068012D01*
X0103755Y0067945D01*
X0103769Y0067878D01*
X0103779Y0067810D01*
X0103785Y0067742D01*
X0103787Y0067673D01*
X0103785Y0067604D01*
X0103779Y0067536D01*
X0103769Y0067468D01*
X0103755Y0067401D01*
X0103737Y0067334D01*
X0103716Y0067269D01*
X0103690Y0067205D01*
X0103661Y0067143D01*
X0103629Y0067082D01*
X0103593Y0067024D01*
X0103553Y0066968D01*
X0103511Y0066914D01*
X0103465Y0066863D01*
X0103416Y0066814D01*
X0103365Y0066768D01*
X0103311Y0066726D01*
X0103255Y0066686D01*
X0103197Y0066650D01*
X0103136Y0066618D01*
X0103074Y0066589D01*
X0103010Y0066563D01*
X0102945Y0066542D01*
X0102878Y0066524D01*
X0102811Y0066510D01*
X0102743Y0066500D01*
X0102675Y0066494D01*
X0102606Y0066492D01*
X0102537Y0066494D01*
X0102469Y0066500D01*
X0102401Y0066510D01*
X0102334Y0066524D01*
X0102267Y0066542D01*
X0102202Y0066563D01*
X0102138Y0066589D01*
X0102076Y0066618D01*
X0102015Y0066650D01*
X0101957Y0066686D01*
X0101901Y0066726D01*
X0101847Y0066768D01*
X0101796Y0066814D01*
X0101747Y0066863D01*
X0101701Y0066914D01*
X0101659Y0066968D01*
X0101619Y0067024D01*
X0101583Y0067082D01*
X0101551Y0067143D01*
X0101522Y0067205D01*
X0101496Y0067269D01*
X0101475Y0067334D01*
X0101457Y0067401D01*
X0101443Y0067468D01*
X0101433Y0067536D01*
X0101427Y0067604D01*
X0101425Y0067673D01*
X0101425Y0072004D02*
X0101427Y0072073D01*
X0101433Y0072141D01*
X0101443Y0072209D01*
X0101457Y0072276D01*
X0101475Y0072343D01*
X0101496Y0072408D01*
X0101522Y0072472D01*
X0101551Y0072534D01*
X0101583Y0072594D01*
X0101619Y0072653D01*
X0101659Y0072709D01*
X0101701Y0072763D01*
X0101747Y0072814D01*
X0101796Y0072863D01*
X0101847Y0072909D01*
X0101901Y0072951D01*
X0101957Y0072991D01*
X0102015Y0073027D01*
X0102076Y0073059D01*
X0102138Y0073088D01*
X0102202Y0073114D01*
X0102267Y0073135D01*
X0102334Y0073153D01*
X0102401Y0073167D01*
X0102469Y0073177D01*
X0102537Y0073183D01*
X0102606Y0073185D01*
X0102675Y0073183D01*
X0102743Y0073177D01*
X0102811Y0073167D01*
X0102878Y0073153D01*
X0102945Y0073135D01*
X0103010Y0073114D01*
X0103074Y0073088D01*
X0103136Y0073059D01*
X0103196Y0073027D01*
X0103255Y0072991D01*
X0103311Y0072951D01*
X0103365Y0072909D01*
X0103416Y0072863D01*
X0103465Y0072814D01*
X0103511Y0072763D01*
X0103553Y0072709D01*
X0103593Y0072653D01*
X0103629Y0072594D01*
X0103661Y0072534D01*
X0103690Y0072472D01*
X0103716Y0072408D01*
X0103737Y0072343D01*
X0103755Y0072276D01*
X0103769Y0072209D01*
X0103779Y0072141D01*
X0103785Y0072073D01*
X0103787Y0072004D01*
X0103785Y0071935D01*
X0103779Y0071867D01*
X0103769Y0071799D01*
X0103755Y0071732D01*
X0103737Y0071665D01*
X0103716Y0071600D01*
X0103690Y0071536D01*
X0103661Y0071474D01*
X0103629Y0071413D01*
X0103593Y0071355D01*
X0103553Y0071299D01*
X0103511Y0071245D01*
X0103465Y0071194D01*
X0103416Y0071145D01*
X0103365Y0071099D01*
X0103311Y0071057D01*
X0103255Y0071017D01*
X0103197Y0070981D01*
X0103136Y0070949D01*
X0103074Y0070920D01*
X0103010Y0070894D01*
X0102945Y0070873D01*
X0102878Y0070855D01*
X0102811Y0070841D01*
X0102743Y0070831D01*
X0102675Y0070825D01*
X0102606Y0070823D01*
X0102537Y0070825D01*
X0102469Y0070831D01*
X0102401Y0070841D01*
X0102334Y0070855D01*
X0102267Y0070873D01*
X0102202Y0070894D01*
X0102138Y0070920D01*
X0102076Y0070949D01*
X0102015Y0070981D01*
X0101957Y0071017D01*
X0101901Y0071057D01*
X0101847Y0071099D01*
X0101796Y0071145D01*
X0101747Y0071194D01*
X0101701Y0071245D01*
X0101659Y0071299D01*
X0101619Y0071355D01*
X0101583Y0071413D01*
X0101551Y0071474D01*
X0101522Y0071536D01*
X0101496Y0071600D01*
X0101475Y0071665D01*
X0101457Y0071732D01*
X0101443Y0071799D01*
X0101433Y0071867D01*
X0101427Y0071935D01*
X0101425Y0072004D01*
X0101425Y0075941D02*
X0101427Y0076010D01*
X0101433Y0076078D01*
X0101443Y0076146D01*
X0101457Y0076213D01*
X0101475Y0076280D01*
X0101496Y0076345D01*
X0101522Y0076409D01*
X0101551Y0076471D01*
X0101583Y0076531D01*
X0101619Y0076590D01*
X0101659Y0076646D01*
X0101701Y0076700D01*
X0101747Y0076751D01*
X0101796Y0076800D01*
X0101847Y0076846D01*
X0101901Y0076888D01*
X0101957Y0076928D01*
X0102015Y0076964D01*
X0102076Y0076996D01*
X0102138Y0077025D01*
X0102202Y0077051D01*
X0102267Y0077072D01*
X0102334Y0077090D01*
X0102401Y0077104D01*
X0102469Y0077114D01*
X0102537Y0077120D01*
X0102606Y0077122D01*
X0102675Y0077120D01*
X0102743Y0077114D01*
X0102811Y0077104D01*
X0102878Y0077090D01*
X0102945Y0077072D01*
X0103010Y0077051D01*
X0103074Y0077025D01*
X0103136Y0076996D01*
X0103196Y0076964D01*
X0103255Y0076928D01*
X0103311Y0076888D01*
X0103365Y0076846D01*
X0103416Y0076800D01*
X0103465Y0076751D01*
X0103511Y0076700D01*
X0103553Y0076646D01*
X0103593Y0076590D01*
X0103629Y0076531D01*
X0103661Y0076471D01*
X0103690Y0076409D01*
X0103716Y0076345D01*
X0103737Y0076280D01*
X0103755Y0076213D01*
X0103769Y0076146D01*
X0103779Y0076078D01*
X0103785Y0076010D01*
X0103787Y0075941D01*
X0103785Y0075872D01*
X0103779Y0075804D01*
X0103769Y0075736D01*
X0103755Y0075669D01*
X0103737Y0075602D01*
X0103716Y0075537D01*
X0103690Y0075473D01*
X0103661Y0075411D01*
X0103629Y0075350D01*
X0103593Y0075292D01*
X0103553Y0075236D01*
X0103511Y0075182D01*
X0103465Y0075131D01*
X0103416Y0075082D01*
X0103365Y0075036D01*
X0103311Y0074994D01*
X0103255Y0074954D01*
X0103197Y0074918D01*
X0103136Y0074886D01*
X0103074Y0074857D01*
X0103010Y0074831D01*
X0102945Y0074810D01*
X0102878Y0074792D01*
X0102811Y0074778D01*
X0102743Y0074768D01*
X0102675Y0074762D01*
X0102606Y0074760D01*
X0102537Y0074762D01*
X0102469Y0074768D01*
X0102401Y0074778D01*
X0102334Y0074792D01*
X0102267Y0074810D01*
X0102202Y0074831D01*
X0102138Y0074857D01*
X0102076Y0074886D01*
X0102015Y0074918D01*
X0101957Y0074954D01*
X0101901Y0074994D01*
X0101847Y0075036D01*
X0101796Y0075082D01*
X0101747Y0075131D01*
X0101701Y0075182D01*
X0101659Y0075236D01*
X0101619Y0075292D01*
X0101583Y0075350D01*
X0101551Y0075411D01*
X0101522Y0075473D01*
X0101496Y0075537D01*
X0101475Y0075602D01*
X0101457Y0075669D01*
X0101443Y0075736D01*
X0101433Y0075804D01*
X0101427Y0075872D01*
X0101425Y0075941D01*
X0101425Y0080272D02*
X0101427Y0080341D01*
X0101433Y0080409D01*
X0101443Y0080477D01*
X0101457Y0080544D01*
X0101475Y0080611D01*
X0101496Y0080676D01*
X0101522Y0080740D01*
X0101551Y0080802D01*
X0101583Y0080862D01*
X0101619Y0080921D01*
X0101659Y0080977D01*
X0101701Y0081031D01*
X0101747Y0081082D01*
X0101796Y0081131D01*
X0101847Y0081177D01*
X0101901Y0081219D01*
X0101957Y0081259D01*
X0102015Y0081295D01*
X0102076Y0081327D01*
X0102138Y0081356D01*
X0102202Y0081382D01*
X0102267Y0081403D01*
X0102334Y0081421D01*
X0102401Y0081435D01*
X0102469Y0081445D01*
X0102537Y0081451D01*
X0102606Y0081453D01*
X0102675Y0081451D01*
X0102743Y0081445D01*
X0102811Y0081435D01*
X0102878Y0081421D01*
X0102945Y0081403D01*
X0103010Y0081382D01*
X0103074Y0081356D01*
X0103136Y0081327D01*
X0103196Y0081295D01*
X0103255Y0081259D01*
X0103311Y0081219D01*
X0103365Y0081177D01*
X0103416Y0081131D01*
X0103465Y0081082D01*
X0103511Y0081031D01*
X0103553Y0080977D01*
X0103593Y0080921D01*
X0103629Y0080862D01*
X0103661Y0080802D01*
X0103690Y0080740D01*
X0103716Y0080676D01*
X0103737Y0080611D01*
X0103755Y0080544D01*
X0103769Y0080477D01*
X0103779Y0080409D01*
X0103785Y0080341D01*
X0103787Y0080272D01*
X0103785Y0080203D01*
X0103779Y0080135D01*
X0103769Y0080067D01*
X0103755Y0080000D01*
X0103737Y0079933D01*
X0103716Y0079868D01*
X0103690Y0079804D01*
X0103661Y0079742D01*
X0103629Y0079681D01*
X0103593Y0079623D01*
X0103553Y0079567D01*
X0103511Y0079513D01*
X0103465Y0079462D01*
X0103416Y0079413D01*
X0103365Y0079367D01*
X0103311Y0079325D01*
X0103255Y0079285D01*
X0103197Y0079249D01*
X0103136Y0079217D01*
X0103074Y0079188D01*
X0103010Y0079162D01*
X0102945Y0079141D01*
X0102878Y0079123D01*
X0102811Y0079109D01*
X0102743Y0079099D01*
X0102675Y0079093D01*
X0102606Y0079091D01*
X0102537Y0079093D01*
X0102469Y0079099D01*
X0102401Y0079109D01*
X0102334Y0079123D01*
X0102267Y0079141D01*
X0102202Y0079162D01*
X0102138Y0079188D01*
X0102076Y0079217D01*
X0102015Y0079249D01*
X0101957Y0079285D01*
X0101901Y0079325D01*
X0101847Y0079367D01*
X0101796Y0079413D01*
X0101747Y0079462D01*
X0101701Y0079513D01*
X0101659Y0079567D01*
X0101619Y0079623D01*
X0101583Y0079681D01*
X0101551Y0079742D01*
X0101522Y0079804D01*
X0101496Y0079868D01*
X0101475Y0079933D01*
X0101457Y0080000D01*
X0101443Y0080067D01*
X0101433Y0080135D01*
X0101427Y0080203D01*
X0101425Y0080272D01*
X0101425Y0084209D02*
X0101427Y0084278D01*
X0101433Y0084346D01*
X0101443Y0084414D01*
X0101457Y0084481D01*
X0101475Y0084548D01*
X0101496Y0084613D01*
X0101522Y0084677D01*
X0101551Y0084739D01*
X0101583Y0084799D01*
X0101619Y0084858D01*
X0101659Y0084914D01*
X0101701Y0084968D01*
X0101747Y0085019D01*
X0101796Y0085068D01*
X0101847Y0085114D01*
X0101901Y0085156D01*
X0101957Y0085196D01*
X0102015Y0085232D01*
X0102076Y0085264D01*
X0102138Y0085293D01*
X0102202Y0085319D01*
X0102267Y0085340D01*
X0102334Y0085358D01*
X0102401Y0085372D01*
X0102469Y0085382D01*
X0102537Y0085388D01*
X0102606Y0085390D01*
X0102675Y0085388D01*
X0102743Y0085382D01*
X0102811Y0085372D01*
X0102878Y0085358D01*
X0102945Y0085340D01*
X0103010Y0085319D01*
X0103074Y0085293D01*
X0103136Y0085264D01*
X0103196Y0085232D01*
X0103255Y0085196D01*
X0103311Y0085156D01*
X0103365Y0085114D01*
X0103416Y0085068D01*
X0103465Y0085019D01*
X0103511Y0084968D01*
X0103553Y0084914D01*
X0103593Y0084858D01*
X0103629Y0084799D01*
X0103661Y0084739D01*
X0103690Y0084677D01*
X0103716Y0084613D01*
X0103737Y0084548D01*
X0103755Y0084481D01*
X0103769Y0084414D01*
X0103779Y0084346D01*
X0103785Y0084278D01*
X0103787Y0084209D01*
X0103785Y0084140D01*
X0103779Y0084072D01*
X0103769Y0084004D01*
X0103755Y0083937D01*
X0103737Y0083870D01*
X0103716Y0083805D01*
X0103690Y0083741D01*
X0103661Y0083679D01*
X0103629Y0083618D01*
X0103593Y0083560D01*
X0103553Y0083504D01*
X0103511Y0083450D01*
X0103465Y0083399D01*
X0103416Y0083350D01*
X0103365Y0083304D01*
X0103311Y0083262D01*
X0103255Y0083222D01*
X0103197Y0083186D01*
X0103136Y0083154D01*
X0103074Y0083125D01*
X0103010Y0083099D01*
X0102945Y0083078D01*
X0102878Y0083060D01*
X0102811Y0083046D01*
X0102743Y0083036D01*
X0102675Y0083030D01*
X0102606Y0083028D01*
X0102537Y0083030D01*
X0102469Y0083036D01*
X0102401Y0083046D01*
X0102334Y0083060D01*
X0102267Y0083078D01*
X0102202Y0083099D01*
X0102138Y0083125D01*
X0102076Y0083154D01*
X0102015Y0083186D01*
X0101957Y0083222D01*
X0101901Y0083262D01*
X0101847Y0083304D01*
X0101796Y0083350D01*
X0101747Y0083399D01*
X0101701Y0083450D01*
X0101659Y0083504D01*
X0101619Y0083560D01*
X0101583Y0083618D01*
X0101551Y0083679D01*
X0101522Y0083741D01*
X0101496Y0083805D01*
X0101475Y0083870D01*
X0101457Y0083937D01*
X0101443Y0084004D01*
X0101433Y0084072D01*
X0101427Y0084140D01*
X0101425Y0084209D01*
X0101425Y0088146D02*
X0101427Y0088215D01*
X0101433Y0088283D01*
X0101443Y0088351D01*
X0101457Y0088418D01*
X0101475Y0088485D01*
X0101496Y0088550D01*
X0101522Y0088614D01*
X0101551Y0088676D01*
X0101583Y0088736D01*
X0101619Y0088795D01*
X0101659Y0088851D01*
X0101701Y0088905D01*
X0101747Y0088956D01*
X0101796Y0089005D01*
X0101847Y0089051D01*
X0101901Y0089093D01*
X0101957Y0089133D01*
X0102015Y0089169D01*
X0102076Y0089201D01*
X0102138Y0089230D01*
X0102202Y0089256D01*
X0102267Y0089277D01*
X0102334Y0089295D01*
X0102401Y0089309D01*
X0102469Y0089319D01*
X0102537Y0089325D01*
X0102606Y0089327D01*
X0102675Y0089325D01*
X0102743Y0089319D01*
X0102811Y0089309D01*
X0102878Y0089295D01*
X0102945Y0089277D01*
X0103010Y0089256D01*
X0103074Y0089230D01*
X0103136Y0089201D01*
X0103196Y0089169D01*
X0103255Y0089133D01*
X0103311Y0089093D01*
X0103365Y0089051D01*
X0103416Y0089005D01*
X0103465Y0088956D01*
X0103511Y0088905D01*
X0103553Y0088851D01*
X0103593Y0088795D01*
X0103629Y0088736D01*
X0103661Y0088676D01*
X0103690Y0088614D01*
X0103716Y0088550D01*
X0103737Y0088485D01*
X0103755Y0088418D01*
X0103769Y0088351D01*
X0103779Y0088283D01*
X0103785Y0088215D01*
X0103787Y0088146D01*
X0103785Y0088077D01*
X0103779Y0088009D01*
X0103769Y0087941D01*
X0103755Y0087874D01*
X0103737Y0087807D01*
X0103716Y0087742D01*
X0103690Y0087678D01*
X0103661Y0087616D01*
X0103629Y0087555D01*
X0103593Y0087497D01*
X0103553Y0087441D01*
X0103511Y0087387D01*
X0103465Y0087336D01*
X0103416Y0087287D01*
X0103365Y0087241D01*
X0103311Y0087199D01*
X0103255Y0087159D01*
X0103197Y0087123D01*
X0103136Y0087091D01*
X0103074Y0087062D01*
X0103010Y0087036D01*
X0102945Y0087015D01*
X0102878Y0086997D01*
X0102811Y0086983D01*
X0102743Y0086973D01*
X0102675Y0086967D01*
X0102606Y0086965D01*
X0102537Y0086967D01*
X0102469Y0086973D01*
X0102401Y0086983D01*
X0102334Y0086997D01*
X0102267Y0087015D01*
X0102202Y0087036D01*
X0102138Y0087062D01*
X0102076Y0087091D01*
X0102015Y0087123D01*
X0101957Y0087159D01*
X0101901Y0087199D01*
X0101847Y0087241D01*
X0101796Y0087287D01*
X0101747Y0087336D01*
X0101701Y0087387D01*
X0101659Y0087441D01*
X0101619Y0087497D01*
X0101583Y0087555D01*
X0101551Y0087616D01*
X0101522Y0087678D01*
X0101496Y0087742D01*
X0101475Y0087807D01*
X0101457Y0087874D01*
X0101443Y0087941D01*
X0101433Y0088009D01*
X0101427Y0088077D01*
X0101425Y0088146D01*
X0101425Y0092083D02*
X0101427Y0092152D01*
X0101433Y0092220D01*
X0101443Y0092288D01*
X0101457Y0092355D01*
X0101475Y0092422D01*
X0101496Y0092487D01*
X0101522Y0092551D01*
X0101551Y0092613D01*
X0101583Y0092673D01*
X0101619Y0092732D01*
X0101659Y0092788D01*
X0101701Y0092842D01*
X0101747Y0092893D01*
X0101796Y0092942D01*
X0101847Y0092988D01*
X0101901Y0093030D01*
X0101957Y0093070D01*
X0102015Y0093106D01*
X0102076Y0093138D01*
X0102138Y0093167D01*
X0102202Y0093193D01*
X0102267Y0093214D01*
X0102334Y0093232D01*
X0102401Y0093246D01*
X0102469Y0093256D01*
X0102537Y0093262D01*
X0102606Y0093264D01*
X0102675Y0093262D01*
X0102743Y0093256D01*
X0102811Y0093246D01*
X0102878Y0093232D01*
X0102945Y0093214D01*
X0103010Y0093193D01*
X0103074Y0093167D01*
X0103136Y0093138D01*
X0103196Y0093106D01*
X0103255Y0093070D01*
X0103311Y0093030D01*
X0103365Y0092988D01*
X0103416Y0092942D01*
X0103465Y0092893D01*
X0103511Y0092842D01*
X0103553Y0092788D01*
X0103593Y0092732D01*
X0103629Y0092673D01*
X0103661Y0092613D01*
X0103690Y0092551D01*
X0103716Y0092487D01*
X0103737Y0092422D01*
X0103755Y0092355D01*
X0103769Y0092288D01*
X0103779Y0092220D01*
X0103785Y0092152D01*
X0103787Y0092083D01*
X0103785Y0092014D01*
X0103779Y0091946D01*
X0103769Y0091878D01*
X0103755Y0091811D01*
X0103737Y0091744D01*
X0103716Y0091679D01*
X0103690Y0091615D01*
X0103661Y0091553D01*
X0103629Y0091492D01*
X0103593Y0091434D01*
X0103553Y0091378D01*
X0103511Y0091324D01*
X0103465Y0091273D01*
X0103416Y0091224D01*
X0103365Y0091178D01*
X0103311Y0091136D01*
X0103255Y0091096D01*
X0103197Y0091060D01*
X0103136Y0091028D01*
X0103074Y0090999D01*
X0103010Y0090973D01*
X0102945Y0090952D01*
X0102878Y0090934D01*
X0102811Y0090920D01*
X0102743Y0090910D01*
X0102675Y0090904D01*
X0102606Y0090902D01*
X0102537Y0090904D01*
X0102469Y0090910D01*
X0102401Y0090920D01*
X0102334Y0090934D01*
X0102267Y0090952D01*
X0102202Y0090973D01*
X0102138Y0090999D01*
X0102076Y0091028D01*
X0102015Y0091060D01*
X0101957Y0091096D01*
X0101901Y0091136D01*
X0101847Y0091178D01*
X0101796Y0091224D01*
X0101747Y0091273D01*
X0101701Y0091324D01*
X0101659Y0091378D01*
X0101619Y0091434D01*
X0101583Y0091492D01*
X0101551Y0091553D01*
X0101522Y0091615D01*
X0101496Y0091679D01*
X0101475Y0091744D01*
X0101457Y0091811D01*
X0101443Y0091878D01*
X0101433Y0091946D01*
X0101427Y0092014D01*
X0101425Y0092083D01*
D11*
X0085362Y0094051D03*
X0085362Y0086177D03*
X0085362Y0101925D03*
X0085362Y0109799D03*
X0085362Y0117673D03*
X0085362Y0125547D03*
X0085362Y0133421D03*
X0085362Y0141295D03*
X0120795Y0141295D03*
X0120795Y0133421D03*
X0120795Y0125547D03*
X0120795Y0117673D03*
X0120795Y0109799D03*
X0120795Y0101925D03*
X0120795Y0094051D03*
X0120795Y0086177D03*
X0184575Y0086177D03*
X0184575Y0094051D03*
X0184575Y0101925D03*
X0184575Y0109799D03*
X0184575Y0117673D03*
X0184575Y0125547D03*
X0184575Y0133421D03*
X0184575Y0141295D03*
X0021583Y0141295D03*
X0021583Y0133421D03*
X0021583Y0125547D03*
X0021583Y0117673D03*
X0021583Y0109799D03*
X0021583Y0101925D03*
X0021583Y0094051D03*
X0021583Y0086177D03*
D12*
X0033394Y0078303D03*
X0041268Y0078303D03*
X0049142Y0078303D03*
X0057016Y0078303D03*
X0064890Y0078303D03*
X0072764Y0078303D03*
X0132606Y0078303D03*
X0140480Y0078303D03*
X0148354Y0078303D03*
X0156228Y0078303D03*
X0164102Y0078303D03*
X0171976Y0078303D03*
D13*
X0163918Y0066433D03*
X0163918Y0061433D03*
X0163918Y0056433D03*
X0163918Y0051433D03*
X0163524Y0033677D03*
X0163524Y0028677D03*
X0163524Y0023677D03*
X0163524Y0018677D03*
X0141924Y0018677D03*
X0141924Y0023677D03*
X0141924Y0028677D03*
X0141924Y0033677D03*
X0142318Y0051433D03*
X0142318Y0056433D03*
X0142318Y0061433D03*
X0142318Y0066433D03*
X0064706Y0066433D03*
X0064706Y0061433D03*
X0064706Y0056433D03*
X0064706Y0051433D03*
X0064312Y0033677D03*
X0064312Y0028677D03*
X0064312Y0023677D03*
X0064312Y0018677D03*
X0042712Y0018677D03*
X0042712Y0023677D03*
X0042712Y0028677D03*
X0042712Y0033677D03*
X0043106Y0051433D03*
X0043106Y0056433D03*
X0043106Y0061433D03*
X0043106Y0066433D03*
D14*
X0023157Y0061846D03*
X0023157Y0048067D03*
X0023157Y0034366D03*
X0023157Y0020587D03*
X0082370Y0020587D03*
X0082370Y0034366D03*
X0082213Y0048146D03*
X0082213Y0061925D03*
X0122370Y0061846D03*
X0122370Y0048067D03*
X0122370Y0034366D03*
X0122370Y0020587D03*
X0181583Y0020587D03*
X0181583Y0034366D03*
X0181425Y0048146D03*
X0181425Y0061925D03*
D15*
X0192803Y0086925D03*
X0192803Y0093618D03*
X0112409Y0110547D03*
X0112409Y0117240D03*
X0112409Y0123854D03*
X0112409Y0130547D03*
X0093591Y0093618D03*
X0093591Y0086925D03*
X0013197Y0110547D03*
X0013197Y0117240D03*
X0013197Y0123854D03*
X0013197Y0130547D03*
D16*
X0041701Y0042909D03*
X0048394Y0042909D03*
X0047685Y0011965D03*
X0040992Y0011965D03*
X0140205Y0011965D03*
X0146898Y0011965D03*
X0147606Y0042909D03*
X0140913Y0042909D03*
D17*
X0140595Y0043116D01*
X0133395Y0049922D01*
X0133395Y0069103D01*
X0126195Y0076303D01*
X0126195Y0089803D01*
X0122595Y0093403D01*
X0120795Y0093403D01*
X0120795Y0094051D01*
X0116858Y0090114D02*
X0114417Y0090114D01*
X0112449Y0092083D01*
X0112449Y0094839D01*
X0109095Y0097003D02*
X0113595Y0101503D01*
X0120795Y0101503D01*
X0120795Y0101925D01*
X0120795Y0109603D02*
X0120795Y0109799D01*
X0120795Y0109603D02*
X0122595Y0109603D01*
X0137050Y0109715D01*
X0130559Y0121610D02*
X0113866Y0121610D01*
X0113866Y0118697D01*
X0112409Y0117240D01*
X0113630Y0113736D02*
X0169929Y0113736D01*
X0181740Y0101925D01*
X0184575Y0101925D01*
X0183795Y0101503D01*
X0183795Y0094303D02*
X0184575Y0094051D01*
X0192370Y0094051D01*
X0192803Y0093618D01*
X0181425Y0061925D02*
X0181095Y0061903D01*
X0163995Y0062072D02*
X0163918Y0061433D01*
X0163995Y0061172D01*
X0163995Y0056672D02*
X0163918Y0056433D01*
X0163995Y0055772D01*
X0163995Y0052172D02*
X0163918Y0051433D01*
X0147606Y0042909D02*
X0146895Y0043116D01*
X0142318Y0042909D02*
X0142318Y0051433D01*
X0141495Y0051272D01*
X0131595Y0066403D02*
X0109095Y0088903D01*
X0109095Y0097003D01*
X0116858Y0090114D02*
X0120795Y0086177D01*
X0120795Y0086203D01*
X0131595Y0066403D02*
X0131595Y0022360D01*
X0140202Y0014147D01*
X0140202Y0012347D01*
X0140205Y0011965D01*
X0141924Y0011965D01*
X0141924Y0018677D01*
X0124395Y0021403D02*
X0122370Y0020587D01*
X0122427Y0047897D02*
X0122370Y0048067D01*
X0082370Y0034366D02*
X0081883Y0034003D01*
X0064389Y0028547D02*
X0064312Y0028677D01*
X0064389Y0024047D02*
X0064312Y0023677D01*
X0064389Y0023147D01*
X0064389Y0019547D02*
X0064312Y0018677D01*
X0042712Y0018677D02*
X0042712Y0011965D01*
X0040992Y0011965D01*
X0040989Y0012347D01*
X0040989Y0014147D01*
X0032383Y0022360D01*
X0032383Y0066403D01*
X0009883Y0088903D01*
X0009883Y0097003D01*
X0014383Y0101503D01*
X0021583Y0101503D01*
X0021583Y0101925D01*
X0021583Y0109603D02*
X0021583Y0109799D01*
X0021583Y0109603D02*
X0023383Y0109603D01*
X0037838Y0109715D01*
X0031346Y0121610D02*
X0014654Y0121610D01*
X0014654Y0118697D01*
X0013197Y0117240D01*
X0014417Y0113736D02*
X0070717Y0113736D01*
X0082528Y0101925D01*
X0085362Y0101925D01*
X0084583Y0101503D01*
X0084583Y0094303D02*
X0085362Y0094051D01*
X0093157Y0094051D01*
X0093591Y0093618D01*
X0112409Y0110547D02*
X0112409Y0112516D01*
X0113630Y0113736D01*
X0113866Y0121610D02*
X0112409Y0123854D01*
X0117409Y0125547D02*
X0120795Y0125547D01*
X0116858Y0129484D01*
X0114024Y0129484D01*
X0112961Y0130547D01*
X0112409Y0130547D01*
X0120795Y0125547D02*
X0120795Y0124903D01*
X0122595Y0124903D01*
X0082213Y0061925D02*
X0081883Y0061903D01*
X0064783Y0062072D02*
X0064706Y0061433D01*
X0064783Y0061172D01*
X0064783Y0056672D02*
X0064706Y0056433D01*
X0064783Y0055772D01*
X0064783Y0052172D02*
X0064706Y0051433D01*
X0048394Y0042909D02*
X0047683Y0043116D01*
X0043106Y0042909D02*
X0043106Y0051433D01*
X0042283Y0051272D01*
X0041383Y0043116D02*
X0034183Y0049922D01*
X0034183Y0069103D01*
X0026983Y0076303D01*
X0026983Y0089803D01*
X0023383Y0093403D01*
X0021583Y0093403D01*
X0021583Y0094051D01*
X0017646Y0090114D02*
X0015205Y0090114D01*
X0013236Y0092083D01*
X0013236Y0094839D01*
X0017646Y0090114D02*
X0021583Y0086177D01*
X0021583Y0086203D01*
X0013197Y0110547D02*
X0013197Y0112516D01*
X0014417Y0113736D01*
X0014654Y0121610D02*
X0013197Y0123854D01*
X0018197Y0125547D02*
X0021583Y0125547D01*
X0017646Y0129484D01*
X0014811Y0129484D01*
X0013748Y0130547D01*
X0013197Y0130547D01*
X0021583Y0125547D02*
X0021583Y0124903D01*
X0023383Y0124903D01*
X0023157Y0048067D02*
X0023214Y0047897D01*
X0041383Y0043116D02*
X0041701Y0042909D01*
X0025183Y0021403D02*
X0023157Y0020587D01*
X0163524Y0018677D02*
X0163602Y0019547D01*
X0163602Y0023147D02*
X0163524Y0023677D01*
X0163602Y0024047D01*
X0163602Y0028547D02*
X0163524Y0028677D01*
X0181095Y0034003D02*
X0181583Y0034366D01*
D18*
X0192764Y0027909D03*
X0192764Y0012161D03*
X0177016Y0012161D03*
X0165205Y0012161D03*
X0153394Y0012161D03*
X0153000Y0017280D03*
X0125835Y0012161D03*
X0110087Y0012161D03*
X0093551Y0012161D03*
X0077803Y0012161D03*
X0065992Y0012161D03*
X0054181Y0012161D03*
X0053787Y0017280D03*
X0026622Y0012161D03*
X0010874Y0012161D03*
X0054181Y0049563D03*
X0054181Y0057437D03*
X0054181Y0065311D03*
X0049063Y0086965D03*
X0042370Y0086965D03*
X0041583Y0094839D03*
X0033709Y0094839D03*
X0033709Y0102713D03*
X0013236Y0094839D03*
X0010874Y0102713D03*
X0031346Y0121610D03*
X0042370Y0122398D03*
X0058118Y0122398D03*
X0073866Y0122398D03*
X0073866Y0138146D03*
X0058118Y0138146D03*
X0042370Y0138146D03*
X0010874Y0138146D03*
X0058118Y0106650D03*
X0058118Y0094839D03*
X0073866Y0094839D03*
X0077803Y0086965D03*
X0093551Y0075154D03*
X0110087Y0079091D03*
X0110087Y0071217D03*
X0117961Y0071217D03*
X0117961Y0055469D03*
X0110087Y0055469D03*
X0093551Y0059406D03*
X0093551Y0043657D03*
X0093551Y0027909D03*
X0153394Y0049563D03*
X0153394Y0057437D03*
X0153394Y0065311D03*
X0148276Y0086965D03*
X0141583Y0086965D03*
X0140795Y0094839D03*
X0132921Y0094839D03*
X0132921Y0102713D03*
X0112449Y0094839D03*
X0110087Y0102713D03*
X0093551Y0106650D03*
X0093551Y0122398D03*
X0110087Y0138146D03*
X0130559Y0121610D03*
X0141583Y0122398D03*
X0157331Y0122398D03*
X0173079Y0122398D03*
X0173079Y0138146D03*
X0157331Y0138146D03*
X0141583Y0138146D03*
X0157331Y0106650D03*
X0157331Y0094839D03*
X0173079Y0094839D03*
X0177016Y0086965D03*
X0192764Y0075154D03*
X0192764Y0059406D03*
X0192764Y0043657D03*
X0192764Y0106650D03*
X0192764Y0122398D03*
X0173079Y0106650D03*
X0073866Y0106650D03*
X0018748Y0071217D03*
X0010874Y0071217D03*
X0010874Y0079091D03*
X0010874Y0055469D03*
X0018748Y0055469D03*
D19*
X0016688Y0047897D02*
X0011661Y0042870D01*
X0011661Y0027909D01*
X0020559Y0020587D01*
X0023157Y0020587D01*
X0042764Y0026335D02*
X0042764Y0034209D01*
X0023214Y0047897D02*
X0016688Y0047897D01*
X0043157Y0058618D02*
X0043157Y0064524D01*
X0064706Y0066433D02*
X0064706Y0062149D01*
X0064783Y0062072D01*
X0064706Y0061903D02*
X0064706Y0061433D01*
X0064706Y0059406D01*
X0064706Y0056749D01*
X0064783Y0056672D01*
X0064706Y0056433D02*
X0064706Y0052249D01*
X0064783Y0052172D01*
X0064706Y0061903D02*
X0081883Y0061903D01*
X0110874Y0042870D02*
X0110874Y0027909D01*
X0119772Y0020587D01*
X0122370Y0020587D01*
X0141976Y0026335D02*
X0141976Y0034209D01*
X0163524Y0034003D02*
X0163524Y0033677D01*
X0163524Y0028677D01*
X0163602Y0028600D01*
X0163602Y0024047D01*
X0163524Y0023677D02*
X0163602Y0023600D01*
X0163602Y0019547D01*
X0163524Y0034003D02*
X0181095Y0034003D01*
X0163995Y0052172D02*
X0163918Y0052249D01*
X0163918Y0056433D01*
X0163995Y0056672D02*
X0163918Y0056749D01*
X0163918Y0061433D01*
X0163918Y0061903D01*
X0181095Y0061903D01*
X0163995Y0062072D02*
X0163918Y0062149D01*
X0163918Y0066433D01*
X0142370Y0064524D02*
X0142370Y0058618D01*
X0122427Y0047897D02*
X0115901Y0047897D01*
X0110874Y0042870D01*
X0081883Y0034003D02*
X0064312Y0034003D01*
X0064312Y0033677D01*
X0064312Y0028677D01*
X0064389Y0028600D01*
X0064389Y0024047D01*
X0064312Y0023677D02*
X0064389Y0023600D01*
X0064389Y0019547D01*
D20*
X0043106Y0042909D02*
X0041701Y0042909D01*
X0140913Y0042909D02*
X0142318Y0042909D01*
D21*
X0137050Y0109715D03*
X0037838Y0109715D03*
D22*
X0034493Y0105989D02*
X0035006Y0105476D01*
X0036843Y0104715D01*
X0038832Y0104715D01*
X0040670Y0105476D01*
X0042077Y0106883D01*
X0042838Y0108720D01*
X0042838Y0110036D01*
X0069184Y0110036D01*
X0078225Y0100995D01*
X0078225Y0098926D01*
X0078614Y0097988D01*
X0078225Y0097050D01*
X0078225Y0091052D01*
X0078712Y0089876D01*
X0078726Y0089863D01*
X0078540Y0089414D01*
X0078425Y0088835D01*
X0078425Y0086177D01*
X0078425Y0083519D01*
X0078540Y0082940D01*
X0078767Y0082394D01*
X0079095Y0081903D01*
X0079513Y0081485D01*
X0080004Y0081156D01*
X0080550Y0080930D01*
X0081130Y0080815D01*
X0085362Y0080815D01*
X0085362Y0086177D01*
X0078425Y0086177D01*
X0085362Y0086177D01*
X0085362Y0086177D01*
X0085362Y0086177D01*
X0085362Y0080815D01*
X0089595Y0080815D01*
X0090174Y0080930D01*
X0090720Y0081156D01*
X0091212Y0081485D01*
X0091629Y0081903D01*
X0091666Y0081957D01*
X0093590Y0081957D01*
X0093590Y0086925D01*
X0093591Y0086925D01*
X0093591Y0081957D01*
X0096051Y0081957D01*
X0096631Y0082072D01*
X0097177Y0082298D01*
X0097668Y0082626D01*
X0098086Y0083044D01*
X0098247Y0083285D01*
X0098680Y0082240D01*
X0098225Y0081143D01*
X0098225Y0079400D01*
X0098761Y0078106D01*
X0098225Y0076812D01*
X0098225Y0075069D01*
X0098680Y0073972D01*
X0098225Y0072875D01*
X0098225Y0071132D01*
X0098761Y0069839D01*
X0098225Y0068545D01*
X0098225Y0066802D01*
X0098680Y0065705D01*
X0098225Y0064608D01*
X0098225Y0062865D01*
X0098761Y0061571D01*
X0098225Y0060277D01*
X0098225Y0058534D01*
X0098680Y0057437D01*
X0098225Y0056340D01*
X0098225Y0054597D01*
X0098892Y0052987D01*
X0098899Y0052980D01*
X0098415Y0052300D01*
X0098314Y0051596D01*
X0098225Y0051381D01*
X0098225Y0050972D01*
X0098167Y0050567D01*
X0098225Y0050341D01*
X0098225Y0007487D01*
X0051584Y0007487D01*
X0051984Y0007887D01*
X0052312Y0008378D01*
X0052538Y0008924D01*
X0052654Y0009504D01*
X0052654Y0011964D01*
X0047685Y0011964D01*
X0047685Y0011965D01*
X0052654Y0011965D01*
X0052654Y0014425D01*
X0052538Y0015005D01*
X0052312Y0015551D01*
X0051984Y0016042D01*
X0051566Y0016460D01*
X0051075Y0016788D01*
X0050529Y0017015D01*
X0049949Y0017130D01*
X0048912Y0017130D01*
X0048912Y0020514D01*
X0048529Y0021438D01*
X0048597Y0021602D01*
X0048712Y0022182D01*
X0048712Y0023677D01*
X0042712Y0023677D01*
X0042712Y0023677D01*
X0048712Y0023677D01*
X0048712Y0025173D01*
X0048597Y0025752D01*
X0048420Y0026177D01*
X0048597Y0026602D01*
X0048712Y0027182D01*
X0048712Y0028677D01*
X0042712Y0028677D01*
X0042712Y0028677D01*
X0042712Y0023677D01*
X0042712Y0023677D01*
X0036712Y0023677D01*
X0036712Y0023343D01*
X0036083Y0023943D01*
X0036083Y0043034D01*
X0036532Y0042609D01*
X0036532Y0040108D01*
X0037019Y0038931D01*
X0037920Y0038031D01*
X0038703Y0037707D01*
X0038291Y0037536D01*
X0037799Y0037207D01*
X0037382Y0036790D01*
X0037053Y0036298D01*
X0036827Y0035752D01*
X0036712Y0035173D01*
X0036712Y0033677D01*
X0036712Y0032182D01*
X0036827Y0031602D01*
X0037003Y0031177D01*
X0036827Y0030752D01*
X0036712Y0030173D01*
X0036712Y0028677D01*
X0036712Y0027182D01*
X0036827Y0026602D01*
X0037003Y0026177D01*
X0036827Y0025752D01*
X0036712Y0025173D01*
X0036712Y0023677D01*
X0042712Y0023677D01*
X0042712Y0023677D01*
X0042712Y0027877D01*
X0042712Y0028677D01*
X0042712Y0028677D01*
X0048712Y0028677D01*
X0048712Y0030173D01*
X0048597Y0030752D01*
X0048420Y0031177D01*
X0048597Y0031602D01*
X0048712Y0032182D01*
X0048712Y0033677D01*
X0042712Y0033677D01*
X0042712Y0033677D01*
X0042712Y0028677D01*
X0042712Y0028677D01*
X0036712Y0028677D01*
X0042712Y0028677D01*
X0042712Y0028677D01*
X0042712Y0032877D01*
X0042712Y0033677D01*
X0042712Y0033677D01*
X0048712Y0033677D01*
X0048712Y0035173D01*
X0048597Y0035752D01*
X0048370Y0036298D01*
X0048042Y0036790D01*
X0047624Y0037207D01*
X0047133Y0037536D01*
X0046630Y0037744D01*
X0048394Y0037744D01*
X0050658Y0037744D01*
X0051237Y0037859D01*
X0051783Y0038086D01*
X0052275Y0038414D01*
X0052692Y0038832D01*
X0053021Y0039323D01*
X0053247Y0039869D01*
X0053362Y0040449D01*
X0053362Y0042909D01*
X0048394Y0042909D01*
X0048394Y0037744D01*
X0048394Y0042909D01*
X0048394Y0042909D01*
X0048394Y0042909D01*
X0053362Y0042909D01*
X0053362Y0045370D01*
X0053247Y0045950D01*
X0053021Y0046496D01*
X0052692Y0046987D01*
X0052275Y0047405D01*
X0051783Y0047733D01*
X0051237Y0047959D01*
X0050658Y0048075D01*
X0048473Y0048075D01*
X0048818Y0048420D01*
X0049305Y0049597D01*
X0049305Y0053270D01*
X0048922Y0054194D01*
X0048990Y0054358D01*
X0049105Y0054938D01*
X0049105Y0056433D01*
X0043106Y0056433D01*
X0043106Y0056433D01*
X0049105Y0056433D01*
X0049105Y0057929D01*
X0048990Y0058508D01*
X0048814Y0058933D01*
X0048990Y0059358D01*
X0049105Y0059938D01*
X0049105Y0061433D01*
X0043106Y0061433D01*
X0043106Y0061433D01*
X0049105Y0061433D01*
X0049105Y0062929D01*
X0048990Y0063508D01*
X0048814Y0063933D01*
X0048990Y0064358D01*
X0049105Y0064938D01*
X0049105Y0066433D01*
X0043106Y0066433D01*
X0043106Y0066433D01*
X0049105Y0066433D01*
X0049105Y0067929D01*
X0048990Y0068508D01*
X0048764Y0069054D01*
X0048436Y0069545D01*
X0048018Y0069963D01*
X0047527Y0070292D01*
X0046981Y0070518D01*
X0046401Y0070633D01*
X0043106Y0070633D01*
X0043106Y0066433D01*
X0043106Y0061433D01*
X0043106Y0056433D01*
X0043105Y0056433D01*
X0043105Y0060633D01*
X0043105Y0061433D01*
X0043106Y0061433D01*
X0043105Y0061433D01*
X0043105Y0062233D01*
X0043105Y0066433D01*
X0043106Y0066433D01*
X0043105Y0066433D01*
X0043105Y0070633D01*
X0039810Y0070633D01*
X0039230Y0070518D01*
X0038684Y0070292D01*
X0038193Y0069963D01*
X0037883Y0069653D01*
X0037883Y0069839D01*
X0037319Y0071199D01*
X0037071Y0071447D01*
X0037331Y0071555D01*
X0038269Y0071166D01*
X0044266Y0071166D01*
X0045205Y0071555D01*
X0046143Y0071166D01*
X0052140Y0071166D01*
X0053079Y0071555D01*
X0054017Y0071166D01*
X0057842Y0071166D01*
X0057754Y0071078D01*
X0056506Y0068064D01*
X0056506Y0050618D01*
X0057754Y0047604D01*
X0060061Y0045297D01*
X0060138Y0045220D01*
X0063152Y0043972D01*
X0066414Y0043972D01*
X0069428Y0045220D01*
X0071734Y0047527D01*
X0072983Y0050541D01*
X0072983Y0053703D01*
X0076174Y0053703D01*
X0075261Y0052791D01*
X0074013Y0049777D01*
X0074013Y0046515D01*
X0075261Y0043501D01*
X0076559Y0042203D01*
X0062681Y0042203D01*
X0059667Y0040955D01*
X0057360Y0038648D01*
X0056112Y0035634D01*
X0056112Y0027046D01*
X0056189Y0026860D01*
X0056189Y0025495D01*
X0056112Y0025308D01*
X0056112Y0022046D01*
X0056189Y0021860D01*
X0056189Y0017916D01*
X0057437Y0014902D01*
X0059744Y0012596D01*
X0062758Y0011347D01*
X0066020Y0011347D01*
X0069034Y0012596D01*
X0071341Y0014902D01*
X0072589Y0017916D01*
X0072589Y0025803D01*
X0075990Y0025803D01*
X0075418Y0025232D01*
X0074170Y0022218D01*
X0074170Y0018956D01*
X0075418Y0015942D01*
X0077725Y0013635D01*
X0080739Y0012387D01*
X0084001Y0012387D01*
X0087015Y0013635D01*
X0089322Y0015942D01*
X0090570Y0018956D01*
X0090570Y0022218D01*
X0089322Y0025232D01*
X0087077Y0027476D01*
X0089322Y0029721D01*
X0090570Y0032735D01*
X0090570Y0035997D01*
X0089322Y0039011D01*
X0087015Y0041318D01*
X0086991Y0041328D01*
X0089164Y0043501D01*
X0090413Y0046515D01*
X0090413Y0049777D01*
X0089164Y0052791D01*
X0086919Y0055035D01*
X0089164Y0057280D01*
X0090413Y0060294D01*
X0090413Y0063556D01*
X0089164Y0066570D01*
X0086858Y0068877D01*
X0083844Y0070125D01*
X0080582Y0070125D01*
X0080528Y0070103D01*
X0072061Y0070103D01*
X0071657Y0071078D01*
X0071569Y0071166D01*
X0075763Y0071166D01*
X0076939Y0071653D01*
X0077839Y0072553D01*
X0078326Y0073730D01*
X0078326Y0082877D01*
X0077839Y0084053D01*
X0076939Y0084953D01*
X0075763Y0085440D01*
X0069765Y0085440D01*
X0068827Y0085051D01*
X0067888Y0085440D01*
X0061891Y0085440D01*
X0060953Y0085051D01*
X0060014Y0085440D01*
X0054017Y0085440D01*
X0053079Y0085051D01*
X0052140Y0085440D01*
X0046143Y0085440D01*
X0045205Y0085051D01*
X0044266Y0085440D01*
X0038269Y0085440D01*
X0037331Y0085051D01*
X0036392Y0085440D01*
X0030683Y0085440D01*
X0030683Y0090539D01*
X0030119Y0091899D01*
X0028720Y0093299D01*
X0028720Y0097050D01*
X0028331Y0097988D01*
X0028720Y0098926D01*
X0028720Y0104924D01*
X0028331Y0105862D01*
X0028364Y0105942D01*
X0034493Y0105989D01*
X0028720Y0104250D02*
X0074970Y0104250D01*
X0078225Y0100252D02*
X0028720Y0100252D01*
X0028720Y0096253D02*
X0078225Y0096253D01*
X0078225Y0092255D02*
X0029764Y0092255D01*
X0030683Y0088256D02*
X0078425Y0088256D01*
X0078425Y0084258D02*
X0077634Y0084258D01*
X0078326Y0080259D02*
X0098225Y0080259D01*
X0098225Y0076261D02*
X0078326Y0076261D01*
X0077547Y0072262D02*
X0098225Y0072262D01*
X0098225Y0068264D02*
X0087471Y0068264D01*
X0090119Y0064265D02*
X0098225Y0064265D01*
X0098225Y0060267D02*
X0090401Y0060267D01*
X0088152Y0056268D02*
X0098225Y0056268D01*
X0098415Y0052300D02*
X0098415Y0052300D01*
X0098411Y0052270D02*
X0089380Y0052270D01*
X0090413Y0048271D02*
X0098225Y0048271D01*
X0098225Y0044273D02*
X0089484Y0044273D01*
X0088059Y0040274D02*
X0098225Y0040274D01*
X0098225Y0036275D02*
X0090455Y0036275D01*
X0090380Y0032277D02*
X0098225Y0032277D01*
X0098225Y0028278D02*
X0087879Y0028278D01*
X0089716Y0024280D02*
X0098225Y0024280D01*
X0098225Y0020281D02*
X0090570Y0020281D01*
X0089463Y0016283D02*
X0098225Y0016283D01*
X0098225Y0012284D02*
X0068283Y0012284D01*
X0071912Y0016283D02*
X0075277Y0016283D01*
X0074170Y0020281D02*
X0072589Y0020281D01*
X0072589Y0024280D02*
X0075024Y0024280D01*
X0060495Y0012284D02*
X0052654Y0012284D01*
X0051743Y0016283D02*
X0056865Y0016283D01*
X0056189Y0020281D02*
X0048912Y0020281D01*
X0048712Y0024280D02*
X0056112Y0024280D01*
X0056112Y0028278D02*
X0048712Y0028278D01*
X0048712Y0032277D02*
X0056112Y0032277D01*
X0056377Y0036275D02*
X0048380Y0036275D01*
X0048394Y0040274D02*
X0048394Y0040274D01*
X0053327Y0040274D02*
X0058986Y0040274D01*
X0062425Y0044273D02*
X0053362Y0044273D01*
X0057478Y0048271D02*
X0048669Y0048271D01*
X0049305Y0052270D02*
X0056506Y0052270D01*
X0056506Y0056268D02*
X0049105Y0056268D01*
X0049105Y0060267D02*
X0056506Y0060267D01*
X0056506Y0064265D02*
X0048952Y0064265D01*
X0043106Y0064265D02*
X0043105Y0064265D01*
X0043105Y0060267D02*
X0043106Y0060267D01*
X0043105Y0068264D02*
X0043106Y0068264D01*
X0049039Y0068264D02*
X0056588Y0068264D01*
X0072983Y0052270D02*
X0075045Y0052270D01*
X0074013Y0048271D02*
X0072043Y0048271D01*
X0074941Y0044273D02*
X0067140Y0044273D01*
X0042712Y0033677D02*
X0042712Y0033677D01*
X0036712Y0033677D01*
X0042712Y0033677D01*
X0042712Y0032277D02*
X0042712Y0032277D01*
X0042712Y0028278D02*
X0042712Y0028278D01*
X0042712Y0024280D02*
X0042712Y0024280D01*
X0036712Y0024280D02*
X0036083Y0024280D01*
X0036083Y0028278D02*
X0036712Y0028278D01*
X0036712Y0032277D02*
X0036083Y0032277D01*
X0036083Y0036275D02*
X0037044Y0036275D01*
X0036532Y0040274D02*
X0036083Y0040274D01*
X0017593Y0056097D02*
X0015057Y0056097D01*
X0012043Y0054848D01*
X0007016Y0049822D01*
X0006987Y0049793D01*
X0006987Y0086566D01*
X0007787Y0085766D01*
X0023711Y0069843D01*
X0023682Y0069846D01*
X0023158Y0069846D01*
X0023158Y0061847D01*
X0023157Y0061847D01*
X0023157Y0069846D01*
X0022633Y0069846D01*
X0021593Y0069710D01*
X0020580Y0069438D01*
X0019612Y0069037D01*
X0018703Y0068512D01*
X0017871Y0067874D01*
X0017130Y0067133D01*
X0016491Y0066301D01*
X0015967Y0065392D01*
X0015566Y0064423D01*
X0015294Y0063411D01*
X0015157Y0062371D01*
X0015157Y0061847D01*
X0023157Y0061847D01*
X0023157Y0061846D01*
X0015157Y0061846D01*
X0015157Y0061322D01*
X0015294Y0060282D01*
X0015566Y0059269D01*
X0015967Y0058301D01*
X0016491Y0057392D01*
X0017130Y0056560D01*
X0017593Y0056097D01*
X0017422Y0056268D02*
X0006987Y0056268D01*
X0006987Y0060267D02*
X0015299Y0060267D01*
X0015523Y0064265D02*
X0006987Y0064265D01*
X0006987Y0068264D02*
X0018379Y0068264D01*
X0021291Y0072262D02*
X0006987Y0072262D01*
X0006987Y0076261D02*
X0017293Y0076261D01*
X0013294Y0080259D02*
X0006987Y0080259D01*
X0006987Y0084258D02*
X0009296Y0084258D01*
X0006987Y0099340D02*
X0006987Y0146757D01*
X0016766Y0146757D01*
X0015833Y0146370D01*
X0014933Y0145470D01*
X0014446Y0144294D01*
X0014446Y0138297D01*
X0014834Y0137358D01*
X0014446Y0136420D01*
X0014446Y0135716D01*
X0010395Y0135716D01*
X0009219Y0135229D01*
X0008319Y0134328D01*
X0007831Y0133152D01*
X0007831Y0127942D01*
X0008139Y0127201D01*
X0007831Y0126459D01*
X0007831Y0121249D01*
X0008122Y0120547D01*
X0007831Y0119845D01*
X0007831Y0114635D01*
X0008139Y0113894D01*
X0007831Y0113152D01*
X0007831Y0107942D01*
X0008319Y0106766D01*
X0009219Y0105866D01*
X0010395Y0105379D01*
X0014634Y0105379D01*
X0014561Y0105203D01*
X0013647Y0105203D01*
X0012287Y0104640D01*
X0011246Y0103599D01*
X0006987Y0099340D01*
X0006987Y0100252D02*
X0007899Y0100252D01*
X0006987Y0104250D02*
X0011897Y0104250D01*
X0007831Y0108249D02*
X0006987Y0108249D01*
X0006987Y0112247D02*
X0007831Y0112247D01*
X0007831Y0116246D02*
X0006987Y0116246D01*
X0006987Y0120244D02*
X0007997Y0120244D01*
X0007831Y0124243D02*
X0006987Y0124243D01*
X0006987Y0128241D02*
X0007831Y0128241D01*
X0007831Y0132240D02*
X0006987Y0132240D01*
X0006987Y0136238D02*
X0014446Y0136238D01*
X0014446Y0140237D02*
X0006987Y0140237D01*
X0006987Y0144235D02*
X0014446Y0144235D01*
X0028720Y0138297D02*
X0028331Y0137358D01*
X0028720Y0136420D01*
X0028720Y0130423D01*
X0028331Y0129484D01*
X0028720Y0128546D01*
X0028720Y0125914D01*
X0030356Y0126591D01*
X0032337Y0126591D01*
X0034168Y0125833D01*
X0035569Y0124432D01*
X0036328Y0122601D01*
X0036328Y0120619D01*
X0035569Y0118789D01*
X0034217Y0117436D01*
X0069981Y0117436D01*
X0071453Y0117436D01*
X0072812Y0116873D01*
X0078225Y0111460D01*
X0078225Y0112798D01*
X0078614Y0113736D01*
X0078225Y0114674D01*
X0078225Y0120672D01*
X0078614Y0121610D01*
X0078225Y0122549D01*
X0078225Y0128546D01*
X0078614Y0129484D01*
X0078225Y0130423D01*
X0078225Y0136420D01*
X0078614Y0137358D01*
X0078225Y0138297D01*
X0078225Y0142997D01*
X0028720Y0142997D01*
X0028720Y0138297D01*
X0028720Y0140237D02*
X0078225Y0140237D01*
X0078225Y0136238D02*
X0028720Y0136238D01*
X0028720Y0132240D02*
X0078225Y0132240D01*
X0078225Y0128241D02*
X0028720Y0128241D01*
X0035648Y0124243D02*
X0078225Y0124243D01*
X0078225Y0120244D02*
X0036172Y0120244D01*
X0042642Y0108249D02*
X0070971Y0108249D01*
X0077438Y0112247D02*
X0078225Y0112247D01*
X0078225Y0116246D02*
X0073440Y0116246D01*
X0092111Y0113736D02*
X0092499Y0114674D01*
X0092499Y0120672D01*
X0092111Y0121610D01*
X0092499Y0122549D01*
X0092499Y0128546D01*
X0092111Y0129484D01*
X0092499Y0130423D01*
X0092499Y0136420D01*
X0092111Y0137358D01*
X0092499Y0138297D01*
X0092499Y0144294D01*
X0092012Y0145470D01*
X0091112Y0146370D01*
X0090179Y0146757D01*
X0098225Y0146757D01*
X0098225Y0097643D01*
X0097569Y0098299D01*
X0096392Y0098787D01*
X0092441Y0098787D01*
X0092499Y0098926D01*
X0092499Y0104924D01*
X0092111Y0105862D01*
X0092499Y0106800D01*
X0092499Y0112798D01*
X0092111Y0113736D01*
X0092499Y0112247D02*
X0098225Y0112247D01*
X0098225Y0116246D02*
X0092499Y0116246D01*
X0092499Y0120244D02*
X0098225Y0120244D01*
X0098225Y0124243D02*
X0092499Y0124243D01*
X0092499Y0128241D02*
X0098225Y0128241D01*
X0098225Y0132240D02*
X0092499Y0132240D01*
X0092499Y0136238D02*
X0098225Y0136238D01*
X0098225Y0140237D02*
X0092499Y0140237D01*
X0092499Y0144235D02*
X0098225Y0144235D01*
X0107381Y0144235D02*
X0113658Y0144235D01*
X0113658Y0144294D02*
X0113658Y0138297D01*
X0114047Y0137358D01*
X0113658Y0136420D01*
X0113658Y0135716D01*
X0109608Y0135716D01*
X0108431Y0135229D01*
X0107531Y0134328D01*
X0107381Y0133966D01*
X0107381Y0146757D01*
X0115978Y0146757D01*
X0115046Y0146370D01*
X0114145Y0145470D01*
X0113658Y0144294D01*
X0113658Y0140237D02*
X0107381Y0140237D01*
X0107381Y0136238D02*
X0113658Y0136238D01*
X0127544Y0137358D02*
X0127932Y0138297D01*
X0127932Y0142997D01*
X0177438Y0142997D01*
X0177438Y0138297D01*
X0177826Y0137358D01*
X0177438Y0136420D01*
X0177438Y0130423D01*
X0177826Y0129484D01*
X0177438Y0128546D01*
X0177438Y0122549D01*
X0177826Y0121610D01*
X0177438Y0120672D01*
X0177438Y0114674D01*
X0177826Y0113736D01*
X0177438Y0112798D01*
X0177438Y0111460D01*
X0172025Y0116873D01*
X0170665Y0117436D01*
X0169193Y0117436D01*
X0133429Y0117436D01*
X0134782Y0118789D01*
X0135540Y0120619D01*
X0135540Y0122601D01*
X0134782Y0124432D01*
X0133381Y0125833D01*
X0131550Y0126591D01*
X0129568Y0126591D01*
X0127932Y0125914D01*
X0127932Y0128546D01*
X0127544Y0129484D01*
X0127932Y0130423D01*
X0127932Y0136420D01*
X0127544Y0137358D01*
X0127932Y0136238D02*
X0177438Y0136238D01*
X0177438Y0132240D02*
X0127932Y0132240D01*
X0127932Y0128241D02*
X0177438Y0128241D01*
X0177438Y0124243D02*
X0134860Y0124243D01*
X0135385Y0120244D02*
X0177438Y0120244D01*
X0177438Y0116246D02*
X0172652Y0116246D01*
X0176651Y0112247D02*
X0177438Y0112247D01*
X0170184Y0108249D02*
X0141855Y0108249D01*
X0142050Y0108720D02*
X0142050Y0110036D01*
X0168397Y0110036D01*
X0177438Y0100995D01*
X0177438Y0098926D01*
X0177826Y0097988D01*
X0177438Y0097050D01*
X0177438Y0091052D01*
X0177925Y0089876D01*
X0177939Y0089863D01*
X0177753Y0089414D01*
X0177638Y0088835D01*
X0177638Y0086177D01*
X0177638Y0083519D01*
X0177753Y0082940D01*
X0177979Y0082394D01*
X0178308Y0081903D01*
X0178725Y0081485D01*
X0179217Y0081156D01*
X0179763Y0080930D01*
X0180342Y0080815D01*
X0184575Y0080815D01*
X0188807Y0080815D01*
X0189387Y0080930D01*
X0189933Y0081156D01*
X0190424Y0081485D01*
X0190842Y0081903D01*
X0190878Y0081957D01*
X0192803Y0081957D01*
X0192803Y0086925D01*
X0192803Y0086925D01*
X0192803Y0081957D01*
X0195264Y0081957D01*
X0195844Y0082072D01*
X0196390Y0082298D01*
X0196881Y0082626D01*
X0197299Y0083044D01*
X0197438Y0083252D01*
X0197438Y0007487D01*
X0150797Y0007487D01*
X0151196Y0007887D01*
X0151525Y0008378D01*
X0151751Y0008924D01*
X0151866Y0009504D01*
X0151866Y0011964D01*
X0146898Y0011964D01*
X0146898Y0011965D01*
X0151866Y0011965D01*
X0151866Y0014425D01*
X0151751Y0015005D01*
X0151525Y0015551D01*
X0151196Y0016042D01*
X0150779Y0016460D01*
X0150287Y0016788D01*
X0149741Y0017015D01*
X0149162Y0017130D01*
X0148124Y0017130D01*
X0148124Y0020514D01*
X0147741Y0021438D01*
X0147809Y0021602D01*
X0147924Y0022182D01*
X0147924Y0023677D01*
X0141925Y0023677D01*
X0141925Y0023677D01*
X0147924Y0023677D01*
X0147924Y0025173D01*
X0147809Y0025752D01*
X0147633Y0026177D01*
X0147809Y0026602D01*
X0147924Y0027182D01*
X0147924Y0028677D01*
X0141925Y0028677D01*
X0141925Y0028677D01*
X0147924Y0028677D01*
X0147924Y0030173D01*
X0147809Y0030752D01*
X0147633Y0031177D01*
X0147809Y0031602D01*
X0147924Y0032182D01*
X0147924Y0033677D01*
X0141925Y0033677D01*
X0141925Y0033677D01*
X0147924Y0033677D01*
X0147924Y0035173D01*
X0147809Y0035752D01*
X0147583Y0036298D01*
X0147255Y0036790D01*
X0146837Y0037207D01*
X0146345Y0037536D01*
X0145842Y0037744D01*
X0147606Y0037744D01*
X0147606Y0042909D01*
X0147606Y0042909D01*
X0147606Y0037744D01*
X0149870Y0037744D01*
X0150450Y0037859D01*
X0150996Y0038086D01*
X0151487Y0038414D01*
X0151905Y0038832D01*
X0152233Y0039323D01*
X0152459Y0039869D01*
X0152575Y0040449D01*
X0152575Y0042909D01*
X0147606Y0042909D01*
X0147606Y0042909D01*
X0152575Y0042909D01*
X0152575Y0045370D01*
X0152459Y0045950D01*
X0152233Y0046496D01*
X0151905Y0046987D01*
X0151487Y0047405D01*
X0150996Y0047733D01*
X0150450Y0047959D01*
X0149870Y0048075D01*
X0147685Y0048075D01*
X0148031Y0048420D01*
X0148518Y0049597D01*
X0148518Y0053270D01*
X0148135Y0054194D01*
X0148203Y0054358D01*
X0148318Y0054938D01*
X0148318Y0056433D01*
X0142318Y0056433D01*
X0142318Y0060633D01*
X0142318Y0061433D01*
X0142318Y0061433D01*
X0142318Y0056433D01*
X0142318Y0056433D01*
X0142318Y0056433D01*
X0148318Y0056433D01*
X0148318Y0057929D01*
X0148203Y0058508D01*
X0148027Y0058933D01*
X0148203Y0059358D01*
X0148318Y0059938D01*
X0148318Y0061433D01*
X0142318Y0061433D01*
X0142318Y0065633D01*
X0142318Y0066433D01*
X0142318Y0066433D01*
X0142318Y0061433D01*
X0142318Y0061433D01*
X0142318Y0061433D01*
X0148318Y0061433D01*
X0148318Y0062929D01*
X0148203Y0063508D01*
X0148027Y0063933D01*
X0148203Y0064358D01*
X0148318Y0064938D01*
X0148318Y0066433D01*
X0142318Y0066433D01*
X0142318Y0070633D01*
X0139023Y0070633D01*
X0138443Y0070518D01*
X0137897Y0070292D01*
X0137406Y0069963D01*
X0137095Y0069653D01*
X0137095Y0069839D01*
X0136532Y0071199D01*
X0136284Y0071447D01*
X0136543Y0071555D01*
X0137482Y0071166D01*
X0143479Y0071166D01*
X0144417Y0071555D01*
X0145356Y0071166D01*
X0151353Y0071166D01*
X0152291Y0071555D01*
X0153230Y0071166D01*
X0157055Y0071166D01*
X0156966Y0071078D01*
X0155718Y0068064D01*
X0155718Y0050618D01*
X0156966Y0047604D01*
X0159273Y0045297D01*
X0159273Y0045297D01*
X0159350Y0045220D01*
X0162364Y0043972D01*
X0165626Y0043972D01*
X0168640Y0045220D01*
X0170947Y0047527D01*
X0172195Y0050541D01*
X0172195Y0053703D01*
X0175386Y0053703D01*
X0174474Y0052791D01*
X0173225Y0049777D01*
X0173225Y0046515D01*
X0174474Y0043501D01*
X0175771Y0042203D01*
X0161893Y0042203D01*
X0158879Y0040955D01*
X0156573Y0038648D01*
X0155324Y0035634D01*
X0155324Y0027046D01*
X0155402Y0026860D01*
X0155402Y0025495D01*
X0155324Y0025308D01*
X0155324Y0022046D01*
X0155402Y0021860D01*
X0155402Y0017916D01*
X0156650Y0014902D01*
X0158957Y0012596D01*
X0161970Y0011347D01*
X0165233Y0011347D01*
X0168246Y0012596D01*
X0170553Y0014902D01*
X0171802Y0017916D01*
X0171802Y0025803D01*
X0175203Y0025803D01*
X0174631Y0025232D01*
X0173383Y0022218D01*
X0173383Y0018956D01*
X0174631Y0015942D01*
X0176938Y0013635D01*
X0179952Y0012387D01*
X0183214Y0012387D01*
X0186228Y0013635D01*
X0188534Y0015942D01*
X0189783Y0018956D01*
X0189783Y0022218D01*
X0188534Y0025232D01*
X0186289Y0027476D01*
X0188534Y0029721D01*
X0189783Y0032735D01*
X0189783Y0035997D01*
X0188534Y0039011D01*
X0186228Y0041318D01*
X0186204Y0041328D01*
X0188377Y0043501D01*
X0189625Y0046515D01*
X0189625Y0049777D01*
X0188377Y0052791D01*
X0186132Y0055035D01*
X0188377Y0057280D01*
X0189625Y0060294D01*
X0189625Y0063556D01*
X0188377Y0066570D01*
X0186070Y0068877D01*
X0183056Y0070125D01*
X0179794Y0070125D01*
X0179741Y0070103D01*
X0171274Y0070103D01*
X0170870Y0071078D01*
X0170782Y0071166D01*
X0174975Y0071166D01*
X0176151Y0071653D01*
X0177051Y0072553D01*
X0177539Y0073730D01*
X0177539Y0082877D01*
X0177051Y0084053D01*
X0176151Y0084953D01*
X0174975Y0085440D01*
X0168978Y0085440D01*
X0168039Y0085051D01*
X0167101Y0085440D01*
X0161104Y0085440D01*
X0160165Y0085051D01*
X0159227Y0085440D01*
X0153230Y0085440D01*
X0152291Y0085051D01*
X0151353Y0085440D01*
X0145356Y0085440D01*
X0144417Y0085051D01*
X0143479Y0085440D01*
X0137482Y0085440D01*
X0136543Y0085051D01*
X0135605Y0085440D01*
X0129895Y0085440D01*
X0129895Y0090539D01*
X0129332Y0091899D01*
X0127932Y0093299D01*
X0127932Y0097050D01*
X0127544Y0097988D01*
X0127932Y0098926D01*
X0127932Y0104924D01*
X0127544Y0105862D01*
X0127577Y0105942D01*
X0133705Y0105989D01*
X0134218Y0105476D01*
X0136056Y0104715D01*
X0138045Y0104715D01*
X0139883Y0105476D01*
X0141289Y0106883D01*
X0142050Y0108720D01*
X0127932Y0104250D02*
X0174183Y0104250D01*
X0177438Y0100252D02*
X0127932Y0100252D01*
X0127932Y0096253D02*
X0177438Y0096253D01*
X0177438Y0092255D02*
X0128976Y0092255D01*
X0129895Y0088256D02*
X0177638Y0088256D01*
X0177638Y0086177D02*
X0184575Y0086177D01*
X0184575Y0080815D01*
X0184575Y0086177D01*
X0184575Y0086177D01*
X0177638Y0086177D01*
X0177638Y0084258D02*
X0176847Y0084258D01*
X0177539Y0080259D02*
X0197438Y0080259D01*
X0197438Y0076261D02*
X0177539Y0076261D01*
X0176760Y0072262D02*
X0197438Y0072262D01*
X0197438Y0068264D02*
X0186683Y0068264D01*
X0189332Y0064265D02*
X0197438Y0064265D01*
X0197438Y0060267D02*
X0189614Y0060267D01*
X0187365Y0056268D02*
X0197438Y0056268D01*
X0197438Y0052270D02*
X0188593Y0052270D01*
X0189625Y0048271D02*
X0197438Y0048271D01*
X0197438Y0044273D02*
X0188696Y0044273D01*
X0187271Y0040274D02*
X0197438Y0040274D01*
X0197438Y0036275D02*
X0189667Y0036275D01*
X0189593Y0032277D02*
X0197438Y0032277D01*
X0197438Y0028278D02*
X0187092Y0028278D01*
X0188928Y0024280D02*
X0197438Y0024280D01*
X0197438Y0020281D02*
X0189783Y0020281D01*
X0188676Y0016283D02*
X0197438Y0016283D01*
X0197438Y0012284D02*
X0167495Y0012284D01*
X0171125Y0016283D02*
X0174490Y0016283D01*
X0173383Y0020281D02*
X0171802Y0020281D01*
X0171802Y0024280D02*
X0174237Y0024280D01*
X0159708Y0012284D02*
X0151866Y0012284D01*
X0150956Y0016283D02*
X0156078Y0016283D01*
X0155402Y0020281D02*
X0148124Y0020281D01*
X0147924Y0024280D02*
X0155324Y0024280D01*
X0155324Y0028278D02*
X0147924Y0028278D01*
X0147924Y0032277D02*
X0155324Y0032277D01*
X0155590Y0036275D02*
X0147592Y0036275D01*
X0147606Y0040274D02*
X0147606Y0040274D01*
X0152540Y0040274D02*
X0158199Y0040274D01*
X0161638Y0044273D02*
X0152575Y0044273D01*
X0156690Y0048271D02*
X0147882Y0048271D01*
X0148518Y0052270D02*
X0155718Y0052270D01*
X0155718Y0056268D02*
X0148318Y0056268D01*
X0148318Y0060267D02*
X0155718Y0060267D01*
X0155718Y0064265D02*
X0148164Y0064265D01*
X0148318Y0066433D02*
X0148318Y0067929D01*
X0148203Y0068508D01*
X0147977Y0069054D01*
X0147648Y0069545D01*
X0147230Y0069963D01*
X0146739Y0070292D01*
X0146193Y0070518D01*
X0145614Y0070633D01*
X0142318Y0070633D01*
X0142318Y0066433D01*
X0142318Y0066433D01*
X0142318Y0066433D01*
X0148318Y0066433D01*
X0148251Y0068264D02*
X0155801Y0068264D01*
X0142318Y0068264D02*
X0142318Y0068264D01*
X0142318Y0064265D02*
X0142318Y0064265D01*
X0142318Y0060267D02*
X0142318Y0060267D01*
X0135295Y0043034D02*
X0135745Y0042609D01*
X0135745Y0040108D01*
X0136232Y0038931D01*
X0137132Y0038031D01*
X0137916Y0037707D01*
X0137503Y0037536D01*
X0137012Y0037207D01*
X0136594Y0036790D01*
X0136266Y0036298D01*
X0136040Y0035752D01*
X0135924Y0035173D01*
X0135924Y0033677D01*
X0135924Y0032182D01*
X0136040Y0031602D01*
X0136216Y0031177D01*
X0136040Y0030752D01*
X0135924Y0030173D01*
X0135924Y0028677D01*
X0135924Y0027182D01*
X0136040Y0026602D01*
X0136216Y0026177D01*
X0136040Y0025752D01*
X0135924Y0025173D01*
X0135924Y0023677D01*
X0135924Y0023343D01*
X0135295Y0023943D01*
X0135295Y0043034D01*
X0135295Y0040274D02*
X0135745Y0040274D01*
X0135295Y0036275D02*
X0136256Y0036275D01*
X0135924Y0033677D02*
X0141924Y0033677D01*
X0135924Y0033677D01*
X0135924Y0032277D02*
X0135295Y0032277D01*
X0135924Y0028677D02*
X0141924Y0028677D01*
X0135924Y0028677D01*
X0135924Y0028278D02*
X0135295Y0028278D01*
X0135295Y0024280D02*
X0135924Y0024280D01*
X0135924Y0023677D02*
X0141924Y0023677D01*
X0135924Y0023677D01*
X0141924Y0023677D02*
X0141924Y0023677D01*
X0141924Y0024477D01*
X0141924Y0028677D01*
X0141924Y0028677D01*
X0141924Y0028677D01*
X0141924Y0032877D01*
X0141924Y0033677D01*
X0141924Y0033677D01*
X0141924Y0033677D01*
X0141924Y0028677D01*
X0141924Y0028677D01*
X0141924Y0023677D01*
X0141924Y0023677D01*
X0141924Y0024280D02*
X0141924Y0024280D01*
X0141924Y0028278D02*
X0141924Y0028278D01*
X0141924Y0032277D02*
X0141924Y0032277D01*
X0130353Y0018431D02*
X0135036Y0013962D01*
X0135036Y0009163D01*
X0135523Y0007987D01*
X0136023Y0007487D01*
X0107381Y0007487D01*
X0107381Y0020164D01*
X0114254Y0014507D01*
X0115127Y0013635D01*
X0115504Y0013479D01*
X0115820Y0013219D01*
X0117001Y0012859D01*
X0118141Y0012387D01*
X0118549Y0012387D01*
X0118941Y0012267D01*
X0120169Y0012387D01*
X0124001Y0012387D01*
X0127015Y0013635D01*
X0129322Y0015942D01*
X0130353Y0018431D01*
X0129463Y0016283D02*
X0132604Y0016283D01*
X0135036Y0012284D02*
X0119116Y0012284D01*
X0118885Y0012284D02*
X0107381Y0012284D01*
X0107381Y0016283D02*
X0112097Y0016283D01*
X0107381Y0008286D02*
X0135399Y0008286D01*
X0151463Y0008286D02*
X0197438Y0008286D01*
X0174154Y0044273D02*
X0166353Y0044273D01*
X0171255Y0048271D02*
X0173225Y0048271D01*
X0172195Y0052270D02*
X0174258Y0052270D01*
X0184575Y0084258D02*
X0184575Y0084258D01*
X0184575Y0086177D02*
X0184575Y0086177D01*
X0192803Y0084258D02*
X0192803Y0084258D01*
X0197438Y0097643D02*
X0196781Y0098299D01*
X0195605Y0098787D01*
X0191654Y0098787D01*
X0191712Y0098926D01*
X0191712Y0104924D01*
X0191323Y0105862D01*
X0191712Y0106800D01*
X0191712Y0112798D01*
X0191323Y0113736D01*
X0191712Y0114674D01*
X0191712Y0120672D01*
X0191323Y0121610D01*
X0191712Y0122549D01*
X0191712Y0128546D01*
X0191323Y0129484D01*
X0191712Y0130423D01*
X0191712Y0136420D01*
X0191323Y0137358D01*
X0191712Y0138297D01*
X0191712Y0144294D01*
X0191225Y0145470D01*
X0190324Y0146370D01*
X0189392Y0146757D01*
X0197438Y0146757D01*
X0197438Y0097643D01*
X0197438Y0100252D02*
X0191712Y0100252D01*
X0191712Y0104250D02*
X0197438Y0104250D01*
X0197438Y0108249D02*
X0191712Y0108249D01*
X0191712Y0112247D02*
X0197438Y0112247D01*
X0197438Y0116246D02*
X0191712Y0116246D01*
X0191712Y0120244D02*
X0197438Y0120244D01*
X0197438Y0124243D02*
X0191712Y0124243D01*
X0191712Y0128241D02*
X0197438Y0128241D01*
X0197438Y0132240D02*
X0191712Y0132240D01*
X0191712Y0136238D02*
X0197438Y0136238D01*
X0197438Y0140237D02*
X0191712Y0140237D01*
X0191712Y0144235D02*
X0197438Y0144235D01*
X0177438Y0140237D02*
X0127932Y0140237D01*
X0098225Y0108249D02*
X0092499Y0108249D01*
X0092499Y0104250D02*
X0098225Y0104250D01*
X0098225Y0100252D02*
X0092499Y0100252D01*
X0106549Y0086217D02*
X0106999Y0085766D01*
X0122923Y0069843D01*
X0122894Y0069846D01*
X0122370Y0069846D01*
X0121846Y0069846D01*
X0120806Y0069710D01*
X0119793Y0069438D01*
X0118824Y0069037D01*
X0117916Y0068512D01*
X0117084Y0067874D01*
X0116342Y0067133D01*
X0115704Y0066301D01*
X0115180Y0065392D01*
X0114778Y0064423D01*
X0114507Y0063411D01*
X0114370Y0062371D01*
X0114370Y0061847D01*
X0122370Y0061847D01*
X0122370Y0069846D01*
X0122370Y0061847D01*
X0122370Y0061847D01*
X0122370Y0061846D01*
X0114370Y0061846D01*
X0114370Y0061322D01*
X0114507Y0060282D01*
X0114778Y0059269D01*
X0115180Y0058301D01*
X0115704Y0057392D01*
X0116342Y0056560D01*
X0116806Y0056097D01*
X0114270Y0056097D01*
X0111256Y0054848D01*
X0107381Y0050974D01*
X0107381Y0051381D01*
X0107292Y0051596D01*
X0107191Y0052300D01*
X0107191Y0052300D01*
X0106461Y0053327D01*
X0106987Y0054597D01*
X0106987Y0056340D01*
X0106533Y0057437D01*
X0106987Y0058534D01*
X0106987Y0060277D01*
X0106451Y0061571D01*
X0106987Y0062865D01*
X0106987Y0064608D01*
X0106533Y0065705D01*
X0106987Y0066802D01*
X0106987Y0068545D01*
X0106451Y0069839D01*
X0106987Y0071132D01*
X0106987Y0072875D01*
X0106533Y0073972D01*
X0106987Y0075069D01*
X0106987Y0076812D01*
X0106451Y0078106D01*
X0106987Y0079400D01*
X0106987Y0081143D01*
X0106533Y0082240D01*
X0106987Y0083337D01*
X0106987Y0085080D01*
X0106533Y0086177D01*
X0106549Y0086217D01*
X0106987Y0084258D02*
X0108508Y0084258D01*
X0106987Y0080259D02*
X0112507Y0080259D01*
X0116505Y0076261D02*
X0106987Y0076261D01*
X0106987Y0072262D02*
X0120504Y0072262D01*
X0122370Y0068264D02*
X0122370Y0068264D01*
X0117592Y0068264D02*
X0106987Y0068264D01*
X0106987Y0064265D02*
X0114736Y0064265D01*
X0114511Y0060267D02*
X0106987Y0060267D01*
X0106987Y0056268D02*
X0116635Y0056268D01*
X0108677Y0052270D02*
X0107196Y0052270D01*
X0122370Y0064265D02*
X0122370Y0064265D01*
X0093590Y0084258D02*
X0093591Y0084258D01*
X0085362Y0084258D02*
X0085362Y0084258D01*
X0023158Y0068264D02*
X0023157Y0068264D01*
X0023157Y0064265D02*
X0023158Y0064265D01*
X0009464Y0052270D02*
X0006987Y0052270D01*
X0006987Y0020987D02*
X0007016Y0020958D01*
X0007394Y0020801D01*
X0015042Y0014507D01*
X0015914Y0013635D01*
X0016292Y0013479D01*
X0016608Y0013219D01*
X0017788Y0012859D01*
X0018928Y0012387D01*
X0019337Y0012387D01*
X0019728Y0012267D01*
X0020956Y0012387D01*
X0024789Y0012387D01*
X0027802Y0013635D01*
X0030109Y0015942D01*
X0031140Y0018431D01*
X0035824Y0013962D01*
X0035824Y0009163D01*
X0036311Y0007987D01*
X0036810Y0007487D01*
X0006987Y0007487D01*
X0006987Y0020987D01*
X0006987Y0020281D02*
X0008026Y0020281D01*
X0006987Y0016283D02*
X0012884Y0016283D01*
X0006987Y0012284D02*
X0019672Y0012284D01*
X0019904Y0012284D02*
X0035824Y0012284D01*
X0033391Y0016283D02*
X0030250Y0016283D01*
X0036187Y0008286D02*
X0006987Y0008286D01*
X0052250Y0008286D02*
X0098225Y0008286D01*
M02*
