G75*
%MOIN*%
%OFA0B0*%
%FSLAX25Y25*%
%IPPOS*%
%LPD*%
%AMOC8*
5,1,8,0,0,1.08239X$1,22.5*
%
%ADD10C,0.00000*%
D10*
X0003787Y0004287D02*
X0003787Y0149957D01*
X0101425Y0149957D01*
X0101425Y0096413D01*
X0101427Y0096340D01*
X0101433Y0096267D01*
X0101443Y0096194D01*
X0101456Y0096122D01*
X0101474Y0096050D01*
X0101495Y0095980D01*
X0101520Y0095911D01*
X0101548Y0095844D01*
X0101580Y0095778D01*
X0101616Y0095713D01*
X0101655Y0095651D01*
X0101697Y0095591D01*
X0101742Y0095533D01*
X0101790Y0095478D01*
X0101842Y0095426D01*
X0101896Y0095376D01*
X0101952Y0095329D01*
X0102011Y0095285D01*
X0102072Y0095245D01*
X0102135Y0095208D01*
X0102200Y0095174D01*
X0102267Y0095143D01*
X0102336Y0095117D01*
X0102405Y0095094D01*
X0102476Y0095074D01*
X0102548Y0095059D01*
X0102620Y0095047D01*
X0102693Y0095039D01*
X0102766Y0095035D01*
X0102840Y0095035D01*
X0102913Y0095039D01*
X0102986Y0095047D01*
X0103058Y0095059D01*
X0103130Y0095074D01*
X0103201Y0095094D01*
X0103270Y0095117D01*
X0103339Y0095143D01*
X0103406Y0095174D01*
X0103471Y0095208D01*
X0103534Y0095245D01*
X0103595Y0095285D01*
X0103654Y0095329D01*
X0103710Y0095376D01*
X0103764Y0095426D01*
X0103816Y0095478D01*
X0103864Y0095533D01*
X0103909Y0095591D01*
X0103951Y0095651D01*
X0103990Y0095713D01*
X0104026Y0095778D01*
X0104058Y0095844D01*
X0104086Y0095911D01*
X0104111Y0095980D01*
X0104132Y0096050D01*
X0104150Y0096122D01*
X0104163Y0096194D01*
X0104173Y0096267D01*
X0104179Y0096340D01*
X0104181Y0096413D01*
X0104181Y0149957D01*
X0200638Y0149957D01*
X0200638Y0096413D01*
X0200638Y0050744D01*
X0200638Y0004287D01*
X0104181Y0004287D01*
X0104181Y0050744D01*
X0104169Y0050816D01*
X0104153Y0050888D01*
X0104133Y0050959D01*
X0104109Y0051029D01*
X0104082Y0051097D01*
X0104051Y0051164D01*
X0104016Y0051229D01*
X0103978Y0051293D01*
X0103937Y0051354D01*
X0103893Y0051413D01*
X0103846Y0051469D01*
X0103796Y0051523D01*
X0103743Y0051574D01*
X0103687Y0051622D01*
X0103629Y0051668D01*
X0103568Y0051710D01*
X0103506Y0051749D01*
X0103441Y0051784D01*
X0103375Y0051816D01*
X0103307Y0051845D01*
X0103238Y0051869D01*
X0103167Y0051891D01*
X0103095Y0051908D01*
X0103023Y0051921D01*
X0102950Y0051931D01*
X0102877Y0051937D01*
X0102803Y0051939D01*
X0102729Y0051937D01*
X0102656Y0051931D01*
X0102583Y0051921D01*
X0102511Y0051908D01*
X0102439Y0051891D01*
X0102368Y0051869D01*
X0102299Y0051845D01*
X0102231Y0051816D01*
X0102165Y0051784D01*
X0102100Y0051749D01*
X0102038Y0051710D01*
X0101977Y0051668D01*
X0101919Y0051622D01*
X0101863Y0051574D01*
X0101810Y0051523D01*
X0101760Y0051469D01*
X0101713Y0051413D01*
X0101669Y0051354D01*
X0101628Y0051293D01*
X0101590Y0051229D01*
X0101555Y0051164D01*
X0101524Y0051097D01*
X0101497Y0051029D01*
X0101473Y0050959D01*
X0101453Y0050888D01*
X0101437Y0050816D01*
X0101425Y0050744D01*
X0101425Y0004287D01*
X0003787Y0004287D01*
X0101425Y0055469D02*
X0101427Y0055538D01*
X0101433Y0055606D01*
X0101443Y0055674D01*
X0101457Y0055741D01*
X0101475Y0055808D01*
X0101496Y0055873D01*
X0101522Y0055937D01*
X0101551Y0055999D01*
X0101583Y0056059D01*
X0101619Y0056118D01*
X0101659Y0056174D01*
X0101701Y0056228D01*
X0101747Y0056279D01*
X0101796Y0056328D01*
X0101847Y0056374D01*
X0101901Y0056416D01*
X0101957Y0056456D01*
X0102015Y0056492D01*
X0102076Y0056524D01*
X0102138Y0056553D01*
X0102202Y0056579D01*
X0102267Y0056600D01*
X0102334Y0056618D01*
X0102401Y0056632D01*
X0102469Y0056642D01*
X0102537Y0056648D01*
X0102606Y0056650D01*
X0102675Y0056648D01*
X0102743Y0056642D01*
X0102811Y0056632D01*
X0102878Y0056618D01*
X0102945Y0056600D01*
X0103010Y0056579D01*
X0103074Y0056553D01*
X0103136Y0056524D01*
X0103196Y0056492D01*
X0103255Y0056456D01*
X0103311Y0056416D01*
X0103365Y0056374D01*
X0103416Y0056328D01*
X0103465Y0056279D01*
X0103511Y0056228D01*
X0103553Y0056174D01*
X0103593Y0056118D01*
X0103629Y0056059D01*
X0103661Y0055999D01*
X0103690Y0055937D01*
X0103716Y0055873D01*
X0103737Y0055808D01*
X0103755Y0055741D01*
X0103769Y0055674D01*
X0103779Y0055606D01*
X0103785Y0055538D01*
X0103787Y0055469D01*
X0103785Y0055400D01*
X0103779Y0055332D01*
X0103769Y0055264D01*
X0103755Y0055197D01*
X0103737Y0055130D01*
X0103716Y0055065D01*
X0103690Y0055001D01*
X0103661Y0054939D01*
X0103629Y0054878D01*
X0103593Y0054820D01*
X0103553Y0054764D01*
X0103511Y0054710D01*
X0103465Y0054659D01*
X0103416Y0054610D01*
X0103365Y0054564D01*
X0103311Y0054522D01*
X0103255Y0054482D01*
X0103197Y0054446D01*
X0103136Y0054414D01*
X0103074Y0054385D01*
X0103010Y0054359D01*
X0102945Y0054338D01*
X0102878Y0054320D01*
X0102811Y0054306D01*
X0102743Y0054296D01*
X0102675Y0054290D01*
X0102606Y0054288D01*
X0102537Y0054290D01*
X0102469Y0054296D01*
X0102401Y0054306D01*
X0102334Y0054320D01*
X0102267Y0054338D01*
X0102202Y0054359D01*
X0102138Y0054385D01*
X0102076Y0054414D01*
X0102015Y0054446D01*
X0101957Y0054482D01*
X0101901Y0054522D01*
X0101847Y0054564D01*
X0101796Y0054610D01*
X0101747Y0054659D01*
X0101701Y0054710D01*
X0101659Y0054764D01*
X0101619Y0054820D01*
X0101583Y0054878D01*
X0101551Y0054939D01*
X0101522Y0055001D01*
X0101496Y0055065D01*
X0101475Y0055130D01*
X0101457Y0055197D01*
X0101443Y0055264D01*
X0101433Y0055332D01*
X0101427Y0055400D01*
X0101425Y0055469D01*
X0101425Y0059406D02*
X0101427Y0059475D01*
X0101433Y0059543D01*
X0101443Y0059611D01*
X0101457Y0059678D01*
X0101475Y0059745D01*
X0101496Y0059810D01*
X0101522Y0059874D01*
X0101551Y0059936D01*
X0101583Y0059996D01*
X0101619Y0060055D01*
X0101659Y0060111D01*
X0101701Y0060165D01*
X0101747Y0060216D01*
X0101796Y0060265D01*
X0101847Y0060311D01*
X0101901Y0060353D01*
X0101957Y0060393D01*
X0102015Y0060429D01*
X0102076Y0060461D01*
X0102138Y0060490D01*
X0102202Y0060516D01*
X0102267Y0060537D01*
X0102334Y0060555D01*
X0102401Y0060569D01*
X0102469Y0060579D01*
X0102537Y0060585D01*
X0102606Y0060587D01*
X0102675Y0060585D01*
X0102743Y0060579D01*
X0102811Y0060569D01*
X0102878Y0060555D01*
X0102945Y0060537D01*
X0103010Y0060516D01*
X0103074Y0060490D01*
X0103136Y0060461D01*
X0103196Y0060429D01*
X0103255Y0060393D01*
X0103311Y0060353D01*
X0103365Y0060311D01*
X0103416Y0060265D01*
X0103465Y0060216D01*
X0103511Y0060165D01*
X0103553Y0060111D01*
X0103593Y0060055D01*
X0103629Y0059996D01*
X0103661Y0059936D01*
X0103690Y0059874D01*
X0103716Y0059810D01*
X0103737Y0059745D01*
X0103755Y0059678D01*
X0103769Y0059611D01*
X0103779Y0059543D01*
X0103785Y0059475D01*
X0103787Y0059406D01*
X0103785Y0059337D01*
X0103779Y0059269D01*
X0103769Y0059201D01*
X0103755Y0059134D01*
X0103737Y0059067D01*
X0103716Y0059002D01*
X0103690Y0058938D01*
X0103661Y0058876D01*
X0103629Y0058815D01*
X0103593Y0058757D01*
X0103553Y0058701D01*
X0103511Y0058647D01*
X0103465Y0058596D01*
X0103416Y0058547D01*
X0103365Y0058501D01*
X0103311Y0058459D01*
X0103255Y0058419D01*
X0103197Y0058383D01*
X0103136Y0058351D01*
X0103074Y0058322D01*
X0103010Y0058296D01*
X0102945Y0058275D01*
X0102878Y0058257D01*
X0102811Y0058243D01*
X0102743Y0058233D01*
X0102675Y0058227D01*
X0102606Y0058225D01*
X0102537Y0058227D01*
X0102469Y0058233D01*
X0102401Y0058243D01*
X0102334Y0058257D01*
X0102267Y0058275D01*
X0102202Y0058296D01*
X0102138Y0058322D01*
X0102076Y0058351D01*
X0102015Y0058383D01*
X0101957Y0058419D01*
X0101901Y0058459D01*
X0101847Y0058501D01*
X0101796Y0058547D01*
X0101747Y0058596D01*
X0101701Y0058647D01*
X0101659Y0058701D01*
X0101619Y0058757D01*
X0101583Y0058815D01*
X0101551Y0058876D01*
X0101522Y0058938D01*
X0101496Y0059002D01*
X0101475Y0059067D01*
X0101457Y0059134D01*
X0101443Y0059201D01*
X0101433Y0059269D01*
X0101427Y0059337D01*
X0101425Y0059406D01*
X0101425Y0063736D02*
X0101427Y0063805D01*
X0101433Y0063873D01*
X0101443Y0063941D01*
X0101457Y0064008D01*
X0101475Y0064075D01*
X0101496Y0064140D01*
X0101522Y0064204D01*
X0101551Y0064266D01*
X0101583Y0064326D01*
X0101619Y0064385D01*
X0101659Y0064441D01*
X0101701Y0064495D01*
X0101747Y0064546D01*
X0101796Y0064595D01*
X0101847Y0064641D01*
X0101901Y0064683D01*
X0101957Y0064723D01*
X0102015Y0064759D01*
X0102076Y0064791D01*
X0102138Y0064820D01*
X0102202Y0064846D01*
X0102267Y0064867D01*
X0102334Y0064885D01*
X0102401Y0064899D01*
X0102469Y0064909D01*
X0102537Y0064915D01*
X0102606Y0064917D01*
X0102675Y0064915D01*
X0102743Y0064909D01*
X0102811Y0064899D01*
X0102878Y0064885D01*
X0102945Y0064867D01*
X0103010Y0064846D01*
X0103074Y0064820D01*
X0103136Y0064791D01*
X0103196Y0064759D01*
X0103255Y0064723D01*
X0103311Y0064683D01*
X0103365Y0064641D01*
X0103416Y0064595D01*
X0103465Y0064546D01*
X0103511Y0064495D01*
X0103553Y0064441D01*
X0103593Y0064385D01*
X0103629Y0064326D01*
X0103661Y0064266D01*
X0103690Y0064204D01*
X0103716Y0064140D01*
X0103737Y0064075D01*
X0103755Y0064008D01*
X0103769Y0063941D01*
X0103779Y0063873D01*
X0103785Y0063805D01*
X0103787Y0063736D01*
X0103785Y0063667D01*
X0103779Y0063599D01*
X0103769Y0063531D01*
X0103755Y0063464D01*
X0103737Y0063397D01*
X0103716Y0063332D01*
X0103690Y0063268D01*
X0103661Y0063206D01*
X0103629Y0063145D01*
X0103593Y0063087D01*
X0103553Y0063031D01*
X0103511Y0062977D01*
X0103465Y0062926D01*
X0103416Y0062877D01*
X0103365Y0062831D01*
X0103311Y0062789D01*
X0103255Y0062749D01*
X0103197Y0062713D01*
X0103136Y0062681D01*
X0103074Y0062652D01*
X0103010Y0062626D01*
X0102945Y0062605D01*
X0102878Y0062587D01*
X0102811Y0062573D01*
X0102743Y0062563D01*
X0102675Y0062557D01*
X0102606Y0062555D01*
X0102537Y0062557D01*
X0102469Y0062563D01*
X0102401Y0062573D01*
X0102334Y0062587D01*
X0102267Y0062605D01*
X0102202Y0062626D01*
X0102138Y0062652D01*
X0102076Y0062681D01*
X0102015Y0062713D01*
X0101957Y0062749D01*
X0101901Y0062789D01*
X0101847Y0062831D01*
X0101796Y0062877D01*
X0101747Y0062926D01*
X0101701Y0062977D01*
X0101659Y0063031D01*
X0101619Y0063087D01*
X0101583Y0063145D01*
X0101551Y0063206D01*
X0101522Y0063268D01*
X0101496Y0063332D01*
X0101475Y0063397D01*
X0101457Y0063464D01*
X0101443Y0063531D01*
X0101433Y0063599D01*
X0101427Y0063667D01*
X0101425Y0063736D01*
X0101425Y0067673D02*
X0101427Y0067742D01*
X0101433Y0067810D01*
X0101443Y0067878D01*
X0101457Y0067945D01*
X0101475Y0068012D01*
X0101496Y0068077D01*
X0101522Y0068141D01*
X0101551Y0068203D01*
X0101583Y0068263D01*
X0101619Y0068322D01*
X0101659Y0068378D01*
X0101701Y0068432D01*
X0101747Y0068483D01*
X0101796Y0068532D01*
X0101847Y0068578D01*
X0101901Y0068620D01*
X0101957Y0068660D01*
X0102015Y0068696D01*
X0102076Y0068728D01*
X0102138Y0068757D01*
X0102202Y0068783D01*
X0102267Y0068804D01*
X0102334Y0068822D01*
X0102401Y0068836D01*
X0102469Y0068846D01*
X0102537Y0068852D01*
X0102606Y0068854D01*
X0102675Y0068852D01*
X0102743Y0068846D01*
X0102811Y0068836D01*
X0102878Y0068822D01*
X0102945Y0068804D01*
X0103010Y0068783D01*
X0103074Y0068757D01*
X0103136Y0068728D01*
X0103196Y0068696D01*
X0103255Y0068660D01*
X0103311Y0068620D01*
X0103365Y0068578D01*
X0103416Y0068532D01*
X0103465Y0068483D01*
X0103511Y0068432D01*
X0103553Y0068378D01*
X0103593Y0068322D01*
X0103629Y0068263D01*
X0103661Y0068203D01*
X0103690Y0068141D01*
X0103716Y0068077D01*
X0103737Y0068012D01*
X0103755Y0067945D01*
X0103769Y0067878D01*
X0103779Y0067810D01*
X0103785Y0067742D01*
X0103787Y0067673D01*
X0103785Y0067604D01*
X0103779Y0067536D01*
X0103769Y0067468D01*
X0103755Y0067401D01*
X0103737Y0067334D01*
X0103716Y0067269D01*
X0103690Y0067205D01*
X0103661Y0067143D01*
X0103629Y0067082D01*
X0103593Y0067024D01*
X0103553Y0066968D01*
X0103511Y0066914D01*
X0103465Y0066863D01*
X0103416Y0066814D01*
X0103365Y0066768D01*
X0103311Y0066726D01*
X0103255Y0066686D01*
X0103197Y0066650D01*
X0103136Y0066618D01*
X0103074Y0066589D01*
X0103010Y0066563D01*
X0102945Y0066542D01*
X0102878Y0066524D01*
X0102811Y0066510D01*
X0102743Y0066500D01*
X0102675Y0066494D01*
X0102606Y0066492D01*
X0102537Y0066494D01*
X0102469Y0066500D01*
X0102401Y0066510D01*
X0102334Y0066524D01*
X0102267Y0066542D01*
X0102202Y0066563D01*
X0102138Y0066589D01*
X0102076Y0066618D01*
X0102015Y0066650D01*
X0101957Y0066686D01*
X0101901Y0066726D01*
X0101847Y0066768D01*
X0101796Y0066814D01*
X0101747Y0066863D01*
X0101701Y0066914D01*
X0101659Y0066968D01*
X0101619Y0067024D01*
X0101583Y0067082D01*
X0101551Y0067143D01*
X0101522Y0067205D01*
X0101496Y0067269D01*
X0101475Y0067334D01*
X0101457Y0067401D01*
X0101443Y0067468D01*
X0101433Y0067536D01*
X0101427Y0067604D01*
X0101425Y0067673D01*
X0101425Y0072004D02*
X0101427Y0072073D01*
X0101433Y0072141D01*
X0101443Y0072209D01*
X0101457Y0072276D01*
X0101475Y0072343D01*
X0101496Y0072408D01*
X0101522Y0072472D01*
X0101551Y0072534D01*
X0101583Y0072594D01*
X0101619Y0072653D01*
X0101659Y0072709D01*
X0101701Y0072763D01*
X0101747Y0072814D01*
X0101796Y0072863D01*
X0101847Y0072909D01*
X0101901Y0072951D01*
X0101957Y0072991D01*
X0102015Y0073027D01*
X0102076Y0073059D01*
X0102138Y0073088D01*
X0102202Y0073114D01*
X0102267Y0073135D01*
X0102334Y0073153D01*
X0102401Y0073167D01*
X0102469Y0073177D01*
X0102537Y0073183D01*
X0102606Y0073185D01*
X0102675Y0073183D01*
X0102743Y0073177D01*
X0102811Y0073167D01*
X0102878Y0073153D01*
X0102945Y0073135D01*
X0103010Y0073114D01*
X0103074Y0073088D01*
X0103136Y0073059D01*
X0103196Y0073027D01*
X0103255Y0072991D01*
X0103311Y0072951D01*
X0103365Y0072909D01*
X0103416Y0072863D01*
X0103465Y0072814D01*
X0103511Y0072763D01*
X0103553Y0072709D01*
X0103593Y0072653D01*
X0103629Y0072594D01*
X0103661Y0072534D01*
X0103690Y0072472D01*
X0103716Y0072408D01*
X0103737Y0072343D01*
X0103755Y0072276D01*
X0103769Y0072209D01*
X0103779Y0072141D01*
X0103785Y0072073D01*
X0103787Y0072004D01*
X0103785Y0071935D01*
X0103779Y0071867D01*
X0103769Y0071799D01*
X0103755Y0071732D01*
X0103737Y0071665D01*
X0103716Y0071600D01*
X0103690Y0071536D01*
X0103661Y0071474D01*
X0103629Y0071413D01*
X0103593Y0071355D01*
X0103553Y0071299D01*
X0103511Y0071245D01*
X0103465Y0071194D01*
X0103416Y0071145D01*
X0103365Y0071099D01*
X0103311Y0071057D01*
X0103255Y0071017D01*
X0103197Y0070981D01*
X0103136Y0070949D01*
X0103074Y0070920D01*
X0103010Y0070894D01*
X0102945Y0070873D01*
X0102878Y0070855D01*
X0102811Y0070841D01*
X0102743Y0070831D01*
X0102675Y0070825D01*
X0102606Y0070823D01*
X0102537Y0070825D01*
X0102469Y0070831D01*
X0102401Y0070841D01*
X0102334Y0070855D01*
X0102267Y0070873D01*
X0102202Y0070894D01*
X0102138Y0070920D01*
X0102076Y0070949D01*
X0102015Y0070981D01*
X0101957Y0071017D01*
X0101901Y0071057D01*
X0101847Y0071099D01*
X0101796Y0071145D01*
X0101747Y0071194D01*
X0101701Y0071245D01*
X0101659Y0071299D01*
X0101619Y0071355D01*
X0101583Y0071413D01*
X0101551Y0071474D01*
X0101522Y0071536D01*
X0101496Y0071600D01*
X0101475Y0071665D01*
X0101457Y0071732D01*
X0101443Y0071799D01*
X0101433Y0071867D01*
X0101427Y0071935D01*
X0101425Y0072004D01*
X0101425Y0075941D02*
X0101427Y0076010D01*
X0101433Y0076078D01*
X0101443Y0076146D01*
X0101457Y0076213D01*
X0101475Y0076280D01*
X0101496Y0076345D01*
X0101522Y0076409D01*
X0101551Y0076471D01*
X0101583Y0076531D01*
X0101619Y0076590D01*
X0101659Y0076646D01*
X0101701Y0076700D01*
X0101747Y0076751D01*
X0101796Y0076800D01*
X0101847Y0076846D01*
X0101901Y0076888D01*
X0101957Y0076928D01*
X0102015Y0076964D01*
X0102076Y0076996D01*
X0102138Y0077025D01*
X0102202Y0077051D01*
X0102267Y0077072D01*
X0102334Y0077090D01*
X0102401Y0077104D01*
X0102469Y0077114D01*
X0102537Y0077120D01*
X0102606Y0077122D01*
X0102675Y0077120D01*
X0102743Y0077114D01*
X0102811Y0077104D01*
X0102878Y0077090D01*
X0102945Y0077072D01*
X0103010Y0077051D01*
X0103074Y0077025D01*
X0103136Y0076996D01*
X0103196Y0076964D01*
X0103255Y0076928D01*
X0103311Y0076888D01*
X0103365Y0076846D01*
X0103416Y0076800D01*
X0103465Y0076751D01*
X0103511Y0076700D01*
X0103553Y0076646D01*
X0103593Y0076590D01*
X0103629Y0076531D01*
X0103661Y0076471D01*
X0103690Y0076409D01*
X0103716Y0076345D01*
X0103737Y0076280D01*
X0103755Y0076213D01*
X0103769Y0076146D01*
X0103779Y0076078D01*
X0103785Y0076010D01*
X0103787Y0075941D01*
X0103785Y0075872D01*
X0103779Y0075804D01*
X0103769Y0075736D01*
X0103755Y0075669D01*
X0103737Y0075602D01*
X0103716Y0075537D01*
X0103690Y0075473D01*
X0103661Y0075411D01*
X0103629Y0075350D01*
X0103593Y0075292D01*
X0103553Y0075236D01*
X0103511Y0075182D01*
X0103465Y0075131D01*
X0103416Y0075082D01*
X0103365Y0075036D01*
X0103311Y0074994D01*
X0103255Y0074954D01*
X0103197Y0074918D01*
X0103136Y0074886D01*
X0103074Y0074857D01*
X0103010Y0074831D01*
X0102945Y0074810D01*
X0102878Y0074792D01*
X0102811Y0074778D01*
X0102743Y0074768D01*
X0102675Y0074762D01*
X0102606Y0074760D01*
X0102537Y0074762D01*
X0102469Y0074768D01*
X0102401Y0074778D01*
X0102334Y0074792D01*
X0102267Y0074810D01*
X0102202Y0074831D01*
X0102138Y0074857D01*
X0102076Y0074886D01*
X0102015Y0074918D01*
X0101957Y0074954D01*
X0101901Y0074994D01*
X0101847Y0075036D01*
X0101796Y0075082D01*
X0101747Y0075131D01*
X0101701Y0075182D01*
X0101659Y0075236D01*
X0101619Y0075292D01*
X0101583Y0075350D01*
X0101551Y0075411D01*
X0101522Y0075473D01*
X0101496Y0075537D01*
X0101475Y0075602D01*
X0101457Y0075669D01*
X0101443Y0075736D01*
X0101433Y0075804D01*
X0101427Y0075872D01*
X0101425Y0075941D01*
X0101425Y0080272D02*
X0101427Y0080341D01*
X0101433Y0080409D01*
X0101443Y0080477D01*
X0101457Y0080544D01*
X0101475Y0080611D01*
X0101496Y0080676D01*
X0101522Y0080740D01*
X0101551Y0080802D01*
X0101583Y0080862D01*
X0101619Y0080921D01*
X0101659Y0080977D01*
X0101701Y0081031D01*
X0101747Y0081082D01*
X0101796Y0081131D01*
X0101847Y0081177D01*
X0101901Y0081219D01*
X0101957Y0081259D01*
X0102015Y0081295D01*
X0102076Y0081327D01*
X0102138Y0081356D01*
X0102202Y0081382D01*
X0102267Y0081403D01*
X0102334Y0081421D01*
X0102401Y0081435D01*
X0102469Y0081445D01*
X0102537Y0081451D01*
X0102606Y0081453D01*
X0102675Y0081451D01*
X0102743Y0081445D01*
X0102811Y0081435D01*
X0102878Y0081421D01*
X0102945Y0081403D01*
X0103010Y0081382D01*
X0103074Y0081356D01*
X0103136Y0081327D01*
X0103196Y0081295D01*
X0103255Y0081259D01*
X0103311Y0081219D01*
X0103365Y0081177D01*
X0103416Y0081131D01*
X0103465Y0081082D01*
X0103511Y0081031D01*
X0103553Y0080977D01*
X0103593Y0080921D01*
X0103629Y0080862D01*
X0103661Y0080802D01*
X0103690Y0080740D01*
X0103716Y0080676D01*
X0103737Y0080611D01*
X0103755Y0080544D01*
X0103769Y0080477D01*
X0103779Y0080409D01*
X0103785Y0080341D01*
X0103787Y0080272D01*
X0103785Y0080203D01*
X0103779Y0080135D01*
X0103769Y0080067D01*
X0103755Y0080000D01*
X0103737Y0079933D01*
X0103716Y0079868D01*
X0103690Y0079804D01*
X0103661Y0079742D01*
X0103629Y0079681D01*
X0103593Y0079623D01*
X0103553Y0079567D01*
X0103511Y0079513D01*
X0103465Y0079462D01*
X0103416Y0079413D01*
X0103365Y0079367D01*
X0103311Y0079325D01*
X0103255Y0079285D01*
X0103197Y0079249D01*
X0103136Y0079217D01*
X0103074Y0079188D01*
X0103010Y0079162D01*
X0102945Y0079141D01*
X0102878Y0079123D01*
X0102811Y0079109D01*
X0102743Y0079099D01*
X0102675Y0079093D01*
X0102606Y0079091D01*
X0102537Y0079093D01*
X0102469Y0079099D01*
X0102401Y0079109D01*
X0102334Y0079123D01*
X0102267Y0079141D01*
X0102202Y0079162D01*
X0102138Y0079188D01*
X0102076Y0079217D01*
X0102015Y0079249D01*
X0101957Y0079285D01*
X0101901Y0079325D01*
X0101847Y0079367D01*
X0101796Y0079413D01*
X0101747Y0079462D01*
X0101701Y0079513D01*
X0101659Y0079567D01*
X0101619Y0079623D01*
X0101583Y0079681D01*
X0101551Y0079742D01*
X0101522Y0079804D01*
X0101496Y0079868D01*
X0101475Y0079933D01*
X0101457Y0080000D01*
X0101443Y0080067D01*
X0101433Y0080135D01*
X0101427Y0080203D01*
X0101425Y0080272D01*
X0101425Y0084209D02*
X0101427Y0084278D01*
X0101433Y0084346D01*
X0101443Y0084414D01*
X0101457Y0084481D01*
X0101475Y0084548D01*
X0101496Y0084613D01*
X0101522Y0084677D01*
X0101551Y0084739D01*
X0101583Y0084799D01*
X0101619Y0084858D01*
X0101659Y0084914D01*
X0101701Y0084968D01*
X0101747Y0085019D01*
X0101796Y0085068D01*
X0101847Y0085114D01*
X0101901Y0085156D01*
X0101957Y0085196D01*
X0102015Y0085232D01*
X0102076Y0085264D01*
X0102138Y0085293D01*
X0102202Y0085319D01*
X0102267Y0085340D01*
X0102334Y0085358D01*
X0102401Y0085372D01*
X0102469Y0085382D01*
X0102537Y0085388D01*
X0102606Y0085390D01*
X0102675Y0085388D01*
X0102743Y0085382D01*
X0102811Y0085372D01*
X0102878Y0085358D01*
X0102945Y0085340D01*
X0103010Y0085319D01*
X0103074Y0085293D01*
X0103136Y0085264D01*
X0103196Y0085232D01*
X0103255Y0085196D01*
X0103311Y0085156D01*
X0103365Y0085114D01*
X0103416Y0085068D01*
X0103465Y0085019D01*
X0103511Y0084968D01*
X0103553Y0084914D01*
X0103593Y0084858D01*
X0103629Y0084799D01*
X0103661Y0084739D01*
X0103690Y0084677D01*
X0103716Y0084613D01*
X0103737Y0084548D01*
X0103755Y0084481D01*
X0103769Y0084414D01*
X0103779Y0084346D01*
X0103785Y0084278D01*
X0103787Y0084209D01*
X0103785Y0084140D01*
X0103779Y0084072D01*
X0103769Y0084004D01*
X0103755Y0083937D01*
X0103737Y0083870D01*
X0103716Y0083805D01*
X0103690Y0083741D01*
X0103661Y0083679D01*
X0103629Y0083618D01*
X0103593Y0083560D01*
X0103553Y0083504D01*
X0103511Y0083450D01*
X0103465Y0083399D01*
X0103416Y0083350D01*
X0103365Y0083304D01*
X0103311Y0083262D01*
X0103255Y0083222D01*
X0103197Y0083186D01*
X0103136Y0083154D01*
X0103074Y0083125D01*
X0103010Y0083099D01*
X0102945Y0083078D01*
X0102878Y0083060D01*
X0102811Y0083046D01*
X0102743Y0083036D01*
X0102675Y0083030D01*
X0102606Y0083028D01*
X0102537Y0083030D01*
X0102469Y0083036D01*
X0102401Y0083046D01*
X0102334Y0083060D01*
X0102267Y0083078D01*
X0102202Y0083099D01*
X0102138Y0083125D01*
X0102076Y0083154D01*
X0102015Y0083186D01*
X0101957Y0083222D01*
X0101901Y0083262D01*
X0101847Y0083304D01*
X0101796Y0083350D01*
X0101747Y0083399D01*
X0101701Y0083450D01*
X0101659Y0083504D01*
X0101619Y0083560D01*
X0101583Y0083618D01*
X0101551Y0083679D01*
X0101522Y0083741D01*
X0101496Y0083805D01*
X0101475Y0083870D01*
X0101457Y0083937D01*
X0101443Y0084004D01*
X0101433Y0084072D01*
X0101427Y0084140D01*
X0101425Y0084209D01*
X0101425Y0088146D02*
X0101427Y0088215D01*
X0101433Y0088283D01*
X0101443Y0088351D01*
X0101457Y0088418D01*
X0101475Y0088485D01*
X0101496Y0088550D01*
X0101522Y0088614D01*
X0101551Y0088676D01*
X0101583Y0088736D01*
X0101619Y0088795D01*
X0101659Y0088851D01*
X0101701Y0088905D01*
X0101747Y0088956D01*
X0101796Y0089005D01*
X0101847Y0089051D01*
X0101901Y0089093D01*
X0101957Y0089133D01*
X0102015Y0089169D01*
X0102076Y0089201D01*
X0102138Y0089230D01*
X0102202Y0089256D01*
X0102267Y0089277D01*
X0102334Y0089295D01*
X0102401Y0089309D01*
X0102469Y0089319D01*
X0102537Y0089325D01*
X0102606Y0089327D01*
X0102675Y0089325D01*
X0102743Y0089319D01*
X0102811Y0089309D01*
X0102878Y0089295D01*
X0102945Y0089277D01*
X0103010Y0089256D01*
X0103074Y0089230D01*
X0103136Y0089201D01*
X0103196Y0089169D01*
X0103255Y0089133D01*
X0103311Y0089093D01*
X0103365Y0089051D01*
X0103416Y0089005D01*
X0103465Y0088956D01*
X0103511Y0088905D01*
X0103553Y0088851D01*
X0103593Y0088795D01*
X0103629Y0088736D01*
X0103661Y0088676D01*
X0103690Y0088614D01*
X0103716Y0088550D01*
X0103737Y0088485D01*
X0103755Y0088418D01*
X0103769Y0088351D01*
X0103779Y0088283D01*
X0103785Y0088215D01*
X0103787Y0088146D01*
X0103785Y0088077D01*
X0103779Y0088009D01*
X0103769Y0087941D01*
X0103755Y0087874D01*
X0103737Y0087807D01*
X0103716Y0087742D01*
X0103690Y0087678D01*
X0103661Y0087616D01*
X0103629Y0087555D01*
X0103593Y0087497D01*
X0103553Y0087441D01*
X0103511Y0087387D01*
X0103465Y0087336D01*
X0103416Y0087287D01*
X0103365Y0087241D01*
X0103311Y0087199D01*
X0103255Y0087159D01*
X0103197Y0087123D01*
X0103136Y0087091D01*
X0103074Y0087062D01*
X0103010Y0087036D01*
X0102945Y0087015D01*
X0102878Y0086997D01*
X0102811Y0086983D01*
X0102743Y0086973D01*
X0102675Y0086967D01*
X0102606Y0086965D01*
X0102537Y0086967D01*
X0102469Y0086973D01*
X0102401Y0086983D01*
X0102334Y0086997D01*
X0102267Y0087015D01*
X0102202Y0087036D01*
X0102138Y0087062D01*
X0102076Y0087091D01*
X0102015Y0087123D01*
X0101957Y0087159D01*
X0101901Y0087199D01*
X0101847Y0087241D01*
X0101796Y0087287D01*
X0101747Y0087336D01*
X0101701Y0087387D01*
X0101659Y0087441D01*
X0101619Y0087497D01*
X0101583Y0087555D01*
X0101551Y0087616D01*
X0101522Y0087678D01*
X0101496Y0087742D01*
X0101475Y0087807D01*
X0101457Y0087874D01*
X0101443Y0087941D01*
X0101433Y0088009D01*
X0101427Y0088077D01*
X0101425Y0088146D01*
X0101425Y0092083D02*
X0101427Y0092152D01*
X0101433Y0092220D01*
X0101443Y0092288D01*
X0101457Y0092355D01*
X0101475Y0092422D01*
X0101496Y0092487D01*
X0101522Y0092551D01*
X0101551Y0092613D01*
X0101583Y0092673D01*
X0101619Y0092732D01*
X0101659Y0092788D01*
X0101701Y0092842D01*
X0101747Y0092893D01*
X0101796Y0092942D01*
X0101847Y0092988D01*
X0101901Y0093030D01*
X0101957Y0093070D01*
X0102015Y0093106D01*
X0102076Y0093138D01*
X0102138Y0093167D01*
X0102202Y0093193D01*
X0102267Y0093214D01*
X0102334Y0093232D01*
X0102401Y0093246D01*
X0102469Y0093256D01*
X0102537Y0093262D01*
X0102606Y0093264D01*
X0102675Y0093262D01*
X0102743Y0093256D01*
X0102811Y0093246D01*
X0102878Y0093232D01*
X0102945Y0093214D01*
X0103010Y0093193D01*
X0103074Y0093167D01*
X0103136Y0093138D01*
X0103196Y0093106D01*
X0103255Y0093070D01*
X0103311Y0093030D01*
X0103365Y0092988D01*
X0103416Y0092942D01*
X0103465Y0092893D01*
X0103511Y0092842D01*
X0103553Y0092788D01*
X0103593Y0092732D01*
X0103629Y0092673D01*
X0103661Y0092613D01*
X0103690Y0092551D01*
X0103716Y0092487D01*
X0103737Y0092422D01*
X0103755Y0092355D01*
X0103769Y0092288D01*
X0103779Y0092220D01*
X0103785Y0092152D01*
X0103787Y0092083D01*
X0103785Y0092014D01*
X0103779Y0091946D01*
X0103769Y0091878D01*
X0103755Y0091811D01*
X0103737Y0091744D01*
X0103716Y0091679D01*
X0103690Y0091615D01*
X0103661Y0091553D01*
X0103629Y0091492D01*
X0103593Y0091434D01*
X0103553Y0091378D01*
X0103511Y0091324D01*
X0103465Y0091273D01*
X0103416Y0091224D01*
X0103365Y0091178D01*
X0103311Y0091136D01*
X0103255Y0091096D01*
X0103197Y0091060D01*
X0103136Y0091028D01*
X0103074Y0090999D01*
X0103010Y0090973D01*
X0102945Y0090952D01*
X0102878Y0090934D01*
X0102811Y0090920D01*
X0102743Y0090910D01*
X0102675Y0090904D01*
X0102606Y0090902D01*
X0102537Y0090904D01*
X0102469Y0090910D01*
X0102401Y0090920D01*
X0102334Y0090934D01*
X0102267Y0090952D01*
X0102202Y0090973D01*
X0102138Y0090999D01*
X0102076Y0091028D01*
X0102015Y0091060D01*
X0101957Y0091096D01*
X0101901Y0091136D01*
X0101847Y0091178D01*
X0101796Y0091224D01*
X0101747Y0091273D01*
X0101701Y0091324D01*
X0101659Y0091378D01*
X0101619Y0091434D01*
X0101583Y0091492D01*
X0101551Y0091553D01*
X0101522Y0091615D01*
X0101496Y0091679D01*
X0101475Y0091744D01*
X0101457Y0091811D01*
X0101443Y0091878D01*
X0101433Y0091946D01*
X0101427Y0092014D01*
X0101425Y0092083D01*
M02*
